<svg xmlns="http://www.w3.org/2000/svg" width="920" height="620" viewBox="0 0 920 620">
<defs>
<style>
.wire{stroke:#111;stroke-width:2.6;fill:none;stroke-linecap:round;stroke-linejoin:round}
.thin{stroke:#a7b0bd;stroke-width:1.2;fill:none;stroke-linecap:round;stroke-linejoin:round}
.axis{stroke:#111;stroke-width:1.4;fill:none}
.blue{stroke:#1665d8;stroke-width:3;fill:none;stroke-linecap:round;stroke-linejoin:round}
.green{stroke:#13795b;stroke-width:3;fill:none;stroke-linecap:round;stroke-linejoin:round}
.orange{stroke:#b54708;stroke-width:3;fill:none;stroke-linecap:round;stroke-linejoin:round}
.node{fill:#111;stroke:none}
</style>
</defs>
<rect width="100%" height="100%" fill="#fff"/>
<text x="42" y="42" font-family="Arial, Helvetica, sans-serif" font-size="22" font-weight="700" text-anchor="start" fill="#111">005 single-stage NPN common-emitter amplifier</text>
<text x="42" y="68" font-family="Arial, Helvetica, sans-serif" font-size="13" font-weight="400" text-anchor="start" fill="#111">Collector biased close to half of the 12 V supply; emitter resistor has an AC bypass capacitor</text>
<line x1="220" y1="108" x2="760" y2="108" class="wire"/>
<polyline points="760,100 777,108 760,116" class="wire" fill="none"/>
<text x="795" y="114" font-family="Arial, Helvetica, sans-serif" font-size="18" font-weight="700" text-anchor="start" fill="#111">+12 V</text>
<circle cx="220" cy="108" r="5" class="node"/>
<circle cx="300" cy="108" r="5" class="node"/>
<circle cx="470" cy="108" r="5" class="node"/>
<line x1="220" y1="108" x2="220" y2="155" class="wire"/>
<line x1="196" y1="155" x2="244" y2="155" class="wire"/>
<line x1="196" y1="183" x2="244" y2="183" class="wire"/>
<line x1="220" y1="183" x2="220" y2="230" class="wire"/>
<text x="192" y="174" font-family="Arial, Helvetica, sans-serif" font-size="14" font-weight="700" text-anchor="end" fill="#111">C3 100u</text>
<text x="186" y="139" font-family="Arial, Helvetica, sans-serif" font-size="18" font-weight="700" text-anchor="middle" fill="#111">+</text>
<line x1="220" y1="230" x2="220" y2="244" class="wire"/>
<line x1="194" y1="244" x2="246" y2="244" class="wire"/>
<line x1="203" y1="257" x2="237" y2="257" class="wire"/>
<line x1="212" y1="270" x2="228" y2="270" class="wire"/>
<line x1="300" y1="108" x2="300" y2="176" class="wire"/>
<rect x="286" y="176" width="28" height="76" class="wire"/>
<line x1="300" y1="252" x2="300" y2="320" class="wire"/>
<text x="276" y="219" font-family="Arial, Helvetica, sans-serif" font-size="14" font-weight="700" text-anchor="end" fill="#111">R1 110k</text>
<line x1="300" y1="320" x2="300" y2="372" class="wire"/>
<rect x="286" y="372" width="28" height="76" class="wire"/>
<line x1="300" y1="448" x2="300" y2="500" class="wire"/>
<text x="276" y="415" font-family="Arial, Helvetica, sans-serif" font-size="14" font-weight="700" text-anchor="end" fill="#111">R2 24k</text>
<line x1="300" y1="500" x2="300" y2="514" class="wire"/>
<line x1="274" y1="514" x2="326" y2="514" class="wire"/>
<line x1="283" y1="527" x2="317" y2="527" class="wire"/>
<line x1="292" y1="540" x2="308" y2="540" class="wire"/>
<circle cx="300" cy="320" r="5" class="node"/>
<text x="42" y="302" font-family="Arial, Helvetica, sans-serif" font-size="16" font-weight="700" text-anchor="start" fill="#111">Input</text>
<line x1="42" y1="320" x2="92" y2="320" class="wire"/>
<line x1="92" y1="320" x2="153" y2="320" class="wire"/>
<line x1="153" y1="296" x2="153" y2="344" class="wire"/>
<line x1="181" y1="296" x2="181" y2="344" class="wire"/>
<line x1="181" y1="320" x2="242" y2="320" class="wire"/>
<text x="167" y="286" font-family="Arial, Helvetica, sans-serif" font-size="14" font-weight="700" text-anchor="middle" fill="#111">C1 1u</text>
<text x="197" y="303" font-family="Arial, Helvetica, sans-serif" font-size="18" font-weight="700" text-anchor="middle" fill="#111">+</text>
<line x1="242" y1="320" x2="386" y2="320" class="wire"/>
<circle cx="440" cy="320" r="54" class="wire"/>
<line x1="386" y1="320" x2="424" y2="320" class="wire"/>
<line x1="424" y1="286" x2="424" y2="354" class="wire"/>
<line x1="424" y1="296" x2="470" y2="275" class="wire"/>
<line x1="424" y1="344" x2="470" y2="365" class="wire"/>
<polygon points="456.20,358.70 440.27,357.47 444.84,347.47" fill="#111" stroke="none"/>
<text x="396" y="402" font-family="Arial, Helvetica, sans-serif" font-size="14" font-weight="700" text-anchor="middle" fill="#111">VT1 KT3102A</text>
<line x1="300" y1="320" x2="386" y2="320" class="wire"/>
<line x1="470" y1="108" x2="470" y2="153.5" class="wire"/>
<rect x="456" y="153.5" width="28" height="76" class="wire"/>
<line x1="470" y1="229.5" x2="470" y2="275" class="wire"/>
<text x="494" y="196.5" font-family="Arial, Helvetica, sans-serif" font-size="14" font-weight="700" text-anchor="start" fill="#111">RC 5.6k</text>
<circle cx="470" cy="275" r="5" class="node"/>
<line x1="470" y1="275" x2="530" y2="275" class="wire"/>
<line x1="530" y1="275" x2="591" y2="275" class="wire"/>
<line x1="591" y1="251" x2="591" y2="299" class="wire"/>
<line x1="619" y1="251" x2="619" y2="299" class="wire"/>
<line x1="619" y1="275" x2="680" y2="275" class="wire"/>
<text x="605" y="241" font-family="Arial, Helvetica, sans-serif" font-size="14" font-weight="700" text-anchor="middle" fill="#111">C2 10u</text>
<text x="575" y="258" font-family="Arial, Helvetica, sans-serif" font-size="18" font-weight="700" text-anchor="middle" fill="#111">+</text>
<line x1="680" y1="275" x2="730" y2="275" class="wire"/>
<circle cx="730" cy="275" r="5" class="node"/>
<text x="742" y="280" font-family="Arial, Helvetica, sans-serif" font-size="14" font-weight="700" text-anchor="start" fill="#111">OUT</text>
<line x1="730" y1="275" x2="730" y2="349.5" class="wire"/>
<rect x="716" y="349.5" width="28" height="76" class="wire"/>
<line x1="730" y1="425.5" x2="730" y2="500" class="wire"/>
<text x="754" y="392.5" font-family="Arial, Helvetica, sans-serif" font-size="14" font-weight="700" text-anchor="start" fill="#111">Rload 10k</text>
<line x1="730" y1="500" x2="730" y2="514" class="wire"/>
<line x1="704" y1="514" x2="756" y2="514" class="wire"/>
<line x1="713" y1="527" x2="747" y2="527" class="wire"/>
<line x1="722" y1="540" x2="738" y2="540" class="wire"/>
<line x1="470" y1="365" x2="470" y2="394.5" class="wire"/>
<rect x="456" y="394.5" width="28" height="76" class="wire"/>
<line x1="470" y1="470.5" x2="470" y2="500" class="wire"/>
<text x="494" y="437.5" font-family="Arial, Helvetica, sans-serif" font-size="14" font-weight="700" text-anchor="start" fill="#111">RE 1.2k</text>
<line x1="470" y1="365" x2="560" y2="365" class="wire"/>
<line x1="560" y1="365" x2="560" y2="418.5" class="wire"/>
<line x1="536" y1="418.5" x2="584" y2="418.5" class="wire"/>
<line x1="536" y1="446.5" x2="584" y2="446.5" class="wire"/>
<line x1="560" y1="446.5" x2="560" y2="500" class="wire"/>
<text x="588" y="437.5" font-family="Arial, Helvetica, sans-serif" font-size="14" font-weight="700" text-anchor="start" fill="#111">C4 100u</text>
<text x="526" y="402.5" font-family="Arial, Helvetica, sans-serif" font-size="18" font-weight="700" text-anchor="middle" fill="#111">+</text>
<line x1="470" y1="500" x2="560" y2="500" class="wire"/>
<line x1="470" y1="500" x2="470" y2="514" class="wire"/>
<line x1="444" y1="514" x2="496" y2="514" class="wire"/>
<line x1="453" y1="527" x2="487" y2="527" class="wire"/>
<line x1="462" y1="540" x2="478" y2="540" class="wire"/>
</svg>
