<svg xmlns="http://www.w3.org/2000/svg" width="920" height="520" viewBox="0 0 920 520">
<defs>
<style>
.wire{stroke:#111;stroke-width:2.6;fill:none;stroke-linecap:round;stroke-linejoin:round}
.thin{stroke:#a7b0bd;stroke-width:1.2;fill:none;stroke-linecap:round;stroke-linejoin:round}
.axis{stroke:#111;stroke-width:1.4;fill:none}
.blue{stroke:#1665d8;stroke-width:3;fill:none;stroke-linecap:round;stroke-linejoin:round}
.green{stroke:#13795b;stroke-width:3;fill:none;stroke-linecap:round;stroke-linejoin:round}
.orange{stroke:#b54708;stroke-width:3;fill:none;stroke-linecap:round;stroke-linejoin:round}
.node{fill:#111;stroke:none}
</style>
</defs>
<rect width="100%" height="100%" fill="#fff"/>
<text x="76" y="36" font-family="Arial, Helvetica, sans-serif" font-size="22" font-weight="700" text-anchor="start" fill="#111">Bootstrap square response, 1 kHz, Vin = 1000 mVpp</text>
<rect x="76" y="60" width="812" height="396" fill="#fff" stroke="#111" stroke-width="1.4"/>
<line x1="76" y1="60" x2="76" y2="456" class="thin"/>
<text x="76" y="479" font-family="Arial, Helvetica, sans-serif" font-size="12" font-weight="400" text-anchor="middle" fill="#111">0</text>
<line x1="279" y1="60" x2="279" y2="456" class="thin"/>
<text x="279" y="479" font-family="Arial, Helvetica, sans-serif" font-size="12" font-weight="400" text-anchor="middle" fill="#111">1</text>
<line x1="482" y1="60" x2="482" y2="456" class="thin"/>
<text x="482" y="479" font-family="Arial, Helvetica, sans-serif" font-size="12" font-weight="400" text-anchor="middle" fill="#111">2</text>
<line x1="685" y1="60" x2="685" y2="456" class="thin"/>
<text x="685" y="479" font-family="Arial, Helvetica, sans-serif" font-size="12" font-weight="400" text-anchor="middle" fill="#111">3</text>
<line x1="888" y1="60" x2="888" y2="456" class="thin"/>
<text x="888" y="479" font-family="Arial, Helvetica, sans-serif" font-size="12" font-weight="400" text-anchor="middle" fill="#111">4</text>
<line x1="76" y1="456" x2="888" y2="456" class="thin"/>
<text x="66" y="460" font-family="Arial, Helvetica, sans-serif" font-size="12" font-weight="400" text-anchor="end" fill="#111">-5</text>
<line x1="76" y1="357" x2="888" y2="357" class="thin"/>
<text x="66" y="361" font-family="Arial, Helvetica, sans-serif" font-size="12" font-weight="400" text-anchor="end" fill="#111">-2.5</text>
<line x1="76" y1="258" x2="888" y2="258" class="thin"/>
<text x="66" y="262" font-family="Arial, Helvetica, sans-serif" font-size="12" font-weight="400" text-anchor="end" fill="#111">0</text>
<line x1="76" y1="159" x2="888" y2="159" class="thin"/>
<text x="66" y="163" font-family="Arial, Helvetica, sans-serif" font-size="12" font-weight="400" text-anchor="end" fill="#111">2.5</text>
<line x1="76" y1="60" x2="888" y2="60" class="thin"/>
<text x="66" y="64" font-family="Arial, Helvetica, sans-serif" font-size="12" font-weight="400" text-anchor="end" fill="#111">5</text>
<polyline points="76.00,220.44 76.02,220.43 76.06,220.56 76.13,221.86 76.20,224.01 76.21,224.19 76.23,224.58 76.27,225.42 76.34,227.21 76.49,230.95 76.76,236.17 77.15,243.79 77.55,250.39 77.95,255.95 78.34,261.15 78.74,265.80 79.13,270.02 79.53,273.86 79.93,277.85 80.32,281.41 80.72,284.59 81.12,287.46 81.51,290.09 81.91,292.72 82.31,295.14 82.70,297.33 83.10,299.32 83.50,301.13 83.89,302.78 84.29,304.29 84.69,305.67 85.08,306.93 85.48,308.08 85.88,309.14 86.27,310.11 86.67,311.00 87.06,311.81 87.46,312.56 87.86,313.24 88.25,313.87 88.65,314.44 89.05,314.97 89.44,315.46 89.84,315.90 90.24,316.30 90.63,316.68 91.03,317.02 91.43,317.33 91.82,317.62 92.22,317.88 92.62,318.12 93.01,318.34 93.41,318.54 93.80,318.73 94.20,318.90 94.60,319.05 94.99,319.19 95.39,319.32 95.79,319.44 96.18,319.55 96.58,319.65 96.98,319.74 97.37,319.83 97.77,319.90 98.17,319.97 98.56,320.03 98.96,320.09 99.36,320.14 99.75,320.19 100.15,320.24 100.55,320.28 100.94,320.31 101.34,320.35 101.73,320.37 102.13,320.40 102.53,320.42 102.92,320.45 103.32,320.47 103.72,320.49 104.11,320.50 104.51,320.52 104.91,320.53 105.30,320.54 105.70,320.55 106.10,320.56 106.49,320.57 106.89,320.57 107.29,320.58 107.68,320.58 108.08,320.59 108.47,320.59 108.87,320.59 109.27,320.60 109.66,320.60 110.06,320.60 110.46,320.60 110.85,320.60 111.25,320.60 111.65,320.60 112.04,320.60 112.44,320.60 112.84,320.60 113.23,320.60 113.63,320.59 114.03,320.59 114.42,320.59 114.82,320.59 115.22,320.58 115.61,320.58 116.01,320.58 116.40,320.58 116.80,320.57 117.20,320.57 117.59,320.57 117.99,320.56 118.39,320.56 118.78,320.56 119.18,320.55 119.58,320.55 119.97,320.55 120.37,320.54 120.77,320.54 121.16,320.54 121.56,320.53 121.96,320.53 122.35,320.52 122.75,320.52 123.14,320.51 123.54,320.51 123.94,320.51 124.33,320.50 124.73,320.50 125.13,320.49 125.52,320.49 125.92,320.49 126.32,320.48 126.71,320.48 127.11,320.47 127.51,320.47 127.90,320.46 128.30,320.46 128.70,320.46 129.09,320.45 129.49,320.45 129.88,320.44 130.28,320.44 130.68,320.44 131.07,320.43 131.47,320.43 131.87,320.42 132.26,320.42 132.66,320.41 133.06,320.41 133.45,320.40 133.85,320.40 134.25,320.40 134.64,320.39 135.04,320.39 135.44,320.38 135.83,320.38 136.23,320.37 136.63,320.37 137.02,320.37 137.42,320.36 137.81,320.36 138.21,320.35 138.61,320.35 139.00,320.34 139.40,320.34 139.80,320.33 140.19,320.33 140.59,320.33 140.99,320.32 141.38,320.32 141.78,320.31 142.18,320.31 142.57,320.31 142.97,320.30 143.37,320.30 143.76,320.29 144.16,320.29 144.55,320.28 144.95,320.28 145.35,320.27 145.74,320.27 146.14,320.27 146.54,320.26 146.93,320.26 147.33,320.25 147.73,320.25 148.12,320.24 148.52,320.24 148.92,320.24 149.31,320.23 149.71,320.23 150.11,320.22 150.50,320.22 150.90,320.21 151.30,320.21 151.69,320.20 152.09,320.20 152.48,320.20 152.88,320.19 153.28,320.19 153.67,320.18 154.07,320.18 154.47,320.17 154.86,320.17 155.26,320.17 155.66,320.16 156.05,320.16 156.45,320.15 156.85,320.15 157.24,320.14 157.64,320.14 158.04,320.13 158.43,320.13 158.83,320.13 159.22,320.12 159.62,320.12 160.02,320.11 160.41,320.11 160.81,320.10 161.21,320.10 161.60,320.10 162.00,320.09 162.40,320.09 162.79,320.08 163.19,320.08 163.59,320.07 163.98,320.07 164.38,320.06 164.78,320.06 165.17,320.06 165.57,320.05 165.97,320.05 166.36,320.04 166.76,320.04 167.15,320.04 167.55,320.03 167.95,320.03 168.34,320.02 168.74,320.02 169.14,320.01 169.53,320.01 169.93,320.00 170.33,320.00 170.72,320.00 171.12,319.99 171.52,319.99 171.91,319.98 172.31,319.98 172.71,319.97 173.10,319.97 173.50,319.97 173.89,319.96 174.29,319.96 174.69,319.95 175.08,319.95 175.48,319.94 175.88,319.94 176.27,319.93 176.67,319.93 177.07,319.93 177.38,319.92 177.70,319.92 177.72,319.58 177.76,318.79 177.83,317.00 177.91,315.51 177.92,315.25 177.95,314.74 178.01,313.73 178.12,311.75 178.35,307.98 178.74,301.98 179.14,296.75 179.54,291.88 179.93,287.36 180.33,283.16 180.73,279.26 181.12,275.64 181.52,272.27 181.91,269.13 182.31,265.69 182.71,262.47 183.10,259.46 183.50,256.65 183.90,254.02 184.29,251.45 184.52,249.90 184.63,248.90 184.76,247.53 185.02,245.78 185.41,243.18 185.81,240.71 186.21,238.57 186.60,236.80 187.00,235.19 187.40,233.82 187.79,232.54 188.19,231.45 188.59,230.41 188.98,229.52 189.38,228.66 189.78,227.94 190.17,227.23 190.57,226.65 190.97,226.06 191.36,225.57 191.76,225.08 192.15,224.69 192.55,224.28 192.95,223.96 193.34,223.61 193.74,223.35 194.14,223.06 194.53,222.85 194.93,222.60 195.33,222.43 195.72,222.22 196.12,222.09 196.52,221.91 196.91,221.80 197.31,221.65 197.71,221.56 198.10,221.43 198.50,221.37 198.90,221.25 199.29,221.20 199.69,221.10 200.08,221.07 200.48,220.98 200.88,220.95 201.27,220.88 201.67,220.86 202.07,220.79 202.46,220.78 202.86,220.72 203.26,220.72 203.65,220.66 204.05,220.66 204.45,220.61 204.84,220.62 205.24,220.57 205.64,220.58 206.03,220.54 206.43,220.55 206.82,220.51 207.22,220.52 207.62,220.49 208.01,220.50 208.41,220.47 208.81,220.49 209.20,220.45 209.60,220.47 210.00,220.44 210.39,220.46 210.79,220.43 211.19,220.45 211.58,220.42 211.98,220.44 212.38,220.41 212.77,220.43 213.17,220.40 213.56,220.43 213.96,220.40 214.36,220.42 214.75,220.39 215.15,220.42 215.55,220.39 215.94,220.42 216.34,220.39 216.74,220.41 217.13,220.38 217.53,220.41 217.93,220.38 218.32,220.41 218.72,220.38 219.12,220.41 219.51,220.38 219.91,220.41 220.31,220.38 220.70,220.40 221.10,220.38 221.49,220.40 221.89,220.38 222.29,220.40 222.68,220.38 223.08,220.40 223.48,220.38 223.87,220.40 224.27,220.38 224.67,220.40 225.06,220.38 225.46,220.40 225.86,220.37 226.25,220.40 226.65,220.37 227.05,220.40 227.44,220.37 227.84,220.40 228.23,220.37 228.63,220.40 229.03,220.37 229.42,220.40 229.82,220.37 230.22,220.40 230.61,220.37 231.01,220.40 231.41,220.37 231.80,220.40 232.20,220.37 232.60,220.40 232.99,220.37 233.39,220.40 233.79,220.37 234.18,220.40 234.58,220.37 234.98,220.40 235.37,220.37 235.77,220.40 236.16,220.38 236.56,220.40 236.96,220.38 237.35,220.40 237.75,220.38 238.15,220.40 238.54,220.38 238.94,220.40 239.34,220.38 239.73,220.40 240.13,220.38 240.53,220.40 240.92,220.38 241.32,220.40 241.72,220.38 242.11,220.40 242.51,220.38 242.90,220.40 243.30,220.38 243.70,220.40 244.09,220.38 244.49,220.40 244.89,220.38 245.28,220.40 245.68,220.38 246.08,220.40 246.47,220.38 246.87,220.40 247.27,220.38 247.66,220.40 248.06,220.38 248.46,220.40 248.85,220.38 249.25,220.40 249.65,220.38 250.04,220.40 250.44,220.38 250.83,220.40 251.23,220.38 251.63,220.40 252.02,220.38 252.42,220.40 252.82,220.38 253.21,220.40 253.61,220.38 254.01,220.40 254.40,220.38 254.80,220.40 255.20,220.38 255.59,220.40 255.99,220.38 256.39,220.40 256.78,220.38 257.18,220.40 257.57,220.38 257.97,220.40 258.37,220.38 258.76,220.40 259.16,220.38 259.56,220.40 259.95,220.38 260.35,220.40 260.75,220.38 261.14,220.40 261.54,220.38 261.94,220.40 262.33,220.38 262.73,220.40 263.13,220.38 263.52,220.40 263.92,220.38 264.31,220.40 264.71,220.38 265.11,220.40 265.50,220.38 265.90,220.40 266.30,220.38 266.69,220.40 267.09,220.38 267.49,220.40 267.88,220.38 268.28,220.40 268.68,220.38 269.07,220.40 269.47,220.38 269.87,220.40 270.26,220.38 270.66,220.40 271.06,220.38 271.45,220.40 271.85,220.38 272.24,220.40 272.64,220.38 273.04,220.40 273.43,220.38 273.83,220.40 274.23,220.38 274.62,220.40 275.02,220.38 275.42,220.40 275.81,220.38 276.21,220.40 276.61,220.38 277.00,220.40 277.40,220.38 277.80,220.40 278.19,220.38 278.59,220.40 278.79,220.38 279.00,220.40 279.02,220.39 279.06,220.51 279.13,221.79 279.20,223.93 279.21,224.11 279.23,224.50 279.27,225.33 279.34,227.10 279.49,230.81 279.75,235.97 280.15,243.54 280.55,250.11 280.94,255.64 281.34,260.81 281.74,265.44 282.13,269.64 282.53,273.46 282.93,277.43 283.32,280.98 283.72,284.14 284.12,287.00 284.51,289.62 284.91,292.23 285.30,294.64 285.70,296.81 286.10,298.79 286.49,300.59 286.89,302.24 287.29,303.74 287.68,305.11 288.08,306.36 288.48,307.52 288.87,308.57 289.27,309.53 289.67,310.42 290.06,311.23 290.46,311.97 290.86,312.65 291.25,313.27 291.65,313.85 292.04,314.37 292.44,314.85 292.84,315.29 293.23,315.70 293.63,316.07 294.03,316.41 294.42,316.72 294.82,317.01 295.22,317.27 295.61,317.51 296.01,317.73 296.41,317.93 296.80,318.12 297.20,318.29 297.60,318.44 297.99,318.58 298.39,318.71 298.79,318.83 299.18,318.94 299.58,319.04 299.97,319.13 300.37,319.21 300.77,319.29 301.16,319.36 301.56,319.42 301.96,319.48 302.35,319.53 302.75,319.58 303.15,319.62 303.54,319.67 303.94,319.70 304.34,319.73 304.73,319.76 305.13,319.79 305.53,319.81 305.92,319.84 306.32,319.86 306.71,319.87 307.11,319.89 307.51,319.91 307.90,319.92 308.30,319.93 308.70,319.94 309.09,319.95 309.49,319.96 309.89,319.96 310.28,319.97 310.68,319.97 311.08,319.98 311.47,319.98 311.87,319.98 312.27,319.99 312.66,319.99 313.06,319.99 313.45,319.99 313.85,319.99 314.25,319.99 314.64,319.99 315.04,319.99 315.44,319.99 315.83,319.99 316.23,319.99 316.63,319.98 317.02,319.98 317.42,319.98 317.82,319.98 318.21,319.98 318.61,319.97 319.01,319.97 319.40,319.97 319.80,319.96 320.20,319.96 320.59,319.96 320.99,319.96 321.38,319.95 321.78,319.95 322.18,319.94 322.57,319.94 322.97,319.94 323.37,319.93 323.76,319.93 324.16,319.93 324.56,319.92 324.95,319.92 325.35,319.91 325.75,319.91 326.14,319.91 326.54,319.90 326.94,319.90 327.33,319.89 327.73,319.89 328.12,319.89 328.52,319.88 328.92,319.88 329.31,319.87 329.71,319.87 330.11,319.86 330.50,319.86 330.90,319.86 331.30,319.85 331.69,319.85 332.09,319.84 332.49,319.84 332.88,319.84 333.28,319.83 333.68,319.83 334.07,319.82 334.47,319.82 334.87,319.81 335.26,319.81 335.66,319.80 336.05,319.80 336.45,319.80 336.85,319.79 337.24,319.79 337.64,319.78 338.04,319.78 338.43,319.78 338.83,319.77 339.23,319.77 339.62,319.76 340.02,319.76 340.42,319.75 340.81,319.75 341.21,319.74 341.61,319.74 342.00,319.74 342.40,319.73 342.79,319.73 343.19,319.72 343.59,319.72 343.98,319.71 344.38,319.71 344.78,319.71 345.17,319.70 345.57,319.70 345.97,319.69 346.36,319.69 346.76,319.68 347.16,319.68 347.55,319.67 347.95,319.67 348.35,319.67 348.74,319.66 349.14,319.66 349.54,319.65 349.93,319.65 350.33,319.65 350.72,319.64 351.12,319.64 351.52,319.63 351.91,319.63 352.31,319.62 352.71,319.62 353.10,319.61 353.50,319.61 353.90,319.61 354.29,319.60 354.69,319.60 355.09,319.59 355.48,319.59 355.88,319.58 356.28,319.58 356.67,319.58 357.07,319.57 357.46,319.57 357.86,319.56 358.26,319.56 358.65,319.55 359.05,319.55 359.45,319.55 359.84,319.54 360.24,319.54 360.64,319.53 361.03,319.53 361.43,319.52 361.83,319.52 362.22,319.52 362.62,319.51 363.02,319.51 363.41,319.50 363.81,319.50 364.20,319.49 364.60,319.49 365.00,319.48 365.39,319.48 365.79,319.48 366.19,319.47 366.58,319.47 366.98,319.46 367.38,319.46 367.77,319.46 368.17,319.45 368.57,319.45 368.96,319.44 369.36,319.44 369.76,319.43 370.15,319.43 370.55,319.42 370.95,319.42 371.34,319.42 371.74,319.41 372.13,319.41 372.53,319.40 372.93,319.40 373.32,319.39 373.72,319.39 374.12,319.39 374.51,319.38 374.91,319.38 375.31,319.37 375.70,319.37 376.10,319.36 376.50,319.36 376.89,319.36 377.29,319.35 377.69,319.35 378.08,319.34 378.48,319.34 378.87,319.33 379.27,319.33 379.67,319.33 380.06,319.32 380.38,319.32 380.70,319.31 380.72,318.97 380.76,318.19 380.83,316.40 380.91,314.93 380.92,314.67 380.95,314.16 381.01,313.15 381.12,311.19 381.35,307.44 381.74,301.48 382.14,296.29 382.54,291.44 382.93,286.95 383.33,282.78 383.73,278.91 384.12,275.31 384.52,271.96 384.91,268.84 385.31,265.41 385.71,262.21 386.10,259.22 386.50,256.42 386.90,253.79 387.29,251.33 387.55,249.50 387.71,248.31 387.92,246.62 388.32,244.05 388.72,241.33 389.11,239.15 389.51,237.21 389.91,235.63 390.30,234.13 390.70,232.89 391.09,231.68 391.49,230.69 391.89,229.69 392.28,228.89 392.68,228.07 393.08,227.42 393.47,226.73 393.87,226.21 394.27,225.63 394.66,225.21 395.06,224.72 395.46,224.38 395.85,223.97 396.25,223.70 396.65,223.35 397.04,223.13 397.44,222.83 397.83,222.66 398.23,222.40 398.63,222.27 399.02,222.05 399.42,221.95 399.82,221.75 400.21,221.68 400.61,221.51 401.01,221.45 401.40,221.31 401.80,221.27 402.20,221.14 402.59,221.12 402.99,221.00 403.39,220.99 403.78,220.88 404.18,220.88 404.57,220.79 404.97,220.80 405.37,220.71 405.76,220.72 406.16,220.64 406.56,220.66 406.95,220.59 407.35,220.61 407.75,220.54 408.14,220.57 408.54,220.50 408.94,220.54 409.33,220.47 409.73,220.51 410.13,220.44 410.52,220.48 410.92,220.42 411.32,220.46 411.71,220.40 412.11,220.45 412.50,220.39 412.90,220.43 413.30,220.38 413.69,220.42 414.09,220.37 414.49,220.41 414.88,220.36 415.28,220.40 415.68,220.35 416.07,220.40 416.47,220.35 416.87,220.39 417.26,220.34 417.66,220.39 418.06,220.34 418.45,220.38 418.85,220.33 419.24,220.38 419.64,220.33 420.04,220.38 420.43,220.33 420.83,220.38 421.23,220.33 421.62,220.37 422.02,220.33 422.42,220.37 422.81,220.32 423.21,220.37 423.61,220.32 424.00,220.37 424.40,220.32 424.80,220.37 425.19,220.32 425.59,220.37 425.99,220.32 426.38,220.37 426.78,220.32 427.17,220.37 427.57,220.32 427.97,220.37 428.36,220.32 428.76,220.37 429.16,220.32 429.55,220.37 429.95,220.32 430.35,220.37 430.74,220.32 431.14,220.37 431.54,220.32 431.93,220.37 432.33,220.32 432.73,220.37 433.12,220.32 433.52,220.37 433.91,220.32 434.31,220.37 434.71,220.32 435.10,220.37 435.50,220.32 435.90,220.37 436.29,220.32 436.69,220.37 437.09,220.32 437.48,220.37 437.88,220.32 438.28,220.37 438.67,220.32 439.07,220.37 439.47,220.32 439.86,220.37 440.26,220.32 440.66,220.37 441.05,220.32 441.45,220.37 441.84,220.32 442.24,220.37 442.64,220.32 443.03,220.37 443.43,220.32 443.83,220.37 444.22,220.32 444.62,220.37 445.02,220.32 445.41,220.37 445.81,220.32 446.21,220.37 446.60,220.32 447.00,220.37 447.40,220.32 447.79,220.37 448.19,220.32 448.58,220.37 448.98,220.32 449.38,220.37 449.77,220.32 450.17,220.37 450.57,220.32 450.96,220.37 451.36,220.32 451.76,220.37 452.15,220.32 452.55,220.37 452.95,220.32 453.34,220.37 453.74,220.32 454.14,220.37 454.53,220.32 454.93,220.37 455.32,220.33 455.72,220.37 456.12,220.33 456.51,220.37 456.91,220.33 457.31,220.37 457.70,220.33 458.10,220.37 458.50,220.33 458.89,220.37 459.29,220.33 459.69,220.37 460.08,220.33 460.48,220.37 460.88,220.33 461.27,220.37 461.67,220.33 462.07,220.37 462.46,220.33 462.86,220.37 463.25,220.33 463.65,220.37 464.05,220.33 464.44,220.37 464.84,220.33 465.24,220.37 465.63,220.33 466.03,220.37 466.43,220.33 466.82,220.37 467.22,220.33 467.62,220.37 468.01,220.33 468.41,220.37 468.81,220.33 469.20,220.37 469.60,220.33 469.99,220.37 470.39,220.33 470.79,220.37 471.18,220.33 471.58,220.37 471.98,220.33 472.37,220.37 472.77,220.33 473.17,220.37 473.56,220.33 473.96,220.37 474.36,220.33 474.75,220.37 475.15,220.33 475.55,220.37 475.94,220.33 476.34,220.37 476.74,220.33 477.13,220.37 477.53,220.33 477.92,220.37 478.32,220.33 478.72,220.37 479.11,220.33 479.51,220.37 479.91,220.33 480.30,220.37 480.70,220.33 481.10,220.37 481.49,220.33 481.75,220.37 482.00,220.33 482.02,220.35 482.06,220.46 482.13,221.64 482.20,223.85 482.21,224.05 482.23,224.43 482.27,225.25 482.34,226.98 482.49,230.62 482.76,235.85 483.15,243.39 483.55,249.92 483.95,255.41 484.34,260.54 484.74,265.14 485.14,269.32 485.53,273.12 485.93,277.06 486.33,280.59 486.72,283.74 487.12,286.58 487.52,289.18 487.91,291.78 488.31,294.17 488.71,296.33 489.10,298.30 489.50,300.08 489.90,301.72 490.29,303.21 490.69,304.58 491.08,305.82 491.48,306.97 491.88,308.01 492.27,308.97 492.67,309.85 493.07,310.66 493.46,311.40 493.86,312.08 494.26,312.70 494.65,313.27 495.05,313.79 495.45,314.27 495.84,314.71 496.24,315.11 496.64,315.48 497.03,315.82 497.43,316.13 497.82,316.42 498.22,316.67 498.62,316.92 499.01,317.13 499.41,317.34 499.81,317.52 500.20,317.69 500.60,317.84 501.00,317.98 501.39,318.11 501.79,318.23 502.19,318.34 502.58,318.44 502.98,318.53 503.38,318.61 503.77,318.69 504.17,318.76 504.56,318.82 504.96,318.88 505.36,318.93 505.75,318.98 506.15,319.02 506.55,319.06 506.94,319.10 507.34,319.13 507.74,319.16 508.13,319.19 508.53,319.21 508.93,319.24 509.32,319.25 509.72,319.27 510.12,319.29 510.51,319.30 510.91,319.32 511.31,319.33 511.70,319.34 512.10,319.35 512.49,319.35 512.89,319.36 513.29,319.37 513.68,319.37 514.08,319.38 514.48,319.38 514.87,319.38 515.27,319.39 515.67,319.39 516.06,319.39 516.46,319.39 516.86,319.39 517.25,319.39 517.65,319.39 518.05,319.39 518.44,319.39 518.84,319.39 519.23,319.39 519.63,319.38 520.03,319.38 520.42,319.38 520.82,319.38 521.22,319.37 521.61,319.37 522.01,319.37 522.41,319.37 522.80,319.36 523.20,319.36 523.60,319.36 523.99,319.36 524.39,319.35 524.79,319.35 525.18,319.34 525.58,319.34 525.98,319.34 526.37,319.33 526.77,319.33 527.16,319.33 527.56,319.32 527.96,319.32 528.35,319.31 528.75,319.31 529.15,319.31 529.54,319.30 529.94,319.30 530.34,319.29 530.73,319.29 531.13,319.29 531.53,319.28 531.92,319.28 532.32,319.27 532.72,319.27 533.11,319.26 533.51,319.26 533.90,319.26 534.30,319.25 534.70,319.25 535.09,319.25 535.49,319.24 535.89,319.24 536.28,319.23 536.68,319.23 537.08,319.22 537.47,319.22 537.87,319.21 538.27,319.21 538.66,319.21 539.06,319.20 539.46,319.20 539.85,319.19 540.25,319.19 540.65,319.19 541.04,319.18 541.44,319.18 541.83,319.17 542.23,319.17 542.63,319.16 543.02,319.16 543.42,319.15 543.82,319.15 544.21,319.15 544.61,319.14 545.01,319.14 545.40,319.13 545.80,319.13 546.20,319.13 546.59,319.12 546.99,319.12 547.39,319.11 547.78,319.11 548.18,319.10 548.57,319.10 548.97,319.09 549.37,319.09 549.76,319.09 550.16,319.08 550.56,319.08 550.95,319.07 551.35,319.07 551.75,319.07 552.14,319.06 552.54,319.06 552.94,319.05 553.33,319.05 553.73,319.04 554.13,319.04 554.52,319.03 554.92,319.03 555.31,319.03 555.71,319.02 556.11,319.02 556.50,319.01 556.90,319.01 557.30,319.00 557.69,319.00 558.09,319.00 558.49,318.99 558.88,318.99 559.28,318.98 559.68,318.98 560.07,318.97 560.47,318.97 560.87,318.96 561.26,318.96 561.66,318.96 562.06,318.95 562.45,318.95 562.85,318.94 563.24,318.94 563.64,318.94 564.04,318.93 564.43,318.93 564.83,318.92 565.23,318.92 565.62,318.91 566.02,318.91 566.42,318.90 566.81,318.90 567.21,318.90 567.61,318.89 568.00,318.89 568.40,318.88 568.80,318.88 569.19,318.88 569.59,318.87 569.98,318.87 570.38,318.86 570.78,318.86 571.17,318.85 571.57,318.85 571.97,318.84 572.36,318.84 572.76,318.84 573.16,318.83 573.55,318.83 573.95,318.82 574.35,318.82 574.74,318.82 575.14,318.81 575.54,318.81 575.93,318.80 576.33,318.80 576.73,318.79 577.12,318.79 577.52,318.78 577.91,318.78 578.31,318.78 578.71,318.77 579.10,318.77 579.50,318.76 579.90,318.76 580.29,318.76 580.69,318.75 581.09,318.75 581.48,318.74 581.88,318.74 582.28,318.73 582.67,318.73 583.07,318.72 583.39,318.72 583.70,318.72 583.72,318.38 583.76,317.59 583.83,315.81 583.91,314.35 583.92,314.10 583.95,313.59 584.01,312.59 584.12,310.63 584.35,306.91 584.74,300.98 585.14,295.83 585.54,291.02 585.93,286.55 586.33,282.41 586.73,278.56 587.12,274.98 587.52,271.65 587.91,268.55 588.31,265.14 588.71,261.95 589.10,258.98 589.50,256.19 589.90,253.58 590.29,251.19 590.58,249.21 590.78,247.78 591.03,245.99 591.43,243.47 591.83,240.85 592.22,238.77 592.62,236.86 593.02,235.34 593.41,233.85 593.81,232.65 594.21,231.44 594.60,230.49 595.00,229.49 595.39,228.73 595.79,227.89 596.19,227.28 596.58,226.58 596.98,226.09 597.38,225.50 597.77,225.10 598.17,224.60 598.57,224.29 598.96,223.86 599.36,223.61 599.76,223.25 600.15,223.05 600.55,222.74 600.95,222.59 601.34,222.32 601.74,222.21 602.14,221.97 602.53,221.89 602.93,221.68 603.32,221.63 603.72,221.44 604.12,221.41 604.51,221.24 604.91,221.22 605.31,221.07 605.70,221.07 606.10,220.94 606.50,220.95 606.89,220.82 607.29,220.84 607.69,220.73 608.08,220.76 608.48,220.65 608.88,220.69 609.27,220.58 609.67,220.63 610.06,220.53 610.46,220.58 610.86,220.49 611.25,220.54 611.65,220.45 612.05,220.50 612.44,220.42 612.84,220.47 613.24,220.39 613.63,220.45 614.03,220.37 614.43,220.43 614.82,220.35 615.22,220.41 615.62,220.34 616.01,220.40 616.41,220.33 616.80,220.39 617.20,220.32 617.60,220.38 617.99,220.31 618.39,220.37 618.79,220.30 619.18,220.37 619.58,220.29 619.98,220.36 620.37,220.29 620.77,220.36 621.17,220.29 621.56,220.35 621.96,220.28 622.36,220.35 622.75,220.28 623.15,220.35 623.55,220.28 623.94,220.34 624.34,220.28 624.73,220.34 625.13,220.28 625.53,220.34 625.92,220.27 626.32,220.34 626.72,220.27 627.11,220.34 627.51,220.27 627.91,220.34 628.30,220.27 628.70,220.34 629.10,220.27 629.49,220.34 629.89,220.27 630.29,220.34 630.68,220.27 631.08,220.34 631.47,220.27 631.87,220.34 632.27,220.27 632.66,220.34 633.06,220.27 633.46,220.34 633.85,220.27 634.25,220.34 634.65,220.27 635.04,220.34 635.44,220.27 635.84,220.34 636.23,220.27 636.63,220.34 637.03,220.27 637.42,220.34 637.82,220.27 638.22,220.34 638.61,220.27 639.01,220.34 639.40,220.27 639.80,220.34 640.20,220.27 640.59,220.34 640.99,220.27 641.39,220.34 641.78,220.27 642.18,220.34 642.58,220.27 642.97,220.34 643.37,220.27 643.77,220.34 644.16,220.27 644.56,220.34 644.96,220.27 645.35,220.34 645.75,220.27 646.14,220.34 646.54,220.27 646.94,220.34 647.33,220.27 647.73,220.34 648.13,220.27 648.52,220.34 648.92,220.27 649.32,220.34 649.71,220.27 650.11,220.34 650.51,220.27 650.90,220.34 651.30,220.27 651.70,220.34 652.09,220.27 652.49,220.34 652.89,220.27 653.28,220.34 653.68,220.27 654.07,220.34 654.47,220.27 654.87,220.34 655.26,220.27 655.66,220.34 656.06,220.27 656.45,220.34 656.85,220.27 657.25,220.34 657.64,220.27 658.04,220.34 658.44,220.28 658.83,220.34 659.23,220.28 659.63,220.34 660.02,220.28 660.42,220.34 660.81,220.28 661.21,220.34 661.61,220.28 662.00,220.34 662.40,220.28 662.80,220.34 663.19,220.28 663.59,220.34 663.99,220.28 664.38,220.34 664.78,220.28 665.18,220.34 665.57,220.28 665.97,220.34 666.37,220.28 666.76,220.34 667.16,220.28 667.55,220.34 667.95,220.28 668.35,220.34 668.74,220.28 669.14,220.34 669.54,220.28 669.93,220.34 670.33,220.28 670.73,220.34 671.12,220.28 671.52,220.34 671.92,220.28 672.31,220.34 672.71,220.28 673.11,220.34 673.50,220.28 673.90,220.34 674.30,220.28 674.69,220.34 675.09,220.28 675.48,220.34 675.88,220.28 676.28,220.34 676.67,220.28 677.07,220.34 677.47,220.28 677.86,220.34 678.26,220.28 678.66,220.34 679.05,220.28 679.45,220.34 679.85,220.28 680.24,220.34 680.64,220.28 681.04,220.34 681.43,220.28 681.83,220.34 682.22,220.28 682.62,220.34 683.02,220.28 683.41,220.34 683.81,220.28 684.21,220.34 684.60,220.28 685.00,220.34 685.02,220.31 685.06,220.41 685.13,221.45 685.20,223.75 685.21,223.84 685.23,224.23 685.27,225.05 685.34,226.81 685.49,230.50 685.75,235.54 686.15,243.00 686.54,249.50 686.94,254.98 687.34,260.09 687.73,264.68 688.13,268.85 688.52,272.64 688.92,276.57 689.32,280.09 689.71,283.24 690.11,286.07 690.51,288.66 690.90,291.06 691.30,293.44 691.70,295.61 692.09,297.59 692.49,299.39 692.89,301.03 693.28,302.53 693.68,303.90 694.08,305.15 694.47,306.30 694.87,307.35 695.26,308.31 695.66,309.20 696.06,310.01 696.45,310.75 696.85,311.43 697.25,312.06 697.64,312.63 698.04,313.16 698.44,313.64 698.83,314.08 699.23,314.48 699.63,314.86 700.02,315.20 700.42,315.51 700.82,315.80 701.21,316.06 701.61,316.30 702.01,316.52 702.40,316.72 702.80,316.91 703.19,317.08 703.59,317.24 703.99,317.38 704.38,317.51 704.78,317.63 705.18,317.74 705.57,317.84 705.97,317.93 706.37,318.01 706.76,318.09 707.16,318.16 707.56,318.22 707.95,318.28 708.35,318.33 708.75,318.38 709.14,318.43 709.54,318.47 709.93,318.50 710.33,318.54 710.73,318.57 711.12,318.59 711.52,318.62 711.92,318.64 712.31,318.66 712.71,318.68 713.11,318.70 713.50,318.71 713.90,318.72 714.30,318.73 714.69,318.75 715.09,318.75 715.49,318.76 715.88,318.77 716.28,318.78 716.67,318.78 717.07,318.79 717.47,318.79 717.86,318.79 718.26,318.79 718.66,318.80 719.05,318.80 719.45,318.80 719.85,318.80 720.24,318.80 720.64,318.80 721.04,318.80 721.43,318.80 721.83,318.80 722.23,318.79 722.62,318.79 723.02,318.79 723.42,318.79 723.81,318.79 724.21,318.79 724.60,318.78 725.00,318.78 725.40,318.78 725.79,318.77 726.19,318.77 726.59,318.77 726.98,318.76 727.38,318.76 727.78,318.76 728.17,318.75 728.57,318.75 728.97,318.75 729.36,318.74 729.76,318.74 730.16,318.74 730.55,318.73 730.95,318.73 731.34,318.72 731.74,318.72 732.14,318.72 732.53,318.71 732.93,318.71 733.33,318.70 733.72,318.70 734.12,318.70 734.52,318.69 734.91,318.69 735.31,318.68 735.71,318.68 736.10,318.68 736.50,318.67 736.90,318.67 737.29,318.66 737.69,318.66 738.09,318.65 738.48,318.65 738.88,318.65 739.27,318.64 739.67,318.64 740.07,318.63 740.46,318.63 740.86,318.63 741.26,318.62 741.65,318.62 742.05,318.61 742.45,318.61 742.84,318.60 743.24,318.60 743.64,318.59 744.03,318.59 744.43,318.59 744.83,318.58 745.22,318.58 745.62,318.57 746.01,318.57 746.41,318.57 746.81,318.56 747.20,318.56 747.60,318.55 748.00,318.55 748.39,318.54 748.79,318.54 749.19,318.54 749.58,318.53 749.98,318.53 750.38,318.52 750.77,318.52 751.17,318.51 751.57,318.51 751.96,318.51 752.36,318.50 752.76,318.50 753.15,318.49 753.55,318.49 753.94,318.48 754.34,318.48 754.74,318.48 755.13,318.47 755.53,318.47 755.93,318.46 756.32,318.46 756.72,318.46 757.12,318.45 757.51,318.45 757.91,318.44 758.31,318.44 758.70,318.43 759.10,318.43 759.50,318.42 759.89,318.42 760.29,318.42 760.68,318.41 761.08,318.41 761.48,318.40 761.87,318.40 762.27,318.40 762.67,318.39 763.06,318.39 763.46,318.38 763.86,318.38 764.25,318.37 764.65,318.37 765.05,318.36 765.44,318.36 765.84,318.36 766.24,318.35 766.63,318.35 767.03,318.34 767.42,318.34 767.82,318.34 768.22,318.33 768.61,318.33 769.01,318.32 769.41,318.32 769.80,318.31 770.20,318.31 770.60,318.30 770.99,318.30 771.39,318.30 771.79,318.29 772.18,318.29 772.58,318.28 772.98,318.28 773.37,318.28 773.77,318.27 774.17,318.27 774.56,318.26 774.96,318.26 775.35,318.25 775.75,318.25 776.15,318.24 776.54,318.24 776.94,318.24 777.34,318.23 777.73,318.23 778.13,318.22 778.53,318.22 778.92,318.22 779.32,318.21 779.72,318.21 780.11,318.20 780.51,318.20 780.91,318.19 781.30,318.19 781.70,318.18 782.09,318.18 782.49,318.18 782.89,318.17 783.28,318.17 783.68,318.16 784.08,318.16 784.47,318.16 784.87,318.15 785.27,318.15 785.66,318.14 786.06,318.14 786.38,318.13 786.70,318.13 786.72,317.79 786.76,317.01 786.83,315.22 786.91,313.78 786.92,313.53 786.95,313.02 787.01,312.03 787.12,310.09 787.35,306.39 787.74,300.50 788.14,295.37 788.54,290.59 788.93,286.16 789.33,282.04 789.73,278.21 790.12,274.65 790.52,271.34 790.91,268.27 791.31,264.87 791.71,261.70 792.10,258.74 792.50,255.96 792.90,253.36 793.29,251.04 793.59,248.96 793.84,247.45 794.12,245.63 794.52,243.53 794.91,241.00 795.31,238.93 795.70,236.99 796.10,235.46 796.50,233.94 796.89,232.75 797.29,231.51 797.69,230.56 798.08,229.53 798.48,228.78 798.88,227.92 799.27,227.31 799.67,226.59 800.07,226.11 800.46,225.50 800.86,225.11 801.26,224.60 801.65,224.29 802.05,223.85 802.45,223.61 802.84,223.23 803.24,223.05 803.63,222.72 804.03,222.58 804.43,222.29 804.82,222.19 805.22,221.94 805.62,221.87 806.01,221.64 806.41,221.61 806.81,221.40 807.20,221.38 807.60,221.20 808.00,221.20 808.39,221.03 808.79,221.05 809.19,220.89 809.58,220.92 809.98,220.78 810.37,220.82 810.77,220.68 811.17,220.73 811.56,220.60 811.96,220.66 812.36,220.54 812.75,220.60 813.15,220.48 813.55,220.55 813.94,220.44 814.34,220.50 814.74,220.40 815.13,220.47 815.53,220.37 815.93,220.44 816.32,220.34 816.72,220.42 817.12,220.32 817.51,220.40 817.91,220.30 818.30,220.38 818.70,220.29 819.10,220.37 819.49,220.28 819.89,220.36 820.29,220.27 820.68,220.35 821.08,220.26 821.48,220.34 821.87,220.25 822.27,220.33 822.67,220.25 823.06,220.33 823.46,220.24 823.86,220.32 824.25,220.24 824.65,220.32 825.04,220.23 825.44,220.32 825.84,220.23 826.23,220.31 826.63,220.23 827.03,220.31 827.42,220.23 827.82,220.31 828.22,220.23 828.61,220.31 829.01,220.23 829.41,220.31 829.80,220.22 830.20,220.31 830.60,220.22 830.99,220.31 831.39,220.22 831.79,220.30 832.18,220.22 832.58,220.30 832.97,220.22 833.37,220.30 833.77,220.22 834.16,220.30 834.56,220.22 834.96,220.30 835.35,220.22 835.75,220.30 836.15,220.22 836.54,220.30 836.94,220.22 837.34,220.30 837.73,220.22 838.13,220.30 838.53,220.22 838.92,220.30 839.32,220.22 839.71,220.30 840.11,220.22 840.51,220.30 840.90,220.22 841.30,220.30 841.70,220.22 842.09,220.30 842.49,220.22 842.89,220.30 843.28,220.22 843.68,220.30 844.08,220.22 844.47,220.30 844.87,220.22 845.27,220.30 845.66,220.22 846.06,220.30 846.45,220.22 846.85,220.30 847.25,220.22 847.64,220.30 848.04,220.22 848.44,220.30 848.83,220.22 849.23,220.30 849.63,220.22 850.02,220.30 850.42,220.22 850.82,220.30 851.21,220.22 851.61,220.30 852.01,220.22 852.40,220.30 852.80,220.23 853.20,220.30 853.59,220.23 853.99,220.30 854.38,220.23 854.78,220.30 855.18,220.23 855.57,220.30 855.97,220.23 856.37,220.30 856.76,220.23 857.16,220.30 857.56,220.23 857.95,220.30 858.35,220.23 858.75,220.30 859.14,220.23 859.54,220.30 859.94,220.23 860.33,220.30 860.73,220.23 861.12,220.30 861.52,220.23 861.92,220.30 862.31,220.23 862.71,220.30 863.11,220.23 863.50,220.30 863.90,220.23 864.30,220.30 864.69,220.23 865.09,220.30 865.49,220.23 865.88,220.30 866.28,220.23 866.68,220.30 867.07,220.23 867.47,220.30 867.87,220.23 868.26,220.30 868.66,220.23 869.05,220.30 869.45,220.23 869.85,220.30 870.24,220.23 870.64,220.30 871.04,220.23 871.43,220.30 871.83,220.23 872.23,220.30 872.62,220.23 873.02,220.30 873.42,220.23 873.81,220.30 874.21,220.23 874.61,220.30 875.00,220.23 875.40,220.30 875.79,220.23 876.19,220.30 876.59,220.23 876.98,220.30 877.38,220.23 877.78,220.30 878.17,220.23 878.57,220.30 878.97,220.23 879.36,220.30 879.76,220.23 880.16,220.30 880.55,220.23 880.95,220.30 881.35,220.23 881.74,220.30 882.14,220.23 882.54,220.30 882.93,220.23 883.33,220.30 883.72,220.23 884.12,220.30 884.52,220.23 884.91,220.30 885.31,220.23 885.71,220.30 886.10,220.23 886.50,220.30 886.90,220.23 887.29,220.30 887.65,220.23" fill="none" stroke="#1665d8" stroke-width="3" stroke-linejoin="round"/>
<polyline points="76.00,297.60 76.02,289.68 76.06,273.84 76.13,246.12 76.20,218.40 76.21,218.40 76.23,218.40 76.27,218.40 76.34,218.40 76.49,218.40 76.76,218.40 77.15,218.40 77.55,218.40 77.95,218.40 78.34,218.40 78.74,218.40 79.13,218.40 79.53,218.40 79.93,218.40 80.32,218.40 80.72,218.40 81.12,218.40 81.51,218.40 81.91,218.40 82.31,218.40 82.70,218.40 83.10,218.40 83.50,218.40 83.89,218.40 84.29,218.40 84.69,218.40 85.08,218.40 85.48,218.40 85.88,218.40 86.27,218.40 86.67,218.40 87.06,218.40 87.46,218.40 87.86,218.40 88.25,218.40 88.65,218.40 89.05,218.40 89.44,218.40 89.84,218.40 90.24,218.40 90.63,218.40 91.03,218.40 91.43,218.40 91.82,218.40 92.22,218.40 92.62,218.40 93.01,218.40 93.41,218.40 93.80,218.40 94.20,218.40 94.60,218.40 94.99,218.40 95.39,218.40 95.79,218.40 96.18,218.40 96.58,218.40 96.98,218.40 97.37,218.40 97.77,218.40 98.17,218.40 98.56,218.40 98.96,218.40 99.36,218.40 99.75,218.40 100.15,218.40 100.55,218.40 100.94,218.40 101.34,218.40 101.73,218.40 102.13,218.40 102.53,218.40 102.92,218.40 103.32,218.40 103.72,218.40 104.11,218.40 104.51,218.40 104.91,218.40 105.30,218.40 105.70,218.40 106.10,218.40 106.49,218.40 106.89,218.40 107.29,218.40 107.68,218.40 108.08,218.40 108.47,218.40 108.87,218.40 109.27,218.40 109.66,218.40 110.06,218.40 110.46,218.40 110.85,218.40 111.25,218.40 111.65,218.40 112.04,218.40 112.44,218.40 112.84,218.40 113.23,218.40 113.63,218.40 114.03,218.40 114.42,218.40 114.82,218.40 115.22,218.40 115.61,218.40 116.01,218.40 116.40,218.40 116.80,218.40 117.20,218.40 117.59,218.40 117.99,218.40 118.39,218.40 118.78,218.40 119.18,218.40 119.58,218.40 119.97,218.40 120.37,218.40 120.77,218.40 121.16,218.40 121.56,218.40 121.96,218.40 122.35,218.40 122.75,218.40 123.14,218.40 123.54,218.40 123.94,218.40 124.33,218.40 124.73,218.40 125.13,218.40 125.52,218.40 125.92,218.40 126.32,218.40 126.71,218.40 127.11,218.40 127.51,218.40 127.90,218.40 128.30,218.40 128.70,218.40 129.09,218.40 129.49,218.40 129.88,218.40 130.28,218.40 130.68,218.40 131.07,218.40 131.47,218.40 131.87,218.40 132.26,218.40 132.66,218.40 133.06,218.40 133.45,218.40 133.85,218.40 134.25,218.40 134.64,218.40 135.04,218.40 135.44,218.40 135.83,218.40 136.23,218.40 136.63,218.40 137.02,218.40 137.42,218.40 137.81,218.40 138.21,218.40 138.61,218.40 139.00,218.40 139.40,218.40 139.80,218.40 140.19,218.40 140.59,218.40 140.99,218.40 141.38,218.40 141.78,218.40 142.18,218.40 142.57,218.40 142.97,218.40 143.37,218.40 143.76,218.40 144.16,218.40 144.55,218.40 144.95,218.40 145.35,218.40 145.74,218.40 146.14,218.40 146.54,218.40 146.93,218.40 147.33,218.40 147.73,218.40 148.12,218.40 148.52,218.40 148.92,218.40 149.31,218.40 149.71,218.40 150.11,218.40 150.50,218.40 150.90,218.40 151.30,218.40 151.69,218.40 152.09,218.40 152.48,218.40 152.88,218.40 153.28,218.40 153.67,218.40 154.07,218.40 154.47,218.40 154.86,218.40 155.26,218.40 155.66,218.40 156.05,218.40 156.45,218.40 156.85,218.40 157.24,218.40 157.64,218.40 158.04,218.40 158.43,218.40 158.83,218.40 159.22,218.40 159.62,218.40 160.02,218.40 160.41,218.40 160.81,218.40 161.21,218.40 161.60,218.40 162.00,218.40 162.40,218.40 162.79,218.40 163.19,218.40 163.59,218.40 163.98,218.40 164.38,218.40 164.78,218.40 165.17,218.40 165.57,218.40 165.97,218.40 166.36,218.40 166.76,218.40 167.15,218.40 167.55,218.40 167.95,218.40 168.34,218.40 168.74,218.40 169.14,218.40 169.53,218.40 169.93,218.40 170.33,218.40 170.72,218.40 171.12,218.40 171.52,218.40 171.91,218.40 172.31,218.40 172.71,218.40 173.10,218.40 173.50,218.40 173.89,218.40 174.29,218.40 174.69,218.40 175.08,218.40 175.48,218.40 175.88,218.40 176.27,218.40 176.67,218.40 177.07,218.40 177.38,218.40 177.70,218.40 177.72,226.32 177.76,242.16 177.83,269.88 177.91,297.60 177.92,297.60 177.95,297.60 178.01,297.60 178.12,297.60 178.35,297.60 178.74,297.60 179.14,297.60 179.54,297.60 179.93,297.60 180.33,297.60 180.73,297.60 181.12,297.60 181.52,297.60 181.91,297.60 182.31,297.60 182.71,297.60 183.10,297.60 183.50,297.60 183.90,297.60 184.29,297.60 184.52,297.60 184.63,297.60 184.76,297.60 185.02,297.60 185.41,297.60 185.81,297.60 186.21,297.60 186.60,297.60 187.00,297.60 187.40,297.60 187.79,297.60 188.19,297.60 188.59,297.60 188.98,297.60 189.38,297.60 189.78,297.60 190.17,297.60 190.57,297.60 190.97,297.60 191.36,297.60 191.76,297.60 192.15,297.60 192.55,297.60 192.95,297.60 193.34,297.60 193.74,297.60 194.14,297.60 194.53,297.60 194.93,297.60 195.33,297.60 195.72,297.60 196.12,297.60 196.52,297.60 196.91,297.60 197.31,297.60 197.71,297.60 198.10,297.60 198.50,297.60 198.90,297.60 199.29,297.60 199.69,297.60 200.08,297.60 200.48,297.60 200.88,297.60 201.27,297.60 201.67,297.60 202.07,297.60 202.46,297.60 202.86,297.60 203.26,297.60 203.65,297.60 204.05,297.60 204.45,297.60 204.84,297.60 205.24,297.60 205.64,297.60 206.03,297.60 206.43,297.60 206.82,297.60 207.22,297.60 207.62,297.60 208.01,297.60 208.41,297.60 208.81,297.60 209.20,297.60 209.60,297.60 210.00,297.60 210.39,297.60 210.79,297.60 211.19,297.60 211.58,297.60 211.98,297.60 212.38,297.60 212.77,297.60 213.17,297.60 213.56,297.60 213.96,297.60 214.36,297.60 214.75,297.60 215.15,297.60 215.55,297.60 215.94,297.60 216.34,297.60 216.74,297.60 217.13,297.60 217.53,297.60 217.93,297.60 218.32,297.60 218.72,297.60 219.12,297.60 219.51,297.60 219.91,297.60 220.31,297.60 220.70,297.60 221.10,297.60 221.49,297.60 221.89,297.60 222.29,297.60 222.68,297.60 223.08,297.60 223.48,297.60 223.87,297.60 224.27,297.60 224.67,297.60 225.06,297.60 225.46,297.60 225.86,297.60 226.25,297.60 226.65,297.60 227.05,297.60 227.44,297.60 227.84,297.60 228.23,297.60 228.63,297.60 229.03,297.60 229.42,297.60 229.82,297.60 230.22,297.60 230.61,297.60 231.01,297.60 231.41,297.60 231.80,297.60 232.20,297.60 232.60,297.60 232.99,297.60 233.39,297.60 233.79,297.60 234.18,297.60 234.58,297.60 234.98,297.60 235.37,297.60 235.77,297.60 236.16,297.60 236.56,297.60 236.96,297.60 237.35,297.60 237.75,297.60 238.15,297.60 238.54,297.60 238.94,297.60 239.34,297.60 239.73,297.60 240.13,297.60 240.53,297.60 240.92,297.60 241.32,297.60 241.72,297.60 242.11,297.60 242.51,297.60 242.90,297.60 243.30,297.60 243.70,297.60 244.09,297.60 244.49,297.60 244.89,297.60 245.28,297.60 245.68,297.60 246.08,297.60 246.47,297.60 246.87,297.60 247.27,297.60 247.66,297.60 248.06,297.60 248.46,297.60 248.85,297.60 249.25,297.60 249.65,297.60 250.04,297.60 250.44,297.60 250.83,297.60 251.23,297.60 251.63,297.60 252.02,297.60 252.42,297.60 252.82,297.60 253.21,297.60 253.61,297.60 254.01,297.60 254.40,297.60 254.80,297.60 255.20,297.60 255.59,297.60 255.99,297.60 256.39,297.60 256.78,297.60 257.18,297.60 257.57,297.60 257.97,297.60 258.37,297.60 258.76,297.60 259.16,297.60 259.56,297.60 259.95,297.60 260.35,297.60 260.75,297.60 261.14,297.60 261.54,297.60 261.94,297.60 262.33,297.60 262.73,297.60 263.13,297.60 263.52,297.60 263.92,297.60 264.31,297.60 264.71,297.60 265.11,297.60 265.50,297.60 265.90,297.60 266.30,297.60 266.69,297.60 267.09,297.60 267.49,297.60 267.88,297.60 268.28,297.60 268.68,297.60 269.07,297.60 269.47,297.60 269.87,297.60 270.26,297.60 270.66,297.60 271.06,297.60 271.45,297.60 271.85,297.60 272.24,297.60 272.64,297.60 273.04,297.60 273.43,297.60 273.83,297.60 274.23,297.60 274.62,297.60 275.02,297.60 275.42,297.60 275.81,297.60 276.21,297.60 276.61,297.60 277.00,297.60 277.40,297.60 277.80,297.60 278.19,297.60 278.59,297.60 278.79,297.60 279.00,297.60 279.02,289.68 279.06,273.84 279.13,246.12 279.20,218.40 279.21,218.40 279.23,218.40 279.27,218.40 279.34,218.40 279.49,218.40 279.75,218.40 280.15,218.40 280.55,218.40 280.94,218.40 281.34,218.40 281.74,218.40 282.13,218.40 282.53,218.40 282.93,218.40 283.32,218.40 283.72,218.40 284.12,218.40 284.51,218.40 284.91,218.40 285.30,218.40 285.70,218.40 286.10,218.40 286.49,218.40 286.89,218.40 287.29,218.40 287.68,218.40 288.08,218.40 288.48,218.40 288.87,218.40 289.27,218.40 289.67,218.40 290.06,218.40 290.46,218.40 290.86,218.40 291.25,218.40 291.65,218.40 292.04,218.40 292.44,218.40 292.84,218.40 293.23,218.40 293.63,218.40 294.03,218.40 294.42,218.40 294.82,218.40 295.22,218.40 295.61,218.40 296.01,218.40 296.41,218.40 296.80,218.40 297.20,218.40 297.60,218.40 297.99,218.40 298.39,218.40 298.79,218.40 299.18,218.40 299.58,218.40 299.97,218.40 300.37,218.40 300.77,218.40 301.16,218.40 301.56,218.40 301.96,218.40 302.35,218.40 302.75,218.40 303.15,218.40 303.54,218.40 303.94,218.40 304.34,218.40 304.73,218.40 305.13,218.40 305.53,218.40 305.92,218.40 306.32,218.40 306.71,218.40 307.11,218.40 307.51,218.40 307.90,218.40 308.30,218.40 308.70,218.40 309.09,218.40 309.49,218.40 309.89,218.40 310.28,218.40 310.68,218.40 311.08,218.40 311.47,218.40 311.87,218.40 312.27,218.40 312.66,218.40 313.06,218.40 313.45,218.40 313.85,218.40 314.25,218.40 314.64,218.40 315.04,218.40 315.44,218.40 315.83,218.40 316.23,218.40 316.63,218.40 317.02,218.40 317.42,218.40 317.82,218.40 318.21,218.40 318.61,218.40 319.01,218.40 319.40,218.40 319.80,218.40 320.20,218.40 320.59,218.40 320.99,218.40 321.38,218.40 321.78,218.40 322.18,218.40 322.57,218.40 322.97,218.40 323.37,218.40 323.76,218.40 324.16,218.40 324.56,218.40 324.95,218.40 325.35,218.40 325.75,218.40 326.14,218.40 326.54,218.40 326.94,218.40 327.33,218.40 327.73,218.40 328.12,218.40 328.52,218.40 328.92,218.40 329.31,218.40 329.71,218.40 330.11,218.40 330.50,218.40 330.90,218.40 331.30,218.40 331.69,218.40 332.09,218.40 332.49,218.40 332.88,218.40 333.28,218.40 333.68,218.40 334.07,218.40 334.47,218.40 334.87,218.40 335.26,218.40 335.66,218.40 336.05,218.40 336.45,218.40 336.85,218.40 337.24,218.40 337.64,218.40 338.04,218.40 338.43,218.40 338.83,218.40 339.23,218.40 339.62,218.40 340.02,218.40 340.42,218.40 340.81,218.40 341.21,218.40 341.61,218.40 342.00,218.40 342.40,218.40 342.79,218.40 343.19,218.40 343.59,218.40 343.98,218.40 344.38,218.40 344.78,218.40 345.17,218.40 345.57,218.40 345.97,218.40 346.36,218.40 346.76,218.40 347.16,218.40 347.55,218.40 347.95,218.40 348.35,218.40 348.74,218.40 349.14,218.40 349.54,218.40 349.93,218.40 350.33,218.40 350.72,218.40 351.12,218.40 351.52,218.40 351.91,218.40 352.31,218.40 352.71,218.40 353.10,218.40 353.50,218.40 353.90,218.40 354.29,218.40 354.69,218.40 355.09,218.40 355.48,218.40 355.88,218.40 356.28,218.40 356.67,218.40 357.07,218.40 357.46,218.40 357.86,218.40 358.26,218.40 358.65,218.40 359.05,218.40 359.45,218.40 359.84,218.40 360.24,218.40 360.64,218.40 361.03,218.40 361.43,218.40 361.83,218.40 362.22,218.40 362.62,218.40 363.02,218.40 363.41,218.40 363.81,218.40 364.20,218.40 364.60,218.40 365.00,218.40 365.39,218.40 365.79,218.40 366.19,218.40 366.58,218.40 366.98,218.40 367.38,218.40 367.77,218.40 368.17,218.40 368.57,218.40 368.96,218.40 369.36,218.40 369.76,218.40 370.15,218.40 370.55,218.40 370.95,218.40 371.34,218.40 371.74,218.40 372.13,218.40 372.53,218.40 372.93,218.40 373.32,218.40 373.72,218.40 374.12,218.40 374.51,218.40 374.91,218.40 375.31,218.40 375.70,218.40 376.10,218.40 376.50,218.40 376.89,218.40 377.29,218.40 377.69,218.40 378.08,218.40 378.48,218.40 378.87,218.40 379.27,218.40 379.67,218.40 380.06,218.40 380.38,218.40 380.70,218.40 380.72,226.32 380.76,242.16 380.83,269.88 380.91,297.60 380.92,297.60 380.95,297.60 381.01,297.60 381.12,297.60 381.35,297.60 381.74,297.60 382.14,297.60 382.54,297.60 382.93,297.60 383.33,297.60 383.73,297.60 384.12,297.60 384.52,297.60 384.91,297.60 385.31,297.60 385.71,297.60 386.10,297.60 386.50,297.60 386.90,297.60 387.29,297.60 387.55,297.60 387.71,297.60 387.92,297.60 388.32,297.60 388.72,297.60 389.11,297.60 389.51,297.60 389.91,297.60 390.30,297.60 390.70,297.60 391.09,297.60 391.49,297.60 391.89,297.60 392.28,297.60 392.68,297.60 393.08,297.60 393.47,297.60 393.87,297.60 394.27,297.60 394.66,297.60 395.06,297.60 395.46,297.60 395.85,297.60 396.25,297.60 396.65,297.60 397.04,297.60 397.44,297.60 397.83,297.60 398.23,297.60 398.63,297.60 399.02,297.60 399.42,297.60 399.82,297.60 400.21,297.60 400.61,297.60 401.01,297.60 401.40,297.60 401.80,297.60 402.20,297.60 402.59,297.60 402.99,297.60 403.39,297.60 403.78,297.60 404.18,297.60 404.57,297.60 404.97,297.60 405.37,297.60 405.76,297.60 406.16,297.60 406.56,297.60 406.95,297.60 407.35,297.60 407.75,297.60 408.14,297.60 408.54,297.60 408.94,297.60 409.33,297.60 409.73,297.60 410.13,297.60 410.52,297.60 410.92,297.60 411.32,297.60 411.71,297.60 412.11,297.60 412.50,297.60 412.90,297.60 413.30,297.60 413.69,297.60 414.09,297.60 414.49,297.60 414.88,297.60 415.28,297.60 415.68,297.60 416.07,297.60 416.47,297.60 416.87,297.60 417.26,297.60 417.66,297.60 418.06,297.60 418.45,297.60 418.85,297.60 419.24,297.60 419.64,297.60 420.04,297.60 420.43,297.60 420.83,297.60 421.23,297.60 421.62,297.60 422.02,297.60 422.42,297.60 422.81,297.60 423.21,297.60 423.61,297.60 424.00,297.60 424.40,297.60 424.80,297.60 425.19,297.60 425.59,297.60 425.99,297.60 426.38,297.60 426.78,297.60 427.17,297.60 427.57,297.60 427.97,297.60 428.36,297.60 428.76,297.60 429.16,297.60 429.55,297.60 429.95,297.60 430.35,297.60 430.74,297.60 431.14,297.60 431.54,297.60 431.93,297.60 432.33,297.60 432.73,297.60 433.12,297.60 433.52,297.60 433.91,297.60 434.31,297.60 434.71,297.60 435.10,297.60 435.50,297.60 435.90,297.60 436.29,297.60 436.69,297.60 437.09,297.60 437.48,297.60 437.88,297.60 438.28,297.60 438.67,297.60 439.07,297.60 439.47,297.60 439.86,297.60 440.26,297.60 440.66,297.60 441.05,297.60 441.45,297.60 441.84,297.60 442.24,297.60 442.64,297.60 443.03,297.60 443.43,297.60 443.83,297.60 444.22,297.60 444.62,297.60 445.02,297.60 445.41,297.60 445.81,297.60 446.21,297.60 446.60,297.60 447.00,297.60 447.40,297.60 447.79,297.60 448.19,297.60 448.58,297.60 448.98,297.60 449.38,297.60 449.77,297.60 450.17,297.60 450.57,297.60 450.96,297.60 451.36,297.60 451.76,297.60 452.15,297.60 452.55,297.60 452.95,297.60 453.34,297.60 453.74,297.60 454.14,297.60 454.53,297.60 454.93,297.60 455.32,297.60 455.72,297.60 456.12,297.60 456.51,297.60 456.91,297.60 457.31,297.60 457.70,297.60 458.10,297.60 458.50,297.60 458.89,297.60 459.29,297.60 459.69,297.60 460.08,297.60 460.48,297.60 460.88,297.60 461.27,297.60 461.67,297.60 462.07,297.60 462.46,297.60 462.86,297.60 463.25,297.60 463.65,297.60 464.05,297.60 464.44,297.60 464.84,297.60 465.24,297.60 465.63,297.60 466.03,297.60 466.43,297.60 466.82,297.60 467.22,297.60 467.62,297.60 468.01,297.60 468.41,297.60 468.81,297.60 469.20,297.60 469.60,297.60 469.99,297.60 470.39,297.60 470.79,297.60 471.18,297.60 471.58,297.60 471.98,297.60 472.37,297.60 472.77,297.60 473.17,297.60 473.56,297.60 473.96,297.60 474.36,297.60 474.75,297.60 475.15,297.60 475.55,297.60 475.94,297.60 476.34,297.60 476.74,297.60 477.13,297.60 477.53,297.60 477.92,297.60 478.32,297.60 478.72,297.60 479.11,297.60 479.51,297.60 479.91,297.60 480.30,297.60 480.70,297.60 481.10,297.60 481.49,297.60 481.75,297.60 482.00,297.60 482.02,289.68 482.06,273.84 482.13,246.12 482.20,218.40 482.21,218.40 482.23,218.40 482.27,218.40 482.34,218.40 482.49,218.40 482.76,218.40 483.15,218.40 483.55,218.40 483.95,218.40 484.34,218.40 484.74,218.40 485.14,218.40 485.53,218.40 485.93,218.40 486.33,218.40 486.72,218.40 487.12,218.40 487.52,218.40 487.91,218.40 488.31,218.40 488.71,218.40 489.10,218.40 489.50,218.40 489.90,218.40 490.29,218.40 490.69,218.40 491.08,218.40 491.48,218.40 491.88,218.40 492.27,218.40 492.67,218.40 493.07,218.40 493.46,218.40 493.86,218.40 494.26,218.40 494.65,218.40 495.05,218.40 495.45,218.40 495.84,218.40 496.24,218.40 496.64,218.40 497.03,218.40 497.43,218.40 497.82,218.40 498.22,218.40 498.62,218.40 499.01,218.40 499.41,218.40 499.81,218.40 500.20,218.40 500.60,218.40 501.00,218.40 501.39,218.40 501.79,218.40 502.19,218.40 502.58,218.40 502.98,218.40 503.38,218.40 503.77,218.40 504.17,218.40 504.56,218.40 504.96,218.40 505.36,218.40 505.75,218.40 506.15,218.40 506.55,218.40 506.94,218.40 507.34,218.40 507.74,218.40 508.13,218.40 508.53,218.40 508.93,218.40 509.32,218.40 509.72,218.40 510.12,218.40 510.51,218.40 510.91,218.40 511.31,218.40 511.70,218.40 512.10,218.40 512.49,218.40 512.89,218.40 513.29,218.40 513.68,218.40 514.08,218.40 514.48,218.40 514.87,218.40 515.27,218.40 515.67,218.40 516.06,218.40 516.46,218.40 516.86,218.40 517.25,218.40 517.65,218.40 518.05,218.40 518.44,218.40 518.84,218.40 519.23,218.40 519.63,218.40 520.03,218.40 520.42,218.40 520.82,218.40 521.22,218.40 521.61,218.40 522.01,218.40 522.41,218.40 522.80,218.40 523.20,218.40 523.60,218.40 523.99,218.40 524.39,218.40 524.79,218.40 525.18,218.40 525.58,218.40 525.98,218.40 526.37,218.40 526.77,218.40 527.16,218.40 527.56,218.40 527.96,218.40 528.35,218.40 528.75,218.40 529.15,218.40 529.54,218.40 529.94,218.40 530.34,218.40 530.73,218.40 531.13,218.40 531.53,218.40 531.92,218.40 532.32,218.40 532.72,218.40 533.11,218.40 533.51,218.40 533.90,218.40 534.30,218.40 534.70,218.40 535.09,218.40 535.49,218.40 535.89,218.40 536.28,218.40 536.68,218.40 537.08,218.40 537.47,218.40 537.87,218.40 538.27,218.40 538.66,218.40 539.06,218.40 539.46,218.40 539.85,218.40 540.25,218.40 540.65,218.40 541.04,218.40 541.44,218.40 541.83,218.40 542.23,218.40 542.63,218.40 543.02,218.40 543.42,218.40 543.82,218.40 544.21,218.40 544.61,218.40 545.01,218.40 545.40,218.40 545.80,218.40 546.20,218.40 546.59,218.40 546.99,218.40 547.39,218.40 547.78,218.40 548.18,218.40 548.57,218.40 548.97,218.40 549.37,218.40 549.76,218.40 550.16,218.40 550.56,218.40 550.95,218.40 551.35,218.40 551.75,218.40 552.14,218.40 552.54,218.40 552.94,218.40 553.33,218.40 553.73,218.40 554.13,218.40 554.52,218.40 554.92,218.40 555.31,218.40 555.71,218.40 556.11,218.40 556.50,218.40 556.90,218.40 557.30,218.40 557.69,218.40 558.09,218.40 558.49,218.40 558.88,218.40 559.28,218.40 559.68,218.40 560.07,218.40 560.47,218.40 560.87,218.40 561.26,218.40 561.66,218.40 562.06,218.40 562.45,218.40 562.85,218.40 563.24,218.40 563.64,218.40 564.04,218.40 564.43,218.40 564.83,218.40 565.23,218.40 565.62,218.40 566.02,218.40 566.42,218.40 566.81,218.40 567.21,218.40 567.61,218.40 568.00,218.40 568.40,218.40 568.80,218.40 569.19,218.40 569.59,218.40 569.98,218.40 570.38,218.40 570.78,218.40 571.17,218.40 571.57,218.40 571.97,218.40 572.36,218.40 572.76,218.40 573.16,218.40 573.55,218.40 573.95,218.40 574.35,218.40 574.74,218.40 575.14,218.40 575.54,218.40 575.93,218.40 576.33,218.40 576.73,218.40 577.12,218.40 577.52,218.40 577.91,218.40 578.31,218.40 578.71,218.40 579.10,218.40 579.50,218.40 579.90,218.40 580.29,218.40 580.69,218.40 581.09,218.40 581.48,218.40 581.88,218.40 582.28,218.40 582.67,218.40 583.07,218.40 583.39,218.40 583.70,218.40 583.72,226.32 583.76,242.16 583.83,269.88 583.91,297.60 583.92,297.60 583.95,297.60 584.01,297.60 584.12,297.60 584.35,297.60 584.74,297.60 585.14,297.60 585.54,297.60 585.93,297.60 586.33,297.60 586.73,297.60 587.12,297.60 587.52,297.60 587.91,297.60 588.31,297.60 588.71,297.60 589.10,297.60 589.50,297.60 589.90,297.60 590.29,297.60 590.58,297.60 590.78,297.60 591.03,297.60 591.43,297.60 591.83,297.60 592.22,297.60 592.62,297.60 593.02,297.60 593.41,297.60 593.81,297.60 594.21,297.60 594.60,297.60 595.00,297.60 595.39,297.60 595.79,297.60 596.19,297.60 596.58,297.60 596.98,297.60 597.38,297.60 597.77,297.60 598.17,297.60 598.57,297.60 598.96,297.60 599.36,297.60 599.76,297.60 600.15,297.60 600.55,297.60 600.95,297.60 601.34,297.60 601.74,297.60 602.14,297.60 602.53,297.60 602.93,297.60 603.32,297.60 603.72,297.60 604.12,297.60 604.51,297.60 604.91,297.60 605.31,297.60 605.70,297.60 606.10,297.60 606.50,297.60 606.89,297.60 607.29,297.60 607.69,297.60 608.08,297.60 608.48,297.60 608.88,297.60 609.27,297.60 609.67,297.60 610.06,297.60 610.46,297.60 610.86,297.60 611.25,297.60 611.65,297.60 612.05,297.60 612.44,297.60 612.84,297.60 613.24,297.60 613.63,297.60 614.03,297.60 614.43,297.60 614.82,297.60 615.22,297.60 615.62,297.60 616.01,297.60 616.41,297.60 616.80,297.60 617.20,297.60 617.60,297.60 617.99,297.60 618.39,297.60 618.79,297.60 619.18,297.60 619.58,297.60 619.98,297.60 620.37,297.60 620.77,297.60 621.17,297.60 621.56,297.60 621.96,297.60 622.36,297.60 622.75,297.60 623.15,297.60 623.55,297.60 623.94,297.60 624.34,297.60 624.73,297.60 625.13,297.60 625.53,297.60 625.92,297.60 626.32,297.60 626.72,297.60 627.11,297.60 627.51,297.60 627.91,297.60 628.30,297.60 628.70,297.60 629.10,297.60 629.49,297.60 629.89,297.60 630.29,297.60 630.68,297.60 631.08,297.60 631.47,297.60 631.87,297.60 632.27,297.60 632.66,297.60 633.06,297.60 633.46,297.60 633.85,297.60 634.25,297.60 634.65,297.60 635.04,297.60 635.44,297.60 635.84,297.60 636.23,297.60 636.63,297.60 637.03,297.60 637.42,297.60 637.82,297.60 638.22,297.60 638.61,297.60 639.01,297.60 639.40,297.60 639.80,297.60 640.20,297.60 640.59,297.60 640.99,297.60 641.39,297.60 641.78,297.60 642.18,297.60 642.58,297.60 642.97,297.60 643.37,297.60 643.77,297.60 644.16,297.60 644.56,297.60 644.96,297.60 645.35,297.60 645.75,297.60 646.14,297.60 646.54,297.60 646.94,297.60 647.33,297.60 647.73,297.60 648.13,297.60 648.52,297.60 648.92,297.60 649.32,297.60 649.71,297.60 650.11,297.60 650.51,297.60 650.90,297.60 651.30,297.60 651.70,297.60 652.09,297.60 652.49,297.60 652.89,297.60 653.28,297.60 653.68,297.60 654.07,297.60 654.47,297.60 654.87,297.60 655.26,297.60 655.66,297.60 656.06,297.60 656.45,297.60 656.85,297.60 657.25,297.60 657.64,297.60 658.04,297.60 658.44,297.60 658.83,297.60 659.23,297.60 659.63,297.60 660.02,297.60 660.42,297.60 660.81,297.60 661.21,297.60 661.61,297.60 662.00,297.60 662.40,297.60 662.80,297.60 663.19,297.60 663.59,297.60 663.99,297.60 664.38,297.60 664.78,297.60 665.18,297.60 665.57,297.60 665.97,297.60 666.37,297.60 666.76,297.60 667.16,297.60 667.55,297.60 667.95,297.60 668.35,297.60 668.74,297.60 669.14,297.60 669.54,297.60 669.93,297.60 670.33,297.60 670.73,297.60 671.12,297.60 671.52,297.60 671.92,297.60 672.31,297.60 672.71,297.60 673.11,297.60 673.50,297.60 673.90,297.60 674.30,297.60 674.69,297.60 675.09,297.60 675.48,297.60 675.88,297.60 676.28,297.60 676.67,297.60 677.07,297.60 677.47,297.60 677.86,297.60 678.26,297.60 678.66,297.60 679.05,297.60 679.45,297.60 679.85,297.60 680.24,297.60 680.64,297.60 681.04,297.60 681.43,297.60 681.83,297.60 682.22,297.60 682.62,297.60 683.02,297.60 683.41,297.60 683.81,297.60 684.21,297.60 684.60,297.60 685.00,297.60 685.02,289.68 685.06,273.84 685.13,246.12 685.20,218.40 685.21,218.40 685.23,218.40 685.27,218.40 685.34,218.40 685.49,218.40 685.75,218.40 686.15,218.40 686.54,218.40 686.94,218.40 687.34,218.40 687.73,218.40 688.13,218.40 688.52,218.40 688.92,218.40 689.32,218.40 689.71,218.40 690.11,218.40 690.51,218.40 690.90,218.40 691.30,218.40 691.70,218.40 692.09,218.40 692.49,218.40 692.89,218.40 693.28,218.40 693.68,218.40 694.08,218.40 694.47,218.40 694.87,218.40 695.26,218.40 695.66,218.40 696.06,218.40 696.45,218.40 696.85,218.40 697.25,218.40 697.64,218.40 698.04,218.40 698.44,218.40 698.83,218.40 699.23,218.40 699.63,218.40 700.02,218.40 700.42,218.40 700.82,218.40 701.21,218.40 701.61,218.40 702.01,218.40 702.40,218.40 702.80,218.40 703.19,218.40 703.59,218.40 703.99,218.40 704.38,218.40 704.78,218.40 705.18,218.40 705.57,218.40 705.97,218.40 706.37,218.40 706.76,218.40 707.16,218.40 707.56,218.40 707.95,218.40 708.35,218.40 708.75,218.40 709.14,218.40 709.54,218.40 709.93,218.40 710.33,218.40 710.73,218.40 711.12,218.40 711.52,218.40 711.92,218.40 712.31,218.40 712.71,218.40 713.11,218.40 713.50,218.40 713.90,218.40 714.30,218.40 714.69,218.40 715.09,218.40 715.49,218.40 715.88,218.40 716.28,218.40 716.67,218.40 717.07,218.40 717.47,218.40 717.86,218.40 718.26,218.40 718.66,218.40 719.05,218.40 719.45,218.40 719.85,218.40 720.24,218.40 720.64,218.40 721.04,218.40 721.43,218.40 721.83,218.40 722.23,218.40 722.62,218.40 723.02,218.40 723.42,218.40 723.81,218.40 724.21,218.40 724.60,218.40 725.00,218.40 725.40,218.40 725.79,218.40 726.19,218.40 726.59,218.40 726.98,218.40 727.38,218.40 727.78,218.40 728.17,218.40 728.57,218.40 728.97,218.40 729.36,218.40 729.76,218.40 730.16,218.40 730.55,218.40 730.95,218.40 731.34,218.40 731.74,218.40 732.14,218.40 732.53,218.40 732.93,218.40 733.33,218.40 733.72,218.40 734.12,218.40 734.52,218.40 734.91,218.40 735.31,218.40 735.71,218.40 736.10,218.40 736.50,218.40 736.90,218.40 737.29,218.40 737.69,218.40 738.09,218.40 738.48,218.40 738.88,218.40 739.27,218.40 739.67,218.40 740.07,218.40 740.46,218.40 740.86,218.40 741.26,218.40 741.65,218.40 742.05,218.40 742.45,218.40 742.84,218.40 743.24,218.40 743.64,218.40 744.03,218.40 744.43,218.40 744.83,218.40 745.22,218.40 745.62,218.40 746.01,218.40 746.41,218.40 746.81,218.40 747.20,218.40 747.60,218.40 748.00,218.40 748.39,218.40 748.79,218.40 749.19,218.40 749.58,218.40 749.98,218.40 750.38,218.40 750.77,218.40 751.17,218.40 751.57,218.40 751.96,218.40 752.36,218.40 752.76,218.40 753.15,218.40 753.55,218.40 753.94,218.40 754.34,218.40 754.74,218.40 755.13,218.40 755.53,218.40 755.93,218.40 756.32,218.40 756.72,218.40 757.12,218.40 757.51,218.40 757.91,218.40 758.31,218.40 758.70,218.40 759.10,218.40 759.50,218.40 759.89,218.40 760.29,218.40 760.68,218.40 761.08,218.40 761.48,218.40 761.87,218.40 762.27,218.40 762.67,218.40 763.06,218.40 763.46,218.40 763.86,218.40 764.25,218.40 764.65,218.40 765.05,218.40 765.44,218.40 765.84,218.40 766.24,218.40 766.63,218.40 767.03,218.40 767.42,218.40 767.82,218.40 768.22,218.40 768.61,218.40 769.01,218.40 769.41,218.40 769.80,218.40 770.20,218.40 770.60,218.40 770.99,218.40 771.39,218.40 771.79,218.40 772.18,218.40 772.58,218.40 772.98,218.40 773.37,218.40 773.77,218.40 774.17,218.40 774.56,218.40 774.96,218.40 775.35,218.40 775.75,218.40 776.15,218.40 776.54,218.40 776.94,218.40 777.34,218.40 777.73,218.40 778.13,218.40 778.53,218.40 778.92,218.40 779.32,218.40 779.72,218.40 780.11,218.40 780.51,218.40 780.91,218.40 781.30,218.40 781.70,218.40 782.09,218.40 782.49,218.40 782.89,218.40 783.28,218.40 783.68,218.40 784.08,218.40 784.47,218.40 784.87,218.40 785.27,218.40 785.66,218.40 786.06,218.40 786.38,218.40 786.70,218.40 786.72,226.32 786.76,242.16 786.83,269.88 786.91,297.60 786.92,297.60 786.95,297.60 787.01,297.60 787.12,297.60 787.35,297.60 787.74,297.60 788.14,297.60 788.54,297.60 788.93,297.60 789.33,297.60 789.73,297.60 790.12,297.60 790.52,297.60 790.91,297.60 791.31,297.60 791.71,297.60 792.10,297.60 792.50,297.60 792.90,297.60 793.29,297.60 793.59,297.60 793.84,297.60 794.12,297.60 794.52,297.60 794.91,297.60 795.31,297.60 795.70,297.60 796.10,297.60 796.50,297.60 796.89,297.60 797.29,297.60 797.69,297.60 798.08,297.60 798.48,297.60 798.88,297.60 799.27,297.60 799.67,297.60 800.07,297.60 800.46,297.60 800.86,297.60 801.26,297.60 801.65,297.60 802.05,297.60 802.45,297.60 802.84,297.60 803.24,297.60 803.63,297.60 804.03,297.60 804.43,297.60 804.82,297.60 805.22,297.60 805.62,297.60 806.01,297.60 806.41,297.60 806.81,297.60 807.20,297.60 807.60,297.60 808.00,297.60 808.39,297.60 808.79,297.60 809.19,297.60 809.58,297.60 809.98,297.60 810.37,297.60 810.77,297.60 811.17,297.60 811.56,297.60 811.96,297.60 812.36,297.60 812.75,297.60 813.15,297.60 813.55,297.60 813.94,297.60 814.34,297.60 814.74,297.60 815.13,297.60 815.53,297.60 815.93,297.60 816.32,297.60 816.72,297.60 817.12,297.60 817.51,297.60 817.91,297.60 818.30,297.60 818.70,297.60 819.10,297.60 819.49,297.60 819.89,297.60 820.29,297.60 820.68,297.60 821.08,297.60 821.48,297.60 821.87,297.60 822.27,297.60 822.67,297.60 823.06,297.60 823.46,297.60 823.86,297.60 824.25,297.60 824.65,297.60 825.04,297.60 825.44,297.60 825.84,297.60 826.23,297.60 826.63,297.60 827.03,297.60 827.42,297.60 827.82,297.60 828.22,297.60 828.61,297.60 829.01,297.60 829.41,297.60 829.80,297.60 830.20,297.60 830.60,297.60 830.99,297.60 831.39,297.60 831.79,297.60 832.18,297.60 832.58,297.60 832.97,297.60 833.37,297.60 833.77,297.60 834.16,297.60 834.56,297.60 834.96,297.60 835.35,297.60 835.75,297.60 836.15,297.60 836.54,297.60 836.94,297.60 837.34,297.60 837.73,297.60 838.13,297.60 838.53,297.60 838.92,297.60 839.32,297.60 839.71,297.60 840.11,297.60 840.51,297.60 840.90,297.60 841.30,297.60 841.70,297.60 842.09,297.60 842.49,297.60 842.89,297.60 843.28,297.60 843.68,297.60 844.08,297.60 844.47,297.60 844.87,297.60 845.27,297.60 845.66,297.60 846.06,297.60 846.45,297.60 846.85,297.60 847.25,297.60 847.64,297.60 848.04,297.60 848.44,297.60 848.83,297.60 849.23,297.60 849.63,297.60 850.02,297.60 850.42,297.60 850.82,297.60 851.21,297.60 851.61,297.60 852.01,297.60 852.40,297.60 852.80,297.60 853.20,297.60 853.59,297.60 853.99,297.60 854.38,297.60 854.78,297.60 855.18,297.60 855.57,297.60 855.97,297.60 856.37,297.60 856.76,297.60 857.16,297.60 857.56,297.60 857.95,297.60 858.35,297.60 858.75,297.60 859.14,297.60 859.54,297.60 859.94,297.60 860.33,297.60 860.73,297.60 861.12,297.60 861.52,297.60 861.92,297.60 862.31,297.60 862.71,297.60 863.11,297.60 863.50,297.60 863.90,297.60 864.30,297.60 864.69,297.60 865.09,297.60 865.49,297.60 865.88,297.60 866.28,297.60 866.68,297.60 867.07,297.60 867.47,297.60 867.87,297.60 868.26,297.60 868.66,297.60 869.05,297.60 869.45,297.60 869.85,297.60 870.24,297.60 870.64,297.60 871.04,297.60 871.43,297.60 871.83,297.60 872.23,297.60 872.62,297.60 873.02,297.60 873.42,297.60 873.81,297.60 874.21,297.60 874.61,297.60 875.00,297.60 875.40,297.60 875.79,297.60 876.19,297.60 876.59,297.60 876.98,297.60 877.38,297.60 877.78,297.60 878.17,297.60 878.57,297.60 878.97,297.60 879.36,297.60 879.76,297.60 880.16,297.60 880.55,297.60 880.95,297.60 881.35,297.60 881.74,297.60 882.14,297.60 882.54,297.60 882.93,297.60 883.33,297.60 883.72,297.60 884.12,297.60 884.52,297.60 884.91,297.60 885.31,297.60 885.71,297.60 886.10,297.60 886.50,297.60 886.90,297.60 887.29,297.60 887.65,297.60" fill="none" stroke="#b54708" stroke-width="3" stroke-linejoin="round"/>
<rect x="670" y="62" width="190" height="70" rx="4" ry="4" fill="#fff" fill-opacity="0.82" stroke="#111" stroke-width="1"/>
<line x1="682" y1="78" x2="718" y2="78" stroke="#1665d8" stroke-width="3"/>
<text x="728" y="83" font-family="Arial, Helvetica, sans-serif" font-size="13" font-weight="400" text-anchor="start" fill="#111">load output</text>
<line x1="682" y1="104" x2="718" y2="104" stroke="#b54708" stroke-width="3"/>
<text x="728" y="109" font-family="Arial, Helvetica, sans-serif" font-size="13" font-weight="400" text-anchor="start" fill="#111">input x2</text>
<text x="460" y="502" font-family="Arial, Helvetica, sans-serif" font-size="14" font-weight="400" text-anchor="middle" fill="#111">Time after 60 ms settling, ms</text>
<text x="22" y="260" font-family="Arial, Helvetica, sans-serif" font-size="14" text-anchor="middle" fill="#111" transform="rotate(-90 22 260)">Voltage, V</text>
</svg>
