<svg xmlns="http://www.w3.org/2000/svg" width="920" height="520" viewBox="0 0 920 520">
<defs>
<style>
.wire{stroke:#111;stroke-width:2.6;fill:none;stroke-linecap:round;stroke-linejoin:round}
.thin{stroke:#a7b0bd;stroke-width:1.2;fill:none;stroke-linecap:round;stroke-linejoin:round}
.axis{stroke:#111;stroke-width:1.4;fill:none}
.blue{stroke:#1665d8;stroke-width:3;fill:none;stroke-linecap:round;stroke-linejoin:round}
.green{stroke:#13795b;stroke-width:3;fill:none;stroke-linecap:round;stroke-linejoin:round}
.orange{stroke:#b54708;stroke-width:3;fill:none;stroke-linecap:round;stroke-linejoin:round}
.node{fill:#111;stroke:none}
</style>
</defs>
<rect width="100%" height="100%" fill="#fff"/>
<text x="76" y="36" font-family="Arial, Helvetica, sans-serif" font-size="22" font-weight="700" text-anchor="start" fill="#111">Bootstrap square response, 1 kHz, Vin = 2 mVpp</text>
<rect x="76" y="60" width="812" height="396" fill="#fff" stroke="#111" stroke-width="1.4"/>
<line x1="76" y1="60" x2="76" y2="456" class="thin"/>
<text x="76" y="479" font-family="Arial, Helvetica, sans-serif" font-size="12" font-weight="400" text-anchor="middle" fill="#111">0</text>
<line x1="279" y1="60" x2="279" y2="456" class="thin"/>
<text x="279" y="479" font-family="Arial, Helvetica, sans-serif" font-size="12" font-weight="400" text-anchor="middle" fill="#111">1</text>
<line x1="482" y1="60" x2="482" y2="456" class="thin"/>
<text x="482" y="479" font-family="Arial, Helvetica, sans-serif" font-size="12" font-weight="400" text-anchor="middle" fill="#111">2</text>
<line x1="685" y1="60" x2="685" y2="456" class="thin"/>
<text x="685" y="479" font-family="Arial, Helvetica, sans-serif" font-size="12" font-weight="400" text-anchor="middle" fill="#111">3</text>
<line x1="888" y1="60" x2="888" y2="456" class="thin"/>
<text x="888" y="479" font-family="Arial, Helvetica, sans-serif" font-size="12" font-weight="400" text-anchor="middle" fill="#111">4</text>
<line x1="76" y1="456" x2="888" y2="456" class="thin"/>
<text x="66" y="460" font-family="Arial, Helvetica, sans-serif" font-size="12" font-weight="400" text-anchor="end" fill="#111">-0.006</text>
<line x1="76" y1="357" x2="888" y2="357" class="thin"/>
<text x="66" y="361" font-family="Arial, Helvetica, sans-serif" font-size="12" font-weight="400" text-anchor="end" fill="#111">-0.003</text>
<line x1="76" y1="258" x2="888" y2="258" class="thin"/>
<text x="66" y="262" font-family="Arial, Helvetica, sans-serif" font-size="12" font-weight="400" text-anchor="end" fill="#111">0</text>
<line x1="76" y1="159" x2="888" y2="159" class="thin"/>
<text x="66" y="163" font-family="Arial, Helvetica, sans-serif" font-size="12" font-weight="400" text-anchor="end" fill="#111">0.003</text>
<line x1="76" y1="60" x2="888" y2="60" class="thin"/>
<text x="66" y="64" font-family="Arial, Helvetica, sans-serif" font-size="12" font-weight="400" text-anchor="end" fill="#111">0.006</text>
<polyline points="76.00,145.83 76.02,146.35 76.06,147.60 76.13,150.57 76.20,154.56 76.22,155.15 76.25,156.30 76.30,158.61 76.42,163.18 76.64,172.13 77.04,187.09 77.44,201.17 77.83,214.31 78.23,226.53 78.63,237.88 79.02,248.40 79.42,258.14 79.82,267.16 80.21,275.50 80.61,283.21 81.00,290.34 81.40,296.92 81.80,303.02 82.19,308.65 82.59,313.85 82.99,318.66 83.38,323.10 83.78,327.21 84.18,331.01 84.57,334.52 84.97,337.76 85.37,340.76 85.76,343.53 86.16,346.09 86.56,348.46 86.95,350.64 87.35,352.66 87.75,354.53 88.14,356.26 88.54,357.85 88.93,359.33 89.33,360.69 89.73,361.95 90.12,363.11 90.52,364.18 90.92,365.18 91.31,366.09 91.71,366.94 92.11,367.72 92.50,368.45 92.90,369.11 93.30,369.73 93.69,370.30 94.09,370.83 94.49,371.31 94.88,371.76 95.28,372.17 95.67,372.56 96.07,372.91 96.47,373.23 96.86,373.53 97.26,373.81 97.66,374.07 98.05,374.30 98.45,374.52 98.85,374.72 99.24,374.90 99.64,375.07 100.04,375.23 100.43,375.37 100.83,375.51 101.23,375.63 101.62,375.74 102.02,375.84 102.41,375.94 102.81,376.02 103.21,376.10 103.60,376.18 104.00,376.24 104.40,376.30 104.79,376.36 105.19,376.41 105.59,376.46 105.98,376.50 106.38,376.54 106.78,376.57 107.17,376.61 107.57,376.63 107.97,376.66 108.36,376.68 108.76,376.71 109.16,376.72 109.55,376.74 109.95,376.76 110.34,376.77 110.74,376.78 111.14,376.79 111.53,376.80 111.93,376.81 112.33,376.81 112.72,376.82 113.12,376.82 113.52,376.82 113.91,376.83 114.31,376.83 114.71,376.83 115.10,376.83 115.50,376.83 115.90,376.83 116.29,376.83 116.69,376.82 117.08,376.82 117.48,376.82 117.88,376.81 118.27,376.81 118.67,376.81 119.07,376.80 119.46,376.80 119.86,376.79 120.26,376.79 120.65,376.78 121.05,376.77 121.45,376.77 121.84,376.76 122.24,376.76 122.64,376.75 123.03,376.74 123.43,376.74 123.83,376.73 124.22,376.72 124.62,376.72 125.01,376.71 125.41,376.70 125.81,376.69 126.20,376.69 126.60,376.68 127.00,376.67 127.39,376.66 127.79,376.66 128.19,376.65 128.58,376.64 128.98,376.63 129.38,376.63 129.77,376.62 130.17,376.61 130.57,376.60 130.96,376.59 131.36,376.59 131.75,376.58 132.15,376.57 132.55,376.56 132.94,376.55 133.34,376.55 133.74,376.54 134.13,376.53 134.53,376.52 134.93,376.51 135.32,376.51 135.72,376.50 136.12,376.49 136.51,376.48 136.91,376.47 137.31,376.46 137.70,376.46 138.10,376.45 138.50,376.44 138.89,376.43 139.29,376.42 139.68,376.42 140.08,376.41 140.48,376.40 140.87,376.39 141.27,376.38 141.67,376.37 142.06,376.37 142.46,376.36 142.86,376.35 143.25,376.34 143.65,376.33 144.05,376.32 144.44,376.32 144.84,376.31 145.24,376.30 145.63,376.29 146.03,376.28 146.42,376.27 146.82,376.27 147.22,376.26 147.61,376.25 148.01,376.24 148.41,376.23 148.80,376.22 149.20,376.22 149.60,376.21 149.99,376.20 150.39,376.19 150.79,376.18 151.18,376.18 151.58,376.17 151.98,376.16 152.37,376.15 152.77,376.14 153.16,376.13 153.56,376.13 153.96,376.12 154.35,376.11 154.75,376.10 155.15,376.09 155.54,376.08 155.94,376.08 156.34,376.07 156.73,376.06 157.13,376.05 157.53,376.04 157.92,376.03 158.32,376.03 158.72,376.02 159.11,376.01 159.51,376.00 159.91,375.99 160.30,375.98 160.70,375.98 161.09,375.97 161.49,375.96 161.89,375.95 162.28,375.94 162.68,375.93 163.08,375.93 163.47,375.92 163.87,375.91 164.27,375.90 164.66,375.89 165.06,375.89 165.46,375.88 165.85,375.87 166.25,375.86 166.65,375.85 167.04,375.84 167.44,375.84 167.83,375.83 168.23,375.82 168.63,375.81 169.02,375.80 169.42,375.79 169.82,375.79 170.21,375.78 170.61,375.77 171.01,375.76 171.40,375.75 171.80,375.74 172.20,375.74 172.59,375.73 172.99,375.72 173.39,375.71 173.78,375.70 174.18,375.69 174.58,375.69 174.97,375.68 175.37,375.67 175.76,375.66 176.16,375.65 176.56,375.65 176.95,375.64 177.33,375.63 177.70,375.62 177.72,375.09 177.76,373.85 177.83,370.87 177.91,366.89 177.92,366.30 177.95,365.14 178.01,362.84 178.12,358.28 178.35,349.35 178.74,334.46 179.14,320.48 179.54,307.40 179.93,295.21 180.33,283.88 180.73,273.36 181.12,263.61 181.52,254.59 181.91,246.23 182.31,238.50 182.71,231.35 183.10,224.74 183.50,218.62 183.90,212.97 184.29,207.74 184.69,202.91 185.09,198.44 185.48,194.31 185.88,190.49 186.28,186.96 186.67,183.70 187.07,180.69 187.47,177.90 187.86,175.33 188.26,172.95 188.66,170.75 189.05,168.71 189.45,166.84 189.84,165.10 190.24,163.50 190.64,162.02 191.03,160.65 191.43,159.38 191.83,158.21 192.22,157.13 192.62,156.13 193.02,155.21 193.41,154.36 193.81,153.57 194.21,152.85 194.60,152.17 195.00,151.55 195.40,150.98 195.79,150.45 196.19,149.96 196.58,149.51 196.98,149.10 197.38,148.71 197.77,148.36 198.17,148.03 198.57,147.73 198.96,147.45 199.36,147.19 199.76,146.95 200.15,146.73 200.55,146.53 200.95,146.34 201.34,146.17 201.74,146.01 202.14,145.87 202.53,145.73 202.93,145.61 203.33,145.49 203.72,145.39 204.12,145.29 204.51,145.20 204.91,145.12 205.31,145.04 205.70,144.98 206.10,144.91 206.50,144.85 206.89,144.80 207.29,144.75 207.69,144.71 208.08,144.66 208.48,144.63 208.88,144.59 209.27,144.56 209.67,144.53 210.07,144.51 210.46,144.48 210.86,144.46 211.25,144.44 211.65,144.42 212.05,144.41 212.44,144.39 212.84,144.38 213.24,144.37 213.63,144.36 214.03,144.35 214.43,144.34 214.82,144.34 215.22,144.33 215.62,144.32 216.01,144.32 216.41,144.32 216.81,144.31 217.20,144.31 217.60,144.31 217.99,144.31 218.39,144.31 218.79,144.31 219.18,144.31 219.58,144.31 219.98,144.31 220.37,144.31 220.77,144.31 221.17,144.31 221.56,144.32 221.96,144.32 222.36,144.32 222.75,144.32 223.15,144.33 223.55,144.33 223.94,144.33 224.34,144.34 224.74,144.34 225.13,144.34 225.53,144.35 225.92,144.35 226.32,144.35 226.72,144.36 227.11,144.36 227.51,144.37 227.91,144.37 228.30,144.38 228.70,144.38 229.10,144.39 229.49,144.39 229.89,144.39 230.29,144.40 230.68,144.40 231.08,144.41 231.48,144.41 231.87,144.42 232.27,144.42 232.66,144.43 233.06,144.43 233.46,144.44 233.85,144.44 234.25,144.45 234.65,144.45 235.04,144.46 235.44,144.46 235.84,144.47 236.23,144.47 236.63,144.48 237.03,144.48 237.42,144.49 237.82,144.49 238.22,144.50 238.61,144.50 239.01,144.51 239.41,144.51 239.80,144.52 240.20,144.52 240.59,144.53 240.99,144.53 241.39,144.54 241.78,144.54 242.18,144.55 242.58,144.56 242.97,144.56 243.37,144.57 243.77,144.57 244.16,144.58 244.56,144.58 244.96,144.59 245.35,144.59 245.75,144.60 246.15,144.60 246.54,144.61 246.94,144.61 247.33,144.62 247.73,144.62 248.13,144.63 248.52,144.63 248.92,144.64 249.32,144.64 249.71,144.65 250.11,144.65 250.51,144.66 250.90,144.66 251.30,144.67 251.70,144.68 252.09,144.68 252.49,144.69 252.89,144.69 253.28,144.70 253.68,144.70 254.08,144.71 254.47,144.71 254.87,144.72 255.26,144.72 255.66,144.73 256.06,144.73 256.45,144.74 256.85,144.74 257.25,144.75 257.64,144.75 258.04,144.76 258.44,144.76 258.83,144.77 259.23,144.77 259.63,144.78 260.02,144.79 260.42,144.79 260.82,144.80 261.21,144.80 261.61,144.81 262.00,144.81 262.40,144.82 262.80,144.82 263.19,144.83 263.59,144.83 263.99,144.84 264.38,144.84 264.78,144.85 265.18,144.85 265.57,144.86 265.97,144.86 266.37,144.87 266.76,144.87 267.16,144.88 267.56,144.88 267.95,144.89 268.35,144.89 268.74,144.90 269.14,144.91 269.54,144.91 269.93,144.92 270.33,144.92 270.73,144.93 271.12,144.93 271.52,144.94 271.92,144.94 272.31,144.95 272.71,144.95 273.11,144.96 273.50,144.96 273.90,144.97 274.30,144.97 274.69,144.98 275.09,144.98 275.49,144.99 275.88,144.99 276.28,145.00 276.67,145.00 277.07,145.01 277.47,145.02 277.86,145.02 278.26,145.03 278.63,145.03 279.00,145.04 279.02,145.56 279.06,146.81 279.13,149.78 279.20,153.77 279.22,154.36 279.25,155.51 279.30,157.82 279.42,162.39 279.64,171.34 280.04,186.30 280.44,200.38 280.83,213.52 281.23,225.74 281.63,237.09 282.02,247.61 282.42,257.35 282.82,266.37 283.21,274.71 283.61,282.42 284.00,289.55 284.40,296.14 284.80,302.23 285.19,307.86 285.59,313.06 285.99,317.87 286.38,322.32 286.78,326.42 287.18,330.22 287.57,333.73 287.97,336.97 288.37,339.97 288.76,342.74 289.16,345.30 289.56,347.67 289.95,349.85 290.35,351.87 290.75,353.74 291.14,355.47 291.54,357.06 291.93,358.54 292.33,359.90 292.73,361.16 293.12,362.32 293.52,363.39 293.92,364.39 294.31,365.30 294.71,366.15 295.11,366.93 295.50,367.66 295.90,368.32 296.30,368.94 296.69,369.51 297.09,370.04 297.49,370.52 297.88,370.97 298.28,371.38 298.67,371.77 299.07,372.12 299.47,372.44 299.86,372.75 300.26,373.02 300.66,373.28 301.05,373.51 301.45,373.73 301.85,373.93 302.24,374.11 302.64,374.28 303.04,374.44 303.43,374.58 303.83,374.72 304.23,374.84 304.62,374.95 305.02,375.05 305.41,375.15 305.81,375.24 306.21,375.32 306.60,375.39 307.00,375.46 307.40,375.52 307.79,375.57 308.19,375.62 308.59,375.67 308.98,375.71 309.38,375.75 309.78,375.79 310.17,375.82 310.57,375.85 310.97,375.87 311.36,375.90 311.76,375.92 312.16,375.94 312.55,375.95 312.95,375.97 313.34,375.98 313.74,375.99 314.14,376.00 314.53,376.01 314.93,376.02 315.33,376.02 315.72,376.03 316.12,376.03 316.52,376.04 316.91,376.04 317.31,376.04 317.71,376.04 318.10,376.04 318.50,376.04 318.90,376.04 319.29,376.04 319.69,376.04 320.08,376.03 320.48,376.03 320.88,376.03 321.27,376.02 321.67,376.02 322.07,376.01 322.46,376.01 322.86,376.01 323.26,376.00 323.65,375.99 324.05,375.99 324.45,375.98 324.84,375.98 325.24,375.97 325.64,375.96 326.03,375.96 326.43,375.95 326.83,375.94 327.22,375.94 327.62,375.93 328.01,375.92 328.41,375.92 328.81,375.91 329.20,375.90 329.60,375.89 330.00,375.89 330.39,375.88 330.79,375.87 331.19,375.86 331.58,375.86 331.98,375.85 332.38,375.84 332.77,375.83 333.17,375.82 333.57,375.82 333.96,375.81 334.36,375.80 334.75,375.79 335.15,375.78 335.55,375.78 335.94,375.77 336.34,375.76 336.74,375.75 337.13,375.74 337.53,375.74 337.93,375.73 338.32,375.72 338.72,375.71 339.12,375.70 339.51,375.70 339.91,375.69 340.31,375.68 340.70,375.67 341.10,375.66 341.50,375.66 341.89,375.65 342.29,375.64 342.68,375.63 343.08,375.62 343.48,375.61 343.87,375.61 344.27,375.60 344.67,375.59 345.06,375.58 345.46,375.57 345.86,375.57 346.25,375.56 346.65,375.55 347.05,375.54 347.44,375.53 347.84,375.52 348.24,375.52 348.63,375.51 349.03,375.50 349.42,375.49 349.82,375.48 350.22,375.47 350.61,375.47 351.01,375.46 351.41,375.45 351.80,375.44 352.20,375.43 352.60,375.42 352.99,375.42 353.39,375.41 353.79,375.40 354.18,375.39 354.58,375.38 354.98,375.38 355.37,375.37 355.77,375.36 356.16,375.35 356.56,375.34 356.96,375.33 357.35,375.33 357.75,375.32 358.15,375.31 358.54,375.30 358.94,375.29 359.34,375.28 359.73,375.28 360.13,375.27 360.53,375.26 360.92,375.25 361.32,375.24 361.72,375.24 362.11,375.23 362.51,375.22 362.91,375.21 363.30,375.20 363.70,375.19 364.09,375.19 364.49,375.18 364.89,375.17 365.28,375.16 365.68,375.15 366.08,375.14 366.47,375.14 366.87,375.13 367.27,375.12 367.66,375.11 368.06,375.10 368.46,375.10 368.85,375.09 369.25,375.08 369.65,375.07 370.04,375.06 370.44,375.05 370.83,375.05 371.23,375.04 371.63,375.03 372.02,375.02 372.42,375.01 372.82,375.00 373.21,375.00 373.61,374.99 374.01,374.98 374.40,374.97 374.80,374.96 375.20,374.96 375.59,374.95 375.99,374.94 376.39,374.93 376.78,374.92 377.18,374.91 377.58,374.91 377.97,374.90 378.37,374.89 378.76,374.88 379.16,374.87 379.56,374.86 379.95,374.86 380.33,374.85 380.70,374.84 380.72,374.31 380.76,373.07 380.83,370.09 380.91,366.11 380.92,365.52 380.95,364.36 381.01,362.06 381.12,357.50 381.35,348.57 381.74,333.68 382.14,319.70 382.54,306.62 382.93,294.43 383.33,283.10 383.73,272.58 384.12,262.83 384.52,253.81 384.91,245.45 385.31,237.72 385.71,230.57 386.10,223.96 386.50,217.84 386.90,212.19 387.29,206.96 387.69,202.13 388.09,197.66 388.48,193.53 388.88,189.71 389.28,186.18 389.67,182.92 390.07,179.91 390.47,177.12 390.86,174.55 391.26,172.17 391.66,169.97 392.05,167.94 392.45,166.06 392.84,164.32 393.24,162.72 393.64,161.24 394.03,159.87 394.43,158.60 394.83,157.43 395.22,156.35 395.62,155.35 396.02,154.43 396.41,153.58 396.81,152.79 397.21,152.07 397.60,151.40 398.00,150.78 398.40,150.20 398.79,149.67 399.19,149.19 399.58,148.73 399.98,148.32 400.38,147.93 400.77,147.58 401.17,147.25 401.57,146.95 401.96,146.67 402.36,146.41 402.76,146.17 403.15,145.95 403.55,145.75 403.95,145.57 404.34,145.39 404.74,145.24 405.14,145.09 405.53,144.95 405.93,144.83 406.33,144.72 406.72,144.61 407.12,144.51 407.51,144.43 407.91,144.34 408.31,144.27 408.70,144.20 409.10,144.14 409.50,144.08 409.89,144.02 410.29,143.97 410.69,143.93 411.08,143.89 411.48,143.85 411.88,143.82 412.27,143.78 412.67,143.76 413.07,143.73 413.46,143.71 413.86,143.69 414.25,143.67 414.65,143.65 415.05,143.63 415.44,143.62 415.84,143.61 416.24,143.59 416.63,143.58 417.03,143.58 417.43,143.57 417.82,143.56 418.22,143.55 418.62,143.55 419.01,143.54 419.41,143.54 419.81,143.54 420.20,143.54 420.60,143.53 420.99,143.53 421.39,143.53 421.79,143.53 422.18,143.53 422.58,143.53 422.98,143.53 423.37,143.54 423.77,143.54 424.17,143.54 424.56,143.54 424.96,143.54 425.36,143.55 425.75,143.55 426.15,143.55 426.55,143.55 426.94,143.56 427.34,143.56 427.74,143.56 428.13,143.57 428.53,143.57 428.92,143.58 429.32,143.58 429.72,143.58 430.11,143.59 430.51,143.59 430.91,143.60 431.30,143.60 431.70,143.61 432.10,143.61 432.49,143.62 432.89,143.62 433.29,143.63 433.68,143.63 434.08,143.63 434.48,143.64 434.87,143.64 435.27,143.65 435.66,143.65 436.06,143.66 436.46,143.66 436.85,143.67 437.25,143.67 437.65,143.68 438.04,143.68 438.44,143.69 438.84,143.69 439.23,143.70 439.63,143.70 440.03,143.71 440.42,143.72 440.82,143.72 441.22,143.73 441.61,143.73 442.01,143.74 442.41,143.74 442.80,143.75 443.20,143.75 443.59,143.76 443.99,143.76 444.39,143.77 444.78,143.77 445.18,143.78 445.58,143.78 445.97,143.79 446.37,143.79 446.77,143.80 447.16,143.80 447.56,143.81 447.96,143.81 448.35,143.82 448.75,143.82 449.15,143.83 449.54,143.84 449.94,143.84 450.33,143.85 450.73,143.85 451.13,143.86 451.52,143.86 451.92,143.87 452.32,143.87 452.71,143.88 453.11,143.88 453.51,143.89 453.90,143.89 454.30,143.90 454.70,143.90 455.09,143.91 455.49,143.91 455.89,143.92 456.28,143.92 456.68,143.93 457.08,143.94 457.47,143.94 457.87,143.95 458.26,143.95 458.66,143.96 459.06,143.96 459.45,143.97 459.85,143.97 460.25,143.98 460.64,143.98 461.04,143.99 461.44,143.99 461.83,144.00 462.23,144.00 462.63,144.01 463.02,144.01 463.42,144.02 463.82,144.03 464.21,144.03 464.61,144.04 465.00,144.04 465.40,144.05 465.80,144.05 466.19,144.06 466.59,144.06 466.99,144.07 467.38,144.07 467.78,144.08 468.18,144.08 468.57,144.09 468.97,144.09 469.37,144.10 469.76,144.10 470.16,144.11 470.56,144.11 470.95,144.12 471.35,144.13 471.74,144.13 472.14,144.14 472.54,144.14 472.93,144.15 473.33,144.15 473.73,144.16 474.12,144.16 474.52,144.17 474.92,144.17 475.31,144.18 475.71,144.18 476.11,144.19 476.50,144.19 476.90,144.20 477.30,144.20 477.69,144.21 478.09,144.21 478.49,144.22 478.88,144.23 479.28,144.23 479.67,144.24 480.07,144.24 480.47,144.25 480.86,144.25 481.26,144.26 481.63,144.26 482.00,144.27 482.02,144.80 482.06,146.04 482.13,149.01 482.20,153.00 482.22,153.59 482.25,154.75 482.30,157.05 482.42,161.62 482.64,170.58 483.04,185.53 483.44,199.61 483.83,212.75 484.23,224.97 484.63,236.32 485.02,246.84 485.42,256.58 485.82,265.60 486.21,273.94 486.61,281.65 487.00,288.78 487.40,295.37 487.80,301.46 488.19,307.09 488.59,312.29 488.99,317.10 489.38,321.55 489.78,325.66 490.18,329.45 490.57,332.96 490.97,336.21 491.37,339.20 491.76,341.97 492.16,344.53 492.56,346.90 492.95,349.09 493.35,351.11 493.75,352.97 494.14,354.70 494.54,356.30 494.93,357.77 495.33,359.13 495.73,360.39 496.12,361.55 496.52,362.63 496.92,363.62 497.31,364.54 497.71,365.38 498.11,366.17 498.50,366.89 498.90,367.56 499.30,368.17 499.69,368.74 500.09,369.27 500.49,369.76 500.88,370.20 501.28,370.62 501.67,371.00 502.07,371.35 502.47,371.68 502.86,371.98 503.26,372.26 503.66,372.51 504.05,372.75 504.45,372.96 504.85,373.16 505.24,373.35 505.64,373.52 506.04,373.67 506.43,373.82 506.83,373.95 507.23,374.07 507.62,374.19 508.02,374.29 508.41,374.38 508.81,374.47 509.21,374.55 509.60,374.62 510.00,374.69 510.40,374.75 510.79,374.81 511.19,374.86 511.59,374.90 511.98,374.95 512.38,374.99 512.78,375.02 513.17,375.05 513.57,375.08 513.97,375.11 514.36,375.13 514.76,375.15 515.16,375.17 515.55,375.19 515.95,375.20 516.34,375.22 516.74,375.23 517.14,375.24 517.53,375.25 517.93,375.25 518.33,375.26 518.72,375.26 519.12,375.27 519.52,375.27 519.91,375.27 520.31,375.28 520.71,375.28 521.10,375.28 521.50,375.28 521.90,375.28 522.29,375.27 522.69,375.27 523.08,375.27 523.48,375.27 523.88,375.26 524.27,375.26 524.67,375.25 525.07,375.25 525.46,375.25 525.86,375.24 526.26,375.24 526.65,375.23 527.05,375.22 527.45,375.22 527.84,375.21 528.24,375.21 528.64,375.20 529.03,375.19 529.43,375.19 529.83,375.18 530.22,375.17 530.62,375.17 531.01,375.16 531.41,375.15 531.81,375.14 532.20,375.14 532.60,375.13 533.00,375.12 533.39,375.12 533.79,375.11 534.19,375.10 534.58,375.09 534.98,375.08 535.38,375.08 535.77,375.07 536.17,375.06 536.57,375.05 536.96,375.05 537.36,375.04 537.75,375.03 538.15,375.02 538.55,375.01 538.94,375.01 539.34,375.00 539.74,374.99 540.13,374.98 540.53,374.97 540.93,374.97 541.32,374.96 541.72,374.95 542.12,374.94 542.51,374.93 542.91,374.93 543.31,374.92 543.70,374.91 544.10,374.90 544.50,374.89 544.89,374.88 545.29,374.88 545.68,374.87 546.08,374.86 546.48,374.85 546.87,374.84 547.27,374.84 547.67,374.83 548.06,374.82 548.46,374.81 548.86,374.80 549.25,374.79 549.65,374.79 550.05,374.78 550.44,374.77 550.84,374.76 551.24,374.75 551.63,374.75 552.03,374.74 552.42,374.73 552.82,374.72 553.22,374.71 553.61,374.70 554.01,374.70 554.41,374.69 554.80,374.68 555.20,374.67 555.60,374.66 555.99,374.66 556.39,374.65 556.79,374.64 557.18,374.63 557.58,374.62 557.98,374.61 558.37,374.61 558.77,374.60 559.16,374.59 559.56,374.58 559.96,374.57 560.35,374.57 560.75,374.56 561.15,374.55 561.54,374.54 561.94,374.53 562.34,374.52 562.73,374.52 563.13,374.51 563.53,374.50 563.92,374.49 564.32,374.48 564.72,374.48 565.11,374.47 565.51,374.46 565.91,374.45 566.30,374.44 566.70,374.43 567.09,374.43 567.49,374.42 567.89,374.41 568.28,374.40 568.68,374.39 569.08,374.38 569.47,374.38 569.87,374.37 570.27,374.36 570.66,374.35 571.06,374.34 571.46,374.34 571.85,374.33 572.25,374.32 572.65,374.31 573.04,374.30 573.44,374.29 573.83,374.29 574.23,374.28 574.63,374.27 575.02,374.26 575.42,374.25 575.82,374.25 576.21,374.24 576.61,374.23 577.01,374.22 577.40,374.21 577.80,374.20 578.20,374.20 578.59,374.19 578.99,374.18 579.39,374.17 579.78,374.16 580.18,374.16 580.58,374.15 580.97,374.14 581.37,374.13 581.76,374.12 582.16,374.11 582.56,374.11 582.95,374.10 583.33,374.09 583.70,374.08 583.72,373.55 583.76,372.31 583.83,369.34 583.91,365.35 583.92,364.76 583.95,363.61 584.01,361.30 584.12,356.74 584.35,347.81 584.74,332.92 585.14,318.94 585.54,305.86 585.93,293.67 586.33,282.34 586.73,271.82 587.12,262.07 587.52,253.05 587.91,244.69 588.31,236.96 588.71,229.81 589.10,223.20 589.50,217.08 589.90,211.43 590.29,206.20 590.69,201.37 591.09,196.90 591.48,192.77 591.88,188.95 592.28,185.43 592.67,182.16 593.07,179.15 593.47,176.36 593.86,173.79 594.26,171.41 594.66,169.21 595.05,167.18 595.45,165.30 595.84,163.57 596.24,161.96 596.64,160.48 597.03,159.11 597.43,157.84 597.83,156.68 598.22,155.60 598.62,154.60 599.02,153.68 599.41,152.82 599.81,152.04 600.21,151.31 600.60,150.64 601.00,150.02 601.40,149.45 601.79,148.92 602.19,148.43 602.58,147.98 602.98,147.56 603.38,147.18 603.77,146.82 604.17,146.50 604.57,146.19 604.96,145.91 605.36,145.66 605.76,145.42 606.15,145.20 606.55,145.00 606.95,144.81 607.34,144.64 607.74,144.48 608.14,144.33 608.53,144.20 608.93,144.08 609.33,143.96 609.72,143.86 610.12,143.76 610.51,143.67 610.91,143.59 611.31,143.51 611.70,143.44 612.10,143.38 612.50,143.32 612.89,143.27 613.29,143.22 613.69,143.18 614.08,143.13 614.48,143.10 614.88,143.06 615.27,143.03 615.67,143.00 616.07,142.98 616.46,142.95 616.86,142.93 617.25,142.91 617.65,142.89 618.05,142.88 618.44,142.86 618.84,142.85 619.24,142.84 619.63,142.83 620.03,142.82 620.43,142.81 620.82,142.81 621.22,142.80 621.62,142.80 622.01,142.79 622.41,142.79 622.81,142.79 623.20,142.78 623.60,142.78 623.99,142.78 624.39,142.78 624.79,142.78 625.18,142.78 625.58,142.78 625.98,142.78 626.37,142.78 626.77,142.78 627.17,142.79 627.56,142.79 627.96,142.79 628.36,142.79 628.75,142.80 629.15,142.80 629.55,142.80 629.94,142.81 630.34,142.81 630.74,142.81 631.13,142.82 631.53,142.82 631.92,142.82 632.32,142.83 632.72,142.83 633.11,142.84 633.51,142.84 633.91,142.85 634.30,142.85 634.70,142.85 635.10,142.86 635.49,142.86 635.89,142.87 636.29,142.87 636.68,142.88 637.08,142.88 637.48,142.89 637.87,142.89 638.27,142.90 638.66,142.90 639.06,142.91 639.46,142.91 639.85,142.92 640.25,142.92 640.65,142.93 641.04,142.93 641.44,142.94 641.84,142.94 642.23,142.95 642.63,142.95 643.03,142.96 643.42,142.96 643.82,142.97 644.22,142.97 644.61,142.98 645.01,142.98 645.41,142.99 645.80,143.00 646.20,143.00 646.59,143.01 646.99,143.01 647.39,143.02 647.78,143.02 648.18,143.03 648.58,143.03 648.97,143.04 649.37,143.04 649.77,143.05 650.16,143.05 650.56,143.06 650.96,143.06 651.35,143.07 651.75,143.07 652.15,143.08 652.54,143.09 652.94,143.09 653.33,143.10 653.73,143.10 654.13,143.11 654.52,143.11 654.92,143.12 655.32,143.12 655.71,143.13 656.11,143.13 656.51,143.14 656.90,143.14 657.30,143.15 657.70,143.15 658.09,143.16 658.49,143.16 658.89,143.17 659.28,143.18 659.68,143.18 660.08,143.19 660.47,143.19 660.87,143.20 661.26,143.20 661.66,143.21 662.06,143.21 662.45,143.22 662.85,143.22 663.25,143.23 663.64,143.23 664.04,143.24 664.44,143.24 664.83,143.25 665.23,143.26 665.63,143.26 666.02,143.27 666.42,143.27 666.82,143.28 667.21,143.28 667.61,143.29 668.00,143.29 668.40,143.30 668.80,143.30 669.19,143.31 669.59,143.31 669.99,143.32 670.38,143.32 670.78,143.33 671.18,143.33 671.57,143.34 671.97,143.35 672.37,143.35 672.76,143.36 673.16,143.36 673.56,143.37 673.95,143.37 674.35,143.38 674.74,143.38 675.14,143.39 675.54,143.39 675.93,143.40 676.33,143.40 676.73,143.41 677.12,143.41 677.52,143.42 677.92,143.43 678.31,143.43 678.71,143.44 679.11,143.44 679.50,143.45 679.90,143.45 680.30,143.46 680.69,143.46 681.09,143.47 681.49,143.47 681.88,143.48 682.28,143.48 682.67,143.49 683.07,143.49 683.47,143.50 683.86,143.50 684.26,143.51 684.63,143.51 685.00,143.52 685.02,144.05 685.06,145.29 685.13,148.26 685.20,152.25 685.22,152.84 685.25,154.00 685.30,156.31 685.42,160.88 685.64,169.83 686.04,184.79 686.44,198.86 686.83,212.00 687.23,224.23 687.63,235.58 688.02,246.10 688.42,255.84 688.82,264.85 689.21,273.19 689.61,280.90 690.00,288.03 690.40,294.62 690.80,300.71 691.19,306.34 691.59,311.55 691.99,316.36 692.38,320.80 692.78,324.91 693.18,328.71 693.57,332.22 693.97,335.46 694.37,338.46 694.76,341.23 695.16,343.79 695.56,346.15 695.95,348.34 696.35,350.36 696.75,352.23 697.14,353.95 697.54,355.55 697.93,357.02 698.33,358.39 698.73,359.64 699.12,360.81 699.52,361.88 699.92,362.87 700.31,363.79 700.71,364.64 701.11,365.42 701.50,366.14 701.90,366.81 702.30,367.43 702.69,368.00 703.09,368.52 703.49,369.01 703.88,369.46 704.28,369.87 704.67,370.25 705.07,370.61 705.47,370.93 705.86,371.23 706.26,371.51 706.66,371.77 707.05,372.00 707.45,372.22 707.85,372.42 708.24,372.60 708.64,372.77 709.04,372.93 709.43,373.07 709.83,373.21 710.23,373.33 710.62,373.44 711.02,373.54 711.41,373.64 711.81,373.72 712.21,373.80 712.60,373.88 713.00,373.94 713.40,374.01 713.79,374.06 714.19,374.11 714.59,374.16 714.98,374.20 715.38,374.24 715.78,374.28 716.17,374.31 716.57,374.34 716.97,374.36 717.36,374.39 717.76,374.41 718.16,374.43 718.55,374.44 718.95,374.46 719.34,374.47 719.74,374.48 720.14,374.49 720.53,374.50 720.93,374.51 721.33,374.52 721.72,374.52 722.12,374.53 722.52,374.53 722.91,374.53 723.31,374.53 723.71,374.53 724.10,374.53 724.50,374.53 724.90,374.53 725.29,374.53 725.69,374.53 726.08,374.53 726.48,374.52 726.88,374.52 727.27,374.52 727.67,374.51 728.07,374.51 728.46,374.50 728.86,374.50 729.26,374.49 729.65,374.49 730.05,374.48 730.45,374.48 730.84,374.47 731.24,374.46 731.64,374.46 732.03,374.45 732.43,374.44 732.83,374.44 733.22,374.43 733.62,374.42 734.01,374.42 734.41,374.41 734.81,374.40 735.20,374.40 735.60,374.39 736.00,374.38 736.39,374.37 736.79,374.37 737.19,374.36 737.58,374.35 737.98,374.34 738.38,374.34 738.77,374.33 739.17,374.32 739.57,374.31 739.96,374.30 740.36,374.30 740.75,374.29 741.15,374.28 741.55,374.27 741.94,374.26 742.34,374.26 742.74,374.25 743.13,374.24 743.53,374.23 743.93,374.22 744.32,374.22 744.72,374.21 745.12,374.20 745.51,374.19 745.91,374.18 746.31,374.18 746.70,374.17 747.10,374.16 747.50,374.15 747.89,374.14 748.29,374.14 748.68,374.13 749.08,374.12 749.48,374.11 749.87,374.10 750.27,374.10 750.67,374.09 751.06,374.08 751.46,374.07 751.86,374.06 752.25,374.05 752.65,374.05 753.05,374.04 753.44,374.03 753.84,374.02 754.24,374.01 754.63,374.01 755.03,374.00 755.42,373.99 755.82,373.98 756.22,373.97 756.61,373.96 757.01,373.96 757.41,373.95 757.80,373.94 758.20,373.93 758.60,373.92 758.99,373.92 759.39,373.91 759.79,373.90 760.18,373.89 760.58,373.88 760.98,373.87 761.37,373.87 761.77,373.86 762.16,373.85 762.56,373.84 762.96,373.83 763.35,373.83 763.75,373.82 764.15,373.81 764.54,373.80 764.94,373.79 765.34,373.79 765.73,373.78 766.13,373.77 766.53,373.76 766.92,373.75 767.32,373.74 767.72,373.74 768.11,373.73 768.51,373.72 768.91,373.71 769.30,373.70 769.70,373.70 770.09,373.69 770.49,373.68 770.89,373.67 771.28,373.66 771.68,373.65 772.08,373.65 772.47,373.64 772.87,373.63 773.27,373.62 773.66,373.61 774.06,373.61 774.46,373.60 774.85,373.59 775.25,373.58 775.65,373.57 776.04,373.56 776.44,373.56 776.83,373.55 777.23,373.54 777.63,373.53 778.02,373.52 778.42,373.52 778.82,373.51 779.21,373.50 779.61,373.49 780.01,373.48 780.40,373.48 780.80,373.47 781.20,373.46 781.59,373.45 781.99,373.44 782.39,373.43 782.78,373.43 783.18,373.42 783.58,373.41 783.97,373.40 784.37,373.39 784.76,373.39 785.16,373.38 785.56,373.37 785.95,373.36 786.33,373.35 786.70,373.35 786.72,372.82 786.76,371.57 786.83,368.60 786.91,364.61 786.92,364.03 786.95,362.87 787.01,360.56 787.12,356.00 787.35,347.07 787.74,332.19 788.14,318.21 788.54,305.13 788.93,292.94 789.33,281.60 789.73,271.09 790.12,261.34 790.52,252.31 790.91,243.96 791.31,236.22 791.71,229.07 792.10,222.46 792.50,216.35 792.90,210.69 793.29,205.46 793.69,200.63 794.09,196.16 794.48,192.03 794.88,188.22 795.28,184.69 795.67,181.43 796.07,178.41 796.47,175.63 796.86,173.05 797.26,170.67 797.66,168.48 798.05,166.44 798.45,164.57 798.84,162.83 799.24,161.23 799.64,159.74 800.03,158.37 800.43,157.11 800.83,155.94 801.22,154.86 801.62,153.86 802.02,152.94 802.41,152.09 802.81,151.30 803.21,150.58 803.60,149.90 804.00,149.29 804.40,148.71 804.79,148.18 805.19,147.70 805.58,147.24 805.98,146.83 806.38,146.44 806.77,146.09 807.17,145.76 807.57,145.46 807.96,145.18 808.36,144.92 808.76,144.68 809.15,144.47 809.55,144.26 809.95,144.08 810.34,143.91 810.74,143.75 811.14,143.60 811.53,143.47 811.93,143.34 812.33,143.23 812.72,143.12 813.12,143.03 813.51,142.94 813.91,142.86 814.31,142.78 814.70,142.71 815.10,142.65 815.50,142.59 815.89,142.54 816.29,142.49 816.69,142.44 817.08,142.40 817.48,142.36 817.88,142.33 818.27,142.30 818.67,142.27 819.07,142.24 819.46,142.22 819.86,142.20 820.25,142.18 820.65,142.16 821.05,142.15 821.44,142.13 821.84,142.12 822.24,142.11 822.63,142.10 823.03,142.09 823.43,142.08 823.82,142.07 824.22,142.07 824.62,142.06 825.01,142.06 825.41,142.06 825.81,142.05 826.20,142.05 826.60,142.05 826.99,142.05 827.39,142.05 827.79,142.05 828.18,142.05 828.58,142.05 828.98,142.05 829.37,142.05 829.77,142.05 830.17,142.05 830.56,142.06 830.96,142.06 831.36,142.06 831.75,142.06 832.15,142.07 832.55,142.07 832.94,142.07 833.34,142.08 833.74,142.08 834.13,142.09 834.53,142.09 834.92,142.09 835.32,142.10 835.72,142.10 836.11,142.11 836.51,142.11 836.91,142.11 837.30,142.12 837.70,142.12 838.10,142.13 838.49,142.13 838.89,142.14 839.29,142.14 839.68,142.15 840.08,142.15 840.48,142.16 840.87,142.16 841.27,142.17 841.66,142.17 842.06,142.18 842.46,142.18 842.85,142.19 843.25,142.19 843.65,142.20 844.04,142.20 844.44,142.21 844.84,142.21 845.23,142.22 845.63,142.22 846.03,142.23 846.42,142.23 846.82,142.24 847.22,142.24 847.61,142.25 848.01,142.26 848.41,142.26 848.80,142.27 849.20,142.27 849.59,142.28 849.99,142.28 850.39,142.29 850.78,142.29 851.18,142.30 851.58,142.30 851.97,142.31 852.37,142.31 852.77,142.32 853.16,142.32 853.56,142.33 853.96,142.33 854.35,142.34 854.75,142.35 855.15,142.35 855.54,142.36 855.94,142.36 856.33,142.37 856.73,142.37 857.13,142.38 857.52,142.38 857.92,142.39 858.32,142.39 858.71,142.40 859.11,142.40 859.51,142.41 859.90,142.41 860.30,142.42 860.70,142.43 861.09,142.43 861.49,142.44 861.89,142.44 862.28,142.45 862.68,142.45 863.08,142.46 863.47,142.46 863.87,142.47 864.26,142.47 864.66,142.48 865.06,142.48 865.45,142.49 865.85,142.50 866.25,142.50 866.64,142.51 867.04,142.51 867.44,142.52 867.83,142.52 868.23,142.53 868.63,142.53 869.02,142.54 869.42,142.54 869.82,142.55 870.21,142.55 870.61,142.56 871.00,142.56 871.40,142.57 871.80,142.58 872.19,142.58 872.59,142.59 872.99,142.59 873.38,142.60 873.78,142.60 874.18,142.61 874.57,142.61 874.97,142.62 875.37,142.62 875.76,142.63 876.16,142.63 876.56,142.64 876.95,142.65 877.35,142.65 877.74,142.66 878.14,142.66 878.54,142.67 878.93,142.67 879.33,142.68 879.73,142.68 880.12,142.69 880.52,142.69 880.92,142.70 881.31,142.70 881.71,142.71 882.11,142.71 882.50,142.72 882.90,142.73 883.30,142.73 883.69,142.74 884.09,142.74 884.49,142.75 884.88,142.75 885.28,142.76 885.67,142.76 886.07,142.77 886.47,142.77 886.86,142.78 887.26,142.78 887.63,142.79" fill="none" stroke="#1665d8" stroke-width="3" stroke-linejoin="round"/>
<polyline points="76.00,376.83 76.02,353.06 76.06,305.53 76.13,222.35 76.20,139.17 76.22,139.17 76.25,139.17 76.30,139.17 76.42,139.17 76.64,139.17 77.04,139.17 77.44,139.17 77.83,139.17 78.23,139.17 78.63,139.17 79.02,139.17 79.42,139.17 79.82,139.17 80.21,139.17 80.61,139.17 81.00,139.17 81.40,139.17 81.80,139.17 82.19,139.17 82.59,139.17 82.99,139.17 83.38,139.17 83.78,139.17 84.18,139.17 84.57,139.17 84.97,139.17 85.37,139.17 85.76,139.17 86.16,139.17 86.56,139.17 86.95,139.17 87.35,139.17 87.75,139.17 88.14,139.17 88.54,139.17 88.93,139.17 89.33,139.17 89.73,139.17 90.12,139.17 90.52,139.17 90.92,139.17 91.31,139.17 91.71,139.17 92.11,139.17 92.50,139.17 92.90,139.17 93.30,139.17 93.69,139.17 94.09,139.17 94.49,139.17 94.88,139.17 95.28,139.17 95.67,139.17 96.07,139.17 96.47,139.17 96.86,139.17 97.26,139.17 97.66,139.17 98.05,139.17 98.45,139.17 98.85,139.17 99.24,139.17 99.64,139.17 100.04,139.17 100.43,139.17 100.83,139.17 101.23,139.17 101.62,139.17 102.02,139.17 102.41,139.17 102.81,139.17 103.21,139.17 103.60,139.17 104.00,139.17 104.40,139.17 104.79,139.17 105.19,139.17 105.59,139.17 105.98,139.17 106.38,139.17 106.78,139.17 107.17,139.17 107.57,139.17 107.97,139.17 108.36,139.17 108.76,139.17 109.16,139.17 109.55,139.17 109.95,139.17 110.34,139.17 110.74,139.17 111.14,139.17 111.53,139.17 111.93,139.17 112.33,139.17 112.72,139.17 113.12,139.17 113.52,139.17 113.91,139.17 114.31,139.17 114.71,139.17 115.10,139.17 115.50,139.17 115.90,139.17 116.29,139.17 116.69,139.17 117.08,139.17 117.48,139.17 117.88,139.17 118.27,139.17 118.67,139.17 119.07,139.17 119.46,139.17 119.86,139.17 120.26,139.17 120.65,139.17 121.05,139.17 121.45,139.17 121.84,139.17 122.24,139.17 122.64,139.17 123.03,139.17 123.43,139.17 123.83,139.17 124.22,139.17 124.62,139.17 125.01,139.17 125.41,139.17 125.81,139.17 126.20,139.17 126.60,139.17 127.00,139.17 127.39,139.17 127.79,139.17 128.19,139.17 128.58,139.17 128.98,139.17 129.38,139.17 129.77,139.17 130.17,139.17 130.57,139.17 130.96,139.17 131.36,139.17 131.75,139.17 132.15,139.17 132.55,139.17 132.94,139.17 133.34,139.17 133.74,139.17 134.13,139.17 134.53,139.17 134.93,139.17 135.32,139.17 135.72,139.17 136.12,139.17 136.51,139.17 136.91,139.17 137.31,139.17 137.70,139.17 138.10,139.17 138.50,139.17 138.89,139.17 139.29,139.17 139.68,139.17 140.08,139.17 140.48,139.17 140.87,139.17 141.27,139.17 141.67,139.17 142.06,139.17 142.46,139.17 142.86,139.17 143.25,139.17 143.65,139.17 144.05,139.17 144.44,139.17 144.84,139.17 145.24,139.17 145.63,139.17 146.03,139.17 146.42,139.17 146.82,139.17 147.22,139.17 147.61,139.17 148.01,139.17 148.41,139.17 148.80,139.17 149.20,139.17 149.60,139.17 149.99,139.17 150.39,139.17 150.79,139.17 151.18,139.17 151.58,139.17 151.98,139.17 152.37,139.17 152.77,139.17 153.16,139.17 153.56,139.17 153.96,139.17 154.35,139.17 154.75,139.17 155.15,139.17 155.54,139.17 155.94,139.17 156.34,139.17 156.73,139.17 157.13,139.17 157.53,139.17 157.92,139.17 158.32,139.17 158.72,139.17 159.11,139.17 159.51,139.17 159.91,139.17 160.30,139.17 160.70,139.17 161.09,139.17 161.49,139.17 161.89,139.17 162.28,139.17 162.68,139.17 163.08,139.17 163.47,139.17 163.87,139.17 164.27,139.17 164.66,139.17 165.06,139.17 165.46,139.17 165.85,139.17 166.25,139.17 166.65,139.17 167.04,139.17 167.44,139.17 167.83,139.17 168.23,139.17 168.63,139.17 169.02,139.17 169.42,139.17 169.82,139.17 170.21,139.17 170.61,139.17 171.01,139.17 171.40,139.17 171.80,139.17 172.20,139.17 172.59,139.17 172.99,139.17 173.39,139.17 173.78,139.17 174.18,139.17 174.58,139.17 174.97,139.17 175.37,139.17 175.76,139.17 176.16,139.17 176.56,139.17 176.95,139.17 177.33,139.17 177.70,139.17 177.72,162.94 177.76,210.47 177.83,293.65 177.91,376.83 177.92,376.83 177.95,376.83 178.01,376.83 178.12,376.83 178.35,376.83 178.74,376.83 179.14,376.83 179.54,376.83 179.93,376.83 180.33,376.83 180.73,376.83 181.12,376.83 181.52,376.83 181.91,376.83 182.31,376.83 182.71,376.83 183.10,376.83 183.50,376.83 183.90,376.83 184.29,376.83 184.69,376.83 185.09,376.83 185.48,376.83 185.88,376.83 186.28,376.83 186.67,376.83 187.07,376.83 187.47,376.83 187.86,376.83 188.26,376.83 188.66,376.83 189.05,376.83 189.45,376.83 189.84,376.83 190.24,376.83 190.64,376.83 191.03,376.83 191.43,376.83 191.83,376.83 192.22,376.83 192.62,376.83 193.02,376.83 193.41,376.83 193.81,376.83 194.21,376.83 194.60,376.83 195.00,376.83 195.40,376.83 195.79,376.83 196.19,376.83 196.58,376.83 196.98,376.83 197.38,376.83 197.77,376.83 198.17,376.83 198.57,376.83 198.96,376.83 199.36,376.83 199.76,376.83 200.15,376.83 200.55,376.83 200.95,376.83 201.34,376.83 201.74,376.83 202.14,376.83 202.53,376.83 202.93,376.83 203.33,376.83 203.72,376.83 204.12,376.83 204.51,376.83 204.91,376.83 205.31,376.83 205.70,376.83 206.10,376.83 206.50,376.83 206.89,376.83 207.29,376.83 207.69,376.83 208.08,376.83 208.48,376.83 208.88,376.83 209.27,376.83 209.67,376.83 210.07,376.83 210.46,376.83 210.86,376.83 211.25,376.83 211.65,376.83 212.05,376.83 212.44,376.83 212.84,376.83 213.24,376.83 213.63,376.83 214.03,376.83 214.43,376.83 214.82,376.83 215.22,376.83 215.62,376.83 216.01,376.83 216.41,376.83 216.81,376.83 217.20,376.83 217.60,376.83 217.99,376.83 218.39,376.83 218.79,376.83 219.18,376.83 219.58,376.83 219.98,376.83 220.37,376.83 220.77,376.83 221.17,376.83 221.56,376.83 221.96,376.83 222.36,376.83 222.75,376.83 223.15,376.83 223.55,376.83 223.94,376.83 224.34,376.83 224.74,376.83 225.13,376.83 225.53,376.83 225.92,376.83 226.32,376.83 226.72,376.83 227.11,376.83 227.51,376.83 227.91,376.83 228.30,376.83 228.70,376.83 229.10,376.83 229.49,376.83 229.89,376.83 230.29,376.83 230.68,376.83 231.08,376.83 231.48,376.83 231.87,376.83 232.27,376.83 232.66,376.83 233.06,376.83 233.46,376.83 233.85,376.83 234.25,376.83 234.65,376.83 235.04,376.83 235.44,376.83 235.84,376.83 236.23,376.83 236.63,376.83 237.03,376.83 237.42,376.83 237.82,376.83 238.22,376.83 238.61,376.83 239.01,376.83 239.41,376.83 239.80,376.83 240.20,376.83 240.59,376.83 240.99,376.83 241.39,376.83 241.78,376.83 242.18,376.83 242.58,376.83 242.97,376.83 243.37,376.83 243.77,376.83 244.16,376.83 244.56,376.83 244.96,376.83 245.35,376.83 245.75,376.83 246.15,376.83 246.54,376.83 246.94,376.83 247.33,376.83 247.73,376.83 248.13,376.83 248.52,376.83 248.92,376.83 249.32,376.83 249.71,376.83 250.11,376.83 250.51,376.83 250.90,376.83 251.30,376.83 251.70,376.83 252.09,376.83 252.49,376.83 252.89,376.83 253.28,376.83 253.68,376.83 254.08,376.83 254.47,376.83 254.87,376.83 255.26,376.83 255.66,376.83 256.06,376.83 256.45,376.83 256.85,376.83 257.25,376.83 257.64,376.83 258.04,376.83 258.44,376.83 258.83,376.83 259.23,376.83 259.63,376.83 260.02,376.83 260.42,376.83 260.82,376.83 261.21,376.83 261.61,376.83 262.00,376.83 262.40,376.83 262.80,376.83 263.19,376.83 263.59,376.83 263.99,376.83 264.38,376.83 264.78,376.83 265.18,376.83 265.57,376.83 265.97,376.83 266.37,376.83 266.76,376.83 267.16,376.83 267.56,376.83 267.95,376.83 268.35,376.83 268.74,376.83 269.14,376.83 269.54,376.83 269.93,376.83 270.33,376.83 270.73,376.83 271.12,376.83 271.52,376.83 271.92,376.83 272.31,376.83 272.71,376.83 273.11,376.83 273.50,376.83 273.90,376.83 274.30,376.83 274.69,376.83 275.09,376.83 275.49,376.83 275.88,376.83 276.28,376.83 276.67,376.83 277.07,376.83 277.47,376.83 277.86,376.83 278.26,376.83 278.63,376.83 279.00,376.83 279.02,353.06 279.06,305.53 279.13,222.35 279.20,139.17 279.22,139.17 279.25,139.17 279.30,139.17 279.42,139.17 279.64,139.17 280.04,139.17 280.44,139.17 280.83,139.17 281.23,139.17 281.63,139.17 282.02,139.17 282.42,139.17 282.82,139.17 283.21,139.17 283.61,139.17 284.00,139.17 284.40,139.17 284.80,139.17 285.19,139.17 285.59,139.17 285.99,139.17 286.38,139.17 286.78,139.17 287.18,139.17 287.57,139.17 287.97,139.17 288.37,139.17 288.76,139.17 289.16,139.17 289.56,139.17 289.95,139.17 290.35,139.17 290.75,139.17 291.14,139.17 291.54,139.17 291.93,139.17 292.33,139.17 292.73,139.17 293.12,139.17 293.52,139.17 293.92,139.17 294.31,139.17 294.71,139.17 295.11,139.17 295.50,139.17 295.90,139.17 296.30,139.17 296.69,139.17 297.09,139.17 297.49,139.17 297.88,139.17 298.28,139.17 298.67,139.17 299.07,139.17 299.47,139.17 299.86,139.17 300.26,139.17 300.66,139.17 301.05,139.17 301.45,139.17 301.85,139.17 302.24,139.17 302.64,139.17 303.04,139.17 303.43,139.17 303.83,139.17 304.23,139.17 304.62,139.17 305.02,139.17 305.41,139.17 305.81,139.17 306.21,139.17 306.60,139.17 307.00,139.17 307.40,139.17 307.79,139.17 308.19,139.17 308.59,139.17 308.98,139.17 309.38,139.17 309.78,139.17 310.17,139.17 310.57,139.17 310.97,139.17 311.36,139.17 311.76,139.17 312.16,139.17 312.55,139.17 312.95,139.17 313.34,139.17 313.74,139.17 314.14,139.17 314.53,139.17 314.93,139.17 315.33,139.17 315.72,139.17 316.12,139.17 316.52,139.17 316.91,139.17 317.31,139.17 317.71,139.17 318.10,139.17 318.50,139.17 318.90,139.17 319.29,139.17 319.69,139.17 320.08,139.17 320.48,139.17 320.88,139.17 321.27,139.17 321.67,139.17 322.07,139.17 322.46,139.17 322.86,139.17 323.26,139.17 323.65,139.17 324.05,139.17 324.45,139.17 324.84,139.17 325.24,139.17 325.64,139.17 326.03,139.17 326.43,139.17 326.83,139.17 327.22,139.17 327.62,139.17 328.01,139.17 328.41,139.17 328.81,139.17 329.20,139.17 329.60,139.17 330.00,139.17 330.39,139.17 330.79,139.17 331.19,139.17 331.58,139.17 331.98,139.17 332.38,139.17 332.77,139.17 333.17,139.17 333.57,139.17 333.96,139.17 334.36,139.17 334.75,139.17 335.15,139.17 335.55,139.17 335.94,139.17 336.34,139.17 336.74,139.17 337.13,139.17 337.53,139.17 337.93,139.17 338.32,139.17 338.72,139.17 339.12,139.17 339.51,139.17 339.91,139.17 340.31,139.17 340.70,139.17 341.10,139.17 341.50,139.17 341.89,139.17 342.29,139.17 342.68,139.17 343.08,139.17 343.48,139.17 343.87,139.17 344.27,139.17 344.67,139.17 345.06,139.17 345.46,139.17 345.86,139.17 346.25,139.17 346.65,139.17 347.05,139.17 347.44,139.17 347.84,139.17 348.24,139.17 348.63,139.17 349.03,139.17 349.42,139.17 349.82,139.17 350.22,139.17 350.61,139.17 351.01,139.17 351.41,139.17 351.80,139.17 352.20,139.17 352.60,139.17 352.99,139.17 353.39,139.17 353.79,139.17 354.18,139.17 354.58,139.17 354.98,139.17 355.37,139.17 355.77,139.17 356.16,139.17 356.56,139.17 356.96,139.17 357.35,139.17 357.75,139.17 358.15,139.17 358.54,139.17 358.94,139.17 359.34,139.17 359.73,139.17 360.13,139.17 360.53,139.17 360.92,139.17 361.32,139.17 361.72,139.17 362.11,139.17 362.51,139.17 362.91,139.17 363.30,139.17 363.70,139.17 364.09,139.17 364.49,139.17 364.89,139.17 365.28,139.17 365.68,139.17 366.08,139.17 366.47,139.17 366.87,139.17 367.27,139.17 367.66,139.17 368.06,139.17 368.46,139.17 368.85,139.17 369.25,139.17 369.65,139.17 370.04,139.17 370.44,139.17 370.83,139.17 371.23,139.17 371.63,139.17 372.02,139.17 372.42,139.17 372.82,139.17 373.21,139.17 373.61,139.17 374.01,139.17 374.40,139.17 374.80,139.17 375.20,139.17 375.59,139.17 375.99,139.17 376.39,139.17 376.78,139.17 377.18,139.17 377.58,139.17 377.97,139.17 378.37,139.17 378.76,139.17 379.16,139.17 379.56,139.17 379.95,139.17 380.33,139.17 380.70,139.17 380.72,162.94 380.76,210.47 380.83,293.65 380.91,376.83 380.92,376.83 380.95,376.83 381.01,376.83 381.12,376.83 381.35,376.83 381.74,376.83 382.14,376.83 382.54,376.83 382.93,376.83 383.33,376.83 383.73,376.83 384.12,376.83 384.52,376.83 384.91,376.83 385.31,376.83 385.71,376.83 386.10,376.83 386.50,376.83 386.90,376.83 387.29,376.83 387.69,376.83 388.09,376.83 388.48,376.83 388.88,376.83 389.28,376.83 389.67,376.83 390.07,376.83 390.47,376.83 390.86,376.83 391.26,376.83 391.66,376.83 392.05,376.83 392.45,376.83 392.84,376.83 393.24,376.83 393.64,376.83 394.03,376.83 394.43,376.83 394.83,376.83 395.22,376.83 395.62,376.83 396.02,376.83 396.41,376.83 396.81,376.83 397.21,376.83 397.60,376.83 398.00,376.83 398.40,376.83 398.79,376.83 399.19,376.83 399.58,376.83 399.98,376.83 400.38,376.83 400.77,376.83 401.17,376.83 401.57,376.83 401.96,376.83 402.36,376.83 402.76,376.83 403.15,376.83 403.55,376.83 403.95,376.83 404.34,376.83 404.74,376.83 405.14,376.83 405.53,376.83 405.93,376.83 406.33,376.83 406.72,376.83 407.12,376.83 407.51,376.83 407.91,376.83 408.31,376.83 408.70,376.83 409.10,376.83 409.50,376.83 409.89,376.83 410.29,376.83 410.69,376.83 411.08,376.83 411.48,376.83 411.88,376.83 412.27,376.83 412.67,376.83 413.07,376.83 413.46,376.83 413.86,376.83 414.25,376.83 414.65,376.83 415.05,376.83 415.44,376.83 415.84,376.83 416.24,376.83 416.63,376.83 417.03,376.83 417.43,376.83 417.82,376.83 418.22,376.83 418.62,376.83 419.01,376.83 419.41,376.83 419.81,376.83 420.20,376.83 420.60,376.83 420.99,376.83 421.39,376.83 421.79,376.83 422.18,376.83 422.58,376.83 422.98,376.83 423.37,376.83 423.77,376.83 424.17,376.83 424.56,376.83 424.96,376.83 425.36,376.83 425.75,376.83 426.15,376.83 426.55,376.83 426.94,376.83 427.34,376.83 427.74,376.83 428.13,376.83 428.53,376.83 428.92,376.83 429.32,376.83 429.72,376.83 430.11,376.83 430.51,376.83 430.91,376.83 431.30,376.83 431.70,376.83 432.10,376.83 432.49,376.83 432.89,376.83 433.29,376.83 433.68,376.83 434.08,376.83 434.48,376.83 434.87,376.83 435.27,376.83 435.66,376.83 436.06,376.83 436.46,376.83 436.85,376.83 437.25,376.83 437.65,376.83 438.04,376.83 438.44,376.83 438.84,376.83 439.23,376.83 439.63,376.83 440.03,376.83 440.42,376.83 440.82,376.83 441.22,376.83 441.61,376.83 442.01,376.83 442.41,376.83 442.80,376.83 443.20,376.83 443.59,376.83 443.99,376.83 444.39,376.83 444.78,376.83 445.18,376.83 445.58,376.83 445.97,376.83 446.37,376.83 446.77,376.83 447.16,376.83 447.56,376.83 447.96,376.83 448.35,376.83 448.75,376.83 449.15,376.83 449.54,376.83 449.94,376.83 450.33,376.83 450.73,376.83 451.13,376.83 451.52,376.83 451.92,376.83 452.32,376.83 452.71,376.83 453.11,376.83 453.51,376.83 453.90,376.83 454.30,376.83 454.70,376.83 455.09,376.83 455.49,376.83 455.89,376.83 456.28,376.83 456.68,376.83 457.08,376.83 457.47,376.83 457.87,376.83 458.26,376.83 458.66,376.83 459.06,376.83 459.45,376.83 459.85,376.83 460.25,376.83 460.64,376.83 461.04,376.83 461.44,376.83 461.83,376.83 462.23,376.83 462.63,376.83 463.02,376.83 463.42,376.83 463.82,376.83 464.21,376.83 464.61,376.83 465.00,376.83 465.40,376.83 465.80,376.83 466.19,376.83 466.59,376.83 466.99,376.83 467.38,376.83 467.78,376.83 468.18,376.83 468.57,376.83 468.97,376.83 469.37,376.83 469.76,376.83 470.16,376.83 470.56,376.83 470.95,376.83 471.35,376.83 471.74,376.83 472.14,376.83 472.54,376.83 472.93,376.83 473.33,376.83 473.73,376.83 474.12,376.83 474.52,376.83 474.92,376.83 475.31,376.83 475.71,376.83 476.11,376.83 476.50,376.83 476.90,376.83 477.30,376.83 477.69,376.83 478.09,376.83 478.49,376.83 478.88,376.83 479.28,376.83 479.67,376.83 480.07,376.83 480.47,376.83 480.86,376.83 481.26,376.83 481.63,376.83 482.00,376.83 482.02,353.06 482.06,305.53 482.13,222.35 482.20,139.17 482.22,139.17 482.25,139.17 482.30,139.17 482.42,139.17 482.64,139.17 483.04,139.17 483.44,139.17 483.83,139.17 484.23,139.17 484.63,139.17 485.02,139.17 485.42,139.17 485.82,139.17 486.21,139.17 486.61,139.17 487.00,139.17 487.40,139.17 487.80,139.17 488.19,139.17 488.59,139.17 488.99,139.17 489.38,139.17 489.78,139.17 490.18,139.17 490.57,139.17 490.97,139.17 491.37,139.17 491.76,139.17 492.16,139.17 492.56,139.17 492.95,139.17 493.35,139.17 493.75,139.17 494.14,139.17 494.54,139.17 494.93,139.17 495.33,139.17 495.73,139.17 496.12,139.17 496.52,139.17 496.92,139.17 497.31,139.17 497.71,139.17 498.11,139.17 498.50,139.17 498.90,139.17 499.30,139.17 499.69,139.17 500.09,139.17 500.49,139.17 500.88,139.17 501.28,139.17 501.67,139.17 502.07,139.17 502.47,139.17 502.86,139.17 503.26,139.17 503.66,139.17 504.05,139.17 504.45,139.17 504.85,139.17 505.24,139.17 505.64,139.17 506.04,139.17 506.43,139.17 506.83,139.17 507.23,139.17 507.62,139.17 508.02,139.17 508.41,139.17 508.81,139.17 509.21,139.17 509.60,139.17 510.00,139.17 510.40,139.17 510.79,139.17 511.19,139.17 511.59,139.17 511.98,139.17 512.38,139.17 512.78,139.17 513.17,139.17 513.57,139.17 513.97,139.17 514.36,139.17 514.76,139.17 515.16,139.17 515.55,139.17 515.95,139.17 516.34,139.17 516.74,139.17 517.14,139.17 517.53,139.17 517.93,139.17 518.33,139.17 518.72,139.17 519.12,139.17 519.52,139.17 519.91,139.17 520.31,139.17 520.71,139.17 521.10,139.17 521.50,139.17 521.90,139.17 522.29,139.17 522.69,139.17 523.08,139.17 523.48,139.17 523.88,139.17 524.27,139.17 524.67,139.17 525.07,139.17 525.46,139.17 525.86,139.17 526.26,139.17 526.65,139.17 527.05,139.17 527.45,139.17 527.84,139.17 528.24,139.17 528.64,139.17 529.03,139.17 529.43,139.17 529.83,139.17 530.22,139.17 530.62,139.17 531.01,139.17 531.41,139.17 531.81,139.17 532.20,139.17 532.60,139.17 533.00,139.17 533.39,139.17 533.79,139.17 534.19,139.17 534.58,139.17 534.98,139.17 535.38,139.17 535.77,139.17 536.17,139.17 536.57,139.17 536.96,139.17 537.36,139.17 537.75,139.17 538.15,139.17 538.55,139.17 538.94,139.17 539.34,139.17 539.74,139.17 540.13,139.17 540.53,139.17 540.93,139.17 541.32,139.17 541.72,139.17 542.12,139.17 542.51,139.17 542.91,139.17 543.31,139.17 543.70,139.17 544.10,139.17 544.50,139.17 544.89,139.17 545.29,139.17 545.68,139.17 546.08,139.17 546.48,139.17 546.87,139.17 547.27,139.17 547.67,139.17 548.06,139.17 548.46,139.17 548.86,139.17 549.25,139.17 549.65,139.17 550.05,139.17 550.44,139.17 550.84,139.17 551.24,139.17 551.63,139.17 552.03,139.17 552.42,139.17 552.82,139.17 553.22,139.17 553.61,139.17 554.01,139.17 554.41,139.17 554.80,139.17 555.20,139.17 555.60,139.17 555.99,139.17 556.39,139.17 556.79,139.17 557.18,139.17 557.58,139.17 557.98,139.17 558.37,139.17 558.77,139.17 559.16,139.17 559.56,139.17 559.96,139.17 560.35,139.17 560.75,139.17 561.15,139.17 561.54,139.17 561.94,139.17 562.34,139.17 562.73,139.17 563.13,139.17 563.53,139.17 563.92,139.17 564.32,139.17 564.72,139.17 565.11,139.17 565.51,139.17 565.91,139.17 566.30,139.17 566.70,139.17 567.09,139.17 567.49,139.17 567.89,139.17 568.28,139.17 568.68,139.17 569.08,139.17 569.47,139.17 569.87,139.17 570.27,139.17 570.66,139.17 571.06,139.17 571.46,139.17 571.85,139.17 572.25,139.17 572.65,139.17 573.04,139.17 573.44,139.17 573.83,139.17 574.23,139.17 574.63,139.17 575.02,139.17 575.42,139.17 575.82,139.17 576.21,139.17 576.61,139.17 577.01,139.17 577.40,139.17 577.80,139.17 578.20,139.17 578.59,139.17 578.99,139.17 579.39,139.17 579.78,139.17 580.18,139.17 580.58,139.17 580.97,139.17 581.37,139.17 581.76,139.17 582.16,139.17 582.56,139.17 582.95,139.17 583.33,139.17 583.70,139.17 583.72,162.94 583.76,210.47 583.83,293.65 583.91,376.83 583.92,376.83 583.95,376.83 584.01,376.83 584.12,376.83 584.35,376.83 584.74,376.83 585.14,376.83 585.54,376.83 585.93,376.83 586.33,376.83 586.73,376.83 587.12,376.83 587.52,376.83 587.91,376.83 588.31,376.83 588.71,376.83 589.10,376.83 589.50,376.83 589.90,376.83 590.29,376.83 590.69,376.83 591.09,376.83 591.48,376.83 591.88,376.83 592.28,376.83 592.67,376.83 593.07,376.83 593.47,376.83 593.86,376.83 594.26,376.83 594.66,376.83 595.05,376.83 595.45,376.83 595.84,376.83 596.24,376.83 596.64,376.83 597.03,376.83 597.43,376.83 597.83,376.83 598.22,376.83 598.62,376.83 599.02,376.83 599.41,376.83 599.81,376.83 600.21,376.83 600.60,376.83 601.00,376.83 601.40,376.83 601.79,376.83 602.19,376.83 602.58,376.83 602.98,376.83 603.38,376.83 603.77,376.83 604.17,376.83 604.57,376.83 604.96,376.83 605.36,376.83 605.76,376.83 606.15,376.83 606.55,376.83 606.95,376.83 607.34,376.83 607.74,376.83 608.14,376.83 608.53,376.83 608.93,376.83 609.33,376.83 609.72,376.83 610.12,376.83 610.51,376.83 610.91,376.83 611.31,376.83 611.70,376.83 612.10,376.83 612.50,376.83 612.89,376.83 613.29,376.83 613.69,376.83 614.08,376.83 614.48,376.83 614.88,376.83 615.27,376.83 615.67,376.83 616.07,376.83 616.46,376.83 616.86,376.83 617.25,376.83 617.65,376.83 618.05,376.83 618.44,376.83 618.84,376.83 619.24,376.83 619.63,376.83 620.03,376.83 620.43,376.83 620.82,376.83 621.22,376.83 621.62,376.83 622.01,376.83 622.41,376.83 622.81,376.83 623.20,376.83 623.60,376.83 623.99,376.83 624.39,376.83 624.79,376.83 625.18,376.83 625.58,376.83 625.98,376.83 626.37,376.83 626.77,376.83 627.17,376.83 627.56,376.83 627.96,376.83 628.36,376.83 628.75,376.83 629.15,376.83 629.55,376.83 629.94,376.83 630.34,376.83 630.74,376.83 631.13,376.83 631.53,376.83 631.92,376.83 632.32,376.83 632.72,376.83 633.11,376.83 633.51,376.83 633.91,376.83 634.30,376.83 634.70,376.83 635.10,376.83 635.49,376.83 635.89,376.83 636.29,376.83 636.68,376.83 637.08,376.83 637.48,376.83 637.87,376.83 638.27,376.83 638.66,376.83 639.06,376.83 639.46,376.83 639.85,376.83 640.25,376.83 640.65,376.83 641.04,376.83 641.44,376.83 641.84,376.83 642.23,376.83 642.63,376.83 643.03,376.83 643.42,376.83 643.82,376.83 644.22,376.83 644.61,376.83 645.01,376.83 645.41,376.83 645.80,376.83 646.20,376.83 646.59,376.83 646.99,376.83 647.39,376.83 647.78,376.83 648.18,376.83 648.58,376.83 648.97,376.83 649.37,376.83 649.77,376.83 650.16,376.83 650.56,376.83 650.96,376.83 651.35,376.83 651.75,376.83 652.15,376.83 652.54,376.83 652.94,376.83 653.33,376.83 653.73,376.83 654.13,376.83 654.52,376.83 654.92,376.83 655.32,376.83 655.71,376.83 656.11,376.83 656.51,376.83 656.90,376.83 657.30,376.83 657.70,376.83 658.09,376.83 658.49,376.83 658.89,376.83 659.28,376.83 659.68,376.83 660.08,376.83 660.47,376.83 660.87,376.83 661.26,376.83 661.66,376.83 662.06,376.83 662.45,376.83 662.85,376.83 663.25,376.83 663.64,376.83 664.04,376.83 664.44,376.83 664.83,376.83 665.23,376.83 665.63,376.83 666.02,376.83 666.42,376.83 666.82,376.83 667.21,376.83 667.61,376.83 668.00,376.83 668.40,376.83 668.80,376.83 669.19,376.83 669.59,376.83 669.99,376.83 670.38,376.83 670.78,376.83 671.18,376.83 671.57,376.83 671.97,376.83 672.37,376.83 672.76,376.83 673.16,376.83 673.56,376.83 673.95,376.83 674.35,376.83 674.74,376.83 675.14,376.83 675.54,376.83 675.93,376.83 676.33,376.83 676.73,376.83 677.12,376.83 677.52,376.83 677.92,376.83 678.31,376.83 678.71,376.83 679.11,376.83 679.50,376.83 679.90,376.83 680.30,376.83 680.69,376.83 681.09,376.83 681.49,376.83 681.88,376.83 682.28,376.83 682.67,376.83 683.07,376.83 683.47,376.83 683.86,376.83 684.26,376.83 684.63,376.83 685.00,376.83 685.02,353.06 685.06,305.53 685.13,222.35 685.20,139.17 685.22,139.17 685.25,139.17 685.30,139.17 685.42,139.17 685.64,139.17 686.04,139.17 686.44,139.17 686.83,139.17 687.23,139.17 687.63,139.17 688.02,139.17 688.42,139.17 688.82,139.17 689.21,139.17 689.61,139.17 690.00,139.17 690.40,139.17 690.80,139.17 691.19,139.17 691.59,139.17 691.99,139.17 692.38,139.17 692.78,139.17 693.18,139.17 693.57,139.17 693.97,139.17 694.37,139.17 694.76,139.17 695.16,139.17 695.56,139.17 695.95,139.17 696.35,139.17 696.75,139.17 697.14,139.17 697.54,139.17 697.93,139.17 698.33,139.17 698.73,139.17 699.12,139.17 699.52,139.17 699.92,139.17 700.31,139.17 700.71,139.17 701.11,139.17 701.50,139.17 701.90,139.17 702.30,139.17 702.69,139.17 703.09,139.17 703.49,139.17 703.88,139.17 704.28,139.17 704.67,139.17 705.07,139.17 705.47,139.17 705.86,139.17 706.26,139.17 706.66,139.17 707.05,139.17 707.45,139.17 707.85,139.17 708.24,139.17 708.64,139.17 709.04,139.17 709.43,139.17 709.83,139.17 710.23,139.17 710.62,139.17 711.02,139.17 711.41,139.17 711.81,139.17 712.21,139.17 712.60,139.17 713.00,139.17 713.40,139.17 713.79,139.17 714.19,139.17 714.59,139.17 714.98,139.17 715.38,139.17 715.78,139.17 716.17,139.17 716.57,139.17 716.97,139.17 717.36,139.17 717.76,139.17 718.16,139.17 718.55,139.17 718.95,139.17 719.34,139.17 719.74,139.17 720.14,139.17 720.53,139.17 720.93,139.17 721.33,139.17 721.72,139.17 722.12,139.17 722.52,139.17 722.91,139.17 723.31,139.17 723.71,139.17 724.10,139.17 724.50,139.17 724.90,139.17 725.29,139.17 725.69,139.17 726.08,139.17 726.48,139.17 726.88,139.17 727.27,139.17 727.67,139.17 728.07,139.17 728.46,139.17 728.86,139.17 729.26,139.17 729.65,139.17 730.05,139.17 730.45,139.17 730.84,139.17 731.24,139.17 731.64,139.17 732.03,139.17 732.43,139.17 732.83,139.17 733.22,139.17 733.62,139.17 734.01,139.17 734.41,139.17 734.81,139.17 735.20,139.17 735.60,139.17 736.00,139.17 736.39,139.17 736.79,139.17 737.19,139.17 737.58,139.17 737.98,139.17 738.38,139.17 738.77,139.17 739.17,139.17 739.57,139.17 739.96,139.17 740.36,139.17 740.75,139.17 741.15,139.17 741.55,139.17 741.94,139.17 742.34,139.17 742.74,139.17 743.13,139.17 743.53,139.17 743.93,139.17 744.32,139.17 744.72,139.17 745.12,139.17 745.51,139.17 745.91,139.17 746.31,139.17 746.70,139.17 747.10,139.17 747.50,139.17 747.89,139.17 748.29,139.17 748.68,139.17 749.08,139.17 749.48,139.17 749.87,139.17 750.27,139.17 750.67,139.17 751.06,139.17 751.46,139.17 751.86,139.17 752.25,139.17 752.65,139.17 753.05,139.17 753.44,139.17 753.84,139.17 754.24,139.17 754.63,139.17 755.03,139.17 755.42,139.17 755.82,139.17 756.22,139.17 756.61,139.17 757.01,139.17 757.41,139.17 757.80,139.17 758.20,139.17 758.60,139.17 758.99,139.17 759.39,139.17 759.79,139.17 760.18,139.17 760.58,139.17 760.98,139.17 761.37,139.17 761.77,139.17 762.16,139.17 762.56,139.17 762.96,139.17 763.35,139.17 763.75,139.17 764.15,139.17 764.54,139.17 764.94,139.17 765.34,139.17 765.73,139.17 766.13,139.17 766.53,139.17 766.92,139.17 767.32,139.17 767.72,139.17 768.11,139.17 768.51,139.17 768.91,139.17 769.30,139.17 769.70,139.17 770.09,139.17 770.49,139.17 770.89,139.17 771.28,139.17 771.68,139.17 772.08,139.17 772.47,139.17 772.87,139.17 773.27,139.17 773.66,139.17 774.06,139.17 774.46,139.17 774.85,139.17 775.25,139.17 775.65,139.17 776.04,139.17 776.44,139.17 776.83,139.17 777.23,139.17 777.63,139.17 778.02,139.17 778.42,139.17 778.82,139.17 779.21,139.17 779.61,139.17 780.01,139.17 780.40,139.17 780.80,139.17 781.20,139.17 781.59,139.17 781.99,139.17 782.39,139.17 782.78,139.17 783.18,139.17 783.58,139.17 783.97,139.17 784.37,139.17 784.76,139.17 785.16,139.17 785.56,139.17 785.95,139.17 786.33,139.17 786.70,139.17 786.72,162.94 786.76,210.47 786.83,293.65 786.91,376.83 786.92,376.83 786.95,376.83 787.01,376.83 787.12,376.83 787.35,376.83 787.74,376.83 788.14,376.83 788.54,376.83 788.93,376.83 789.33,376.83 789.73,376.83 790.12,376.83 790.52,376.83 790.91,376.83 791.31,376.83 791.71,376.83 792.10,376.83 792.50,376.83 792.90,376.83 793.29,376.83 793.69,376.83 794.09,376.83 794.48,376.83 794.88,376.83 795.28,376.83 795.67,376.83 796.07,376.83 796.47,376.83 796.86,376.83 797.26,376.83 797.66,376.83 798.05,376.83 798.45,376.83 798.84,376.83 799.24,376.83 799.64,376.83 800.03,376.83 800.43,376.83 800.83,376.83 801.22,376.83 801.62,376.83 802.02,376.83 802.41,376.83 802.81,376.83 803.21,376.83 803.60,376.83 804.00,376.83 804.40,376.83 804.79,376.83 805.19,376.83 805.58,376.83 805.98,376.83 806.38,376.83 806.77,376.83 807.17,376.83 807.57,376.83 807.96,376.83 808.36,376.83 808.76,376.83 809.15,376.83 809.55,376.83 809.95,376.83 810.34,376.83 810.74,376.83 811.14,376.83 811.53,376.83 811.93,376.83 812.33,376.83 812.72,376.83 813.12,376.83 813.51,376.83 813.91,376.83 814.31,376.83 814.70,376.83 815.10,376.83 815.50,376.83 815.89,376.83 816.29,376.83 816.69,376.83 817.08,376.83 817.48,376.83 817.88,376.83 818.27,376.83 818.67,376.83 819.07,376.83 819.46,376.83 819.86,376.83 820.25,376.83 820.65,376.83 821.05,376.83 821.44,376.83 821.84,376.83 822.24,376.83 822.63,376.83 823.03,376.83 823.43,376.83 823.82,376.83 824.22,376.83 824.62,376.83 825.01,376.83 825.41,376.83 825.81,376.83 826.20,376.83 826.60,376.83 826.99,376.83 827.39,376.83 827.79,376.83 828.18,376.83 828.58,376.83 828.98,376.83 829.37,376.83 829.77,376.83 830.17,376.83 830.56,376.83 830.96,376.83 831.36,376.83 831.75,376.83 832.15,376.83 832.55,376.83 832.94,376.83 833.34,376.83 833.74,376.83 834.13,376.83 834.53,376.83 834.92,376.83 835.32,376.83 835.72,376.83 836.11,376.83 836.51,376.83 836.91,376.83 837.30,376.83 837.70,376.83 838.10,376.83 838.49,376.83 838.89,376.83 839.29,376.83 839.68,376.83 840.08,376.83 840.48,376.83 840.87,376.83 841.27,376.83 841.66,376.83 842.06,376.83 842.46,376.83 842.85,376.83 843.25,376.83 843.65,376.83 844.04,376.83 844.44,376.83 844.84,376.83 845.23,376.83 845.63,376.83 846.03,376.83 846.42,376.83 846.82,376.83 847.22,376.83 847.61,376.83 848.01,376.83 848.41,376.83 848.80,376.83 849.20,376.83 849.59,376.83 849.99,376.83 850.39,376.83 850.78,376.83 851.18,376.83 851.58,376.83 851.97,376.83 852.37,376.83 852.77,376.83 853.16,376.83 853.56,376.83 853.96,376.83 854.35,376.83 854.75,376.83 855.15,376.83 855.54,376.83 855.94,376.83 856.33,376.83 856.73,376.83 857.13,376.83 857.52,376.83 857.92,376.83 858.32,376.83 858.71,376.83 859.11,376.83 859.51,376.83 859.90,376.83 860.30,376.83 860.70,376.83 861.09,376.83 861.49,376.83 861.89,376.83 862.28,376.83 862.68,376.83 863.08,376.83 863.47,376.83 863.87,376.83 864.26,376.83 864.66,376.83 865.06,376.83 865.45,376.83 865.85,376.83 866.25,376.83 866.64,376.83 867.04,376.83 867.44,376.83 867.83,376.83 868.23,376.83 868.63,376.83 869.02,376.83 869.42,376.83 869.82,376.83 870.21,376.83 870.61,376.83 871.00,376.83 871.40,376.83 871.80,376.83 872.19,376.83 872.59,376.83 872.99,376.83 873.38,376.83 873.78,376.83 874.18,376.83 874.57,376.83 874.97,376.83 875.37,376.83 875.76,376.83 876.16,376.83 876.56,376.83 876.95,376.83 877.35,376.83 877.74,376.83 878.14,376.83 878.54,376.83 878.93,376.83 879.33,376.83 879.73,376.83 880.12,376.83 880.52,376.83 880.92,376.83 881.31,376.83 881.71,376.83 882.11,376.83 882.50,376.83 882.90,376.83 883.30,376.83 883.69,376.83 884.09,376.83 884.49,376.83 884.88,376.83 885.28,376.83 885.67,376.83 886.07,376.83 886.47,376.83 886.86,376.83 887.26,376.83 887.63,376.83" fill="none" stroke="#b54708" stroke-width="3" stroke-linejoin="round"/>
<rect x="670" y="62" width="190" height="70" rx="4" ry="4" fill="#fff" fill-opacity="0.82" stroke="#111" stroke-width="1"/>
<line x1="682" y1="78" x2="718" y2="78" stroke="#1665d8" stroke-width="3"/>
<text x="728" y="83" font-family="Arial, Helvetica, sans-serif" font-size="13" font-weight="400" text-anchor="start" fill="#111">load output</text>
<line x1="682" y1="104" x2="718" y2="104" stroke="#b54708" stroke-width="3"/>
<text x="728" y="109" font-family="Arial, Helvetica, sans-serif" font-size="13" font-weight="400" text-anchor="start" fill="#111">input x3.6</text>
<text x="460" y="502" font-family="Arial, Helvetica, sans-serif" font-size="14" font-weight="400" text-anchor="middle" fill="#111">Time after 60 ms settling, ms</text>
<text x="22" y="260" font-family="Arial, Helvetica, sans-serif" font-size="14" text-anchor="middle" fill="#111" transform="rotate(-90 22 260)">Voltage, V</text>
</svg>
