<svg xmlns="http://www.w3.org/2000/svg" width="920" height="520" viewBox="0 0 920 520">
<defs>
<style>
.wire{stroke:#111;stroke-width:2.6;fill:none;stroke-linecap:round;stroke-linejoin:round}
.thin{stroke:#a7b0bd;stroke-width:1.2;fill:none;stroke-linecap:round;stroke-linejoin:round}
.axis{stroke:#111;stroke-width:1.4;fill:none}
.blue{stroke:#1665d8;stroke-width:3;fill:none;stroke-linecap:round;stroke-linejoin:round}
.green{stroke:#13795b;stroke-width:3;fill:none;stroke-linecap:round;stroke-linejoin:round}
.orange{stroke:#b54708;stroke-width:3;fill:none;stroke-linecap:round;stroke-linejoin:round}
.node{fill:#111;stroke:none}
</style>
</defs>
<rect width="100%" height="100%" fill="#fff"/>
<text x="76" y="36" font-family="Arial, Helvetica, sans-serif" font-size="22" font-weight="700" text-anchor="start" fill="#111">Bootstrap AC gain and phase, load = 8 ohm</text>
<rect x="76" y="60" width="812" height="396" fill="#fff" stroke="#111" stroke-width="1.4"/>
<line x1="129.115" y1="60" x2="129.115" y2="456" class="thin"/>
<text x="129.115" y="479" font-family="Arial, Helvetica, sans-serif" font-size="12" font-weight="400" text-anchor="middle" fill="#111">10</text>
<line x1="305.557" y1="60" x2="305.557" y2="456" class="thin"/>
<text x="305.557" y="479" font-family="Arial, Helvetica, sans-serif" font-size="12" font-weight="400" text-anchor="middle" fill="#111">100</text>
<line x1="482" y1="60" x2="482" y2="456" class="thin"/>
<text x="482" y="479" font-family="Arial, Helvetica, sans-serif" font-size="12" font-weight="400" text-anchor="middle" fill="#111">1k</text>
<line x1="658.443" y1="60" x2="658.443" y2="456" class="thin"/>
<text x="658.443" y="479" font-family="Arial, Helvetica, sans-serif" font-size="12" font-weight="400" text-anchor="middle" fill="#111">10k</text>
<line x1="834.885" y1="60" x2="834.885" y2="456" class="thin"/>
<text x="834.885" y="479" font-family="Arial, Helvetica, sans-serif" font-size="12" font-weight="400" text-anchor="middle" fill="#111">100k</text>
<line x1="76" y1="456" x2="888" y2="456" class="thin"/>
<text x="66" y="460" font-family="Arial, Helvetica, sans-serif" font-size="12" font-weight="400" text-anchor="end" fill="#111">-20</text>
<line x1="76" y1="334.154" x2="888" y2="334.154" class="thin"/>
<text x="66" y="338.154" font-family="Arial, Helvetica, sans-serif" font-size="12" font-weight="400" text-anchor="end" fill="#111">0</text>
<line x1="76" y1="212.308" x2="888" y2="212.308" class="thin"/>
<text x="66" y="216.308" font-family="Arial, Helvetica, sans-serif" font-size="12" font-weight="400" text-anchor="end" fill="#111">20</text>
<line x1="76" y1="90.4615" x2="888" y2="90.4615" class="thin"/>
<text x="66" y="94.4615" font-family="Arial, Helvetica, sans-serif" font-size="12" font-weight="400" text-anchor="end" fill="#111">40</text>
<polyline points="76.00,314.59 78.21,312.57 80.41,310.56 82.62,308.57 84.83,306.60 87.03,304.65 89.24,302.72 91.45,300.81 93.65,298.91 95.86,297.03 98.07,295.16 100.27,293.31 102.48,291.47 104.68,289.65 106.89,287.84 109.10,286.05 111.30,284.27 113.51,282.50 115.72,280.74 117.92,278.99 120.13,277.26 122.34,275.54 124.54,273.82 126.75,272.12 128.96,270.43 131.16,268.74 133.37,267.07 135.58,265.40 137.78,263.74 139.99,262.09 142.20,260.45 144.40,258.81 146.61,257.18 148.82,255.56 151.02,253.94 153.23,252.33 155.43,250.73 157.64,249.13 159.85,247.53 162.05,245.95 164.26,244.36 166.47,242.79 168.67,241.21 170.88,239.64 173.09,238.08 175.29,236.52 177.50,234.97 179.71,233.41 181.91,231.87 184.12,230.33 186.33,228.79 188.53,227.25 190.74,225.72 192.95,224.20 195.15,222.67 197.36,221.16 199.57,219.64 201.77,218.13 203.98,216.62 206.18,215.12 208.39,213.62 210.60,212.13 212.80,210.64 215.01,209.15 217.22,207.67 219.42,206.20 221.63,204.73 223.84,203.26 226.04,201.80 228.25,200.34 230.46,198.89 232.66,197.45 234.87,196.01 237.08,194.58 239.28,193.15 241.49,191.73 243.70,190.32 245.90,188.91 248.11,187.51 250.32,186.12 252.52,184.74 254.73,183.36 256.93,181.99 259.14,180.64 261.35,179.29 263.55,177.95 265.76,176.62 267.97,175.31 270.17,174.00 272.38,172.71 274.59,171.42 276.79,170.15 279.00,168.90 281.21,167.65 283.41,166.42 285.62,165.20 287.83,164.00 290.03,162.82 292.24,161.64 294.45,160.49 296.65,159.35 298.86,158.23 301.07,157.13 303.27,156.04 305.48,154.97 307.68,153.92 309.89,152.89 312.10,151.88 314.30,150.89 316.51,149.92 318.72,148.97 320.92,148.05 323.13,147.14 325.34,146.25 327.54,145.39 329.75,144.55 331.96,143.73 334.16,142.93 336.37,142.15 338.58,141.40 340.78,140.66 342.99,139.95 345.20,139.26 347.40,138.60 349.61,137.95 351.82,137.33 354.02,136.72 356.23,136.14 358.43,135.58 360.64,135.04 362.85,134.52 365.05,134.02 367.26,133.54 369.47,133.07 371.67,132.63 373.88,132.20 376.09,131.80 378.29,131.40 380.50,131.03 382.71,130.67 384.91,130.33 387.12,130.00 389.33,129.69 391.53,129.39 393.74,129.11 395.95,128.84 398.15,128.58 400.36,128.33 402.57,128.10 404.77,127.88 406.98,127.67 409.18,127.47 411.39,127.28 413.60,127.10 415.80,126.93 418.01,126.77 420.22,126.62 422.42,126.47 424.63,126.34 426.84,126.21 429.04,126.09 431.25,125.98 433.46,125.87 435.66,125.77 437.87,125.68 440.08,125.59 442.28,125.51 444.49,125.43 446.70,125.36 448.90,125.30 451.11,125.24 453.32,125.19 455.52,125.14 457.73,125.09 459.93,125.05 462.14,125.01 464.35,124.98 466.55,124.96 468.76,124.93 470.97,124.91 473.17,124.90 475.38,124.89 477.59,124.88 479.79,124.88 482.00,124.88 484.21,124.88 486.41,124.89 488.62,124.90 490.83,124.92 493.03,124.94 495.24,124.96 497.45,124.99 499.65,125.03 501.86,125.06 504.07,125.11 506.27,125.15 508.48,125.20 510.68,125.26 512.89,125.32 515.10,125.39 517.30,125.46 519.51,125.54 521.72,125.62 523.92,125.71 526.13,125.80 528.34,125.90 530.54,126.01 532.75,126.13 534.96,126.25 537.16,126.38 539.37,126.52 541.58,126.67 543.78,126.82 545.99,126.98 548.20,127.16 550.40,127.34 552.61,127.53 554.82,127.74 557.02,127.95 559.23,128.18 561.43,128.41 563.64,128.66 565.85,128.93 568.05,129.20 570.26,129.49 572.47,129.79 574.67,130.11 576.88,130.45 579.09,130.79 581.29,131.16 583.50,131.54 585.71,131.94 587.91,132.36 590.12,132.79 592.33,133.24 594.53,133.71 596.74,134.20 598.95,134.71 601.15,135.24 603.36,135.79 605.57,136.37 607.77,136.96 609.98,137.57 612.18,138.21 614.39,138.87 616.60,139.54 618.80,140.25 621.01,140.97 623.22,141.72 625.42,142.49 627.63,143.28 629.84,144.09 632.04,144.93 634.25,145.79 636.46,146.67 638.66,147.58 640.87,148.50 643.08,149.45 645.28,150.42 647.49,151.41 649.70,152.42 651.90,153.45 654.11,154.51 656.32,155.58 658.52,156.67 660.73,157.78 662.93,158.91 665.14,160.06 667.35,161.23 669.55,162.41 671.76,163.61 673.97,164.83 676.17,166.06 678.38,167.31 680.59,168.57 682.79,169.85 685.00,171.14 687.21,172.45 689.41,173.76 691.62,175.09 693.83,176.44 696.03,177.79 698.24,179.15 700.45,180.53 702.65,181.92 704.86,183.31 707.07,184.72 709.27,186.13 711.48,187.55 713.68,188.98 715.89,190.41 718.10,191.86 720.30,193.31 722.51,194.76 724.72,196.22 726.92,197.69 729.13,199.16 731.34,200.64 733.54,202.12 735.75,203.60 737.96,205.08 740.16,206.57 742.37,208.07 744.58,209.56 746.78,211.06 748.99,212.56 751.20,214.06 753.40,215.56 755.61,217.06 757.82,218.56 760.02,220.06 762.23,221.57 764.43,223.07 766.64,224.57 768.85,226.07 771.05,227.57 773.26,229.07 775.47,230.57 777.67,232.06 779.88,233.56 782.09,235.05 784.29,236.54 786.50,238.03 788.71,239.52 790.91,241.00 793.12,242.48 795.33,243.96 797.53,245.43 799.74,246.90 801.95,248.37 804.15,249.83 806.36,251.29 808.57,252.74 810.77,254.19 812.98,255.64 815.18,257.07 817.39,258.51 819.60,259.94 821.80,261.36 824.01,262.77 826.22,264.18 828.42,265.59 830.63,266.98 832.84,268.37 835.04,269.75 837.25,271.12 839.46,272.48 841.66,273.84 843.87,275.18 846.08,276.52 848.28,277.84 850.49,279.16 852.70,280.46 854.90,281.75 857.11,283.03 859.32,284.30 861.52,285.56 863.73,286.80 865.93,288.03 868.14,289.24 870.35,290.44 872.55,291.62 874.76,292.79 876.97,293.94 879.17,295.08 881.38,296.20 883.59,297.30 885.79,298.38 888.00,299.45" fill="none" stroke="#1665d8" stroke-width="3" stroke-linejoin="round"/>
<line x1="660" y1="88" x2="696" y2="88" stroke="#1665d8" stroke-width="3"/>
<text x="706" y="93" font-family="Arial, Helvetica, sans-serif" font-size="13" font-weight="400" text-anchor="start" fill="#111">gain, dB</text>
<polyline points="76.00,340.14 78.21,340.23 80.41,340.31 82.62,340.40 84.83,340.49 87.03,340.58 89.24,340.66 91.45,340.75 93.65,340.83 95.86,340.91 98.07,340.99 100.27,341.08 102.48,341.16 104.68,341.23 106.89,341.31 109.10,341.39 111.30,341.47 113.51,341.54 115.72,341.61 117.92,341.69 120.13,341.76 122.34,341.83 124.54,341.90 126.75,341.97 128.96,342.04 131.16,342.11 133.37,342.17 135.58,342.24 137.78,342.30 139.99,342.37 142.20,342.43 144.40,342.49 146.61,342.55 148.82,342.61 151.02,342.67 153.23,342.73 155.43,342.79 157.64,342.85 159.85,342.91 162.05,342.97 164.26,343.02 166.47,343.08 168.67,343.13 170.88,343.19 173.09,343.24 175.29,343.30 177.50,343.35 179.71,343.41 181.91,343.46 184.12,343.52 186.33,343.57 188.53,343.62 190.74,343.68 192.95,343.73 195.15,343.78 197.36,343.84 199.57,343.89 201.77,343.95 203.98,344.00 206.18,344.05 208.39,344.11 210.60,344.16 212.80,344.22 215.01,344.27 217.22,344.33 219.42,344.38 221.63,344.44 223.84,344.50 226.04,344.55 228.25,344.61 230.46,344.67 232.66,344.73 234.87,344.79 237.08,344.85 239.28,344.91 241.49,344.97 243.70,345.04 245.90,345.10 248.11,345.16 250.32,345.23 252.52,345.30 254.73,345.36 256.93,345.43 259.14,345.50 261.35,345.57 263.55,345.64 265.76,345.71 267.97,345.78 270.17,345.86 272.38,345.93 274.59,346.01 276.79,346.08 279.00,346.16 281.21,346.24 283.41,346.32 285.62,346.40 287.83,346.48 290.03,346.57 292.24,346.65 294.45,346.74 296.65,346.82 298.86,346.91 301.07,347.00 303.27,347.09 305.48,347.17 307.68,347.26 309.89,347.36 312.10,347.45 314.30,347.54 316.51,347.63 318.72,347.73 320.92,347.82 323.13,347.92 325.34,348.01 327.54,348.11 329.75,348.20 331.96,348.30 334.16,348.39 336.37,348.49 338.58,348.58 340.78,348.68 342.99,348.78 345.20,348.87 347.40,348.97 349.61,349.06 351.82,349.16 354.02,349.25 356.23,349.34 358.43,349.44 360.64,349.53 362.85,349.62 365.05,349.71 367.26,349.80 369.47,349.89 371.67,349.98 373.88,350.07 376.09,350.16 378.29,350.24 380.50,350.33 382.71,350.41 384.91,350.50 387.12,350.58 389.33,350.66 391.53,350.74 393.74,350.82 395.95,350.90 398.15,350.97 400.36,351.05 402.57,351.12 404.77,351.20 406.98,351.27 409.18,351.34 411.39,351.41 413.60,351.48 415.80,351.55 418.01,351.62 420.22,351.69 422.42,351.75 424.63,351.82 426.84,351.88 429.04,351.95 431.25,352.01 433.46,352.07 435.66,352.13 437.87,352.19 440.08,352.25 442.28,352.31 444.49,352.37 446.70,352.43 448.90,352.48 451.11,352.54 453.32,352.60 455.52,352.65 457.73,352.71 459.93,352.76 462.14,352.82 464.35,352.87 466.55,352.93 468.76,352.98 470.97,353.03 473.17,353.09 475.38,353.14 477.59,353.19 479.79,353.25 482.00,315.02 484.21,315.07 486.41,315.13 488.62,315.18 490.83,315.23 493.03,315.29 495.24,315.34 497.45,315.39 499.65,315.45 501.86,315.50 504.07,315.56 506.27,315.61 508.48,315.67 510.68,315.72 512.89,315.78 515.10,315.83 517.30,315.89 519.51,315.95 521.72,316.01 523.92,316.07 526.13,316.13 528.34,316.19 530.54,316.25 532.75,316.31 534.96,316.37 537.16,316.43 539.37,316.50 541.58,316.56 543.78,316.63 545.99,316.70 548.20,316.76 550.40,316.83 552.61,316.90 554.82,316.97 557.02,317.04 559.23,317.12 561.43,317.19 563.64,317.26 565.85,317.34 568.05,317.41 570.26,317.49 572.47,317.57 574.67,317.65 576.88,317.73 579.09,317.81 581.29,317.89 583.50,317.97 585.71,318.06 587.91,318.14 590.12,318.23 592.33,318.31 594.53,318.40 596.74,318.49 598.95,318.58 601.15,318.66 603.36,318.75 605.57,318.84 607.77,318.93 609.98,319.02 612.18,319.11 614.39,319.20 616.60,319.30 618.80,319.39 621.01,319.48 623.22,319.57 625.42,319.66 627.63,319.75 629.84,319.84 632.04,319.93 634.25,320.02 636.46,320.11 638.66,320.20 640.87,320.28 643.08,320.37 645.28,320.46 647.49,320.54 649.70,320.63 651.90,320.71 654.11,320.79 656.32,320.88 658.52,320.96 660.73,321.04 662.93,321.11 665.14,321.19 667.35,321.27 669.55,321.34 671.76,321.41 673.97,321.48 676.17,321.55 678.38,321.62 680.59,321.69 682.79,321.75 685.00,321.82 687.21,321.88 689.41,321.94 691.62,322.00 693.83,322.05 696.03,322.11 698.24,322.16 700.45,322.21 702.65,322.26 704.86,322.31 707.07,322.36 709.27,322.40 711.48,322.45 713.68,322.49 715.89,322.53 718.10,322.57 720.30,322.60 722.51,322.64 724.72,322.67 726.92,322.70 729.13,322.73 731.34,322.76 733.54,322.79 735.75,322.81 737.96,322.83 740.16,322.85 742.37,322.87 744.58,322.89 746.78,322.91 748.99,322.92 751.20,322.94 753.40,322.95 755.61,322.96 757.82,322.97 760.02,322.97 762.23,322.98 764.43,322.98 766.64,322.98 768.85,322.98 771.05,322.98 773.26,322.98 775.47,322.98 777.67,322.97 779.88,322.97 782.09,322.96 784.29,322.95 786.50,322.94 788.71,322.93 790.91,322.91 793.12,322.90 795.33,322.88 797.53,322.86 799.74,322.84 801.95,322.82 804.15,322.80 806.36,322.78 808.57,322.75 810.77,322.73 812.98,322.70 815.18,322.67 817.39,322.64 819.60,322.61 821.80,322.57 824.01,322.54 826.22,322.50 828.42,322.46 830.63,322.42 832.84,322.38 835.04,322.34 837.25,322.29 839.46,322.25 841.66,322.20 843.87,322.15 846.08,322.10 848.28,322.05 850.49,322.00 852.70,321.95 854.90,321.89 857.11,321.83 859.32,321.77 861.52,321.71 863.73,321.65 865.93,321.59 868.14,321.52 870.35,321.46 872.55,321.39 874.76,321.32 876.97,321.25 879.17,321.18 881.38,321.11 883.59,321.04 885.79,320.97 888.00,320.89" fill="none" stroke="#b54708" stroke-width="3" stroke-linejoin="round"/>
<line x1="660" y1="114" x2="696" y2="114" stroke="#b54708" stroke-width="3"/>
<text x="706" y="119" font-family="Arial, Helvetica, sans-serif" font-size="13" font-weight="400" text-anchor="start" fill="#111">phase, deg</text>
<text x="460" y="502" font-family="Arial, Helvetica, sans-serif" font-size="14" font-weight="400" text-anchor="middle" fill="#111">Frequency, Hz</text>
<text x="22" y="260" font-family="Arial, Helvetica, sans-serif" font-size="14" text-anchor="middle" fill="#111" transform="rotate(-90 22 260)">Gain dB / phase deg</text>
</svg>
