<svg xmlns="http://www.w3.org/2000/svg" width="920" height="520" viewBox="0 0 920 520">
<defs>
<style>
.wire{stroke:#111;stroke-width:2.6;fill:none;stroke-linecap:round;stroke-linejoin:round}
.thin{stroke:#a7b0bd;stroke-width:1.2;fill:none;stroke-linecap:round;stroke-linejoin:round}
.axis{stroke:#111;stroke-width:1.4;fill:none}
.blue{stroke:#1665d8;stroke-width:3;fill:none;stroke-linecap:round;stroke-linejoin:round}
.green{stroke:#13795b;stroke-width:3;fill:none;stroke-linecap:round;stroke-linejoin:round}
.orange{stroke:#b54708;stroke-width:3;fill:none;stroke-linecap:round;stroke-linejoin:round}
.node{fill:#111;stroke:none}
</style>
</defs>
<rect width="100%" height="100%" fill="#fff"/>
<text x="76" y="36" font-family="Arial, Helvetica, sans-serif" font-size="22" font-weight="700" text-anchor="start" fill="#111">Bootstrap square response, 10 kHz, Vin = 1000 mVpp</text>
<rect x="76" y="60" width="812" height="396" fill="#fff" stroke="#111" stroke-width="1.4"/>
<line x1="76" y1="60" x2="76" y2="456" class="thin"/>
<text x="76" y="479" font-family="Arial, Helvetica, sans-serif" font-size="12" font-weight="400" text-anchor="middle" fill="#111">0</text>
<line x1="279" y1="60" x2="279" y2="456" class="thin"/>
<text x="279" y="479" font-family="Arial, Helvetica, sans-serif" font-size="12" font-weight="400" text-anchor="middle" fill="#111">0.1</text>
<line x1="482" y1="60" x2="482" y2="456" class="thin"/>
<text x="482" y="479" font-family="Arial, Helvetica, sans-serif" font-size="12" font-weight="400" text-anchor="middle" fill="#111">0.2</text>
<line x1="685" y1="60" x2="685" y2="456" class="thin"/>
<text x="685" y="479" font-family="Arial, Helvetica, sans-serif" font-size="12" font-weight="400" text-anchor="middle" fill="#111">0.3</text>
<line x1="888" y1="60" x2="888" y2="456" class="thin"/>
<text x="888" y="479" font-family="Arial, Helvetica, sans-serif" font-size="12" font-weight="400" text-anchor="middle" fill="#111">0.4</text>
<line x1="76" y1="456" x2="888" y2="456" class="thin"/>
<text x="66" y="460" font-family="Arial, Helvetica, sans-serif" font-size="12" font-weight="400" text-anchor="end" fill="#111">-2</text>
<line x1="76" y1="357" x2="888" y2="357" class="thin"/>
<text x="66" y="361" font-family="Arial, Helvetica, sans-serif" font-size="12" font-weight="400" text-anchor="end" fill="#111">-1</text>
<line x1="76" y1="258" x2="888" y2="258" class="thin"/>
<text x="66" y="262" font-family="Arial, Helvetica, sans-serif" font-size="12" font-weight="400" text-anchor="end" fill="#111">0</text>
<line x1="76" y1="159" x2="888" y2="159" class="thin"/>
<text x="66" y="163" font-family="Arial, Helvetica, sans-serif" font-size="12" font-weight="400" text-anchor="end" fill="#111">1</text>
<line x1="76" y1="60" x2="888" y2="60" class="thin"/>
<text x="66" y="64" font-family="Arial, Helvetica, sans-serif" font-size="12" font-weight="400" text-anchor="end" fill="#111">2</text>
<polyline points="76.00,192.14 76.04,192.11 76.12,192.06 76.28,191.95 76.59,191.97 76.96,192.91 77.36,194.99 77.69,196.98 78.03,199.79 78.07,199.92 78.15,200.26 78.31,200.98 78.62,202.47 79.02,204.50 79.42,206.54 79.81,208.45 80.21,210.27 80.61,212.04 81.00,213.78 81.40,215.49 81.80,217.18 82.19,218.85 82.59,220.50 82.99,222.14 83.38,223.76 83.78,225.36 84.18,226.95 84.57,228.53 84.97,230.09 85.36,231.64 85.76,233.17 86.16,234.69 86.55,236.19 86.95,237.69 87.35,239.17 87.74,240.64 88.14,242.09 88.54,243.53 88.93,244.96 89.33,246.38 89.73,247.79 90.12,249.18 90.52,250.56 90.92,251.93 91.31,253.29 91.71,254.63 92.11,255.97 92.50,257.29 92.90,258.60 93.29,259.90 93.69,261.19 94.09,262.47 94.48,263.73 94.88,264.99 95.28,266.23 95.67,267.46 96.07,268.68 96.47,269.89 96.86,271.09 97.26,272.28 97.66,273.46 98.05,274.63 98.45,275.79 98.85,276.93 99.24,278.07 99.64,279.20 100.03,280.31 100.43,281.42 100.83,282.52 101.22,283.60 101.62,284.68 102.02,285.74 102.41,286.80 102.81,287.85 103.21,288.88 103.60,289.91 104.00,290.93 104.40,291.94 104.79,292.93 105.19,293.92 105.59,294.90 105.98,295.87 106.38,296.83 106.78,297.79 107.17,298.73 107.57,299.66 107.96,300.59 108.36,301.50 108.76,302.41 109.15,303.31 109.55,304.20 109.95,305.08 110.34,305.95 110.74,306.81 111.14,307.67 111.53,308.51 111.93,309.35 112.33,310.18 112.72,311.01 113.12,311.82 113.52,312.63 113.91,313.43 114.31,314.22 114.70,315.00 115.10,315.78 115.50,316.55 115.89,317.31 116.29,318.07 116.69,318.82 117.08,319.56 117.48,320.29 117.88,321.02 118.27,321.74 118.67,322.46 119.07,323.17 119.46,323.87 119.86,324.57 120.26,325.26 120.65,325.94 121.05,326.62 121.45,327.30 121.84,327.96 122.24,328.63 122.63,329.28 123.03,329.93 123.43,330.58 123.82,331.22 124.22,331.85 124.62,332.48 125.01,333.11 125.41,333.73 125.81,334.34 126.20,334.95 126.60,335.56 127.00,336.16 127.39,336.75 127.79,337.34 128.19,337.93 128.58,338.51 128.98,339.08 129.37,339.65 129.77,340.22 130.17,340.78 130.56,341.34 130.96,341.89 131.36,342.44 131.75,342.99 132.15,343.53 132.55,344.06 132.94,344.60 133.34,345.12 133.74,345.65 134.13,346.16 134.53,346.68 134.93,347.19 135.32,347.70 135.72,348.20 136.11,348.70 136.51,349.19 136.91,349.68 137.30,350.17 137.70,350.65 138.10,351.13 138.49,351.60 138.89,352.07 139.29,352.54 139.68,353.00 140.08,353.46 140.48,353.92 140.87,354.37 141.27,354.82 141.67,355.27 142.06,355.71 142.46,356.15 142.86,356.58 143.25,357.01 143.65,357.44 144.04,357.86 144.44,358.28 144.84,358.70 145.23,359.11 145.63,359.52 146.03,359.93 146.42,360.33 146.82,360.73 147.22,361.13 147.61,361.52 148.01,361.92 148.41,362.30 148.80,362.69 149.20,363.07 149.60,363.45 149.99,363.82 150.39,364.19 150.78,364.56 151.18,364.93 151.58,365.29 151.97,365.65 152.37,366.01 152.77,366.36 153.16,366.71 153.56,367.06 153.96,367.41 154.35,367.75 154.75,368.09 155.15,368.43 155.54,368.76 155.94,369.09 156.34,369.42 156.73,369.75 157.13,370.07 157.53,370.39 157.92,370.71 158.32,371.03 158.71,371.34 159.11,371.65 159.51,371.96 159.90,372.27 160.30,372.57 160.70,372.87 161.09,373.17 161.49,373.46 161.89,373.76 162.28,374.05 162.68,374.33 163.08,374.62 163.47,374.90 163.87,375.19 164.27,375.46 164.66,375.74 165.06,376.02 165.45,376.29 165.85,376.56 166.25,376.83 166.64,377.09 167.04,377.35 167.44,377.62 167.83,377.87 168.23,378.13 168.63,378.39 169.02,378.64 169.42,378.89 169.82,379.14 170.21,379.38 170.61,379.63 171.01,379.87 171.40,380.11 171.80,380.35 172.20,380.59 172.59,380.82 172.99,381.05 173.38,381.28 173.78,381.51 174.18,381.74 174.57,381.96 174.97,382.19 175.37,382.41 175.76,382.63 176.16,382.85 176.56,383.06 176.95,383.27 177.35,383.49 177.75,383.70 178.14,383.91 178.54,384.11 178.94,384.32 179.23,384.47 179.53,384.62 179.57,384.51 179.65,384.25 179.81,383.66 180.12,382.25 180.52,380.09 180.92,377.63 181.24,375.97 181.56,374.68 181.60,374.51 181.68,374.20 181.84,373.57 182.15,372.31 182.55,370.76 182.95,369.23 183.34,367.71 183.74,366.21 184.14,364.72 184.53,363.24 184.93,361.78 185.33,360.32 185.72,358.88 186.12,357.45 186.52,356.03 186.91,354.62 187.31,353.22 187.71,351.84 188.10,350.46 188.50,349.10 188.89,347.75 189.29,346.40 189.69,345.07 190.08,343.75 190.48,342.44 190.88,341.14 191.27,339.85 191.67,338.57 192.07,337.29 192.46,336.03 192.86,334.78 193.26,333.54 193.65,332.31 194.05,331.08 194.45,329.87 194.84,328.67 195.24,327.47 195.64,326.28 196.03,325.11 196.43,323.94 196.82,322.78 197.22,321.63 197.62,320.49 198.01,319.36 198.41,318.23 198.81,317.11 199.20,316.01 199.60,314.91 200.00,313.82 200.39,312.73 200.79,311.66 201.19,310.59 201.58,309.53 201.98,308.48 202.38,307.44 202.77,306.40 203.17,305.38 203.56,304.36 203.96,303.34 204.36,302.34 204.75,301.34 205.15,300.35 205.55,299.37 205.94,298.39 206.34,297.42 206.74,296.46 207.13,295.51 207.53,294.56 207.93,293.62 208.32,292.68 208.72,291.76 209.12,290.84 209.51,289.92 209.91,289.02 210.31,288.12 210.70,287.22 211.10,286.34 211.49,285.45 211.89,284.58 212.29,283.71 212.68,282.85 213.08,281.99 213.48,281.14 213.87,280.30 214.27,279.46 214.67,278.63 215.06,277.80 215.46,276.98 215.86,276.17 216.25,275.36 216.65,274.56 217.05,273.76 217.44,272.97 217.84,272.19 218.23,271.41 218.63,270.63 219.03,269.86 219.42,269.10 219.82,268.34 220.22,267.59 220.61,266.84 221.01,266.10 221.41,265.36 221.80,264.63 222.20,263.90 222.60,263.18 222.99,262.46 223.39,261.75 223.79,261.04 224.18,260.34 224.58,259.64 224.98,258.95 225.37,258.26 225.77,257.58 226.16,256.90 226.56,256.23 226.96,255.56 227.35,254.90 227.75,254.24 228.15,253.58 228.54,252.94 228.94,252.29 229.34,251.65 229.73,251.01 230.13,250.38 230.53,249.76 230.92,249.13 231.32,248.52 231.72,247.91 232.11,247.30 232.51,246.70 232.90,246.10 233.30,245.51 233.70,244.92 234.09,244.34 234.49,243.70 234.89,243.09 235.28,242.34 235.68,241.67 236.08,240.89 236.47,240.22 236.87,239.46 237.27,238.81 237.66,238.06 238.06,237.42 238.46,236.68 238.85,236.06 239.25,235.34 239.64,234.73 240.04,234.02 240.44,233.42 240.83,232.73 241.23,232.15 241.63,231.47 242.02,230.89 242.42,230.23 242.82,229.66 243.21,229.01 243.61,228.46 244.01,227.82 244.40,227.27 244.80,226.65 245.20,226.11 245.59,225.50 245.99,224.98 246.39,224.37 246.78,223.86 247.18,223.27 247.57,222.76 247.97,222.18 248.37,221.68 248.76,221.12 249.16,220.63 249.56,220.07 249.95,219.59 250.35,219.04 250.75,218.57 251.14,218.04 251.54,217.57 251.94,217.05 252.33,216.59 252.73,216.07 253.13,215.63 253.52,215.12 253.92,214.68 254.31,214.18 254.71,213.75 255.11,213.26 255.50,212.84 255.90,212.36 256.30,211.94 256.69,211.47 257.09,211.06 257.49,210.60 257.88,210.20 258.28,209.75 258.68,209.35 259.07,208.91 259.47,208.52 259.87,208.08 260.26,207.70 260.66,207.27 261.06,206.90 261.45,206.47 261.85,206.11 262.24,205.69 262.64,205.33 263.04,204.93 263.43,204.57 263.83,204.17 264.23,203.82 264.62,203.43 265.02,203.09 265.42,202.71 265.81,202.37 266.21,201.99 266.61,201.66 267.00,201.29 267.40,200.97 267.80,200.60 268.19,200.28 268.59,199.93 268.98,199.61 269.38,199.26 269.78,198.96 270.17,198.61 270.57,198.31 270.97,197.97 271.36,197.67 271.76,197.34 272.16,197.05 272.55,196.73 272.95,196.44 273.35,196.12 273.74,195.84 274.14,195.52 274.54,195.25 274.93,194.94 275.33,194.67 275.73,194.36 276.12,194.10 276.52,193.80 276.91,193.54 277.31,193.25 277.71,192.99 278.10,192.70 278.50,192.45 278.75,192.27 279.00,192.11 279.04,192.08 279.12,192.03 279.28,191.92 279.59,191.94 279.96,192.88 280.36,194.95 280.69,196.95 281.03,199.76 281.07,199.88 281.15,200.23 281.31,200.95 281.62,202.44 282.02,204.47 282.42,206.50 282.81,208.41 283.21,210.22 283.61,212.00 284.00,213.73 284.40,215.44 284.80,217.13 285.19,218.80 285.59,220.45 285.99,222.09 286.38,223.70 286.78,225.31 287.18,226.90 287.57,228.47 287.97,230.03 288.36,231.58 288.76,233.11 289.16,234.63 289.55,236.13 289.95,237.63 290.35,239.11 290.74,240.57 291.14,242.03 291.54,243.47 291.93,244.90 292.33,246.32 292.73,247.72 293.12,249.11 293.52,250.49 293.92,251.86 294.31,253.22 294.71,254.56 295.11,255.89 295.50,257.22 295.90,258.53 296.29,259.83 296.69,261.11 297.09,262.39 297.48,263.65 297.88,264.91 298.28,266.15 298.67,267.38 299.07,268.60 299.47,269.81 299.86,271.01 300.26,272.20 300.66,273.38 301.05,274.55 301.45,275.70 301.85,276.85 302.24,277.98 302.64,279.11 303.03,280.23 303.43,281.33 303.83,282.43 304.22,283.51 304.62,284.59 305.02,285.65 305.41,286.71 305.81,287.75 306.21,288.79 306.60,289.82 307.00,290.83 307.40,291.84 307.79,292.84 308.19,293.83 308.59,294.80 308.98,295.78 309.38,296.74 309.78,297.69 310.17,298.63 310.57,299.56 310.96,300.49 311.36,301.40 311.76,302.31 312.15,303.21 312.55,304.09 312.95,304.97 313.34,305.85 313.74,306.71 314.14,307.56 314.53,308.41 314.93,309.25 315.33,310.08 315.72,310.90 316.12,311.72 316.52,312.52 316.91,313.32 317.31,314.11 317.70,314.90 318.10,315.67 318.50,316.44 318.89,317.20 319.29,317.96 319.69,318.71 320.08,319.45 320.48,320.18 320.88,320.91 321.27,321.63 321.67,322.35 322.07,323.06 322.46,323.76 322.86,324.45 323.26,325.15 323.65,325.83 324.05,326.51 324.45,327.18 324.84,327.85 325.24,328.51 325.63,329.17 326.03,329.82 326.43,330.46 326.82,331.10 327.22,331.74 327.62,332.36 328.01,332.99 328.41,333.61 328.81,334.22 329.20,334.83 329.60,335.44 330.00,336.03 330.39,336.63 330.79,337.22 331.19,337.80 331.58,338.38 331.98,338.96 332.37,339.53 332.77,340.10 333.17,340.66 333.56,341.22 333.96,341.77 334.36,342.32 334.75,342.86 335.15,343.40 335.55,343.94 335.94,344.47 336.34,345.00 336.74,345.52 337.13,346.04 337.53,346.55 337.93,347.06 338.32,347.57 338.72,348.07 339.11,348.57 339.51,349.06 339.91,349.55 340.30,350.04 340.70,350.52 341.10,351.00 341.49,351.47 341.89,351.94 342.29,352.41 342.68,352.87 343.08,353.33 343.48,353.79 343.87,354.24 344.27,354.69 344.67,355.13 345.06,355.57 345.46,356.01 345.86,356.45 346.25,356.88 346.65,357.30 347.04,357.73 347.44,358.15 347.84,358.56 348.23,358.98 348.63,359.39 349.03,359.79 349.42,360.20 349.82,360.60 350.22,360.99 350.61,361.39 351.01,361.78 351.41,362.16 351.80,362.55 352.20,362.93 352.60,363.31 352.99,363.68 353.39,364.05 353.78,364.42 354.18,364.79 354.58,365.15 354.97,365.51 355.37,365.87 355.77,366.22 356.16,366.57 356.56,366.92 356.96,367.27 357.35,367.61 357.75,367.95 358.15,368.29 358.54,368.62 358.94,368.95 359.34,369.28 359.73,369.61 360.13,369.93 360.53,370.25 360.92,370.57 361.32,370.88 361.71,371.20 362.11,371.51 362.51,371.82 362.90,372.12 363.30,372.42 363.70,372.72 364.09,373.02 364.49,373.32 364.89,373.61 365.28,373.90 365.68,374.19 366.08,374.48 366.47,374.76 366.87,375.04 367.27,375.32 367.66,375.60 368.06,375.87 368.45,376.14 368.85,376.41 369.25,376.68 369.64,376.94 370.04,377.21 370.44,377.47 370.83,377.73 371.23,377.98 371.63,378.24 372.02,378.49 372.42,378.74 372.82,378.99 373.21,379.24 373.61,379.48 374.01,379.72 374.40,379.96 374.80,380.20 375.20,380.44 375.59,380.67 375.99,380.90 376.38,381.13 376.78,381.36 377.18,381.59 377.57,381.81 377.97,382.04 378.37,382.26 378.76,382.48 379.16,382.69 379.56,382.91 379.95,383.12 380.35,383.34 380.75,383.55 381.14,383.76 381.54,383.96 381.94,384.17 382.23,384.32 382.53,384.47 382.57,384.36 382.65,384.09 382.81,383.50 383.12,382.10 383.52,379.94 383.92,377.48 384.24,375.82 384.56,374.53 384.60,374.37 384.68,374.05 384.84,373.42 385.15,372.17 385.55,370.62 385.95,369.09 386.34,367.57 386.74,366.07 387.14,364.58 387.53,363.10 387.93,361.64 388.33,360.19 388.72,358.74 389.12,357.31 389.52,355.90 389.91,354.49 390.31,353.09 390.71,351.71 391.10,350.33 391.50,348.97 391.89,347.62 392.29,346.28 392.69,344.95 393.08,343.63 393.48,342.31 393.88,341.01 394.27,339.72 394.67,338.44 395.07,337.17 395.46,335.91 395.86,334.66 396.26,333.42 396.65,332.19 397.05,330.97 397.45,329.75 397.84,328.55 398.24,327.36 398.64,326.17 399.03,324.99 399.43,323.83 399.82,322.67 400.22,321.52 400.62,320.38 401.01,319.25 401.41,318.12 401.81,317.01 402.20,315.90 402.60,314.80 403.00,313.71 403.39,312.63 403.79,311.55 404.19,310.49 404.58,309.43 404.98,308.38 405.38,307.34 405.77,306.30 406.17,305.28 406.56,304.26 406.96,303.24 407.36,302.24 407.75,301.24 408.15,300.25 408.55,299.27 408.94,298.30 409.34,297.33 409.74,296.37 410.13,295.41 410.53,294.47 410.93,293.53 411.32,292.59 411.72,291.67 412.12,290.75 412.51,289.83 412.91,288.93 413.31,288.03 413.70,287.13 414.10,286.25 414.49,285.37 414.89,284.49 415.29,283.62 415.68,282.76 416.08,281.91 416.48,281.06 416.87,280.22 417.27,279.38 417.67,278.55 418.06,277.72 418.46,276.90 418.86,276.09 419.25,275.28 419.65,274.48 420.05,273.68 420.44,272.89 420.84,272.11 421.23,271.33 421.63,270.55 422.03,269.78 422.42,269.02 422.82,268.26 423.22,267.51 423.61,266.76 424.01,266.02 424.41,265.28 424.80,264.55 425.20,263.83 425.60,263.10 425.99,262.39 426.39,261.68 426.79,260.97 427.18,260.27 427.58,259.57 427.98,258.88 428.37,258.19 428.77,257.51 429.16,256.83 429.56,256.16 429.96,255.49 430.35,254.83 430.75,254.17 431.15,253.52 431.54,252.87 431.94,252.22 432.34,251.58 432.73,250.95 433.13,250.32 433.53,249.69 433.92,249.07 434.32,248.45 434.72,247.84 435.11,247.23 435.51,246.63 435.90,246.04 436.30,245.44 436.70,244.86 437.09,244.28 437.49,243.64 437.89,243.03 438.28,242.28 438.68,241.61 439.08,240.83 439.47,240.16 439.87,239.40 440.27,238.75 440.66,238.00 441.06,237.36 441.46,236.62 441.85,236.00 442.25,235.28 442.64,234.67 443.04,233.97 443.44,233.37 443.83,232.68 444.23,232.09 444.63,231.41 445.02,230.84 445.42,230.17 445.82,229.61 446.21,228.96 446.61,228.40 447.01,227.77 447.40,227.22 447.80,226.60 448.20,226.06 448.59,225.45 448.99,224.93 449.39,224.32 449.78,223.81 450.18,223.22 450.57,222.71 450.97,222.13 451.37,221.64 451.76,221.07 452.16,220.58 452.56,220.02 452.95,219.54 453.35,219.00 453.75,218.53 454.14,217.99 454.54,217.53 454.94,217.00 455.33,216.55 455.73,216.03 456.13,215.58 456.52,215.07 456.92,214.64 457.31,214.14 457.71,213.71 458.11,213.22 458.50,212.80 458.90,212.32 459.30,211.90 459.69,211.43 460.09,211.02 460.49,210.56 460.88,210.16 461.28,209.70 461.68,209.31 462.07,208.86 462.47,208.48 462.87,208.04 463.26,207.66 463.66,207.23 464.06,206.86 464.45,206.44 464.85,206.07 465.24,205.65 465.64,205.29 466.04,204.89 466.43,204.53 466.83,204.13 467.23,203.79 467.62,203.40 468.02,203.05 468.42,202.67 468.81,202.33 469.21,201.96 469.61,201.63 470.00,201.26 470.40,200.93 470.80,200.57 471.19,200.25 471.59,199.89 471.98,199.58 472.38,199.23 472.78,198.92 473.17,198.58 473.57,198.28 473.97,197.94 474.36,197.64 474.76,197.31 475.16,197.02 475.55,196.69 475.95,196.41 476.35,196.09 476.74,195.80 477.14,195.49 477.54,195.21 477.93,194.91 478.33,194.64 478.73,194.33 479.12,194.07 479.52,193.77 479.91,193.51 480.31,193.22 480.71,192.96 481.10,192.67 481.50,192.42 481.75,192.24 482.00,192.08 482.04,192.05 482.12,192.00 482.28,191.89 482.59,191.91 482.96,192.84 483.36,194.91 483.69,196.91 484.03,199.72 484.07,199.85 484.15,200.19 484.31,200.91 484.62,202.40 485.02,204.43 485.42,206.46 485.81,208.37 486.21,210.18 486.61,211.95 487.00,213.68 487.40,215.39 487.80,217.08 488.19,218.75 488.59,220.40 488.99,222.03 489.38,223.65 489.78,225.26 490.18,226.84 490.57,228.42 490.97,229.97 491.36,231.52 491.76,233.05 492.16,234.57 492.55,236.07 492.95,237.57 493.35,239.04 493.74,240.51 494.14,241.96 494.54,243.40 494.93,244.83 495.33,246.25 495.73,247.65 496.12,249.04 496.52,250.42 496.92,251.79 497.31,253.15 497.71,254.49 498.11,255.82 498.50,257.14 498.90,258.45 499.29,259.75 499.69,261.04 500.09,262.31 500.48,263.58 500.88,264.83 501.28,266.07 501.67,267.30 502.07,268.52 502.47,269.73 502.86,270.93 503.26,272.12 503.66,273.29 504.05,274.46 504.45,275.62 504.85,276.76 505.24,277.90 505.64,279.02 506.03,280.14 506.43,281.24 506.83,282.34 507.22,283.42 507.62,284.50 508.02,285.56 508.41,286.62 508.81,287.66 509.21,288.70 509.60,289.72 510.00,290.74 510.40,291.75 510.79,292.74 511.19,293.73 511.59,294.71 511.98,295.68 512.38,296.64 512.78,297.59 513.17,298.53 513.57,299.46 513.96,300.39 514.36,301.30 514.76,302.21 515.15,303.10 515.55,303.99 515.95,304.87 516.34,305.74 516.74,306.61 517.14,307.46 517.53,308.31 517.93,309.14 518.33,309.97 518.72,310.80 519.12,311.61 519.52,312.42 519.91,313.21 520.31,314.00 520.70,314.79 521.10,315.56 521.50,316.33 521.89,317.09 522.29,317.85 522.69,318.60 523.08,319.34 523.48,320.07 523.88,320.80 524.27,321.52 524.67,322.24 525.07,322.94 525.46,323.65 525.86,324.34 526.26,325.03 526.65,325.72 527.05,326.39 527.45,327.07 527.84,327.73 528.24,328.39 528.63,329.05 529.03,329.70 529.43,330.34 529.82,330.98 530.22,331.62 530.62,332.25 531.01,332.87 531.41,333.49 531.81,334.10 532.20,334.71 532.60,335.32 533.00,335.91 533.39,336.51 533.79,337.10 534.19,337.68 534.58,338.26 534.98,338.84 535.37,339.41 535.77,339.98 536.17,340.54 536.56,341.09 536.96,341.65 537.36,342.19 537.75,342.74 538.15,343.28 538.55,343.81 538.94,344.34 539.34,344.87 539.74,345.39 540.13,345.91 540.53,346.42 540.93,346.93 541.32,347.44 541.72,347.94 542.11,348.44 542.51,348.93 542.91,349.42 543.30,349.91 543.70,350.39 544.10,350.87 544.49,351.34 544.89,351.81 545.29,352.28 545.68,352.74 546.08,353.20 546.48,353.66 546.87,354.11 547.27,354.55 547.67,355.00 548.06,355.44 548.46,355.88 548.86,356.31 549.25,356.74 549.65,357.17 550.04,357.59 550.44,358.01 550.84,358.43 551.23,358.84 551.63,359.25 552.03,359.66 552.42,360.06 552.82,360.46 553.22,360.86 553.61,361.25 554.01,361.64 554.41,362.03 554.80,362.41 555.20,362.79 555.60,363.17 555.99,363.54 556.39,363.92 556.78,364.28 557.18,364.65 557.58,365.01 557.97,365.37 558.37,365.73 558.77,366.08 559.16,366.43 559.56,366.78 559.96,367.13 560.35,367.47 560.75,367.81 561.15,368.14 561.54,368.48 561.94,368.81 562.34,369.14 562.73,369.46 563.13,369.79 563.53,370.11 563.92,370.43 564.32,370.74 564.71,371.05 565.11,371.36 565.51,371.67 565.90,371.98 566.30,372.28 566.70,372.58 567.09,372.88 567.49,373.17 567.89,373.47 568.28,373.76 568.68,374.04 569.08,374.33 569.47,374.61 569.87,374.89 570.27,375.17 570.66,375.45 571.06,375.72 571.45,376.00 571.85,376.26 572.25,376.53 572.64,376.80 573.04,377.06 573.44,377.32 573.83,377.58 574.23,377.84 574.63,378.09 575.02,378.34 575.42,378.59 575.82,378.84 576.21,379.09 576.61,379.33 577.01,379.57 577.40,379.81 577.80,380.05 578.20,380.29 578.59,380.52 578.99,380.75 579.38,380.99 579.78,381.21 580.18,381.44 580.57,381.66 580.97,381.89 581.37,382.11 581.76,382.33 582.16,382.54 582.56,382.76 582.95,382.97 583.35,383.19 583.75,383.40 584.14,383.60 584.54,383.81 584.94,384.02 585.23,384.17 585.53,384.32 585.57,384.21 585.65,383.94 585.81,383.35 586.12,381.95 586.52,379.79 586.92,377.33 587.24,375.67 587.56,374.38 587.60,374.22 587.68,373.90 587.84,373.27 588.15,372.02 588.55,370.47 588.95,368.95 589.34,367.43 589.74,365.93 590.14,364.44 590.53,362.97 590.93,361.50 591.33,360.05 591.72,358.61 592.12,357.18 592.52,355.76 592.91,354.36 593.31,352.96 593.71,351.58 594.10,350.20 594.50,348.84 594.89,347.49 595.29,346.15 595.69,344.82 596.08,343.50 596.48,342.19 596.88,340.89 597.27,339.60 597.67,338.32 598.07,337.05 598.46,335.79 598.86,334.54 599.26,333.30 599.65,332.07 600.05,330.85 600.45,329.64 600.84,328.44 601.24,327.24 601.64,326.06 602.03,324.88 602.43,323.72 602.82,322.56 603.22,321.41 603.62,320.27 604.01,319.14 604.41,318.01 604.81,316.90 605.20,315.79 605.60,314.70 606.00,313.61 606.39,312.52 606.79,311.45 607.19,310.39 607.58,309.33 607.98,308.28 608.38,307.24 608.77,306.20 609.17,305.18 609.56,304.16 609.96,303.15 610.36,302.14 610.75,301.15 611.15,300.16 611.55,299.18 611.94,298.20 612.34,297.23 612.74,296.27 613.13,295.32 613.53,294.37 613.93,293.43 614.32,292.50 614.72,291.58 615.12,290.66 615.51,289.74 615.91,288.84 616.31,287.94 616.70,287.05 617.10,286.16 617.49,285.28 617.89,284.41 618.29,283.54 618.68,282.68 619.08,281.82 619.48,280.97 619.87,280.13 620.27,279.29 620.67,278.46 621.06,277.64 621.46,276.82 621.86,276.01 622.25,275.20 622.65,274.40 623.05,273.60 623.44,272.81 623.84,272.03 624.23,271.25 624.63,270.47 625.03,269.71 625.42,268.94 625.82,268.19 626.22,267.43 626.61,266.69 627.01,265.95 627.41,265.21 627.80,264.48 628.20,263.75 628.60,263.03 628.99,262.32 629.39,261.60 629.79,260.90 630.18,260.20 630.58,259.50 630.98,258.81 631.37,258.12 631.77,257.44 632.16,256.76 632.56,256.09 632.96,255.42 633.35,254.76 633.75,254.10 634.15,253.45 634.54,252.80 634.94,252.16 635.34,251.52 635.73,250.88 636.13,250.25 636.53,249.63 636.92,249.00 637.32,248.39 637.72,247.78 638.11,247.17 638.51,246.57 638.90,245.97 639.30,245.38 639.70,244.80 640.09,244.22 640.49,243.58 640.89,242.97 641.28,242.22 641.68,241.55 642.08,240.76 642.47,240.10 642.87,239.34 643.27,238.69 643.66,237.94 644.06,237.30 644.46,236.57 644.85,235.94 645.25,235.22 645.64,234.61 646.04,233.91 646.44,233.31 646.83,232.62 647.23,232.04 647.63,231.36 648.02,230.78 648.42,230.12 648.82,229.56 649.21,228.91 649.61,228.35 650.01,227.71 650.40,227.17 650.80,226.55 651.20,226.01 651.59,225.40 651.99,224.88 652.39,224.27 652.78,223.76 653.18,223.17 653.57,222.66 653.97,222.08 654.37,221.59 654.76,221.02 655.16,220.53 655.56,219.98 655.95,219.50 656.35,218.95 656.75,218.48 657.14,217.94 657.54,217.48 657.94,216.95 658.33,216.50 658.73,215.98 659.13,215.54 659.52,215.03 659.92,214.59 660.31,214.09 660.71,213.67 661.11,213.18 661.50,212.75 661.90,212.27 662.30,211.86 662.69,211.39 663.09,210.98 663.49,210.52 663.88,210.12 664.28,209.66 664.68,209.27 665.07,208.82 665.47,208.44 665.87,208.00 666.26,207.62 666.66,207.19 667.06,206.82 667.45,206.40 667.85,206.03 668.24,205.62 668.64,205.26 669.04,204.85 669.43,204.50 669.83,204.10 670.23,203.75 670.62,203.36 671.02,203.02 671.42,202.63 671.81,202.30 672.21,201.92 672.61,201.59 673.00,201.22 673.40,200.90 673.80,200.53 674.19,200.21 674.59,199.86 674.98,199.54 675.38,199.19 675.78,198.89 676.17,198.54 676.57,198.24 676.97,197.90 677.36,197.61 677.76,197.28 678.16,196.98 678.55,196.66 678.95,196.37 679.35,196.05 679.74,195.77 680.14,195.46 680.54,195.18 680.93,194.88 681.33,194.60 681.73,194.30 682.12,194.04 682.52,193.74 682.91,193.48 683.31,193.19 683.71,192.93 684.10,192.64 684.50,192.39 684.75,192.21 685.00,192.06 685.04,192.02 685.12,191.97 685.28,191.86 685.59,191.88 685.96,192.81 686.36,194.88 686.69,196.88 687.03,199.69 687.07,199.82 687.15,200.16 687.31,200.88 687.62,202.36 688.02,204.39 688.42,206.42 688.81,208.32 689.21,210.14 689.61,211.91 690.00,213.64 690.40,215.35 690.80,217.03 691.19,218.70 691.59,220.35 691.99,221.98 692.38,223.60 692.78,225.20 693.18,226.79 693.57,228.36 693.97,229.92 694.36,231.46 694.76,232.99 695.16,234.51 695.55,236.01 695.95,237.51 696.35,238.98 696.74,240.45 697.14,241.90 697.54,243.34 697.93,244.77 698.33,246.18 698.73,247.58 699.12,248.98 699.52,250.35 699.92,251.72 700.31,253.08 700.71,254.42 701.11,255.75 701.50,257.07 701.90,258.38 702.29,259.68 702.69,260.96 703.09,262.24 703.48,263.50 703.88,264.75 704.28,265.99 704.67,267.22 705.07,268.44 705.47,269.65 705.86,270.85 706.26,272.04 706.66,273.21 707.05,274.38 707.45,275.53 707.85,276.68 708.24,277.81 708.64,278.94 709.03,280.05 709.43,281.16 709.83,282.25 710.22,283.33 710.62,284.41 711.02,285.47 711.41,286.53 711.81,287.57 712.21,288.60 712.60,289.63 713.00,290.65 713.40,291.65 713.79,292.65 714.19,293.64 714.59,294.61 714.98,295.58 715.38,296.54 715.78,297.49 716.17,298.43 716.57,299.37 716.96,300.29 717.36,301.20 717.76,302.11 718.15,303.00 718.55,303.89 718.95,304.77 719.34,305.64 719.74,306.50 720.14,307.36 720.53,308.20 720.93,309.04 721.33,309.87 721.72,310.69 722.12,311.51 722.52,312.31 722.91,313.11 723.31,313.90 723.70,314.68 724.10,315.46 724.50,316.23 724.89,316.99 725.29,317.74 725.69,318.49 726.08,319.23 726.48,319.96 726.88,320.69 727.27,321.41 727.67,322.12 728.07,322.83 728.46,323.53 728.86,324.23 729.26,324.92 729.65,325.60 730.05,326.28 730.45,326.95 730.84,327.62 731.24,328.28 731.63,328.93 732.03,329.58 732.43,330.23 732.82,330.87 733.22,331.50 733.62,332.13 734.01,332.75 734.41,333.37 734.81,333.98 735.20,334.59 735.60,335.20 736.00,335.79 736.39,336.39 736.79,336.98 737.19,337.56 737.58,338.14 737.98,338.72 738.37,339.29 738.77,339.85 739.17,340.41 739.56,340.97 739.96,341.52 740.36,342.07 740.75,342.61 741.15,343.15 741.55,343.69 741.94,344.22 742.34,344.74 742.74,345.27 743.13,345.78 743.53,346.30 743.93,346.81 744.32,347.31 744.72,347.81 745.11,348.31 745.51,348.80 745.91,349.29 746.30,349.78 746.70,350.26 747.10,350.74 747.49,351.21 747.89,351.68 748.29,352.15 748.68,352.61 749.08,353.07 749.48,353.52 749.87,353.97 750.27,354.42 750.67,354.87 751.06,355.31 751.46,355.74 751.86,356.18 752.25,356.61 752.65,357.03 753.04,357.46 753.44,357.88 753.84,358.29 754.23,358.70 754.63,359.11 755.03,359.52 755.42,359.92 755.82,360.32 756.22,360.72 756.61,361.11 757.01,361.50 757.41,361.89 757.80,362.27 758.20,362.65 758.60,363.03 758.99,363.40 759.39,363.78 759.78,364.14 760.18,364.51 760.58,364.87 760.97,365.23 761.37,365.59 761.77,365.94 762.16,366.29 762.56,366.64 762.96,366.98 763.35,367.33 763.75,367.67 764.15,368.00 764.54,368.34 764.94,368.67 765.34,369.00 765.73,369.32 766.13,369.64 766.53,369.97 766.92,370.28 767.32,370.60 767.71,370.91 768.11,371.22 768.51,371.53 768.90,371.83 769.30,372.14 769.70,372.44 770.09,372.73 770.49,373.03 770.89,373.32 771.28,373.61 771.68,373.90 772.08,374.18 772.47,374.47 772.87,374.75 773.27,375.03 773.66,375.30 774.06,375.58 774.45,375.85 774.85,376.12 775.25,376.39 775.64,376.65 776.04,376.91 776.44,377.17 776.83,377.43 777.23,377.69 777.63,377.94 778.02,378.20 778.42,378.45 778.82,378.69 779.21,378.94 779.61,379.18 780.01,379.43 780.40,379.67 780.80,379.90 781.20,380.14 781.59,380.37 781.99,380.61 782.38,380.84 782.78,381.06 783.18,381.29 783.57,381.52 783.97,381.74 784.37,381.96 784.76,382.18 785.16,382.40 785.56,382.61 785.95,382.82 786.35,383.04 786.75,383.25 787.14,383.45 787.54,383.66 787.94,383.87 788.23,384.02 788.53,384.17 788.57,384.06 788.65,383.79 788.81,383.20 789.12,381.80 789.52,379.64 789.92,377.18 790.24,375.53 790.56,374.24 790.60,374.08 790.68,373.76 790.84,373.13 791.15,371.88 791.55,370.33 791.95,368.80 792.34,367.29 792.74,365.79 793.14,364.30 793.53,362.83 793.93,361.36 794.33,359.91 794.72,358.47 795.12,357.05 795.52,355.63 795.91,354.22 796.31,352.83 796.71,351.45 797.10,350.08 797.50,348.71 797.89,347.36 798.29,346.02 798.69,344.69 799.08,343.38 799.48,342.07 799.88,340.77 800.27,339.48 800.67,338.20 801.07,336.93 801.46,335.67 801.86,334.42 802.26,333.18 802.65,331.95 803.05,330.73 803.45,329.52 803.84,328.32 804.24,327.13 804.64,325.94 805.03,324.77 805.43,323.60 805.82,322.45 806.22,321.30 806.62,320.16 807.01,319.03 807.41,317.91 807.81,316.79 808.20,315.69 808.60,314.59 809.00,313.50 809.39,312.42 809.79,311.35 810.19,310.28 810.58,309.23 810.98,308.18 811.38,307.14 811.77,306.10 812.17,305.08 812.56,304.06 812.96,303.05 813.36,302.04 813.75,301.05 814.15,300.06 814.55,299.08 814.94,298.11 815.34,297.14 815.74,296.18 816.13,295.23 816.53,294.28 816.93,293.34 817.32,292.41 817.72,291.48 818.12,290.57 818.51,289.65 818.91,288.75 819.31,287.85 819.70,286.96 820.10,286.07 820.49,285.19 820.89,284.32 821.29,283.45 821.68,282.59 822.08,281.74 822.48,280.89 822.87,280.05 823.27,279.21 823.67,278.38 824.06,277.56 824.46,276.74 824.86,275.93 825.25,275.12 825.65,274.32 826.05,273.52 826.44,272.73 826.84,271.95 827.23,271.17 827.63,270.40 828.03,269.63 828.42,268.87 828.82,268.11 829.22,267.36 829.61,266.61 830.01,265.87 830.41,265.13 830.80,264.40 831.20,263.68 831.60,262.96 831.99,262.24 832.39,261.53 832.79,260.83 833.18,260.13 833.58,259.43 833.98,258.74 834.37,258.05 834.77,257.37 835.16,256.69 835.56,256.02 835.96,255.36 836.35,254.69 836.75,254.04 837.15,253.38 837.54,252.73 837.94,252.09 838.34,251.45 838.73,250.82 839.13,250.19 839.53,249.56 839.92,248.94 840.32,248.32 840.72,247.71 841.11,247.11 841.51,246.51 841.90,245.91 842.30,245.32 842.70,244.73 843.09,244.15 843.49,243.52 843.89,242.91 844.28,242.16 844.68,241.48 845.08,240.70 845.47,240.04 845.87,239.28 846.27,238.63 846.66,237.88 847.06,237.24 847.46,236.51 847.85,235.88 848.25,235.17 848.64,234.56 849.04,233.85 849.44,233.25 849.83,232.57 850.23,231.98 850.63,231.31 851.02,230.73 851.42,230.07 851.82,229.50 852.21,228.85 852.61,228.30 853.01,227.66 853.40,227.12 853.80,226.50 854.20,225.96 854.59,225.35 854.99,224.82 855.39,224.22 855.78,223.71 856.18,223.12 856.57,222.61 856.97,222.04 857.37,221.54 857.76,220.97 858.16,220.48 858.56,219.93 858.95,219.45 859.35,218.90 859.75,218.43 860.14,217.90 860.54,217.44 860.94,216.91 861.33,216.46 861.73,215.94 862.13,215.49 862.52,214.99 862.92,214.55 863.31,214.05 863.71,213.62 864.11,213.13 864.50,212.71 864.90,212.23 865.30,211.82 865.69,211.35 866.09,210.94 866.49,210.48 866.88,210.08 867.28,209.62 867.68,209.23 868.07,208.78 868.47,208.40 868.87,207.96 869.26,207.58 869.66,207.15 870.06,206.78 870.45,206.36 870.85,205.99 871.24,205.58 871.64,205.22 872.04,204.81 872.43,204.46 872.83,204.06 873.23,203.71 873.62,203.32 874.02,202.98 874.42,202.60 874.81,202.26 875.21,201.88 875.61,201.55 876.00,201.19 876.40,200.86 876.80,200.50 877.19,200.18 877.59,199.82 877.98,199.51 878.38,199.16 878.78,198.85 879.17,198.51 879.57,198.21 879.97,197.87 880.36,197.57 880.76,197.24 881.16,196.95 881.55,196.63 881.95,196.34 882.35,196.02 882.74,195.74 883.14,195.43 883.54,195.15 883.93,194.84 884.33,194.57 884.73,194.27 885.12,194.00 885.52,193.71 885.91,193.45 886.31,193.16 886.71,192.90 887.10,192.61 887.50,192.36 887.75,192.18" fill="none" stroke="#1665d8" stroke-width="3" stroke-linejoin="round"/>
<polyline points="76.00,357.00 76.04,353.13 76.12,345.40 76.28,329.93 76.59,298.99 76.96,263.14 77.36,224.47 77.69,191.73 78.03,159.00 78.07,159.00 78.15,159.00 78.31,159.00 78.62,159.00 79.02,159.00 79.42,159.00 79.81,159.00 80.21,159.00 80.61,159.00 81.00,159.00 81.40,159.00 81.80,159.00 82.19,159.00 82.59,159.00 82.99,159.00 83.38,159.00 83.78,159.00 84.18,159.00 84.57,159.00 84.97,159.00 85.36,159.00 85.76,159.00 86.16,159.00 86.55,159.00 86.95,159.00 87.35,159.00 87.74,159.00 88.14,159.00 88.54,159.00 88.93,159.00 89.33,159.00 89.73,159.00 90.12,159.00 90.52,159.00 90.92,159.00 91.31,159.00 91.71,159.00 92.11,159.00 92.50,159.00 92.90,159.00 93.29,159.00 93.69,159.00 94.09,159.00 94.48,159.00 94.88,159.00 95.28,159.00 95.67,159.00 96.07,159.00 96.47,159.00 96.86,159.00 97.26,159.00 97.66,159.00 98.05,159.00 98.45,159.00 98.85,159.00 99.24,159.00 99.64,159.00 100.03,159.00 100.43,159.00 100.83,159.00 101.22,159.00 101.62,159.00 102.02,159.00 102.41,159.00 102.81,159.00 103.21,159.00 103.60,159.00 104.00,159.00 104.40,159.00 104.79,159.00 105.19,159.00 105.59,159.00 105.98,159.00 106.38,159.00 106.78,159.00 107.17,159.00 107.57,159.00 107.96,159.00 108.36,159.00 108.76,159.00 109.15,159.00 109.55,159.00 109.95,159.00 110.34,159.00 110.74,159.00 111.14,159.00 111.53,159.00 111.93,159.00 112.33,159.00 112.72,159.00 113.12,159.00 113.52,159.00 113.91,159.00 114.31,159.00 114.70,159.00 115.10,159.00 115.50,159.00 115.89,159.00 116.29,159.00 116.69,159.00 117.08,159.00 117.48,159.00 117.88,159.00 118.27,159.00 118.67,159.00 119.07,159.00 119.46,159.00 119.86,159.00 120.26,159.00 120.65,159.00 121.05,159.00 121.45,159.00 121.84,159.00 122.24,159.00 122.63,159.00 123.03,159.00 123.43,159.00 123.82,159.00 124.22,159.00 124.62,159.00 125.01,159.00 125.41,159.00 125.81,159.00 126.20,159.00 126.60,159.00 127.00,159.00 127.39,159.00 127.79,159.00 128.19,159.00 128.58,159.00 128.98,159.00 129.37,159.00 129.77,159.00 130.17,159.00 130.56,159.00 130.96,159.00 131.36,159.00 131.75,159.00 132.15,159.00 132.55,159.00 132.94,159.00 133.34,159.00 133.74,159.00 134.13,159.00 134.53,159.00 134.93,159.00 135.32,159.00 135.72,159.00 136.11,159.00 136.51,159.00 136.91,159.00 137.30,159.00 137.70,159.00 138.10,159.00 138.49,159.00 138.89,159.00 139.29,159.00 139.68,159.00 140.08,159.00 140.48,159.00 140.87,159.00 141.27,159.00 141.67,159.00 142.06,159.00 142.46,159.00 142.86,159.00 143.25,159.00 143.65,159.00 144.04,159.00 144.44,159.00 144.84,159.00 145.23,159.00 145.63,159.00 146.03,159.00 146.42,159.00 146.82,159.00 147.22,159.00 147.61,159.00 148.01,159.00 148.41,159.00 148.80,159.00 149.20,159.00 149.60,159.00 149.99,159.00 150.39,159.00 150.78,159.00 151.18,159.00 151.58,159.00 151.97,159.00 152.37,159.00 152.77,159.00 153.16,159.00 153.56,159.00 153.96,159.00 154.35,159.00 154.75,159.00 155.15,159.00 155.54,159.00 155.94,159.00 156.34,159.00 156.73,159.00 157.13,159.00 157.53,159.00 157.92,159.00 158.32,159.00 158.71,159.00 159.11,159.00 159.51,159.00 159.90,159.00 160.30,159.00 160.70,159.00 161.09,159.00 161.49,159.00 161.89,159.00 162.28,159.00 162.68,159.00 163.08,159.00 163.47,159.00 163.87,159.00 164.27,159.00 164.66,159.00 165.06,159.00 165.45,159.00 165.85,159.00 166.25,159.00 166.64,159.00 167.04,159.00 167.44,159.00 167.83,159.00 168.23,159.00 168.63,159.00 169.02,159.00 169.42,159.00 169.82,159.00 170.21,159.00 170.61,159.00 171.01,159.00 171.40,159.00 171.80,159.00 172.20,159.00 172.59,159.00 172.99,159.00 173.38,159.00 173.78,159.00 174.18,159.00 174.57,159.00 174.97,159.00 175.37,159.00 175.76,159.00 176.16,159.00 176.56,159.00 176.95,159.00 177.35,159.00 177.75,159.00 178.14,159.00 178.54,159.00 178.94,159.00 179.23,159.00 179.53,159.00 179.57,162.87 179.65,170.60 179.81,186.07 180.12,217.01 180.52,255.68 180.92,294.35 181.24,325.68 181.56,357.00 181.60,357.00 181.68,357.00 181.84,357.00 182.15,357.00 182.55,357.00 182.95,357.00 183.34,357.00 183.74,357.00 184.14,357.00 184.53,357.00 184.93,357.00 185.33,357.00 185.72,357.00 186.12,357.00 186.52,357.00 186.91,357.00 187.31,357.00 187.71,357.00 188.10,357.00 188.50,357.00 188.89,357.00 189.29,357.00 189.69,357.00 190.08,357.00 190.48,357.00 190.88,357.00 191.27,357.00 191.67,357.00 192.07,357.00 192.46,357.00 192.86,357.00 193.26,357.00 193.65,357.00 194.05,357.00 194.45,357.00 194.84,357.00 195.24,357.00 195.64,357.00 196.03,357.00 196.43,357.00 196.82,357.00 197.22,357.00 197.62,357.00 198.01,357.00 198.41,357.00 198.81,357.00 199.20,357.00 199.60,357.00 200.00,357.00 200.39,357.00 200.79,357.00 201.19,357.00 201.58,357.00 201.98,357.00 202.38,357.00 202.77,357.00 203.17,357.00 203.56,357.00 203.96,357.00 204.36,357.00 204.75,357.00 205.15,357.00 205.55,357.00 205.94,357.00 206.34,357.00 206.74,357.00 207.13,357.00 207.53,357.00 207.93,357.00 208.32,357.00 208.72,357.00 209.12,357.00 209.51,357.00 209.91,357.00 210.31,357.00 210.70,357.00 211.10,357.00 211.49,357.00 211.89,357.00 212.29,357.00 212.68,357.00 213.08,357.00 213.48,357.00 213.87,357.00 214.27,357.00 214.67,357.00 215.06,357.00 215.46,357.00 215.86,357.00 216.25,357.00 216.65,357.00 217.05,357.00 217.44,357.00 217.84,357.00 218.23,357.00 218.63,357.00 219.03,357.00 219.42,357.00 219.82,357.00 220.22,357.00 220.61,357.00 221.01,357.00 221.41,357.00 221.80,357.00 222.20,357.00 222.60,357.00 222.99,357.00 223.39,357.00 223.79,357.00 224.18,357.00 224.58,357.00 224.98,357.00 225.37,357.00 225.77,357.00 226.16,357.00 226.56,357.00 226.96,357.00 227.35,357.00 227.75,357.00 228.15,357.00 228.54,357.00 228.94,357.00 229.34,357.00 229.73,357.00 230.13,357.00 230.53,357.00 230.92,357.00 231.32,357.00 231.72,357.00 232.11,357.00 232.51,357.00 232.90,357.00 233.30,357.00 233.70,357.00 234.09,357.00 234.49,357.00 234.89,357.00 235.28,357.00 235.68,357.00 236.08,357.00 236.47,357.00 236.87,357.00 237.27,357.00 237.66,357.00 238.06,357.00 238.46,357.00 238.85,357.00 239.25,357.00 239.64,357.00 240.04,357.00 240.44,357.00 240.83,357.00 241.23,357.00 241.63,357.00 242.02,357.00 242.42,357.00 242.82,357.00 243.21,357.00 243.61,357.00 244.01,357.00 244.40,357.00 244.80,357.00 245.20,357.00 245.59,357.00 245.99,357.00 246.39,357.00 246.78,357.00 247.18,357.00 247.57,357.00 247.97,357.00 248.37,357.00 248.76,357.00 249.16,357.00 249.56,357.00 249.95,357.00 250.35,357.00 250.75,357.00 251.14,357.00 251.54,357.00 251.94,357.00 252.33,357.00 252.73,357.00 253.13,357.00 253.52,357.00 253.92,357.00 254.31,357.00 254.71,357.00 255.11,357.00 255.50,357.00 255.90,357.00 256.30,357.00 256.69,357.00 257.09,357.00 257.49,357.00 257.88,357.00 258.28,357.00 258.68,357.00 259.07,357.00 259.47,357.00 259.87,357.00 260.26,357.00 260.66,357.00 261.06,357.00 261.45,357.00 261.85,357.00 262.24,357.00 262.64,357.00 263.04,357.00 263.43,357.00 263.83,357.00 264.23,357.00 264.62,357.00 265.02,357.00 265.42,357.00 265.81,357.00 266.21,357.00 266.61,357.00 267.00,357.00 267.40,357.00 267.80,357.00 268.19,357.00 268.59,357.00 268.98,357.00 269.38,357.00 269.78,357.00 270.17,357.00 270.57,357.00 270.97,357.00 271.36,357.00 271.76,357.00 272.16,357.00 272.55,357.00 272.95,357.00 273.35,357.00 273.74,357.00 274.14,357.00 274.54,357.00 274.93,357.00 275.33,357.00 275.73,357.00 276.12,357.00 276.52,357.00 276.91,357.00 277.31,357.00 277.71,357.00 278.10,357.00 278.50,357.00 278.75,357.00 279.00,357.00 279.04,353.13 279.12,345.40 279.28,329.93 279.59,298.99 279.96,263.14 280.36,224.47 280.69,191.74 281.03,159.00 281.07,159.00 281.15,159.00 281.31,159.00 281.62,159.00 282.02,159.00 282.42,159.00 282.81,159.00 283.21,159.00 283.61,159.00 284.00,159.00 284.40,159.00 284.80,159.00 285.19,159.00 285.59,159.00 285.99,159.00 286.38,159.00 286.78,159.00 287.18,159.00 287.57,159.00 287.97,159.00 288.36,159.00 288.76,159.00 289.16,159.00 289.55,159.00 289.95,159.00 290.35,159.00 290.74,159.00 291.14,159.00 291.54,159.00 291.93,159.00 292.33,159.00 292.73,159.00 293.12,159.00 293.52,159.00 293.92,159.00 294.31,159.00 294.71,159.00 295.11,159.00 295.50,159.00 295.90,159.00 296.29,159.00 296.69,159.00 297.09,159.00 297.48,159.00 297.88,159.00 298.28,159.00 298.67,159.00 299.07,159.00 299.47,159.00 299.86,159.00 300.26,159.00 300.66,159.00 301.05,159.00 301.45,159.00 301.85,159.00 302.24,159.00 302.64,159.00 303.03,159.00 303.43,159.00 303.83,159.00 304.22,159.00 304.62,159.00 305.02,159.00 305.41,159.00 305.81,159.00 306.21,159.00 306.60,159.00 307.00,159.00 307.40,159.00 307.79,159.00 308.19,159.00 308.59,159.00 308.98,159.00 309.38,159.00 309.78,159.00 310.17,159.00 310.57,159.00 310.96,159.00 311.36,159.00 311.76,159.00 312.15,159.00 312.55,159.00 312.95,159.00 313.34,159.00 313.74,159.00 314.14,159.00 314.53,159.00 314.93,159.00 315.33,159.00 315.72,159.00 316.12,159.00 316.52,159.00 316.91,159.00 317.31,159.00 317.70,159.00 318.10,159.00 318.50,159.00 318.89,159.00 319.29,159.00 319.69,159.00 320.08,159.00 320.48,159.00 320.88,159.00 321.27,159.00 321.67,159.00 322.07,159.00 322.46,159.00 322.86,159.00 323.26,159.00 323.65,159.00 324.05,159.00 324.45,159.00 324.84,159.00 325.24,159.00 325.63,159.00 326.03,159.00 326.43,159.00 326.82,159.00 327.22,159.00 327.62,159.00 328.01,159.00 328.41,159.00 328.81,159.00 329.20,159.00 329.60,159.00 330.00,159.00 330.39,159.00 330.79,159.00 331.19,159.00 331.58,159.00 331.98,159.00 332.37,159.00 332.77,159.00 333.17,159.00 333.56,159.00 333.96,159.00 334.36,159.00 334.75,159.00 335.15,159.00 335.55,159.00 335.94,159.00 336.34,159.00 336.74,159.00 337.13,159.00 337.53,159.00 337.93,159.00 338.32,159.00 338.72,159.00 339.11,159.00 339.51,159.00 339.91,159.00 340.30,159.00 340.70,159.00 341.10,159.00 341.49,159.00 341.89,159.00 342.29,159.00 342.68,159.00 343.08,159.00 343.48,159.00 343.87,159.00 344.27,159.00 344.67,159.00 345.06,159.00 345.46,159.00 345.86,159.00 346.25,159.00 346.65,159.00 347.04,159.00 347.44,159.00 347.84,159.00 348.23,159.00 348.63,159.00 349.03,159.00 349.42,159.00 349.82,159.00 350.22,159.00 350.61,159.00 351.01,159.00 351.41,159.00 351.80,159.00 352.20,159.00 352.60,159.00 352.99,159.00 353.39,159.00 353.78,159.00 354.18,159.00 354.58,159.00 354.97,159.00 355.37,159.00 355.77,159.00 356.16,159.00 356.56,159.00 356.96,159.00 357.35,159.00 357.75,159.00 358.15,159.00 358.54,159.00 358.94,159.00 359.34,159.00 359.73,159.00 360.13,159.00 360.53,159.00 360.92,159.00 361.32,159.00 361.71,159.00 362.11,159.00 362.51,159.00 362.90,159.00 363.30,159.00 363.70,159.00 364.09,159.00 364.49,159.00 364.89,159.00 365.28,159.00 365.68,159.00 366.08,159.00 366.47,159.00 366.87,159.00 367.27,159.00 367.66,159.00 368.06,159.00 368.45,159.00 368.85,159.00 369.25,159.00 369.64,159.00 370.04,159.00 370.44,159.00 370.83,159.00 371.23,159.00 371.63,159.00 372.02,159.00 372.42,159.00 372.82,159.00 373.21,159.00 373.61,159.00 374.01,159.00 374.40,159.00 374.80,159.00 375.20,159.00 375.59,159.00 375.99,159.00 376.38,159.00 376.78,159.00 377.18,159.00 377.57,159.00 377.97,159.00 378.37,159.00 378.76,159.00 379.16,159.00 379.56,159.00 379.95,159.00 380.35,159.00 380.75,159.00 381.14,159.00 381.54,159.00 381.94,159.00 382.23,159.00 382.53,159.00 382.57,162.87 382.65,170.60 382.81,186.07 383.12,217.01 383.52,255.68 383.92,294.35 384.24,325.68 384.56,357.00 384.60,357.00 384.68,357.00 384.84,357.00 385.15,357.00 385.55,357.00 385.95,357.00 386.34,357.00 386.74,357.00 387.14,357.00 387.53,357.00 387.93,357.00 388.33,357.00 388.72,357.00 389.12,357.00 389.52,357.00 389.91,357.00 390.31,357.00 390.71,357.00 391.10,357.00 391.50,357.00 391.89,357.00 392.29,357.00 392.69,357.00 393.08,357.00 393.48,357.00 393.88,357.00 394.27,357.00 394.67,357.00 395.07,357.00 395.46,357.00 395.86,357.00 396.26,357.00 396.65,357.00 397.05,357.00 397.45,357.00 397.84,357.00 398.24,357.00 398.64,357.00 399.03,357.00 399.43,357.00 399.82,357.00 400.22,357.00 400.62,357.00 401.01,357.00 401.41,357.00 401.81,357.00 402.20,357.00 402.60,357.00 403.00,357.00 403.39,357.00 403.79,357.00 404.19,357.00 404.58,357.00 404.98,357.00 405.38,357.00 405.77,357.00 406.17,357.00 406.56,357.00 406.96,357.00 407.36,357.00 407.75,357.00 408.15,357.00 408.55,357.00 408.94,357.00 409.34,357.00 409.74,357.00 410.13,357.00 410.53,357.00 410.93,357.00 411.32,357.00 411.72,357.00 412.12,357.00 412.51,357.00 412.91,357.00 413.31,357.00 413.70,357.00 414.10,357.00 414.49,357.00 414.89,357.00 415.29,357.00 415.68,357.00 416.08,357.00 416.48,357.00 416.87,357.00 417.27,357.00 417.67,357.00 418.06,357.00 418.46,357.00 418.86,357.00 419.25,357.00 419.65,357.00 420.05,357.00 420.44,357.00 420.84,357.00 421.23,357.00 421.63,357.00 422.03,357.00 422.42,357.00 422.82,357.00 423.22,357.00 423.61,357.00 424.01,357.00 424.41,357.00 424.80,357.00 425.20,357.00 425.60,357.00 425.99,357.00 426.39,357.00 426.79,357.00 427.18,357.00 427.58,357.00 427.98,357.00 428.37,357.00 428.77,357.00 429.16,357.00 429.56,357.00 429.96,357.00 430.35,357.00 430.75,357.00 431.15,357.00 431.54,357.00 431.94,357.00 432.34,357.00 432.73,357.00 433.13,357.00 433.53,357.00 433.92,357.00 434.32,357.00 434.72,357.00 435.11,357.00 435.51,357.00 435.90,357.00 436.30,357.00 436.70,357.00 437.09,357.00 437.49,357.00 437.89,357.00 438.28,357.00 438.68,357.00 439.08,357.00 439.47,357.00 439.87,357.00 440.27,357.00 440.66,357.00 441.06,357.00 441.46,357.00 441.85,357.00 442.25,357.00 442.64,357.00 443.04,357.00 443.44,357.00 443.83,357.00 444.23,357.00 444.63,357.00 445.02,357.00 445.42,357.00 445.82,357.00 446.21,357.00 446.61,357.00 447.01,357.00 447.40,357.00 447.80,357.00 448.20,357.00 448.59,357.00 448.99,357.00 449.39,357.00 449.78,357.00 450.18,357.00 450.57,357.00 450.97,357.00 451.37,357.00 451.76,357.00 452.16,357.00 452.56,357.00 452.95,357.00 453.35,357.00 453.75,357.00 454.14,357.00 454.54,357.00 454.94,357.00 455.33,357.00 455.73,357.00 456.13,357.00 456.52,357.00 456.92,357.00 457.31,357.00 457.71,357.00 458.11,357.00 458.50,357.00 458.90,357.00 459.30,357.00 459.69,357.00 460.09,357.00 460.49,357.00 460.88,357.00 461.28,357.00 461.68,357.00 462.07,357.00 462.47,357.00 462.87,357.00 463.26,357.00 463.66,357.00 464.06,357.00 464.45,357.00 464.85,357.00 465.24,357.00 465.64,357.00 466.04,357.00 466.43,357.00 466.83,357.00 467.23,357.00 467.62,357.00 468.02,357.00 468.42,357.00 468.81,357.00 469.21,357.00 469.61,357.00 470.00,357.00 470.40,357.00 470.80,357.00 471.19,357.00 471.59,357.00 471.98,357.00 472.38,357.00 472.78,357.00 473.17,357.00 473.57,357.00 473.97,357.00 474.36,357.00 474.76,357.00 475.16,357.00 475.55,357.00 475.95,357.00 476.35,357.00 476.74,357.00 477.14,357.00 477.54,357.00 477.93,357.00 478.33,357.00 478.73,357.00 479.12,357.00 479.52,357.00 479.91,357.00 480.31,357.00 480.71,357.00 481.10,357.00 481.50,357.00 481.75,357.00 482.00,357.00 482.04,353.13 482.12,345.40 482.28,329.93 482.59,298.99 482.96,263.15 483.36,224.48 483.69,191.74 484.03,159.00 484.07,159.00 484.15,159.00 484.31,159.00 484.62,159.00 485.02,159.00 485.42,159.00 485.81,159.00 486.21,159.00 486.61,159.00 487.00,159.00 487.40,159.00 487.80,159.00 488.19,159.00 488.59,159.00 488.99,159.00 489.38,159.00 489.78,159.00 490.18,159.00 490.57,159.00 490.97,159.00 491.36,159.00 491.76,159.00 492.16,159.00 492.55,159.00 492.95,159.00 493.35,159.00 493.74,159.00 494.14,159.00 494.54,159.00 494.93,159.00 495.33,159.00 495.73,159.00 496.12,159.00 496.52,159.00 496.92,159.00 497.31,159.00 497.71,159.00 498.11,159.00 498.50,159.00 498.90,159.00 499.29,159.00 499.69,159.00 500.09,159.00 500.48,159.00 500.88,159.00 501.28,159.00 501.67,159.00 502.07,159.00 502.47,159.00 502.86,159.00 503.26,159.00 503.66,159.00 504.05,159.00 504.45,159.00 504.85,159.00 505.24,159.00 505.64,159.00 506.03,159.00 506.43,159.00 506.83,159.00 507.22,159.00 507.62,159.00 508.02,159.00 508.41,159.00 508.81,159.00 509.21,159.00 509.60,159.00 510.00,159.00 510.40,159.00 510.79,159.00 511.19,159.00 511.59,159.00 511.98,159.00 512.38,159.00 512.78,159.00 513.17,159.00 513.57,159.00 513.96,159.00 514.36,159.00 514.76,159.00 515.15,159.00 515.55,159.00 515.95,159.00 516.34,159.00 516.74,159.00 517.14,159.00 517.53,159.00 517.93,159.00 518.33,159.00 518.72,159.00 519.12,159.00 519.52,159.00 519.91,159.00 520.31,159.00 520.70,159.00 521.10,159.00 521.50,159.00 521.89,159.00 522.29,159.00 522.69,159.00 523.08,159.00 523.48,159.00 523.88,159.00 524.27,159.00 524.67,159.00 525.07,159.00 525.46,159.00 525.86,159.00 526.26,159.00 526.65,159.00 527.05,159.00 527.45,159.00 527.84,159.00 528.24,159.00 528.63,159.00 529.03,159.00 529.43,159.00 529.82,159.00 530.22,159.00 530.62,159.00 531.01,159.00 531.41,159.00 531.81,159.00 532.20,159.00 532.60,159.00 533.00,159.00 533.39,159.00 533.79,159.00 534.19,159.00 534.58,159.00 534.98,159.00 535.37,159.00 535.77,159.00 536.17,159.00 536.56,159.00 536.96,159.00 537.36,159.00 537.75,159.00 538.15,159.00 538.55,159.00 538.94,159.00 539.34,159.00 539.74,159.00 540.13,159.00 540.53,159.00 540.93,159.00 541.32,159.00 541.72,159.00 542.11,159.00 542.51,159.00 542.91,159.00 543.30,159.00 543.70,159.00 544.10,159.00 544.49,159.00 544.89,159.00 545.29,159.00 545.68,159.00 546.08,159.00 546.48,159.00 546.87,159.00 547.27,159.00 547.67,159.00 548.06,159.00 548.46,159.00 548.86,159.00 549.25,159.00 549.65,159.00 550.04,159.00 550.44,159.00 550.84,159.00 551.23,159.00 551.63,159.00 552.03,159.00 552.42,159.00 552.82,159.00 553.22,159.00 553.61,159.00 554.01,159.00 554.41,159.00 554.80,159.00 555.20,159.00 555.60,159.00 555.99,159.00 556.39,159.00 556.78,159.00 557.18,159.00 557.58,159.00 557.97,159.00 558.37,159.00 558.77,159.00 559.16,159.00 559.56,159.00 559.96,159.00 560.35,159.00 560.75,159.00 561.15,159.00 561.54,159.00 561.94,159.00 562.34,159.00 562.73,159.00 563.13,159.00 563.53,159.00 563.92,159.00 564.32,159.00 564.71,159.00 565.11,159.00 565.51,159.00 565.90,159.00 566.30,159.00 566.70,159.00 567.09,159.00 567.49,159.00 567.89,159.00 568.28,159.00 568.68,159.00 569.08,159.00 569.47,159.00 569.87,159.00 570.27,159.00 570.66,159.00 571.06,159.00 571.45,159.00 571.85,159.00 572.25,159.00 572.64,159.00 573.04,159.00 573.44,159.00 573.83,159.00 574.23,159.00 574.63,159.00 575.02,159.00 575.42,159.00 575.82,159.00 576.21,159.00 576.61,159.00 577.01,159.00 577.40,159.00 577.80,159.00 578.20,159.00 578.59,159.00 578.99,159.00 579.38,159.00 579.78,159.00 580.18,159.00 580.57,159.00 580.97,159.00 581.37,159.00 581.76,159.00 582.16,159.00 582.56,159.00 582.95,159.00 583.35,159.00 583.75,159.00 584.14,159.00 584.54,159.00 584.94,159.00 585.23,159.00 585.53,159.00 585.57,162.87 585.65,170.60 585.81,186.07 586.12,217.01 586.52,255.68 586.92,294.35 587.24,325.68 587.56,357.00 587.60,357.00 587.68,357.00 587.84,357.00 588.15,357.00 588.55,357.00 588.95,357.00 589.34,357.00 589.74,357.00 590.14,357.00 590.53,357.00 590.93,357.00 591.33,357.00 591.72,357.00 592.12,357.00 592.52,357.00 592.91,357.00 593.31,357.00 593.71,357.00 594.10,357.00 594.50,357.00 594.89,357.00 595.29,357.00 595.69,357.00 596.08,357.00 596.48,357.00 596.88,357.00 597.27,357.00 597.67,357.00 598.07,357.00 598.46,357.00 598.86,357.00 599.26,357.00 599.65,357.00 600.05,357.00 600.45,357.00 600.84,357.00 601.24,357.00 601.64,357.00 602.03,357.00 602.43,357.00 602.82,357.00 603.22,357.00 603.62,357.00 604.01,357.00 604.41,357.00 604.81,357.00 605.20,357.00 605.60,357.00 606.00,357.00 606.39,357.00 606.79,357.00 607.19,357.00 607.58,357.00 607.98,357.00 608.38,357.00 608.77,357.00 609.17,357.00 609.56,357.00 609.96,357.00 610.36,357.00 610.75,357.00 611.15,357.00 611.55,357.00 611.94,357.00 612.34,357.00 612.74,357.00 613.13,357.00 613.53,357.00 613.93,357.00 614.32,357.00 614.72,357.00 615.12,357.00 615.51,357.00 615.91,357.00 616.31,357.00 616.70,357.00 617.10,357.00 617.49,357.00 617.89,357.00 618.29,357.00 618.68,357.00 619.08,357.00 619.48,357.00 619.87,357.00 620.27,357.00 620.67,357.00 621.06,357.00 621.46,357.00 621.86,357.00 622.25,357.00 622.65,357.00 623.05,357.00 623.44,357.00 623.84,357.00 624.23,357.00 624.63,357.00 625.03,357.00 625.42,357.00 625.82,357.00 626.22,357.00 626.61,357.00 627.01,357.00 627.41,357.00 627.80,357.00 628.20,357.00 628.60,357.00 628.99,357.00 629.39,357.00 629.79,357.00 630.18,357.00 630.58,357.00 630.98,357.00 631.37,357.00 631.77,357.00 632.16,357.00 632.56,357.00 632.96,357.00 633.35,357.00 633.75,357.00 634.15,357.00 634.54,357.00 634.94,357.00 635.34,357.00 635.73,357.00 636.13,357.00 636.53,357.00 636.92,357.00 637.32,357.00 637.72,357.00 638.11,357.00 638.51,357.00 638.90,357.00 639.30,357.00 639.70,357.00 640.09,357.00 640.49,357.00 640.89,357.00 641.28,357.00 641.68,357.00 642.08,357.00 642.47,357.00 642.87,357.00 643.27,357.00 643.66,357.00 644.06,357.00 644.46,357.00 644.85,357.00 645.25,357.00 645.64,357.00 646.04,357.00 646.44,357.00 646.83,357.00 647.23,357.00 647.63,357.00 648.02,357.00 648.42,357.00 648.82,357.00 649.21,357.00 649.61,357.00 650.01,357.00 650.40,357.00 650.80,357.00 651.20,357.00 651.59,357.00 651.99,357.00 652.39,357.00 652.78,357.00 653.18,357.00 653.57,357.00 653.97,357.00 654.37,357.00 654.76,357.00 655.16,357.00 655.56,357.00 655.95,357.00 656.35,357.00 656.75,357.00 657.14,357.00 657.54,357.00 657.94,357.00 658.33,357.00 658.73,357.00 659.13,357.00 659.52,357.00 659.92,357.00 660.31,357.00 660.71,357.00 661.11,357.00 661.50,357.00 661.90,357.00 662.30,357.00 662.69,357.00 663.09,357.00 663.49,357.00 663.88,357.00 664.28,357.00 664.68,357.00 665.07,357.00 665.47,357.00 665.87,357.00 666.26,357.00 666.66,357.00 667.06,357.00 667.45,357.00 667.85,357.00 668.24,357.00 668.64,357.00 669.04,357.00 669.43,357.00 669.83,357.00 670.23,357.00 670.62,357.00 671.02,357.00 671.42,357.00 671.81,357.00 672.21,357.00 672.61,357.00 673.00,357.00 673.40,357.00 673.80,357.00 674.19,357.00 674.59,357.00 674.98,357.00 675.38,357.00 675.78,357.00 676.17,357.00 676.57,357.00 676.97,357.00 677.36,357.00 677.76,357.00 678.16,357.00 678.55,357.00 678.95,357.00 679.35,357.00 679.74,357.00 680.14,357.00 680.54,357.00 680.93,357.00 681.33,357.00 681.73,357.00 682.12,357.00 682.52,357.00 682.91,357.00 683.31,357.00 683.71,357.00 684.10,357.00 684.50,357.00 684.75,357.00 685.00,357.00 685.04,353.13 685.12,345.40 685.28,329.93 685.59,298.99 685.96,263.16 686.36,224.48 686.69,191.74 687.03,159.00 687.07,159.00 687.15,159.00 687.31,159.00 687.62,159.00 688.02,159.00 688.42,159.00 688.81,159.00 689.21,159.00 689.61,159.00 690.00,159.00 690.40,159.00 690.80,159.00 691.19,159.00 691.59,159.00 691.99,159.00 692.38,159.00 692.78,159.00 693.18,159.00 693.57,159.00 693.97,159.00 694.36,159.00 694.76,159.00 695.16,159.00 695.55,159.00 695.95,159.00 696.35,159.00 696.74,159.00 697.14,159.00 697.54,159.00 697.93,159.00 698.33,159.00 698.73,159.00 699.12,159.00 699.52,159.00 699.92,159.00 700.31,159.00 700.71,159.00 701.11,159.00 701.50,159.00 701.90,159.00 702.29,159.00 702.69,159.00 703.09,159.00 703.48,159.00 703.88,159.00 704.28,159.00 704.67,159.00 705.07,159.00 705.47,159.00 705.86,159.00 706.26,159.00 706.66,159.00 707.05,159.00 707.45,159.00 707.85,159.00 708.24,159.00 708.64,159.00 709.03,159.00 709.43,159.00 709.83,159.00 710.22,159.00 710.62,159.00 711.02,159.00 711.41,159.00 711.81,159.00 712.21,159.00 712.60,159.00 713.00,159.00 713.40,159.00 713.79,159.00 714.19,159.00 714.59,159.00 714.98,159.00 715.38,159.00 715.78,159.00 716.17,159.00 716.57,159.00 716.96,159.00 717.36,159.00 717.76,159.00 718.15,159.00 718.55,159.00 718.95,159.00 719.34,159.00 719.74,159.00 720.14,159.00 720.53,159.00 720.93,159.00 721.33,159.00 721.72,159.00 722.12,159.00 722.52,159.00 722.91,159.00 723.31,159.00 723.70,159.00 724.10,159.00 724.50,159.00 724.89,159.00 725.29,159.00 725.69,159.00 726.08,159.00 726.48,159.00 726.88,159.00 727.27,159.00 727.67,159.00 728.07,159.00 728.46,159.00 728.86,159.00 729.26,159.00 729.65,159.00 730.05,159.00 730.45,159.00 730.84,159.00 731.24,159.00 731.63,159.00 732.03,159.00 732.43,159.00 732.82,159.00 733.22,159.00 733.62,159.00 734.01,159.00 734.41,159.00 734.81,159.00 735.20,159.00 735.60,159.00 736.00,159.00 736.39,159.00 736.79,159.00 737.19,159.00 737.58,159.00 737.98,159.00 738.37,159.00 738.77,159.00 739.17,159.00 739.56,159.00 739.96,159.00 740.36,159.00 740.75,159.00 741.15,159.00 741.55,159.00 741.94,159.00 742.34,159.00 742.74,159.00 743.13,159.00 743.53,159.00 743.93,159.00 744.32,159.00 744.72,159.00 745.11,159.00 745.51,159.00 745.91,159.00 746.30,159.00 746.70,159.00 747.10,159.00 747.49,159.00 747.89,159.00 748.29,159.00 748.68,159.00 749.08,159.00 749.48,159.00 749.87,159.00 750.27,159.00 750.67,159.00 751.06,159.00 751.46,159.00 751.86,159.00 752.25,159.00 752.65,159.00 753.04,159.00 753.44,159.00 753.84,159.00 754.23,159.00 754.63,159.00 755.03,159.00 755.42,159.00 755.82,159.00 756.22,159.00 756.61,159.00 757.01,159.00 757.41,159.00 757.80,159.00 758.20,159.00 758.60,159.00 758.99,159.00 759.39,159.00 759.78,159.00 760.18,159.00 760.58,159.00 760.97,159.00 761.37,159.00 761.77,159.00 762.16,159.00 762.56,159.00 762.96,159.00 763.35,159.00 763.75,159.00 764.15,159.00 764.54,159.00 764.94,159.00 765.34,159.00 765.73,159.00 766.13,159.00 766.53,159.00 766.92,159.00 767.32,159.00 767.71,159.00 768.11,159.00 768.51,159.00 768.90,159.00 769.30,159.00 769.70,159.00 770.09,159.00 770.49,159.00 770.89,159.00 771.28,159.00 771.68,159.00 772.08,159.00 772.47,159.00 772.87,159.00 773.27,159.00 773.66,159.00 774.06,159.00 774.45,159.00 774.85,159.00 775.25,159.00 775.64,159.00 776.04,159.00 776.44,159.00 776.83,159.00 777.23,159.00 777.63,159.00 778.02,159.00 778.42,159.00 778.82,159.00 779.21,159.00 779.61,159.00 780.01,159.00 780.40,159.00 780.80,159.00 781.20,159.00 781.59,159.00 781.99,159.00 782.38,159.00 782.78,159.00 783.18,159.00 783.57,159.00 783.97,159.00 784.37,159.00 784.76,159.00 785.16,159.00 785.56,159.00 785.95,159.00 786.35,159.00 786.75,159.00 787.14,159.00 787.54,159.00 787.94,159.00 788.23,159.00 788.53,159.00 788.57,162.87 788.65,170.60 788.81,186.07 789.12,217.01 789.52,255.68 789.92,294.35 790.24,325.68 790.56,357.00 790.60,357.00 790.68,357.00 790.84,357.00 791.15,357.00 791.55,357.00 791.95,357.00 792.34,357.00 792.74,357.00 793.14,357.00 793.53,357.00 793.93,357.00 794.33,357.00 794.72,357.00 795.12,357.00 795.52,357.00 795.91,357.00 796.31,357.00 796.71,357.00 797.10,357.00 797.50,357.00 797.89,357.00 798.29,357.00 798.69,357.00 799.08,357.00 799.48,357.00 799.88,357.00 800.27,357.00 800.67,357.00 801.07,357.00 801.46,357.00 801.86,357.00 802.26,357.00 802.65,357.00 803.05,357.00 803.45,357.00 803.84,357.00 804.24,357.00 804.64,357.00 805.03,357.00 805.43,357.00 805.82,357.00 806.22,357.00 806.62,357.00 807.01,357.00 807.41,357.00 807.81,357.00 808.20,357.00 808.60,357.00 809.00,357.00 809.39,357.00 809.79,357.00 810.19,357.00 810.58,357.00 810.98,357.00 811.38,357.00 811.77,357.00 812.17,357.00 812.56,357.00 812.96,357.00 813.36,357.00 813.75,357.00 814.15,357.00 814.55,357.00 814.94,357.00 815.34,357.00 815.74,357.00 816.13,357.00 816.53,357.00 816.93,357.00 817.32,357.00 817.72,357.00 818.12,357.00 818.51,357.00 818.91,357.00 819.31,357.00 819.70,357.00 820.10,357.00 820.49,357.00 820.89,357.00 821.29,357.00 821.68,357.00 822.08,357.00 822.48,357.00 822.87,357.00 823.27,357.00 823.67,357.00 824.06,357.00 824.46,357.00 824.86,357.00 825.25,357.00 825.65,357.00 826.05,357.00 826.44,357.00 826.84,357.00 827.23,357.00 827.63,357.00 828.03,357.00 828.42,357.00 828.82,357.00 829.22,357.00 829.61,357.00 830.01,357.00 830.41,357.00 830.80,357.00 831.20,357.00 831.60,357.00 831.99,357.00 832.39,357.00 832.79,357.00 833.18,357.00 833.58,357.00 833.98,357.00 834.37,357.00 834.77,357.00 835.16,357.00 835.56,357.00 835.96,357.00 836.35,357.00 836.75,357.00 837.15,357.00 837.54,357.00 837.94,357.00 838.34,357.00 838.73,357.00 839.13,357.00 839.53,357.00 839.92,357.00 840.32,357.00 840.72,357.00 841.11,357.00 841.51,357.00 841.90,357.00 842.30,357.00 842.70,357.00 843.09,357.00 843.49,357.00 843.89,357.00 844.28,357.00 844.68,357.00 845.08,357.00 845.47,357.00 845.87,357.00 846.27,357.00 846.66,357.00 847.06,357.00 847.46,357.00 847.85,357.00 848.25,357.00 848.64,357.00 849.04,357.00 849.44,357.00 849.83,357.00 850.23,357.00 850.63,357.00 851.02,357.00 851.42,357.00 851.82,357.00 852.21,357.00 852.61,357.00 853.01,357.00 853.40,357.00 853.80,357.00 854.20,357.00 854.59,357.00 854.99,357.00 855.39,357.00 855.78,357.00 856.18,357.00 856.57,357.00 856.97,357.00 857.37,357.00 857.76,357.00 858.16,357.00 858.56,357.00 858.95,357.00 859.35,357.00 859.75,357.00 860.14,357.00 860.54,357.00 860.94,357.00 861.33,357.00 861.73,357.00 862.13,357.00 862.52,357.00 862.92,357.00 863.31,357.00 863.71,357.00 864.11,357.00 864.50,357.00 864.90,357.00 865.30,357.00 865.69,357.00 866.09,357.00 866.49,357.00 866.88,357.00 867.28,357.00 867.68,357.00 868.07,357.00 868.47,357.00 868.87,357.00 869.26,357.00 869.66,357.00 870.06,357.00 870.45,357.00 870.85,357.00 871.24,357.00 871.64,357.00 872.04,357.00 872.43,357.00 872.83,357.00 873.23,357.00 873.62,357.00 874.02,357.00 874.42,357.00 874.81,357.00 875.21,357.00 875.61,357.00 876.00,357.00 876.40,357.00 876.80,357.00 877.19,357.00 877.59,357.00 877.98,357.00 878.38,357.00 878.78,357.00 879.17,357.00 879.57,357.00 879.97,357.00 880.36,357.00 880.76,357.00 881.16,357.00 881.55,357.00 881.95,357.00 882.35,357.00 882.74,357.00 883.14,357.00 883.54,357.00 883.93,357.00 884.33,357.00 884.73,357.00 885.12,357.00 885.52,357.00 885.91,357.00 886.31,357.00 886.71,357.00 887.10,357.00 887.50,357.00 887.75,357.00" fill="none" stroke="#b54708" stroke-width="3" stroke-linejoin="round"/>
<rect x="670" y="62" width="190" height="70" rx="4" ry="4" fill="#fff" fill-opacity="0.82" stroke="#111" stroke-width="1"/>
<line x1="682" y1="78" x2="718" y2="78" stroke="#1665d8" stroke-width="3"/>
<text x="728" y="83" font-family="Arial, Helvetica, sans-serif" font-size="13" font-weight="400" text-anchor="start" fill="#111">load output</text>
<line x1="682" y1="104" x2="718" y2="104" stroke="#b54708" stroke-width="3"/>
<text x="728" y="109" font-family="Arial, Helvetica, sans-serif" font-size="13" font-weight="400" text-anchor="start" fill="#111">input x2</text>
<text x="460" y="502" font-family="Arial, Helvetica, sans-serif" font-size="14" font-weight="400" text-anchor="middle" fill="#111">Time after 60 ms settling, ms</text>
<text x="22" y="260" font-family="Arial, Helvetica, sans-serif" font-size="14" text-anchor="middle" fill="#111" transform="rotate(-90 22 260)">Voltage, V</text>
</svg>
