<svg xmlns="http://www.w3.org/2000/svg" width="920" height="520" viewBox="0 0 920 520">
<defs>
<style>
.wire{stroke:#111;stroke-width:2.6;fill:none;stroke-linecap:round;stroke-linejoin:round}
.thin{stroke:#a7b0bd;stroke-width:1.2;fill:none;stroke-linecap:round;stroke-linejoin:round}
.axis{stroke:#111;stroke-width:1.4;fill:none}
.blue{stroke:#1665d8;stroke-width:3;fill:none;stroke-linecap:round;stroke-linejoin:round}
.green{stroke:#13795b;stroke-width:3;fill:none;stroke-linecap:round;stroke-linejoin:round}
.orange{stroke:#b54708;stroke-width:3;fill:none;stroke-linecap:round;stroke-linejoin:round}
.node{fill:#111;stroke:none}
</style>
</defs>
<rect width="100%" height="100%" fill="#fff"/>
<text x="76" y="36" font-family="Arial, Helvetica, sans-serif" font-size="22" font-weight="700" text-anchor="start" fill="#111">Bootstrap sine-wave response, 1 kHz, Vin = 1000 mVpp</text>
<rect x="76" y="60" width="812" height="396" fill="#fff" stroke="#111" stroke-width="1.4"/>
<line x1="76" y1="60" x2="76" y2="456" class="thin"/>
<text x="76" y="479" font-family="Arial, Helvetica, sans-serif" font-size="12" font-weight="400" text-anchor="middle" fill="#111">0</text>
<line x1="279" y1="60" x2="279" y2="456" class="thin"/>
<text x="279" y="479" font-family="Arial, Helvetica, sans-serif" font-size="12" font-weight="400" text-anchor="middle" fill="#111">1</text>
<line x1="482" y1="60" x2="482" y2="456" class="thin"/>
<text x="482" y="479" font-family="Arial, Helvetica, sans-serif" font-size="12" font-weight="400" text-anchor="middle" fill="#111">2</text>
<line x1="685" y1="60" x2="685" y2="456" class="thin"/>
<text x="685" y="479" font-family="Arial, Helvetica, sans-serif" font-size="12" font-weight="400" text-anchor="middle" fill="#111">3</text>
<line x1="888" y1="60" x2="888" y2="456" class="thin"/>
<text x="888" y="479" font-family="Arial, Helvetica, sans-serif" font-size="12" font-weight="400" text-anchor="middle" fill="#111">4</text>
<line x1="76" y1="456" x2="888" y2="456" class="thin"/>
<text x="66" y="460" font-family="Arial, Helvetica, sans-serif" font-size="12" font-weight="400" text-anchor="end" fill="#111">-5000</text>
<line x1="76" y1="357" x2="888" y2="357" class="thin"/>
<text x="66" y="361" font-family="Arial, Helvetica, sans-serif" font-size="12" font-weight="400" text-anchor="end" fill="#111">-2500</text>
<line x1="76" y1="258" x2="888" y2="258" class="thin"/>
<text x="66" y="262" font-family="Arial, Helvetica, sans-serif" font-size="12" font-weight="400" text-anchor="end" fill="#111">0</text>
<line x1="76" y1="159" x2="888" y2="159" class="thin"/>
<text x="66" y="163" font-family="Arial, Helvetica, sans-serif" font-size="12" font-weight="400" text-anchor="end" fill="#111">2500</text>
<line x1="76" y1="60" x2="888" y2="60" class="thin"/>
<text x="66" y="64" font-family="Arial, Helvetica, sans-serif" font-size="12" font-weight="400" text-anchor="end" fill="#111">5000</text>
<polyline points="76.00,239.98 77.01,241.89 78.03,243.84 79.05,245.81 80.06,247.81 81.07,249.80 82.09,251.82 83.11,253.81 84.12,255.83 85.14,257.82 86.15,259.82 87.16,261.81 88.18,263.82 89.20,265.81 90.21,267.82 91.22,269.81 92.24,271.81 93.26,273.96 94.27,276.08 95.28,278.11 96.30,280.09 97.32,282.00 98.33,283.87 99.35,285.68 100.36,287.45 101.38,289.16 102.39,290.84 103.41,292.46 104.42,294.04 105.43,295.55 106.45,297.03 107.47,298.44 108.48,299.81 109.49,301.12 110.51,302.38 111.53,303.57 112.54,304.73 113.55,305.80 114.57,306.84 115.59,307.80 116.60,308.72 117.62,309.56 118.63,310.36 119.64,311.08 120.66,311.76 121.68,312.36 122.69,312.91 123.70,313.39 124.72,313.82 125.74,314.17 126.75,314.48 127.76,314.70 128.78,314.88 129.80,314.99 130.81,315.04 131.82,315.02 132.84,314.95 133.86,314.81 134.87,314.62 135.89,314.35 136.90,314.04 137.91,313.65 138.93,313.21 139.95,312.70 140.96,312.15 141.97,311.52 142.99,310.85 144.01,310.10 145.02,309.32 146.03,308.46 147.05,307.56 148.07,306.59 149.08,305.58 150.09,304.50 151.11,303.38 152.13,302.19 153.14,300.97 154.16,299.68 155.17,298.36 156.18,296.97 157.20,295.55 158.22,294.07 159.23,292.57 160.24,291.00 161.26,289.40 162.28,287.75 163.29,286.07 164.30,284.34 165.32,282.59 166.34,280.79 167.35,278.97 168.37,277.11 169.38,275.23 170.40,273.32 171.41,271.39 172.43,269.43 173.44,267.47 174.45,265.29 175.47,263.13 176.49,260.95 177.50,258.78 178.51,256.58 179.53,254.39 180.55,252.17 181.56,249.95 182.57,247.66 183.59,245.34 184.61,243.04 185.60,240.88 186.62,238.76 187.63,236.74 188.65,234.79 189.66,232.96 190.68,231.20 191.69,229.57 192.71,228.04 193.72,226.65 194.74,225.38 195.75,224.27 196.77,223.29 197.78,222.46 198.80,221.75 199.81,221.18 200.83,220.69 201.84,220.31 202.86,219.98 203.87,219.74 204.89,219.52 205.90,219.37 206.92,219.22 207.93,219.13 208.95,219.03 209.96,218.97 210.98,218.91 211.99,218.87 213.01,218.83 214.02,218.81 215.04,218.77 216.05,218.76 217.07,218.74 218.08,218.73 219.10,218.71 220.11,218.71 221.13,218.69 222.14,218.69 223.16,218.67 224.17,218.68 225.19,218.66 226.20,218.66 227.22,218.65 228.23,218.65 229.25,218.64 230.26,218.64 231.28,218.63 232.29,218.63 233.31,218.62 234.32,218.62 235.34,218.61 236.35,218.61 237.37,218.60 238.38,218.60 239.40,218.59 240.41,218.59 241.43,218.58 242.44,218.59 243.46,218.57 244.47,218.58 245.49,218.56 246.50,218.57 247.52,218.55 248.53,218.56 249.55,218.55 250.56,218.55 251.58,218.54 252.59,218.54 253.61,218.53 254.62,218.55 255.64,218.55 256.65,218.59 257.67,218.63 258.68,218.72 259.70,218.83 260.71,219.02 261.73,219.27 262.74,219.63 263.76,220.08 264.77,220.67 265.79,221.37 266.80,222.21 267.82,223.16 268.83,224.25 269.85,225.43 270.86,226.70 271.88,228.04 272.89,229.50 273.91,231.09 274.92,232.76 275.94,234.48 276.95,236.27 277.97,238.09 278.98,239.98 280.00,241.89 281.01,243.85 282.03,245.81 283.04,247.81 284.06,249.80 285.07,251.82 286.09,253.81 287.10,255.82 288.12,257.81 289.13,259.82 290.15,261.81 291.16,263.81 292.18,265.81 293.19,267.82 294.21,269.80 295.22,271.80 296.24,273.77 297.25,275.91 298.27,277.97 299.28,279.98 300.30,281.91 301.31,283.81 302.33,285.63 303.34,287.41 304.36,289.13 305.37,290.82 306.39,292.44 307.40,294.02 308.42,295.54 309.43,297.02 310.45,298.44 311.46,299.81 312.48,301.12 313.49,302.38 314.51,303.58 315.52,304.73 316.54,305.81 317.55,306.85 318.57,307.81 319.58,308.73 320.60,309.58 321.61,310.38 322.63,311.10 323.64,311.78 324.66,312.38 325.67,312.93 326.69,313.41 327.70,313.84 328.72,314.19 329.73,314.50 330.75,314.73 331.76,314.91 332.78,315.01 333.79,315.07 334.81,315.05 335.82,314.99 336.84,314.84 337.85,314.65 338.87,314.38 339.88,314.07 340.90,313.68 341.91,313.25 342.93,312.74 343.94,312.19 344.96,311.56 345.97,310.89 346.99,310.15 348.00,309.36 349.02,308.50 350.03,307.60 351.05,306.63 352.06,305.62 353.08,304.54 354.09,303.42 355.11,302.24 356.12,301.02 357.14,299.73 358.15,298.41 359.17,297.02 360.18,295.61 361.20,294.12 362.21,292.62 363.23,291.05 364.24,289.45 365.26,287.80 366.27,286.12 367.29,284.39 368.30,282.65 369.32,280.84 370.33,279.03 371.35,277.17 372.36,275.29 373.38,273.37 374.39,271.45 375.41,269.49 376.42,267.53 377.44,265.35 378.45,263.19 379.47,261.00 380.48,258.83 381.50,256.64 382.51,254.45 383.53,252.23 384.54,250.00 385.56,247.72 386.57,245.39 387.59,243.10 388.59,240.93 389.60,238.81 390.62,236.80 391.63,234.85 392.65,233.02 393.66,231.26 394.68,229.64 395.69,228.11 396.71,226.72 397.72,225.45 398.74,224.35 399.75,223.37 400.77,222.55 401.78,221.84 402.80,221.27 403.81,220.78 404.83,220.41 405.84,220.08 406.86,219.84 407.87,219.62 408.89,219.47 409.90,219.33 410.92,219.23 411.93,219.14 412.95,219.08 413.96,219.02 414.98,218.98 415.99,218.93 417.01,218.91 418.02,218.88 419.04,218.87 420.05,218.84 421.07,218.84 422.08,218.82 423.10,218.81 424.11,218.80 425.13,218.80 426.14,218.78 427.16,218.78 428.17,218.77 429.19,218.77 430.20,218.76 431.22,218.76 432.23,218.74 433.25,218.75 434.26,218.73 435.28,218.74 436.29,218.72 437.31,218.73 438.32,218.72 439.34,218.72 440.35,218.71 441.37,218.71 442.38,218.70 443.40,218.70 444.41,218.69 445.43,218.69 446.44,218.68 447.46,218.68 448.47,218.67 449.49,218.67 450.50,218.66 451.52,218.67 452.53,218.65 453.55,218.66 454.56,218.65 455.58,218.65 456.59,218.64 457.61,218.65 458.62,218.66 459.64,218.69 460.65,218.73 461.67,218.82 462.68,218.93 463.70,219.11 464.71,219.36 465.73,219.71 466.74,220.16 467.76,220.74 468.77,221.43 469.79,222.27 470.80,223.21 471.82,224.30 472.83,225.47 473.85,226.73 474.86,228.07 475.88,229.52 476.89,231.11 477.91,232.78 478.92,234.49 479.94,236.28 480.95,238.10 481.97,239.99 482.98,241.89 484.00,243.85 485.01,245.81 486.03,247.81 487.04,249.80 488.06,251.82 489.07,253.81 490.09,255.83 491.10,257.82 492.12,259.82 493.13,261.81 494.15,263.81 495.16,265.80 496.18,267.81 497.19,269.80 498.21,271.80 499.22,273.77 500.24,275.91 501.25,277.97 502.27,279.98 503.28,281.91 504.30,283.81 505.31,285.63 506.33,287.41 507.34,289.13 508.36,290.82 509.37,292.44 510.39,294.03 511.40,295.55 512.42,297.03 513.43,298.44 514.45,299.82 515.46,301.13 516.48,302.39 517.49,303.59 518.51,304.74 519.52,305.82 520.54,306.86 521.55,307.83 522.57,308.75 523.58,309.59 524.60,310.39 525.61,311.12 526.63,311.80 527.64,312.40 528.66,312.95 529.67,313.43 530.69,313.86 531.70,314.22 532.72,314.53 533.73,314.75 534.75,314.94 535.76,315.04 536.78,315.10 537.79,315.08 538.81,315.02 539.82,314.87 540.84,314.68 541.85,314.42 542.87,314.11 543.88,313.72 544.90,313.29 545.91,312.78 546.93,312.23 547.94,311.60 548.96,310.93 549.97,310.19 550.99,309.40 552.00,308.54 553.02,307.64 554.03,306.67 555.05,305.66 556.06,304.58 557.08,303.47 558.09,302.28 559.11,301.06 560.12,299.78 561.14,298.46 562.15,297.07 563.17,295.65 564.18,294.17 565.20,292.67 566.21,291.10 567.23,289.50 568.24,287.85 569.26,286.18 570.27,284.45 571.29,282.70 572.30,280.90 573.32,279.08 574.33,277.22 575.35,275.34 576.36,273.43 577.38,271.50 578.39,269.54 579.41,267.58 580.42,265.40 581.44,263.24 582.45,261.06 583.47,258.89 584.48,256.69 585.50,254.50 586.51,252.28 587.53,250.05 588.54,247.77 589.56,245.44 590.57,243.15 591.58,240.98 592.59,238.86 593.61,236.85 594.62,234.91 595.64,233.08 596.65,231.32 597.67,229.70 598.68,228.17 599.70,226.79 600.71,225.53 601.73,224.43 602.74,223.45 603.76,222.63 604.77,221.93 605.79,221.36 606.80,220.88 607.82,220.50 608.83,220.18 609.85,219.94 610.86,219.72 611.88,219.57 612.89,219.43 613.91,219.34 614.92,219.24 615.94,219.18 616.95,219.12 617.97,219.08 618.98,219.04 620.00,219.02 621.01,218.99 622.03,218.97 623.04,218.95 624.06,218.94 625.07,218.92 626.09,218.92 627.10,218.90 628.12,218.90 629.13,218.89 630.15,218.89 631.16,218.87 632.18,218.88 633.19,218.86 634.21,218.86 635.22,218.85 636.24,218.85 637.25,218.84 638.27,218.84 639.28,218.83 640.30,218.83 641.31,218.82 642.33,218.83 643.34,218.81 644.36,218.82 645.37,218.80 646.39,218.81 647.40,218.79 648.42,218.80 649.43,218.78 650.45,218.79 651.46,218.78 652.48,218.78 653.49,218.77 654.51,218.77 655.52,218.76 656.54,218.76 657.55,218.75 658.57,218.76 659.58,218.75 660.60,218.76 661.61,218.76 662.63,218.80 663.64,218.83 664.66,218.92 665.67,219.02 666.69,219.21 667.70,219.44 668.72,219.79 669.73,220.23 670.75,220.81 671.76,221.50 672.78,222.33 673.79,223.26 674.81,224.34 675.82,225.51 676.84,226.76 677.85,228.10 678.87,229.55 679.88,231.13 680.90,232.80 681.91,234.51 682.93,236.29 683.94,238.11 684.96,240.00 685.97,241.90 686.99,243.85 688.00,245.82 689.02,247.81 690.03,249.80 691.05,251.82 692.06,253.82 693.08,255.83 694.09,257.82 695.11,259.82 696.12,261.81 697.14,263.81 698.15,265.80 699.17,267.81 700.18,269.80 701.20,271.80 702.21,273.77 703.23,275.91 704.24,277.97 705.26,279.98 706.27,281.91 707.29,283.81 708.30,285.63 709.32,287.42 710.33,289.14 711.35,290.82 712.36,292.44 713.38,294.03 714.39,295.55 715.41,297.04 716.42,298.45 717.44,299.83 718.45,301.13 719.47,302.40 720.48,303.60 721.50,304.75 722.51,305.84 723.53,306.88 724.54,307.84 725.56,308.76 726.57,309.61 727.59,310.41 728.60,311.13 729.62,311.82 730.63,312.42 731.65,312.97 732.66,313.45 733.68,313.89 734.69,314.24 735.71,314.55 736.72,314.78 737.74,314.96 738.75,315.07 739.77,315.13 740.78,315.11 741.80,315.05 742.81,314.90 743.83,314.72 744.84,314.45 745.86,314.14 746.87,313.75 747.89,313.32 748.90,312.81 749.92,312.26 750.93,311.64 751.95,310.97 752.96,310.22 753.98,309.44 754.99,308.58 756.01,307.68 757.02,306.71 758.04,305.71 759.05,304.63 760.07,303.51 761.08,302.33 762.10,301.11 763.11,299.82 764.13,298.50 765.14,297.11 766.16,295.70 767.17,294.22 768.19,292.71 769.20,291.14 770.22,289.55 771.23,287.90 772.25,286.22 773.26,284.49 774.28,282.75 775.29,280.95 776.31,279.13 777.32,277.27 778.34,275.39 779.35,273.48 780.37,271.55 781.38,269.59 782.40,267.63 783.41,265.45 784.43,263.29 785.44,261.11 786.46,258.94 787.47,256.74 788.49,254.55 789.50,252.33 790.52,250.10 791.53,247.82 792.55,245.49 793.56,243.20 794.57,241.03 795.58,238.91 796.60,236.90 797.61,234.96 798.63,233.13 799.64,231.38 800.66,229.76 801.67,228.24 802.69,226.86 803.70,225.60 804.72,224.50 805.73,223.53 806.75,222.71 807.76,222.01 808.78,221.45 809.79,220.97 810.81,220.59 811.82,220.27 812.84,220.03 813.85,219.82 814.87,219.67 815.88,219.53 816.90,219.44 817.91,219.34 818.93,219.29 819.94,219.22 820.96,219.19 821.97,219.14 822.99,219.12 824.00,219.09 825.02,219.08 826.03,219.05 827.05,219.05 828.06,219.03 829.08,219.02 830.09,219.01 831.11,219.01 832.12,218.99 833.14,218.99 834.15,218.98 835.17,218.98 836.18,218.97 837.20,218.97 838.21,218.95 839.23,218.96 840.24,218.94 841.26,218.95 842.27,218.93 843.29,218.94 844.30,218.93 845.32,218.93 846.33,218.92 847.35,218.92 848.36,218.91 849.38,218.91 850.39,218.90 851.41,218.90 852.42,218.89 853.44,218.89 854.45,218.88 855.47,218.88 856.48,218.87 857.50,218.88 858.51,218.86 859.53,218.87 860.54,218.85 861.56,218.86 862.57,218.85 863.59,218.86 864.60,218.86 865.62,218.90 866.63,218.93 867.65,219.02 868.66,219.12 869.68,219.30 870.69,219.53 871.71,219.88 872.72,220.31 873.74,220.88 874.75,221.56 875.77,222.38 876.78,223.31 877.80,224.39 878.81,225.55 879.83,226.80 880.84,228.13 881.86,229.58 882.87,231.15 883.89,232.82 884.90,234.52 885.92,236.31 886.93,238.13 887.95,240.01" fill="none" stroke="#13795b" stroke-width="3" stroke-linejoin="round"/>
<polyline points="76.00,241.28 77.01,243.19 78.03,245.15 79.05,247.11 80.06,249.11 81.07,251.11 82.09,253.12 83.11,255.12 84.12,257.13 85.14,259.12 86.15,261.13 87.16,263.11 88.18,265.12 89.20,267.11 90.21,269.12 91.22,271.11 92.24,273.11 93.26,275.25 94.27,277.37 95.28,279.39 96.30,281.37 97.32,283.28 98.33,285.15 99.35,286.95 100.36,288.72 101.38,290.43 102.39,292.10 103.41,293.71 104.42,295.28 105.43,296.79 106.45,298.27 107.47,299.67 108.48,301.04 109.49,302.33 110.51,303.59 111.53,304.78 112.54,305.92 113.55,306.99 114.57,308.02 115.59,308.98 116.60,309.89 117.62,310.72 118.63,311.51 119.64,312.23 120.66,312.90 121.68,313.49 122.69,314.03 123.70,314.50 124.72,314.92 125.74,315.27 126.75,315.57 127.76,315.78 128.78,315.96 129.80,316.05 130.81,316.10 131.82,316.07 132.84,315.99 133.86,315.84 134.87,315.64 135.89,315.37 136.90,315.05 137.91,314.65 138.93,314.21 139.95,313.69 140.96,313.13 141.97,312.49 142.99,311.81 144.01,311.06 145.02,310.26 146.03,309.40 147.05,308.49 148.07,307.51 149.08,306.49 150.09,305.40 151.11,304.28 152.13,303.09 153.14,301.86 154.16,300.56 155.17,299.24 156.18,297.84 157.20,296.42 158.22,294.93 159.23,293.42 160.24,291.84 161.26,290.24 162.28,288.59 163.29,286.91 164.30,285.17 165.32,283.42 166.34,281.61 167.35,279.79 168.37,277.93 169.38,276.05 170.40,274.13 171.41,272.20 172.43,270.24 173.44,268.27 174.45,266.09 175.47,263.93 176.49,261.75 177.50,259.57 178.51,257.38 179.53,255.19 180.55,252.97 181.56,250.74 182.57,248.46 183.59,246.14 184.61,243.84 185.60,241.68 186.62,239.56 187.63,237.54 188.65,235.60 189.66,233.77 190.68,232.01 191.69,230.39 192.71,228.86 193.72,227.47 194.74,226.21 195.75,225.10 196.77,224.12 197.78,223.30 198.80,222.59 199.81,222.03 200.83,221.54 201.84,221.16 202.86,220.84 203.87,220.60 204.89,220.39 205.90,220.24 206.92,220.10 207.93,220.01 208.95,219.92 209.96,219.87 210.98,219.81 211.99,219.78 213.01,219.73 214.02,219.72 215.04,219.69 216.05,219.68 217.07,219.66 218.08,219.66 219.10,219.64 220.11,219.65 221.13,219.63 222.14,219.64 223.16,219.62 224.17,219.63 225.19,219.62 226.20,219.63 227.22,219.62 228.23,219.63 229.25,219.62 230.26,219.62 231.28,219.62 232.29,219.62 233.31,219.61 234.32,219.62 235.34,219.61 236.35,219.62 237.37,219.61 238.38,219.62 239.40,219.61 240.41,219.62 241.43,219.61 242.44,219.62 243.46,219.61 244.47,219.62 245.49,219.62 246.50,219.62 247.52,219.62 248.53,219.63 249.55,219.62 250.56,219.63 251.58,219.62 252.59,219.63 253.61,219.62 254.62,219.64 255.64,219.65 256.65,219.69 257.67,219.74 258.68,219.83 259.70,219.95 260.71,220.14 261.73,220.39 262.74,220.76 263.76,221.21 264.77,221.81 265.79,222.51 266.80,223.36 267.82,224.31 268.83,225.41 269.85,226.59 270.86,227.86 271.88,229.21 272.89,230.67 273.91,232.26 274.92,233.93 275.94,235.65 276.95,237.45 277.97,239.28 278.98,241.17 280.00,243.07 281.01,245.03 282.03,247.00 283.04,249.00 284.06,250.99 285.07,253.00 286.09,255.00 287.10,257.01 288.12,259.00 289.13,261.01 290.15,262.99 291.16,265.00 292.18,266.99 293.19,269.00 294.21,270.98 295.22,272.98 296.24,274.95 297.25,277.08 298.27,279.14 299.28,281.15 300.30,283.08 301.31,284.96 302.33,286.78 303.34,288.56 304.36,290.28 305.37,291.96 306.39,293.57 307.40,295.15 308.42,296.66 309.43,298.14 310.45,299.55 311.46,300.92 312.48,302.22 313.49,303.48 314.51,304.66 315.52,305.81 316.54,306.88 317.55,307.92 318.57,308.87 319.58,309.78 320.60,310.62 321.61,311.41 322.63,312.13 323.64,312.80 324.66,313.39 325.67,313.94 326.69,314.41 327.70,314.83 328.72,315.17 329.73,315.47 330.75,315.69 331.76,315.87 332.78,315.96 333.79,316.01 334.81,315.98 335.82,315.91 336.84,315.76 337.85,315.56 338.87,315.28 339.88,314.96 340.90,314.57 341.91,314.12 342.93,313.61 343.94,313.05 344.96,312.41 345.97,311.73 346.99,310.98 348.00,310.19 349.02,309.32 350.03,308.41 351.05,307.44 352.06,306.42 353.08,305.33 354.09,304.21 355.11,303.02 356.12,301.79 357.14,300.50 358.15,299.17 359.17,297.78 360.18,296.35 361.20,294.87 362.21,293.35 363.23,291.78 364.24,290.18 365.26,288.52 366.27,286.84 367.29,285.11 368.30,283.36 369.32,281.55 370.33,279.73 371.35,277.86 372.36,275.99 373.38,274.07 374.39,272.14 375.41,270.18 376.42,268.21 377.44,266.03 378.45,263.87 379.47,261.69 380.48,259.51 381.50,257.32 382.51,255.13 383.53,252.91 384.54,250.68 385.56,248.40 386.57,246.07 387.59,243.78 388.59,241.62 389.60,239.50 390.62,237.49 391.63,235.54 392.65,233.71 393.66,231.96 394.68,230.34 395.69,228.81 396.71,227.43 397.72,226.16 398.74,225.06 399.75,224.09 400.77,223.27 401.78,222.57 402.80,222.00 403.81,221.52 404.83,221.14 405.84,220.82 406.86,220.59 407.87,220.38 408.89,220.23 409.90,220.09 410.92,220.00 411.93,219.91 412.95,219.85 413.96,219.79 414.98,219.76 415.99,219.72 417.01,219.71 418.02,219.68 419.04,219.67 420.05,219.65 421.07,219.65 422.08,219.63 423.10,219.64 424.11,219.62 425.13,219.63 426.14,219.61 427.16,219.62 428.17,219.61 429.19,219.62 430.20,219.61 431.22,219.62 432.23,219.61 433.25,219.62 434.26,219.61 435.28,219.61 436.29,219.61 437.31,219.61 438.32,219.60 439.34,219.61 440.35,219.60 441.37,219.61 442.38,219.60 443.40,219.61 444.41,219.61 445.43,219.61 446.44,219.61 447.46,219.61 448.47,219.61 449.49,219.61 450.50,219.61 451.52,219.62 452.53,219.61 453.55,219.62 454.56,219.61 455.58,219.62 456.59,219.61 457.61,219.63 458.62,219.64 459.64,219.68 460.65,219.72 461.67,219.81 462.68,219.93 463.70,220.12 464.71,220.36 465.73,220.72 466.74,221.17 467.76,221.76 468.77,222.46 469.79,223.30 470.80,224.25 471.82,225.33 472.83,226.51 473.85,227.77 474.86,229.12 475.88,230.58 476.89,232.16 477.91,233.83 478.92,235.55 479.94,237.34 480.95,239.17 481.97,241.06 482.98,242.96 484.00,244.92 485.01,246.88 486.03,248.88 487.04,250.87 488.06,252.89 489.07,254.89 490.09,256.90 491.10,258.89 492.12,260.89 493.13,262.88 494.15,264.88 495.16,266.87 496.18,268.88 497.19,270.87 498.21,272.86 499.22,274.83 500.24,276.96 501.25,279.02 502.27,281.03 503.28,282.96 504.30,284.85 505.31,286.66 506.33,288.45 507.34,290.16 508.36,291.84 509.37,293.46 510.39,295.04 511.40,296.55 512.42,298.03 513.43,299.44 514.45,300.81 515.46,302.11 516.48,303.37 517.49,304.56 518.51,305.71 519.52,306.78 520.54,307.81 521.55,308.77 522.57,309.68 523.58,310.52 524.60,311.31 525.61,312.03 526.63,312.70 527.64,313.29 528.66,313.84 529.67,314.31 530.69,314.74 531.70,315.08 532.72,315.38 533.73,315.60 534.75,315.78 535.76,315.87 536.78,315.92 537.79,315.90 538.81,315.82 539.82,315.67 540.84,315.47 541.85,315.20 542.87,314.88 543.88,314.48 544.90,314.04 545.91,313.53 546.93,312.97 547.94,312.33 548.96,311.66 549.97,310.90 550.99,310.11 552.00,309.25 553.02,308.34 554.03,307.36 555.05,306.35 556.06,305.26 557.08,304.14 558.09,302.95 559.11,301.72 560.12,300.43 561.14,299.10 562.15,297.71 563.17,296.29 564.18,294.80 565.20,293.29 566.21,291.71 567.23,290.11 568.24,288.46 569.26,286.78 570.27,285.04 571.29,283.29 572.30,281.49 573.32,279.67 574.33,277.80 575.35,275.92 576.36,274.00 577.38,272.08 578.39,270.12 579.41,268.15 580.42,265.97 581.44,263.81 582.45,261.62 583.47,259.45 584.48,257.26 585.50,255.07 586.51,252.85 587.53,250.62 588.54,248.33 589.56,246.01 590.57,243.72 591.58,241.55 592.59,239.44 593.61,237.42 594.62,235.48 595.64,233.65 596.65,231.91 597.67,230.28 598.68,228.76 599.70,227.38 600.71,226.12 601.73,225.02 602.74,224.05 603.76,223.24 604.77,222.54 605.79,221.98 606.80,221.50 607.82,221.12 608.83,220.81 609.85,220.57 610.86,220.36 611.88,220.21 612.89,220.08 613.91,219.99 614.92,219.90 615.94,219.84 616.95,219.78 617.97,219.75 618.98,219.71 620.00,219.70 621.01,219.67 622.03,219.66 623.04,219.64 624.06,219.64 625.07,219.62 626.09,219.63 627.10,219.61 628.12,219.62 629.13,219.60 630.15,219.61 631.16,219.60 632.18,219.61 633.19,219.60 634.21,219.61 635.22,219.60 636.24,219.61 637.25,219.60 638.27,219.60 639.28,219.60 640.30,219.60 641.31,219.60 642.33,219.60 643.34,219.60 644.36,219.60 645.37,219.60 646.39,219.60 647.40,219.60 648.42,219.60 649.43,219.60 650.45,219.60 651.46,219.60 652.48,219.61 653.49,219.60 654.51,219.61 655.52,219.60 656.54,219.61 657.55,219.60 658.57,219.61 659.58,219.60 660.60,219.62 661.61,219.63 662.63,219.67 663.64,219.71 664.66,219.80 665.67,219.91 666.69,220.09 667.70,220.34 668.72,220.69 669.73,221.14 670.75,221.72 671.76,222.41 672.78,223.24 673.79,224.18 674.81,225.26 675.82,226.43 676.84,227.69 677.85,229.04 678.87,230.49 679.88,232.07 680.90,233.74 681.91,235.45 682.93,237.24 683.94,239.06 684.96,240.95 685.97,242.85 686.99,244.81 688.00,246.77 689.02,248.77 690.03,250.76 691.05,252.78 692.06,254.77 693.08,256.79 694.09,258.78 695.11,260.78 696.12,262.76 697.14,264.77 698.15,266.76 699.17,268.76 700.18,270.75 701.20,272.75 702.21,274.71 703.23,276.85 704.24,278.91 705.26,280.92 706.27,282.85 707.29,284.73 708.30,286.55 709.32,288.33 710.33,290.05 711.35,291.73 712.36,293.35 713.38,294.93 714.39,296.44 715.41,297.92 716.42,299.33 717.44,300.70 718.45,302.00 719.47,303.26 720.48,304.45 721.50,305.60 722.51,306.68 723.53,307.71 724.54,308.67 725.56,309.58 726.57,310.42 727.59,311.22 728.60,311.93 729.62,312.60 730.63,313.20 731.65,313.75 732.66,314.22 733.68,314.64 734.69,314.99 735.71,315.29 736.72,315.51 737.74,315.69 738.75,315.79 739.77,315.84 740.78,315.81 741.80,315.74 742.81,315.59 743.83,315.39 744.84,315.12 745.86,314.80 746.87,314.40 747.89,313.96 748.90,313.45 749.92,312.89 750.93,312.26 751.95,311.58 752.96,310.83 753.98,310.04 754.99,309.17 756.01,308.27 757.02,307.29 758.04,306.27 759.05,305.19 760.07,304.07 761.08,302.87 762.10,301.65 763.11,300.36 764.13,299.03 765.14,297.64 766.16,296.22 767.17,294.73 768.19,293.22 769.20,291.65 770.22,290.05 771.23,288.39 772.25,286.71 773.26,284.98 774.28,283.23 775.29,281.42 776.31,279.60 777.32,277.74 778.34,275.86 779.35,273.94 780.37,272.01 781.38,270.05 782.40,268.09 783.41,265.91 784.43,263.74 785.44,261.56 786.46,259.39 787.47,257.19 788.49,255.00 789.50,252.78 790.52,250.55 791.53,248.27 792.55,245.94 793.56,243.65 794.57,241.49 795.58,239.37 796.60,237.36 797.61,235.42 798.63,233.60 799.64,231.85 800.66,230.23 801.67,228.71 802.69,227.33 803.70,226.08 804.72,224.98 805.73,224.02 806.75,223.21 807.76,222.51 808.78,221.95 809.79,221.47 810.81,221.10 811.82,220.79 812.84,220.55 813.85,220.35 814.87,220.20 815.88,220.06 816.90,219.97 817.91,219.89 818.93,219.83 819.94,219.77 820.96,219.74 821.97,219.70 822.99,219.69 824.00,219.66 825.02,219.65 826.03,219.63 827.05,219.63 828.06,219.61 829.08,219.62 830.09,219.60 831.11,219.61 832.12,219.60 833.14,219.60 834.15,219.59 835.17,219.60 836.18,219.59 837.20,219.60 838.21,219.59 839.23,219.60 840.24,219.59 841.26,219.60 842.27,219.59 843.29,219.59 844.30,219.59 845.32,219.59 846.33,219.59 847.35,219.59 848.36,219.59 849.38,219.59 850.39,219.59 851.41,219.59 852.42,219.59 853.44,219.60 854.45,219.59 855.47,219.60 856.48,219.59 857.50,219.60 858.51,219.59 859.53,219.60 860.54,219.59 861.56,219.60 862.57,219.59 863.59,219.61 864.60,219.61 865.62,219.65 866.63,219.70 867.65,219.78 868.66,219.89 869.68,220.07 870.69,220.31 871.71,220.66 872.72,221.10 873.74,221.67 874.75,222.36 875.77,223.18 876.78,224.12 877.80,225.19 878.81,226.36 879.83,227.62 880.84,228.95 881.86,230.40 882.87,231.98 883.89,233.65 884.90,235.36 885.92,237.14 886.93,238.96 887.95,240.85" fill="none" stroke="#1665d8" stroke-width="3" stroke-linejoin="round"/>
<polyline points="76.00,257.73 77.01,256.49 78.03,255.24 79.05,254.00 80.06,252.77 81.07,251.54 82.09,250.31 83.11,249.10 84.12,247.89 85.14,246.69 86.15,245.51 87.16,244.33 88.18,243.17 89.20,242.02 90.21,240.89 91.22,239.78 92.24,238.69 93.26,237.61 94.27,236.55 95.28,235.52 96.30,234.50 97.32,233.52 98.33,232.55 99.35,231.61 100.36,230.70 101.38,229.81 102.39,228.95 103.41,228.12 104.42,227.32 105.43,226.54 106.45,225.80 107.47,225.10 108.48,224.42 109.49,223.78 110.51,223.17 111.53,222.59 112.54,222.05 113.55,221.55 114.57,221.08 115.59,220.65 116.60,220.26 117.62,219.90 118.63,219.58 119.64,219.30 120.66,219.05 121.68,218.85 122.69,218.68 123.70,218.55 124.72,218.46 125.74,218.41 126.75,218.40 127.76,218.43 128.78,218.50 129.80,218.60 130.81,218.75 131.82,218.93 132.84,219.15 133.86,219.41 134.87,219.71 135.89,220.05 136.90,220.42 137.91,220.83 138.93,221.28 139.95,221.77 140.96,222.29 141.97,222.84 142.99,223.43 144.01,224.05 145.02,224.71 146.03,225.40 147.05,226.12 148.07,226.88 149.08,227.66 150.09,228.48 151.11,229.32 152.13,230.19 153.14,231.09 154.16,232.02 155.17,232.97 156.18,233.94 157.20,234.94 158.22,235.97 159.23,237.01 160.24,238.08 161.26,239.16 162.28,240.26 163.29,241.38 164.30,242.52 165.32,243.67 166.34,244.84 167.35,246.02 168.37,247.21 169.38,248.41 170.40,249.63 171.41,250.85 172.43,252.07 173.44,253.31 174.45,254.54 175.47,255.78 176.49,257.03 177.50,258.27 178.51,259.51 179.53,260.76 180.55,262.00 181.56,263.23 182.57,264.46 183.59,265.69 184.61,266.90 185.60,268.09 186.62,269.29 187.63,270.48 188.65,271.65 189.66,272.81 190.68,273.96 191.69,275.09 192.71,276.20 193.72,277.30 194.74,278.37 195.75,279.43 196.77,280.47 197.78,281.48 198.80,282.47 199.81,283.44 200.83,284.38 201.84,285.29 202.86,286.18 203.87,287.04 204.89,287.87 205.90,288.67 206.92,289.44 207.93,290.18 208.95,290.89 209.96,291.57 210.98,292.21 211.99,292.82 213.01,293.40 214.02,293.94 215.04,294.44 216.05,294.91 217.07,295.34 218.08,295.74 219.10,296.10 220.11,296.42 221.13,296.70 222.14,296.94 223.16,297.15 224.17,297.32 225.19,297.45 226.20,297.54 227.22,297.59 228.23,297.60 229.25,297.57 230.26,297.51 231.28,297.40 232.29,297.26 233.31,297.07 234.32,296.85 235.34,296.59 236.35,296.29 237.37,295.96 238.38,295.58 239.40,295.17 240.41,294.73 241.43,294.24 242.44,293.72 243.46,293.17 244.47,292.58 245.49,291.96 246.50,291.30 247.52,290.61 248.53,289.89 249.55,289.14 250.56,288.35 251.58,287.54 252.59,286.69 253.61,285.82 254.62,284.92 255.64,284.00 256.65,283.05 257.67,282.07 258.68,281.07 259.70,280.05 260.71,279.01 261.73,277.94 262.74,276.86 263.76,275.75 264.77,274.63 265.79,273.50 266.80,272.34 267.82,271.18 268.83,270.00 269.85,268.81 270.86,267.60 271.88,266.39 272.89,265.17 273.91,263.95 274.92,262.71 275.94,261.48 276.95,260.24 277.97,258.99 278.98,257.75 280.00,256.50 281.01,255.26 282.03,254.02 283.04,252.79 284.06,251.56 285.07,250.33 286.09,249.12 287.10,247.91 288.12,246.71 289.13,245.52 290.15,244.35 291.16,243.19 292.18,242.04 293.19,240.91 294.21,239.80 295.22,238.70 296.24,237.63 297.25,236.57 298.27,235.53 299.28,234.52 300.30,233.53 301.31,232.56 302.33,231.62 303.34,230.71 304.36,229.82 305.37,228.96 306.39,228.13 307.40,227.33 308.42,226.56 309.43,225.82 310.45,225.11 311.46,224.43 312.48,223.79 313.49,223.18 314.51,222.60 315.52,222.06 316.54,221.56 317.55,221.09 318.57,220.66 319.58,220.26 320.60,219.90 321.61,219.58 322.63,219.30 323.64,219.06 324.66,218.85 325.67,218.68 326.69,218.55 327.70,218.46 328.72,218.41 329.73,218.40 330.75,218.43 331.76,218.49 332.78,218.60 333.79,218.74 334.81,218.93 335.82,219.15 336.84,219.41 337.85,219.71 338.87,220.04 339.88,220.42 340.90,220.83 341.91,221.27 342.93,221.76 343.94,222.28 344.96,222.83 345.97,223.42 346.99,224.04 348.00,224.70 349.02,225.39 350.03,226.11 351.05,226.86 352.06,227.65 353.08,228.46 354.09,229.31 355.11,230.18 356.12,231.08 357.14,232.00 358.15,232.95 359.17,233.93 360.18,234.93 361.20,235.95 362.21,236.99 363.23,238.06 364.24,239.14 365.26,240.25 366.27,241.37 367.29,242.50 368.30,243.66 369.32,244.82 370.33,246.00 371.35,247.19 372.36,248.40 373.38,249.61 374.39,250.83 375.41,252.05 376.42,253.29 377.44,254.52 378.45,255.76 379.47,257.01 380.48,258.25 381.50,259.50 382.51,260.74 383.53,261.98 384.54,263.21 385.56,264.44 386.57,265.67 387.59,266.88 388.59,268.07 389.60,269.27 390.62,270.46 391.63,271.63 392.65,272.80 393.66,273.94 394.68,275.07 395.69,276.19 396.71,277.28 397.72,278.36 398.74,279.42 399.75,280.45 400.77,281.47 401.78,282.46 402.80,283.42 403.81,284.36 404.83,285.28 405.84,286.17 406.86,287.03 407.87,287.86 408.89,288.66 409.90,289.43 410.92,290.17 411.93,290.88 412.95,291.56 413.96,292.20 414.98,292.81 415.99,293.39 417.01,293.93 418.02,294.44 419.04,294.90 420.05,295.34 421.07,295.73 422.08,296.09 423.10,296.41 424.11,296.70 425.13,296.94 426.14,297.15 427.16,297.32 428.17,297.45 429.19,297.54 430.20,297.59 431.22,297.60 432.23,297.57 433.25,297.51 434.26,297.40 435.28,297.26 436.29,297.08 437.31,296.85 438.32,296.59 439.34,296.30 440.35,295.96 441.37,295.59 442.38,295.18 443.40,294.73 444.41,294.25 445.43,293.73 446.44,293.18 447.46,292.59 448.47,291.97 449.49,291.31 450.50,290.62 451.52,289.90 452.53,289.15 453.55,288.36 454.56,287.55 455.58,286.71 456.59,285.84 457.61,284.94 458.62,284.01 459.64,283.06 460.65,282.09 461.67,281.09 462.68,280.06 463.70,279.02 464.71,277.96 465.73,276.87 466.74,275.77 467.76,274.65 468.77,273.51 469.79,272.36 470.80,271.19 471.82,270.01 472.83,268.82 473.85,267.62 474.86,266.41 475.88,265.19 476.89,263.96 477.91,262.73 478.92,261.49 479.94,260.25 480.95,259.01 481.97,257.77 482.98,256.52 484.00,255.28 485.01,254.04 486.03,252.80 487.04,251.57 488.06,250.35 489.07,249.13 490.09,247.93 491.10,246.73 492.12,245.54 493.13,244.37 494.15,243.20 495.16,242.06 496.18,240.93 497.19,239.81 498.21,238.72 499.22,237.64 500.24,236.58 501.25,235.55 502.27,234.53 503.28,233.54 504.30,232.58 505.31,231.64 506.33,230.72 507.34,229.83 508.36,228.97 509.37,228.14 510.39,227.34 511.40,226.57 512.42,225.83 513.43,225.12 514.45,224.44 515.46,223.80 516.48,223.19 517.49,222.61 518.51,222.07 519.52,221.56 520.54,221.10 521.55,220.66 522.57,220.27 523.58,219.91 524.60,219.59 525.61,219.30 526.63,219.06 527.64,218.85 528.66,218.68 529.67,218.55 530.69,218.46 531.70,218.41 532.72,218.40 533.73,218.43 534.75,218.49 535.76,218.60 536.78,218.74 537.79,218.92 538.81,219.15 539.82,219.41 540.84,219.70 541.85,220.04 542.87,220.41 543.88,220.82 544.90,221.27 545.91,221.75 546.93,222.27 547.94,222.82 548.96,223.41 549.97,224.03 550.99,224.69 552.00,225.38 553.02,226.10 554.03,226.85 555.05,227.64 556.06,228.45 557.08,229.29 558.09,230.16 559.11,231.06 560.12,231.99 561.14,232.94 562.15,233.91 563.17,234.91 564.18,235.94 565.20,236.98 566.21,238.04 567.23,239.13 568.24,240.23 569.26,241.35 570.27,242.49 571.29,243.64 572.30,244.81 573.32,245.99 574.33,247.18 575.35,248.38 576.36,249.59 577.38,250.81 578.39,252.04 579.41,253.27 580.42,254.51 581.44,255.75 582.45,256.99 583.47,258.23 584.48,259.48 585.50,260.72 586.51,261.96 587.53,263.20 588.54,264.43 589.56,265.65 590.57,266.87 591.58,268.06 592.59,269.26 593.61,270.44 594.62,271.62 595.64,272.78 596.65,273.93 597.67,275.06 598.68,276.17 599.70,277.27 600.71,278.35 601.73,279.40 602.74,280.44 603.76,281.45 604.77,282.44 605.79,283.41 606.80,284.35 607.82,285.27 608.83,286.16 609.85,287.02 610.86,287.85 611.88,288.65 612.89,289.42 613.91,290.16 614.92,290.87 615.94,291.55 616.95,292.20 617.97,292.81 618.98,293.38 620.00,293.92 621.01,294.43 622.03,294.90 623.04,295.33 624.06,295.73 625.07,296.09 626.09,296.41 627.10,296.69 628.12,296.94 629.13,297.15 630.15,297.31 631.16,297.44 632.18,297.53 633.19,297.59 634.21,297.60 635.22,297.57 636.24,297.51 637.25,297.40 638.27,297.26 639.28,297.08 640.30,296.86 641.31,296.60 642.33,296.30 643.34,295.97 644.36,295.59 645.37,295.18 646.39,294.74 647.40,294.26 648.42,293.74 649.43,293.18 650.45,292.60 651.46,291.97 652.48,291.32 653.49,290.63 654.51,289.91 655.52,289.16 656.54,288.37 657.55,287.56 658.57,286.72 659.58,285.85 660.60,284.95 661.61,284.02 662.63,283.07 663.64,282.10 664.66,281.10 665.67,280.08 666.69,279.03 667.70,277.97 668.72,276.89 669.73,275.78 670.75,274.66 671.76,273.53 672.78,272.37 673.79,271.21 674.81,270.03 675.82,268.84 676.84,267.64 677.85,266.43 678.87,265.21 679.88,263.98 680.90,262.75 681.91,261.51 682.93,260.27 683.94,259.03 684.96,257.78 685.97,256.54 686.99,255.30 688.00,254.06 689.02,252.82 690.03,251.59 691.05,250.37 692.06,249.15 693.08,247.94 694.09,246.74 695.11,245.56 696.12,244.38 697.14,243.22 698.15,242.07 699.17,240.94 700.18,239.83 701.20,238.73 702.21,237.65 703.23,236.60 704.24,235.56 705.26,234.55 706.27,233.56 707.29,232.59 708.30,231.65 709.32,230.73 710.33,229.84 711.35,228.98 712.36,228.15 713.38,227.35 714.39,226.58 715.41,225.84 716.42,225.13 717.44,224.45 718.45,223.80 719.47,223.19 720.48,222.62 721.50,222.08 722.51,221.57 723.53,221.10 724.54,220.67 725.56,220.27 726.57,219.91 727.59,219.59 728.60,219.31 729.62,219.06 730.63,218.85 731.65,218.69 732.66,218.56 733.68,218.47 734.69,218.41 735.71,218.40 736.72,218.43 737.74,218.49 738.75,218.60 739.77,218.74 740.78,218.92 741.80,219.14 742.81,219.40 743.83,219.70 744.84,220.03 745.86,220.41 746.87,220.82 747.89,221.26 748.90,221.74 749.92,222.26 750.93,222.82 751.95,223.40 752.96,224.03 753.98,224.68 754.99,225.37 756.01,226.09 757.02,226.84 758.04,227.63 759.05,228.44 760.07,229.28 761.08,230.15 762.10,231.05 763.11,231.98 764.13,232.93 765.14,233.90 766.16,234.90 767.17,235.92 768.19,236.97 769.20,238.03 770.22,239.11 771.23,240.22 772.25,241.34 773.26,242.47 774.28,243.63 775.29,244.79 776.31,245.97 777.32,247.16 778.34,248.36 779.35,249.57 780.37,250.79 781.38,252.02 782.40,253.25 783.41,254.49 784.43,255.73 785.44,256.97 786.46,258.22 787.47,259.46 788.49,260.70 789.50,261.94 790.52,263.18 791.53,264.41 792.55,265.63 793.56,266.85 794.57,268.05 795.58,269.24 796.60,270.43 797.61,271.61 798.63,272.77 799.64,273.91 800.66,275.04 801.67,276.16 802.69,277.26 803.70,278.33 804.72,279.39 805.73,280.43 806.75,281.44 807.76,282.43 808.78,283.40 809.79,284.34 810.81,285.26 811.82,286.15 812.84,287.01 813.85,287.84 814.87,288.64 815.88,289.41 816.90,290.16 817.91,290.87 818.93,291.54 819.94,292.19 820.96,292.80 821.97,293.38 822.99,293.92 824.00,294.42 825.02,294.89 826.03,295.33 827.05,295.72 828.06,296.08 829.08,296.41 830.09,296.69 831.11,296.94 832.12,297.14 833.14,297.31 834.15,297.44 835.17,297.53 836.18,297.59 837.20,297.60 838.21,297.57 839.23,297.51 840.24,297.40 841.26,297.26 842.27,297.08 843.29,296.86 844.30,296.60 845.32,296.30 846.33,295.97 847.35,295.60 848.36,295.19 849.38,294.74 850.39,294.26 851.41,293.74 852.42,293.19 853.44,292.60 854.45,291.98 855.47,291.33 856.48,290.64 857.50,289.92 858.51,289.16 859.53,288.38 860.54,287.57 861.56,286.73 862.57,285.86 863.59,284.96 864.60,284.03 865.62,283.08 866.63,282.11 867.65,281.11 868.66,280.09 869.68,279.05 870.69,277.98 871.71,276.90 872.72,275.80 873.74,274.68 874.75,273.54 875.77,272.39 876.78,271.22 877.80,270.04 878.81,268.85 879.83,267.65 880.84,266.44 881.86,265.22 882.87,263.99 883.89,262.76 884.90,261.52 885.92,260.28 886.93,259.04 887.95,257.80" fill="none" stroke="#b54708" stroke-width="3" stroke-linejoin="round"/>
<rect x="670" y="62" width="190" height="96" rx="4" ry="4" fill="#fff" fill-opacity="0.82" stroke="#111" stroke-width="1"/>
<line x1="682" y1="78" x2="718" y2="78" stroke="#13795b" stroke-width="3"/>
<text x="728" y="83" font-family="Arial, Helvetica, sans-serif" font-size="13" font-weight="400" text-anchor="start" fill="#111">amp out AC</text>
<line x1="682" y1="104" x2="718" y2="104" stroke="#1665d8" stroke-width="3"/>
<text x="728" y="109" font-family="Arial, Helvetica, sans-serif" font-size="13" font-weight="400" text-anchor="start" fill="#111">load output</text>
<line x1="682" y1="130" x2="718" y2="130" stroke="#b54708" stroke-width="3"/>
<text x="728" y="135" font-family="Arial, Helvetica, sans-serif" font-size="13" font-weight="400" text-anchor="start" fill="#111">input x2</text>
<text x="460" y="502" font-family="Arial, Helvetica, sans-serif" font-size="14" font-weight="400" text-anchor="middle" fill="#111">Time after 40 ms settling, ms</text>
<text x="22" y="260" font-family="Arial, Helvetica, sans-serif" font-size="14" text-anchor="middle" fill="#111" transform="rotate(-90 22 260)">AC voltage, mV</text>
</svg>
