<svg xmlns="http://www.w3.org/2000/svg" width="920" height="520" viewBox="0 0 920 520">
<defs>
<style>
.wire{stroke:#111;stroke-width:2.6;fill:none;stroke-linecap:round;stroke-linejoin:round}
.thin{stroke:#a7b0bd;stroke-width:1.2;fill:none;stroke-linecap:round;stroke-linejoin:round}
.axis{stroke:#111;stroke-width:1.4;fill:none}
.blue{stroke:#1665d8;stroke-width:3;fill:none;stroke-linecap:round;stroke-linejoin:round}
.green{stroke:#13795b;stroke-width:3;fill:none;stroke-linecap:round;stroke-linejoin:round}
.orange{stroke:#b54708;stroke-width:3;fill:none;stroke-linecap:round;stroke-linejoin:round}
.node{fill:#111;stroke:none}
</style>
</defs>
<rect width="100%" height="100%" fill="#fff"/>
<text x="76" y="36" font-family="Arial, Helvetica, sans-serif" font-size="22" font-weight="700" text-anchor="start" fill="#111">Bootstrap square response, 10 kHz, Vin = 2.0 mVpp</text>
<rect x="76" y="60" width="812" height="396" fill="#fff" stroke="#111" stroke-width="1.4"/>
<line x1="76" y1="60" x2="76" y2="456" class="thin"/>
<text x="76" y="479" font-family="Arial, Helvetica, sans-serif" font-size="12" font-weight="400" text-anchor="middle" fill="#111">0</text>
<line x1="279" y1="60" x2="279" y2="456" class="thin"/>
<text x="279" y="479" font-family="Arial, Helvetica, sans-serif" font-size="12" font-weight="400" text-anchor="middle" fill="#111">0.1</text>
<line x1="482" y1="60" x2="482" y2="456" class="thin"/>
<text x="482" y="479" font-family="Arial, Helvetica, sans-serif" font-size="12" font-weight="400" text-anchor="middle" fill="#111">0.2</text>
<line x1="685" y1="60" x2="685" y2="456" class="thin"/>
<text x="685" y="479" font-family="Arial, Helvetica, sans-serif" font-size="12" font-weight="400" text-anchor="middle" fill="#111">0.3</text>
<line x1="888" y1="60" x2="888" y2="456" class="thin"/>
<text x="888" y="479" font-family="Arial, Helvetica, sans-serif" font-size="12" font-weight="400" text-anchor="middle" fill="#111">0.4</text>
<line x1="76" y1="456" x2="888" y2="456" class="thin"/>
<text x="66" y="460" font-family="Arial, Helvetica, sans-serif" font-size="12" font-weight="400" text-anchor="end" fill="#111">-0.004</text>
<line x1="76" y1="357" x2="888" y2="357" class="thin"/>
<text x="66" y="361" font-family="Arial, Helvetica, sans-serif" font-size="12" font-weight="400" text-anchor="end" fill="#111">-0.002</text>
<line x1="76" y1="258" x2="888" y2="258" class="thin"/>
<text x="66" y="262" font-family="Arial, Helvetica, sans-serif" font-size="12" font-weight="400" text-anchor="end" fill="#111">0</text>
<line x1="76" y1="159" x2="888" y2="159" class="thin"/>
<text x="66" y="163" font-family="Arial, Helvetica, sans-serif" font-size="12" font-weight="400" text-anchor="end" fill="#111">0.002</text>
<line x1="76" y1="60" x2="888" y2="60" class="thin"/>
<text x="66" y="64" font-family="Arial, Helvetica, sans-serif" font-size="12" font-weight="400" text-anchor="end" fill="#111">0.004</text>
<polyline points="76.00,129.51 76.04,129.60 76.12,129.82 76.28,130.31 76.59,131.52 76.99,133.46 77.39,135.89 77.71,138.20 78.03,140.82 78.07,141.04 78.15,141.47 78.31,142.30 78.62,143.98 79.02,146.06 79.42,148.14 79.81,150.21 80.21,152.28 80.61,154.33 81.00,156.37 81.40,158.40 81.80,160.43 82.19,162.44 82.59,164.45 82.99,166.44 83.38,168.43 83.78,170.40 84.18,172.36 84.57,174.31 84.97,176.25 85.36,178.18 85.76,180.10 86.16,182.01 86.55,183.90 86.95,185.78 87.35,187.66 87.74,189.52 88.14,191.37 88.54,193.20 88.93,195.03 89.33,196.84 89.73,198.65 90.12,200.44 90.52,202.22 90.92,203.98 91.31,205.74 91.71,207.48 92.11,209.21 92.50,210.93 92.90,212.64 93.29,214.33 93.69,216.02 94.09,217.69 94.48,219.35 94.88,221.00 95.28,222.64 95.67,224.26 96.07,225.88 96.47,227.48 96.86,229.07 97.26,230.65 97.66,232.22 98.05,233.78 98.45,235.32 98.85,236.86 99.24,238.38 99.64,239.89 100.03,241.39 100.43,242.88 100.83,244.36 101.22,245.83 101.62,247.28 102.02,248.73 102.41,250.16 102.81,251.59 103.21,253.00 103.60,254.40 104.00,255.80 104.40,257.18 104.79,258.55 105.19,259.91 105.59,261.26 105.98,262.60 106.38,263.93 106.78,265.25 107.17,266.56 107.57,267.86 107.96,269.15 108.36,270.43 108.76,271.70 109.15,272.97 109.55,274.22 109.95,275.46 110.34,276.69 110.74,277.91 111.14,279.13 111.53,280.33 111.93,281.52 112.33,282.71 112.72,283.89 113.12,285.05 113.52,286.21 113.91,287.36 114.31,288.50 114.70,289.63 115.10,290.76 115.50,291.87 115.89,292.98 116.29,294.07 116.69,295.16 117.08,296.24 117.48,297.31 117.88,298.38 118.27,299.43 118.67,300.48 119.07,301.52 119.46,302.55 119.86,303.57 120.26,304.58 120.65,305.59 121.05,306.59 121.45,307.58 121.84,308.56 122.24,309.54 122.63,310.51 123.03,311.47 123.43,312.42 123.82,313.37 124.22,314.30 124.62,315.24 125.01,316.16 125.41,317.08 125.81,317.98 126.20,318.89 126.60,319.78 127.00,320.67 127.39,321.55 127.79,322.43 128.19,323.29 128.58,324.15 128.98,325.01 129.37,325.85 129.77,326.69 130.17,327.53 130.56,328.36 130.96,329.18 131.36,329.99 131.75,330.80 132.15,331.60 132.55,332.40 132.94,333.19 133.34,333.97 133.74,334.75 134.13,335.52 134.53,336.28 134.93,337.04 135.32,337.80 135.72,338.54 136.11,339.28 136.51,340.02 136.91,340.75 137.30,341.47 137.70,342.19 138.10,342.90 138.49,343.61 138.89,344.31 139.29,345.01 139.68,345.70 140.08,346.39 140.48,347.07 140.87,347.74 141.27,348.41 141.67,349.07 142.06,349.73 142.46,350.39 142.86,351.03 143.25,351.68 143.65,352.32 144.04,352.95 144.44,353.58 144.84,354.20 145.23,354.82 145.63,355.43 146.03,356.04 146.42,356.65 146.82,357.25 147.22,357.84 147.61,358.43 148.01,359.02 148.41,359.60 148.80,360.17 149.20,360.75 149.60,361.31 149.99,361.88 150.39,362.43 150.78,362.99 151.18,363.54 151.58,364.08 151.97,364.62 152.37,365.16 152.77,365.69 153.16,366.22 153.56,366.75 153.96,367.27 154.35,367.78 154.75,368.29 155.15,368.80 155.54,369.31 155.94,369.81 156.34,370.30 156.73,370.80 157.13,371.28 157.53,371.77 157.92,372.25 158.32,372.73 158.71,373.20 159.11,373.67 159.51,374.14 159.90,374.60 160.30,375.06 160.70,375.51 161.09,375.96 161.49,376.41 161.89,376.86 162.28,377.30 162.68,377.73 163.08,378.17 163.47,378.60 163.87,379.03 164.27,379.45 164.66,379.87 165.06,380.29 165.45,380.70 165.85,381.11 166.25,381.52 166.64,381.92 167.04,382.33 167.44,382.72 167.83,383.12 168.23,383.51 168.63,383.90 169.02,384.28 169.42,384.67 169.82,385.05 170.21,385.42 170.61,385.80 171.01,386.17 171.40,386.54 171.80,386.90 172.20,387.26 172.59,387.62 172.99,387.98 173.38,388.33 173.78,388.68 174.18,389.03 174.57,389.38 174.97,389.72 175.37,390.06 175.76,390.40 176.16,390.73 176.56,391.06 176.95,391.39 177.35,391.72 177.75,392.04 178.14,392.37 178.54,392.69 178.94,393.00 179.23,393.24 179.53,393.47 179.57,393.38 179.65,393.16 179.81,392.65 180.12,391.42 180.52,389.44 180.92,386.99 181.24,384.65 181.56,382.00 181.60,381.78 181.68,381.35 181.84,380.50 182.15,378.80 182.55,376.69 182.95,374.59 183.34,372.49 183.74,370.40 184.14,368.33 184.53,366.26 184.93,364.20 185.33,362.15 185.72,360.11 186.12,358.08 186.52,356.07 186.91,354.06 187.31,352.06 187.71,350.08 188.10,348.11 188.50,346.14 188.89,344.19 189.29,342.25 189.69,340.32 190.08,338.40 190.48,336.50 190.88,334.61 191.27,332.72 191.67,330.85 192.07,329.00 192.46,327.15 192.86,325.31 193.26,323.49 193.65,321.68 194.05,319.88 194.45,318.09 194.84,316.32 195.24,314.56 195.64,312.80 196.03,311.06 196.43,309.34 196.82,307.62 197.22,305.92 197.62,304.23 198.01,302.55 198.41,300.88 198.81,299.22 199.20,297.58 199.60,295.94 200.00,294.32 200.39,292.71 200.79,291.11 201.19,289.53 201.58,287.95 201.98,286.39 202.38,284.84 202.77,283.29 203.17,281.76 203.56,280.25 203.96,278.74 204.36,277.24 204.75,275.76 205.15,274.28 205.55,272.82 205.94,271.37 206.34,269.92 206.74,268.49 207.13,267.07 207.53,265.66 207.93,264.26 208.32,262.87 208.72,261.50 209.12,260.13 209.51,258.77 209.91,257.42 210.31,256.09 210.70,254.76 211.10,253.44 211.49,252.14 211.89,250.84 212.29,249.55 212.68,248.28 213.08,247.01 213.48,245.75 213.87,244.50 214.27,243.26 214.67,242.03 215.06,240.81 215.46,239.60 215.86,238.40 216.25,237.21 216.65,236.03 217.05,234.85 217.44,233.69 217.84,232.53 218.23,231.39 218.63,230.25 219.03,229.12 219.42,228.00 219.82,226.89 220.22,225.78 220.61,224.69 221.01,223.60 221.41,222.53 221.80,221.46 222.20,220.40 222.60,219.34 222.99,218.30 223.39,217.26 223.79,216.23 224.18,215.21 224.58,214.20 224.98,213.19 225.37,212.20 225.77,211.21 226.16,210.23 226.56,209.25 226.96,208.28 227.35,207.33 227.75,206.37 228.15,205.43 228.54,204.49 228.94,203.56 229.34,202.64 229.73,201.73 230.13,200.82 230.53,199.92 230.92,199.02 231.32,198.14 231.72,197.26 232.11,196.38 232.51,195.52 232.90,194.66 233.30,193.80 233.70,192.96 234.09,192.12 234.49,191.29 234.89,190.46 235.28,189.64 235.68,188.82 236.08,188.02 236.47,187.22 236.87,186.42 237.27,185.63 237.66,184.85 238.06,184.07 238.46,183.30 238.85,182.54 239.25,181.78 239.64,181.03 240.04,180.28 240.44,179.54 240.83,178.81 241.23,178.08 241.63,177.35 242.02,176.64 242.42,175.92 242.82,175.22 243.21,174.52 243.61,173.82 244.01,173.13 244.40,172.45 244.80,171.77 245.20,171.09 245.59,170.42 245.99,169.76 246.39,169.10 246.78,168.45 247.18,167.80 247.57,167.16 247.97,166.52 248.37,165.89 248.76,165.26 249.16,164.64 249.56,164.02 249.95,163.40 250.35,162.80 250.75,162.19 251.14,161.59 251.54,161.00 251.94,160.41 252.33,159.82 252.73,159.24 253.13,158.67 253.52,158.10 253.92,157.53 254.31,156.97 254.71,156.41 255.11,155.85 255.50,155.30 255.90,154.76 256.30,154.22 256.69,153.68 257.09,153.15 257.49,152.62 257.88,152.10 258.28,151.58 258.68,151.06 259.07,150.55 259.47,150.04 259.87,149.54 260.26,149.04 260.66,148.54 261.06,148.05 261.45,147.56 261.85,147.08 262.24,146.60 262.64,146.12 263.04,145.65 263.43,145.18 263.83,144.71 264.23,144.25 264.62,143.79 265.02,143.34 265.42,142.88 265.81,142.44 266.21,141.99 266.61,141.55 267.00,141.11 267.40,140.68 267.80,140.25 268.19,139.82 268.59,139.40 268.98,138.98 269.38,138.56 269.78,138.15 270.17,137.74 270.57,137.33 270.97,136.93 271.36,136.52 271.76,136.13 272.16,135.73 272.55,135.34 272.95,134.95 273.35,134.57 273.74,134.18 274.14,133.80 274.54,133.43 274.93,133.05 275.33,132.68 275.73,132.32 276.12,131.95 276.52,131.59 276.91,131.23 277.31,130.87 277.71,130.52 278.10,130.17 278.50,129.82 278.75,129.60 279.00,129.39 279.04,129.48 279.12,129.69 279.28,130.18 279.59,131.39 279.99,133.34 280.39,135.76 280.71,138.08 281.03,140.70 281.07,140.92 281.15,141.34 281.31,142.18 281.62,143.86 282.02,145.94 282.42,148.02 282.81,150.09 283.21,152.15 283.61,154.20 284.00,156.25 284.40,158.28 284.80,160.31 285.19,162.32 285.59,164.33 285.99,166.32 286.38,168.30 286.78,170.27 287.18,172.24 287.57,174.19 287.97,176.13 288.36,178.06 288.76,179.98 289.16,181.88 289.55,183.78 289.95,185.66 290.35,187.53 290.74,189.39 291.14,191.24 291.54,193.08 291.93,194.91 292.33,196.72 292.73,198.52 293.12,200.31 293.52,202.09 293.92,203.86 294.31,205.61 294.71,207.36 295.11,209.09 295.50,210.81 295.90,212.52 296.29,214.21 296.69,215.90 297.09,217.57 297.48,219.23 297.88,220.88 298.28,222.52 298.67,224.14 299.07,225.76 299.47,227.36 299.86,228.95 300.26,230.53 300.66,232.10 301.05,233.65 301.45,235.20 301.85,236.73 302.24,238.26 302.64,239.77 303.03,241.27 303.43,242.76 303.83,244.24 304.22,245.70 304.62,247.16 305.02,248.61 305.41,250.04 305.81,251.46 306.21,252.88 306.60,254.28 307.00,255.67 307.40,257.06 307.79,258.43 308.19,259.79 308.59,261.14 308.98,262.48 309.38,263.81 309.78,265.13 310.17,266.44 310.57,267.74 310.96,269.03 311.36,270.31 311.76,271.58 312.15,272.84 312.55,274.09 312.95,275.34 313.34,276.57 313.74,277.79 314.14,279.00 314.53,280.21 314.93,281.40 315.33,282.59 315.72,283.76 316.12,284.93 316.52,286.09 316.91,287.24 317.31,288.38 317.70,289.51 318.10,290.63 318.50,291.75 318.89,292.85 319.29,293.95 319.69,295.04 320.08,296.12 320.48,297.19 320.88,298.25 321.27,299.31 321.67,300.35 322.07,301.39 322.46,302.42 322.86,303.45 323.26,304.46 323.65,305.47 324.05,306.47 324.45,307.46 324.84,308.44 325.24,309.42 325.63,310.38 326.03,311.34 326.43,312.30 326.82,313.24 327.22,314.18 327.62,315.11 328.01,316.04 328.41,316.95 328.81,317.86 329.20,318.76 329.60,319.66 330.00,320.55 330.39,321.43 330.79,322.30 331.19,323.17 331.58,324.03 331.98,324.88 332.37,325.73 332.77,326.57 333.17,327.41 333.56,328.23 333.96,329.05 334.36,329.87 334.75,330.68 335.15,331.48 335.55,332.28 335.94,333.06 336.34,333.85 336.74,334.62 337.13,335.40 337.53,336.16 337.93,336.92 338.32,337.67 338.72,338.42 339.11,339.16 339.51,339.90 339.91,340.63 340.30,341.35 340.70,342.07 341.10,342.78 341.49,343.49 341.89,344.19 342.29,344.89 342.68,345.58 343.08,346.26 343.48,346.94 343.87,347.62 344.27,348.29 344.67,348.95 345.06,349.61 345.46,350.26 345.86,350.91 346.25,351.55 346.65,352.19 347.04,352.83 347.44,353.45 347.84,354.08 348.23,354.70 348.63,355.31 349.03,355.92 349.42,356.52 349.82,357.12 350.22,357.72 350.61,358.31 351.01,358.89 351.41,359.47 351.80,360.05 352.20,360.62 352.60,361.19 352.99,361.75 353.39,362.31 353.78,362.86 354.18,363.41 354.58,363.96 354.97,364.50 355.37,365.04 355.77,365.57 356.16,366.10 356.56,366.62 356.96,367.14 357.35,367.66 357.75,368.17 358.15,368.68 358.54,369.18 358.94,369.68 359.34,370.18 359.73,370.67 360.13,371.16 360.53,371.65 360.92,372.13 361.32,372.60 361.71,373.08 362.11,373.55 362.51,374.01 362.90,374.48 363.30,374.93 363.70,375.39 364.09,375.84 364.49,376.29 364.89,376.73 365.28,377.17 365.68,377.61 366.08,378.05 366.47,378.48 366.87,378.90 367.27,379.33 367.66,379.75 368.06,380.16 368.45,380.58 368.85,380.99 369.25,381.40 369.64,381.80 370.04,382.20 370.44,382.60 370.83,383.00 371.23,383.39 371.63,383.78 372.02,384.16 372.42,384.54 372.82,384.92 373.21,385.30 373.61,385.67 374.01,386.05 374.40,386.41 374.80,386.78 375.20,387.14 375.59,387.50 375.99,387.86 376.38,388.21 376.78,388.56 377.18,388.91 377.57,389.25 377.97,389.60 378.37,389.94 378.76,390.27 379.16,390.61 379.56,390.94 379.95,391.27 380.35,391.60 380.75,391.92 381.14,392.24 381.54,392.56 381.94,392.88 382.23,393.12 382.53,393.35 382.57,393.26 382.65,393.03 382.81,392.53 383.12,391.29 383.52,389.32 383.92,386.86 384.24,384.53 384.56,381.88 384.60,381.66 384.68,381.23 384.84,380.38 385.15,378.68 385.55,376.57 385.95,374.46 386.34,372.37 386.74,370.28 387.14,368.20 387.53,366.13 387.93,364.08 388.33,362.03 388.72,359.99 389.12,357.96 389.52,355.94 389.91,353.94 390.31,351.94 390.71,349.96 391.10,347.98 391.50,346.02 391.89,344.07 392.29,342.13 392.69,340.20 393.08,338.28 393.48,336.38 393.88,334.48 394.27,332.60 394.67,330.73 395.07,328.87 395.46,327.02 395.86,325.19 396.26,323.37 396.65,321.56 397.05,319.76 397.45,317.97 397.84,316.20 398.24,314.43 398.64,312.68 399.03,310.94 399.43,309.21 399.82,307.50 400.22,305.79 400.62,304.10 401.01,302.42 401.41,300.76 401.81,299.10 402.20,297.45 402.60,295.82 403.00,294.20 403.39,292.59 403.79,290.99 404.19,289.40 404.58,287.83 404.98,286.26 405.38,284.71 405.77,283.17 406.17,281.64 406.56,280.12 406.96,278.61 407.36,277.12 407.75,275.63 408.15,274.16 408.55,272.70 408.94,271.24 409.34,269.80 409.74,268.37 410.13,266.95 410.53,265.54 410.93,264.14 411.32,262.75 411.72,261.37 412.12,260.01 412.51,258.65 412.91,257.30 413.31,255.96 413.70,254.64 414.10,253.32 414.49,252.01 414.89,250.72 415.29,249.43 415.68,248.15 416.08,246.89 416.48,245.63 416.87,244.38 417.27,243.14 417.67,241.91 418.06,240.69 418.46,239.48 418.86,238.28 419.25,237.09 419.65,235.91 420.05,234.73 420.44,233.57 420.84,232.41 421.23,231.26 421.63,230.13 422.03,229.00 422.42,227.88 422.82,226.77 423.22,225.66 423.61,224.57 424.01,223.48 424.41,222.40 424.80,221.33 425.20,220.27 425.60,219.22 425.99,218.17 426.39,217.14 426.79,216.11 427.18,215.09 427.58,214.08 427.98,213.07 428.37,212.07 428.77,211.08 429.16,210.10 429.56,209.13 429.96,208.16 430.35,207.20 430.75,206.25 431.15,205.31 431.54,204.37 431.94,203.44 432.34,202.52 432.73,201.60 433.13,200.70 433.53,199.79 433.92,198.90 434.32,198.01 434.72,197.13 435.11,196.26 435.51,195.39 435.90,194.53 436.30,193.68 436.70,192.84 437.09,192.00 437.49,191.16 437.89,190.34 438.28,189.52 438.68,188.70 439.08,187.89 439.47,187.09 439.87,186.30 440.27,185.51 440.66,184.73 441.06,183.95 441.46,183.18 441.85,182.42 442.25,181.66 442.64,180.91 443.04,180.16 443.44,179.42 443.83,178.68 444.23,177.96 444.63,177.23 445.02,176.51 445.42,175.80 445.82,175.10 446.21,174.39 446.61,173.70 447.01,173.01 447.40,172.32 447.80,171.64 448.20,170.97 448.59,170.30 448.99,169.64 449.39,168.98 449.78,168.33 450.18,167.68 450.57,167.04 450.97,166.40 451.37,165.76 451.76,165.14 452.16,164.51 452.56,163.89 452.95,163.28 453.35,162.67 453.75,162.07 454.14,161.47 454.54,160.88 454.94,160.29 455.33,159.70 455.73,159.12 456.13,158.54 456.52,157.97 456.92,157.41 457.31,156.84 457.71,156.29 458.11,155.73 458.50,155.18 458.90,154.64 459.30,154.10 459.69,153.56 460.09,153.03 460.49,152.50 460.88,151.97 461.28,151.45 461.68,150.94 462.07,150.43 462.47,149.92 462.87,149.41 463.26,148.91 463.66,148.42 464.06,147.93 464.45,147.44 464.85,146.95 465.24,146.47 465.64,146.00 466.04,145.52 466.43,145.05 466.83,144.59 467.23,144.13 467.62,143.67 468.02,143.21 468.42,142.76 468.81,142.31 469.21,141.87 469.61,141.43 470.00,140.99 470.40,140.56 470.80,140.13 471.19,139.70 471.59,139.28 471.98,138.86 472.38,138.44 472.78,138.02 473.17,137.61 473.57,137.21 473.97,136.80 474.36,136.40 474.76,136.00 475.16,135.61 475.55,135.22 475.95,134.83 476.35,134.44 476.74,134.06 477.14,133.68 477.54,133.30 477.93,132.93 478.33,132.56 478.73,132.19 479.12,131.83 479.52,131.47 479.91,131.11 480.31,130.75 480.71,130.40 481.10,130.05 481.50,129.70 481.75,129.48 482.00,129.26 482.04,129.35 482.12,129.57 482.28,130.06 482.59,131.27 482.99,133.22 483.39,135.64 483.71,137.95 484.03,140.58 484.07,140.80 484.15,141.22 484.31,142.06 484.62,143.73 485.02,145.82 485.42,147.90 485.81,149.97 486.21,152.03 486.61,154.08 487.00,156.13 487.40,158.16 487.80,160.18 488.19,162.20 488.59,164.20 488.99,166.20 489.38,168.18 489.78,170.15 490.18,172.11 490.57,174.07 490.97,176.01 491.36,177.93 491.76,179.85 492.16,181.76 492.55,183.66 492.95,185.54 493.35,187.41 493.74,189.27 494.14,191.12 494.54,192.96 494.93,194.78 495.33,196.60 495.73,198.40 496.12,200.19 496.52,201.97 496.92,203.74 497.31,205.49 497.71,207.23 498.11,208.97 498.50,210.68 498.90,212.39 499.29,214.09 499.69,215.77 500.09,217.45 500.48,219.11 500.88,220.75 501.28,222.39 501.67,224.02 502.07,225.63 502.47,227.23 502.86,228.83 503.26,230.41 503.66,231.97 504.05,233.53 504.45,235.08 504.85,236.61 505.24,238.13 505.64,239.64 506.03,241.15 506.43,242.63 506.83,244.11 507.22,245.58 507.62,247.04 508.02,248.48 508.41,249.92 508.81,251.34 509.21,252.76 509.60,254.16 510.00,255.55 510.40,256.93 510.79,258.30 511.19,259.67 511.59,261.02 511.98,262.36 512.38,263.69 512.78,265.01 513.17,266.32 513.57,267.62 513.96,268.91 514.36,270.19 514.76,271.46 515.15,272.72 515.55,273.97 515.95,275.21 516.34,276.44 516.74,277.67 517.14,278.88 517.53,280.08 517.93,281.28 518.33,282.46 518.72,283.64 519.12,284.81 519.52,285.97 519.91,287.12 520.31,288.26 520.70,289.39 521.10,290.51 521.50,291.62 521.89,292.73 522.29,293.83 522.69,294.92 523.08,295.99 523.48,297.07 523.88,298.13 524.27,299.18 524.67,300.23 525.07,301.27 525.46,302.30 525.86,303.32 526.26,304.34 526.65,305.34 527.05,306.34 527.45,307.33 527.84,308.32 528.24,309.29 528.63,310.26 529.03,311.22 529.43,312.17 529.82,313.12 530.22,314.06 530.62,314.99 531.01,315.91 531.41,316.83 531.81,317.74 532.20,318.64 532.60,319.54 533.00,320.42 533.39,321.31 533.79,322.18 534.19,323.05 534.58,323.91 534.98,324.76 535.37,325.61 535.77,326.45 536.17,327.28 536.56,328.11 536.96,328.93 537.36,329.75 537.75,330.56 538.15,331.36 538.55,332.15 538.94,332.94 539.34,333.73 539.74,334.50 540.13,335.27 540.53,336.04 540.93,336.80 541.32,337.55 541.72,338.30 542.11,339.04 542.51,339.77 542.91,340.50 543.30,341.23 543.70,341.95 544.10,342.66 544.49,343.37 544.89,344.07 545.29,344.76 545.68,345.45 546.08,346.14 546.48,346.82 546.87,347.49 547.27,348.16 547.67,348.83 548.06,349.49 548.46,350.14 548.86,350.79 549.25,351.43 549.65,352.07 550.04,352.70 550.44,353.33 550.84,353.96 551.23,354.57 551.63,355.19 552.03,355.80 552.42,356.40 552.82,357.00 553.22,357.60 553.61,358.19 554.01,358.77 554.41,359.35 554.80,359.93 555.20,360.50 555.60,361.07 555.99,361.63 556.39,362.19 556.78,362.74 557.18,363.29 557.58,363.84 557.97,364.38 558.37,364.92 558.77,365.45 559.16,365.98 559.56,366.50 559.96,367.02 560.35,367.54 560.75,368.05 561.15,368.56 561.54,369.06 561.94,369.56 562.34,370.06 562.73,370.55 563.13,371.04 563.53,371.52 563.92,372.00 564.32,372.48 564.71,372.95 565.11,373.42 565.51,373.89 565.90,374.35 566.30,374.81 566.70,375.27 567.09,375.72 567.49,376.17 567.89,376.61 568.28,377.05 568.68,377.49 569.08,377.92 569.47,378.35 569.87,378.78 570.27,379.20 570.66,379.63 571.06,380.04 571.45,380.46 571.85,380.87 572.25,381.27 572.64,381.68 573.04,382.08 573.44,382.48 573.83,382.87 574.23,383.27 574.63,383.65 575.02,384.04 575.42,384.42 575.82,384.80 576.21,385.18 576.61,385.55 577.01,385.92 577.40,386.29 577.80,386.66 578.20,387.02 578.59,387.38 578.99,387.73 579.38,388.09 579.78,388.44 580.18,388.79 580.57,389.13 580.97,389.47 581.37,389.81 581.76,390.15 582.16,390.49 582.56,390.82 582.95,391.15 583.35,391.47 583.75,391.80 584.14,392.12 584.54,392.44 584.94,392.76 585.23,392.99 585.53,393.23 585.57,393.13 585.65,392.91 585.81,392.41 586.12,391.17 586.52,389.19 586.92,386.74 587.24,384.40 587.56,381.76 587.60,381.53 587.68,381.11 587.84,380.26 588.15,378.56 588.55,376.45 588.95,374.34 589.34,372.25 589.74,370.16 590.14,368.08 590.53,366.01 590.93,363.95 591.33,361.90 591.72,359.87 592.12,357.84 592.52,355.82 592.91,353.81 593.31,351.82 593.71,349.83 594.10,347.86 594.50,345.90 594.89,343.95 595.29,342.00 595.69,340.08 596.08,338.16 596.48,336.25 596.88,334.36 597.27,332.48 597.67,330.61 598.07,328.75 598.46,326.90 598.86,325.07 599.26,323.24 599.65,321.43 600.05,319.63 600.45,317.85 600.84,316.07 601.24,314.31 601.64,312.56 602.03,310.82 602.43,309.09 602.82,307.38 603.22,305.67 603.62,303.98 604.01,302.30 604.41,300.63 604.81,298.98 605.20,297.33 605.60,295.70 606.00,294.08 606.39,292.47 606.79,290.87 607.19,289.28 607.58,287.71 607.98,286.14 608.38,284.59 608.77,283.05 609.17,281.52 609.56,280.00 609.96,278.49 610.36,277.00 610.75,275.51 611.15,274.04 611.55,272.57 611.94,271.12 612.34,269.68 612.74,268.25 613.13,266.83 613.53,265.42 613.93,264.02 614.32,262.63 614.72,261.25 615.12,259.88 615.51,258.53 615.91,257.18 616.31,255.84 616.70,254.51 617.10,253.20 617.49,251.89 617.89,250.59 618.29,249.31 618.68,248.03 619.08,246.76 619.48,245.50 619.87,244.26 620.27,243.02 620.67,241.79 621.06,240.57 621.46,239.36 621.86,238.16 622.25,236.97 622.65,235.78 623.05,234.61 623.44,233.44 623.84,232.29 624.23,231.14 624.63,230.00 625.03,228.87 625.42,227.75 625.82,226.64 626.22,225.54 626.61,224.44 627.01,223.36 627.41,222.28 627.80,221.21 628.20,220.15 628.60,219.10 628.99,218.05 629.39,217.02 629.79,215.99 630.18,214.97 630.58,213.95 630.98,212.95 631.37,211.95 631.77,210.96 632.16,209.98 632.56,209.01 632.96,208.04 633.35,207.08 633.75,206.13 634.15,205.18 634.54,204.25 634.94,203.32 635.34,202.40 635.73,201.48 636.13,200.57 636.53,199.67 636.92,198.78 637.32,197.89 637.72,197.01 638.11,196.14 638.51,195.27 638.90,194.41 639.30,193.56 639.70,192.71 640.09,191.87 640.49,191.04 640.89,190.21 641.28,189.39 641.68,188.58 642.08,187.77 642.47,186.97 642.87,186.18 643.27,185.39 643.66,184.61 644.06,183.83 644.46,183.06 644.85,182.29 645.25,181.54 645.64,180.78 646.04,180.04 646.44,179.30 646.83,178.56 647.23,177.83 647.63,177.11 648.02,176.39 648.42,175.68 648.82,174.97 649.21,174.27 649.61,173.58 650.01,172.89 650.40,172.20 650.80,171.52 651.20,170.85 651.59,170.18 651.99,169.52 652.39,168.86 652.78,168.20 653.18,167.56 653.57,166.91 653.97,166.27 654.37,165.64 654.76,165.01 655.16,164.39 655.56,163.77 655.95,163.16 656.35,162.55 656.75,161.95 657.14,161.35 657.54,160.75 657.94,160.16 658.33,159.58 658.73,159.00 659.13,158.42 659.52,157.85 659.92,157.28 660.31,156.72 660.71,156.16 661.11,155.61 661.50,155.06 661.90,154.51 662.30,153.97 662.69,153.44 663.09,152.90 663.49,152.38 663.88,151.85 664.28,151.33 664.68,150.82 665.07,150.30 665.47,149.80 665.87,149.29 666.26,148.79 666.66,148.30 667.06,147.80 667.45,147.32 667.85,146.83 668.24,146.35 668.64,145.87 669.04,145.40 669.43,144.93 669.83,144.47 670.23,144.00 670.62,143.55 671.02,143.09 671.42,142.64 671.81,142.19 672.21,141.75 672.61,141.31 673.00,140.87 673.40,140.43 673.80,140.00 674.19,139.58 674.59,139.15 674.98,138.73 675.38,138.32 675.78,137.90 676.17,137.49 676.57,137.08 676.97,136.68 677.36,136.28 677.76,135.88 678.16,135.49 678.55,135.09 678.95,134.71 679.35,134.32 679.74,133.94 680.14,133.56 680.54,133.18 680.93,132.81 681.33,132.44 681.73,132.07 682.12,131.71 682.52,131.34 682.91,130.98 683.31,130.63 683.71,130.27 684.10,129.92 684.50,129.58 684.75,129.36 685.00,129.14 685.04,129.23 685.12,129.45 685.28,129.94 685.59,131.15 685.99,133.10 686.39,135.52 686.71,137.83 687.03,140.45 687.07,140.68 687.15,141.10 687.31,141.94 687.62,143.61 688.02,145.70 688.42,147.78 688.81,149.84 689.21,151.91 689.61,153.96 690.00,156.00 690.40,158.04 690.80,160.06 691.19,162.07 691.59,164.08 691.99,166.07 692.38,168.06 692.78,170.03 693.18,171.99 693.57,173.94 693.97,175.88 694.36,177.81 694.76,179.73 695.16,181.64 695.55,183.53 695.95,185.42 696.35,187.29 696.74,189.15 697.14,191.00 697.54,192.84 697.93,194.66 698.33,196.48 698.73,198.28 699.12,200.07 699.52,201.85 699.92,203.61 700.31,205.37 700.71,207.11 701.11,208.84 701.50,210.56 701.90,212.27 702.29,213.97 702.69,215.65 703.09,217.32 703.48,218.98 703.88,220.63 704.28,222.27 704.67,223.90 705.07,225.51 705.47,227.11 705.86,228.70 706.26,230.28 706.66,231.85 707.05,233.41 707.45,234.95 707.85,236.49 708.24,238.01 708.64,239.52 709.03,241.02 709.43,242.51 709.83,243.99 710.22,245.46 710.62,246.92 711.02,248.36 711.41,249.80 711.81,251.22 712.21,252.63 712.60,254.04 713.00,255.43 713.40,256.81 713.79,258.18 714.19,259.54 714.59,260.89 714.98,262.23 715.38,263.56 715.78,264.88 716.17,266.20 716.57,267.49 716.96,268.79 717.36,270.07 717.76,271.34 718.15,272.60 718.55,273.85 718.95,275.09 719.34,276.32 719.74,277.54 720.14,278.76 720.53,279.96 720.93,281.16 721.33,282.34 721.72,283.52 722.12,284.69 722.52,285.84 722.91,286.99 723.31,288.13 723.70,289.27 724.10,290.39 724.50,291.50 724.89,292.61 725.29,293.70 725.69,294.79 726.08,295.87 726.48,296.94 726.88,298.01 727.27,299.06 727.67,300.11 728.07,301.15 728.46,302.18 728.86,303.20 729.26,304.22 729.65,305.22 730.05,306.22 730.45,307.21 730.84,308.20 731.24,309.17 731.63,310.14 732.03,311.10 732.43,312.05 732.82,313.00 733.22,313.94 733.62,314.87 734.01,315.79 734.41,316.71 734.81,317.62 735.20,318.52 735.60,319.41 736.00,320.30 736.39,321.18 736.79,322.06 737.19,322.92 737.58,323.79 737.98,324.64 738.37,325.49 738.77,326.33 739.17,327.16 739.56,327.99 739.96,328.81 740.36,329.62 740.75,330.43 741.15,331.23 741.55,332.03 741.94,332.82 742.34,333.60 742.74,334.38 743.13,335.15 743.53,335.92 743.93,336.68 744.32,337.43 744.72,338.18 745.11,338.92 745.51,339.65 745.91,340.38 746.30,341.11 746.70,341.82 747.10,342.54 747.49,343.24 747.89,343.95 748.29,344.64 748.68,345.33 749.08,346.02 749.48,346.70 749.87,347.37 750.27,348.04 750.67,348.71 751.06,349.36 751.46,350.02 751.86,350.67 752.25,351.31 752.65,351.95 753.04,352.58 753.44,353.21 753.84,353.83 754.23,354.45 754.63,355.07 755.03,355.67 755.42,356.28 755.82,356.88 756.22,357.47 756.61,358.06 757.01,358.65 757.41,359.23 757.80,359.81 758.20,360.38 758.60,360.94 758.99,361.51 759.39,362.07 759.78,362.62 760.18,363.17 760.58,363.72 760.97,364.26 761.37,364.79 761.77,365.33 762.16,365.85 762.56,366.38 762.96,366.90 763.35,367.42 763.75,367.93 764.15,368.44 764.54,368.94 764.94,369.44 765.34,369.94 765.73,370.43 766.13,370.92 766.53,371.40 766.92,371.88 767.32,372.36 767.71,372.83 768.11,373.30 768.51,373.77 768.90,374.23 769.30,374.69 769.70,375.14 770.09,375.60 770.49,376.04 770.89,376.49 771.28,376.93 771.68,377.37 772.08,377.80 772.47,378.23 772.87,378.66 773.27,379.08 773.66,379.50 774.06,379.92 774.45,380.33 774.85,380.75 775.25,381.15 775.64,381.56 776.04,381.96 776.44,382.36 776.83,382.75 777.23,383.14 777.63,383.53 778.02,383.92 778.42,384.30 778.82,384.68 779.21,385.06 779.61,385.43 780.01,385.80 780.40,386.17 780.80,386.53 781.20,386.90 781.59,387.26 781.99,387.61 782.38,387.97 782.78,388.32 783.18,388.66 783.57,389.01 783.97,389.35 784.37,389.69 784.76,390.03 785.16,390.36 785.56,390.70 785.95,391.03 786.35,391.35 786.75,391.68 787.14,392.00 787.54,392.32 787.94,392.63 788.23,392.87 788.53,393.11 788.57,393.01 788.65,392.79 788.81,392.28 789.12,391.05 789.52,389.07 789.92,386.62 790.24,384.28 790.56,381.64 790.60,381.41 790.68,380.98 790.84,380.13 791.15,378.44 791.55,376.32 791.95,374.22 792.34,372.12 792.74,370.03 793.14,367.96 793.53,365.89 793.93,363.83 794.33,361.78 794.72,359.74 795.12,357.72 795.52,355.70 795.91,353.69 796.31,351.70 796.71,349.71 797.10,347.74 797.50,345.77 797.89,343.82 798.29,341.88 798.69,339.95 799.08,338.04 799.48,336.13 799.88,334.24 800.27,332.36 800.67,330.49 801.07,328.63 801.46,326.78 801.86,324.95 802.26,323.12 802.65,321.31 803.05,319.51 803.45,317.73 803.84,315.95 804.24,314.19 804.64,312.44 805.03,310.70 805.43,308.97 805.82,307.25 806.22,305.55 806.62,303.86 807.01,302.18 807.41,300.51 807.81,298.85 808.20,297.21 808.60,295.58 809.00,293.95 809.39,292.34 809.79,290.75 810.19,289.16 810.58,287.58 810.98,286.02 811.38,284.47 811.77,282.93 812.17,281.40 812.56,279.88 812.96,278.37 813.36,276.87 813.75,275.39 814.15,273.91 814.55,272.45 814.94,271.00 815.34,269.56 815.74,268.12 816.13,266.70 816.53,265.29 816.93,263.90 817.32,262.51 817.72,261.13 818.12,259.76 818.51,258.40 818.91,257.06 819.31,255.72 819.70,254.39 820.10,253.08 820.49,251.77 820.89,250.47 821.29,249.18 821.68,247.91 822.08,246.64 822.48,245.38 822.87,244.13 823.27,242.90 823.67,241.67 824.06,240.45 824.46,239.24 824.86,238.04 825.25,236.84 825.65,235.66 826.05,234.49 826.44,233.32 826.84,232.17 827.23,231.02 827.63,229.88 828.03,228.75 828.42,227.63 828.82,226.52 829.22,225.42 829.61,224.32 830.01,223.24 830.41,222.16 830.80,221.09 831.20,220.03 831.60,218.97 831.99,217.93 832.39,216.89 832.79,215.86 833.18,214.84 833.58,213.83 833.98,212.83 834.37,211.83 834.77,210.84 835.16,209.86 835.56,208.88 835.96,207.92 836.35,206.96 836.75,206.01 837.15,205.06 837.54,204.13 837.94,203.20 838.34,202.27 838.73,201.36 839.13,200.45 839.53,199.55 839.92,198.66 840.32,197.77 840.72,196.89 841.11,196.02 841.51,195.15 841.90,194.29 842.30,193.44 842.70,192.59 843.09,191.75 843.49,190.92 843.89,190.09 844.28,189.27 844.68,188.46 845.08,187.65 845.47,186.85 845.87,186.05 846.27,185.27 846.66,184.48 847.06,183.71 847.46,182.94 847.85,182.17 848.25,181.41 848.64,180.66 849.04,179.91 849.44,179.17 849.83,178.44 850.23,177.71 850.63,176.99 851.02,176.27 851.42,175.56 851.82,174.85 852.21,174.15 852.61,173.45 853.01,172.76 853.40,172.08 853.80,171.40 854.20,170.73 854.59,170.06 854.99,169.39 855.39,168.73 855.78,168.08 856.18,167.43 856.57,166.79 856.97,166.15 857.37,165.52 857.76,164.89 858.16,164.27 858.56,163.65 858.95,163.04 859.35,162.43 859.75,161.82 860.14,161.23 860.54,160.63 860.94,160.04 861.33,159.46 861.73,158.88 862.13,158.30 862.52,157.73 862.92,157.16 863.31,156.60 863.71,156.04 864.11,155.49 864.50,154.94 864.90,154.39 865.30,153.85 865.69,153.31 866.09,152.78 866.49,152.25 866.88,151.73 867.28,151.21 867.68,150.69 868.07,150.18 868.47,149.67 868.87,149.17 869.26,148.67 869.66,148.17 870.06,147.68 870.45,147.19 870.85,146.71 871.24,146.23 871.64,145.75 872.04,145.28 872.43,144.81 872.83,144.34 873.23,143.88 873.62,143.42 874.02,142.97 874.42,142.52 874.81,142.07 875.21,141.62 875.61,141.18 876.00,140.75 876.40,140.31 876.80,139.88 877.19,139.46 877.59,139.03 877.98,138.61 878.38,138.19 878.78,137.78 879.17,137.37 879.57,136.96 879.97,136.56 880.36,136.16 880.76,135.76 881.16,135.36 881.55,134.97 881.95,134.58 882.35,134.20 882.74,133.82 883.14,133.44 883.54,133.06 883.93,132.69 884.33,132.32 884.73,131.95 885.12,131.58 885.52,131.22 885.91,130.86 886.31,130.51 886.71,130.15 887.10,129.80 887.50,129.45 887.75,129.24" fill="none" stroke="#1665d8" stroke-width="3" stroke-linejoin="round"/>
<line x1="660" y1="88" x2="696" y2="88" stroke="#1665d8" stroke-width="3"/>
<text x="706" y="93" font-family="Arial, Helvetica, sans-serif" font-size="13" font-weight="400" text-anchor="start" fill="#111">load output</text>
<polyline points="76.00,393.47 76.04,388.18 76.12,377.60 76.28,356.43 76.59,314.09 76.99,261.18 77.39,208.26 77.71,165.39 78.03,122.53 78.07,122.53 78.15,122.53 78.31,122.53 78.62,122.53 79.02,122.53 79.42,122.53 79.81,122.53 80.21,122.53 80.61,122.53 81.00,122.53 81.40,122.53 81.80,122.53 82.19,122.53 82.59,122.53 82.99,122.53 83.38,122.53 83.78,122.53 84.18,122.53 84.57,122.53 84.97,122.53 85.36,122.53 85.76,122.53 86.16,122.53 86.55,122.53 86.95,122.53 87.35,122.53 87.74,122.53 88.14,122.53 88.54,122.53 88.93,122.53 89.33,122.53 89.73,122.53 90.12,122.53 90.52,122.53 90.92,122.53 91.31,122.53 91.71,122.53 92.11,122.53 92.50,122.53 92.90,122.53 93.29,122.53 93.69,122.53 94.09,122.53 94.48,122.53 94.88,122.53 95.28,122.53 95.67,122.53 96.07,122.53 96.47,122.53 96.86,122.53 97.26,122.53 97.66,122.53 98.05,122.53 98.45,122.53 98.85,122.53 99.24,122.53 99.64,122.53 100.03,122.53 100.43,122.53 100.83,122.53 101.22,122.53 101.62,122.53 102.02,122.53 102.41,122.53 102.81,122.53 103.21,122.53 103.60,122.53 104.00,122.53 104.40,122.53 104.79,122.53 105.19,122.53 105.59,122.53 105.98,122.53 106.38,122.53 106.78,122.53 107.17,122.53 107.57,122.53 107.96,122.53 108.36,122.53 108.76,122.53 109.15,122.53 109.55,122.53 109.95,122.53 110.34,122.53 110.74,122.53 111.14,122.53 111.53,122.53 111.93,122.53 112.33,122.53 112.72,122.53 113.12,122.53 113.52,122.53 113.91,122.53 114.31,122.53 114.70,122.53 115.10,122.53 115.50,122.53 115.89,122.53 116.29,122.53 116.69,122.53 117.08,122.53 117.48,122.53 117.88,122.53 118.27,122.53 118.67,122.53 119.07,122.53 119.46,122.53 119.86,122.53 120.26,122.53 120.65,122.53 121.05,122.53 121.45,122.53 121.84,122.53 122.24,122.53 122.63,122.53 123.03,122.53 123.43,122.53 123.82,122.53 124.22,122.53 124.62,122.53 125.01,122.53 125.41,122.53 125.81,122.53 126.20,122.53 126.60,122.53 127.00,122.53 127.39,122.53 127.79,122.53 128.19,122.53 128.58,122.53 128.98,122.53 129.37,122.53 129.77,122.53 130.17,122.53 130.56,122.53 130.96,122.53 131.36,122.53 131.75,122.53 132.15,122.53 132.55,122.53 132.94,122.53 133.34,122.53 133.74,122.53 134.13,122.53 134.53,122.53 134.93,122.53 135.32,122.53 135.72,122.53 136.11,122.53 136.51,122.53 136.91,122.53 137.30,122.53 137.70,122.53 138.10,122.53 138.49,122.53 138.89,122.53 139.29,122.53 139.68,122.53 140.08,122.53 140.48,122.53 140.87,122.53 141.27,122.53 141.67,122.53 142.06,122.53 142.46,122.53 142.86,122.53 143.25,122.53 143.65,122.53 144.04,122.53 144.44,122.53 144.84,122.53 145.23,122.53 145.63,122.53 146.03,122.53 146.42,122.53 146.82,122.53 147.22,122.53 147.61,122.53 148.01,122.53 148.41,122.53 148.80,122.53 149.20,122.53 149.60,122.53 149.99,122.53 150.39,122.53 150.78,122.53 151.18,122.53 151.58,122.53 151.97,122.53 152.37,122.53 152.77,122.53 153.16,122.53 153.56,122.53 153.96,122.53 154.35,122.53 154.75,122.53 155.15,122.53 155.54,122.53 155.94,122.53 156.34,122.53 156.73,122.53 157.13,122.53 157.53,122.53 157.92,122.53 158.32,122.53 158.71,122.53 159.11,122.53 159.51,122.53 159.90,122.53 160.30,122.53 160.70,122.53 161.09,122.53 161.49,122.53 161.89,122.53 162.28,122.53 162.68,122.53 163.08,122.53 163.47,122.53 163.87,122.53 164.27,122.53 164.66,122.53 165.06,122.53 165.45,122.53 165.85,122.53 166.25,122.53 166.64,122.53 167.04,122.53 167.44,122.53 167.83,122.53 168.23,122.53 168.63,122.53 169.02,122.53 169.42,122.53 169.82,122.53 170.21,122.53 170.61,122.53 171.01,122.53 171.40,122.53 171.80,122.53 172.20,122.53 172.59,122.53 172.99,122.53 173.38,122.53 173.78,122.53 174.18,122.53 174.57,122.53 174.97,122.53 175.37,122.53 175.76,122.53 176.16,122.53 176.56,122.53 176.95,122.53 177.35,122.53 177.75,122.53 178.14,122.53 178.54,122.53 178.94,122.53 179.23,122.53 179.53,122.53 179.57,127.82 179.65,138.40 179.81,159.57 180.12,201.91 180.52,254.82 180.92,307.74 181.24,350.61 181.56,393.47 181.60,393.47 181.68,393.47 181.84,393.47 182.15,393.47 182.55,393.47 182.95,393.47 183.34,393.47 183.74,393.47 184.14,393.47 184.53,393.47 184.93,393.47 185.33,393.47 185.72,393.47 186.12,393.47 186.52,393.47 186.91,393.47 187.31,393.47 187.71,393.47 188.10,393.47 188.50,393.47 188.89,393.47 189.29,393.47 189.69,393.47 190.08,393.47 190.48,393.47 190.88,393.47 191.27,393.47 191.67,393.47 192.07,393.47 192.46,393.47 192.86,393.47 193.26,393.47 193.65,393.47 194.05,393.47 194.45,393.47 194.84,393.47 195.24,393.47 195.64,393.47 196.03,393.47 196.43,393.47 196.82,393.47 197.22,393.47 197.62,393.47 198.01,393.47 198.41,393.47 198.81,393.47 199.20,393.47 199.60,393.47 200.00,393.47 200.39,393.47 200.79,393.47 201.19,393.47 201.58,393.47 201.98,393.47 202.38,393.47 202.77,393.47 203.17,393.47 203.56,393.47 203.96,393.47 204.36,393.47 204.75,393.47 205.15,393.47 205.55,393.47 205.94,393.47 206.34,393.47 206.74,393.47 207.13,393.47 207.53,393.47 207.93,393.47 208.32,393.47 208.72,393.47 209.12,393.47 209.51,393.47 209.91,393.47 210.31,393.47 210.70,393.47 211.10,393.47 211.49,393.47 211.89,393.47 212.29,393.47 212.68,393.47 213.08,393.47 213.48,393.47 213.87,393.47 214.27,393.47 214.67,393.47 215.06,393.47 215.46,393.47 215.86,393.47 216.25,393.47 216.65,393.47 217.05,393.47 217.44,393.47 217.84,393.47 218.23,393.47 218.63,393.47 219.03,393.47 219.42,393.47 219.82,393.47 220.22,393.47 220.61,393.47 221.01,393.47 221.41,393.47 221.80,393.47 222.20,393.47 222.60,393.47 222.99,393.47 223.39,393.47 223.79,393.47 224.18,393.47 224.58,393.47 224.98,393.47 225.37,393.47 225.77,393.47 226.16,393.47 226.56,393.47 226.96,393.47 227.35,393.47 227.75,393.47 228.15,393.47 228.54,393.47 228.94,393.47 229.34,393.47 229.73,393.47 230.13,393.47 230.53,393.47 230.92,393.47 231.32,393.47 231.72,393.47 232.11,393.47 232.51,393.47 232.90,393.47 233.30,393.47 233.70,393.47 234.09,393.47 234.49,393.47 234.89,393.47 235.28,393.47 235.68,393.47 236.08,393.47 236.47,393.47 236.87,393.47 237.27,393.47 237.66,393.47 238.06,393.47 238.46,393.47 238.85,393.47 239.25,393.47 239.64,393.47 240.04,393.47 240.44,393.47 240.83,393.47 241.23,393.47 241.63,393.47 242.02,393.47 242.42,393.47 242.82,393.47 243.21,393.47 243.61,393.47 244.01,393.47 244.40,393.47 244.80,393.47 245.20,393.47 245.59,393.47 245.99,393.47 246.39,393.47 246.78,393.47 247.18,393.47 247.57,393.47 247.97,393.47 248.37,393.47 248.76,393.47 249.16,393.47 249.56,393.47 249.95,393.47 250.35,393.47 250.75,393.47 251.14,393.47 251.54,393.47 251.94,393.47 252.33,393.47 252.73,393.47 253.13,393.47 253.52,393.47 253.92,393.47 254.31,393.47 254.71,393.47 255.11,393.47 255.50,393.47 255.90,393.47 256.30,393.47 256.69,393.47 257.09,393.47 257.49,393.47 257.88,393.47 258.28,393.47 258.68,393.47 259.07,393.47 259.47,393.47 259.87,393.47 260.26,393.47 260.66,393.47 261.06,393.47 261.45,393.47 261.85,393.47 262.24,393.47 262.64,393.47 263.04,393.47 263.43,393.47 263.83,393.47 264.23,393.47 264.62,393.47 265.02,393.47 265.42,393.47 265.81,393.47 266.21,393.47 266.61,393.47 267.00,393.47 267.40,393.47 267.80,393.47 268.19,393.47 268.59,393.47 268.98,393.47 269.38,393.47 269.78,393.47 270.17,393.47 270.57,393.47 270.97,393.47 271.36,393.47 271.76,393.47 272.16,393.47 272.55,393.47 272.95,393.47 273.35,393.47 273.74,393.47 274.14,393.47 274.54,393.47 274.93,393.47 275.33,393.47 275.73,393.47 276.12,393.47 276.52,393.47 276.91,393.47 277.31,393.47 277.71,393.47 278.10,393.47 278.50,393.47 278.75,393.47 279.00,393.47 279.04,388.18 279.12,377.60 279.28,356.43 279.59,314.09 279.99,261.18 280.39,208.26 280.71,165.39 281.03,122.53 281.07,122.53 281.15,122.53 281.31,122.53 281.62,122.53 282.02,122.53 282.42,122.53 282.81,122.53 283.21,122.53 283.61,122.53 284.00,122.53 284.40,122.53 284.80,122.53 285.19,122.53 285.59,122.53 285.99,122.53 286.38,122.53 286.78,122.53 287.18,122.53 287.57,122.53 287.97,122.53 288.36,122.53 288.76,122.53 289.16,122.53 289.55,122.53 289.95,122.53 290.35,122.53 290.74,122.53 291.14,122.53 291.54,122.53 291.93,122.53 292.33,122.53 292.73,122.53 293.12,122.53 293.52,122.53 293.92,122.53 294.31,122.53 294.71,122.53 295.11,122.53 295.50,122.53 295.90,122.53 296.29,122.53 296.69,122.53 297.09,122.53 297.48,122.53 297.88,122.53 298.28,122.53 298.67,122.53 299.07,122.53 299.47,122.53 299.86,122.53 300.26,122.53 300.66,122.53 301.05,122.53 301.45,122.53 301.85,122.53 302.24,122.53 302.64,122.53 303.03,122.53 303.43,122.53 303.83,122.53 304.22,122.53 304.62,122.53 305.02,122.53 305.41,122.53 305.81,122.53 306.21,122.53 306.60,122.53 307.00,122.53 307.40,122.53 307.79,122.53 308.19,122.53 308.59,122.53 308.98,122.53 309.38,122.53 309.78,122.53 310.17,122.53 310.57,122.53 310.96,122.53 311.36,122.53 311.76,122.53 312.15,122.53 312.55,122.53 312.95,122.53 313.34,122.53 313.74,122.53 314.14,122.53 314.53,122.53 314.93,122.53 315.33,122.53 315.72,122.53 316.12,122.53 316.52,122.53 316.91,122.53 317.31,122.53 317.70,122.53 318.10,122.53 318.50,122.53 318.89,122.53 319.29,122.53 319.69,122.53 320.08,122.53 320.48,122.53 320.88,122.53 321.27,122.53 321.67,122.53 322.07,122.53 322.46,122.53 322.86,122.53 323.26,122.53 323.65,122.53 324.05,122.53 324.45,122.53 324.84,122.53 325.24,122.53 325.63,122.53 326.03,122.53 326.43,122.53 326.82,122.53 327.22,122.53 327.62,122.53 328.01,122.53 328.41,122.53 328.81,122.53 329.20,122.53 329.60,122.53 330.00,122.53 330.39,122.53 330.79,122.53 331.19,122.53 331.58,122.53 331.98,122.53 332.37,122.53 332.77,122.53 333.17,122.53 333.56,122.53 333.96,122.53 334.36,122.53 334.75,122.53 335.15,122.53 335.55,122.53 335.94,122.53 336.34,122.53 336.74,122.53 337.13,122.53 337.53,122.53 337.93,122.53 338.32,122.53 338.72,122.53 339.11,122.53 339.51,122.53 339.91,122.53 340.30,122.53 340.70,122.53 341.10,122.53 341.49,122.53 341.89,122.53 342.29,122.53 342.68,122.53 343.08,122.53 343.48,122.53 343.87,122.53 344.27,122.53 344.67,122.53 345.06,122.53 345.46,122.53 345.86,122.53 346.25,122.53 346.65,122.53 347.04,122.53 347.44,122.53 347.84,122.53 348.23,122.53 348.63,122.53 349.03,122.53 349.42,122.53 349.82,122.53 350.22,122.53 350.61,122.53 351.01,122.53 351.41,122.53 351.80,122.53 352.20,122.53 352.60,122.53 352.99,122.53 353.39,122.53 353.78,122.53 354.18,122.53 354.58,122.53 354.97,122.53 355.37,122.53 355.77,122.53 356.16,122.53 356.56,122.53 356.96,122.53 357.35,122.53 357.75,122.53 358.15,122.53 358.54,122.53 358.94,122.53 359.34,122.53 359.73,122.53 360.13,122.53 360.53,122.53 360.92,122.53 361.32,122.53 361.71,122.53 362.11,122.53 362.51,122.53 362.90,122.53 363.30,122.53 363.70,122.53 364.09,122.53 364.49,122.53 364.89,122.53 365.28,122.53 365.68,122.53 366.08,122.53 366.47,122.53 366.87,122.53 367.27,122.53 367.66,122.53 368.06,122.53 368.45,122.53 368.85,122.53 369.25,122.53 369.64,122.53 370.04,122.53 370.44,122.53 370.83,122.53 371.23,122.53 371.63,122.53 372.02,122.53 372.42,122.53 372.82,122.53 373.21,122.53 373.61,122.53 374.01,122.53 374.40,122.53 374.80,122.53 375.20,122.53 375.59,122.53 375.99,122.53 376.38,122.53 376.78,122.53 377.18,122.53 377.57,122.53 377.97,122.53 378.37,122.53 378.76,122.53 379.16,122.53 379.56,122.53 379.95,122.53 380.35,122.53 380.75,122.53 381.14,122.53 381.54,122.53 381.94,122.53 382.23,122.53 382.53,122.53 382.57,127.82 382.65,138.40 382.81,159.57 383.12,201.91 383.52,254.82 383.92,307.74 384.24,350.61 384.56,393.47 384.60,393.47 384.68,393.47 384.84,393.47 385.15,393.47 385.55,393.47 385.95,393.47 386.34,393.47 386.74,393.47 387.14,393.47 387.53,393.47 387.93,393.47 388.33,393.47 388.72,393.47 389.12,393.47 389.52,393.47 389.91,393.47 390.31,393.47 390.71,393.47 391.10,393.47 391.50,393.47 391.89,393.47 392.29,393.47 392.69,393.47 393.08,393.47 393.48,393.47 393.88,393.47 394.27,393.47 394.67,393.47 395.07,393.47 395.46,393.47 395.86,393.47 396.26,393.47 396.65,393.47 397.05,393.47 397.45,393.47 397.84,393.47 398.24,393.47 398.64,393.47 399.03,393.47 399.43,393.47 399.82,393.47 400.22,393.47 400.62,393.47 401.01,393.47 401.41,393.47 401.81,393.47 402.20,393.47 402.60,393.47 403.00,393.47 403.39,393.47 403.79,393.47 404.19,393.47 404.58,393.47 404.98,393.47 405.38,393.47 405.77,393.47 406.17,393.47 406.56,393.47 406.96,393.47 407.36,393.47 407.75,393.47 408.15,393.47 408.55,393.47 408.94,393.47 409.34,393.47 409.74,393.47 410.13,393.47 410.53,393.47 410.93,393.47 411.32,393.47 411.72,393.47 412.12,393.47 412.51,393.47 412.91,393.47 413.31,393.47 413.70,393.47 414.10,393.47 414.49,393.47 414.89,393.47 415.29,393.47 415.68,393.47 416.08,393.47 416.48,393.47 416.87,393.47 417.27,393.47 417.67,393.47 418.06,393.47 418.46,393.47 418.86,393.47 419.25,393.47 419.65,393.47 420.05,393.47 420.44,393.47 420.84,393.47 421.23,393.47 421.63,393.47 422.03,393.47 422.42,393.47 422.82,393.47 423.22,393.47 423.61,393.47 424.01,393.47 424.41,393.47 424.80,393.47 425.20,393.47 425.60,393.47 425.99,393.47 426.39,393.47 426.79,393.47 427.18,393.47 427.58,393.47 427.98,393.47 428.37,393.47 428.77,393.47 429.16,393.47 429.56,393.47 429.96,393.47 430.35,393.47 430.75,393.47 431.15,393.47 431.54,393.47 431.94,393.47 432.34,393.47 432.73,393.47 433.13,393.47 433.53,393.47 433.92,393.47 434.32,393.47 434.72,393.47 435.11,393.47 435.51,393.47 435.90,393.47 436.30,393.47 436.70,393.47 437.09,393.47 437.49,393.47 437.89,393.47 438.28,393.47 438.68,393.47 439.08,393.47 439.47,393.47 439.87,393.47 440.27,393.47 440.66,393.47 441.06,393.47 441.46,393.47 441.85,393.47 442.25,393.47 442.64,393.47 443.04,393.47 443.44,393.47 443.83,393.47 444.23,393.47 444.63,393.47 445.02,393.47 445.42,393.47 445.82,393.47 446.21,393.47 446.61,393.47 447.01,393.47 447.40,393.47 447.80,393.47 448.20,393.47 448.59,393.47 448.99,393.47 449.39,393.47 449.78,393.47 450.18,393.47 450.57,393.47 450.97,393.47 451.37,393.47 451.76,393.47 452.16,393.47 452.56,393.47 452.95,393.47 453.35,393.47 453.75,393.47 454.14,393.47 454.54,393.47 454.94,393.47 455.33,393.47 455.73,393.47 456.13,393.47 456.52,393.47 456.92,393.47 457.31,393.47 457.71,393.47 458.11,393.47 458.50,393.47 458.90,393.47 459.30,393.47 459.69,393.47 460.09,393.47 460.49,393.47 460.88,393.47 461.28,393.47 461.68,393.47 462.07,393.47 462.47,393.47 462.87,393.47 463.26,393.47 463.66,393.47 464.06,393.47 464.45,393.47 464.85,393.47 465.24,393.47 465.64,393.47 466.04,393.47 466.43,393.47 466.83,393.47 467.23,393.47 467.62,393.47 468.02,393.47 468.42,393.47 468.81,393.47 469.21,393.47 469.61,393.47 470.00,393.47 470.40,393.47 470.80,393.47 471.19,393.47 471.59,393.47 471.98,393.47 472.38,393.47 472.78,393.47 473.17,393.47 473.57,393.47 473.97,393.47 474.36,393.47 474.76,393.47 475.16,393.47 475.55,393.47 475.95,393.47 476.35,393.47 476.74,393.47 477.14,393.47 477.54,393.47 477.93,393.47 478.33,393.47 478.73,393.47 479.12,393.47 479.52,393.47 479.91,393.47 480.31,393.47 480.71,393.47 481.10,393.47 481.50,393.47 481.75,393.47 482.00,393.47 482.04,388.18 482.12,377.60 482.28,356.43 482.59,314.09 482.99,261.18 483.39,208.26 483.71,165.39 484.03,122.53 484.07,122.53 484.15,122.53 484.31,122.53 484.62,122.53 485.02,122.53 485.42,122.53 485.81,122.53 486.21,122.53 486.61,122.53 487.00,122.53 487.40,122.53 487.80,122.53 488.19,122.53 488.59,122.53 488.99,122.53 489.38,122.53 489.78,122.53 490.18,122.53 490.57,122.53 490.97,122.53 491.36,122.53 491.76,122.53 492.16,122.53 492.55,122.53 492.95,122.53 493.35,122.53 493.74,122.53 494.14,122.53 494.54,122.53 494.93,122.53 495.33,122.53 495.73,122.53 496.12,122.53 496.52,122.53 496.92,122.53 497.31,122.53 497.71,122.53 498.11,122.53 498.50,122.53 498.90,122.53 499.29,122.53 499.69,122.53 500.09,122.53 500.48,122.53 500.88,122.53 501.28,122.53 501.67,122.53 502.07,122.53 502.47,122.53 502.86,122.53 503.26,122.53 503.66,122.53 504.05,122.53 504.45,122.53 504.85,122.53 505.24,122.53 505.64,122.53 506.03,122.53 506.43,122.53 506.83,122.53 507.22,122.53 507.62,122.53 508.02,122.53 508.41,122.53 508.81,122.53 509.21,122.53 509.60,122.53 510.00,122.53 510.40,122.53 510.79,122.53 511.19,122.53 511.59,122.53 511.98,122.53 512.38,122.53 512.78,122.53 513.17,122.53 513.57,122.53 513.96,122.53 514.36,122.53 514.76,122.53 515.15,122.53 515.55,122.53 515.95,122.53 516.34,122.53 516.74,122.53 517.14,122.53 517.53,122.53 517.93,122.53 518.33,122.53 518.72,122.53 519.12,122.53 519.52,122.53 519.91,122.53 520.31,122.53 520.70,122.53 521.10,122.53 521.50,122.53 521.89,122.53 522.29,122.53 522.69,122.53 523.08,122.53 523.48,122.53 523.88,122.53 524.27,122.53 524.67,122.53 525.07,122.53 525.46,122.53 525.86,122.53 526.26,122.53 526.65,122.53 527.05,122.53 527.45,122.53 527.84,122.53 528.24,122.53 528.63,122.53 529.03,122.53 529.43,122.53 529.82,122.53 530.22,122.53 530.62,122.53 531.01,122.53 531.41,122.53 531.81,122.53 532.20,122.53 532.60,122.53 533.00,122.53 533.39,122.53 533.79,122.53 534.19,122.53 534.58,122.53 534.98,122.53 535.37,122.53 535.77,122.53 536.17,122.53 536.56,122.53 536.96,122.53 537.36,122.53 537.75,122.53 538.15,122.53 538.55,122.53 538.94,122.53 539.34,122.53 539.74,122.53 540.13,122.53 540.53,122.53 540.93,122.53 541.32,122.53 541.72,122.53 542.11,122.53 542.51,122.53 542.91,122.53 543.30,122.53 543.70,122.53 544.10,122.53 544.49,122.53 544.89,122.53 545.29,122.53 545.68,122.53 546.08,122.53 546.48,122.53 546.87,122.53 547.27,122.53 547.67,122.53 548.06,122.53 548.46,122.53 548.86,122.53 549.25,122.53 549.65,122.53 550.04,122.53 550.44,122.53 550.84,122.53 551.23,122.53 551.63,122.53 552.03,122.53 552.42,122.53 552.82,122.53 553.22,122.53 553.61,122.53 554.01,122.53 554.41,122.53 554.80,122.53 555.20,122.53 555.60,122.53 555.99,122.53 556.39,122.53 556.78,122.53 557.18,122.53 557.58,122.53 557.97,122.53 558.37,122.53 558.77,122.53 559.16,122.53 559.56,122.53 559.96,122.53 560.35,122.53 560.75,122.53 561.15,122.53 561.54,122.53 561.94,122.53 562.34,122.53 562.73,122.53 563.13,122.53 563.53,122.53 563.92,122.53 564.32,122.53 564.71,122.53 565.11,122.53 565.51,122.53 565.90,122.53 566.30,122.53 566.70,122.53 567.09,122.53 567.49,122.53 567.89,122.53 568.28,122.53 568.68,122.53 569.08,122.53 569.47,122.53 569.87,122.53 570.27,122.53 570.66,122.53 571.06,122.53 571.45,122.53 571.85,122.53 572.25,122.53 572.64,122.53 573.04,122.53 573.44,122.53 573.83,122.53 574.23,122.53 574.63,122.53 575.02,122.53 575.42,122.53 575.82,122.53 576.21,122.53 576.61,122.53 577.01,122.53 577.40,122.53 577.80,122.53 578.20,122.53 578.59,122.53 578.99,122.53 579.38,122.53 579.78,122.53 580.18,122.53 580.57,122.53 580.97,122.53 581.37,122.53 581.76,122.53 582.16,122.53 582.56,122.53 582.95,122.53 583.35,122.53 583.75,122.53 584.14,122.53 584.54,122.53 584.94,122.53 585.23,122.53 585.53,122.53 585.57,127.82 585.65,138.40 585.81,159.57 586.12,201.91 586.52,254.82 586.92,307.74 587.24,350.61 587.56,393.47 587.60,393.47 587.68,393.47 587.84,393.47 588.15,393.47 588.55,393.47 588.95,393.47 589.34,393.47 589.74,393.47 590.14,393.47 590.53,393.47 590.93,393.47 591.33,393.47 591.72,393.47 592.12,393.47 592.52,393.47 592.91,393.47 593.31,393.47 593.71,393.47 594.10,393.47 594.50,393.47 594.89,393.47 595.29,393.47 595.69,393.47 596.08,393.47 596.48,393.47 596.88,393.47 597.27,393.47 597.67,393.47 598.07,393.47 598.46,393.47 598.86,393.47 599.26,393.47 599.65,393.47 600.05,393.47 600.45,393.47 600.84,393.47 601.24,393.47 601.64,393.47 602.03,393.47 602.43,393.47 602.82,393.47 603.22,393.47 603.62,393.47 604.01,393.47 604.41,393.47 604.81,393.47 605.20,393.47 605.60,393.47 606.00,393.47 606.39,393.47 606.79,393.47 607.19,393.47 607.58,393.47 607.98,393.47 608.38,393.47 608.77,393.47 609.17,393.47 609.56,393.47 609.96,393.47 610.36,393.47 610.75,393.47 611.15,393.47 611.55,393.47 611.94,393.47 612.34,393.47 612.74,393.47 613.13,393.47 613.53,393.47 613.93,393.47 614.32,393.47 614.72,393.47 615.12,393.47 615.51,393.47 615.91,393.47 616.31,393.47 616.70,393.47 617.10,393.47 617.49,393.47 617.89,393.47 618.29,393.47 618.68,393.47 619.08,393.47 619.48,393.47 619.87,393.47 620.27,393.47 620.67,393.47 621.06,393.47 621.46,393.47 621.86,393.47 622.25,393.47 622.65,393.47 623.05,393.47 623.44,393.47 623.84,393.47 624.23,393.47 624.63,393.47 625.03,393.47 625.42,393.47 625.82,393.47 626.22,393.47 626.61,393.47 627.01,393.47 627.41,393.47 627.80,393.47 628.20,393.47 628.60,393.47 628.99,393.47 629.39,393.47 629.79,393.47 630.18,393.47 630.58,393.47 630.98,393.47 631.37,393.47 631.77,393.47 632.16,393.47 632.56,393.47 632.96,393.47 633.35,393.47 633.75,393.47 634.15,393.47 634.54,393.47 634.94,393.47 635.34,393.47 635.73,393.47 636.13,393.47 636.53,393.47 636.92,393.47 637.32,393.47 637.72,393.47 638.11,393.47 638.51,393.47 638.90,393.47 639.30,393.47 639.70,393.47 640.09,393.47 640.49,393.47 640.89,393.47 641.28,393.47 641.68,393.47 642.08,393.47 642.47,393.47 642.87,393.47 643.27,393.47 643.66,393.47 644.06,393.47 644.46,393.47 644.85,393.47 645.25,393.47 645.64,393.47 646.04,393.47 646.44,393.47 646.83,393.47 647.23,393.47 647.63,393.47 648.02,393.47 648.42,393.47 648.82,393.47 649.21,393.47 649.61,393.47 650.01,393.47 650.40,393.47 650.80,393.47 651.20,393.47 651.59,393.47 651.99,393.47 652.39,393.47 652.78,393.47 653.18,393.47 653.57,393.47 653.97,393.47 654.37,393.47 654.76,393.47 655.16,393.47 655.56,393.47 655.95,393.47 656.35,393.47 656.75,393.47 657.14,393.47 657.54,393.47 657.94,393.47 658.33,393.47 658.73,393.47 659.13,393.47 659.52,393.47 659.92,393.47 660.31,393.47 660.71,393.47 661.11,393.47 661.50,393.47 661.90,393.47 662.30,393.47 662.69,393.47 663.09,393.47 663.49,393.47 663.88,393.47 664.28,393.47 664.68,393.47 665.07,393.47 665.47,393.47 665.87,393.47 666.26,393.47 666.66,393.47 667.06,393.47 667.45,393.47 667.85,393.47 668.24,393.47 668.64,393.47 669.04,393.47 669.43,393.47 669.83,393.47 670.23,393.47 670.62,393.47 671.02,393.47 671.42,393.47 671.81,393.47 672.21,393.47 672.61,393.47 673.00,393.47 673.40,393.47 673.80,393.47 674.19,393.47 674.59,393.47 674.98,393.47 675.38,393.47 675.78,393.47 676.17,393.47 676.57,393.47 676.97,393.47 677.36,393.47 677.76,393.47 678.16,393.47 678.55,393.47 678.95,393.47 679.35,393.47 679.74,393.47 680.14,393.47 680.54,393.47 680.93,393.47 681.33,393.47 681.73,393.47 682.12,393.47 682.52,393.47 682.91,393.47 683.31,393.47 683.71,393.47 684.10,393.47 684.50,393.47 684.75,393.47 685.00,393.47 685.04,388.18 685.12,377.60 685.28,356.43 685.59,314.09 685.99,261.18 686.39,208.26 686.71,165.39 687.03,122.53 687.07,122.53 687.15,122.53 687.31,122.53 687.62,122.53 688.02,122.53 688.42,122.53 688.81,122.53 689.21,122.53 689.61,122.53 690.00,122.53 690.40,122.53 690.80,122.53 691.19,122.53 691.59,122.53 691.99,122.53 692.38,122.53 692.78,122.53 693.18,122.53 693.57,122.53 693.97,122.53 694.36,122.53 694.76,122.53 695.16,122.53 695.55,122.53 695.95,122.53 696.35,122.53 696.74,122.53 697.14,122.53 697.54,122.53 697.93,122.53 698.33,122.53 698.73,122.53 699.12,122.53 699.52,122.53 699.92,122.53 700.31,122.53 700.71,122.53 701.11,122.53 701.50,122.53 701.90,122.53 702.29,122.53 702.69,122.53 703.09,122.53 703.48,122.53 703.88,122.53 704.28,122.53 704.67,122.53 705.07,122.53 705.47,122.53 705.86,122.53 706.26,122.53 706.66,122.53 707.05,122.53 707.45,122.53 707.85,122.53 708.24,122.53 708.64,122.53 709.03,122.53 709.43,122.53 709.83,122.53 710.22,122.53 710.62,122.53 711.02,122.53 711.41,122.53 711.81,122.53 712.21,122.53 712.60,122.53 713.00,122.53 713.40,122.53 713.79,122.53 714.19,122.53 714.59,122.53 714.98,122.53 715.38,122.53 715.78,122.53 716.17,122.53 716.57,122.53 716.96,122.53 717.36,122.53 717.76,122.53 718.15,122.53 718.55,122.53 718.95,122.53 719.34,122.53 719.74,122.53 720.14,122.53 720.53,122.53 720.93,122.53 721.33,122.53 721.72,122.53 722.12,122.53 722.52,122.53 722.91,122.53 723.31,122.53 723.70,122.53 724.10,122.53 724.50,122.53 724.89,122.53 725.29,122.53 725.69,122.53 726.08,122.53 726.48,122.53 726.88,122.53 727.27,122.53 727.67,122.53 728.07,122.53 728.46,122.53 728.86,122.53 729.26,122.53 729.65,122.53 730.05,122.53 730.45,122.53 730.84,122.53 731.24,122.53 731.63,122.53 732.03,122.53 732.43,122.53 732.82,122.53 733.22,122.53 733.62,122.53 734.01,122.53 734.41,122.53 734.81,122.53 735.20,122.53 735.60,122.53 736.00,122.53 736.39,122.53 736.79,122.53 737.19,122.53 737.58,122.53 737.98,122.53 738.37,122.53 738.77,122.53 739.17,122.53 739.56,122.53 739.96,122.53 740.36,122.53 740.75,122.53 741.15,122.53 741.55,122.53 741.94,122.53 742.34,122.53 742.74,122.53 743.13,122.53 743.53,122.53 743.93,122.53 744.32,122.53 744.72,122.53 745.11,122.53 745.51,122.53 745.91,122.53 746.30,122.53 746.70,122.53 747.10,122.53 747.49,122.53 747.89,122.53 748.29,122.53 748.68,122.53 749.08,122.53 749.48,122.53 749.87,122.53 750.27,122.53 750.67,122.53 751.06,122.53 751.46,122.53 751.86,122.53 752.25,122.53 752.65,122.53 753.04,122.53 753.44,122.53 753.84,122.53 754.23,122.53 754.63,122.53 755.03,122.53 755.42,122.53 755.82,122.53 756.22,122.53 756.61,122.53 757.01,122.53 757.41,122.53 757.80,122.53 758.20,122.53 758.60,122.53 758.99,122.53 759.39,122.53 759.78,122.53 760.18,122.53 760.58,122.53 760.97,122.53 761.37,122.53 761.77,122.53 762.16,122.53 762.56,122.53 762.96,122.53 763.35,122.53 763.75,122.53 764.15,122.53 764.54,122.53 764.94,122.53 765.34,122.53 765.73,122.53 766.13,122.53 766.53,122.53 766.92,122.53 767.32,122.53 767.71,122.53 768.11,122.53 768.51,122.53 768.90,122.53 769.30,122.53 769.70,122.53 770.09,122.53 770.49,122.53 770.89,122.53 771.28,122.53 771.68,122.53 772.08,122.53 772.47,122.53 772.87,122.53 773.27,122.53 773.66,122.53 774.06,122.53 774.45,122.53 774.85,122.53 775.25,122.53 775.64,122.53 776.04,122.53 776.44,122.53 776.83,122.53 777.23,122.53 777.63,122.53 778.02,122.53 778.42,122.53 778.82,122.53 779.21,122.53 779.61,122.53 780.01,122.53 780.40,122.53 780.80,122.53 781.20,122.53 781.59,122.53 781.99,122.53 782.38,122.53 782.78,122.53 783.18,122.53 783.57,122.53 783.97,122.53 784.37,122.53 784.76,122.53 785.16,122.53 785.56,122.53 785.95,122.53 786.35,122.53 786.75,122.53 787.14,122.53 787.54,122.53 787.94,122.53 788.23,122.53 788.53,122.53 788.57,127.82 788.65,138.40 788.81,159.57 789.12,201.91 789.52,254.82 789.92,307.74 790.24,350.61 790.56,393.47 790.60,393.47 790.68,393.47 790.84,393.47 791.15,393.47 791.55,393.47 791.95,393.47 792.34,393.47 792.74,393.47 793.14,393.47 793.53,393.47 793.93,393.47 794.33,393.47 794.72,393.47 795.12,393.47 795.52,393.47 795.91,393.47 796.31,393.47 796.71,393.47 797.10,393.47 797.50,393.47 797.89,393.47 798.29,393.47 798.69,393.47 799.08,393.47 799.48,393.47 799.88,393.47 800.27,393.47 800.67,393.47 801.07,393.47 801.46,393.47 801.86,393.47 802.26,393.47 802.65,393.47 803.05,393.47 803.45,393.47 803.84,393.47 804.24,393.47 804.64,393.47 805.03,393.47 805.43,393.47 805.82,393.47 806.22,393.47 806.62,393.47 807.01,393.47 807.41,393.47 807.81,393.47 808.20,393.47 808.60,393.47 809.00,393.47 809.39,393.47 809.79,393.47 810.19,393.47 810.58,393.47 810.98,393.47 811.38,393.47 811.77,393.47 812.17,393.47 812.56,393.47 812.96,393.47 813.36,393.47 813.75,393.47 814.15,393.47 814.55,393.47 814.94,393.47 815.34,393.47 815.74,393.47 816.13,393.47 816.53,393.47 816.93,393.47 817.32,393.47 817.72,393.47 818.12,393.47 818.51,393.47 818.91,393.47 819.31,393.47 819.70,393.47 820.10,393.47 820.49,393.47 820.89,393.47 821.29,393.47 821.68,393.47 822.08,393.47 822.48,393.47 822.87,393.47 823.27,393.47 823.67,393.47 824.06,393.47 824.46,393.47 824.86,393.47 825.25,393.47 825.65,393.47 826.05,393.47 826.44,393.47 826.84,393.47 827.23,393.47 827.63,393.47 828.03,393.47 828.42,393.47 828.82,393.47 829.22,393.47 829.61,393.47 830.01,393.47 830.41,393.47 830.80,393.47 831.20,393.47 831.60,393.47 831.99,393.47 832.39,393.47 832.79,393.47 833.18,393.47 833.58,393.47 833.98,393.47 834.37,393.47 834.77,393.47 835.16,393.47 835.56,393.47 835.96,393.47 836.35,393.47 836.75,393.47 837.15,393.47 837.54,393.47 837.94,393.47 838.34,393.47 838.73,393.47 839.13,393.47 839.53,393.47 839.92,393.47 840.32,393.47 840.72,393.47 841.11,393.47 841.51,393.47 841.90,393.47 842.30,393.47 842.70,393.47 843.09,393.47 843.49,393.47 843.89,393.47 844.28,393.47 844.68,393.47 845.08,393.47 845.47,393.47 845.87,393.47 846.27,393.47 846.66,393.47 847.06,393.47 847.46,393.47 847.85,393.47 848.25,393.47 848.64,393.47 849.04,393.47 849.44,393.47 849.83,393.47 850.23,393.47 850.63,393.47 851.02,393.47 851.42,393.47 851.82,393.47 852.21,393.47 852.61,393.47 853.01,393.47 853.40,393.47 853.80,393.47 854.20,393.47 854.59,393.47 854.99,393.47 855.39,393.47 855.78,393.47 856.18,393.47 856.57,393.47 856.97,393.47 857.37,393.47 857.76,393.47 858.16,393.47 858.56,393.47 858.95,393.47 859.35,393.47 859.75,393.47 860.14,393.47 860.54,393.47 860.94,393.47 861.33,393.47 861.73,393.47 862.13,393.47 862.52,393.47 862.92,393.47 863.31,393.47 863.71,393.47 864.11,393.47 864.50,393.47 864.90,393.47 865.30,393.47 865.69,393.47 866.09,393.47 866.49,393.47 866.88,393.47 867.28,393.47 867.68,393.47 868.07,393.47 868.47,393.47 868.87,393.47 869.26,393.47 869.66,393.47 870.06,393.47 870.45,393.47 870.85,393.47 871.24,393.47 871.64,393.47 872.04,393.47 872.43,393.47 872.83,393.47 873.23,393.47 873.62,393.47 874.02,393.47 874.42,393.47 874.81,393.47 875.21,393.47 875.61,393.47 876.00,393.47 876.40,393.47 876.80,393.47 877.19,393.47 877.59,393.47 877.98,393.47 878.38,393.47 878.78,393.47 879.17,393.47 879.57,393.47 879.97,393.47 880.36,393.47 880.76,393.47 881.16,393.47 881.55,393.47 881.95,393.47 882.35,393.47 882.74,393.47 883.14,393.47 883.54,393.47 883.93,393.47 884.33,393.47 884.73,393.47 885.12,393.47 885.52,393.47 885.91,393.47 886.31,393.47 886.71,393.47 887.10,393.47 887.50,393.47 887.75,393.47" fill="none" stroke="#b54708" stroke-width="3" stroke-linejoin="round"/>
<line x1="660" y1="114" x2="696" y2="114" stroke="#b54708" stroke-width="3"/>
<text x="706" y="119" font-family="Arial, Helvetica, sans-serif" font-size="13" font-weight="400" text-anchor="start" fill="#111">input x2.7</text>
<text x="460" y="502" font-family="Arial, Helvetica, sans-serif" font-size="14" font-weight="400" text-anchor="middle" fill="#111">Time after 60 ms settling, ms</text>
<text x="22" y="260" font-family="Arial, Helvetica, sans-serif" font-size="14" text-anchor="middle" fill="#111" transform="rotate(-90 22 260)">Voltage, V</text>
</svg>
