<svg xmlns="http://www.w3.org/2000/svg" width="920" height="520" viewBox="0 0 920 520">
<defs>
<style>
.wire{stroke:#111;stroke-width:2.6;fill:none;stroke-linecap:round;stroke-linejoin:round}
.thin{stroke:#a7b0bd;stroke-width:1.2;fill:none;stroke-linecap:round;stroke-linejoin:round}
.axis{stroke:#111;stroke-width:1.4;fill:none}
.blue{stroke:#1665d8;stroke-width:3;fill:none;stroke-linecap:round;stroke-linejoin:round}
.green{stroke:#13795b;stroke-width:3;fill:none;stroke-linecap:round;stroke-linejoin:round}
.orange{stroke:#b54708;stroke-width:3;fill:none;stroke-linecap:round;stroke-linejoin:round}
.node{fill:#111;stroke:none}
</style>
</defs>
<rect width="100%" height="100%" fill="#fff"/>
<text x="76" y="36" font-family="Arial, Helvetica, sans-serif" font-size="22" font-weight="700" text-anchor="start" fill="#111">Bootstrap square response, 10 kHz, Vin = 2.0 mVpp</text>
<rect x="76" y="60" width="812" height="396" fill="#fff" stroke="#111" stroke-width="1.4"/>
<line x1="76" y1="60" x2="76" y2="456" class="thin"/>
<text x="76" y="479" font-family="Arial, Helvetica, sans-serif" font-size="12" font-weight="400" text-anchor="middle" fill="#111">0</text>
<line x1="279" y1="60" x2="279" y2="456" class="thin"/>
<text x="279" y="479" font-family="Arial, Helvetica, sans-serif" font-size="12" font-weight="400" text-anchor="middle" fill="#111">0.1</text>
<line x1="482" y1="60" x2="482" y2="456" class="thin"/>
<text x="482" y="479" font-family="Arial, Helvetica, sans-serif" font-size="12" font-weight="400" text-anchor="middle" fill="#111">0.2</text>
<line x1="685" y1="60" x2="685" y2="456" class="thin"/>
<text x="685" y="479" font-family="Arial, Helvetica, sans-serif" font-size="12" font-weight="400" text-anchor="middle" fill="#111">0.3</text>
<line x1="888" y1="60" x2="888" y2="456" class="thin"/>
<text x="888" y="479" font-family="Arial, Helvetica, sans-serif" font-size="12" font-weight="400" text-anchor="middle" fill="#111">0.4</text>
<line x1="76" y1="456" x2="888" y2="456" class="thin"/>
<text x="66" y="460" font-family="Arial, Helvetica, sans-serif" font-size="12" font-weight="400" text-anchor="end" fill="#111">-0.25</text>
<line x1="76" y1="357" x2="888" y2="357" class="thin"/>
<text x="66" y="361" font-family="Arial, Helvetica, sans-serif" font-size="12" font-weight="400" text-anchor="end" fill="#111">-0.125</text>
<line x1="76" y1="258" x2="888" y2="258" class="thin"/>
<text x="66" y="262" font-family="Arial, Helvetica, sans-serif" font-size="12" font-weight="400" text-anchor="end" fill="#111">0</text>
<line x1="76" y1="159" x2="888" y2="159" class="thin"/>
<text x="66" y="163" font-family="Arial, Helvetica, sans-serif" font-size="12" font-weight="400" text-anchor="end" fill="#111">0.125</text>
<line x1="76" y1="60" x2="888" y2="60" class="thin"/>
<text x="66" y="64" font-family="Arial, Helvetica, sans-serif" font-size="12" font-weight="400" text-anchor="end" fill="#111">0.25</text>
<polyline points="76.00,225.38 76.04,225.40 76.12,225.45 76.28,225.57 76.59,225.87 76.99,226.35 77.39,226.96 77.71,227.54 78.03,228.20 78.07,228.26 78.15,228.37 78.31,228.58 78.62,229.00 79.02,229.52 79.42,230.04 79.81,230.56 80.21,231.07 80.61,231.59 81.00,232.09 81.40,232.60 81.80,233.10 82.19,233.60 82.59,234.10 82.99,234.59 83.38,235.08 83.78,235.57 84.18,236.05 84.57,236.53 84.97,237.01 85.36,237.48 85.76,237.95 86.16,238.42 86.55,238.89 86.95,239.35 87.35,239.81 87.74,240.26 88.14,240.72 88.54,241.16 88.93,241.61 89.33,242.05 89.73,242.50 90.12,242.93 90.52,243.37 90.92,243.80 91.31,244.23 91.71,244.65 92.11,245.07 92.50,245.49 92.90,245.91 93.29,246.32 93.69,246.73 94.09,247.14 94.48,247.54 94.88,247.94 95.28,248.34 95.67,248.74 96.07,249.13 96.47,249.52 96.86,249.91 97.26,250.29 97.66,250.67 98.05,251.05 98.45,251.43 98.85,251.80 99.24,252.17 99.64,252.54 100.03,252.90 100.43,253.26 100.83,253.62 101.22,253.98 101.62,254.33 102.02,254.69 102.41,255.03 102.81,255.38 103.21,255.72 103.60,256.06 104.00,256.40 104.40,256.74 104.79,257.07 105.19,257.40 105.59,257.73 105.98,258.05 106.38,258.38 106.78,258.70 107.17,259.01 107.57,259.33 107.96,259.64 108.36,259.95 108.76,260.26 109.15,260.57 109.55,260.87 109.95,261.17 110.34,261.47 110.74,261.77 111.14,262.06 111.53,262.35 111.93,262.64 112.33,262.93 112.72,263.21 113.12,263.50 113.52,263.78 113.91,264.06 114.31,264.33 114.70,264.61 115.10,264.88 115.50,265.15 115.89,265.41 116.29,265.68 116.69,265.94 117.08,266.20 117.48,266.46 117.88,266.72 118.27,266.97 118.67,267.23 119.07,267.48 119.46,267.73 119.86,267.97 120.26,268.22 120.65,268.46 121.05,268.70 121.45,268.94 121.84,269.18 122.24,269.41 122.63,269.65 123.03,269.88 123.43,270.11 123.82,270.34 124.22,270.56 124.62,270.79 125.01,271.01 125.41,271.23 125.81,271.45 126.20,271.67 126.60,271.88 127.00,272.09 127.39,272.31 127.79,272.52 128.19,272.73 128.58,272.93 128.98,273.14 129.37,273.34 129.77,273.54 130.17,273.74 130.56,273.94 130.96,274.14 131.36,274.33 131.75,274.53 132.15,274.72 132.55,274.91 132.94,275.10 133.34,275.29 133.74,275.47 134.13,275.66 134.53,275.84 134.93,276.02 135.32,276.20 135.72,276.38 136.11,276.56 136.51,276.73 136.91,276.90 137.30,277.08 137.70,277.25 138.10,277.42 138.49,277.59 138.89,277.75 139.29,277.92 139.68,278.08 140.08,278.25 140.48,278.41 140.87,278.57 141.27,278.73 141.67,278.89 142.06,279.04 142.46,279.20 142.86,279.35 143.25,279.50 143.65,279.65 144.04,279.80 144.44,279.95 144.84,280.10 145.23,280.25 145.63,280.39 146.03,280.54 146.42,280.68 146.82,280.82 147.22,280.96 147.61,281.10 148.01,281.24 148.41,281.37 148.80,281.51 149.20,281.64 149.60,281.78 149.99,281.91 150.39,282.04 150.78,282.17 151.18,282.30 151.58,282.43 151.97,282.56 152.37,282.68 152.77,282.81 153.16,282.93 153.56,283.05 153.96,283.17 154.35,283.29 154.75,283.41 155.15,283.53 155.54,283.65 155.94,283.77 156.34,283.88 156.73,284.00 157.13,284.11 157.53,284.22 157.92,284.34 158.32,284.45 158.71,284.56 159.11,284.67 159.51,284.77 159.90,284.88 160.30,284.99 160.70,285.09 161.09,285.20 161.49,285.30 161.89,285.40 162.28,285.51 162.68,285.61 163.08,285.71 163.47,285.81 163.87,285.90 164.27,286.00 164.66,286.10 165.06,286.20 165.45,286.29 165.85,286.38 166.25,286.48 166.64,286.57 167.04,286.66 167.44,286.75 167.83,286.84 168.23,286.93 168.63,287.02 169.02,287.11 169.42,287.20 169.82,287.28 170.21,287.37 170.61,287.46 171.01,287.54 171.40,287.62 171.80,287.71 172.20,287.79 172.59,287.87 172.99,287.95 173.38,288.03 173.78,288.11 174.18,288.19 174.57,288.27 174.97,288.34 175.37,288.42 175.76,288.50 176.16,288.57 176.56,288.65 176.95,288.72 177.35,288.79 177.75,288.87 178.14,288.94 178.54,289.01 178.94,289.08 179.23,289.13 179.53,289.19 179.57,289.17 179.65,289.11 179.81,288.98 180.12,288.66 180.52,288.16 180.92,287.54 181.24,286.96 181.56,286.31 181.60,286.25 181.68,286.14 181.84,285.92 182.15,285.50 182.55,284.97 182.95,284.45 183.34,283.93 183.74,283.41 184.14,282.89 184.53,282.38 184.93,281.87 185.33,281.37 185.72,280.87 186.12,280.37 186.52,279.87 186.91,279.38 187.31,278.89 187.71,278.40 188.10,277.92 188.50,277.44 188.89,276.96 189.29,276.49 189.69,276.02 190.08,275.55 190.48,275.09 190.88,274.63 191.27,274.17 191.67,273.72 192.07,273.27 192.46,272.82 192.86,272.37 193.26,271.93 193.65,271.49 194.05,271.05 194.45,270.62 194.84,270.19 195.24,269.76 195.64,269.34 196.03,268.92 196.43,268.50 196.82,268.09 197.22,267.67 197.62,267.27 198.01,266.86 198.41,266.46 198.81,266.06 199.20,265.66 199.60,265.26 200.00,264.87 200.39,264.48 200.79,264.10 201.19,263.71 201.58,263.33 201.98,262.95 202.38,262.58 202.77,262.21 203.17,261.84 203.56,261.47 203.96,261.11 204.36,260.74 204.75,260.39 205.15,260.03 205.55,259.68 205.94,259.33 206.34,258.98 206.74,258.63 207.13,258.29 207.53,257.95 207.93,257.61 208.32,257.27 208.72,256.94 209.12,256.61 209.51,256.28 209.91,255.96 210.31,255.64 210.70,255.31 211.10,255.00 211.49,254.68 211.89,254.37 212.29,254.06 212.68,253.75 213.08,253.44 213.48,253.14 213.87,252.84 214.27,252.54 214.67,252.24 215.06,251.95 215.46,251.65 215.86,251.36 216.25,251.08 216.65,250.79 217.05,250.51 217.44,250.23 217.84,249.95 218.23,249.67 218.63,249.40 219.03,249.12 219.42,248.85 219.82,248.58 220.22,248.32 220.61,248.05 221.01,247.79 221.41,247.53 221.80,247.27 222.20,247.02 222.60,246.76 222.99,246.51 223.39,246.26 223.79,246.01 224.18,245.77 224.58,245.52 224.98,245.28 225.37,245.04 225.77,244.80 226.16,244.56 226.56,244.33 226.96,244.10 227.35,243.87 227.75,243.64 228.15,243.41 228.54,243.18 228.94,242.96 229.34,242.74 229.73,242.52 230.13,242.30 230.53,242.08 230.92,241.87 231.32,241.65 231.72,241.44 232.11,241.23 232.51,241.02 232.90,240.82 233.30,240.61 233.70,240.41 234.09,240.21 234.49,240.01 234.89,239.81 235.28,239.61 235.68,239.42 236.08,239.22 236.47,239.03 236.87,238.84 237.27,238.65 237.66,238.46 238.06,238.28 238.46,238.09 238.85,237.91 239.25,237.73 239.64,237.55 240.04,237.37 240.44,237.19 240.83,237.01 241.23,236.84 241.63,236.67 242.02,236.49 242.42,236.32 242.82,236.16 243.21,235.99 243.61,235.82 244.01,235.66 244.40,235.49 244.80,235.33 245.20,235.17 245.59,235.01 245.99,234.85 246.39,234.70 246.78,234.54 247.18,234.39 247.57,234.23 247.97,234.08 248.37,233.93 248.76,233.78 249.16,233.63 249.56,233.49 249.95,233.34 250.35,233.20 250.75,233.05 251.14,232.91 251.54,232.77 251.94,232.63 252.33,232.49 252.73,232.35 253.13,232.22 253.52,232.08 253.92,231.95 254.31,231.81 254.71,231.68 255.11,231.55 255.50,231.42 255.90,231.29 256.30,231.16 256.69,231.04 257.09,230.91 257.49,230.79 257.88,230.66 258.28,230.54 258.68,230.42 259.07,230.30 259.47,230.18 259.87,230.06 260.26,229.94 260.66,229.83 261.06,229.71 261.45,229.60 261.85,229.48 262.24,229.37 262.64,229.26 263.04,229.15 263.43,229.04 263.83,228.93 264.23,228.82 264.62,228.71 265.02,228.61 265.42,228.50 265.81,228.40 266.21,228.29 266.61,228.19 267.00,228.09 267.40,227.99 267.80,227.89 268.19,227.79 268.59,227.69 268.98,227.59 269.38,227.50 269.78,227.40 270.17,227.31 270.57,227.21 270.97,227.12 271.36,227.03 271.76,226.93 272.16,226.84 272.55,226.75 272.95,226.66 273.35,226.57 273.74,226.48 274.14,226.40 274.54,226.31 274.93,226.22 275.33,226.14 275.73,226.06 276.12,225.97 276.52,225.89 276.91,225.81 277.31,225.72 277.71,225.64 278.10,225.56 278.50,225.48 278.75,225.43 279.00,225.39 279.04,225.40 279.12,225.45 279.28,225.58 279.59,225.87 279.99,226.35 280.39,226.96 280.71,227.54 281.03,228.20 281.07,228.26 281.15,228.37 281.31,228.58 281.62,229.00 282.02,229.52 282.42,230.04 282.81,230.56 283.21,231.08 283.61,231.59 284.00,232.10 284.40,232.60 284.80,233.10 285.19,233.60 285.59,234.10 285.99,234.59 286.38,235.08 286.78,235.57 287.18,236.05 287.57,236.53 287.97,237.01 288.36,237.48 288.76,237.95 289.16,238.42 289.55,238.89 289.95,239.35 290.35,239.81 290.74,240.26 291.14,240.72 291.54,241.17 291.93,241.61 292.33,242.06 292.73,242.50 293.12,242.93 293.52,243.37 293.92,243.80 294.31,244.23 294.71,244.65 295.11,245.07 295.50,245.49 295.90,245.91 296.29,246.32 296.69,246.73 297.09,247.14 297.48,247.54 297.88,247.95 298.28,248.34 298.67,248.74 299.07,249.13 299.47,249.52 299.86,249.91 300.26,250.29 300.66,250.67 301.05,251.05 301.45,251.43 301.85,251.80 302.24,252.17 302.64,252.54 303.03,252.90 303.43,253.27 303.83,253.62 304.22,253.98 304.62,254.34 305.02,254.69 305.41,255.03 305.81,255.38 306.21,255.72 306.60,256.06 307.00,256.40 307.40,256.74 307.79,257.07 308.19,257.40 308.59,257.73 308.98,258.05 309.38,258.38 309.78,258.70 310.17,259.02 310.57,259.33 310.96,259.64 311.36,259.95 311.76,260.26 312.15,260.57 312.55,260.87 312.95,261.17 313.34,261.47 313.74,261.77 314.14,262.06 314.53,262.35 314.93,262.64 315.33,262.93 315.72,263.21 316.12,263.50 316.52,263.78 316.91,264.06 317.31,264.33 317.70,264.61 318.10,264.88 318.50,265.15 318.89,265.41 319.29,265.68 319.69,265.94 320.08,266.20 320.48,266.46 320.88,266.72 321.27,266.98 321.67,267.23 322.07,267.48 322.46,267.73 322.86,267.97 323.26,268.22 323.65,268.46 324.05,268.70 324.45,268.94 324.84,269.18 325.24,269.42 325.63,269.65 326.03,269.88 326.43,270.11 326.82,270.34 327.22,270.56 327.62,270.79 328.01,271.01 328.41,271.23 328.81,271.45 329.20,271.67 329.60,271.88 330.00,272.10 330.39,272.31 330.79,272.52 331.19,272.73 331.58,272.93 331.98,273.14 332.37,273.34 332.77,273.54 333.17,273.74 333.56,273.94 333.96,274.14 334.36,274.33 334.75,274.53 335.15,274.72 335.55,274.91 335.94,275.10 336.34,275.29 336.74,275.47 337.13,275.66 337.53,275.84 337.93,276.02 338.32,276.20 338.72,276.38 339.11,276.56 339.51,276.73 339.91,276.91 340.30,277.08 340.70,277.25 341.10,277.42 341.49,277.59 341.89,277.75 342.29,277.92 342.68,278.08 343.08,278.25 343.48,278.41 343.87,278.57 344.27,278.73 344.67,278.89 345.06,279.04 345.46,279.20 345.86,279.35 346.25,279.50 346.65,279.65 347.04,279.80 347.44,279.95 347.84,280.10 348.23,280.25 348.63,280.39 349.03,280.54 349.42,280.68 349.82,280.82 350.22,280.96 350.61,281.10 351.01,281.24 351.41,281.37 351.80,281.51 352.20,281.64 352.60,281.78 352.99,281.91 353.39,282.04 353.78,282.17 354.18,282.30 354.58,282.43 354.97,282.56 355.37,282.68 355.77,282.81 356.16,282.93 356.56,283.05 356.96,283.17 357.35,283.30 357.75,283.42 358.15,283.53 358.54,283.65 358.94,283.77 359.34,283.88 359.73,284.00 360.13,284.11 360.53,284.23 360.92,284.34 361.32,284.45 361.71,284.56 362.11,284.67 362.51,284.78 362.90,284.88 363.30,284.99 363.70,285.09 364.09,285.20 364.49,285.30 364.89,285.40 365.28,285.51 365.68,285.61 366.08,285.71 366.47,285.81 366.87,285.91 367.27,286.00 367.66,286.10 368.06,286.20 368.45,286.29 368.85,286.39 369.25,286.48 369.64,286.57 370.04,286.66 370.44,286.75 370.83,286.85 371.23,286.93 371.63,287.02 372.02,287.11 372.42,287.20 372.82,287.29 373.21,287.37 373.61,287.46 374.01,287.54 374.40,287.62 374.80,287.71 375.20,287.79 375.59,287.87 375.99,287.95 376.38,288.03 376.78,288.11 377.18,288.19 377.57,288.27 377.97,288.35 378.37,288.42 378.76,288.50 379.16,288.57 379.56,288.65 379.95,288.72 380.35,288.80 380.75,288.87 381.14,288.94 381.54,289.01 381.94,289.08 382.23,289.14 382.53,289.19 382.57,289.17 382.65,289.11 382.81,288.98 383.12,288.66 383.52,288.16 383.92,287.54 384.24,286.96 384.56,286.31 384.60,286.25 384.68,286.14 384.84,285.93 385.15,285.50 385.55,284.97 385.95,284.45 386.34,283.93 386.74,283.41 387.14,282.89 387.53,282.38 387.93,281.87 388.33,281.37 388.72,280.87 389.12,280.37 389.52,279.87 389.91,279.38 390.31,278.89 390.71,278.40 391.10,277.92 391.50,277.44 391.89,276.97 392.29,276.49 392.69,276.02 393.08,275.55 393.48,275.09 393.88,274.63 394.27,274.17 394.67,273.72 395.07,273.27 395.46,272.82 395.86,272.37 396.26,271.93 396.65,271.49 397.05,271.06 397.45,270.62 397.84,270.19 398.24,269.77 398.64,269.34 399.03,268.92 399.43,268.50 399.82,268.09 400.22,267.68 400.62,267.27 401.01,266.86 401.41,266.46 401.81,266.06 402.20,265.66 402.60,265.26 403.00,264.87 403.39,264.48 403.79,264.10 404.19,263.71 404.58,263.33 404.98,262.95 405.38,262.58 405.77,262.21 406.17,261.84 406.56,261.47 406.96,261.11 407.36,260.75 407.75,260.39 408.15,260.03 408.55,259.68 408.94,259.33 409.34,258.98 409.74,258.63 410.13,258.29 410.53,257.95 410.93,257.61 411.32,257.28 411.72,256.94 412.12,256.61 412.51,256.28 412.91,255.96 413.31,255.64 413.70,255.32 414.10,255.00 414.49,254.68 414.89,254.37 415.29,254.06 415.68,253.75 416.08,253.44 416.48,253.14 416.87,252.84 417.27,252.54 417.67,252.24 418.06,251.95 418.46,251.65 418.86,251.36 419.25,251.08 419.65,250.79 420.05,250.51 420.44,250.23 420.84,249.95 421.23,249.67 421.63,249.40 422.03,249.12 422.42,248.85 422.82,248.58 423.22,248.32 423.61,248.05 424.01,247.79 424.41,247.53 424.80,247.27 425.20,247.02 425.60,246.76 425.99,246.51 426.39,246.26 426.79,246.01 427.18,245.77 427.58,245.52 427.98,245.28 428.37,245.04 428.77,244.80 429.16,244.57 429.56,244.33 429.96,244.10 430.35,243.87 430.75,243.64 431.15,243.41 431.54,243.18 431.94,242.96 432.34,242.74 432.73,242.52 433.13,242.30 433.53,242.08 433.92,241.87 434.32,241.65 434.72,241.44 435.11,241.23 435.51,241.02 435.90,240.82 436.30,240.61 436.70,240.41 437.09,240.21 437.49,240.01 437.89,239.81 438.28,239.61 438.68,239.42 439.08,239.22 439.47,239.03 439.87,238.84 440.27,238.65 440.66,238.46 441.06,238.28 441.46,238.09 441.85,237.91 442.25,237.73 442.64,237.55 443.04,237.37 443.44,237.19 443.83,237.01 444.23,236.84 444.63,236.67 445.02,236.49 445.42,236.32 445.82,236.16 446.21,235.99 446.61,235.82 447.01,235.66 447.40,235.49 447.80,235.33 448.20,235.17 448.59,235.01 448.99,234.85 449.39,234.70 449.78,234.54 450.18,234.39 450.57,234.23 450.97,234.08 451.37,233.93 451.76,233.78 452.16,233.63 452.56,233.49 452.95,233.34 453.35,233.20 453.75,233.05 454.14,232.91 454.54,232.77 454.94,232.63 455.33,232.49 455.73,232.35 456.13,232.22 456.52,232.08 456.92,231.95 457.31,231.81 457.71,231.68 458.11,231.55 458.50,231.42 458.90,231.29 459.30,231.16 459.69,231.04 460.09,230.91 460.49,230.79 460.88,230.66 461.28,230.54 461.68,230.42 462.07,230.30 462.47,230.18 462.87,230.06 463.26,229.94 463.66,229.83 464.06,229.71 464.45,229.60 464.85,229.48 465.24,229.37 465.64,229.26 466.04,229.15 466.43,229.04 466.83,228.93 467.23,228.82 467.62,228.71 468.02,228.61 468.42,228.50 468.81,228.40 469.21,228.30 469.61,228.19 470.00,228.09 470.40,227.99 470.80,227.89 471.19,227.79 471.59,227.69 471.98,227.59 472.38,227.50 472.78,227.40 473.17,227.31 473.57,227.21 473.97,227.12 474.36,227.03 474.76,226.93 475.16,226.84 475.55,226.75 475.95,226.66 476.35,226.57 476.74,226.49 477.14,226.40 477.54,226.31 477.93,226.23 478.33,226.14 478.73,226.06 479.12,225.97 479.52,225.89 479.91,225.81 480.31,225.73 480.71,225.64 481.10,225.56 481.50,225.48 481.75,225.44 482.00,225.39 482.04,225.40 482.12,225.45 482.28,225.58 482.59,225.87 482.99,226.35 483.39,226.96 483.71,227.54 484.03,228.20 484.07,228.26 484.15,228.37 484.31,228.58 484.62,229.00 485.02,229.52 485.42,230.04 485.81,230.56 486.21,231.08 486.61,231.59 487.00,232.10 487.40,232.60 487.80,233.10 488.19,233.60 488.59,234.10 488.99,234.59 489.38,235.08 489.78,235.57 490.18,236.05 490.57,236.53 490.97,237.01 491.36,237.48 491.76,237.96 492.16,238.42 492.55,238.89 492.95,239.35 493.35,239.81 493.74,240.26 494.14,240.72 494.54,241.17 494.93,241.61 495.33,242.06 495.73,242.50 496.12,242.93 496.52,243.37 496.92,243.80 497.31,244.23 497.71,244.65 498.11,245.07 498.50,245.49 498.90,245.91 499.29,246.32 499.69,246.73 500.09,247.14 500.48,247.54 500.88,247.95 501.28,248.34 501.67,248.74 502.07,249.13 502.47,249.52 502.86,249.91 503.26,250.29 503.66,250.67 504.05,251.05 504.45,251.43 504.85,251.80 505.24,252.17 505.64,252.54 506.03,252.90 506.43,253.27 506.83,253.63 507.22,253.98 507.62,254.34 508.02,254.69 508.41,255.04 508.81,255.38 509.21,255.72 509.60,256.07 510.00,256.40 510.40,256.74 510.79,257.07 511.19,257.40 511.59,257.73 511.98,258.05 512.38,258.38 512.78,258.70 513.17,259.02 513.57,259.33 513.96,259.64 514.36,259.95 514.76,260.26 515.15,260.57 515.55,260.87 515.95,261.17 516.34,261.47 516.74,261.77 517.14,262.06 517.53,262.35 517.93,262.64 518.33,262.93 518.72,263.22 519.12,263.50 519.52,263.78 519.91,264.06 520.31,264.33 520.70,264.61 521.10,264.88 521.50,265.15 521.89,265.42 522.29,265.68 522.69,265.94 523.08,266.20 523.48,266.46 523.88,266.72 524.27,266.98 524.67,267.23 525.07,267.48 525.46,267.73 525.86,267.98 526.26,268.22 526.65,268.46 527.05,268.70 527.45,268.94 527.84,269.18 528.24,269.42 528.63,269.65 529.03,269.88 529.43,270.11 529.82,270.34 530.22,270.56 530.62,270.79 531.01,271.01 531.41,271.23 531.81,271.45 532.20,271.67 532.60,271.88 533.00,272.10 533.39,272.31 533.79,272.52 534.19,272.73 534.58,272.93 534.98,273.14 535.37,273.34 535.77,273.54 536.17,273.74 536.56,273.94 536.96,274.14 537.36,274.33 537.75,274.53 538.15,274.72 538.55,274.91 538.94,275.10 539.34,275.29 539.74,275.47 540.13,275.66 540.53,275.84 540.93,276.02 541.32,276.20 541.72,276.38 542.11,276.56 542.51,276.73 542.91,276.91 543.30,277.08 543.70,277.25 544.10,277.42 544.49,277.59 544.89,277.76 545.29,277.92 545.68,278.09 546.08,278.25 546.48,278.41 546.87,278.57 547.27,278.73 547.67,278.89 548.06,279.04 548.46,279.20 548.86,279.35 549.25,279.50 549.65,279.66 550.04,279.81 550.44,279.95 550.84,280.10 551.23,280.25 551.63,280.39 552.03,280.54 552.42,280.68 552.82,280.82 553.22,280.96 553.61,281.10 554.01,281.24 554.41,281.38 554.80,281.51 555.20,281.65 555.60,281.78 555.99,281.91 556.39,282.04 556.78,282.17 557.18,282.30 557.58,282.43 557.97,282.56 558.37,282.68 558.77,282.81 559.16,282.93 559.56,283.05 559.96,283.18 560.35,283.30 560.75,283.42 561.15,283.53 561.54,283.65 561.94,283.77 562.34,283.88 562.73,284.00 563.13,284.11 563.53,284.23 563.92,284.34 564.32,284.45 564.71,284.56 565.11,284.67 565.51,284.78 565.90,284.88 566.30,284.99 566.70,285.09 567.09,285.20 567.49,285.30 567.89,285.41 568.28,285.51 568.68,285.61 569.08,285.71 569.47,285.81 569.87,285.91 570.27,286.00 570.66,286.10 571.06,286.20 571.45,286.29 571.85,286.39 572.25,286.48 572.64,286.57 573.04,286.66 573.44,286.76 573.83,286.85 574.23,286.94 574.63,287.02 575.02,287.11 575.42,287.20 575.82,287.29 576.21,287.37 576.61,287.46 577.01,287.54 577.40,287.62 577.80,287.71 578.20,287.79 578.59,287.87 578.99,287.95 579.38,288.03 579.78,288.11 580.18,288.19 580.57,288.27 580.97,288.35 581.37,288.42 581.76,288.50 582.16,288.57 582.56,288.65 582.95,288.72 583.35,288.80 583.75,288.87 584.14,288.94 584.54,289.01 584.94,289.08 585.23,289.14 585.53,289.19 585.57,289.17 585.65,289.11 585.81,288.98 586.12,288.66 586.52,288.16 586.92,287.54 587.24,286.96 587.56,286.31 587.60,286.25 587.68,286.14 587.84,285.93 588.15,285.50 588.55,284.97 588.95,284.45 589.34,283.93 589.74,283.41 590.14,282.89 590.53,282.38 590.93,281.87 591.33,281.37 591.72,280.87 592.12,280.37 592.52,279.87 592.91,279.38 593.31,278.89 593.71,278.40 594.10,277.92 594.50,277.44 594.89,276.97 595.29,276.49 595.69,276.02 596.08,275.56 596.48,275.09 596.88,274.63 597.27,274.17 597.67,273.72 598.07,273.27 598.46,272.82 598.86,272.37 599.26,271.93 599.65,271.49 600.05,271.06 600.45,270.62 600.84,270.19 601.24,269.77 601.64,269.34 602.03,268.92 602.43,268.50 602.82,268.09 603.22,267.68 603.62,267.27 604.01,266.86 604.41,266.46 604.81,266.06 605.20,265.66 605.60,265.26 606.00,264.87 606.39,264.48 606.79,264.10 607.19,263.71 607.58,263.33 607.98,262.96 608.38,262.58 608.77,262.21 609.17,261.84 609.56,261.47 609.96,261.11 610.36,260.75 610.75,260.39 611.15,260.03 611.55,259.68 611.94,259.33 612.34,258.98 612.74,258.63 613.13,258.29 613.53,257.95 613.93,257.61 614.32,257.28 614.72,256.94 615.12,256.61 615.51,256.28 615.91,255.96 616.31,255.64 616.70,255.32 617.10,255.00 617.49,254.68 617.89,254.37 618.29,254.06 618.68,253.75 619.08,253.44 619.48,253.14 619.87,252.84 620.27,252.54 620.67,252.24 621.06,251.95 621.46,251.66 621.86,251.37 622.25,251.08 622.65,250.79 623.05,250.51 623.44,250.23 623.84,249.95 624.23,249.67 624.63,249.40 625.03,249.12 625.42,248.85 625.82,248.59 626.22,248.32 626.61,248.05 627.01,247.79 627.41,247.53 627.80,247.27 628.20,247.02 628.60,246.76 628.99,246.51 629.39,246.26 629.79,246.01 630.18,245.77 630.58,245.52 630.98,245.28 631.37,245.04 631.77,244.80 632.16,244.57 632.56,244.33 632.96,244.10 633.35,243.87 633.75,243.64 634.15,243.41 634.54,243.18 634.94,242.96 635.34,242.74 635.73,242.52 636.13,242.30 636.53,242.08 636.92,241.87 637.32,241.65 637.72,241.44 638.11,241.23 638.51,241.02 638.90,240.82 639.30,240.61 639.70,240.41 640.09,240.21 640.49,240.01 640.89,239.81 641.28,239.61 641.68,239.42 642.08,239.22 642.47,239.03 642.87,238.84 643.27,238.65 643.66,238.46 644.06,238.28 644.46,238.09 644.85,237.91 645.25,237.73 645.64,237.55 646.04,237.37 646.44,237.19 646.83,237.01 647.23,236.84 647.63,236.67 648.02,236.50 648.42,236.33 648.82,236.16 649.21,235.99 649.61,235.82 650.01,235.66 650.40,235.49 650.80,235.33 651.20,235.17 651.59,235.01 651.99,234.85 652.39,234.70 652.78,234.54 653.18,234.39 653.57,234.23 653.97,234.08 654.37,233.93 654.76,233.78 655.16,233.63 655.56,233.49 655.95,233.34 656.35,233.20 656.75,233.05 657.14,232.91 657.54,232.77 657.94,232.63 658.33,232.49 658.73,232.35 659.13,232.22 659.52,232.08 659.92,231.95 660.31,231.81 660.71,231.68 661.11,231.55 661.50,231.42 661.90,231.29 662.30,231.17 662.69,231.04 663.09,230.91 663.49,230.79 663.88,230.66 664.28,230.54 664.68,230.42 665.07,230.30 665.47,230.18 665.87,230.06 666.26,229.94 666.66,229.83 667.06,229.71 667.45,229.60 667.85,229.48 668.24,229.37 668.64,229.26 669.04,229.15 669.43,229.04 669.83,228.93 670.23,228.82 670.62,228.72 671.02,228.61 671.42,228.50 671.81,228.40 672.21,228.30 672.61,228.19 673.00,228.09 673.40,227.99 673.80,227.89 674.19,227.79 674.59,227.69 674.98,227.59 675.38,227.50 675.78,227.40 676.17,227.31 676.57,227.21 676.97,227.12 677.36,227.03 677.76,226.93 678.16,226.84 678.55,226.75 678.95,226.66 679.35,226.57 679.74,226.49 680.14,226.40 680.54,226.31 680.93,226.23 681.33,226.14 681.73,226.06 682.12,225.97 682.52,225.89 682.91,225.81 683.31,225.73 683.71,225.65 684.10,225.57 684.50,225.49 684.75,225.44 685.00,225.39 685.04,225.40 685.12,225.45 685.28,225.58 685.59,225.87 685.99,226.36 686.39,226.96 686.71,227.54 687.03,228.20 687.07,228.26 687.15,228.37 687.31,228.58 687.62,229.00 688.02,229.52 688.42,230.04 688.81,230.56 689.21,231.08 689.61,231.59 690.00,232.10 690.40,232.60 690.80,233.10 691.19,233.60 691.59,234.10 691.99,234.59 692.38,235.08 692.78,235.57 693.18,236.05 693.57,236.53 693.97,237.01 694.36,237.48 694.76,237.96 695.16,238.42 695.55,238.89 695.95,239.35 696.35,239.81 696.74,240.26 697.14,240.72 697.54,241.17 697.93,241.61 698.33,242.06 698.73,242.50 699.12,242.93 699.52,243.37 699.92,243.80 700.31,244.23 700.71,244.65 701.11,245.07 701.50,245.49 701.90,245.91 702.29,246.32 702.69,246.73 703.09,247.14 703.48,247.55 703.88,247.95 704.28,248.34 704.67,248.74 705.07,249.13 705.47,249.52 705.86,249.91 706.26,250.29 706.66,250.68 707.05,251.05 707.45,251.43 707.85,251.80 708.24,252.17 708.64,252.54 709.03,252.90 709.43,253.27 709.83,253.63 710.22,253.98 710.62,254.34 711.02,254.69 711.41,255.04 711.81,255.38 712.21,255.73 712.60,256.07 713.00,256.40 713.40,256.74 713.79,257.07 714.19,257.40 714.59,257.73 714.98,258.06 715.38,258.38 715.78,258.70 716.17,259.02 716.57,259.33 716.96,259.64 717.36,259.96 717.76,260.26 718.15,260.57 718.55,260.87 718.95,261.17 719.34,261.47 719.74,261.77 720.14,262.06 720.53,262.35 720.93,262.64 721.33,262.93 721.72,263.22 722.12,263.50 722.52,263.78 722.91,264.06 723.31,264.33 723.70,264.61 724.10,264.88 724.50,265.15 724.89,265.42 725.29,265.68 725.69,265.94 726.08,266.21 726.48,266.46 726.88,266.72 727.27,266.98 727.67,267.23 728.07,267.48 728.46,267.73 728.86,267.98 729.26,268.22 729.65,268.46 730.05,268.70 730.45,268.94 730.84,269.18 731.24,269.42 731.63,269.65 732.03,269.88 732.43,270.11 732.82,270.34 733.22,270.56 733.62,270.79 734.01,271.01 734.41,271.23 734.81,271.45 735.20,271.67 735.60,271.88 736.00,272.10 736.39,272.31 736.79,272.52 737.19,272.73 737.58,272.93 737.98,273.14 738.37,273.34 738.77,273.54 739.17,273.74 739.56,273.94 739.96,274.14 740.36,274.33 740.75,274.53 741.15,274.72 741.55,274.91 741.94,275.10 742.34,275.29 742.74,275.47 743.13,275.66 743.53,275.84 743.93,276.02 744.32,276.20 744.72,276.38 745.11,276.56 745.51,276.73 745.91,276.91 746.30,277.08 746.70,277.25 747.10,277.42 747.49,277.59 747.89,277.76 748.29,277.92 748.68,278.09 749.08,278.25 749.48,278.41 749.87,278.57 750.27,278.73 750.67,278.89 751.06,279.04 751.46,279.20 751.86,279.35 752.25,279.50 752.65,279.66 753.04,279.81 753.44,279.95 753.84,280.10 754.23,280.25 754.63,280.39 755.03,280.54 755.42,280.68 755.82,280.82 756.22,280.96 756.61,281.10 757.01,281.24 757.41,281.38 757.80,281.51 758.20,281.65 758.60,281.78 758.99,281.91 759.39,282.04 759.78,282.17 760.18,282.30 760.58,282.43 760.97,282.56 761.37,282.68 761.77,282.81 762.16,282.93 762.56,283.05 762.96,283.18 763.35,283.30 763.75,283.42 764.15,283.54 764.54,283.65 764.94,283.77 765.34,283.89 765.73,284.00 766.13,284.11 766.53,284.23 766.92,284.34 767.32,284.45 767.71,284.56 768.11,284.67 768.51,284.78 768.90,284.88 769.30,284.99 769.70,285.10 770.09,285.20 770.49,285.30 770.89,285.41 771.28,285.51 771.68,285.61 772.08,285.71 772.47,285.81 772.87,285.91 773.27,286.00 773.66,286.10 774.06,286.20 774.45,286.29 774.85,286.39 775.25,286.48 775.64,286.57 776.04,286.66 776.44,286.76 776.83,286.85 777.23,286.94 777.63,287.02 778.02,287.11 778.42,287.20 778.82,287.29 779.21,287.37 779.61,287.46 780.01,287.54 780.40,287.63 780.80,287.71 781.20,287.79 781.59,287.87 781.99,287.95 782.38,288.03 782.78,288.11 783.18,288.19 783.57,288.27 783.97,288.35 784.37,288.42 784.76,288.50 785.16,288.57 785.56,288.65 785.95,288.72 786.35,288.80 786.75,288.87 787.14,288.94 787.54,289.01 787.94,289.08 788.23,289.14 788.53,289.19 788.57,289.17 788.65,289.11 788.81,288.98 789.12,288.66 789.52,288.16 789.92,287.54 790.24,286.96 790.56,286.31 790.60,286.25 790.68,286.14 790.84,285.93 791.15,285.50 791.55,284.97 791.95,284.45 792.34,283.93 792.74,283.41 793.14,282.89 793.53,282.38 793.93,281.87 794.33,281.37 794.72,280.87 795.12,280.37 795.52,279.87 795.91,279.38 796.31,278.89 796.71,278.41 797.10,277.92 797.50,277.44 797.89,276.97 798.29,276.49 798.69,276.02 799.08,275.56 799.48,275.09 799.88,274.63 800.27,274.17 800.67,273.72 801.07,273.27 801.46,272.82 801.86,272.37 802.26,271.93 802.65,271.49 803.05,271.06 803.45,270.62 803.84,270.19 804.24,269.77 804.64,269.34 805.03,268.92 805.43,268.50 805.82,268.09 806.22,267.68 806.62,267.27 807.01,266.86 807.41,266.46 807.81,266.06 808.20,265.66 808.60,265.26 809.00,264.87 809.39,264.48 809.79,264.10 810.19,263.71 810.58,263.33 810.98,262.96 811.38,262.58 811.77,262.21 812.17,261.84 812.56,261.47 812.96,261.11 813.36,260.75 813.75,260.39 814.15,260.03 814.55,259.68 814.94,259.33 815.34,258.98 815.74,258.63 816.13,258.29 816.53,257.95 816.93,257.61 817.32,257.28 817.72,256.94 818.12,256.61 818.51,256.29 818.91,255.96 819.31,255.64 819.70,255.32 820.10,255.00 820.49,254.68 820.89,254.37 821.29,254.06 821.68,253.75 822.08,253.44 822.48,253.14 822.87,252.84 823.27,252.54 823.67,252.24 824.06,251.95 824.46,251.66 824.86,251.37 825.25,251.08 825.65,250.79 826.05,250.51 826.44,250.23 826.84,249.95 827.23,249.67 827.63,249.40 828.03,249.12 828.42,248.85 828.82,248.59 829.22,248.32 829.61,248.06 830.01,247.79 830.41,247.53 830.80,247.28 831.20,247.02 831.60,246.77 831.99,246.51 832.39,246.26 832.79,246.01 833.18,245.77 833.58,245.52 833.98,245.28 834.37,245.04 834.77,244.80 835.16,244.57 835.56,244.33 835.96,244.10 836.35,243.87 836.75,243.64 837.15,243.41 837.54,243.19 837.94,242.96 838.34,242.74 838.73,242.52 839.13,242.30 839.53,242.08 839.92,241.87 840.32,241.66 840.72,241.44 841.11,241.23 841.51,241.02 841.90,240.82 842.30,240.61 842.70,240.41 843.09,240.21 843.49,240.01 843.89,239.81 844.28,239.61 844.68,239.42 845.08,239.22 845.47,239.03 845.87,238.84 846.27,238.65 846.66,238.46 847.06,238.28 847.46,238.09 847.85,237.91 848.25,237.73 848.64,237.55 849.04,237.37 849.44,237.19 849.83,237.02 850.23,236.84 850.63,236.67 851.02,236.50 851.42,236.33 851.82,236.16 852.21,235.99 852.61,235.82 853.01,235.66 853.40,235.50 853.80,235.33 854.20,235.17 854.59,235.01 854.99,234.85 855.39,234.70 855.78,234.54 856.18,234.39 856.57,234.23 856.97,234.08 857.37,233.93 857.76,233.78 858.16,233.63 858.56,233.49 858.95,233.34 859.35,233.20 859.75,233.05 860.14,232.91 860.54,232.77 860.94,232.63 861.33,232.49 861.73,232.35 862.13,232.22 862.52,232.08 862.92,231.95 863.31,231.81 863.71,231.68 864.11,231.55 864.50,231.42 864.90,231.29 865.30,231.17 865.69,231.04 866.09,230.91 866.49,230.79 866.88,230.67 867.28,230.54 867.68,230.42 868.07,230.30 868.47,230.18 868.87,230.06 869.26,229.95 869.66,229.83 870.06,229.71 870.45,229.60 870.85,229.49 871.24,229.37 871.64,229.26 872.04,229.15 872.43,229.04 872.83,228.93 873.23,228.82 873.62,228.72 874.02,228.61 874.42,228.50 874.81,228.40 875.21,228.30 875.61,228.19 876.00,228.09 876.40,227.99 876.80,227.89 877.19,227.79 877.59,227.69 877.98,227.60 878.38,227.50 878.78,227.40 879.17,227.31 879.57,227.21 879.97,227.12 880.36,227.03 880.76,226.93 881.16,226.84 881.55,226.75 881.95,226.66 882.35,226.57 882.74,226.49 883.14,226.40 883.54,226.31 883.93,226.23 884.33,226.14 884.73,226.06 885.12,225.97 885.52,225.89 885.91,225.81 886.31,225.73 886.71,225.65 887.10,225.57 887.50,225.49 887.75,225.44" fill="none" stroke="#1665d8" stroke-width="3" stroke-linejoin="round"/>
<line x1="660" y1="88" x2="696" y2="88" stroke="#1665d8" stroke-width="3"/>
<text x="706" y="93" font-family="Arial, Helvetica, sans-serif" font-size="13" font-weight="400" text-anchor="start" fill="#111">load output</text>
<polyline points="76.00,297.60 76.04,296.05 76.12,292.96 76.28,286.77 76.59,274.40 76.99,258.93 77.39,243.46 77.71,230.93 78.03,218.40 78.07,218.40 78.15,218.40 78.31,218.40 78.62,218.40 79.02,218.40 79.42,218.40 79.81,218.40 80.21,218.40 80.61,218.40 81.00,218.40 81.40,218.40 81.80,218.40 82.19,218.40 82.59,218.40 82.99,218.40 83.38,218.40 83.78,218.40 84.18,218.40 84.57,218.40 84.97,218.40 85.36,218.40 85.76,218.40 86.16,218.40 86.55,218.40 86.95,218.40 87.35,218.40 87.74,218.40 88.14,218.40 88.54,218.40 88.93,218.40 89.33,218.40 89.73,218.40 90.12,218.40 90.52,218.40 90.92,218.40 91.31,218.40 91.71,218.40 92.11,218.40 92.50,218.40 92.90,218.40 93.29,218.40 93.69,218.40 94.09,218.40 94.48,218.40 94.88,218.40 95.28,218.40 95.67,218.40 96.07,218.40 96.47,218.40 96.86,218.40 97.26,218.40 97.66,218.40 98.05,218.40 98.45,218.40 98.85,218.40 99.24,218.40 99.64,218.40 100.03,218.40 100.43,218.40 100.83,218.40 101.22,218.40 101.62,218.40 102.02,218.40 102.41,218.40 102.81,218.40 103.21,218.40 103.60,218.40 104.00,218.40 104.40,218.40 104.79,218.40 105.19,218.40 105.59,218.40 105.98,218.40 106.38,218.40 106.78,218.40 107.17,218.40 107.57,218.40 107.96,218.40 108.36,218.40 108.76,218.40 109.15,218.40 109.55,218.40 109.95,218.40 110.34,218.40 110.74,218.40 111.14,218.40 111.53,218.40 111.93,218.40 112.33,218.40 112.72,218.40 113.12,218.40 113.52,218.40 113.91,218.40 114.31,218.40 114.70,218.40 115.10,218.40 115.50,218.40 115.89,218.40 116.29,218.40 116.69,218.40 117.08,218.40 117.48,218.40 117.88,218.40 118.27,218.40 118.67,218.40 119.07,218.40 119.46,218.40 119.86,218.40 120.26,218.40 120.65,218.40 121.05,218.40 121.45,218.40 121.84,218.40 122.24,218.40 122.63,218.40 123.03,218.40 123.43,218.40 123.82,218.40 124.22,218.40 124.62,218.40 125.01,218.40 125.41,218.40 125.81,218.40 126.20,218.40 126.60,218.40 127.00,218.40 127.39,218.40 127.79,218.40 128.19,218.40 128.58,218.40 128.98,218.40 129.37,218.40 129.77,218.40 130.17,218.40 130.56,218.40 130.96,218.40 131.36,218.40 131.75,218.40 132.15,218.40 132.55,218.40 132.94,218.40 133.34,218.40 133.74,218.40 134.13,218.40 134.53,218.40 134.93,218.40 135.32,218.40 135.72,218.40 136.11,218.40 136.51,218.40 136.91,218.40 137.30,218.40 137.70,218.40 138.10,218.40 138.49,218.40 138.89,218.40 139.29,218.40 139.68,218.40 140.08,218.40 140.48,218.40 140.87,218.40 141.27,218.40 141.67,218.40 142.06,218.40 142.46,218.40 142.86,218.40 143.25,218.40 143.65,218.40 144.04,218.40 144.44,218.40 144.84,218.40 145.23,218.40 145.63,218.40 146.03,218.40 146.42,218.40 146.82,218.40 147.22,218.40 147.61,218.40 148.01,218.40 148.41,218.40 148.80,218.40 149.20,218.40 149.60,218.40 149.99,218.40 150.39,218.40 150.78,218.40 151.18,218.40 151.58,218.40 151.97,218.40 152.37,218.40 152.77,218.40 153.16,218.40 153.56,218.40 153.96,218.40 154.35,218.40 154.75,218.40 155.15,218.40 155.54,218.40 155.94,218.40 156.34,218.40 156.73,218.40 157.13,218.40 157.53,218.40 157.92,218.40 158.32,218.40 158.71,218.40 159.11,218.40 159.51,218.40 159.90,218.40 160.30,218.40 160.70,218.40 161.09,218.40 161.49,218.40 161.89,218.40 162.28,218.40 162.68,218.40 163.08,218.40 163.47,218.40 163.87,218.40 164.27,218.40 164.66,218.40 165.06,218.40 165.45,218.40 165.85,218.40 166.25,218.40 166.64,218.40 167.04,218.40 167.44,218.40 167.83,218.40 168.23,218.40 168.63,218.40 169.02,218.40 169.42,218.40 169.82,218.40 170.21,218.40 170.61,218.40 171.01,218.40 171.40,218.40 171.80,218.40 172.20,218.40 172.59,218.40 172.99,218.40 173.38,218.40 173.78,218.40 174.18,218.40 174.57,218.40 174.97,218.40 175.37,218.40 175.76,218.40 176.16,218.40 176.56,218.40 176.95,218.40 177.35,218.40 177.75,218.40 178.14,218.40 178.54,218.40 178.94,218.40 179.23,218.40 179.53,218.40 179.57,219.95 179.65,223.04 179.81,229.23 180.12,241.60 180.52,257.07 180.92,272.54 181.24,285.07 181.56,297.60 181.60,297.60 181.68,297.60 181.84,297.60 182.15,297.60 182.55,297.60 182.95,297.60 183.34,297.60 183.74,297.60 184.14,297.60 184.53,297.60 184.93,297.60 185.33,297.60 185.72,297.60 186.12,297.60 186.52,297.60 186.91,297.60 187.31,297.60 187.71,297.60 188.10,297.60 188.50,297.60 188.89,297.60 189.29,297.60 189.69,297.60 190.08,297.60 190.48,297.60 190.88,297.60 191.27,297.60 191.67,297.60 192.07,297.60 192.46,297.60 192.86,297.60 193.26,297.60 193.65,297.60 194.05,297.60 194.45,297.60 194.84,297.60 195.24,297.60 195.64,297.60 196.03,297.60 196.43,297.60 196.82,297.60 197.22,297.60 197.62,297.60 198.01,297.60 198.41,297.60 198.81,297.60 199.20,297.60 199.60,297.60 200.00,297.60 200.39,297.60 200.79,297.60 201.19,297.60 201.58,297.60 201.98,297.60 202.38,297.60 202.77,297.60 203.17,297.60 203.56,297.60 203.96,297.60 204.36,297.60 204.75,297.60 205.15,297.60 205.55,297.60 205.94,297.60 206.34,297.60 206.74,297.60 207.13,297.60 207.53,297.60 207.93,297.60 208.32,297.60 208.72,297.60 209.12,297.60 209.51,297.60 209.91,297.60 210.31,297.60 210.70,297.60 211.10,297.60 211.49,297.60 211.89,297.60 212.29,297.60 212.68,297.60 213.08,297.60 213.48,297.60 213.87,297.60 214.27,297.60 214.67,297.60 215.06,297.60 215.46,297.60 215.86,297.60 216.25,297.60 216.65,297.60 217.05,297.60 217.44,297.60 217.84,297.60 218.23,297.60 218.63,297.60 219.03,297.60 219.42,297.60 219.82,297.60 220.22,297.60 220.61,297.60 221.01,297.60 221.41,297.60 221.80,297.60 222.20,297.60 222.60,297.60 222.99,297.60 223.39,297.60 223.79,297.60 224.18,297.60 224.58,297.60 224.98,297.60 225.37,297.60 225.77,297.60 226.16,297.60 226.56,297.60 226.96,297.60 227.35,297.60 227.75,297.60 228.15,297.60 228.54,297.60 228.94,297.60 229.34,297.60 229.73,297.60 230.13,297.60 230.53,297.60 230.92,297.60 231.32,297.60 231.72,297.60 232.11,297.60 232.51,297.60 232.90,297.60 233.30,297.60 233.70,297.60 234.09,297.60 234.49,297.60 234.89,297.60 235.28,297.60 235.68,297.60 236.08,297.60 236.47,297.60 236.87,297.60 237.27,297.60 237.66,297.60 238.06,297.60 238.46,297.60 238.85,297.60 239.25,297.60 239.64,297.60 240.04,297.60 240.44,297.60 240.83,297.60 241.23,297.60 241.63,297.60 242.02,297.60 242.42,297.60 242.82,297.60 243.21,297.60 243.61,297.60 244.01,297.60 244.40,297.60 244.80,297.60 245.20,297.60 245.59,297.60 245.99,297.60 246.39,297.60 246.78,297.60 247.18,297.60 247.57,297.60 247.97,297.60 248.37,297.60 248.76,297.60 249.16,297.60 249.56,297.60 249.95,297.60 250.35,297.60 250.75,297.60 251.14,297.60 251.54,297.60 251.94,297.60 252.33,297.60 252.73,297.60 253.13,297.60 253.52,297.60 253.92,297.60 254.31,297.60 254.71,297.60 255.11,297.60 255.50,297.60 255.90,297.60 256.30,297.60 256.69,297.60 257.09,297.60 257.49,297.60 257.88,297.60 258.28,297.60 258.68,297.60 259.07,297.60 259.47,297.60 259.87,297.60 260.26,297.60 260.66,297.60 261.06,297.60 261.45,297.60 261.85,297.60 262.24,297.60 262.64,297.60 263.04,297.60 263.43,297.60 263.83,297.60 264.23,297.60 264.62,297.60 265.02,297.60 265.42,297.60 265.81,297.60 266.21,297.60 266.61,297.60 267.00,297.60 267.40,297.60 267.80,297.60 268.19,297.60 268.59,297.60 268.98,297.60 269.38,297.60 269.78,297.60 270.17,297.60 270.57,297.60 270.97,297.60 271.36,297.60 271.76,297.60 272.16,297.60 272.55,297.60 272.95,297.60 273.35,297.60 273.74,297.60 274.14,297.60 274.54,297.60 274.93,297.60 275.33,297.60 275.73,297.60 276.12,297.60 276.52,297.60 276.91,297.60 277.31,297.60 277.71,297.60 278.10,297.60 278.50,297.60 278.75,297.60 279.00,297.60 279.04,296.05 279.12,292.96 279.28,286.77 279.59,274.40 279.99,258.93 280.39,243.46 280.71,230.93 281.03,218.40 281.07,218.40 281.15,218.40 281.31,218.40 281.62,218.40 282.02,218.40 282.42,218.40 282.81,218.40 283.21,218.40 283.61,218.40 284.00,218.40 284.40,218.40 284.80,218.40 285.19,218.40 285.59,218.40 285.99,218.40 286.38,218.40 286.78,218.40 287.18,218.40 287.57,218.40 287.97,218.40 288.36,218.40 288.76,218.40 289.16,218.40 289.55,218.40 289.95,218.40 290.35,218.40 290.74,218.40 291.14,218.40 291.54,218.40 291.93,218.40 292.33,218.40 292.73,218.40 293.12,218.40 293.52,218.40 293.92,218.40 294.31,218.40 294.71,218.40 295.11,218.40 295.50,218.40 295.90,218.40 296.29,218.40 296.69,218.40 297.09,218.40 297.48,218.40 297.88,218.40 298.28,218.40 298.67,218.40 299.07,218.40 299.47,218.40 299.86,218.40 300.26,218.40 300.66,218.40 301.05,218.40 301.45,218.40 301.85,218.40 302.24,218.40 302.64,218.40 303.03,218.40 303.43,218.40 303.83,218.40 304.22,218.40 304.62,218.40 305.02,218.40 305.41,218.40 305.81,218.40 306.21,218.40 306.60,218.40 307.00,218.40 307.40,218.40 307.79,218.40 308.19,218.40 308.59,218.40 308.98,218.40 309.38,218.40 309.78,218.40 310.17,218.40 310.57,218.40 310.96,218.40 311.36,218.40 311.76,218.40 312.15,218.40 312.55,218.40 312.95,218.40 313.34,218.40 313.74,218.40 314.14,218.40 314.53,218.40 314.93,218.40 315.33,218.40 315.72,218.40 316.12,218.40 316.52,218.40 316.91,218.40 317.31,218.40 317.70,218.40 318.10,218.40 318.50,218.40 318.89,218.40 319.29,218.40 319.69,218.40 320.08,218.40 320.48,218.40 320.88,218.40 321.27,218.40 321.67,218.40 322.07,218.40 322.46,218.40 322.86,218.40 323.26,218.40 323.65,218.40 324.05,218.40 324.45,218.40 324.84,218.40 325.24,218.40 325.63,218.40 326.03,218.40 326.43,218.40 326.82,218.40 327.22,218.40 327.62,218.40 328.01,218.40 328.41,218.40 328.81,218.40 329.20,218.40 329.60,218.40 330.00,218.40 330.39,218.40 330.79,218.40 331.19,218.40 331.58,218.40 331.98,218.40 332.37,218.40 332.77,218.40 333.17,218.40 333.56,218.40 333.96,218.40 334.36,218.40 334.75,218.40 335.15,218.40 335.55,218.40 335.94,218.40 336.34,218.40 336.74,218.40 337.13,218.40 337.53,218.40 337.93,218.40 338.32,218.40 338.72,218.40 339.11,218.40 339.51,218.40 339.91,218.40 340.30,218.40 340.70,218.40 341.10,218.40 341.49,218.40 341.89,218.40 342.29,218.40 342.68,218.40 343.08,218.40 343.48,218.40 343.87,218.40 344.27,218.40 344.67,218.40 345.06,218.40 345.46,218.40 345.86,218.40 346.25,218.40 346.65,218.40 347.04,218.40 347.44,218.40 347.84,218.40 348.23,218.40 348.63,218.40 349.03,218.40 349.42,218.40 349.82,218.40 350.22,218.40 350.61,218.40 351.01,218.40 351.41,218.40 351.80,218.40 352.20,218.40 352.60,218.40 352.99,218.40 353.39,218.40 353.78,218.40 354.18,218.40 354.58,218.40 354.97,218.40 355.37,218.40 355.77,218.40 356.16,218.40 356.56,218.40 356.96,218.40 357.35,218.40 357.75,218.40 358.15,218.40 358.54,218.40 358.94,218.40 359.34,218.40 359.73,218.40 360.13,218.40 360.53,218.40 360.92,218.40 361.32,218.40 361.71,218.40 362.11,218.40 362.51,218.40 362.90,218.40 363.30,218.40 363.70,218.40 364.09,218.40 364.49,218.40 364.89,218.40 365.28,218.40 365.68,218.40 366.08,218.40 366.47,218.40 366.87,218.40 367.27,218.40 367.66,218.40 368.06,218.40 368.45,218.40 368.85,218.40 369.25,218.40 369.64,218.40 370.04,218.40 370.44,218.40 370.83,218.40 371.23,218.40 371.63,218.40 372.02,218.40 372.42,218.40 372.82,218.40 373.21,218.40 373.61,218.40 374.01,218.40 374.40,218.40 374.80,218.40 375.20,218.40 375.59,218.40 375.99,218.40 376.38,218.40 376.78,218.40 377.18,218.40 377.57,218.40 377.97,218.40 378.37,218.40 378.76,218.40 379.16,218.40 379.56,218.40 379.95,218.40 380.35,218.40 380.75,218.40 381.14,218.40 381.54,218.40 381.94,218.40 382.23,218.40 382.53,218.40 382.57,219.95 382.65,223.04 382.81,229.23 383.12,241.60 383.52,257.07 383.92,272.54 384.24,285.07 384.56,297.60 384.60,297.60 384.68,297.60 384.84,297.60 385.15,297.60 385.55,297.60 385.95,297.60 386.34,297.60 386.74,297.60 387.14,297.60 387.53,297.60 387.93,297.60 388.33,297.60 388.72,297.60 389.12,297.60 389.52,297.60 389.91,297.60 390.31,297.60 390.71,297.60 391.10,297.60 391.50,297.60 391.89,297.60 392.29,297.60 392.69,297.60 393.08,297.60 393.48,297.60 393.88,297.60 394.27,297.60 394.67,297.60 395.07,297.60 395.46,297.60 395.86,297.60 396.26,297.60 396.65,297.60 397.05,297.60 397.45,297.60 397.84,297.60 398.24,297.60 398.64,297.60 399.03,297.60 399.43,297.60 399.82,297.60 400.22,297.60 400.62,297.60 401.01,297.60 401.41,297.60 401.81,297.60 402.20,297.60 402.60,297.60 403.00,297.60 403.39,297.60 403.79,297.60 404.19,297.60 404.58,297.60 404.98,297.60 405.38,297.60 405.77,297.60 406.17,297.60 406.56,297.60 406.96,297.60 407.36,297.60 407.75,297.60 408.15,297.60 408.55,297.60 408.94,297.60 409.34,297.60 409.74,297.60 410.13,297.60 410.53,297.60 410.93,297.60 411.32,297.60 411.72,297.60 412.12,297.60 412.51,297.60 412.91,297.60 413.31,297.60 413.70,297.60 414.10,297.60 414.49,297.60 414.89,297.60 415.29,297.60 415.68,297.60 416.08,297.60 416.48,297.60 416.87,297.60 417.27,297.60 417.67,297.60 418.06,297.60 418.46,297.60 418.86,297.60 419.25,297.60 419.65,297.60 420.05,297.60 420.44,297.60 420.84,297.60 421.23,297.60 421.63,297.60 422.03,297.60 422.42,297.60 422.82,297.60 423.22,297.60 423.61,297.60 424.01,297.60 424.41,297.60 424.80,297.60 425.20,297.60 425.60,297.60 425.99,297.60 426.39,297.60 426.79,297.60 427.18,297.60 427.58,297.60 427.98,297.60 428.37,297.60 428.77,297.60 429.16,297.60 429.56,297.60 429.96,297.60 430.35,297.60 430.75,297.60 431.15,297.60 431.54,297.60 431.94,297.60 432.34,297.60 432.73,297.60 433.13,297.60 433.53,297.60 433.92,297.60 434.32,297.60 434.72,297.60 435.11,297.60 435.51,297.60 435.90,297.60 436.30,297.60 436.70,297.60 437.09,297.60 437.49,297.60 437.89,297.60 438.28,297.60 438.68,297.60 439.08,297.60 439.47,297.60 439.87,297.60 440.27,297.60 440.66,297.60 441.06,297.60 441.46,297.60 441.85,297.60 442.25,297.60 442.64,297.60 443.04,297.60 443.44,297.60 443.83,297.60 444.23,297.60 444.63,297.60 445.02,297.60 445.42,297.60 445.82,297.60 446.21,297.60 446.61,297.60 447.01,297.60 447.40,297.60 447.80,297.60 448.20,297.60 448.59,297.60 448.99,297.60 449.39,297.60 449.78,297.60 450.18,297.60 450.57,297.60 450.97,297.60 451.37,297.60 451.76,297.60 452.16,297.60 452.56,297.60 452.95,297.60 453.35,297.60 453.75,297.60 454.14,297.60 454.54,297.60 454.94,297.60 455.33,297.60 455.73,297.60 456.13,297.60 456.52,297.60 456.92,297.60 457.31,297.60 457.71,297.60 458.11,297.60 458.50,297.60 458.90,297.60 459.30,297.60 459.69,297.60 460.09,297.60 460.49,297.60 460.88,297.60 461.28,297.60 461.68,297.60 462.07,297.60 462.47,297.60 462.87,297.60 463.26,297.60 463.66,297.60 464.06,297.60 464.45,297.60 464.85,297.60 465.24,297.60 465.64,297.60 466.04,297.60 466.43,297.60 466.83,297.60 467.23,297.60 467.62,297.60 468.02,297.60 468.42,297.60 468.81,297.60 469.21,297.60 469.61,297.60 470.00,297.60 470.40,297.60 470.80,297.60 471.19,297.60 471.59,297.60 471.98,297.60 472.38,297.60 472.78,297.60 473.17,297.60 473.57,297.60 473.97,297.60 474.36,297.60 474.76,297.60 475.16,297.60 475.55,297.60 475.95,297.60 476.35,297.60 476.74,297.60 477.14,297.60 477.54,297.60 477.93,297.60 478.33,297.60 478.73,297.60 479.12,297.60 479.52,297.60 479.91,297.60 480.31,297.60 480.71,297.60 481.10,297.60 481.50,297.60 481.75,297.60 482.00,297.60 482.04,296.05 482.12,292.96 482.28,286.77 482.59,274.40 482.99,258.93 483.39,243.46 483.71,230.93 484.03,218.40 484.07,218.40 484.15,218.40 484.31,218.40 484.62,218.40 485.02,218.40 485.42,218.40 485.81,218.40 486.21,218.40 486.61,218.40 487.00,218.40 487.40,218.40 487.80,218.40 488.19,218.40 488.59,218.40 488.99,218.40 489.38,218.40 489.78,218.40 490.18,218.40 490.57,218.40 490.97,218.40 491.36,218.40 491.76,218.40 492.16,218.40 492.55,218.40 492.95,218.40 493.35,218.40 493.74,218.40 494.14,218.40 494.54,218.40 494.93,218.40 495.33,218.40 495.73,218.40 496.12,218.40 496.52,218.40 496.92,218.40 497.31,218.40 497.71,218.40 498.11,218.40 498.50,218.40 498.90,218.40 499.29,218.40 499.69,218.40 500.09,218.40 500.48,218.40 500.88,218.40 501.28,218.40 501.67,218.40 502.07,218.40 502.47,218.40 502.86,218.40 503.26,218.40 503.66,218.40 504.05,218.40 504.45,218.40 504.85,218.40 505.24,218.40 505.64,218.40 506.03,218.40 506.43,218.40 506.83,218.40 507.22,218.40 507.62,218.40 508.02,218.40 508.41,218.40 508.81,218.40 509.21,218.40 509.60,218.40 510.00,218.40 510.40,218.40 510.79,218.40 511.19,218.40 511.59,218.40 511.98,218.40 512.38,218.40 512.78,218.40 513.17,218.40 513.57,218.40 513.96,218.40 514.36,218.40 514.76,218.40 515.15,218.40 515.55,218.40 515.95,218.40 516.34,218.40 516.74,218.40 517.14,218.40 517.53,218.40 517.93,218.40 518.33,218.40 518.72,218.40 519.12,218.40 519.52,218.40 519.91,218.40 520.31,218.40 520.70,218.40 521.10,218.40 521.50,218.40 521.89,218.40 522.29,218.40 522.69,218.40 523.08,218.40 523.48,218.40 523.88,218.40 524.27,218.40 524.67,218.40 525.07,218.40 525.46,218.40 525.86,218.40 526.26,218.40 526.65,218.40 527.05,218.40 527.45,218.40 527.84,218.40 528.24,218.40 528.63,218.40 529.03,218.40 529.43,218.40 529.82,218.40 530.22,218.40 530.62,218.40 531.01,218.40 531.41,218.40 531.81,218.40 532.20,218.40 532.60,218.40 533.00,218.40 533.39,218.40 533.79,218.40 534.19,218.40 534.58,218.40 534.98,218.40 535.37,218.40 535.77,218.40 536.17,218.40 536.56,218.40 536.96,218.40 537.36,218.40 537.75,218.40 538.15,218.40 538.55,218.40 538.94,218.40 539.34,218.40 539.74,218.40 540.13,218.40 540.53,218.40 540.93,218.40 541.32,218.40 541.72,218.40 542.11,218.40 542.51,218.40 542.91,218.40 543.30,218.40 543.70,218.40 544.10,218.40 544.49,218.40 544.89,218.40 545.29,218.40 545.68,218.40 546.08,218.40 546.48,218.40 546.87,218.40 547.27,218.40 547.67,218.40 548.06,218.40 548.46,218.40 548.86,218.40 549.25,218.40 549.65,218.40 550.04,218.40 550.44,218.40 550.84,218.40 551.23,218.40 551.63,218.40 552.03,218.40 552.42,218.40 552.82,218.40 553.22,218.40 553.61,218.40 554.01,218.40 554.41,218.40 554.80,218.40 555.20,218.40 555.60,218.40 555.99,218.40 556.39,218.40 556.78,218.40 557.18,218.40 557.58,218.40 557.97,218.40 558.37,218.40 558.77,218.40 559.16,218.40 559.56,218.40 559.96,218.40 560.35,218.40 560.75,218.40 561.15,218.40 561.54,218.40 561.94,218.40 562.34,218.40 562.73,218.40 563.13,218.40 563.53,218.40 563.92,218.40 564.32,218.40 564.71,218.40 565.11,218.40 565.51,218.40 565.90,218.40 566.30,218.40 566.70,218.40 567.09,218.40 567.49,218.40 567.89,218.40 568.28,218.40 568.68,218.40 569.08,218.40 569.47,218.40 569.87,218.40 570.27,218.40 570.66,218.40 571.06,218.40 571.45,218.40 571.85,218.40 572.25,218.40 572.64,218.40 573.04,218.40 573.44,218.40 573.83,218.40 574.23,218.40 574.63,218.40 575.02,218.40 575.42,218.40 575.82,218.40 576.21,218.40 576.61,218.40 577.01,218.40 577.40,218.40 577.80,218.40 578.20,218.40 578.59,218.40 578.99,218.40 579.38,218.40 579.78,218.40 580.18,218.40 580.57,218.40 580.97,218.40 581.37,218.40 581.76,218.40 582.16,218.40 582.56,218.40 582.95,218.40 583.35,218.40 583.75,218.40 584.14,218.40 584.54,218.40 584.94,218.40 585.23,218.40 585.53,218.40 585.57,219.95 585.65,223.04 585.81,229.23 586.12,241.60 586.52,257.07 586.92,272.54 587.24,285.07 587.56,297.60 587.60,297.60 587.68,297.60 587.84,297.60 588.15,297.60 588.55,297.60 588.95,297.60 589.34,297.60 589.74,297.60 590.14,297.60 590.53,297.60 590.93,297.60 591.33,297.60 591.72,297.60 592.12,297.60 592.52,297.60 592.91,297.60 593.31,297.60 593.71,297.60 594.10,297.60 594.50,297.60 594.89,297.60 595.29,297.60 595.69,297.60 596.08,297.60 596.48,297.60 596.88,297.60 597.27,297.60 597.67,297.60 598.07,297.60 598.46,297.60 598.86,297.60 599.26,297.60 599.65,297.60 600.05,297.60 600.45,297.60 600.84,297.60 601.24,297.60 601.64,297.60 602.03,297.60 602.43,297.60 602.82,297.60 603.22,297.60 603.62,297.60 604.01,297.60 604.41,297.60 604.81,297.60 605.20,297.60 605.60,297.60 606.00,297.60 606.39,297.60 606.79,297.60 607.19,297.60 607.58,297.60 607.98,297.60 608.38,297.60 608.77,297.60 609.17,297.60 609.56,297.60 609.96,297.60 610.36,297.60 610.75,297.60 611.15,297.60 611.55,297.60 611.94,297.60 612.34,297.60 612.74,297.60 613.13,297.60 613.53,297.60 613.93,297.60 614.32,297.60 614.72,297.60 615.12,297.60 615.51,297.60 615.91,297.60 616.31,297.60 616.70,297.60 617.10,297.60 617.49,297.60 617.89,297.60 618.29,297.60 618.68,297.60 619.08,297.60 619.48,297.60 619.87,297.60 620.27,297.60 620.67,297.60 621.06,297.60 621.46,297.60 621.86,297.60 622.25,297.60 622.65,297.60 623.05,297.60 623.44,297.60 623.84,297.60 624.23,297.60 624.63,297.60 625.03,297.60 625.42,297.60 625.82,297.60 626.22,297.60 626.61,297.60 627.01,297.60 627.41,297.60 627.80,297.60 628.20,297.60 628.60,297.60 628.99,297.60 629.39,297.60 629.79,297.60 630.18,297.60 630.58,297.60 630.98,297.60 631.37,297.60 631.77,297.60 632.16,297.60 632.56,297.60 632.96,297.60 633.35,297.60 633.75,297.60 634.15,297.60 634.54,297.60 634.94,297.60 635.34,297.60 635.73,297.60 636.13,297.60 636.53,297.60 636.92,297.60 637.32,297.60 637.72,297.60 638.11,297.60 638.51,297.60 638.90,297.60 639.30,297.60 639.70,297.60 640.09,297.60 640.49,297.60 640.89,297.60 641.28,297.60 641.68,297.60 642.08,297.60 642.47,297.60 642.87,297.60 643.27,297.60 643.66,297.60 644.06,297.60 644.46,297.60 644.85,297.60 645.25,297.60 645.64,297.60 646.04,297.60 646.44,297.60 646.83,297.60 647.23,297.60 647.63,297.60 648.02,297.60 648.42,297.60 648.82,297.60 649.21,297.60 649.61,297.60 650.01,297.60 650.40,297.60 650.80,297.60 651.20,297.60 651.59,297.60 651.99,297.60 652.39,297.60 652.78,297.60 653.18,297.60 653.57,297.60 653.97,297.60 654.37,297.60 654.76,297.60 655.16,297.60 655.56,297.60 655.95,297.60 656.35,297.60 656.75,297.60 657.14,297.60 657.54,297.60 657.94,297.60 658.33,297.60 658.73,297.60 659.13,297.60 659.52,297.60 659.92,297.60 660.31,297.60 660.71,297.60 661.11,297.60 661.50,297.60 661.90,297.60 662.30,297.60 662.69,297.60 663.09,297.60 663.49,297.60 663.88,297.60 664.28,297.60 664.68,297.60 665.07,297.60 665.47,297.60 665.87,297.60 666.26,297.60 666.66,297.60 667.06,297.60 667.45,297.60 667.85,297.60 668.24,297.60 668.64,297.60 669.04,297.60 669.43,297.60 669.83,297.60 670.23,297.60 670.62,297.60 671.02,297.60 671.42,297.60 671.81,297.60 672.21,297.60 672.61,297.60 673.00,297.60 673.40,297.60 673.80,297.60 674.19,297.60 674.59,297.60 674.98,297.60 675.38,297.60 675.78,297.60 676.17,297.60 676.57,297.60 676.97,297.60 677.36,297.60 677.76,297.60 678.16,297.60 678.55,297.60 678.95,297.60 679.35,297.60 679.74,297.60 680.14,297.60 680.54,297.60 680.93,297.60 681.33,297.60 681.73,297.60 682.12,297.60 682.52,297.60 682.91,297.60 683.31,297.60 683.71,297.60 684.10,297.60 684.50,297.60 684.75,297.60 685.00,297.60 685.04,296.05 685.12,292.96 685.28,286.77 685.59,274.40 685.99,258.93 686.39,243.46 686.71,230.93 687.03,218.40 687.07,218.40 687.15,218.40 687.31,218.40 687.62,218.40 688.02,218.40 688.42,218.40 688.81,218.40 689.21,218.40 689.61,218.40 690.00,218.40 690.40,218.40 690.80,218.40 691.19,218.40 691.59,218.40 691.99,218.40 692.38,218.40 692.78,218.40 693.18,218.40 693.57,218.40 693.97,218.40 694.36,218.40 694.76,218.40 695.16,218.40 695.55,218.40 695.95,218.40 696.35,218.40 696.74,218.40 697.14,218.40 697.54,218.40 697.93,218.40 698.33,218.40 698.73,218.40 699.12,218.40 699.52,218.40 699.92,218.40 700.31,218.40 700.71,218.40 701.11,218.40 701.50,218.40 701.90,218.40 702.29,218.40 702.69,218.40 703.09,218.40 703.48,218.40 703.88,218.40 704.28,218.40 704.67,218.40 705.07,218.40 705.47,218.40 705.86,218.40 706.26,218.40 706.66,218.40 707.05,218.40 707.45,218.40 707.85,218.40 708.24,218.40 708.64,218.40 709.03,218.40 709.43,218.40 709.83,218.40 710.22,218.40 710.62,218.40 711.02,218.40 711.41,218.40 711.81,218.40 712.21,218.40 712.60,218.40 713.00,218.40 713.40,218.40 713.79,218.40 714.19,218.40 714.59,218.40 714.98,218.40 715.38,218.40 715.78,218.40 716.17,218.40 716.57,218.40 716.96,218.40 717.36,218.40 717.76,218.40 718.15,218.40 718.55,218.40 718.95,218.40 719.34,218.40 719.74,218.40 720.14,218.40 720.53,218.40 720.93,218.40 721.33,218.40 721.72,218.40 722.12,218.40 722.52,218.40 722.91,218.40 723.31,218.40 723.70,218.40 724.10,218.40 724.50,218.40 724.89,218.40 725.29,218.40 725.69,218.40 726.08,218.40 726.48,218.40 726.88,218.40 727.27,218.40 727.67,218.40 728.07,218.40 728.46,218.40 728.86,218.40 729.26,218.40 729.65,218.40 730.05,218.40 730.45,218.40 730.84,218.40 731.24,218.40 731.63,218.40 732.03,218.40 732.43,218.40 732.82,218.40 733.22,218.40 733.62,218.40 734.01,218.40 734.41,218.40 734.81,218.40 735.20,218.40 735.60,218.40 736.00,218.40 736.39,218.40 736.79,218.40 737.19,218.40 737.58,218.40 737.98,218.40 738.37,218.40 738.77,218.40 739.17,218.40 739.56,218.40 739.96,218.40 740.36,218.40 740.75,218.40 741.15,218.40 741.55,218.40 741.94,218.40 742.34,218.40 742.74,218.40 743.13,218.40 743.53,218.40 743.93,218.40 744.32,218.40 744.72,218.40 745.11,218.40 745.51,218.40 745.91,218.40 746.30,218.40 746.70,218.40 747.10,218.40 747.49,218.40 747.89,218.40 748.29,218.40 748.68,218.40 749.08,218.40 749.48,218.40 749.87,218.40 750.27,218.40 750.67,218.40 751.06,218.40 751.46,218.40 751.86,218.40 752.25,218.40 752.65,218.40 753.04,218.40 753.44,218.40 753.84,218.40 754.23,218.40 754.63,218.40 755.03,218.40 755.42,218.40 755.82,218.40 756.22,218.40 756.61,218.40 757.01,218.40 757.41,218.40 757.80,218.40 758.20,218.40 758.60,218.40 758.99,218.40 759.39,218.40 759.78,218.40 760.18,218.40 760.58,218.40 760.97,218.40 761.37,218.40 761.77,218.40 762.16,218.40 762.56,218.40 762.96,218.40 763.35,218.40 763.75,218.40 764.15,218.40 764.54,218.40 764.94,218.40 765.34,218.40 765.73,218.40 766.13,218.40 766.53,218.40 766.92,218.40 767.32,218.40 767.71,218.40 768.11,218.40 768.51,218.40 768.90,218.40 769.30,218.40 769.70,218.40 770.09,218.40 770.49,218.40 770.89,218.40 771.28,218.40 771.68,218.40 772.08,218.40 772.47,218.40 772.87,218.40 773.27,218.40 773.66,218.40 774.06,218.40 774.45,218.40 774.85,218.40 775.25,218.40 775.64,218.40 776.04,218.40 776.44,218.40 776.83,218.40 777.23,218.40 777.63,218.40 778.02,218.40 778.42,218.40 778.82,218.40 779.21,218.40 779.61,218.40 780.01,218.40 780.40,218.40 780.80,218.40 781.20,218.40 781.59,218.40 781.99,218.40 782.38,218.40 782.78,218.40 783.18,218.40 783.57,218.40 783.97,218.40 784.37,218.40 784.76,218.40 785.16,218.40 785.56,218.40 785.95,218.40 786.35,218.40 786.75,218.40 787.14,218.40 787.54,218.40 787.94,218.40 788.23,218.40 788.53,218.40 788.57,219.95 788.65,223.04 788.81,229.23 789.12,241.60 789.52,257.07 789.92,272.54 790.24,285.07 790.56,297.60 790.60,297.60 790.68,297.60 790.84,297.60 791.15,297.60 791.55,297.60 791.95,297.60 792.34,297.60 792.74,297.60 793.14,297.60 793.53,297.60 793.93,297.60 794.33,297.60 794.72,297.60 795.12,297.60 795.52,297.60 795.91,297.60 796.31,297.60 796.71,297.60 797.10,297.60 797.50,297.60 797.89,297.60 798.29,297.60 798.69,297.60 799.08,297.60 799.48,297.60 799.88,297.60 800.27,297.60 800.67,297.60 801.07,297.60 801.46,297.60 801.86,297.60 802.26,297.60 802.65,297.60 803.05,297.60 803.45,297.60 803.84,297.60 804.24,297.60 804.64,297.60 805.03,297.60 805.43,297.60 805.82,297.60 806.22,297.60 806.62,297.60 807.01,297.60 807.41,297.60 807.81,297.60 808.20,297.60 808.60,297.60 809.00,297.60 809.39,297.60 809.79,297.60 810.19,297.60 810.58,297.60 810.98,297.60 811.38,297.60 811.77,297.60 812.17,297.60 812.56,297.60 812.96,297.60 813.36,297.60 813.75,297.60 814.15,297.60 814.55,297.60 814.94,297.60 815.34,297.60 815.74,297.60 816.13,297.60 816.53,297.60 816.93,297.60 817.32,297.60 817.72,297.60 818.12,297.60 818.51,297.60 818.91,297.60 819.31,297.60 819.70,297.60 820.10,297.60 820.49,297.60 820.89,297.60 821.29,297.60 821.68,297.60 822.08,297.60 822.48,297.60 822.87,297.60 823.27,297.60 823.67,297.60 824.06,297.60 824.46,297.60 824.86,297.60 825.25,297.60 825.65,297.60 826.05,297.60 826.44,297.60 826.84,297.60 827.23,297.60 827.63,297.60 828.03,297.60 828.42,297.60 828.82,297.60 829.22,297.60 829.61,297.60 830.01,297.60 830.41,297.60 830.80,297.60 831.20,297.60 831.60,297.60 831.99,297.60 832.39,297.60 832.79,297.60 833.18,297.60 833.58,297.60 833.98,297.60 834.37,297.60 834.77,297.60 835.16,297.60 835.56,297.60 835.96,297.60 836.35,297.60 836.75,297.60 837.15,297.60 837.54,297.60 837.94,297.60 838.34,297.60 838.73,297.60 839.13,297.60 839.53,297.60 839.92,297.60 840.32,297.60 840.72,297.60 841.11,297.60 841.51,297.60 841.90,297.60 842.30,297.60 842.70,297.60 843.09,297.60 843.49,297.60 843.89,297.60 844.28,297.60 844.68,297.60 845.08,297.60 845.47,297.60 845.87,297.60 846.27,297.60 846.66,297.60 847.06,297.60 847.46,297.60 847.85,297.60 848.25,297.60 848.64,297.60 849.04,297.60 849.44,297.60 849.83,297.60 850.23,297.60 850.63,297.60 851.02,297.60 851.42,297.60 851.82,297.60 852.21,297.60 852.61,297.60 853.01,297.60 853.40,297.60 853.80,297.60 854.20,297.60 854.59,297.60 854.99,297.60 855.39,297.60 855.78,297.60 856.18,297.60 856.57,297.60 856.97,297.60 857.37,297.60 857.76,297.60 858.16,297.60 858.56,297.60 858.95,297.60 859.35,297.60 859.75,297.60 860.14,297.60 860.54,297.60 860.94,297.60 861.33,297.60 861.73,297.60 862.13,297.60 862.52,297.60 862.92,297.60 863.31,297.60 863.71,297.60 864.11,297.60 864.50,297.60 864.90,297.60 865.30,297.60 865.69,297.60 866.09,297.60 866.49,297.60 866.88,297.60 867.28,297.60 867.68,297.60 868.07,297.60 868.47,297.60 868.87,297.60 869.26,297.60 869.66,297.60 870.06,297.60 870.45,297.60 870.85,297.60 871.24,297.60 871.64,297.60 872.04,297.60 872.43,297.60 872.83,297.60 873.23,297.60 873.62,297.60 874.02,297.60 874.42,297.60 874.81,297.60 875.21,297.60 875.61,297.60 876.00,297.60 876.40,297.60 876.80,297.60 877.19,297.60 877.59,297.60 877.98,297.60 878.38,297.60 878.78,297.60 879.17,297.60 879.57,297.60 879.97,297.60 880.36,297.60 880.76,297.60 881.16,297.60 881.55,297.60 881.95,297.60 882.35,297.60 882.74,297.60 883.14,297.60 883.54,297.60 883.93,297.60 884.33,297.60 884.73,297.60 885.12,297.60 885.52,297.60 885.91,297.60 886.31,297.60 886.71,297.60 887.10,297.60 887.50,297.60 887.75,297.60" fill="none" stroke="#b54708" stroke-width="3" stroke-linejoin="round"/>
<line x1="660" y1="114" x2="696" y2="114" stroke="#b54708" stroke-width="3"/>
<text x="706" y="119" font-family="Arial, Helvetica, sans-serif" font-size="13" font-weight="400" text-anchor="start" fill="#111">input x50</text>
<text x="460" y="502" font-family="Arial, Helvetica, sans-serif" font-size="14" font-weight="400" text-anchor="middle" fill="#111">Time after 60 ms settling, ms</text>
<text x="22" y="260" font-family="Arial, Helvetica, sans-serif" font-size="14" text-anchor="middle" fill="#111" transform="rotate(-90 22 260)">Voltage, V</text>
</svg>
