<svg xmlns="http://www.w3.org/2000/svg" width="920" height="520" viewBox="0 0 920 520">
<defs>
<style>
.wire{stroke:#111;stroke-width:2.6;fill:none;stroke-linecap:round;stroke-linejoin:round}
.thin{stroke:#a7b0bd;stroke-width:1.2;fill:none;stroke-linecap:round;stroke-linejoin:round}
.axis{stroke:#111;stroke-width:1.4;fill:none}
.blue{stroke:#1665d8;stroke-width:3;fill:none;stroke-linecap:round;stroke-linejoin:round}
.green{stroke:#13795b;stroke-width:3;fill:none;stroke-linecap:round;stroke-linejoin:round}
.orange{stroke:#b54708;stroke-width:3;fill:none;stroke-linecap:round;stroke-linejoin:round}
.node{fill:#111;stroke:none}
</style>
</defs>
<rect width="100%" height="100%" fill="#fff"/>
<text x="76" y="36" font-family="Arial, Helvetica, sans-serif" font-size="22" font-weight="700" text-anchor="start" fill="#111">Bootstrap sine-wave response, 1 kHz, Vin = 2.0 mVpp</text>
<rect x="76" y="60" width="812" height="396" fill="#fff" stroke="#111" stroke-width="1.4"/>
<line x1="76" y1="60" x2="76" y2="456" class="thin"/>
<text x="76" y="479" font-family="Arial, Helvetica, sans-serif" font-size="12" font-weight="400" text-anchor="middle" fill="#111">0</text>
<line x1="279" y1="60" x2="279" y2="456" class="thin"/>
<text x="279" y="479" font-family="Arial, Helvetica, sans-serif" font-size="12" font-weight="400" text-anchor="middle" fill="#111">1</text>
<line x1="482" y1="60" x2="482" y2="456" class="thin"/>
<text x="482" y="479" font-family="Arial, Helvetica, sans-serif" font-size="12" font-weight="400" text-anchor="middle" fill="#111">2</text>
<line x1="685" y1="60" x2="685" y2="456" class="thin"/>
<text x="685" y="479" font-family="Arial, Helvetica, sans-serif" font-size="12" font-weight="400" text-anchor="middle" fill="#111">3</text>
<line x1="888" y1="60" x2="888" y2="456" class="thin"/>
<text x="888" y="479" font-family="Arial, Helvetica, sans-serif" font-size="12" font-weight="400" text-anchor="middle" fill="#111">4</text>
<line x1="76" y1="456" x2="888" y2="456" class="thin"/>
<text x="66" y="460" font-family="Arial, Helvetica, sans-serif" font-size="12" font-weight="400" text-anchor="end" fill="#111">-5</text>
<line x1="76" y1="357" x2="888" y2="357" class="thin"/>
<text x="66" y="361" font-family="Arial, Helvetica, sans-serif" font-size="12" font-weight="400" text-anchor="end" fill="#111">-2.5</text>
<line x1="76" y1="258" x2="888" y2="258" class="thin"/>
<text x="66" y="262" font-family="Arial, Helvetica, sans-serif" font-size="12" font-weight="400" text-anchor="end" fill="#111">0</text>
<line x1="76" y1="159" x2="888" y2="159" class="thin"/>
<text x="66" y="163" font-family="Arial, Helvetica, sans-serif" font-size="12" font-weight="400" text-anchor="end" fill="#111">2.5</text>
<line x1="76" y1="60" x2="888" y2="60" class="thin"/>
<text x="66" y="64" font-family="Arial, Helvetica, sans-serif" font-size="12" font-weight="400" text-anchor="end" fill="#111">5</text>
<polyline points="76.00,238.19 77.01,242.47 78.03,246.76 79.05,251.07 80.06,255.38 81.07,259.70 82.09,264.01 83.11,268.32 84.12,272.61 85.14,276.90 86.15,281.16 87.16,285.40 88.18,289.61 89.20,293.80 90.21,297.94 91.22,302.05 92.24,306.12 93.26,310.13 94.27,314.10 95.28,318.01 96.30,321.86 97.32,325.65 98.33,329.37 99.35,333.02 100.36,336.60 101.38,340.10 102.39,343.52 103.41,346.86 104.42,350.10 105.43,353.26 106.45,356.32 107.47,359.29 108.48,362.15 109.49,364.92 110.51,367.57 111.53,370.12 112.54,372.56 113.55,374.89 114.57,377.10 115.59,379.19 116.60,381.16 117.62,383.01 118.63,384.74 119.64,386.34 120.66,387.82 121.68,389.17 122.69,390.39 123.70,391.48 124.72,392.43 125.74,393.26 126.75,393.95 127.76,394.51 128.78,394.93 129.80,395.21 130.81,395.36 131.82,395.38 132.84,395.26 133.86,395.00 134.87,394.61 135.89,394.09 136.90,393.43 137.91,392.63 138.93,391.71 139.95,390.65 140.96,389.46 141.97,388.14 142.99,386.69 144.01,385.12 145.02,383.42 146.03,381.59 147.05,379.65 148.07,377.58 149.08,375.40 150.09,373.10 151.11,370.68 152.13,368.16 153.14,365.52 154.16,362.78 155.17,359.94 156.18,357.00 157.20,353.95 158.22,350.82 159.23,347.59 160.24,344.27 161.26,340.87 162.28,337.39 163.29,333.82 164.30,330.19 165.32,326.48 166.34,322.70 167.35,318.86 168.36,314.96 169.38,311.01 170.40,307.00 171.41,302.94 172.43,298.84 173.44,294.70 174.45,290.52 175.47,286.31 176.49,282.08 177.50,277.81 178.51,273.53 179.53,269.24 180.55,264.93 181.56,260.62 182.57,256.30 183.59,251.98 184.61,247.67 185.62,243.38 186.64,239.09 187.65,234.83 188.66,230.58 189.68,226.37 190.70,222.18 191.71,218.03 192.72,213.92 193.74,209.86 194.76,205.84 195.77,201.87 196.78,197.96 197.80,194.11 198.82,190.32 199.83,186.60 200.84,182.95 201.86,179.37 202.88,175.87 203.89,172.45 204.91,169.12 205.92,165.87 206.93,162.72 207.95,159.66 208.97,156.69 209.98,153.83 210.99,151.07 212.01,148.41 213.03,145.86 214.04,143.43 215.05,141.10 216.07,138.89 217.09,136.80 218.10,134.83 219.11,132.98 220.13,131.26 221.15,129.66 222.16,128.18 223.18,126.84 224.19,125.62 225.20,124.53 226.22,123.58 227.24,122.76 228.25,122.07 229.26,121.52 230.28,121.10 231.30,120.81 232.31,120.66 233.32,120.65 234.34,120.77 235.36,121.03 236.37,121.42 237.38,121.95 238.40,122.61 239.42,123.41 240.43,124.34 241.45,125.40 242.46,126.59 243.47,127.91 244.49,129.36 245.51,130.93 246.52,132.63 247.53,134.46 248.55,136.40 249.57,138.47 250.58,140.66 251.59,142.96 252.61,145.37 253.63,147.89 254.64,150.53 255.66,153.27 256.67,156.11 257.69,159.05 258.70,162.09 259.72,165.23 260.73,168.46 261.74,171.77 262.76,175.17 263.78,178.65 264.79,182.21 265.80,185.85 266.82,189.56 267.84,193.33 268.85,197.17 269.86,201.06 270.88,205.02 271.90,209.02 272.91,213.08 273.93,217.18 274.94,221.32 275.95,225.49 276.97,229.70 277.99,233.93 279.00,238.19 280.01,242.47 281.03,246.76 282.05,251.07 283.06,255.38 284.07,259.70 285.09,264.01 286.11,268.32 287.12,272.61 288.13,276.90 289.15,281.16 290.17,285.40 291.18,289.61 292.20,293.80 293.21,297.94 294.22,302.05 295.24,306.12 296.26,310.13 297.27,314.10 298.28,318.01 299.30,321.86 300.32,325.65 301.33,329.37 302.34,333.02 303.36,336.60 304.38,340.10 305.39,343.52 306.40,346.86 307.42,350.10 308.44,353.26 309.45,356.32 310.47,359.29 311.48,362.15 312.49,364.91 313.51,367.57 314.53,370.12 315.54,372.56 316.55,374.89 317.57,377.10 318.59,379.19 319.60,381.16 320.61,383.01 321.63,384.74 322.65,386.34 323.66,387.82 324.68,389.17 325.69,390.39 326.70,391.48 327.72,392.43 328.74,393.26 329.75,393.95 330.76,394.50 331.78,394.93 332.80,395.21 333.81,395.36 334.82,395.38 335.84,395.26 336.86,395.00 337.87,394.61 338.88,394.09 339.90,393.43 340.92,392.63 341.93,391.71 342.95,390.65 343.96,389.46 344.97,388.14 345.99,386.69 347.01,385.12 348.02,383.42 349.03,381.59 350.05,379.65 351.07,377.58 352.08,375.40 353.09,373.10 354.11,370.68 355.13,368.16 356.14,365.52 357.15,362.78 358.17,359.94 359.19,357.00 360.20,353.95 361.22,350.82 362.23,347.59 363.24,344.27 364.26,340.87 365.28,337.39 366.29,333.82 367.30,330.19 368.32,326.48 369.34,322.70 370.35,318.86 371.36,314.96 372.38,311.01 373.40,307.00 374.41,302.94 375.42,298.84 376.44,294.70 377.46,290.52 378.47,286.31 379.49,282.07 380.50,277.81 381.51,273.53 382.53,269.24 383.55,264.93 384.56,260.61 385.57,256.30 386.59,251.98 387.61,247.67 388.62,243.38 389.63,239.09 390.65,234.83 391.67,230.58 392.68,226.37 393.70,222.18 394.71,218.03 395.72,213.92 396.74,209.86 397.76,205.84 398.77,201.87 399.78,197.96 400.80,194.11 401.82,190.32 402.83,186.60 403.84,182.95 404.86,179.37 405.88,175.87 406.89,172.45 407.90,169.12 408.92,165.87 409.94,162.72 410.95,159.66 411.97,156.69 412.98,153.83 413.99,151.07 415.01,148.41 416.03,145.86 417.04,143.43 418.05,141.10 419.07,138.89 420.09,136.80 421.10,134.83 422.11,132.98 423.13,131.26 424.15,129.66 425.16,128.18 426.17,126.84 427.19,125.62 428.21,124.53 429.22,123.58 430.24,122.76 431.25,122.07 432.26,121.52 433.28,121.10 434.30,120.81 435.31,120.66 436.32,120.65 437.34,120.77 438.36,121.03 439.37,121.42 440.38,121.95 441.40,122.61 442.42,123.41 443.43,124.34 444.44,125.40 445.46,126.59 446.48,127.91 447.49,129.36 448.51,130.93 449.52,132.63 450.53,134.46 451.55,136.40 452.57,138.47 453.58,140.66 454.59,142.96 455.61,145.37 456.63,147.89 457.64,150.53 458.65,153.27 459.67,156.11 460.69,159.05 461.70,162.09 462.72,165.23 463.73,168.46 464.75,171.77 465.76,175.17 466.78,178.65 467.79,182.21 468.80,185.85 469.82,189.55 470.84,193.33 471.85,197.17 472.86,201.06 473.88,205.02 474.90,209.02 475.91,213.08 476.92,217.18 477.94,221.32 478.96,225.49 479.97,229.70 480.99,233.93 482.00,238.19 483.01,242.47 484.03,246.76 485.05,251.07 486.06,255.38 487.07,259.70 488.09,264.01 489.11,268.32 490.12,272.61 491.13,276.89 492.15,281.16 493.17,285.40 494.18,289.61 495.19,293.80 496.21,297.94 497.23,302.05 498.24,306.12 499.26,310.13 500.27,314.10 501.28,318.01 502.30,321.86 503.32,325.65 504.33,329.37 505.34,333.02 506.36,336.60 507.38,340.10 508.39,343.52 509.40,346.86 510.42,350.10 511.44,353.26 512.45,356.32 513.46,359.29 514.48,362.15 515.50,364.91 516.51,367.57 517.53,370.12 518.54,372.56 519.55,374.88 520.57,377.10 521.59,379.19 522.60,381.16 523.61,383.01 524.63,384.74 525.65,386.34 526.66,387.82 527.67,389.17 528.69,390.39 529.71,391.48 530.72,392.43 531.74,393.26 532.75,393.95 533.76,394.50 534.78,394.93 535.80,395.21 536.81,395.36 537.82,395.38 538.84,395.26 539.86,395.00 540.87,394.61 541.88,394.09 542.90,393.43 543.92,392.63 544.93,391.71 545.94,390.65 546.96,389.46 547.98,388.14 548.99,386.69 550.01,385.12 551.02,383.42 552.03,381.59 553.05,379.65 554.07,377.58 555.08,375.40 556.09,373.10 557.11,370.68 558.13,368.16 559.14,365.52 560.15,362.78 561.17,359.94 562.19,357.00 563.20,353.95 564.21,350.82 565.23,347.59 566.25,344.27 567.26,340.87 568.28,337.39 569.29,333.82 570.30,330.19 571.32,326.48 572.34,322.70 573.35,318.86 574.36,314.96 575.38,311.01 576.40,307.00 577.41,302.94 578.42,298.84 579.44,294.70 580.46,290.52 581.47,286.31 582.48,282.07 583.50,277.81 584.52,273.53 585.53,269.24 586.55,264.93 587.56,260.61 588.57,256.30 589.59,251.98 590.61,247.67 591.62,243.37 592.63,239.09 593.65,234.83 594.67,230.58 595.68,226.37 596.69,222.18 597.71,218.03 598.73,213.92 599.74,209.86 600.76,205.84 601.77,201.87 602.79,197.96 603.80,194.11 604.82,190.32 605.83,186.60 606.84,182.95 607.86,179.37 608.88,175.87 609.89,172.45 610.90,169.12 611.92,165.87 612.94,162.72 613.95,159.66 614.96,156.69 615.98,153.83 617.00,151.07 618.01,148.41 619.03,145.86 620.04,143.43 621.06,141.10 622.07,138.89 623.09,136.80 624.10,134.83 625.11,132.98 626.13,131.26 627.15,129.66 628.16,128.18 629.17,126.84 630.19,125.62 631.21,124.53 632.22,123.58 633.23,122.76 634.25,122.07 635.27,121.52 636.28,121.10 637.30,120.81 638.31,120.66 639.32,120.65 640.34,120.77 641.36,121.03 642.37,121.42 643.38,121.95 644.40,122.61 645.42,123.41 646.43,124.34 647.44,125.40 648.46,126.59 649.48,127.91 650.49,129.36 651.50,130.93 652.52,132.63 653.54,134.46 654.55,136.40 655.57,138.47 656.58,140.65 657.59,142.96 658.61,145.37 659.63,147.89 660.64,150.53 661.65,153.27 662.67,156.11 663.69,159.05 664.70,162.09 665.71,165.23 666.73,168.46 667.75,171.77 668.76,175.17 669.78,178.65 670.79,182.21 671.81,185.85 672.82,189.55 673.84,193.33 674.85,197.17 675.86,201.06 676.88,205.02 677.90,209.02 678.91,213.08 679.92,217.18 680.94,221.32 681.96,225.49 682.97,229.70 683.98,233.93 685.00,238.19 686.02,242.47 687.03,246.76 688.05,251.07 689.06,255.38 690.07,259.70 691.09,264.01 692.11,268.32 693.12,272.61 694.13,276.89 695.15,281.16 696.17,285.40 697.18,289.61 698.19,293.80 699.21,297.94 700.23,302.05 701.24,306.12 702.25,310.13 703.27,314.10 704.29,318.01 705.30,321.86 706.32,325.65 707.33,329.37 708.34,333.02 709.36,336.60 710.38,340.10 711.39,343.52 712.40,346.86 713.42,350.10 714.44,353.26 715.45,356.32 716.46,359.29 717.48,362.15 718.50,364.91 719.51,367.57 720.52,370.12 721.54,372.56 722.56,374.88 723.57,377.09 724.59,379.19 725.60,381.16 726.61,383.01 727.63,384.74 728.65,386.34 729.66,387.82 730.67,389.17 731.69,390.39 732.71,391.48 733.72,392.43 734.73,393.26 735.75,393.95 736.77,394.50 737.78,394.93 738.80,395.21 739.81,395.36 740.83,395.38 741.84,395.26 742.86,395.00 743.87,394.61 744.88,394.09 745.90,393.43 746.92,392.63 747.93,391.71 748.94,390.65 749.96,389.46 750.98,388.14 751.99,386.69 753.00,385.12 754.02,383.42 755.04,381.59 756.05,379.65 757.07,377.58 758.08,375.40 759.09,373.10 760.11,370.68 761.13,368.16 762.14,365.52 763.15,362.78 764.17,359.94 765.19,357.00 766.20,353.95 767.21,350.82 768.23,347.59 769.25,344.27 770.26,340.87 771.27,337.39 772.29,333.82 773.31,330.19 774.32,326.48 775.34,322.70 776.35,318.86 777.36,314.96 778.38,311.01 779.40,307.00 780.41,302.94 781.42,298.84 782.44,294.70 783.46,290.52 784.47,286.31 785.48,282.07 786.50,277.81 787.52,273.53 788.53,269.24 789.54,264.93 790.56,260.61 791.58,256.30 792.59,251.98 793.61,247.67 794.62,243.37 795.63,239.09 796.65,234.82 797.67,230.58 798.68,226.37 799.69,222.18 800.71,218.03 801.73,213.92 802.74,209.86 803.75,205.84 804.77,201.87 805.79,197.96 806.80,194.11 807.81,190.32 808.83,186.60 809.85,182.95 810.86,179.37 811.88,175.87 812.89,172.45 813.90,169.12 814.92,165.87 815.94,162.72 816.95,159.65 817.96,156.69 818.98,153.83 820.00,151.07 821.01,148.41 822.02,145.86 823.04,143.43 824.06,141.10 825.07,138.89 826.09,136.80 827.10,134.83 828.12,132.98 829.13,131.26 830.15,129.66 831.16,128.18 832.17,126.84 833.19,125.62 834.21,124.53 835.22,123.58 836.23,122.76 837.25,122.07 838.27,121.52 839.28,121.10 840.29,120.81 841.31,120.66 842.33,120.65 843.34,120.77 844.36,121.03 845.37,121.42 846.38,121.95 847.40,122.61 848.42,123.41 849.43,124.34 850.44,125.40 851.46,126.59 852.48,127.91 853.49,129.36 854.50,130.93 855.52,132.63 856.54,134.46 857.55,136.40 858.56,138.47 859.58,140.65 860.60,142.95 861.61,145.37 862.63,147.89 863.64,150.53 864.65,153.27 865.67,156.11 866.69,159.05 867.70,162.09 868.71,165.23 869.73,168.46 870.75,171.77 871.76,175.17 872.77,178.65 873.79,182.21 874.81,185.85 875.82,189.55 876.83,193.33 877.85,197.17 878.87,201.06 879.88,205.02 880.90,209.02 881.91,213.08 882.92,217.18 883.94,221.32 884.96,225.49 885.97,229.70 886.98,233.93" fill="none" stroke="#13795b" stroke-width="3" stroke-linejoin="round"/>
<line x1="660" y1="88" x2="696" y2="88" stroke="#13795b" stroke-width="3"/>
<text x="706" y="93" font-family="Arial, Helvetica, sans-serif" font-size="13" font-weight="400" text-anchor="start" fill="#111">amp out AC</text>
<polyline points="76.00,238.71 77.01,242.99 78.03,247.29 79.05,251.59 80.06,255.91 81.07,260.22 82.09,264.53 83.11,268.84 84.12,273.13 85.14,277.41 86.15,281.68 87.16,285.91 88.18,290.12 89.20,294.30 90.21,298.44 91.22,302.55 92.24,306.60 93.26,310.62 94.27,314.57 95.28,318.48 96.30,322.32 97.32,326.10 98.33,329.81 99.35,333.45 100.36,337.02 101.38,340.51 102.39,343.92 103.41,347.24 104.42,350.48 105.43,353.62 106.45,356.67 107.47,359.62 108.48,362.47 109.49,365.22 110.51,367.87 111.53,370.40 112.54,372.82 113.55,375.13 114.57,377.33 115.59,379.40 116.60,381.36 117.62,383.20 118.63,384.91 119.64,386.49 120.66,387.95 121.68,389.29 122.69,390.49 123.70,391.56 124.72,392.50 125.74,393.30 126.75,393.97 127.76,394.51 128.78,394.92 129.80,395.19 130.81,395.32 131.82,395.32 132.84,395.18 133.86,394.90 134.87,394.49 135.89,393.95 136.90,393.27 137.91,392.46 138.93,391.52 139.95,390.44 140.96,389.23 141.97,387.90 142.99,386.43 144.01,384.84 145.02,383.12 146.03,381.28 147.05,379.32 148.07,377.24 149.08,375.04 150.09,372.72 151.11,370.29 152.13,367.75 153.14,365.11 154.16,362.35 155.17,359.49 156.18,356.54 157.20,353.48 158.22,350.33 159.23,347.09 160.24,343.76 161.26,340.35 162.28,336.86 163.29,333.28 164.30,329.64 165.32,325.92 166.34,322.14 167.35,318.29 168.36,314.38 169.38,310.42 170.40,306.40 171.41,302.34 172.43,298.23 173.44,294.09 174.45,289.90 175.47,285.69 176.49,281.45 177.50,277.18 178.51,272.90 179.53,268.60 180.55,264.29 181.56,259.98 182.57,255.66 183.59,251.35 184.61,247.04 185.62,242.74 186.64,238.46 187.65,234.20 188.66,229.96 189.68,225.75 190.70,221.57 191.71,217.43 192.72,213.32 193.74,209.26 194.76,205.25 195.77,201.29 196.78,197.39 197.80,193.54 198.82,189.76 199.83,186.05 200.84,182.41 201.86,178.84 202.88,175.35 203.89,171.95 204.91,168.62 205.92,165.39 206.93,162.25 207.95,159.20 208.97,156.25 209.98,153.40 210.99,150.65 212.01,148.01 213.03,145.48 214.04,143.06 215.05,140.75 216.07,138.55 217.09,136.48 218.10,134.53 219.11,132.69 220.13,130.98 221.15,129.40 222.16,127.94 223.18,126.61 224.19,125.42 225.20,124.35 226.22,123.41 227.24,122.61 228.25,121.94 229.26,121.40 230.28,121.00 231.30,120.73 232.31,120.60 233.32,120.61 234.34,120.75 235.36,121.03 236.37,121.44 237.38,121.98 238.40,122.66 239.42,123.47 240.43,124.42 241.45,125.50 242.46,126.71 243.47,128.04 244.49,129.51 245.51,131.10 246.52,132.82 247.53,134.66 248.55,136.63 249.57,138.71 250.58,140.91 251.59,143.22 252.61,145.65 253.63,148.19 254.64,150.84 255.66,153.59 256.67,156.45 257.69,159.41 258.70,162.46 259.72,165.61 260.73,168.85 261.74,172.17 262.76,175.59 263.78,179.08 264.79,182.65 265.80,186.29 266.82,190.01 267.84,193.79 268.85,197.64 269.86,201.54 270.88,205.50 271.90,209.52 272.91,213.58 273.93,217.68 274.94,221.83 275.95,226.01 276.97,230.22 277.99,234.46 279.00,238.72 280.01,243.00 281.03,247.29 282.05,251.60 283.06,255.91 284.07,260.23 285.09,264.54 286.11,268.85 287.12,273.14 288.13,277.42 289.15,281.68 290.17,285.92 291.18,290.13 292.20,294.31 293.21,298.45 294.22,302.55 295.24,306.61 296.26,310.62 297.27,314.58 298.28,318.48 299.30,322.33 300.32,326.11 301.33,329.82 302.34,333.46 303.36,337.03 304.38,340.52 305.39,343.93 306.40,347.25 307.42,350.48 308.44,353.63 309.45,356.68 310.47,359.63 311.48,362.48 312.49,365.23 313.51,367.87 314.53,370.41 315.54,372.83 316.55,375.14 317.57,377.33 318.59,379.41 319.60,381.37 320.61,383.20 321.63,384.91 322.65,386.50 323.66,387.96 324.68,389.29 325.69,390.49 326.70,391.56 327.72,392.50 328.74,393.31 329.75,393.98 330.76,394.52 331.78,394.92 332.80,395.19 333.81,395.32 334.82,395.32 335.84,395.18 336.86,394.91 337.87,394.50 338.88,393.96 339.90,393.28 340.92,392.47 341.93,391.52 342.95,390.45 343.96,389.24 344.97,387.90 345.99,386.44 347.01,384.85 348.02,383.13 349.03,381.29 350.05,379.33 351.07,377.24 352.08,375.04 353.09,372.73 354.11,370.30 355.13,367.76 356.14,365.11 357.15,362.36 358.17,359.50 359.19,356.54 360.20,353.49 361.22,350.34 362.23,347.10 363.24,343.77 364.26,340.36 365.28,336.86 366.29,333.29 367.30,329.64 368.32,325.93 369.34,322.14 370.35,318.29 371.36,314.39 372.38,310.42 373.40,306.41 374.41,302.34 375.42,298.24 376.44,294.09 377.46,289.91 378.47,285.70 379.49,281.45 380.50,277.19 381.51,272.91 382.53,268.61 383.55,264.30 384.56,259.99 385.57,255.67 386.59,251.36 387.61,247.05 388.62,242.75 389.63,238.47 390.65,234.21 391.67,229.97 392.68,225.76 393.70,221.58 394.71,217.43 395.72,213.33 396.74,209.27 397.76,205.26 398.77,201.30 399.78,197.39 400.80,193.55 401.82,189.77 402.83,186.06 403.84,182.42 404.86,178.85 405.88,175.36 406.89,171.95 407.90,168.63 408.92,165.40 409.94,162.25 410.95,159.21 411.97,156.25 412.98,153.40 413.99,150.66 415.01,148.02 416.03,145.48 417.04,143.06 418.05,140.75 419.07,138.56 420.09,136.49 421.10,134.53 422.11,132.70 423.13,130.99 424.15,129.41 425.16,127.95 426.17,126.62 427.19,125.42 428.21,124.35 429.22,123.42 430.24,122.61 431.25,121.94 432.26,121.41 433.28,121.01 434.30,120.74 435.31,120.61 436.32,120.61 437.34,120.76 438.36,121.03 439.37,121.44 440.38,121.99 441.40,122.67 442.42,123.48 443.43,124.43 444.44,125.50 445.46,126.71 446.48,128.05 447.49,129.52 448.51,131.11 449.52,132.83 450.53,134.67 451.55,136.63 452.57,138.71 453.58,140.91 454.59,143.23 455.61,145.66 456.63,148.20 457.64,150.85 458.65,153.60 459.67,156.46 460.69,159.41 461.70,162.47 462.72,165.61 463.73,168.85 464.75,172.18 465.76,175.59 466.78,179.09 467.79,182.66 468.80,186.30 469.82,190.02 470.84,193.80 471.85,197.64 472.86,201.55 473.88,205.51 474.90,209.52 475.91,213.58 476.92,217.69 477.94,221.83 478.96,226.01 479.97,230.22 480.99,234.46 482.00,238.72 483.01,243.00 484.03,247.30 485.05,251.61 486.06,255.92 487.07,260.23 488.09,264.55 489.11,268.85 490.12,273.15 491.13,277.43 492.15,281.69 493.17,285.93 494.18,290.14 495.19,294.31 496.21,298.46 497.23,302.56 498.24,306.62 499.26,310.63 500.27,314.59 501.28,318.49 502.30,322.33 503.32,326.11 504.33,329.83 505.34,333.47 506.36,337.03 507.38,340.52 508.39,343.93 509.40,347.25 510.42,350.49 511.44,353.63 512.45,356.68 513.46,359.63 514.48,362.49 515.50,365.23 516.51,367.88 517.53,370.41 518.54,372.84 519.55,375.15 520.57,377.34 521.59,379.42 522.60,381.37 523.61,383.21 524.63,384.92 525.65,386.51 526.66,387.97 527.67,389.30 528.69,390.50 529.71,391.57 530.72,392.51 531.74,393.31 532.75,393.99 533.76,394.53 534.78,394.93 535.80,395.20 536.81,395.33 537.82,395.33 538.84,395.19 539.86,394.92 540.87,394.51 541.88,393.96 542.90,393.29 543.92,392.47 544.93,391.53 545.94,390.45 546.96,389.25 547.98,387.91 548.99,386.44 550.01,384.85 551.02,383.14 552.03,381.29 553.05,379.33 554.07,377.25 555.08,375.05 556.09,372.73 557.11,370.31 558.13,367.77 559.14,365.12 560.15,362.36 561.17,359.51 562.19,356.55 563.20,353.49 564.21,350.35 565.23,347.10 566.25,343.78 567.26,340.36 568.28,336.87 569.29,333.30 570.30,329.65 571.32,325.93 572.34,322.15 573.35,318.30 574.36,314.39 575.38,310.43 576.40,306.41 577.41,302.35 578.42,298.24 579.44,294.10 580.46,289.92 581.47,285.70 582.48,281.46 583.50,277.20 584.52,272.91 585.53,268.62 586.55,264.31 587.56,259.99 588.57,255.68 589.59,251.36 590.61,247.05 591.62,242.76 592.63,238.47 593.65,234.21 594.67,229.97 595.68,225.76 596.69,221.58 597.71,217.44 598.73,213.33 599.74,209.27 600.76,205.26 601.77,201.30 602.79,197.40 603.80,193.56 604.82,189.78 605.83,186.06 606.84,182.42 607.86,178.86 608.88,175.37 609.89,171.96 610.90,168.64 611.92,165.40 612.94,162.26 613.95,159.21 614.96,156.26 615.98,153.41 617.00,150.66 618.01,148.02 619.03,145.49 620.04,143.07 621.06,140.76 622.07,138.57 623.09,136.49 624.10,134.54 625.11,132.71 626.13,131.00 627.15,129.41 628.16,127.96 629.17,126.63 630.19,125.43 631.21,124.36 632.22,123.42 633.23,122.62 634.25,121.95 635.27,121.41 636.28,121.01 637.30,120.75 638.31,120.62 639.32,120.62 640.34,120.76 641.36,121.04 642.37,121.45 643.38,121.99 644.40,122.67 645.42,123.49 646.43,124.43 647.44,125.51 648.46,126.72 649.48,128.06 650.49,129.52 651.50,131.12 652.52,132.83 653.54,134.68 654.55,136.64 655.57,138.72 656.58,140.92 657.59,143.24 658.61,145.67 659.63,148.20 660.64,150.85 661.65,153.61 662.67,156.46 663.69,159.42 664.70,162.47 665.71,165.62 666.73,168.86 667.75,172.19 668.76,175.60 669.78,179.09 670.79,182.66 671.81,186.31 672.82,190.02 673.84,193.80 674.85,197.65 675.86,201.56 676.88,205.52 677.90,209.53 678.91,213.59 679.92,217.69 680.94,221.84 681.96,226.02 682.97,230.23 683.98,234.47 685.00,238.73 686.02,243.01 687.03,247.31 688.05,251.61 689.06,255.93 690.07,260.24 691.09,264.55 692.11,268.86 693.12,273.15 694.13,277.43 695.15,281.69 696.17,285.93 697.18,290.14 698.19,294.32 699.21,298.46 700.23,302.56 701.24,306.62 702.25,310.63 703.27,314.59 704.29,318.50 705.30,322.34 706.32,326.12 707.33,329.83 708.34,333.47 709.36,337.04 710.38,340.53 711.39,343.94 712.40,347.26 713.42,350.50 714.44,353.64 715.45,356.69 716.46,359.64 717.48,362.49 718.50,365.24 719.51,367.88 720.52,370.42 721.54,372.84 722.56,375.15 723.57,377.35 724.59,379.42 725.60,381.38 726.61,383.22 727.63,384.93 728.65,386.51 729.66,387.97 730.67,389.30 731.69,390.51 732.71,391.58 733.72,392.51 734.73,393.32 735.75,393.99 736.77,394.53 737.78,394.94 738.80,395.20 739.81,395.34 740.83,395.33 741.84,395.20 742.86,394.92 743.87,394.51 744.88,393.97 745.90,393.29 746.92,392.48 747.93,391.54 748.94,390.46 749.96,389.25 750.98,387.92 751.99,386.45 753.00,384.86 754.02,383.14 755.04,381.30 756.05,379.34 757.07,377.26 758.08,375.06 759.09,372.74 760.11,370.31 761.13,367.77 762.14,365.12 763.15,362.37 764.17,359.51 765.19,356.55 766.20,353.50 767.21,350.35 768.23,347.11 769.25,343.78 770.26,340.37 771.27,336.87 772.29,333.30 773.31,329.66 774.32,325.94 775.34,322.15 776.35,318.31 777.36,314.40 778.38,310.43 779.40,306.42 780.41,302.36 781.42,298.25 782.44,294.10 783.46,289.92 784.47,285.71 785.48,281.47 786.50,277.20 787.52,272.92 788.53,268.62 789.54,264.31 790.56,260.00 791.58,255.68 792.59,251.37 793.61,247.06 794.62,242.76 795.63,238.48 796.65,234.22 797.67,229.98 798.68,225.77 799.69,221.59 800.71,217.44 801.73,213.34 802.74,209.28 803.75,205.27 804.77,201.31 805.79,197.41 806.80,193.56 807.81,189.78 808.83,186.07 809.85,182.43 810.86,178.86 811.88,175.37 812.89,171.96 813.90,168.64 814.92,165.41 815.94,162.27 816.95,159.22 817.96,156.27 818.98,153.42 820.00,150.67 821.01,148.03 822.02,145.50 823.04,143.07 824.06,140.77 825.07,138.57 826.09,136.50 827.10,134.54 828.12,132.71 829.13,131.00 830.15,129.42 831.16,127.96 832.17,126.63 833.19,125.43 834.21,124.37 835.22,123.43 836.23,122.63 837.25,121.96 838.27,121.42 839.28,121.02 840.29,120.75 841.31,120.62 842.33,120.63 843.34,120.77 844.36,121.04 845.37,121.45 846.38,122.00 847.40,122.68 848.42,123.49 849.43,124.44 850.44,125.52 851.46,126.73 852.48,128.06 853.49,129.53 854.50,131.12 855.52,132.84 856.54,134.68 857.55,136.64 858.56,138.73 859.58,140.93 860.60,143.24 861.61,145.67 862.63,148.21 863.64,150.86 864.65,153.61 865.67,156.47 866.69,159.43 867.70,162.48 868.71,165.63 869.73,168.87 870.75,172.19 871.76,175.60 872.77,179.10 873.79,182.67 874.81,186.31 875.82,190.03 876.83,193.81 877.85,197.66 878.87,201.56 879.88,205.52 880.90,209.54 881.91,213.60 882.92,217.70 883.94,221.84 884.96,226.02 885.97,230.24 886.98,234.47" fill="none" stroke="#1665d8" stroke-width="3" stroke-linejoin="round"/>
<line x1="660" y1="114" x2="696" y2="114" stroke="#1665d8" stroke-width="3"/>
<text x="706" y="119" font-family="Arial, Helvetica, sans-serif" font-size="13" font-weight="400" text-anchor="start" fill="#111">load output</text>
<polyline points="76.00,256.79 77.01,252.48 78.03,248.17 79.05,243.86 80.06,239.58 81.07,235.31 82.09,231.06 83.11,226.84 84.12,222.65 85.14,218.50 86.15,214.39 87.16,210.31 88.18,206.29 89.20,202.32 90.21,198.40 91.22,194.54 92.24,190.74 93.26,187.01 94.27,183.35 95.28,179.76 96.30,176.25 97.32,172.82 98.33,169.48 99.35,166.22 100.36,163.05 101.38,159.98 102.39,157.00 103.41,154.12 104.42,151.35 105.43,148.68 106.45,146.12 107.47,143.67 108.48,141.33 109.49,139.10 110.51,137.00 111.53,135.01 112.54,133.15 113.55,131.40 114.57,129.79 115.59,128.30 116.60,126.93 117.62,125.70 118.63,124.60 119.64,123.63 120.66,122.79 121.68,122.09 122.69,121.51 123.70,121.08 124.72,120.78 125.74,120.61 126.75,120.58 127.76,120.69 128.78,120.93 129.80,121.31 130.81,121.82 131.82,122.46 132.84,123.24 133.86,124.16 134.87,125.20 135.89,126.38 136.90,127.68 137.91,129.12 138.93,130.68 139.95,132.36 140.96,134.18 141.97,136.11 142.99,138.16 144.01,140.33 145.02,142.62 146.03,145.02 147.05,147.54 148.07,150.16 149.08,152.89 150.09,155.72 151.11,158.65 152.13,161.69 153.14,164.81 154.16,168.03 155.17,171.34 156.18,174.73 157.20,178.21 158.22,181.76 159.23,185.39 160.24,189.09 161.26,192.86 162.28,196.69 163.29,200.58 164.30,204.53 165.32,208.54 166.34,212.59 167.35,216.69 168.36,220.82 169.38,225.00 170.40,229.20 171.41,233.44 172.43,237.70 173.44,241.98 174.45,246.27 175.47,250.58 176.49,254.89 177.50,259.21 178.51,263.52 179.53,267.83 180.55,272.14 181.56,276.42 182.57,280.69 183.59,284.94 184.61,289.16 185.62,293.35 186.64,297.50 187.65,301.61 188.66,305.69 189.68,309.71 190.70,313.68 191.71,317.60 192.72,321.46 193.74,325.26 194.76,328.99 195.77,332.65 196.78,336.24 197.80,339.75 198.82,343.18 199.83,346.52 200.84,349.78 201.86,352.95 202.88,356.02 203.89,359.00 204.91,361.88 205.92,364.65 206.93,367.32 207.95,369.88 208.97,372.33 209.98,374.67 210.99,376.90 212.01,379.00 213.03,380.99 214.04,382.85 215.05,384.60 216.07,386.21 217.09,387.70 218.10,389.07 219.11,390.30 220.13,391.40 221.15,392.37 222.16,393.21 223.18,393.91 224.19,394.49 225.20,394.92 226.22,395.22 227.24,395.39 228.25,395.42 229.26,395.31 230.28,395.07 231.30,394.69 232.31,394.18 233.32,393.54 234.34,392.76 235.36,391.84 236.37,390.80 237.38,389.62 238.40,388.32 239.42,386.88 240.43,385.32 241.45,383.64 242.46,381.82 243.47,379.89 244.49,377.84 245.51,375.67 246.52,373.38 247.53,370.98 248.55,368.46 249.57,365.84 250.58,363.11 251.59,360.28 252.61,357.35 253.63,354.31 254.64,351.19 255.66,347.97 256.67,344.66 257.69,341.27 258.70,337.79 259.72,334.24 260.73,330.61 261.74,326.91 262.76,323.14 263.78,319.31 264.79,315.42 265.80,311.47 266.82,307.46 267.84,303.41 268.85,299.31 269.86,295.18 270.88,291.00 271.90,286.80 272.91,282.56 273.93,278.30 274.94,274.02 275.95,269.73 276.97,265.42 277.99,261.11 279.00,256.79 280.01,252.48 281.03,248.17 282.05,243.86 283.06,239.58 284.07,235.31 285.09,231.06 286.11,226.84 287.12,222.65 288.13,218.50 289.15,214.39 290.17,210.31 291.18,206.29 292.20,202.32 293.21,198.40 294.22,194.54 295.24,190.74 296.26,187.01 297.27,183.35 298.28,179.76 299.30,176.25 300.32,172.82 301.33,169.48 302.34,166.22 303.36,163.05 304.38,159.98 305.39,157.00 306.40,154.12 307.42,151.35 308.44,148.68 309.45,146.12 310.47,143.67 311.48,141.33 312.49,139.10 313.51,137.00 314.53,135.01 315.54,133.15 316.55,131.40 317.57,129.79 318.59,128.30 319.60,126.93 320.61,125.70 321.63,124.60 322.65,123.63 323.66,122.79 324.68,122.09 325.69,121.51 326.70,121.08 327.72,120.78 328.74,120.61 329.75,120.58 330.76,120.69 331.78,120.93 332.80,121.31 333.81,121.82 334.82,122.46 335.84,123.24 336.86,124.16 337.87,125.20 338.88,126.38 339.90,127.68 340.92,129.12 341.93,130.68 342.95,132.36 343.96,134.18 344.97,136.11 345.99,138.16 347.01,140.33 348.02,142.62 349.03,145.02 350.05,147.54 351.07,150.16 352.08,152.89 353.09,155.72 354.11,158.65 355.13,161.69 356.14,164.81 357.15,168.03 358.17,171.34 359.19,174.73 360.20,178.21 361.22,181.76 362.23,185.39 363.24,189.09 364.26,192.86 365.28,196.69 366.29,200.58 367.30,204.53 368.32,208.54 369.34,212.59 370.35,216.69 371.36,220.82 372.38,225.00 373.40,229.20 374.41,233.44 375.42,237.70 376.44,241.98 377.46,246.27 378.47,250.58 379.49,254.89 380.50,259.21 381.51,263.52 382.53,267.83 383.55,272.14 384.56,276.42 385.57,280.69 386.59,284.94 387.61,289.16 388.62,293.35 389.63,297.50 390.65,301.61 391.67,305.69 392.68,309.71 393.70,313.68 394.71,317.60 395.72,321.46 396.74,325.26 397.76,328.99 398.77,332.65 399.78,336.24 400.80,339.75 401.82,343.18 402.83,346.52 403.84,349.78 404.86,352.95 405.88,356.02 406.89,359.00 407.90,361.88 408.92,364.65 409.94,367.32 410.95,369.88 411.97,372.33 412.98,374.67 413.99,376.90 415.01,379.00 416.03,380.99 417.04,382.85 418.05,384.60 419.07,386.21 420.09,387.70 421.10,389.07 422.11,390.30 423.13,391.40 424.15,392.37 425.16,393.21 426.17,393.91 427.19,394.49 428.21,394.92 429.22,395.22 430.24,395.39 431.25,395.42 432.26,395.31 433.28,395.07 434.30,394.69 435.31,394.18 436.32,393.54 437.34,392.76 438.36,391.84 439.37,390.80 440.38,389.62 441.40,388.32 442.42,386.88 443.43,385.32 444.44,383.64 445.46,381.82 446.48,379.89 447.49,377.84 448.51,375.67 449.52,373.38 450.53,370.98 451.55,368.46 452.57,365.84 453.58,363.11 454.59,360.28 455.61,357.35 456.63,354.31 457.64,351.19 458.65,347.97 459.67,344.66 460.69,341.27 461.70,337.79 462.72,334.24 463.73,330.61 464.75,326.91 465.76,323.14 466.78,319.31 467.79,315.42 468.80,311.47 469.82,307.46 470.84,303.41 471.85,299.31 472.86,295.18 473.88,291.00 474.90,286.80 475.91,282.56 476.92,278.30 477.94,274.02 478.96,269.73 479.97,265.42 480.99,261.11 482.00,256.79 483.01,252.48 484.03,248.17 485.05,243.86 486.06,239.58 487.07,235.31 488.09,231.06 489.11,226.84 490.12,222.65 491.13,218.50 492.15,214.39 493.17,210.31 494.18,206.29 495.19,202.32 496.21,198.40 497.23,194.54 498.24,190.74 499.26,187.01 500.27,183.35 501.28,179.76 502.30,176.25 503.32,172.82 504.33,169.48 505.34,166.22 506.36,163.05 507.38,159.98 508.39,157.00 509.40,154.12 510.42,151.35 511.44,148.68 512.45,146.12 513.46,143.67 514.48,141.33 515.50,139.10 516.51,137.00 517.53,135.01 518.54,133.15 519.55,131.40 520.57,129.79 521.59,128.30 522.60,126.93 523.61,125.70 524.63,124.60 525.65,123.63 526.66,122.79 527.67,122.09 528.69,121.51 529.71,121.08 530.72,120.78 531.74,120.61 532.75,120.58 533.76,120.69 534.78,120.93 535.80,121.31 536.81,121.82 537.82,122.46 538.84,123.24 539.86,124.16 540.87,125.20 541.88,126.38 542.90,127.68 543.92,129.12 544.93,130.68 545.94,132.36 546.96,134.18 547.98,136.11 548.99,138.16 550.01,140.33 551.02,142.62 552.03,145.02 553.05,147.54 554.07,150.16 555.08,152.89 556.09,155.72 557.11,158.65 558.13,161.69 559.14,164.81 560.15,168.03 561.17,171.34 562.19,174.73 563.20,178.21 564.21,181.76 565.23,185.39 566.25,189.09 567.26,192.86 568.28,196.69 569.29,200.58 570.30,204.53 571.32,208.54 572.34,212.59 573.35,216.69 574.36,220.82 575.38,225.00 576.40,229.20 577.41,233.44 578.42,237.70 579.44,241.98 580.46,246.27 581.47,250.58 582.48,254.89 583.50,259.21 584.52,263.52 585.53,267.83 586.55,272.14 587.56,276.42 588.57,280.69 589.59,284.94 590.61,289.16 591.62,293.35 592.63,297.50 593.65,301.61 594.67,305.69 595.68,309.71 596.69,313.68 597.71,317.60 598.73,321.46 599.74,325.26 600.76,328.99 601.77,332.65 602.79,336.24 603.80,339.75 604.82,343.18 605.83,346.52 606.84,349.78 607.86,352.95 608.88,356.02 609.89,359.00 610.90,361.88 611.92,364.65 612.94,367.32 613.95,369.88 614.96,372.33 615.98,374.67 617.00,376.90 618.01,379.00 619.03,380.99 620.04,382.85 621.06,384.60 622.07,386.21 623.09,387.70 624.10,389.07 625.11,390.30 626.13,391.40 627.15,392.37 628.16,393.21 629.17,393.91 630.19,394.49 631.21,394.92 632.22,395.22 633.23,395.39 634.25,395.42 635.27,395.31 636.28,395.07 637.30,394.69 638.31,394.18 639.32,393.54 640.34,392.76 641.36,391.84 642.37,390.80 643.38,389.62 644.40,388.32 645.42,386.88 646.43,385.32 647.44,383.64 648.46,381.82 649.48,379.89 650.49,377.84 651.50,375.67 652.52,373.38 653.54,370.98 654.55,368.46 655.57,365.84 656.58,363.11 657.59,360.28 658.61,357.35 659.63,354.31 660.64,351.19 661.65,347.97 662.67,344.66 663.69,341.27 664.70,337.79 665.71,334.24 666.73,330.61 667.75,326.91 668.76,323.14 669.78,319.31 670.79,315.42 671.81,311.47 672.82,307.46 673.84,303.41 674.85,299.31 675.86,295.18 676.88,291.00 677.90,286.80 678.91,282.56 679.92,278.30 680.94,274.02 681.96,269.73 682.97,265.42 683.98,261.11 685.00,256.79 686.02,252.48 687.03,248.17 688.05,243.86 689.06,239.58 690.07,235.31 691.09,231.06 692.11,226.84 693.12,222.65 694.13,218.50 695.15,214.39 696.17,210.31 697.18,206.29 698.19,202.32 699.21,198.40 700.23,194.54 701.24,190.74 702.25,187.01 703.27,183.35 704.29,179.76 705.30,176.25 706.32,172.82 707.33,169.48 708.34,166.22 709.36,163.05 710.38,159.98 711.39,157.00 712.40,154.12 713.42,151.35 714.44,148.68 715.45,146.12 716.46,143.67 717.48,141.33 718.50,139.10 719.51,137.00 720.52,135.01 721.54,133.15 722.56,131.40 723.57,129.79 724.59,128.30 725.60,126.93 726.61,125.70 727.63,124.60 728.65,123.63 729.66,122.79 730.67,122.09 731.69,121.51 732.71,121.08 733.72,120.78 734.73,120.61 735.75,120.58 736.77,120.69 737.78,120.93 738.80,121.31 739.81,121.82 740.83,122.46 741.84,123.24 742.86,124.16 743.87,125.20 744.88,126.38 745.90,127.68 746.92,129.12 747.93,130.68 748.94,132.36 749.96,134.18 750.98,136.11 751.99,138.16 753.00,140.33 754.02,142.62 755.04,145.02 756.05,147.54 757.07,150.16 758.08,152.89 759.09,155.72 760.11,158.65 761.13,161.69 762.14,164.81 763.15,168.03 764.17,171.34 765.19,174.73 766.20,178.21 767.21,181.76 768.23,185.39 769.25,189.09 770.26,192.86 771.27,196.69 772.29,200.58 773.31,204.53 774.32,208.54 775.34,212.59 776.35,216.69 777.36,220.82 778.38,225.00 779.40,229.20 780.41,233.44 781.42,237.70 782.44,241.98 783.46,246.27 784.47,250.58 785.48,254.89 786.50,259.21 787.52,263.52 788.53,267.83 789.54,272.14 790.56,276.42 791.58,280.69 792.59,284.94 793.61,289.16 794.62,293.35 795.63,297.50 796.65,301.61 797.67,305.69 798.68,309.71 799.69,313.68 800.71,317.60 801.73,321.46 802.74,325.26 803.75,328.99 804.77,332.65 805.79,336.24 806.80,339.75 807.81,343.18 808.83,346.52 809.85,349.78 810.86,352.95 811.88,356.02 812.89,359.00 813.90,361.88 814.92,364.65 815.94,367.32 816.95,369.88 817.96,372.33 818.98,374.67 820.00,376.90 821.01,379.00 822.02,380.99 823.04,382.85 824.06,384.60 825.07,386.21 826.09,387.70 827.10,389.07 828.12,390.30 829.13,391.40 830.15,392.37 831.16,393.21 832.17,393.91 833.19,394.49 834.21,394.92 835.22,395.22 836.23,395.39 837.25,395.42 838.27,395.31 839.28,395.07 840.29,394.69 841.31,394.18 842.33,393.54 843.34,392.76 844.36,391.84 845.37,390.80 846.38,389.62 847.40,388.32 848.42,386.88 849.43,385.32 850.44,383.64 851.46,381.82 852.48,379.89 853.49,377.84 854.50,375.67 855.52,373.38 856.54,370.98 857.55,368.46 858.56,365.84 859.58,363.11 860.60,360.28 861.61,357.35 862.63,354.31 863.64,351.19 864.65,347.97 865.67,344.66 866.69,341.27 867.70,337.79 868.71,334.24 869.73,330.61 870.75,326.91 871.76,323.14 872.77,319.31 873.79,315.42 874.81,311.47 875.82,307.46 876.83,303.41 877.85,299.31 878.87,295.18 879.88,291.00 880.90,286.80 881.91,282.56 882.92,278.30 883.94,274.02 884.96,269.73 885.97,265.42 886.98,261.11" fill="none" stroke="#b54708" stroke-width="3" stroke-linejoin="round"/>
<line x1="660" y1="140" x2="696" y2="140" stroke="#b54708" stroke-width="3"/>
<text x="706" y="145" font-family="Arial, Helvetica, sans-serif" font-size="13" font-weight="400" text-anchor="start" fill="#111">input x3.5</text>
<text x="460" y="502" font-family="Arial, Helvetica, sans-serif" font-size="14" font-weight="400" text-anchor="middle" fill="#111">Time after 40 ms settling, ms</text>
<text x="22" y="260" font-family="Arial, Helvetica, sans-serif" font-size="14" text-anchor="middle" fill="#111" transform="rotate(-90 22 260)">AC voltage, mV</text>
</svg>
