<svg xmlns="http://www.w3.org/2000/svg" width="920" height="520" viewBox="0 0 920 520">
<defs>
<style>
.wire{stroke:#111;stroke-width:2.6;fill:none;stroke-linecap:round;stroke-linejoin:round}
.thin{stroke:#a7b0bd;stroke-width:1.2;fill:none;stroke-linecap:round;stroke-linejoin:round}
.axis{stroke:#111;stroke-width:1.4;fill:none}
.blue{stroke:#1665d8;stroke-width:3;fill:none;stroke-linecap:round;stroke-linejoin:round}
.green{stroke:#13795b;stroke-width:3;fill:none;stroke-linecap:round;stroke-linejoin:round}
.orange{stroke:#b54708;stroke-width:3;fill:none;stroke-linecap:round;stroke-linejoin:round}
.node{fill:#111;stroke:none}
</style>
</defs>
<rect width="100%" height="100%" fill="#fff"/>
<text x="76" y="36" font-family="Arial, Helvetica, sans-serif" font-size="22" font-weight="700" text-anchor="start" fill="#111">Bootstrap square response, 1 kHz, Vin = 2.0 mVpp</text>
<rect x="76" y="60" width="812" height="396" fill="#fff" stroke="#111" stroke-width="1.4"/>
<line x1="76" y1="60" x2="76" y2="456" class="thin"/>
<text x="76" y="479" font-family="Arial, Helvetica, sans-serif" font-size="12" font-weight="400" text-anchor="middle" fill="#111">0</text>
<line x1="279" y1="60" x2="279" y2="456" class="thin"/>
<text x="279" y="479" font-family="Arial, Helvetica, sans-serif" font-size="12" font-weight="400" text-anchor="middle" fill="#111">1</text>
<line x1="482" y1="60" x2="482" y2="456" class="thin"/>
<text x="482" y="479" font-family="Arial, Helvetica, sans-serif" font-size="12" font-weight="400" text-anchor="middle" fill="#111">2</text>
<line x1="685" y1="60" x2="685" y2="456" class="thin"/>
<text x="685" y="479" font-family="Arial, Helvetica, sans-serif" font-size="12" font-weight="400" text-anchor="middle" fill="#111">3</text>
<line x1="888" y1="60" x2="888" y2="456" class="thin"/>
<text x="888" y="479" font-family="Arial, Helvetica, sans-serif" font-size="12" font-weight="400" text-anchor="middle" fill="#111">4</text>
<line x1="76" y1="456" x2="888" y2="456" class="thin"/>
<text x="66" y="460" font-family="Arial, Helvetica, sans-serif" font-size="12" font-weight="400" text-anchor="end" fill="#111">-0.25</text>
<line x1="76" y1="357" x2="888" y2="357" class="thin"/>
<text x="66" y="361" font-family="Arial, Helvetica, sans-serif" font-size="12" font-weight="400" text-anchor="end" fill="#111">-0.125</text>
<line x1="76" y1="258" x2="888" y2="258" class="thin"/>
<text x="66" y="262" font-family="Arial, Helvetica, sans-serif" font-size="12" font-weight="400" text-anchor="end" fill="#111">0</text>
<line x1="76" y1="159" x2="888" y2="159" class="thin"/>
<text x="66" y="163" font-family="Arial, Helvetica, sans-serif" font-size="12" font-weight="400" text-anchor="end" fill="#111">0.125</text>
<line x1="76" y1="60" x2="888" y2="60" class="thin"/>
<text x="66" y="64" font-family="Arial, Helvetica, sans-serif" font-size="12" font-weight="400" text-anchor="end" fill="#111">0.25</text>
<polyline points="76.00,224.41 76.02,224.60 76.06,225.06 76.13,226.16 76.20,227.68 76.22,227.90 76.25,228.34 76.30,229.21 76.42,230.94 76.64,234.30 77.04,239.89 77.44,245.15 77.83,250.03 78.23,254.53 78.63,258.70 79.02,262.54 79.42,266.10 79.82,269.38 80.21,272.40 80.61,275.19 81.00,277.76 81.40,280.13 81.80,282.31 82.19,284.32 82.59,286.17 82.99,287.86 83.38,289.43 83.78,290.86 84.18,292.18 84.57,293.39 84.97,294.50 85.37,295.52 85.76,296.45 86.16,297.31 86.56,298.09 86.95,298.81 87.35,299.46 87.75,300.06 88.14,300.60 88.54,301.10 88.93,301.55 89.33,301.96 89.73,302.33 90.12,302.66 90.52,302.97 90.92,303.24 91.31,303.48 91.71,303.70 92.11,303.90 92.50,304.07 92.90,304.22 93.30,304.36 93.69,304.48 94.09,304.58 94.49,304.66 94.88,304.74 95.28,304.80 95.67,304.85 96.07,304.88 96.47,304.91 96.86,304.93 97.26,304.94 97.66,304.95 98.05,304.94 98.45,304.93 98.85,304.91 99.24,304.89 99.64,304.87 100.04,304.83 100.43,304.80 100.83,304.76 101.23,304.71 101.62,304.67 102.02,304.61 102.41,304.56 102.81,304.50 103.21,304.45 103.60,304.38 104.00,304.32 104.40,304.26 104.79,304.19 105.19,304.12 105.59,304.05 105.98,303.98 106.38,303.91 106.78,303.84 107.17,303.76 107.57,303.69 107.97,303.61 108.36,303.53 108.76,303.45 109.16,303.38 109.55,303.30 109.95,303.22 110.34,303.14 110.74,303.06 111.14,302.98 111.53,302.90 111.93,302.82 112.33,302.73 112.72,302.65 113.12,302.57 113.52,302.49 113.91,302.40 114.31,302.32 114.71,302.24 115.10,302.16 115.50,302.07 115.90,301.99 116.29,301.91 116.69,301.83 117.08,301.74 117.48,301.66 117.88,301.58 118.27,301.50 118.67,301.41 119.07,301.33 119.46,301.25 119.86,301.17 120.26,301.08 120.65,301.00 121.05,300.92 121.45,300.84 121.84,300.75 122.24,300.67 122.64,300.59 123.03,300.51 123.43,300.43 123.83,300.35 124.22,300.26 124.62,300.18 125.01,300.10 125.41,300.02 125.81,299.94 126.20,299.86 126.60,299.78 127.00,299.70 127.39,299.62 127.79,299.54 128.19,299.46 128.58,299.38 128.98,299.30 129.38,299.22 129.77,299.14 130.17,299.06 130.57,298.98 130.96,298.90 131.36,298.82 131.75,298.74 132.15,298.66 132.55,298.58 132.94,298.51 133.34,298.43 133.74,298.35 134.13,298.27 134.53,298.19 134.93,298.12 135.32,298.04 135.72,297.96 136.12,297.88 136.51,297.81 136.91,297.73 137.31,297.65 137.70,297.58 138.10,297.50 138.50,297.42 138.89,297.35 139.29,297.27 139.68,297.19 140.08,297.12 140.48,297.04 140.87,296.97 141.27,296.89 141.67,296.82 142.06,296.74 142.46,296.67 142.86,296.59 143.25,296.52 143.65,296.44 144.05,296.37 144.44,296.29 144.84,296.22 145.24,296.15 145.63,296.07 146.03,296.00 146.42,295.92 146.82,295.85 147.22,295.78 147.61,295.70 148.01,295.63 148.41,295.56 148.80,295.49 149.20,295.41 149.60,295.34 149.99,295.27 150.39,295.20 150.79,295.12 151.18,295.05 151.58,294.98 151.98,294.91 152.37,294.84 152.77,294.77 153.16,294.69 153.56,294.62 153.96,294.55 154.35,294.48 154.75,294.41 155.15,294.34 155.54,294.27 155.94,294.20 156.34,294.13 156.73,294.06 157.13,293.99 157.53,293.92 157.92,293.85 158.32,293.78 158.72,293.71 159.11,293.64 159.51,293.57 159.91,293.50 160.30,293.44 160.70,293.37 161.09,293.30 161.49,293.23 161.89,293.16 162.28,293.09 162.68,293.03 163.08,292.96 163.47,292.89 163.87,292.82 164.27,292.75 164.66,292.69 165.06,292.62 165.46,292.55 165.85,292.49 166.25,292.42 166.65,292.35 167.04,292.29 167.44,292.22 167.83,292.15 168.23,292.09 168.63,292.02 169.02,291.95 169.42,291.89 169.82,291.82 170.21,291.76 170.61,291.69 171.01,291.63 171.40,291.56 171.80,291.50 172.20,291.43 172.59,291.37 172.99,291.30 173.39,291.24 173.78,291.17 174.18,291.11 174.58,291.04 174.97,290.98 175.37,290.92 175.76,290.85 176.16,290.79 176.56,290.72 176.95,290.66 177.33,290.60 177.70,290.54 177.72,290.34 177.76,289.87 177.83,288.75 177.91,287.28 177.92,287.05 177.95,286.62 178.01,285.77 178.12,284.08 178.35,280.80 178.74,275.40 179.14,270.40 179.54,265.71 179.93,261.34 180.33,257.27 180.73,253.49 181.12,249.98 181.52,246.73 181.91,243.72 182.31,240.94 182.71,238.36 183.10,235.98 183.50,233.79 183.90,231.76 184.29,229.89 184.69,228.17 185.09,226.59 185.48,225.13 185.88,223.78 186.28,222.55 186.67,221.41 187.07,220.37 187.47,219.41 187.86,218.54 188.26,217.73 188.66,217.00 189.05,216.32 189.45,215.71 189.84,215.15 190.24,214.63 190.64,214.17 191.03,213.74 191.43,213.36 191.83,213.01 192.22,212.69 192.62,212.41 193.02,212.15 193.41,211.92 193.81,211.72 194.21,211.53 194.60,211.37 195.00,211.23 195.40,211.10 195.79,210.99 196.19,210.90 196.58,210.82 196.98,210.75 197.38,210.69 197.77,210.65 198.17,210.61 198.57,210.59 198.96,210.57 199.36,210.56 199.76,210.56 200.15,210.57 200.55,210.58 200.95,210.59 201.34,210.62 201.74,210.64 202.14,210.68 202.53,210.71 202.93,210.75 203.33,210.79 203.72,210.84 204.12,210.89 204.51,210.94 204.91,211.00 205.31,211.05 205.70,211.11 206.10,211.17 206.50,211.24 206.89,211.30 207.29,211.37 207.69,211.43 208.08,211.50 208.48,211.57 208.88,211.64 209.27,211.71 209.67,211.79 210.07,211.86 210.46,211.93 210.86,212.01 211.25,212.08 211.65,212.16 212.05,212.24 212.44,212.31 212.84,212.39 213.24,212.47 213.63,212.55 214.03,212.62 214.43,212.70 214.82,212.78 215.22,212.86 215.62,212.94 216.01,213.02 216.41,213.10 216.81,213.18 217.20,213.26 217.60,213.34 217.99,213.42 218.39,213.50 218.79,213.58 219.18,213.65 219.58,213.73 219.98,213.81 220.37,213.89 220.77,213.97 221.17,214.05 221.56,214.13 221.96,214.21 222.36,214.29 222.75,214.37 223.15,214.45 223.55,214.53 223.94,214.61 224.34,214.69 224.74,214.77 225.13,214.84 225.53,214.92 225.92,215.00 226.32,215.08 226.72,215.16 227.11,215.24 227.51,215.32 227.91,215.39 228.30,215.47 228.70,215.55 229.10,215.63 229.49,215.70 229.89,215.78 230.29,215.86 230.68,215.94 231.08,216.01 231.48,216.09 231.87,216.17 232.27,216.24 232.66,216.32 233.06,216.40 233.46,216.47 233.85,216.55 234.25,216.63 234.65,216.70 235.04,216.78 235.44,216.85 235.84,216.93 236.23,217.00 236.63,217.08 237.03,217.16 237.42,217.23 237.82,217.31 238.22,217.38 238.61,217.45 239.01,217.53 239.41,217.60 239.80,217.68 240.20,217.75 240.59,217.83 240.99,217.90 241.39,217.97 241.78,218.05 242.18,218.12 242.58,218.19 242.97,218.27 243.37,218.34 243.77,218.41 244.16,218.49 244.56,218.56 244.96,218.63 245.35,218.70 245.75,218.78 246.15,218.85 246.54,218.92 246.94,218.99 247.33,219.07 247.73,219.14 248.13,219.21 248.52,219.28 248.92,219.35 249.32,219.42 249.71,219.49 250.11,219.56 250.51,219.64 250.90,219.71 251.30,219.78 251.70,219.85 252.09,219.92 252.49,219.99 252.89,220.06 253.28,220.13 253.68,220.20 254.08,220.27 254.47,220.34 254.87,220.41 255.26,220.48 255.66,220.55 256.06,220.61 256.45,220.68 256.85,220.75 257.25,220.82 257.64,220.89 258.04,220.96 258.44,221.03 258.83,221.10 259.23,221.16 259.63,221.23 260.02,221.30 260.42,221.37 260.82,221.43 261.21,221.50 261.61,221.57 262.00,221.64 262.40,221.70 262.80,221.77 263.19,221.84 263.59,221.91 263.99,221.97 264.38,222.04 264.78,222.11 265.18,222.17 265.57,222.24 265.97,222.30 266.37,222.37 266.76,222.44 267.16,222.50 267.56,222.57 267.95,222.63 268.35,222.70 268.74,222.76 269.14,222.83 269.54,222.89 269.93,222.96 270.33,223.02 270.73,223.09 271.12,223.15 271.52,223.22 271.92,223.28 272.31,223.35 272.71,223.41 273.11,223.47 273.50,223.54 273.90,223.60 274.30,223.67 274.69,223.73 275.09,223.79 275.49,223.86 275.88,223.92 276.28,223.98 276.67,224.05 277.07,224.11 277.47,224.17 277.86,224.23 278.26,224.30 278.63,224.35 279.00,224.41 279.02,224.60 279.06,225.06 279.13,226.17 279.20,227.68 279.22,227.91 279.25,228.35 279.30,229.22 279.42,230.94 279.64,234.30 280.04,239.90 280.44,245.16 280.83,250.03 281.23,254.54 281.63,258.70 282.02,262.55 282.42,266.10 282.82,269.38 283.21,272.41 283.61,275.20 284.00,277.77 284.40,280.14 284.80,282.32 285.19,284.32 285.59,286.17 285.99,287.87 286.38,289.43 286.78,290.87 287.18,292.19 287.57,293.40 287.97,294.51 288.37,295.52 288.76,296.46 289.16,297.31 289.56,298.10 289.95,298.81 290.35,299.47 290.75,300.06 291.14,300.61 291.54,301.10 291.93,301.55 292.33,301.96 292.73,302.33 293.12,302.67 293.52,302.97 293.92,303.24 294.31,303.49 294.71,303.71 295.11,303.90 295.50,304.08 295.90,304.23 296.30,304.36 296.69,304.48 297.09,304.58 297.49,304.67 297.88,304.74 298.28,304.80 298.67,304.85 299.07,304.89 299.47,304.92 299.86,304.94 300.26,304.95 300.66,304.95 301.05,304.95 301.45,304.94 301.85,304.92 302.24,304.90 302.64,304.87 303.04,304.84 303.43,304.80 303.83,304.76 304.23,304.72 304.62,304.67 305.02,304.62 305.41,304.57 305.81,304.51 306.21,304.45 306.60,304.39 307.00,304.33 307.40,304.26 307.79,304.20 308.19,304.13 308.59,304.06 308.98,303.99 309.38,303.92 309.78,303.84 310.17,303.77 310.57,303.69 310.97,303.62 311.36,303.54 311.76,303.46 312.16,303.38 312.55,303.30 312.95,303.22 313.34,303.14 313.74,303.06 314.14,302.98 314.53,302.90 314.93,302.82 315.33,302.74 315.72,302.66 316.12,302.58 316.52,302.49 316.91,302.41 317.31,302.33 317.71,302.25 318.10,302.16 318.50,302.08 318.90,302.00 319.29,301.92 319.69,301.83 320.08,301.75 320.48,301.67 320.88,301.58 321.27,301.50 321.67,301.42 322.07,301.34 322.46,301.25 322.86,301.17 323.26,301.09 323.65,301.01 324.05,300.92 324.45,300.84 324.84,300.76 325.24,300.68 325.64,300.60 326.03,300.51 326.43,300.43 326.83,300.35 327.22,300.27 327.62,300.19 328.01,300.11 328.41,300.03 328.81,299.95 329.20,299.86 329.60,299.78 330.00,299.70 330.39,299.62 330.79,299.54 331.19,299.46 331.58,299.38 331.98,299.30 332.38,299.22 332.77,299.14 333.17,299.06 333.57,298.98 333.96,298.91 334.36,298.83 334.75,298.75 335.15,298.67 335.55,298.59 335.94,298.51 336.34,298.43 336.74,298.36 337.13,298.28 337.53,298.20 337.93,298.12 338.32,298.04 338.72,297.97 339.12,297.89 339.51,297.81 339.91,297.74 340.31,297.66 340.70,297.58 341.10,297.51 341.50,297.43 341.89,297.35 342.29,297.28 342.68,297.20 343.08,297.12 343.48,297.05 343.87,296.97 344.27,296.90 344.67,296.82 345.06,296.75 345.46,296.67 345.86,296.60 346.25,296.52 346.65,296.45 347.05,296.37 347.44,296.30 347.84,296.23 348.24,296.15 348.63,296.08 349.03,296.00 349.42,295.93 349.82,295.86 350.22,295.78 350.61,295.71 351.01,295.64 351.41,295.56 351.80,295.49 352.20,295.42 352.60,295.35 352.99,295.27 353.39,295.20 353.79,295.13 354.18,295.06 354.58,294.99 354.98,294.91 355.37,294.84 355.77,294.77 356.16,294.70 356.56,294.63 356.96,294.56 357.35,294.49 357.75,294.42 358.15,294.35 358.54,294.28 358.94,294.21 359.34,294.14 359.73,294.07 360.13,294.00 360.53,293.93 360.92,293.86 361.32,293.79 361.72,293.72 362.11,293.65 362.51,293.58 362.91,293.51 363.30,293.44 363.70,293.37 364.09,293.30 364.49,293.24 364.89,293.17 365.28,293.10 365.68,293.03 366.08,292.96 366.47,292.90 366.87,292.83 367.27,292.76 367.66,292.69 368.06,292.63 368.46,292.56 368.85,292.49 369.25,292.42 369.65,292.36 370.04,292.29 370.44,292.22 370.83,292.16 371.23,292.09 371.63,292.03 372.02,291.96 372.42,291.89 372.82,291.83 373.21,291.76 373.61,291.70 374.01,291.63 374.40,291.57 374.80,291.50 375.20,291.44 375.59,291.37 375.99,291.31 376.39,291.24 376.78,291.18 377.18,291.11 377.58,291.05 377.97,290.99 378.37,290.92 378.76,290.86 379.16,290.79 379.56,290.73 379.95,290.67 380.33,290.61 380.70,290.55 380.72,290.35 380.76,289.88 380.83,288.76 380.91,287.29 380.92,287.06 380.95,286.63 381.01,285.77 381.12,284.08 381.35,280.81 381.74,275.41 382.14,270.40 382.54,265.72 382.93,261.35 383.33,257.28 383.73,253.50 384.12,249.99 384.52,246.74 384.91,243.73 385.31,240.94 385.71,238.37 386.10,235.99 386.50,233.79 386.90,231.77 387.29,229.90 387.69,228.18 388.09,226.59 388.48,225.13 388.88,223.79 389.28,222.55 389.67,221.42 390.07,220.38 390.47,219.42 390.86,218.54 391.26,217.74 391.66,217.00 392.05,216.33 392.45,215.71 392.84,215.15 393.24,214.64 393.64,214.17 394.03,213.75 394.43,213.36 394.83,213.01 395.22,212.70 395.62,212.41 396.02,212.16 396.41,211.93 396.81,211.72 397.21,211.54 397.60,211.38 398.00,211.23 398.40,211.11 398.79,211.00 399.19,210.90 399.58,210.82 399.98,210.75 400.38,210.70 400.77,210.65 401.17,210.62 401.57,210.59 401.96,210.58 402.36,210.57 402.76,210.57 403.15,210.57 403.55,210.58 403.95,210.60 404.34,210.62 404.74,210.65 405.14,210.68 405.53,210.72 405.93,210.76 406.33,210.80 406.72,210.85 407.12,210.90 407.51,210.95 407.91,211.00 408.31,211.06 408.70,211.12 409.10,211.18 409.50,211.24 409.89,211.31 410.29,211.37 410.69,211.44 411.08,211.51 411.48,211.58 411.88,211.65 412.27,211.72 412.67,211.79 413.07,211.87 413.46,211.94 413.86,212.02 414.25,212.09 414.65,212.17 415.05,212.24 415.44,212.32 415.84,212.40 416.24,212.47 416.63,212.55 417.03,212.63 417.43,212.71 417.82,212.79 418.22,212.87 418.62,212.95 419.01,213.02 419.41,213.10 419.81,213.18 420.20,213.26 420.60,213.34 420.99,213.42 421.39,213.50 421.79,213.58 422.18,213.66 422.58,213.74 422.98,213.82 423.37,213.90 423.77,213.98 424.17,214.06 424.56,214.14 424.96,214.22 425.36,214.30 425.75,214.38 426.15,214.46 426.55,214.53 426.94,214.61 427.34,214.69 427.74,214.77 428.13,214.85 428.53,214.93 428.92,215.01 429.32,215.09 429.72,215.16 430.11,215.24 430.51,215.32 430.91,215.40 431.30,215.48 431.70,215.55 432.10,215.63 432.49,215.71 432.89,215.79 433.29,215.86 433.68,215.94 434.08,216.02 434.48,216.10 434.87,216.17 435.27,216.25 435.66,216.33 436.06,216.40 436.46,216.48 436.85,216.56 437.25,216.63 437.65,216.71 438.04,216.78 438.44,216.86 438.84,216.93 439.23,217.01 439.63,217.09 440.03,217.16 440.42,217.24 440.82,217.31 441.22,217.39 441.61,217.46 442.01,217.54 442.41,217.61 442.80,217.68 443.20,217.76 443.59,217.83 443.99,217.91 444.39,217.98 444.78,218.05 445.18,218.13 445.58,218.20 445.97,218.27 446.37,218.35 446.77,218.42 447.16,218.49 447.56,218.57 447.96,218.64 448.35,218.71 448.75,218.78 449.15,218.86 449.54,218.93 449.94,219.00 450.33,219.07 450.73,219.14 451.13,219.21 451.52,219.29 451.92,219.36 452.32,219.43 452.71,219.50 453.11,219.57 453.51,219.64 453.90,219.71 454.30,219.78 454.70,219.85 455.09,219.92 455.49,219.99 455.89,220.06 456.28,220.13 456.68,220.20 457.08,220.27 457.47,220.34 457.87,220.41 458.26,220.48 458.66,220.55 459.06,220.62 459.45,220.69 459.85,220.76 460.25,220.83 460.64,220.90 461.04,220.96 461.44,221.03 461.83,221.10 462.23,221.17 462.63,221.24 463.02,221.31 463.42,221.37 463.82,221.44 464.21,221.51 464.61,221.58 465.00,221.64 465.40,221.71 465.80,221.78 466.19,221.84 466.59,221.91 466.99,221.98 467.38,222.04 467.78,222.11 468.18,222.18 468.57,222.24 468.97,222.31 469.37,222.38 469.76,222.44 470.16,222.51 470.56,222.57 470.95,222.64 471.35,222.70 471.74,222.77 472.14,222.83 472.54,222.90 472.93,222.96 473.33,223.03 473.73,223.09 474.12,223.16 474.52,223.22 474.92,223.29 475.31,223.35 475.71,223.42 476.11,223.48 476.50,223.54 476.90,223.61 477.30,223.67 477.69,223.73 478.09,223.80 478.49,223.86 478.88,223.92 479.28,223.99 479.67,224.05 480.07,224.11 480.47,224.18 480.86,224.24 481.26,224.30 481.63,224.36 482.00,224.42 482.02,224.61 482.06,225.07 482.13,226.18 482.20,227.69 482.22,227.92 482.25,228.36 482.30,229.23 482.42,230.95 482.64,234.31 483.04,239.90 483.44,245.16 483.83,250.04 484.23,254.54 484.63,258.71 485.02,262.56 485.42,266.11 485.82,269.39 486.21,272.42 486.61,275.20 487.00,277.78 487.40,280.14 487.80,282.32 488.19,284.33 488.59,286.18 488.99,287.88 489.38,289.44 489.78,290.87 490.18,292.19 490.57,293.40 490.97,294.51 491.37,295.53 491.76,296.47 492.16,297.32 492.56,298.10 492.95,298.82 493.35,299.47 493.75,300.07 494.14,300.61 494.54,301.11 494.93,301.56 495.33,301.97 495.73,302.34 496.12,302.67 496.52,302.98 496.92,303.25 497.31,303.50 497.71,303.71 498.11,303.91 498.50,304.08 498.90,304.24 499.30,304.37 499.69,304.49 500.09,304.59 500.49,304.68 500.88,304.75 501.28,304.81 501.67,304.86 502.07,304.90 502.47,304.92 502.86,304.94 503.26,304.96 503.66,304.96 504.05,304.95 504.45,304.94 504.85,304.93 505.24,304.91 505.64,304.88 506.04,304.85 506.43,304.81 506.83,304.77 507.23,304.72 507.62,304.68 508.02,304.63 508.41,304.57 508.81,304.52 509.21,304.46 509.60,304.40 510.00,304.33 510.40,304.27 510.79,304.20 511.19,304.13 511.59,304.06 511.98,303.99 512.38,303.92 512.78,303.85 513.17,303.77 513.57,303.70 513.97,303.62 514.36,303.54 514.76,303.47 515.16,303.39 515.55,303.31 515.95,303.23 516.34,303.15 516.74,303.07 517.14,302.99 517.53,302.91 517.93,302.83 518.33,302.75 518.72,302.66 519.12,302.58 519.52,302.50 519.91,302.42 520.31,302.34 520.71,302.25 521.10,302.17 521.50,302.09 521.90,302.00 522.29,301.92 522.69,301.84 523.08,301.76 523.48,301.67 523.88,301.59 524.27,301.51 524.67,301.43 525.07,301.34 525.46,301.26 525.86,301.18 526.26,301.09 526.65,301.01 527.05,300.93 527.45,300.85 527.84,300.77 528.24,300.68 528.64,300.60 529.03,300.52 529.43,300.44 529.83,300.36 530.22,300.28 530.62,300.19 531.01,300.11 531.41,300.03 531.81,299.95 532.20,299.87 532.60,299.79 533.00,299.71 533.39,299.63 533.79,299.55 534.19,299.47 534.58,299.39 534.98,299.31 535.38,299.23 535.77,299.15 536.17,299.07 536.57,298.99 536.96,298.91 537.36,298.83 537.75,298.75 538.15,298.67 538.55,298.60 538.94,298.52 539.34,298.44 539.74,298.36 540.13,298.28 540.53,298.21 540.93,298.13 541.32,298.05 541.72,297.97 542.12,297.90 542.51,297.82 542.91,297.74 543.31,297.66 543.70,297.59 544.10,297.51 544.50,297.43 544.89,297.36 545.29,297.28 545.68,297.21 546.08,297.13 546.48,297.06 546.87,296.98 547.27,296.90 547.67,296.83 548.06,296.75 548.46,296.68 548.86,296.60 549.25,296.53 549.65,296.45 550.05,296.38 550.44,296.31 550.84,296.23 551.24,296.16 551.63,296.08 552.03,296.01 552.42,295.94 552.82,295.86 553.22,295.79 553.61,295.72 554.01,295.64 554.41,295.57 554.80,295.50 555.20,295.43 555.60,295.35 555.99,295.28 556.39,295.21 556.79,295.14 557.18,295.06 557.58,294.99 557.98,294.92 558.37,294.85 558.77,294.78 559.16,294.71 559.56,294.64 559.96,294.56 560.35,294.49 560.75,294.42 561.15,294.35 561.54,294.28 561.94,294.21 562.34,294.14 562.73,294.07 563.13,294.00 563.53,293.93 563.92,293.86 564.32,293.79 564.72,293.72 565.11,293.65 565.51,293.59 565.91,293.52 566.30,293.45 566.70,293.38 567.09,293.31 567.49,293.24 567.89,293.17 568.28,293.11 568.68,293.04 569.08,292.97 569.47,292.90 569.87,292.83 570.27,292.77 570.66,292.70 571.06,292.63 571.46,292.56 571.85,292.50 572.25,292.43 572.65,292.36 573.04,292.30 573.44,292.23 573.83,292.16 574.23,292.10 574.63,292.03 575.02,291.97 575.42,291.90 575.82,291.83 576.21,291.77 576.61,291.70 577.01,291.64 577.40,291.57 577.80,291.51 578.20,291.44 578.59,291.38 578.99,291.31 579.39,291.25 579.78,291.18 580.18,291.12 580.58,291.06 580.97,290.99 581.37,290.93 581.76,290.86 582.16,290.80 582.56,290.74 582.95,290.67 583.33,290.61 583.70,290.55 583.72,290.36 583.76,289.88 583.83,288.76 583.91,287.29 583.92,287.07 583.95,286.63 584.01,285.78 584.12,284.09 584.35,280.82 584.74,275.42 585.14,270.41 585.54,265.72 585.93,261.36 586.33,257.29 586.73,253.51 587.12,250.00 587.52,246.75 587.91,243.73 588.31,240.95 588.71,238.37 589.10,235.99 589.50,233.80 589.90,231.77 590.29,229.90 590.69,228.18 591.09,226.60 591.48,225.14 591.88,223.79 592.28,222.56 592.67,221.42 593.07,220.38 593.47,219.43 593.86,218.55 594.26,217.74 594.66,217.01 595.05,216.33 595.45,215.72 595.84,215.16 596.24,214.65 596.64,214.18 597.03,213.75 597.43,213.37 597.83,213.02 598.22,212.70 598.62,212.42 599.02,212.16 599.41,211.93 599.81,211.73 600.21,211.54 600.60,211.38 601.00,211.24 601.40,211.11 601.79,211.00 602.19,210.91 602.58,210.83 602.98,210.76 603.38,210.71 603.77,210.66 604.17,210.63 604.57,210.60 604.96,210.58 605.36,210.57 605.76,210.57 606.15,210.58 606.55,210.59 606.95,210.61 607.34,210.63 607.74,210.66 608.14,210.69 608.53,210.72 608.93,210.76 609.33,210.81 609.72,210.85 610.12,210.90 610.51,210.95 610.91,211.01 611.31,211.07 611.70,211.12 612.10,211.19 612.50,211.25 612.89,211.31 613.29,211.38 613.69,211.45 614.08,211.51 614.48,211.58 614.88,211.65 615.27,211.73 615.67,211.80 616.07,211.87 616.46,211.95 616.86,212.02 617.25,212.10 617.65,212.17 618.05,212.25 618.44,212.33 618.84,212.40 619.24,212.48 619.63,212.56 620.03,212.64 620.43,212.71 620.82,212.79 621.22,212.87 621.62,212.95 622.01,213.03 622.41,213.11 622.81,213.19 623.20,213.27 623.60,213.35 623.99,213.43 624.39,213.51 624.79,213.59 625.18,213.67 625.58,213.75 625.98,213.83 626.37,213.91 626.77,213.98 627.17,214.06 627.56,214.14 627.96,214.22 628.36,214.30 628.75,214.38 629.15,214.46 629.55,214.54 629.94,214.62 630.34,214.70 630.74,214.78 631.13,214.86 631.53,214.93 631.92,215.01 632.32,215.09 632.72,215.17 633.11,215.25 633.51,215.33 633.91,215.40 634.30,215.48 634.70,215.56 635.10,215.64 635.49,215.72 635.89,215.79 636.29,215.87 636.68,215.95 637.08,216.03 637.48,216.10 637.87,216.18 638.27,216.26 638.66,216.33 639.06,216.41 639.46,216.49 639.85,216.56 640.25,216.64 640.65,216.71 641.04,216.79 641.44,216.87 641.84,216.94 642.23,217.02 642.63,217.09 643.03,217.17 643.42,217.24 643.82,217.32 644.22,217.39 644.61,217.47 645.01,217.54 645.41,217.62 645.80,217.69 646.20,217.76 646.59,217.84 646.99,217.91 647.39,217.99 647.78,218.06 648.18,218.13 648.58,218.21 648.97,218.28 649.37,218.35 649.77,218.43 650.16,218.50 650.56,218.57 650.96,218.64 651.35,218.72 651.75,218.79 652.15,218.86 652.54,218.93 652.94,219.01 653.33,219.08 653.73,219.15 654.13,219.22 654.52,219.29 654.92,219.36 655.32,219.43 655.71,219.51 656.11,219.58 656.51,219.65 656.90,219.72 657.30,219.79 657.70,219.86 658.09,219.93 658.49,220.00 658.89,220.07 659.28,220.14 659.68,220.21 660.08,220.28 660.47,220.35 660.87,220.42 661.26,220.49 661.66,220.56 662.06,220.63 662.45,220.70 662.85,220.76 663.25,220.83 663.64,220.90 664.04,220.97 664.44,221.04 664.83,221.11 665.23,221.18 665.63,221.24 666.02,221.31 666.42,221.38 666.82,221.45 667.21,221.51 667.61,221.58 668.00,221.65 668.40,221.72 668.80,221.78 669.19,221.85 669.59,221.92 669.99,221.98 670.38,222.05 670.78,222.12 671.18,222.18 671.57,222.25 671.97,222.32 672.37,222.38 672.76,222.45 673.16,222.51 673.56,222.58 673.95,222.64 674.35,222.71 674.74,222.78 675.14,222.84 675.54,222.91 675.93,222.97 676.33,223.04 676.73,223.10 677.12,223.16 677.52,223.23 677.92,223.29 678.31,223.36 678.71,223.42 679.11,223.49 679.50,223.55 679.90,223.61 680.30,223.68 680.69,223.74 681.09,223.80 681.49,223.87 681.88,223.93 682.28,223.99 682.67,224.06 683.07,224.12 683.47,224.18 683.86,224.25 684.26,224.31 684.63,224.37 685.00,224.42 685.02,224.61 685.06,225.07 685.13,226.18 685.20,227.69 685.22,227.92 685.25,228.36 685.30,229.23 685.42,230.95 685.64,234.31 686.04,239.91 686.44,245.17 686.83,250.04 687.23,254.55 687.63,258.71 688.02,262.56 688.42,266.12 688.82,269.40 689.21,272.42 689.61,275.21 690.00,277.78 690.40,280.15 690.80,282.33 691.19,284.34 691.59,286.18 691.99,287.88 692.38,289.44 692.78,290.88 693.18,292.20 693.57,293.41 693.97,294.52 694.37,295.54 694.76,296.47 695.16,297.33 695.56,298.11 695.95,298.82 696.35,299.48 696.75,300.07 697.14,300.62 697.54,301.11 697.93,301.57 698.33,301.97 698.73,302.35 699.12,302.68 699.52,302.98 699.92,303.26 700.31,303.50 700.71,303.72 701.11,303.92 701.50,304.09 701.90,304.24 702.30,304.38 702.69,304.49 703.09,304.59 703.49,304.68 703.88,304.75 704.28,304.82 704.67,304.86 705.07,304.90 705.47,304.93 705.86,304.95 706.26,304.96 706.66,304.96 707.05,304.96 707.45,304.95 707.85,304.93 708.24,304.91 708.64,304.88 709.04,304.85 709.43,304.82 709.83,304.78 710.23,304.73 710.62,304.68 711.02,304.63 711.41,304.58 711.81,304.52 712.21,304.46 712.60,304.40 713.00,304.34 713.40,304.27 713.79,304.21 714.19,304.14 714.59,304.07 714.98,304.00 715.38,303.93 715.78,303.85 716.17,303.78 716.57,303.70 716.97,303.63 717.36,303.55 717.76,303.47 718.16,303.39 718.55,303.32 718.95,303.24 719.34,303.16 719.74,303.08 720.14,303.00 720.53,302.91 720.93,302.83 721.33,302.75 721.72,302.67 722.12,302.59 722.52,302.51 722.91,302.42 723.31,302.34 723.71,302.26 724.10,302.18 724.50,302.09 724.90,302.01 725.29,301.93 725.69,301.85 726.08,301.76 726.48,301.68 726.88,301.60 727.27,301.51 727.67,301.43 728.07,301.35 728.46,301.27 728.86,301.18 729.26,301.10 729.65,301.02 730.05,300.94 730.45,300.85 730.84,300.77 731.24,300.69 731.64,300.61 732.03,300.53 732.43,300.44 732.83,300.36 733.22,300.28 733.62,300.20 734.01,300.12 734.41,300.04 734.81,299.96 735.20,299.88 735.60,299.80 736.00,299.72 736.39,299.63 736.79,299.55 737.19,299.47 737.58,299.39 737.98,299.31 738.38,299.24 738.77,299.16 739.17,299.08 739.57,299.00 739.96,298.92 740.36,298.84 740.75,298.76 741.15,298.68 741.55,298.60 741.94,298.52 742.34,298.45 742.74,298.37 743.13,298.29 743.53,298.21 743.93,298.13 744.32,298.06 744.72,297.98 745.12,297.90 745.51,297.82 745.91,297.75 746.31,297.67 746.70,297.59 747.10,297.52 747.50,297.44 747.89,297.36 748.29,297.29 748.68,297.21 749.08,297.14 749.48,297.06 749.87,296.99 750.27,296.91 750.67,296.83 751.06,296.76 751.46,296.68 751.86,296.61 752.25,296.53 752.65,296.46 753.05,296.39 753.44,296.31 753.84,296.24 754.24,296.16 754.63,296.09 755.03,296.02 755.42,295.94 755.82,295.87 756.22,295.80 756.61,295.72 757.01,295.65 757.41,295.58 757.80,295.50 758.20,295.43 758.60,295.36 758.99,295.29 759.39,295.21 759.79,295.14 760.18,295.07 760.58,295.00 760.98,294.93 761.37,294.86 761.77,294.78 762.16,294.71 762.56,294.64 762.96,294.57 763.35,294.50 763.75,294.43 764.15,294.36 764.54,294.29 764.94,294.22 765.34,294.15 765.73,294.08 766.13,294.01 766.53,293.94 766.92,293.87 767.32,293.80 767.72,293.73 768.11,293.66 768.51,293.59 768.91,293.52 769.30,293.45 769.70,293.38 770.09,293.32 770.49,293.25 770.89,293.18 771.28,293.11 771.68,293.04 772.08,292.98 772.47,292.91 772.87,292.84 773.27,292.77 773.66,292.70 774.06,292.64 774.46,292.57 774.85,292.50 775.25,292.44 775.65,292.37 776.04,292.30 776.44,292.24 776.83,292.17 777.23,292.10 777.63,292.04 778.02,291.97 778.42,291.91 778.82,291.84 779.21,291.77 779.61,291.71 780.01,291.64 780.40,291.58 780.80,291.51 781.20,291.45 781.59,291.38 781.99,291.32 782.39,291.25 782.78,291.19 783.18,291.13 783.58,291.06 783.97,291.00 784.37,290.93 784.76,290.87 785.16,290.81 785.56,290.74 785.95,290.68 786.33,290.62 786.70,290.56 786.72,290.36 786.76,289.89 786.83,288.77 786.91,287.30 786.92,287.07 786.95,286.64 787.01,285.78 787.12,284.10 787.35,280.82 787.74,275.42 788.14,270.42 788.54,265.73 788.93,261.36 789.33,257.29 789.73,253.51 790.12,250.00 790.52,246.75 790.91,243.74 791.31,240.95 791.71,238.38 792.10,236.00 792.50,233.80 792.90,231.78 793.29,229.91 793.69,228.19 794.09,226.60 794.48,225.14 794.88,223.80 795.28,222.57 795.67,221.43 796.07,220.39 796.47,219.43 796.86,218.55 797.26,217.75 797.66,217.01 798.05,216.34 798.45,215.73 798.84,215.16 799.24,214.65 799.64,214.18 800.03,213.76 800.43,213.37 800.83,213.03 801.22,212.71 801.62,212.43 802.02,212.17 802.41,211.94 802.81,211.73 803.21,211.55 803.60,211.39 804.00,211.24 804.40,211.12 804.79,211.01 805.19,210.91 805.58,210.83 805.98,210.77 806.38,210.71 806.77,210.67 807.17,210.63 807.57,210.61 807.96,210.59 808.36,210.58 808.76,210.58 809.15,210.58 809.55,210.60 809.95,210.61 810.34,210.63 810.74,210.66 811.14,210.69 811.53,210.73 811.93,210.77 812.33,210.81 812.72,210.86 813.12,210.91 813.51,210.96 813.91,211.01 814.31,211.07 814.70,211.13 815.10,211.19 815.50,211.25 815.89,211.32 816.29,211.38 816.69,211.45 817.08,211.52 817.48,211.59 817.88,211.66 818.27,211.73 818.67,211.80 819.07,211.88 819.46,211.95 819.86,212.03 820.25,212.10 820.65,212.18 821.05,212.25 821.44,212.33 821.84,212.41 822.24,212.49 822.63,212.56 823.03,212.64 823.43,212.72 823.82,212.80 824.22,212.88 824.62,212.96 825.01,213.04 825.41,213.12 825.81,213.19 826.20,213.27 826.60,213.35 826.99,213.43 827.39,213.51 827.79,213.59 828.18,213.67 828.58,213.75 828.98,213.83 829.37,213.91 829.77,213.99 830.17,214.07 830.56,214.15 830.96,214.23 831.36,214.31 831.75,214.39 832.15,214.47 832.55,214.55 832.94,214.63 833.34,214.70 833.74,214.78 834.13,214.86 834.53,214.94 834.92,215.02 835.32,215.10 835.72,215.18 836.11,215.25 836.51,215.33 836.91,215.41 837.30,215.49 837.70,215.57 838.10,215.64 838.49,215.72 838.89,215.80 839.29,215.88 839.68,215.95 840.08,216.03 840.48,216.11 840.87,216.18 841.27,216.26 841.66,216.34 842.06,216.41 842.46,216.49 842.85,216.57 843.25,216.64 843.65,216.72 844.04,216.80 844.44,216.87 844.84,216.95 845.23,217.02 845.63,217.10 846.03,217.17 846.42,217.25 846.82,217.32 847.22,217.40 847.61,217.47 848.01,217.55 848.41,217.62 848.80,217.70 849.20,217.77 849.59,217.84 849.99,217.92 850.39,217.99 850.78,218.07 851.18,218.14 851.58,218.21 851.97,218.29 852.37,218.36 852.77,218.43 853.16,218.50 853.56,218.58 853.96,218.65 854.35,218.72 854.75,218.79 855.15,218.87 855.54,218.94 855.94,219.01 856.33,219.08 856.73,219.15 857.13,219.23 857.52,219.30 857.92,219.37 858.32,219.44 858.71,219.51 859.11,219.58 859.51,219.65 859.90,219.72 860.30,219.79 860.70,219.86 861.09,219.94 861.49,220.01 861.89,220.08 862.28,220.15 862.68,220.22 863.08,220.29 863.47,220.36 863.87,220.42 864.26,220.49 864.66,220.56 865.06,220.63 865.45,220.70 865.85,220.77 866.25,220.84 866.64,220.91 867.04,220.98 867.44,221.04 867.83,221.11 868.23,221.18 868.63,221.25 869.02,221.32 869.42,221.38 869.82,221.45 870.21,221.52 870.61,221.59 871.00,221.65 871.40,221.72 871.80,221.79 872.19,221.86 872.59,221.92 872.99,221.99 873.38,222.06 873.78,222.12 874.18,222.19 874.57,222.25 874.97,222.32 875.37,222.39 875.76,222.45 876.16,222.52 876.56,222.58 876.95,222.65 877.35,222.72 877.74,222.78 878.14,222.85 878.54,222.91 878.93,222.98 879.33,223.04 879.73,223.11 880.12,223.17 880.52,223.23 880.92,223.30 881.31,223.36 881.71,223.43 882.11,223.49 882.50,223.56 882.90,223.62 883.30,223.68 883.69,223.75 884.09,223.81 884.49,223.87 884.88,223.94 885.28,224.00 885.67,224.06 886.07,224.13 886.47,224.19 886.86,224.25 887.26,224.31 887.63,224.37" fill="none" stroke="#1665d8" stroke-width="3" stroke-linejoin="round"/>
<line x1="660" y1="88" x2="696" y2="88" stroke="#1665d8" stroke-width="3"/>
<text x="706" y="93" font-family="Arial, Helvetica, sans-serif" font-size="13" font-weight="400" text-anchor="start" fill="#111">load output</text>
<polyline points="76.00,297.60 76.02,289.68 76.06,273.84 76.13,246.12 76.20,218.40 76.22,218.40 76.25,218.40 76.30,218.40 76.42,218.40 76.64,218.40 77.04,218.40 77.44,218.40 77.83,218.40 78.23,218.40 78.63,218.40 79.02,218.40 79.42,218.40 79.82,218.40 80.21,218.40 80.61,218.40 81.00,218.40 81.40,218.40 81.80,218.40 82.19,218.40 82.59,218.40 82.99,218.40 83.38,218.40 83.78,218.40 84.18,218.40 84.57,218.40 84.97,218.40 85.37,218.40 85.76,218.40 86.16,218.40 86.56,218.40 86.95,218.40 87.35,218.40 87.75,218.40 88.14,218.40 88.54,218.40 88.93,218.40 89.33,218.40 89.73,218.40 90.12,218.40 90.52,218.40 90.92,218.40 91.31,218.40 91.71,218.40 92.11,218.40 92.50,218.40 92.90,218.40 93.30,218.40 93.69,218.40 94.09,218.40 94.49,218.40 94.88,218.40 95.28,218.40 95.67,218.40 96.07,218.40 96.47,218.40 96.86,218.40 97.26,218.40 97.66,218.40 98.05,218.40 98.45,218.40 98.85,218.40 99.24,218.40 99.64,218.40 100.04,218.40 100.43,218.40 100.83,218.40 101.23,218.40 101.62,218.40 102.02,218.40 102.41,218.40 102.81,218.40 103.21,218.40 103.60,218.40 104.00,218.40 104.40,218.40 104.79,218.40 105.19,218.40 105.59,218.40 105.98,218.40 106.38,218.40 106.78,218.40 107.17,218.40 107.57,218.40 107.97,218.40 108.36,218.40 108.76,218.40 109.16,218.40 109.55,218.40 109.95,218.40 110.34,218.40 110.74,218.40 111.14,218.40 111.53,218.40 111.93,218.40 112.33,218.40 112.72,218.40 113.12,218.40 113.52,218.40 113.91,218.40 114.31,218.40 114.71,218.40 115.10,218.40 115.50,218.40 115.90,218.40 116.29,218.40 116.69,218.40 117.08,218.40 117.48,218.40 117.88,218.40 118.27,218.40 118.67,218.40 119.07,218.40 119.46,218.40 119.86,218.40 120.26,218.40 120.65,218.40 121.05,218.40 121.45,218.40 121.84,218.40 122.24,218.40 122.64,218.40 123.03,218.40 123.43,218.40 123.83,218.40 124.22,218.40 124.62,218.40 125.01,218.40 125.41,218.40 125.81,218.40 126.20,218.40 126.60,218.40 127.00,218.40 127.39,218.40 127.79,218.40 128.19,218.40 128.58,218.40 128.98,218.40 129.38,218.40 129.77,218.40 130.17,218.40 130.57,218.40 130.96,218.40 131.36,218.40 131.75,218.40 132.15,218.40 132.55,218.40 132.94,218.40 133.34,218.40 133.74,218.40 134.13,218.40 134.53,218.40 134.93,218.40 135.32,218.40 135.72,218.40 136.12,218.40 136.51,218.40 136.91,218.40 137.31,218.40 137.70,218.40 138.10,218.40 138.50,218.40 138.89,218.40 139.29,218.40 139.68,218.40 140.08,218.40 140.48,218.40 140.87,218.40 141.27,218.40 141.67,218.40 142.06,218.40 142.46,218.40 142.86,218.40 143.25,218.40 143.65,218.40 144.05,218.40 144.44,218.40 144.84,218.40 145.24,218.40 145.63,218.40 146.03,218.40 146.42,218.40 146.82,218.40 147.22,218.40 147.61,218.40 148.01,218.40 148.41,218.40 148.80,218.40 149.20,218.40 149.60,218.40 149.99,218.40 150.39,218.40 150.79,218.40 151.18,218.40 151.58,218.40 151.98,218.40 152.37,218.40 152.77,218.40 153.16,218.40 153.56,218.40 153.96,218.40 154.35,218.40 154.75,218.40 155.15,218.40 155.54,218.40 155.94,218.40 156.34,218.40 156.73,218.40 157.13,218.40 157.53,218.40 157.92,218.40 158.32,218.40 158.72,218.40 159.11,218.40 159.51,218.40 159.91,218.40 160.30,218.40 160.70,218.40 161.09,218.40 161.49,218.40 161.89,218.40 162.28,218.40 162.68,218.40 163.08,218.40 163.47,218.40 163.87,218.40 164.27,218.40 164.66,218.40 165.06,218.40 165.46,218.40 165.85,218.40 166.25,218.40 166.65,218.40 167.04,218.40 167.44,218.40 167.83,218.40 168.23,218.40 168.63,218.40 169.02,218.40 169.42,218.40 169.82,218.40 170.21,218.40 170.61,218.40 171.01,218.40 171.40,218.40 171.80,218.40 172.20,218.40 172.59,218.40 172.99,218.40 173.39,218.40 173.78,218.40 174.18,218.40 174.58,218.40 174.97,218.40 175.37,218.40 175.76,218.40 176.16,218.40 176.56,218.40 176.95,218.40 177.33,218.40 177.70,218.40 177.72,226.32 177.76,242.16 177.83,269.88 177.91,297.60 177.92,297.60 177.95,297.60 178.01,297.60 178.12,297.60 178.35,297.60 178.74,297.60 179.14,297.60 179.54,297.60 179.93,297.60 180.33,297.60 180.73,297.60 181.12,297.60 181.52,297.60 181.91,297.60 182.31,297.60 182.71,297.60 183.10,297.60 183.50,297.60 183.90,297.60 184.29,297.60 184.69,297.60 185.09,297.60 185.48,297.60 185.88,297.60 186.28,297.60 186.67,297.60 187.07,297.60 187.47,297.60 187.86,297.60 188.26,297.60 188.66,297.60 189.05,297.60 189.45,297.60 189.84,297.60 190.24,297.60 190.64,297.60 191.03,297.60 191.43,297.60 191.83,297.60 192.22,297.60 192.62,297.60 193.02,297.60 193.41,297.60 193.81,297.60 194.21,297.60 194.60,297.60 195.00,297.60 195.40,297.60 195.79,297.60 196.19,297.60 196.58,297.60 196.98,297.60 197.38,297.60 197.77,297.60 198.17,297.60 198.57,297.60 198.96,297.60 199.36,297.60 199.76,297.60 200.15,297.60 200.55,297.60 200.95,297.60 201.34,297.60 201.74,297.60 202.14,297.60 202.53,297.60 202.93,297.60 203.33,297.60 203.72,297.60 204.12,297.60 204.51,297.60 204.91,297.60 205.31,297.60 205.70,297.60 206.10,297.60 206.50,297.60 206.89,297.60 207.29,297.60 207.69,297.60 208.08,297.60 208.48,297.60 208.88,297.60 209.27,297.60 209.67,297.60 210.07,297.60 210.46,297.60 210.86,297.60 211.25,297.60 211.65,297.60 212.05,297.60 212.44,297.60 212.84,297.60 213.24,297.60 213.63,297.60 214.03,297.60 214.43,297.60 214.82,297.60 215.22,297.60 215.62,297.60 216.01,297.60 216.41,297.60 216.81,297.60 217.20,297.60 217.60,297.60 217.99,297.60 218.39,297.60 218.79,297.60 219.18,297.60 219.58,297.60 219.98,297.60 220.37,297.60 220.77,297.60 221.17,297.60 221.56,297.60 221.96,297.60 222.36,297.60 222.75,297.60 223.15,297.60 223.55,297.60 223.94,297.60 224.34,297.60 224.74,297.60 225.13,297.60 225.53,297.60 225.92,297.60 226.32,297.60 226.72,297.60 227.11,297.60 227.51,297.60 227.91,297.60 228.30,297.60 228.70,297.60 229.10,297.60 229.49,297.60 229.89,297.60 230.29,297.60 230.68,297.60 231.08,297.60 231.48,297.60 231.87,297.60 232.27,297.60 232.66,297.60 233.06,297.60 233.46,297.60 233.85,297.60 234.25,297.60 234.65,297.60 235.04,297.60 235.44,297.60 235.84,297.60 236.23,297.60 236.63,297.60 237.03,297.60 237.42,297.60 237.82,297.60 238.22,297.60 238.61,297.60 239.01,297.60 239.41,297.60 239.80,297.60 240.20,297.60 240.59,297.60 240.99,297.60 241.39,297.60 241.78,297.60 242.18,297.60 242.58,297.60 242.97,297.60 243.37,297.60 243.77,297.60 244.16,297.60 244.56,297.60 244.96,297.60 245.35,297.60 245.75,297.60 246.15,297.60 246.54,297.60 246.94,297.60 247.33,297.60 247.73,297.60 248.13,297.60 248.52,297.60 248.92,297.60 249.32,297.60 249.71,297.60 250.11,297.60 250.51,297.60 250.90,297.60 251.30,297.60 251.70,297.60 252.09,297.60 252.49,297.60 252.89,297.60 253.28,297.60 253.68,297.60 254.08,297.60 254.47,297.60 254.87,297.60 255.26,297.60 255.66,297.60 256.06,297.60 256.45,297.60 256.85,297.60 257.25,297.60 257.64,297.60 258.04,297.60 258.44,297.60 258.83,297.60 259.23,297.60 259.63,297.60 260.02,297.60 260.42,297.60 260.82,297.60 261.21,297.60 261.61,297.60 262.00,297.60 262.40,297.60 262.80,297.60 263.19,297.60 263.59,297.60 263.99,297.60 264.38,297.60 264.78,297.60 265.18,297.60 265.57,297.60 265.97,297.60 266.37,297.60 266.76,297.60 267.16,297.60 267.56,297.60 267.95,297.60 268.35,297.60 268.74,297.60 269.14,297.60 269.54,297.60 269.93,297.60 270.33,297.60 270.73,297.60 271.12,297.60 271.52,297.60 271.92,297.60 272.31,297.60 272.71,297.60 273.11,297.60 273.50,297.60 273.90,297.60 274.30,297.60 274.69,297.60 275.09,297.60 275.49,297.60 275.88,297.60 276.28,297.60 276.67,297.60 277.07,297.60 277.47,297.60 277.86,297.60 278.26,297.60 278.63,297.60 279.00,297.60 279.02,289.68 279.06,273.84 279.13,246.12 279.20,218.40 279.22,218.40 279.25,218.40 279.30,218.40 279.42,218.40 279.64,218.40 280.04,218.40 280.44,218.40 280.83,218.40 281.23,218.40 281.63,218.40 282.02,218.40 282.42,218.40 282.82,218.40 283.21,218.40 283.61,218.40 284.00,218.40 284.40,218.40 284.80,218.40 285.19,218.40 285.59,218.40 285.99,218.40 286.38,218.40 286.78,218.40 287.18,218.40 287.57,218.40 287.97,218.40 288.37,218.40 288.76,218.40 289.16,218.40 289.56,218.40 289.95,218.40 290.35,218.40 290.75,218.40 291.14,218.40 291.54,218.40 291.93,218.40 292.33,218.40 292.73,218.40 293.12,218.40 293.52,218.40 293.92,218.40 294.31,218.40 294.71,218.40 295.11,218.40 295.50,218.40 295.90,218.40 296.30,218.40 296.69,218.40 297.09,218.40 297.49,218.40 297.88,218.40 298.28,218.40 298.67,218.40 299.07,218.40 299.47,218.40 299.86,218.40 300.26,218.40 300.66,218.40 301.05,218.40 301.45,218.40 301.85,218.40 302.24,218.40 302.64,218.40 303.04,218.40 303.43,218.40 303.83,218.40 304.23,218.40 304.62,218.40 305.02,218.40 305.41,218.40 305.81,218.40 306.21,218.40 306.60,218.40 307.00,218.40 307.40,218.40 307.79,218.40 308.19,218.40 308.59,218.40 308.98,218.40 309.38,218.40 309.78,218.40 310.17,218.40 310.57,218.40 310.97,218.40 311.36,218.40 311.76,218.40 312.16,218.40 312.55,218.40 312.95,218.40 313.34,218.40 313.74,218.40 314.14,218.40 314.53,218.40 314.93,218.40 315.33,218.40 315.72,218.40 316.12,218.40 316.52,218.40 316.91,218.40 317.31,218.40 317.71,218.40 318.10,218.40 318.50,218.40 318.90,218.40 319.29,218.40 319.69,218.40 320.08,218.40 320.48,218.40 320.88,218.40 321.27,218.40 321.67,218.40 322.07,218.40 322.46,218.40 322.86,218.40 323.26,218.40 323.65,218.40 324.05,218.40 324.45,218.40 324.84,218.40 325.24,218.40 325.64,218.40 326.03,218.40 326.43,218.40 326.83,218.40 327.22,218.40 327.62,218.40 328.01,218.40 328.41,218.40 328.81,218.40 329.20,218.40 329.60,218.40 330.00,218.40 330.39,218.40 330.79,218.40 331.19,218.40 331.58,218.40 331.98,218.40 332.38,218.40 332.77,218.40 333.17,218.40 333.57,218.40 333.96,218.40 334.36,218.40 334.75,218.40 335.15,218.40 335.55,218.40 335.94,218.40 336.34,218.40 336.74,218.40 337.13,218.40 337.53,218.40 337.93,218.40 338.32,218.40 338.72,218.40 339.12,218.40 339.51,218.40 339.91,218.40 340.31,218.40 340.70,218.40 341.10,218.40 341.50,218.40 341.89,218.40 342.29,218.40 342.68,218.40 343.08,218.40 343.48,218.40 343.87,218.40 344.27,218.40 344.67,218.40 345.06,218.40 345.46,218.40 345.86,218.40 346.25,218.40 346.65,218.40 347.05,218.40 347.44,218.40 347.84,218.40 348.24,218.40 348.63,218.40 349.03,218.40 349.42,218.40 349.82,218.40 350.22,218.40 350.61,218.40 351.01,218.40 351.41,218.40 351.80,218.40 352.20,218.40 352.60,218.40 352.99,218.40 353.39,218.40 353.79,218.40 354.18,218.40 354.58,218.40 354.98,218.40 355.37,218.40 355.77,218.40 356.16,218.40 356.56,218.40 356.96,218.40 357.35,218.40 357.75,218.40 358.15,218.40 358.54,218.40 358.94,218.40 359.34,218.40 359.73,218.40 360.13,218.40 360.53,218.40 360.92,218.40 361.32,218.40 361.72,218.40 362.11,218.40 362.51,218.40 362.91,218.40 363.30,218.40 363.70,218.40 364.09,218.40 364.49,218.40 364.89,218.40 365.28,218.40 365.68,218.40 366.08,218.40 366.47,218.40 366.87,218.40 367.27,218.40 367.66,218.40 368.06,218.40 368.46,218.40 368.85,218.40 369.25,218.40 369.65,218.40 370.04,218.40 370.44,218.40 370.83,218.40 371.23,218.40 371.63,218.40 372.02,218.40 372.42,218.40 372.82,218.40 373.21,218.40 373.61,218.40 374.01,218.40 374.40,218.40 374.80,218.40 375.20,218.40 375.59,218.40 375.99,218.40 376.39,218.40 376.78,218.40 377.18,218.40 377.58,218.40 377.97,218.40 378.37,218.40 378.76,218.40 379.16,218.40 379.56,218.40 379.95,218.40 380.33,218.40 380.70,218.40 380.72,226.32 380.76,242.16 380.83,269.88 380.91,297.60 380.92,297.60 380.95,297.60 381.01,297.60 381.12,297.60 381.35,297.60 381.74,297.60 382.14,297.60 382.54,297.60 382.93,297.60 383.33,297.60 383.73,297.60 384.12,297.60 384.52,297.60 384.91,297.60 385.31,297.60 385.71,297.60 386.10,297.60 386.50,297.60 386.90,297.60 387.29,297.60 387.69,297.60 388.09,297.60 388.48,297.60 388.88,297.60 389.28,297.60 389.67,297.60 390.07,297.60 390.47,297.60 390.86,297.60 391.26,297.60 391.66,297.60 392.05,297.60 392.45,297.60 392.84,297.60 393.24,297.60 393.64,297.60 394.03,297.60 394.43,297.60 394.83,297.60 395.22,297.60 395.62,297.60 396.02,297.60 396.41,297.60 396.81,297.60 397.21,297.60 397.60,297.60 398.00,297.60 398.40,297.60 398.79,297.60 399.19,297.60 399.58,297.60 399.98,297.60 400.38,297.60 400.77,297.60 401.17,297.60 401.57,297.60 401.96,297.60 402.36,297.60 402.76,297.60 403.15,297.60 403.55,297.60 403.95,297.60 404.34,297.60 404.74,297.60 405.14,297.60 405.53,297.60 405.93,297.60 406.33,297.60 406.72,297.60 407.12,297.60 407.51,297.60 407.91,297.60 408.31,297.60 408.70,297.60 409.10,297.60 409.50,297.60 409.89,297.60 410.29,297.60 410.69,297.60 411.08,297.60 411.48,297.60 411.88,297.60 412.27,297.60 412.67,297.60 413.07,297.60 413.46,297.60 413.86,297.60 414.25,297.60 414.65,297.60 415.05,297.60 415.44,297.60 415.84,297.60 416.24,297.60 416.63,297.60 417.03,297.60 417.43,297.60 417.82,297.60 418.22,297.60 418.62,297.60 419.01,297.60 419.41,297.60 419.81,297.60 420.20,297.60 420.60,297.60 420.99,297.60 421.39,297.60 421.79,297.60 422.18,297.60 422.58,297.60 422.98,297.60 423.37,297.60 423.77,297.60 424.17,297.60 424.56,297.60 424.96,297.60 425.36,297.60 425.75,297.60 426.15,297.60 426.55,297.60 426.94,297.60 427.34,297.60 427.74,297.60 428.13,297.60 428.53,297.60 428.92,297.60 429.32,297.60 429.72,297.60 430.11,297.60 430.51,297.60 430.91,297.60 431.30,297.60 431.70,297.60 432.10,297.60 432.49,297.60 432.89,297.60 433.29,297.60 433.68,297.60 434.08,297.60 434.48,297.60 434.87,297.60 435.27,297.60 435.66,297.60 436.06,297.60 436.46,297.60 436.85,297.60 437.25,297.60 437.65,297.60 438.04,297.60 438.44,297.60 438.84,297.60 439.23,297.60 439.63,297.60 440.03,297.60 440.42,297.60 440.82,297.60 441.22,297.60 441.61,297.60 442.01,297.60 442.41,297.60 442.80,297.60 443.20,297.60 443.59,297.60 443.99,297.60 444.39,297.60 444.78,297.60 445.18,297.60 445.58,297.60 445.97,297.60 446.37,297.60 446.77,297.60 447.16,297.60 447.56,297.60 447.96,297.60 448.35,297.60 448.75,297.60 449.15,297.60 449.54,297.60 449.94,297.60 450.33,297.60 450.73,297.60 451.13,297.60 451.52,297.60 451.92,297.60 452.32,297.60 452.71,297.60 453.11,297.60 453.51,297.60 453.90,297.60 454.30,297.60 454.70,297.60 455.09,297.60 455.49,297.60 455.89,297.60 456.28,297.60 456.68,297.60 457.08,297.60 457.47,297.60 457.87,297.60 458.26,297.60 458.66,297.60 459.06,297.60 459.45,297.60 459.85,297.60 460.25,297.60 460.64,297.60 461.04,297.60 461.44,297.60 461.83,297.60 462.23,297.60 462.63,297.60 463.02,297.60 463.42,297.60 463.82,297.60 464.21,297.60 464.61,297.60 465.00,297.60 465.40,297.60 465.80,297.60 466.19,297.60 466.59,297.60 466.99,297.60 467.38,297.60 467.78,297.60 468.18,297.60 468.57,297.60 468.97,297.60 469.37,297.60 469.76,297.60 470.16,297.60 470.56,297.60 470.95,297.60 471.35,297.60 471.74,297.60 472.14,297.60 472.54,297.60 472.93,297.60 473.33,297.60 473.73,297.60 474.12,297.60 474.52,297.60 474.92,297.60 475.31,297.60 475.71,297.60 476.11,297.60 476.50,297.60 476.90,297.60 477.30,297.60 477.69,297.60 478.09,297.60 478.49,297.60 478.88,297.60 479.28,297.60 479.67,297.60 480.07,297.60 480.47,297.60 480.86,297.60 481.26,297.60 481.63,297.60 482.00,297.60 482.02,289.68 482.06,273.84 482.13,246.12 482.20,218.40 482.22,218.40 482.25,218.40 482.30,218.40 482.42,218.40 482.64,218.40 483.04,218.40 483.44,218.40 483.83,218.40 484.23,218.40 484.63,218.40 485.02,218.40 485.42,218.40 485.82,218.40 486.21,218.40 486.61,218.40 487.00,218.40 487.40,218.40 487.80,218.40 488.19,218.40 488.59,218.40 488.99,218.40 489.38,218.40 489.78,218.40 490.18,218.40 490.57,218.40 490.97,218.40 491.37,218.40 491.76,218.40 492.16,218.40 492.56,218.40 492.95,218.40 493.35,218.40 493.75,218.40 494.14,218.40 494.54,218.40 494.93,218.40 495.33,218.40 495.73,218.40 496.12,218.40 496.52,218.40 496.92,218.40 497.31,218.40 497.71,218.40 498.11,218.40 498.50,218.40 498.90,218.40 499.30,218.40 499.69,218.40 500.09,218.40 500.49,218.40 500.88,218.40 501.28,218.40 501.67,218.40 502.07,218.40 502.47,218.40 502.86,218.40 503.26,218.40 503.66,218.40 504.05,218.40 504.45,218.40 504.85,218.40 505.24,218.40 505.64,218.40 506.04,218.40 506.43,218.40 506.83,218.40 507.23,218.40 507.62,218.40 508.02,218.40 508.41,218.40 508.81,218.40 509.21,218.40 509.60,218.40 510.00,218.40 510.40,218.40 510.79,218.40 511.19,218.40 511.59,218.40 511.98,218.40 512.38,218.40 512.78,218.40 513.17,218.40 513.57,218.40 513.97,218.40 514.36,218.40 514.76,218.40 515.16,218.40 515.55,218.40 515.95,218.40 516.34,218.40 516.74,218.40 517.14,218.40 517.53,218.40 517.93,218.40 518.33,218.40 518.72,218.40 519.12,218.40 519.52,218.40 519.91,218.40 520.31,218.40 520.71,218.40 521.10,218.40 521.50,218.40 521.90,218.40 522.29,218.40 522.69,218.40 523.08,218.40 523.48,218.40 523.88,218.40 524.27,218.40 524.67,218.40 525.07,218.40 525.46,218.40 525.86,218.40 526.26,218.40 526.65,218.40 527.05,218.40 527.45,218.40 527.84,218.40 528.24,218.40 528.64,218.40 529.03,218.40 529.43,218.40 529.83,218.40 530.22,218.40 530.62,218.40 531.01,218.40 531.41,218.40 531.81,218.40 532.20,218.40 532.60,218.40 533.00,218.40 533.39,218.40 533.79,218.40 534.19,218.40 534.58,218.40 534.98,218.40 535.38,218.40 535.77,218.40 536.17,218.40 536.57,218.40 536.96,218.40 537.36,218.40 537.75,218.40 538.15,218.40 538.55,218.40 538.94,218.40 539.34,218.40 539.74,218.40 540.13,218.40 540.53,218.40 540.93,218.40 541.32,218.40 541.72,218.40 542.12,218.40 542.51,218.40 542.91,218.40 543.31,218.40 543.70,218.40 544.10,218.40 544.50,218.40 544.89,218.40 545.29,218.40 545.68,218.40 546.08,218.40 546.48,218.40 546.87,218.40 547.27,218.40 547.67,218.40 548.06,218.40 548.46,218.40 548.86,218.40 549.25,218.40 549.65,218.40 550.05,218.40 550.44,218.40 550.84,218.40 551.24,218.40 551.63,218.40 552.03,218.40 552.42,218.40 552.82,218.40 553.22,218.40 553.61,218.40 554.01,218.40 554.41,218.40 554.80,218.40 555.20,218.40 555.60,218.40 555.99,218.40 556.39,218.40 556.79,218.40 557.18,218.40 557.58,218.40 557.98,218.40 558.37,218.40 558.77,218.40 559.16,218.40 559.56,218.40 559.96,218.40 560.35,218.40 560.75,218.40 561.15,218.40 561.54,218.40 561.94,218.40 562.34,218.40 562.73,218.40 563.13,218.40 563.53,218.40 563.92,218.40 564.32,218.40 564.72,218.40 565.11,218.40 565.51,218.40 565.91,218.40 566.30,218.40 566.70,218.40 567.09,218.40 567.49,218.40 567.89,218.40 568.28,218.40 568.68,218.40 569.08,218.40 569.47,218.40 569.87,218.40 570.27,218.40 570.66,218.40 571.06,218.40 571.46,218.40 571.85,218.40 572.25,218.40 572.65,218.40 573.04,218.40 573.44,218.40 573.83,218.40 574.23,218.40 574.63,218.40 575.02,218.40 575.42,218.40 575.82,218.40 576.21,218.40 576.61,218.40 577.01,218.40 577.40,218.40 577.80,218.40 578.20,218.40 578.59,218.40 578.99,218.40 579.39,218.40 579.78,218.40 580.18,218.40 580.58,218.40 580.97,218.40 581.37,218.40 581.76,218.40 582.16,218.40 582.56,218.40 582.95,218.40 583.33,218.40 583.70,218.40 583.72,226.32 583.76,242.16 583.83,269.88 583.91,297.60 583.92,297.60 583.95,297.60 584.01,297.60 584.12,297.60 584.35,297.60 584.74,297.60 585.14,297.60 585.54,297.60 585.93,297.60 586.33,297.60 586.73,297.60 587.12,297.60 587.52,297.60 587.91,297.60 588.31,297.60 588.71,297.60 589.10,297.60 589.50,297.60 589.90,297.60 590.29,297.60 590.69,297.60 591.09,297.60 591.48,297.60 591.88,297.60 592.28,297.60 592.67,297.60 593.07,297.60 593.47,297.60 593.86,297.60 594.26,297.60 594.66,297.60 595.05,297.60 595.45,297.60 595.84,297.60 596.24,297.60 596.64,297.60 597.03,297.60 597.43,297.60 597.83,297.60 598.22,297.60 598.62,297.60 599.02,297.60 599.41,297.60 599.81,297.60 600.21,297.60 600.60,297.60 601.00,297.60 601.40,297.60 601.79,297.60 602.19,297.60 602.58,297.60 602.98,297.60 603.38,297.60 603.77,297.60 604.17,297.60 604.57,297.60 604.96,297.60 605.36,297.60 605.76,297.60 606.15,297.60 606.55,297.60 606.95,297.60 607.34,297.60 607.74,297.60 608.14,297.60 608.53,297.60 608.93,297.60 609.33,297.60 609.72,297.60 610.12,297.60 610.51,297.60 610.91,297.60 611.31,297.60 611.70,297.60 612.10,297.60 612.50,297.60 612.89,297.60 613.29,297.60 613.69,297.60 614.08,297.60 614.48,297.60 614.88,297.60 615.27,297.60 615.67,297.60 616.07,297.60 616.46,297.60 616.86,297.60 617.25,297.60 617.65,297.60 618.05,297.60 618.44,297.60 618.84,297.60 619.24,297.60 619.63,297.60 620.03,297.60 620.43,297.60 620.82,297.60 621.22,297.60 621.62,297.60 622.01,297.60 622.41,297.60 622.81,297.60 623.20,297.60 623.60,297.60 623.99,297.60 624.39,297.60 624.79,297.60 625.18,297.60 625.58,297.60 625.98,297.60 626.37,297.60 626.77,297.60 627.17,297.60 627.56,297.60 627.96,297.60 628.36,297.60 628.75,297.60 629.15,297.60 629.55,297.60 629.94,297.60 630.34,297.60 630.74,297.60 631.13,297.60 631.53,297.60 631.92,297.60 632.32,297.60 632.72,297.60 633.11,297.60 633.51,297.60 633.91,297.60 634.30,297.60 634.70,297.60 635.10,297.60 635.49,297.60 635.89,297.60 636.29,297.60 636.68,297.60 637.08,297.60 637.48,297.60 637.87,297.60 638.27,297.60 638.66,297.60 639.06,297.60 639.46,297.60 639.85,297.60 640.25,297.60 640.65,297.60 641.04,297.60 641.44,297.60 641.84,297.60 642.23,297.60 642.63,297.60 643.03,297.60 643.42,297.60 643.82,297.60 644.22,297.60 644.61,297.60 645.01,297.60 645.41,297.60 645.80,297.60 646.20,297.60 646.59,297.60 646.99,297.60 647.39,297.60 647.78,297.60 648.18,297.60 648.58,297.60 648.97,297.60 649.37,297.60 649.77,297.60 650.16,297.60 650.56,297.60 650.96,297.60 651.35,297.60 651.75,297.60 652.15,297.60 652.54,297.60 652.94,297.60 653.33,297.60 653.73,297.60 654.13,297.60 654.52,297.60 654.92,297.60 655.32,297.60 655.71,297.60 656.11,297.60 656.51,297.60 656.90,297.60 657.30,297.60 657.70,297.60 658.09,297.60 658.49,297.60 658.89,297.60 659.28,297.60 659.68,297.60 660.08,297.60 660.47,297.60 660.87,297.60 661.26,297.60 661.66,297.60 662.06,297.60 662.45,297.60 662.85,297.60 663.25,297.60 663.64,297.60 664.04,297.60 664.44,297.60 664.83,297.60 665.23,297.60 665.63,297.60 666.02,297.60 666.42,297.60 666.82,297.60 667.21,297.60 667.61,297.60 668.00,297.60 668.40,297.60 668.80,297.60 669.19,297.60 669.59,297.60 669.99,297.60 670.38,297.60 670.78,297.60 671.18,297.60 671.57,297.60 671.97,297.60 672.37,297.60 672.76,297.60 673.16,297.60 673.56,297.60 673.95,297.60 674.35,297.60 674.74,297.60 675.14,297.60 675.54,297.60 675.93,297.60 676.33,297.60 676.73,297.60 677.12,297.60 677.52,297.60 677.92,297.60 678.31,297.60 678.71,297.60 679.11,297.60 679.50,297.60 679.90,297.60 680.30,297.60 680.69,297.60 681.09,297.60 681.49,297.60 681.88,297.60 682.28,297.60 682.67,297.60 683.07,297.60 683.47,297.60 683.86,297.60 684.26,297.60 684.63,297.60 685.00,297.60 685.02,289.68 685.06,273.84 685.13,246.12 685.20,218.40 685.22,218.40 685.25,218.40 685.30,218.40 685.42,218.40 685.64,218.40 686.04,218.40 686.44,218.40 686.83,218.40 687.23,218.40 687.63,218.40 688.02,218.40 688.42,218.40 688.82,218.40 689.21,218.40 689.61,218.40 690.00,218.40 690.40,218.40 690.80,218.40 691.19,218.40 691.59,218.40 691.99,218.40 692.38,218.40 692.78,218.40 693.18,218.40 693.57,218.40 693.97,218.40 694.37,218.40 694.76,218.40 695.16,218.40 695.56,218.40 695.95,218.40 696.35,218.40 696.75,218.40 697.14,218.40 697.54,218.40 697.93,218.40 698.33,218.40 698.73,218.40 699.12,218.40 699.52,218.40 699.92,218.40 700.31,218.40 700.71,218.40 701.11,218.40 701.50,218.40 701.90,218.40 702.30,218.40 702.69,218.40 703.09,218.40 703.49,218.40 703.88,218.40 704.28,218.40 704.67,218.40 705.07,218.40 705.47,218.40 705.86,218.40 706.26,218.40 706.66,218.40 707.05,218.40 707.45,218.40 707.85,218.40 708.24,218.40 708.64,218.40 709.04,218.40 709.43,218.40 709.83,218.40 710.23,218.40 710.62,218.40 711.02,218.40 711.41,218.40 711.81,218.40 712.21,218.40 712.60,218.40 713.00,218.40 713.40,218.40 713.79,218.40 714.19,218.40 714.59,218.40 714.98,218.40 715.38,218.40 715.78,218.40 716.17,218.40 716.57,218.40 716.97,218.40 717.36,218.40 717.76,218.40 718.16,218.40 718.55,218.40 718.95,218.40 719.34,218.40 719.74,218.40 720.14,218.40 720.53,218.40 720.93,218.40 721.33,218.40 721.72,218.40 722.12,218.40 722.52,218.40 722.91,218.40 723.31,218.40 723.71,218.40 724.10,218.40 724.50,218.40 724.90,218.40 725.29,218.40 725.69,218.40 726.08,218.40 726.48,218.40 726.88,218.40 727.27,218.40 727.67,218.40 728.07,218.40 728.46,218.40 728.86,218.40 729.26,218.40 729.65,218.40 730.05,218.40 730.45,218.40 730.84,218.40 731.24,218.40 731.64,218.40 732.03,218.40 732.43,218.40 732.83,218.40 733.22,218.40 733.62,218.40 734.01,218.40 734.41,218.40 734.81,218.40 735.20,218.40 735.60,218.40 736.00,218.40 736.39,218.40 736.79,218.40 737.19,218.40 737.58,218.40 737.98,218.40 738.38,218.40 738.77,218.40 739.17,218.40 739.57,218.40 739.96,218.40 740.36,218.40 740.75,218.40 741.15,218.40 741.55,218.40 741.94,218.40 742.34,218.40 742.74,218.40 743.13,218.40 743.53,218.40 743.93,218.40 744.32,218.40 744.72,218.40 745.12,218.40 745.51,218.40 745.91,218.40 746.31,218.40 746.70,218.40 747.10,218.40 747.50,218.40 747.89,218.40 748.29,218.40 748.68,218.40 749.08,218.40 749.48,218.40 749.87,218.40 750.27,218.40 750.67,218.40 751.06,218.40 751.46,218.40 751.86,218.40 752.25,218.40 752.65,218.40 753.05,218.40 753.44,218.40 753.84,218.40 754.24,218.40 754.63,218.40 755.03,218.40 755.42,218.40 755.82,218.40 756.22,218.40 756.61,218.40 757.01,218.40 757.41,218.40 757.80,218.40 758.20,218.40 758.60,218.40 758.99,218.40 759.39,218.40 759.79,218.40 760.18,218.40 760.58,218.40 760.98,218.40 761.37,218.40 761.77,218.40 762.16,218.40 762.56,218.40 762.96,218.40 763.35,218.40 763.75,218.40 764.15,218.40 764.54,218.40 764.94,218.40 765.34,218.40 765.73,218.40 766.13,218.40 766.53,218.40 766.92,218.40 767.32,218.40 767.72,218.40 768.11,218.40 768.51,218.40 768.91,218.40 769.30,218.40 769.70,218.40 770.09,218.40 770.49,218.40 770.89,218.40 771.28,218.40 771.68,218.40 772.08,218.40 772.47,218.40 772.87,218.40 773.27,218.40 773.66,218.40 774.06,218.40 774.46,218.40 774.85,218.40 775.25,218.40 775.65,218.40 776.04,218.40 776.44,218.40 776.83,218.40 777.23,218.40 777.63,218.40 778.02,218.40 778.42,218.40 778.82,218.40 779.21,218.40 779.61,218.40 780.01,218.40 780.40,218.40 780.80,218.40 781.20,218.40 781.59,218.40 781.99,218.40 782.39,218.40 782.78,218.40 783.18,218.40 783.58,218.40 783.97,218.40 784.37,218.40 784.76,218.40 785.16,218.40 785.56,218.40 785.95,218.40 786.33,218.40 786.70,218.40 786.72,226.32 786.76,242.16 786.83,269.88 786.91,297.60 786.92,297.60 786.95,297.60 787.01,297.60 787.12,297.60 787.35,297.60 787.74,297.60 788.14,297.60 788.54,297.60 788.93,297.60 789.33,297.60 789.73,297.60 790.12,297.60 790.52,297.60 790.91,297.60 791.31,297.60 791.71,297.60 792.10,297.60 792.50,297.60 792.90,297.60 793.29,297.60 793.69,297.60 794.09,297.60 794.48,297.60 794.88,297.60 795.28,297.60 795.67,297.60 796.07,297.60 796.47,297.60 796.86,297.60 797.26,297.60 797.66,297.60 798.05,297.60 798.45,297.60 798.84,297.60 799.24,297.60 799.64,297.60 800.03,297.60 800.43,297.60 800.83,297.60 801.22,297.60 801.62,297.60 802.02,297.60 802.41,297.60 802.81,297.60 803.21,297.60 803.60,297.60 804.00,297.60 804.40,297.60 804.79,297.60 805.19,297.60 805.58,297.60 805.98,297.60 806.38,297.60 806.77,297.60 807.17,297.60 807.57,297.60 807.96,297.60 808.36,297.60 808.76,297.60 809.15,297.60 809.55,297.60 809.95,297.60 810.34,297.60 810.74,297.60 811.14,297.60 811.53,297.60 811.93,297.60 812.33,297.60 812.72,297.60 813.12,297.60 813.51,297.60 813.91,297.60 814.31,297.60 814.70,297.60 815.10,297.60 815.50,297.60 815.89,297.60 816.29,297.60 816.69,297.60 817.08,297.60 817.48,297.60 817.88,297.60 818.27,297.60 818.67,297.60 819.07,297.60 819.46,297.60 819.86,297.60 820.25,297.60 820.65,297.60 821.05,297.60 821.44,297.60 821.84,297.60 822.24,297.60 822.63,297.60 823.03,297.60 823.43,297.60 823.82,297.60 824.22,297.60 824.62,297.60 825.01,297.60 825.41,297.60 825.81,297.60 826.20,297.60 826.60,297.60 826.99,297.60 827.39,297.60 827.79,297.60 828.18,297.60 828.58,297.60 828.98,297.60 829.37,297.60 829.77,297.60 830.17,297.60 830.56,297.60 830.96,297.60 831.36,297.60 831.75,297.60 832.15,297.60 832.55,297.60 832.94,297.60 833.34,297.60 833.74,297.60 834.13,297.60 834.53,297.60 834.92,297.60 835.32,297.60 835.72,297.60 836.11,297.60 836.51,297.60 836.91,297.60 837.30,297.60 837.70,297.60 838.10,297.60 838.49,297.60 838.89,297.60 839.29,297.60 839.68,297.60 840.08,297.60 840.48,297.60 840.87,297.60 841.27,297.60 841.66,297.60 842.06,297.60 842.46,297.60 842.85,297.60 843.25,297.60 843.65,297.60 844.04,297.60 844.44,297.60 844.84,297.60 845.23,297.60 845.63,297.60 846.03,297.60 846.42,297.60 846.82,297.60 847.22,297.60 847.61,297.60 848.01,297.60 848.41,297.60 848.80,297.60 849.20,297.60 849.59,297.60 849.99,297.60 850.39,297.60 850.78,297.60 851.18,297.60 851.58,297.60 851.97,297.60 852.37,297.60 852.77,297.60 853.16,297.60 853.56,297.60 853.96,297.60 854.35,297.60 854.75,297.60 855.15,297.60 855.54,297.60 855.94,297.60 856.33,297.60 856.73,297.60 857.13,297.60 857.52,297.60 857.92,297.60 858.32,297.60 858.71,297.60 859.11,297.60 859.51,297.60 859.90,297.60 860.30,297.60 860.70,297.60 861.09,297.60 861.49,297.60 861.89,297.60 862.28,297.60 862.68,297.60 863.08,297.60 863.47,297.60 863.87,297.60 864.26,297.60 864.66,297.60 865.06,297.60 865.45,297.60 865.85,297.60 866.25,297.60 866.64,297.60 867.04,297.60 867.44,297.60 867.83,297.60 868.23,297.60 868.63,297.60 869.02,297.60 869.42,297.60 869.82,297.60 870.21,297.60 870.61,297.60 871.00,297.60 871.40,297.60 871.80,297.60 872.19,297.60 872.59,297.60 872.99,297.60 873.38,297.60 873.78,297.60 874.18,297.60 874.57,297.60 874.97,297.60 875.37,297.60 875.76,297.60 876.16,297.60 876.56,297.60 876.95,297.60 877.35,297.60 877.74,297.60 878.14,297.60 878.54,297.60 878.93,297.60 879.33,297.60 879.73,297.60 880.12,297.60 880.52,297.60 880.92,297.60 881.31,297.60 881.71,297.60 882.11,297.60 882.50,297.60 882.90,297.60 883.30,297.60 883.69,297.60 884.09,297.60 884.49,297.60 884.88,297.60 885.28,297.60 885.67,297.60 886.07,297.60 886.47,297.60 886.86,297.60 887.26,297.60 887.63,297.60" fill="none" stroke="#b54708" stroke-width="3" stroke-linejoin="round"/>
<line x1="660" y1="114" x2="696" y2="114" stroke="#b54708" stroke-width="3"/>
<text x="706" y="119" font-family="Arial, Helvetica, sans-serif" font-size="13" font-weight="400" text-anchor="start" fill="#111">input x50</text>
<text x="460" y="502" font-family="Arial, Helvetica, sans-serif" font-size="14" font-weight="400" text-anchor="middle" fill="#111">Time after 60 ms settling, ms</text>
<text x="22" y="260" font-family="Arial, Helvetica, sans-serif" font-size="14" text-anchor="middle" fill="#111" transform="rotate(-90 22 260)">Voltage, V</text>
</svg>
