<svg xmlns="http://www.w3.org/2000/svg" width="920" height="520" viewBox="0 0 920 520">
<defs>
<style>
.wire{stroke:#111;stroke-width:2.6;fill:none;stroke-linecap:round;stroke-linejoin:round}
.thin{stroke:#a7b0bd;stroke-width:1.2;fill:none;stroke-linecap:round;stroke-linejoin:round}
.axis{stroke:#111;stroke-width:1.4;fill:none}
.blue{stroke:#1665d8;stroke-width:3;fill:none;stroke-linecap:round;stroke-linejoin:round}
.green{stroke:#13795b;stroke-width:3;fill:none;stroke-linecap:round;stroke-linejoin:round}
.orange{stroke:#b54708;stroke-width:3;fill:none;stroke-linecap:round;stroke-linejoin:round}
.node{fill:#111;stroke:none}
</style>
</defs>
<rect width="100%" height="100%" fill="#fff"/>
<text x="76" y="36" font-family="Arial, Helvetica, sans-serif" font-size="22" font-weight="700" text-anchor="start" fill="#111">Bootstrap AC gain and phase, load = 8 ohm</text>
<rect x="76" y="60" width="812" height="396" fill="#fff" stroke="#111" stroke-width="1.4"/>
<line x1="129.115" y1="60" x2="129.115" y2="456" class="thin"/>
<text x="129.115" y="479" font-family="Arial, Helvetica, sans-serif" font-size="12" font-weight="400" text-anchor="middle" fill="#111">10</text>
<line x1="305.557" y1="60" x2="305.557" y2="456" class="thin"/>
<text x="305.557" y="479" font-family="Arial, Helvetica, sans-serif" font-size="12" font-weight="400" text-anchor="middle" fill="#111">100</text>
<line x1="482" y1="60" x2="482" y2="456" class="thin"/>
<text x="482" y="479" font-family="Arial, Helvetica, sans-serif" font-size="12" font-weight="400" text-anchor="middle" fill="#111">1k</text>
<line x1="658.443" y1="60" x2="658.443" y2="456" class="thin"/>
<text x="658.443" y="479" font-family="Arial, Helvetica, sans-serif" font-size="12" font-weight="400" text-anchor="middle" fill="#111">10k</text>
<line x1="834.885" y1="60" x2="834.885" y2="456" class="thin"/>
<text x="834.885" y="479" font-family="Arial, Helvetica, sans-serif" font-size="12" font-weight="400" text-anchor="middle" fill="#111">100k</text>
<line x1="76" y1="456" x2="888" y2="456" class="thin"/>
<text x="66" y="460" font-family="Arial, Helvetica, sans-serif" font-size="12" font-weight="400" text-anchor="end" fill="#111">-20</text>
<line x1="76" y1="334.154" x2="888" y2="334.154" class="thin"/>
<text x="66" y="338.154" font-family="Arial, Helvetica, sans-serif" font-size="12" font-weight="400" text-anchor="end" fill="#111">0</text>
<line x1="76" y1="212.308" x2="888" y2="212.308" class="thin"/>
<text x="66" y="216.308" font-family="Arial, Helvetica, sans-serif" font-size="12" font-weight="400" text-anchor="end" fill="#111">20</text>
<line x1="76" y1="90.4615" x2="888" y2="90.4615" class="thin"/>
<text x="66" y="94.4615" font-family="Arial, Helvetica, sans-serif" font-size="12" font-weight="400" text-anchor="end" fill="#111">40</text>
<polyline points="76.00,277.64 78.21,277.13 80.41,276.64 82.62,276.18 84.83,275.74 87.03,275.32 89.24,274.92 91.45,274.54 93.65,274.18 95.86,273.84 98.07,273.51 100.27,273.20 102.48,272.91 104.68,272.63 106.89,272.37 109.10,272.11 111.30,271.88 113.51,271.65 115.72,271.44 117.92,271.23 120.13,271.04 122.34,270.86 124.54,270.69 126.75,270.53 128.96,270.37 131.16,270.22 133.37,270.09 135.58,269.95 137.78,269.83 139.99,269.71 142.20,269.60 144.40,269.50 146.61,269.40 148.82,269.30 151.02,269.21 153.23,269.13 155.43,269.05 157.64,268.98 159.85,268.90 162.05,268.84 164.26,268.77 166.47,268.71 168.67,268.66 170.88,268.60 173.09,268.55 175.29,268.51 177.50,268.46 179.71,268.42 181.91,268.38 184.12,268.34 186.33,268.30 188.53,268.27 190.74,268.24 192.95,268.21 195.15,268.18 197.36,268.15 199.57,268.12 201.77,268.10 203.98,268.08 206.18,268.06 208.39,268.04 210.60,268.02 212.80,268.00 215.01,267.98 217.22,267.97 219.42,267.95 221.63,267.94 223.84,267.92 226.04,267.91 228.25,267.90 230.46,267.89 232.66,267.87 234.87,267.86 237.08,267.85 239.28,267.85 241.49,267.84 243.70,267.83 245.90,267.82 248.11,267.81 250.32,267.81 252.52,267.80 254.73,267.80 256.93,267.79 259.14,267.78 261.35,267.78 263.55,267.77 265.76,267.77 267.97,267.77 270.17,267.76 272.38,267.76 274.59,267.75 276.79,267.75 279.00,267.75 281.21,267.75 283.41,267.74 285.62,267.74 287.83,267.74 290.03,267.74 292.24,267.73 294.45,267.73 296.65,267.73 298.86,267.73 301.07,267.73 303.27,267.73 305.48,267.72 307.68,267.72 309.89,267.72 312.10,267.72 314.30,267.72 316.51,267.72 318.72,267.72 320.92,267.72 323.13,267.72 325.34,267.72 327.54,267.72 329.75,267.72 331.96,267.72 334.16,267.72 336.37,267.72 338.58,267.72 340.78,267.72 342.99,267.72 345.20,267.72 347.40,267.72 349.61,267.72 351.82,267.72 354.02,267.72 356.23,267.72 358.43,267.72 360.64,267.72 362.85,267.73 365.05,267.73 367.26,267.73 369.47,267.73 371.67,267.73 373.88,267.73 376.09,267.74 378.29,267.74 380.50,267.74 382.71,267.74 384.91,267.75 387.12,267.75 389.33,267.75 391.53,267.75 393.74,267.76 395.95,267.76 398.15,267.77 400.36,267.77 402.57,267.77 404.77,267.78 406.98,267.78 409.18,267.79 411.39,267.79 413.60,267.80 415.80,267.81 418.01,267.81 420.22,267.82 422.42,267.83 424.63,267.84 426.84,267.84 429.04,267.85 431.25,267.86 433.46,267.87 435.66,267.88 437.87,267.90 440.08,267.91 442.28,267.92 444.49,267.93 446.70,267.95 448.90,267.96 451.11,267.98 453.32,268.00 455.52,268.01 457.73,268.03 459.93,268.05 462.14,268.07 464.35,268.10 466.55,268.12 468.76,268.15 470.97,268.17 473.17,268.20 475.38,268.23 477.59,268.26 479.79,268.30 482.00,268.33 484.21,268.37 486.41,268.41 488.62,268.45 490.83,268.49 493.03,268.54 495.24,268.59 497.45,268.64 499.65,268.70 501.86,268.76 504.07,268.82 506.27,268.88 508.48,268.95 510.68,269.03 512.89,269.10 515.10,269.19 517.30,269.27 519.51,269.36 521.72,269.46 523.92,269.56 526.13,269.67 528.34,269.78 530.54,269.90 532.75,270.02 534.96,270.16 537.16,270.29 539.37,270.44 541.58,270.60 543.78,270.76 545.99,270.93 548.20,271.11 550.40,271.30 552.61,271.50 554.82,271.71 557.02,271.93 559.23,272.16 561.43,272.40 563.64,272.66 565.85,272.93 568.05,273.21 570.26,273.50 572.47,273.81 574.67,274.13 576.88,274.47 579.09,274.82 581.29,275.19 583.50,275.57 585.71,275.97 587.91,276.39 590.12,276.83 592.33,277.29 594.53,277.76 596.74,278.25 598.95,278.76 601.15,279.30 603.36,279.85 605.57,280.42 607.77,281.02 609.98,281.63 612.18,282.27 614.39,282.93 616.60,283.61 618.80,284.31 621.01,285.03 623.22,285.78 625.42,286.55 627.63,287.34 629.84,288.15 632.04,288.99 634.25,289.85 636.46,290.73 638.66,291.63 640.87,292.55 643.08,293.50 645.28,294.46 647.49,295.45 649.70,296.46 651.90,297.49 654.11,298.54 656.32,299.60 658.52,300.69 660.73,301.80 662.93,302.92 665.14,304.06 667.35,305.22 669.55,306.40 671.76,307.59 673.97,308.80 676.17,310.03 678.38,311.27 680.59,312.52 682.79,313.80 685.00,315.08 687.21,316.38 689.41,317.69 691.62,319.01 693.83,320.35 696.03,321.69 698.24,323.05 700.45,324.42 702.65,325.80 704.86,327.19 707.07,328.60 709.27,330.01 711.48,331.42 713.68,332.85 715.89,334.29 718.10,335.73 720.30,337.18 722.51,338.64 724.72,340.11 726.92,341.58 729.13,343.06 731.34,344.54 733.54,346.03 735.75,347.53 737.96,349.03 740.16,350.53 742.37,352.04 744.58,353.55 746.78,355.07 748.99,356.59 751.20,358.11 753.40,359.64 755.61,361.16 757.82,362.69 760.02,364.22 762.23,365.76 764.43,367.29 766.64,368.82 768.85,370.36 771.05,371.89 773.26,373.42 775.47,374.96 777.67,376.49 779.88,378.02 782.09,379.55 784.29,381.07 786.50,382.60 788.71,384.12 790.91,385.64 793.12,387.15 795.33,388.67 797.53,390.17 799.74,391.68 801.95,393.18 804.15,394.67 806.36,396.17 808.57,397.65 810.77,399.13 812.98,400.61 815.18,402.07 817.39,403.54 819.60,404.99 821.80,406.44 824.01,407.88 826.22,409.31 828.42,410.74 830.63,412.16 832.84,413.57 835.04,414.97 837.25,416.36 839.46,417.74 841.66,419.11 843.87,420.47 846.08,421.82 848.28,423.16 850.49,424.49 852.70,425.80 854.90,427.11 857.11,428.40 859.32,429.68 861.52,430.94 863.73,432.19 865.93,433.42 868.14,434.64 870.35,435.85 872.55,437.03 874.76,438.21 876.97,439.36 879.17,440.50 881.38,441.62 883.59,442.72 885.79,443.80 888.00,444.87" fill="none" stroke="#1665d8" stroke-width="3" stroke-linejoin="round"/>
<line x1="660" y1="88" x2="696" y2="88" stroke="#1665d8" stroke-width="3"/>
<text x="706" y="93" font-family="Arial, Helvetica, sans-serif" font-size="13" font-weight="400" text-anchor="start" fill="#111">gain, dB</text>
<polyline points="76.00,347.83 78.21,347.97 80.41,348.11 82.62,348.24 84.83,348.37 87.03,348.50 89.24,348.63 91.45,348.75 93.65,348.87 95.86,348.99 98.07,349.10 100.27,349.21 102.48,349.32 104.68,349.43 106.89,349.53 109.10,349.63 111.30,349.73 113.51,349.83 115.72,349.92 117.92,350.02 120.13,350.11 122.34,350.19 124.54,350.28 126.75,350.36 128.96,350.44 131.16,350.52 133.37,350.60 135.58,350.67 137.78,350.75 139.99,350.82 142.20,350.89 144.40,350.96 146.61,351.02 148.82,351.09 151.02,351.15 153.23,351.21 155.43,351.27 157.64,351.32 159.85,351.38 162.05,351.43 164.26,351.49 166.47,351.54 168.67,351.59 170.88,351.64 173.09,351.69 175.29,351.73 177.50,351.78 179.71,351.82 181.91,351.86 184.12,351.90 186.33,351.94 188.53,351.98 190.74,352.02 192.95,352.06 195.15,352.09 197.36,352.13 199.57,352.16 201.77,352.20 203.98,352.23 206.18,352.26 208.39,352.29 210.60,352.32 212.80,352.35 215.01,352.38 217.22,352.41 219.42,352.43 221.63,352.46 223.84,352.48 226.04,352.51 228.25,352.53 230.46,352.56 232.66,352.58 234.87,352.60 237.08,352.62 239.28,352.65 241.49,352.67 243.70,352.69 245.90,352.71 248.11,352.73 250.32,352.74 252.52,352.76 254.73,352.78 256.93,352.80 259.14,352.81 261.35,352.83 263.55,352.85 265.76,352.86 267.97,352.88 270.17,352.89 272.38,352.91 274.59,352.92 276.79,352.94 279.00,352.95 281.21,352.96 283.41,352.98 285.62,352.99 287.83,353.00 290.03,353.02 292.24,353.03 294.45,353.04 296.65,353.05 298.86,353.06 301.07,353.08 303.27,353.09 305.48,353.10 307.68,353.11 309.89,353.12 312.10,353.13 314.30,353.14 316.51,353.15 318.72,353.16 320.92,353.17 323.13,353.18 325.34,353.19 327.54,353.20 329.75,353.21 331.96,353.22 334.16,353.23 336.37,353.24 338.58,353.25 340.78,353.26 342.99,353.27 345.20,353.28 347.40,353.29 349.61,315.02 351.82,315.03 354.02,315.04 356.23,315.05 358.43,315.06 360.64,315.07 362.85,315.08 365.05,315.09 367.26,315.10 369.47,315.11 371.67,315.12 373.88,315.13 376.09,315.14 378.29,315.15 380.50,315.16 382.71,315.17 384.91,315.18 387.12,315.19 389.33,315.20 391.53,315.21 393.74,315.22 395.95,315.23 398.15,315.24 400.36,315.26 402.57,315.27 404.77,315.28 406.98,315.29 409.18,315.30 411.39,315.32 413.60,315.33 415.80,315.34 418.01,315.36 420.22,315.37 422.42,315.39 424.63,315.40 426.84,315.41 429.04,315.43 431.25,315.44 433.46,315.46 435.66,315.48 437.87,315.49 440.08,315.51 442.28,315.53 444.49,315.55 446.70,315.56 448.90,315.58 451.11,315.60 453.32,315.62 455.52,315.64 457.73,315.66 459.93,315.68 462.14,315.70 464.35,315.73 466.55,315.75 468.76,315.77 470.97,315.79 473.17,315.82 475.38,315.84 477.59,315.87 479.79,315.90 482.00,315.92 484.21,315.95 486.41,315.98 488.62,316.01 490.83,316.04 493.03,316.07 495.24,316.10 497.45,316.13 499.65,316.17 501.86,316.20 504.07,316.24 506.27,316.27 508.48,316.31 510.68,316.35 512.89,316.39 515.10,316.43 517.30,316.47 519.51,316.51 521.72,316.55 523.92,316.59 526.13,316.64 528.34,316.68 530.54,316.73 532.75,316.78 534.96,316.83 537.16,316.88 539.37,316.93 541.58,316.98 543.78,317.04 545.99,317.09 548.20,317.15 550.40,317.21 552.61,317.27 554.82,317.33 557.02,317.39 559.23,317.45 561.43,317.52 563.64,317.58 565.85,317.65 568.05,317.71 570.26,317.78 572.47,317.85 574.67,317.92 576.88,318.00 579.09,318.07 581.29,318.15 583.50,318.22 585.71,318.30 587.91,318.38 590.12,318.45 592.33,318.53 594.53,318.61 596.74,318.70 598.95,318.78 601.15,318.86 603.36,318.94 605.57,319.03 607.77,319.11 609.98,319.20 612.18,319.28 614.39,319.37 616.60,319.46 618.80,319.54 621.01,319.63 623.22,319.72 625.42,319.80 627.63,319.89 629.84,319.98 632.04,320.06 634.25,320.15 636.46,320.23 638.66,320.32 640.87,320.40 643.08,320.49 645.28,320.57 647.49,320.65 649.70,320.73 651.90,320.81 654.11,320.89 656.32,320.97 658.52,321.05 660.73,321.13 662.93,321.20 665.14,321.28 667.35,321.35 669.55,321.42 671.76,321.49 673.97,321.56 676.17,321.63 678.38,321.70 680.59,321.76 682.79,321.83 685.00,321.89 687.21,321.95 689.41,322.01 691.62,322.07 693.83,322.13 696.03,322.18 698.24,322.24 700.45,322.29 702.65,322.34 704.86,322.39 707.07,322.43 709.27,322.48 711.48,322.52 713.68,322.57 715.89,322.61 718.10,322.65 720.30,322.69 722.51,322.72 724.72,322.76 726.92,322.79 729.13,322.82 731.34,322.85 733.54,322.88 735.75,322.90 737.96,322.93 740.16,322.95 742.37,322.97 744.58,322.99 746.78,323.01 748.99,323.03 751.20,323.04 753.40,323.06 755.61,323.07 757.82,323.08 760.02,323.09 762.23,323.09 764.43,323.10 766.64,323.10 768.85,323.10 771.05,323.10 773.26,323.10 775.47,323.10 777.67,323.10 779.88,323.09 782.09,323.08 784.29,323.07 786.50,323.06 788.71,323.05 790.91,323.03 793.12,323.02 795.33,323.00 797.53,322.98 799.74,322.96 801.95,322.94 804.15,322.91 806.36,322.89 808.57,322.86 810.77,322.83 812.98,322.80 815.18,322.77 817.39,322.74 819.60,322.70 821.80,322.67 824.01,322.63 826.22,322.59 828.42,322.55 830.63,322.51 832.84,322.46 835.04,322.42 837.25,322.37 839.46,322.32 841.66,322.27 843.87,322.22 846.08,322.17 848.28,322.11 850.49,322.05 852.70,322.00 854.90,321.94 857.11,321.88 859.32,321.82 861.52,321.75 863.73,321.69 865.93,321.62 868.14,321.55 870.35,321.49 872.55,321.42 874.76,321.34 876.97,321.27 879.17,321.20 881.38,321.12 883.59,321.05 885.79,320.97 888.00,320.89" fill="none" stroke="#b54708" stroke-width="3" stroke-linejoin="round"/>
<line x1="660" y1="114" x2="696" y2="114" stroke="#b54708" stroke-width="3"/>
<text x="706" y="119" font-family="Arial, Helvetica, sans-serif" font-size="13" font-weight="400" text-anchor="start" fill="#111">phase, deg</text>
<text x="460" y="502" font-family="Arial, Helvetica, sans-serif" font-size="14" font-weight="400" text-anchor="middle" fill="#111">Frequency, Hz</text>
<text x="22" y="260" font-family="Arial, Helvetica, sans-serif" font-size="14" text-anchor="middle" fill="#111" transform="rotate(-90 22 260)">Gain dB / phase deg</text>
</svg>
