<svg xmlns="http://www.w3.org/2000/svg" width="920" height="520" viewBox="0 0 920 520">
<defs>
<style>
.wire{stroke:#111;stroke-width:2.6;fill:none;stroke-linecap:round;stroke-linejoin:round}
.thin{stroke:#a7b0bd;stroke-width:1.2;fill:none;stroke-linecap:round;stroke-linejoin:round}
.axis{stroke:#111;stroke-width:1.4;fill:none}
.blue{stroke:#1665d8;stroke-width:3;fill:none;stroke-linecap:round;stroke-linejoin:round}
.green{stroke:#13795b;stroke-width:3;fill:none;stroke-linecap:round;stroke-linejoin:round}
.orange{stroke:#b54708;stroke-width:3;fill:none;stroke-linecap:round;stroke-linejoin:round}
.node{fill:#111;stroke:none}
</style>
</defs>
<rect width="100%" height="100%" fill="#fff"/>
<text x="76" y="36" font-family="Arial, Helvetica, sans-serif" font-size="22" font-weight="700" text-anchor="start" fill="#111">AC gain and phase, load = 8 ohm</text>
<rect x="76" y="60" width="812" height="396" fill="#fff" stroke="#111" stroke-width="1.4"/>
<line x1="129.115" y1="60" x2="129.115" y2="456" class="thin"/>
<text x="129.115" y="479" font-family="Arial, Helvetica, sans-serif" font-size="12" font-weight="400" text-anchor="middle" fill="#111">10</text>
<line x1="305.557" y1="60" x2="305.557" y2="456" class="thin"/>
<text x="305.557" y="479" font-family="Arial, Helvetica, sans-serif" font-size="12" font-weight="400" text-anchor="middle" fill="#111">100</text>
<line x1="482" y1="60" x2="482" y2="456" class="thin"/>
<text x="482" y="479" font-family="Arial, Helvetica, sans-serif" font-size="12" font-weight="400" text-anchor="middle" fill="#111">1k</text>
<line x1="658.443" y1="60" x2="658.443" y2="456" class="thin"/>
<text x="658.443" y="479" font-family="Arial, Helvetica, sans-serif" font-size="12" font-weight="400" text-anchor="middle" fill="#111">10k</text>
<line x1="834.885" y1="60" x2="834.885" y2="456" class="thin"/>
<text x="834.885" y="479" font-family="Arial, Helvetica, sans-serif" font-size="12" font-weight="400" text-anchor="middle" fill="#111">100k</text>
<line x1="76" y1="456" x2="888" y2="456" class="thin"/>
<text x="66" y="460" font-family="Arial, Helvetica, sans-serif" font-size="12" font-weight="400" text-anchor="end" fill="#111">-20</text>
<line x1="76" y1="334.154" x2="888" y2="334.154" class="thin"/>
<text x="66" y="338.154" font-family="Arial, Helvetica, sans-serif" font-size="12" font-weight="400" text-anchor="end" fill="#111">0</text>
<line x1="76" y1="212.308" x2="888" y2="212.308" class="thin"/>
<text x="66" y="216.308" font-family="Arial, Helvetica, sans-serif" font-size="12" font-weight="400" text-anchor="end" fill="#111">20</text>
<line x1="76" y1="90.4615" x2="888" y2="90.4615" class="thin"/>
<text x="66" y="94.4615" font-family="Arial, Helvetica, sans-serif" font-size="12" font-weight="400" text-anchor="end" fill="#111">40</text>
<polyline points="76.00,316.13 78.21,314.10 80.41,312.09 82.62,310.11 84.83,308.14 87.03,306.18 89.24,304.25 91.45,302.33 93.65,300.43 95.86,298.55 98.07,296.68 100.27,294.83 102.48,292.99 104.68,291.17 106.89,289.36 109.10,287.56 111.30,285.78 113.51,284.01 115.72,282.26 117.92,280.51 120.13,278.78 122.34,277.05 124.54,275.34 126.75,273.64 128.96,271.94 131.16,270.26 133.37,268.58 135.58,266.92 137.78,265.26 139.99,263.61 142.20,261.97 144.40,260.33 146.61,258.71 148.82,257.09 151.02,255.47 153.23,253.86 155.43,252.26 157.64,250.67 159.85,249.08 162.05,247.49 164.26,245.91 166.47,244.34 168.67,242.77 170.88,241.21 173.09,239.65 175.29,238.10 177.50,236.55 179.71,235.00 181.91,233.46 184.12,231.93 186.33,230.40 188.53,228.87 190.74,227.35 192.95,225.83 195.15,224.32 197.36,222.81 199.57,221.31 201.77,219.81 203.98,218.31 206.18,216.83 208.39,215.34 210.60,213.86 212.80,212.39 215.01,210.92 217.22,209.45 219.42,208.00 221.63,206.54 223.84,205.10 226.04,203.66 228.25,202.22 230.46,200.80 232.66,199.38 234.87,197.96 237.08,196.56 239.28,195.16 241.49,193.77 243.70,192.39 245.90,191.01 248.11,189.65 250.32,188.30 252.52,186.95 254.73,185.62 256.93,184.29 259.14,182.98 261.35,181.67 263.55,180.38 265.76,179.10 267.97,177.84 270.17,176.59 272.38,175.35 274.59,174.12 276.79,172.91 279.00,171.71 281.21,170.53 283.41,169.37 285.62,168.22 287.83,167.09 290.03,165.97 292.24,164.88 294.45,163.80 296.65,162.74 298.86,161.70 301.07,160.68 303.27,159.67 305.48,158.69 307.68,157.73 309.89,156.79 312.10,155.87 314.30,154.97 316.51,154.10 318.72,153.24 320.92,152.41 323.13,151.60 325.34,150.81 327.54,150.04 329.75,149.29 331.96,148.57 334.16,147.87 336.37,147.19 338.58,146.53 340.78,145.90 342.99,145.28 345.20,144.69 347.40,144.11 349.61,143.56 351.82,143.03 354.02,142.52 356.23,142.02 358.43,141.55 360.64,141.09 362.85,140.66 365.05,140.24 367.26,139.84 369.47,139.45 371.67,139.08 373.88,138.73 376.09,138.39 378.29,138.07 380.50,137.76 382.71,137.47 384.91,137.19 387.12,136.92 389.33,136.67 391.53,136.43 393.74,136.20 395.95,135.98 398.15,135.77 400.36,135.57 402.57,135.39 404.77,135.21 406.98,135.04 409.18,134.88 411.39,134.73 413.60,134.59 415.80,134.45 418.01,134.32 420.22,134.20 422.42,134.09 424.63,133.98 426.84,133.88 429.04,133.78 431.25,133.70 433.46,133.61 435.66,133.53 437.87,133.46 440.08,133.39 442.28,133.33 444.49,133.27 446.70,133.21 448.90,133.16 451.11,133.11 453.32,133.07 455.52,133.03 457.73,132.99 459.93,132.96 462.14,132.93 464.35,132.91 466.55,132.89 468.76,132.87 470.97,132.85 473.17,132.84 475.38,132.83 477.59,132.82 479.79,132.82 482.00,132.82 484.21,132.82 486.41,132.83 488.62,132.83 490.83,132.85 493.03,132.86 495.24,132.88 497.45,132.90 499.65,132.92 501.86,132.95 504.07,132.98 506.27,133.02 508.48,133.06 510.68,133.10 512.89,133.14 515.10,133.19 517.30,133.25 519.51,133.31 521.72,133.37 523.92,133.44 526.13,133.51 528.34,133.59 530.54,133.67 532.75,133.76 534.96,133.85 537.16,133.95 539.37,134.05 541.58,134.17 543.78,134.28 545.99,134.41 548.20,134.54 550.40,134.68 552.61,134.83 554.82,134.99 557.02,135.16 559.23,135.33 561.43,135.52 563.64,135.71 565.85,135.92 568.05,136.13 570.26,136.36 572.47,136.60 574.67,136.85 576.88,137.11 579.09,137.39 581.29,137.68 583.50,137.98 585.71,138.30 587.91,138.63 590.12,138.98 592.33,139.35 594.53,139.73 596.74,140.13 598.95,140.54 601.15,140.98 603.36,141.43 605.57,141.90 607.77,142.39 609.98,142.90 612.18,143.43 614.39,143.98 616.60,144.55 618.80,145.14 621.01,145.75 623.22,146.39 625.42,147.05 627.63,147.73 629.84,148.43 632.04,149.15 634.25,149.90 636.46,150.67 638.66,151.46 640.87,152.27 643.08,153.11 645.28,153.97 647.49,154.85 649.70,155.75 651.90,156.68 654.11,157.63 656.32,158.60 658.52,159.59 660.73,160.60 662.93,161.63 665.14,162.68 667.35,163.76 669.55,164.85 671.76,165.96 673.97,167.09 676.17,168.24 678.38,169.41 680.59,170.59 682.79,171.79 685.00,173.01 687.21,174.24 689.41,175.49 691.62,176.75 693.83,178.03 696.03,179.32 698.24,180.62 700.45,181.94 702.65,183.27 704.86,184.61 707.07,185.96 709.27,187.33 711.48,188.70 713.68,190.08 715.89,191.47 718.10,192.87 720.30,194.28 722.51,195.70 724.72,197.12 726.92,198.55 729.13,199.99 731.34,201.43 733.54,202.88 735.75,204.33 737.96,205.79 740.16,207.25 742.37,208.72 744.58,210.19 746.78,211.66 748.99,213.14 751.20,214.62 753.40,216.10 755.61,217.58 757.82,219.06 760.02,220.55 762.23,222.03 764.43,223.52 766.64,225.00 768.85,226.49 771.05,227.98 773.26,229.46 775.47,230.95 777.67,232.43 779.88,233.92 782.09,235.40 784.29,236.88 786.50,238.36 788.71,239.84 790.91,241.31 793.12,242.78 795.33,244.25 797.53,245.72 799.74,247.18 801.95,248.64 804.15,250.10 806.36,251.55 808.57,253.00 810.77,254.44 812.98,255.88 815.18,257.31 817.39,258.74 819.60,260.17 821.80,261.58 824.01,263.00 826.22,264.40 828.42,265.80 830.63,267.19 832.84,268.58 835.04,269.95 837.25,271.32 839.46,272.68 841.66,274.04 843.87,275.38 846.08,276.71 848.28,278.03 850.49,279.35 852.70,280.65 854.90,281.94 857.11,283.22 859.32,284.48 861.52,285.74 863.73,286.98 865.93,288.20 868.14,289.42 870.35,290.61 872.55,291.80 874.76,292.96 876.97,294.12 879.17,295.25 881.38,296.37 883.59,297.47 885.79,298.55 888.00,299.61" fill="none" stroke="#1665d8" stroke-width="3" stroke-linejoin="round"/>
<line x1="660" y1="88" x2="696" y2="88" stroke="#1665d8" stroke-width="3"/>
<text x="706" y="93" font-family="Arial, Helvetica, sans-serif" font-size="13" font-weight="400" text-anchor="start" fill="#111">gain, dB</text>
<polyline points="76.00,340.18 78.21,340.27 80.41,340.36 82.62,340.44 84.83,340.53 87.03,340.62 89.24,340.70 91.45,340.79 93.65,340.87 95.86,340.96 98.07,341.04 100.27,341.12 102.48,341.20 104.68,341.28 106.89,341.36 109.10,341.44 111.30,341.51 113.51,341.59 115.72,341.66 117.92,341.74 120.13,341.81 122.34,341.88 124.54,341.96 126.75,342.03 128.96,342.10 131.16,342.16 133.37,342.23 135.58,342.30 137.78,342.37 139.99,342.43 142.20,342.50 144.40,342.56 146.61,342.62 148.82,342.69 151.02,342.75 153.23,342.81 155.43,342.87 157.64,342.93 159.85,342.99 162.05,343.05 164.26,343.11 166.47,343.17 168.67,343.23 170.88,343.28 173.09,343.34 175.29,343.40 177.50,343.46 179.71,343.51 181.91,343.57 184.12,343.63 186.33,343.68 188.53,343.74 190.74,343.80 192.95,343.85 195.15,343.91 197.36,343.97 199.57,344.02 201.77,344.08 203.98,344.14 206.18,344.20 208.39,344.25 210.60,344.31 212.80,344.37 215.01,344.43 217.22,344.49 219.42,344.55 221.63,344.61 223.84,344.67 226.04,344.74 228.25,344.80 230.46,344.86 232.66,344.92 234.87,344.99 237.08,345.05 239.28,345.12 241.49,345.19 243.70,345.26 245.90,345.32 248.11,345.39 250.32,345.46 252.52,345.54 254.73,345.61 256.93,345.68 259.14,345.75 261.35,345.83 263.55,345.91 265.76,345.98 267.97,346.06 270.17,346.14 272.38,346.22 274.59,346.30 276.79,346.38 279.00,346.47 281.21,346.55 283.41,346.63 285.62,346.72 287.83,346.81 290.03,346.90 292.24,346.98 294.45,347.07 296.65,347.16 298.86,347.25 301.07,347.35 303.27,347.44 305.48,347.53 307.68,347.62 309.89,347.72 312.10,347.81 314.30,347.91 316.51,348.00 318.72,348.10 320.92,348.19 323.13,348.29 325.34,348.38 327.54,348.48 329.75,348.57 331.96,348.67 334.16,348.76 336.37,348.86 338.58,348.95 340.78,349.05 342.99,349.14 345.20,349.23 347.40,349.33 349.61,349.42 351.82,349.51 354.02,349.60 356.23,349.69 358.43,349.78 360.64,349.87 362.85,349.96 365.05,350.04 367.26,350.13 369.47,350.21 371.67,350.29 373.88,350.38 376.09,350.46 378.29,350.54 380.50,350.62 382.71,350.70 384.91,350.77 387.12,350.85 389.33,350.92 391.53,351.00 393.74,351.07 395.95,351.14 398.15,351.21 400.36,351.28 402.57,351.35 404.77,351.41 406.98,351.48 409.18,351.54 411.39,351.61 413.60,351.67 415.80,351.73 418.01,351.79 420.22,351.85 422.42,351.91 424.63,351.97 426.84,352.03 429.04,352.09 431.25,352.14 433.46,352.20 435.66,352.25 437.87,352.30 440.08,352.36 442.28,352.41 444.49,352.46 446.70,352.51 448.90,352.56 451.11,352.61 453.32,352.66 455.52,352.71 457.73,352.76 459.93,352.81 462.14,352.86 464.35,352.90 466.55,352.95 468.76,353.00 470.97,353.05 473.17,353.09 475.38,353.14 477.59,353.19 479.79,353.23 482.00,353.28 484.21,315.05 486.41,315.09 488.62,315.14 490.83,315.19 493.03,315.23 495.24,315.28 497.45,315.33 499.65,315.37 501.86,315.42 504.07,315.47 506.27,315.52 508.48,315.56 510.68,315.61 512.89,315.66 515.10,315.71 517.30,315.76 519.51,315.81 521.72,315.86 523.92,315.92 526.13,315.97 528.34,316.02 530.54,316.08 532.75,316.13 534.96,316.18 537.16,316.24 539.37,316.30 541.58,316.35 543.78,316.41 545.99,316.47 548.20,316.53 550.40,316.59 552.61,316.65 554.82,316.72 557.02,316.78 559.23,316.85 561.43,316.91 563.64,316.98 565.85,317.04 568.05,317.11 570.26,317.18 572.47,317.25 574.67,317.33 576.88,317.40 579.09,317.47 581.29,317.55 583.50,317.62 585.71,317.70 587.91,317.78 590.12,317.86 592.33,317.94 594.53,318.02 596.74,318.10 598.95,318.18 601.15,318.26 603.36,318.35 605.57,318.43 607.77,318.52 609.98,318.60 612.18,318.69 614.39,318.78 616.60,318.86 618.80,318.95 621.01,319.04 623.22,319.13 625.42,319.22 627.63,319.31 629.84,319.40 632.04,319.49 634.25,319.58 636.46,319.67 638.66,319.76 640.87,319.84 643.08,319.93 645.28,320.02 647.49,320.11 649.70,320.20 651.90,320.28 654.11,320.37 656.32,320.45 658.52,320.54 660.73,320.62 662.93,320.70 665.14,320.78 667.35,320.86 669.55,320.94 671.76,321.02 673.97,321.09 676.17,321.17 678.38,321.24 680.59,321.31 682.79,321.39 685.00,321.45 687.21,321.52 689.41,321.59 691.62,321.65 693.83,321.72 696.03,321.78 698.24,321.84 700.45,321.89 702.65,321.95 704.86,322.01 707.07,322.06 709.27,322.11 711.48,322.16 713.68,322.21 715.89,322.25 718.10,322.30 720.30,322.34 722.51,322.38 724.72,322.42 726.92,322.45 729.13,322.49 731.34,322.52 733.54,322.55 735.75,322.58 737.96,322.61 740.16,322.64 742.37,322.66 744.58,322.69 746.78,322.71 748.99,322.73 751.20,322.75 753.40,322.76 755.61,322.78 757.82,322.79 760.02,322.80 762.23,322.81 764.43,322.82 766.64,322.83 768.85,322.83 771.05,322.83 773.26,322.84 775.47,322.84 777.67,322.83 779.88,322.83 782.09,322.83 784.29,322.82 786.50,322.81 788.71,322.81 790.91,322.79 793.12,322.78 795.33,322.77 797.53,322.75 799.74,322.74 801.95,322.72 804.15,322.70 806.36,322.68 808.57,322.66 810.77,322.63 812.98,322.61 815.18,322.58 817.39,322.55 819.60,322.52 821.80,322.49 824.01,322.46 826.22,322.42 828.42,322.39 830.63,322.35 832.84,322.31 835.04,322.27 837.25,322.23 839.46,322.18 841.66,322.14 843.87,322.09 846.08,322.04 848.28,321.99 850.49,321.94 852.70,321.89 854.90,321.84 857.11,321.78 859.32,321.72 861.52,321.66 863.73,321.60 865.93,321.54 868.14,321.48 870.35,321.42 872.55,321.35 874.76,321.28 876.97,321.21 879.17,321.15 881.38,321.07 883.59,321.00 885.79,320.93 888.00,320.86" fill="none" stroke="#b54708" stroke-width="3" stroke-linejoin="round"/>
<line x1="660" y1="114" x2="696" y2="114" stroke="#b54708" stroke-width="3"/>
<text x="706" y="119" font-family="Arial, Helvetica, sans-serif" font-size="13" font-weight="400" text-anchor="start" fill="#111">phase, deg</text>
<text x="460" y="502" font-family="Arial, Helvetica, sans-serif" font-size="14" font-weight="400" text-anchor="middle" fill="#111">Frequency, Hz</text>
<text x="22" y="260" font-family="Arial, Helvetica, sans-serif" font-size="14" text-anchor="middle" fill="#111" transform="rotate(-90 22 260)">Gain dB / phase deg</text>
</svg>
