<svg xmlns="http://www.w3.org/2000/svg" width="920" height="520" viewBox="0 0 920 520">
<defs>
<style>
.wire{stroke:#111;stroke-width:2.6;fill:none;stroke-linecap:round;stroke-linejoin:round}
.thin{stroke:#a7b0bd;stroke-width:1.2;fill:none;stroke-linecap:round;stroke-linejoin:round}
.axis{stroke:#111;stroke-width:1.4;fill:none}
.blue{stroke:#1665d8;stroke-width:3;fill:none;stroke-linecap:round;stroke-linejoin:round}
.green{stroke:#13795b;stroke-width:3;fill:none;stroke-linecap:round;stroke-linejoin:round}
.orange{stroke:#b54708;stroke-width:3;fill:none;stroke-linecap:round;stroke-linejoin:round}
.node{fill:#111;stroke:none}
</style>
</defs>
<rect width="100%" height="100%" fill="#fff"/>
<text x="76" y="36" font-family="Arial, Helvetica, sans-serif" font-size="22" font-weight="700" text-anchor="start" fill="#111">AC gain and phase, load = 8 ohm</text>
<rect x="76" y="60" width="812" height="396" fill="#fff" stroke="#111" stroke-width="1.4"/>
<line x1="129.115" y1="60" x2="129.115" y2="456" class="thin"/>
<text x="129.115" y="479" font-family="Arial, Helvetica, sans-serif" font-size="12" font-weight="400" text-anchor="middle" fill="#111">10</text>
<line x1="305.557" y1="60" x2="305.557" y2="456" class="thin"/>
<text x="305.557" y="479" font-family="Arial, Helvetica, sans-serif" font-size="12" font-weight="400" text-anchor="middle" fill="#111">100</text>
<line x1="482" y1="60" x2="482" y2="456" class="thin"/>
<text x="482" y="479" font-family="Arial, Helvetica, sans-serif" font-size="12" font-weight="400" text-anchor="middle" fill="#111">1k</text>
<line x1="658.443" y1="60" x2="658.443" y2="456" class="thin"/>
<text x="658.443" y="479" font-family="Arial, Helvetica, sans-serif" font-size="12" font-weight="400" text-anchor="middle" fill="#111">10k</text>
<line x1="834.885" y1="60" x2="834.885" y2="456" class="thin"/>
<text x="834.885" y="479" font-family="Arial, Helvetica, sans-serif" font-size="12" font-weight="400" text-anchor="middle" fill="#111">100k</text>
<line x1="76" y1="456" x2="888" y2="456" class="thin"/>
<text x="66" y="460" font-family="Arial, Helvetica, sans-serif" font-size="12" font-weight="400" text-anchor="end" fill="#111">-20</text>
<line x1="76" y1="334.154" x2="888" y2="334.154" class="thin"/>
<text x="66" y="338.154" font-family="Arial, Helvetica, sans-serif" font-size="12" font-weight="400" text-anchor="end" fill="#111">0</text>
<line x1="76" y1="212.308" x2="888" y2="212.308" class="thin"/>
<text x="66" y="216.308" font-family="Arial, Helvetica, sans-serif" font-size="12" font-weight="400" text-anchor="end" fill="#111">20</text>
<line x1="76" y1="90.4615" x2="888" y2="90.4615" class="thin"/>
<text x="66" y="94.4615" font-family="Arial, Helvetica, sans-serif" font-size="12" font-weight="400" text-anchor="end" fill="#111">40</text>
<polyline points="76.00,330.35 78.21,328.50 80.41,326.67 82.62,324.86 84.83,323.05 87.03,321.26 89.24,319.49 91.45,317.72 93.65,315.97 95.86,314.23 98.07,312.50 100.27,310.79 102.48,309.08 104.68,307.38 106.89,305.70 109.10,304.02 111.30,302.35 113.51,300.69 115.72,299.04 117.92,297.40 120.13,295.77 122.34,294.14 124.54,292.53 126.75,290.91 128.96,289.31 131.16,287.71 133.37,286.12 135.58,284.54 137.78,282.96 139.99,281.39 142.20,279.82 144.40,278.27 146.61,276.71 148.82,275.16 151.02,273.62 153.23,272.09 155.43,270.56 157.64,269.03 159.85,267.51 162.05,266.00 164.26,264.49 166.47,262.99 168.67,261.49 170.88,260.00 173.09,258.51 175.29,257.04 177.50,255.56 179.71,254.10 181.91,252.64 184.12,251.18 186.33,249.74 188.53,248.30 190.74,246.86 192.95,245.44 195.15,244.02 197.36,242.61 199.57,241.21 201.77,239.82 203.98,238.43 206.18,237.06 208.39,235.69 210.60,234.34 212.80,232.99 215.01,231.66 217.22,230.33 219.42,229.02 221.63,227.72 223.84,226.43 226.04,225.15 228.25,223.89 230.46,222.64 232.66,221.40 234.87,220.18 237.08,218.97 239.28,217.78 241.49,216.61 243.70,215.45 245.90,214.30 248.11,213.18 250.32,212.07 252.52,210.98 254.73,209.91 256.93,208.85 259.14,207.82 261.35,206.80 263.55,205.81 265.76,204.84 267.97,203.88 270.17,202.95 272.38,202.04 274.59,201.15 276.79,200.28 279.00,199.43 281.21,198.61 283.41,197.81 285.62,197.03 287.83,196.27 290.03,195.53 292.24,194.82 294.45,194.12 296.65,193.45 298.86,192.80 301.07,192.17 303.27,191.57 305.48,190.98 307.68,190.42 309.89,189.87 312.10,189.35 314.30,188.84 316.51,188.36 318.72,187.89 320.92,187.44 323.13,187.01 325.34,186.60 327.54,186.20 329.75,185.82 331.96,185.46 334.16,185.11 336.37,184.78 338.58,184.47 340.78,184.16 342.99,183.87 345.20,183.60 347.40,183.34 349.61,183.09 351.82,182.85 354.02,182.62 356.23,182.40 358.43,182.20 360.64,182.00 362.85,181.82 365.05,181.64 367.26,181.47 369.47,181.32 371.67,181.16 373.88,181.02 376.09,180.89 378.29,180.76 380.50,180.64 382.71,180.52 384.91,180.41 387.12,180.31 389.33,180.21 391.53,180.12 393.74,180.03 395.95,179.95 398.15,179.87 400.36,179.80 402.57,179.73 404.77,179.67 406.98,179.61 409.18,179.55 411.39,179.49 413.60,179.44 415.80,179.40 418.01,179.35 420.22,179.31 422.42,179.27 424.63,179.24 426.84,179.20 429.04,179.17 431.25,179.15 433.46,179.12 435.66,179.10 437.87,179.07 440.08,179.05 442.28,179.04 444.49,179.02 446.70,179.01 448.90,178.99 451.11,178.98 453.32,178.98 455.52,178.97 457.73,178.97 459.93,178.96 462.14,178.96 464.35,178.96 466.55,178.96 468.76,178.97 470.97,178.97 473.17,178.98 475.38,178.99 477.59,179.00 479.79,179.01 482.00,179.03 484.21,179.05 486.41,179.06 488.62,179.08 490.83,179.11 493.03,179.13 495.24,179.16 497.45,179.19 499.65,179.22 501.86,179.26 504.07,179.29 506.27,179.33 508.48,179.38 510.68,179.42 512.89,179.47 515.10,179.52 517.30,179.58 519.51,179.64 521.72,179.70 523.92,179.77 526.13,179.84 528.34,179.91 530.54,179.99 532.75,180.08 534.96,180.17 537.16,180.26 539.37,180.36 541.58,180.47 543.78,180.58 545.99,180.70 548.20,180.82 550.40,180.96 552.61,181.10 554.82,181.24 557.02,181.40 559.23,181.56 561.43,181.73 563.64,181.91 565.85,182.11 568.05,182.31 570.26,182.52 572.47,182.74 574.67,182.97 576.88,183.22 579.09,183.47 581.29,183.74 583.50,184.03 585.71,184.32 587.91,184.63 590.12,184.96 592.33,185.30 594.53,185.66 596.74,186.03 598.95,186.42 601.15,186.82 603.36,187.24 605.57,187.69 607.77,188.14 609.98,188.62 612.18,189.12 614.39,189.64 616.60,190.18 618.80,190.73 621.01,191.31 623.22,191.91 625.42,192.53 627.63,193.17 629.84,193.84 632.04,194.53 634.25,195.23 636.46,195.96 638.66,196.72 640.87,197.49 643.08,198.29 645.28,199.11 647.49,199.95 649.70,200.82 651.90,201.71 654.11,202.62 656.32,203.55 658.52,204.50 660.73,205.47 662.93,206.47 665.14,207.48 667.35,208.52 669.55,209.58 671.76,210.65 673.97,211.75 676.17,212.86 678.38,214.00 680.59,215.15 682.79,216.32 685.00,217.50 687.21,218.70 689.41,219.92 691.62,221.16 693.83,222.41 696.03,223.67 698.24,224.95 700.45,226.24 702.65,227.55 704.86,228.87 707.07,230.20 709.27,231.55 711.48,232.90 713.68,234.27 715.89,235.65 718.10,237.04 720.30,238.44 722.51,239.84 724.72,241.26 726.92,242.69 729.13,244.12 731.34,245.56 733.54,247.01 735.75,248.46 737.96,249.93 740.16,251.39 742.37,252.87 744.58,254.35 746.78,255.83 748.99,257.32 751.20,258.81 753.40,260.31 755.61,261.81 757.82,263.31 760.02,264.82 762.23,266.33 764.43,267.83 766.64,269.35 768.85,270.86 771.05,272.37 773.26,273.88 775.47,275.40 777.67,276.91 779.88,278.42 782.09,279.93 784.29,281.44 786.50,282.95 788.71,284.46 790.91,285.96 793.12,287.46 795.33,288.96 797.53,290.46 799.74,291.95 801.95,293.44 804.15,294.92 806.36,296.40 808.57,297.88 810.77,299.35 812.98,300.81 815.18,302.27 817.39,303.72 819.60,305.17 821.80,306.61 824.01,308.04 826.22,309.47 828.42,310.88 830.63,312.29 832.84,313.70 835.04,315.09 837.25,316.47 839.46,317.85 841.66,319.21 843.87,320.57 846.08,321.91 848.28,323.25 850.49,324.57 852.70,325.88 854.90,327.18 857.11,328.46 859.32,329.74 861.52,331.00 863.73,332.24 865.93,333.47 868.14,334.69 870.35,335.89 872.55,337.07 874.76,338.24 876.97,339.39 879.17,340.53 881.38,341.64 883.59,342.74 885.79,343.82 888.00,344.88" fill="none" stroke="#1665d8" stroke-width="3" stroke-linejoin="round"/>
<line x1="660" y1="88" x2="696" y2="88" stroke="#1665d8" stroke-width="3"/>
<text x="706" y="93" font-family="Arial, Helvetica, sans-serif" font-size="13" font-weight="400" text-anchor="start" fill="#111">gain, dB</text>
<polyline points="76.00,341.14 78.21,341.22 80.41,341.30 82.62,341.38 84.83,341.46 87.03,341.55 89.24,341.62 91.45,341.70 93.65,341.78 95.86,341.86 98.07,341.93 100.27,342.01 102.48,342.08 104.68,342.16 106.89,342.23 109.10,342.30 111.30,342.37 113.51,342.44 115.72,342.51 117.92,342.58 120.13,342.65 122.34,342.72 124.54,342.79 126.75,342.85 128.96,342.92 131.16,342.99 133.37,343.05 135.58,343.12 137.78,343.18 139.99,343.24 142.20,343.31 144.40,343.37 146.61,343.44 148.82,343.50 151.02,343.56 153.23,343.63 155.43,343.69 157.64,343.75 159.85,343.82 162.05,343.88 164.26,343.94 166.47,344.01 168.67,344.07 170.88,344.13 173.09,344.20 175.29,344.26 177.50,344.33 179.71,344.39 181.91,344.46 184.12,344.52 186.33,344.59 188.53,344.66 190.74,344.72 192.95,344.79 195.15,344.86 197.36,344.93 199.57,345.00 201.77,345.07 203.98,345.14 206.18,345.21 208.39,345.29 210.60,345.36 212.80,345.43 215.01,345.51 217.22,345.59 219.42,345.66 221.63,345.74 223.84,345.82 226.04,345.90 228.25,345.98 230.46,346.06 232.66,346.14 234.87,346.23 237.08,346.31 239.28,346.40 241.49,346.48 243.70,346.57 245.90,346.66 248.11,346.74 250.32,346.83 252.52,346.92 254.73,347.01 256.93,347.11 259.14,347.20 261.35,347.29 263.55,347.38 265.76,347.48 267.97,347.57 270.17,347.67 272.38,347.76 274.59,347.86 276.79,347.95 279.00,348.05 281.21,348.14 283.41,348.24 285.62,348.33 287.83,348.43 290.03,348.52 292.24,348.62 294.45,348.71 296.65,348.81 298.86,348.90 301.07,348.99 303.27,349.09 305.48,349.18 307.68,349.27 309.89,349.36 312.10,349.45 314.30,349.54 316.51,349.63 318.72,349.72 320.92,349.80 323.13,349.89 325.34,349.97 327.54,350.06 329.75,350.14 331.96,350.22 334.16,350.30 336.37,350.38 338.58,350.46 340.78,350.53 342.99,350.61 345.20,350.68 347.40,350.76 349.61,350.83 351.82,350.90 354.02,350.97 356.23,351.04 358.43,351.10 360.64,351.17 362.85,351.23 365.05,351.30 367.26,351.36 369.47,351.42 371.67,351.48 373.88,351.54 376.09,351.59 378.29,351.65 380.50,351.71 382.71,351.76 384.91,351.81 387.12,351.87 389.33,351.92 391.53,351.97 393.74,352.02 395.95,352.07 398.15,352.11 400.36,352.16 402.57,352.21 404.77,352.25 406.98,352.30 409.18,352.34 411.39,352.39 413.60,352.43 415.80,352.47 418.01,352.51 420.22,352.55 422.42,352.59 424.63,352.63 426.84,352.67 429.04,352.71 431.25,352.75 433.46,352.79 435.66,352.83 437.87,352.86 440.08,352.90 442.28,352.94 444.49,352.97 446.70,353.01 448.90,353.05 451.11,353.08 453.32,353.12 455.52,353.15 457.73,353.19 459.93,353.22 462.14,353.26 464.35,353.29 466.55,315.05 468.76,315.08 470.97,315.12 473.17,315.15 475.38,315.19 477.59,315.23 479.79,315.26 482.00,315.30 484.21,315.33 486.41,315.37 488.62,315.41 490.83,315.44 493.03,315.48 495.24,315.52 497.45,315.56 499.65,315.59 501.86,315.63 504.07,315.67 506.27,315.71 508.48,315.75 510.68,315.79 512.89,315.83 515.10,315.88 517.30,315.92 519.51,315.96 521.72,316.01 523.92,316.05 526.13,316.10 528.34,316.14 530.54,316.19 532.75,316.24 534.96,316.28 537.16,316.33 539.37,316.38 541.58,316.44 543.78,316.49 545.99,316.54 548.20,316.59 550.40,316.65 552.61,316.70 554.82,316.76 557.02,316.82 559.23,316.88 561.43,316.94 563.64,317.00 565.85,317.06 568.05,317.13 570.26,317.19 572.47,317.26 574.67,317.32 576.88,317.39 579.09,317.46 581.29,317.53 583.50,317.60 585.71,317.67 587.91,317.75 590.12,317.82 592.33,317.90 594.53,317.97 596.74,318.05 598.95,318.13 601.15,318.21 603.36,318.29 605.57,318.37 607.77,318.45 609.98,318.53 612.18,318.62 614.39,318.70 616.60,318.79 618.80,318.87 621.01,318.96 623.22,319.05 625.42,319.13 627.63,319.22 629.84,319.31 632.04,319.39 634.25,319.48 636.46,319.57 638.66,319.66 640.87,319.75 643.08,319.83 645.28,319.92 647.49,320.01 649.70,320.09 651.90,320.18 654.11,320.27 656.32,320.35 658.52,320.44 660.73,320.52 662.93,320.60 665.14,320.68 667.35,320.76 669.55,320.84 671.76,320.92 673.97,321.00 676.17,321.08 678.38,321.15 680.59,321.23 682.79,321.30 685.00,321.37 687.21,321.44 689.41,321.51 691.62,321.58 693.83,321.64 696.03,321.71 698.24,321.77 700.45,321.83 702.65,321.89 704.86,321.95 707.07,322.00 709.27,322.06 711.48,322.11 713.68,322.16 715.89,322.21 718.10,322.26 720.30,322.31 722.51,322.35 724.72,322.39 726.92,322.44 729.13,322.47 731.34,322.51 733.54,322.55 735.75,322.58 737.96,322.61 740.16,322.64 742.37,322.67 744.58,322.70 746.78,322.73 748.99,322.75 751.20,322.77 753.40,322.79 755.61,322.81 757.82,322.82 760.02,322.84 762.23,322.85 764.43,322.86 766.64,322.87 768.85,322.88 771.05,322.88 773.26,322.89 775.47,322.89 777.67,322.89 779.88,322.89 782.09,322.89 784.29,322.88 786.50,322.88 788.71,322.87 790.91,322.86 793.12,322.85 795.33,322.83 797.53,322.82 799.74,322.80 801.95,322.78 804.15,322.76 806.36,322.74 808.57,322.72 810.77,322.69 812.98,322.67 815.18,322.64 817.39,322.61 819.60,322.58 821.80,322.54 824.01,322.51 826.22,322.47 828.42,322.44 830.63,322.40 832.84,322.36 835.04,322.31 837.25,322.27 839.46,322.22 841.66,322.18 843.87,322.13 846.08,322.08 848.28,322.02 850.49,321.97 852.70,321.92 854.90,321.86 857.11,321.80 859.32,321.74 861.52,321.68 863.73,321.62 865.93,321.55 868.14,321.49 870.35,321.42 872.55,321.35 874.76,321.28 876.97,321.21 879.17,321.14 881.38,321.07 883.59,320.99 885.79,320.92 888.00,320.84" fill="none" stroke="#b54708" stroke-width="3" stroke-linejoin="round"/>
<line x1="660" y1="114" x2="696" y2="114" stroke="#b54708" stroke-width="3"/>
<text x="706" y="119" font-family="Arial, Helvetica, sans-serif" font-size="13" font-weight="400" text-anchor="start" fill="#111">phase, deg</text>
<text x="460" y="502" font-family="Arial, Helvetica, sans-serif" font-size="14" font-weight="400" text-anchor="middle" fill="#111">Frequency, Hz</text>
<text x="22" y="260" font-family="Arial, Helvetica, sans-serif" font-size="14" text-anchor="middle" fill="#111" transform="rotate(-90 22 260)">Gain dB / phase deg</text>
</svg>
