<svg xmlns="http://www.w3.org/2000/svg" width="920" height="520" viewBox="0 0 920 520">
<defs>
<style>
.wire{stroke:#111;stroke-width:2.6;fill:none;stroke-linecap:round;stroke-linejoin:round}
.thin{stroke:#a7b0bd;stroke-width:1.2;fill:none;stroke-linecap:round;stroke-linejoin:round}
.axis{stroke:#111;stroke-width:1.4;fill:none}
.blue{stroke:#1665d8;stroke-width:3;fill:none;stroke-linecap:round;stroke-linejoin:round}
.green{stroke:#13795b;stroke-width:3;fill:none;stroke-linecap:round;stroke-linejoin:round}
.orange{stroke:#b54708;stroke-width:3;fill:none;stroke-linecap:round;stroke-linejoin:round}
.node{fill:#111;stroke:none}
</style>
</defs>
<rect width="100%" height="100%" fill="#fff"/>
<text x="76" y="36" font-family="Arial, Helvetica, sans-serif" font-size="22" font-weight="700" text-anchor="start" fill="#111">AC gain and phase, load = 8 ohm</text>
<rect x="76" y="60" width="812" height="396" fill="#fff" stroke="#111" stroke-width="1.4"/>
<line x1="129.115" y1="60" x2="129.115" y2="456" class="thin"/>
<text x="129.115" y="479" font-family="Arial, Helvetica, sans-serif" font-size="12" font-weight="400" text-anchor="middle" fill="#111">10</text>
<line x1="305.557" y1="60" x2="305.557" y2="456" class="thin"/>
<text x="305.557" y="479" font-family="Arial, Helvetica, sans-serif" font-size="12" font-weight="400" text-anchor="middle" fill="#111">100</text>
<line x1="482" y1="60" x2="482" y2="456" class="thin"/>
<text x="482" y="479" font-family="Arial, Helvetica, sans-serif" font-size="12" font-weight="400" text-anchor="middle" fill="#111">1k</text>
<line x1="658.443" y1="60" x2="658.443" y2="456" class="thin"/>
<text x="658.443" y="479" font-family="Arial, Helvetica, sans-serif" font-size="12" font-weight="400" text-anchor="middle" fill="#111">10k</text>
<line x1="834.885" y1="60" x2="834.885" y2="456" class="thin"/>
<text x="834.885" y="479" font-family="Arial, Helvetica, sans-serif" font-size="12" font-weight="400" text-anchor="middle" fill="#111">100k</text>
<line x1="76" y1="456" x2="888" y2="456" class="thin"/>
<text x="66" y="460" font-family="Arial, Helvetica, sans-serif" font-size="12" font-weight="400" text-anchor="end" fill="#111">-20</text>
<line x1="76" y1="334.154" x2="888" y2="334.154" class="thin"/>
<text x="66" y="338.154" font-family="Arial, Helvetica, sans-serif" font-size="12" font-weight="400" text-anchor="end" fill="#111">0</text>
<line x1="76" y1="212.308" x2="888" y2="212.308" class="thin"/>
<text x="66" y="216.308" font-family="Arial, Helvetica, sans-serif" font-size="12" font-weight="400" text-anchor="end" fill="#111">20</text>
<line x1="76" y1="90.4615" x2="888" y2="90.4615" class="thin"/>
<text x="66" y="94.4615" font-family="Arial, Helvetica, sans-serif" font-size="12" font-weight="400" text-anchor="end" fill="#111">40</text>
<polyline points="76.00,286.64 78.21,286.04 80.41,285.47 82.62,284.92 84.83,284.40 87.03,283.91 89.24,283.44 91.45,282.99 93.65,282.56 95.86,282.16 98.07,281.77 100.27,281.41 102.48,281.06 104.68,280.73 106.89,280.42 109.10,280.12 111.30,279.84 113.51,279.57 115.72,279.32 117.92,279.07 120.13,278.85 122.34,278.63 124.54,278.43 126.75,278.23 128.96,278.05 131.16,277.88 133.37,277.71 135.58,277.56 137.78,277.41 139.99,277.27 142.20,277.14 144.40,277.01 146.61,276.89 148.82,276.78 151.02,276.68 153.23,276.58 155.43,276.48 157.64,276.39 159.85,276.31 162.05,276.23 164.26,276.15 166.47,276.08 168.67,276.01 170.88,275.95 173.09,275.89 175.29,275.83 177.50,275.78 179.71,275.73 181.91,275.68 184.12,275.64 186.33,275.59 188.53,275.55 190.74,275.51 192.95,275.48 195.15,275.44 197.36,275.41 199.57,275.38 201.77,275.35 203.98,275.33 206.18,275.30 208.39,275.28 210.60,275.25 212.80,275.23 215.01,275.21 217.22,275.19 219.42,275.17 221.63,275.16 223.84,275.14 226.04,275.13 228.25,275.11 230.46,275.10 232.66,275.08 234.87,275.07 237.08,275.06 239.28,275.05 241.49,275.04 243.70,275.03 245.90,275.02 248.11,275.01 250.32,275.00 252.52,275.00 254.73,274.99 256.93,274.98 259.14,274.98 261.35,274.97 263.55,274.96 265.76,274.96 267.97,274.95 270.17,274.95 272.38,274.95 274.59,274.94 276.79,274.94 279.00,274.93 281.21,274.93 283.41,274.93 285.62,274.92 287.83,274.92 290.03,274.92 292.24,274.92 294.45,274.91 296.65,274.91 298.86,274.91 301.07,274.91 303.27,274.91 305.48,274.90 307.68,274.90 309.89,274.90 312.10,274.90 314.30,274.90 316.51,274.90 318.72,274.90 320.92,274.90 323.13,274.89 325.34,274.89 327.54,274.89 329.75,274.89 331.96,274.89 334.16,274.89 336.37,274.89 338.58,274.89 340.78,274.89 342.99,274.89 345.20,274.89 347.40,274.89 349.61,274.89 351.82,274.89 354.02,274.89 356.23,274.89 358.43,274.89 360.64,274.89 362.85,274.90 365.05,274.90 367.26,274.90 369.47,274.90 371.67,274.90 373.88,274.90 376.09,274.90 378.29,274.90 380.50,274.91 382.71,274.91 384.91,274.91 387.12,274.91 389.33,274.91 391.53,274.92 393.74,274.92 395.95,274.92 398.15,274.92 400.36,274.93 402.57,274.93 404.77,274.93 406.98,274.94 409.18,274.94 411.39,274.95 413.60,274.95 415.80,274.95 418.01,274.96 420.22,274.97 422.42,274.97 424.63,274.98 426.84,274.98 429.04,274.99 431.25,275.00 433.46,275.00 435.66,275.01 437.87,275.02 440.08,275.03 442.28,275.04 444.49,275.05 446.70,275.06 448.90,275.07 451.11,275.08 453.32,275.10 455.52,275.11 457.73,275.13 459.93,275.14 462.14,275.16 464.35,275.17 466.55,275.19 468.76,275.21 470.97,275.23 473.17,275.25 475.38,275.28 477.59,275.30 479.79,275.33 482.00,275.35 484.21,275.38 486.41,275.41 488.62,275.44 490.83,275.48 493.03,275.51 495.24,275.55 497.45,275.59 499.65,275.63 501.86,275.68 504.07,275.72 506.27,275.77 508.48,275.83 510.68,275.88 512.89,275.94 515.10,276.00 517.30,276.07 519.51,276.14 521.72,276.21 523.92,276.29 526.13,276.37 528.34,276.46 530.54,276.55 532.75,276.65 534.96,276.75 537.16,276.86 539.37,276.97 541.58,277.09 543.78,277.22 545.99,277.35 548.20,277.49 550.40,277.64 552.61,277.80 554.82,277.96 557.02,278.13 559.23,278.31 561.43,278.51 563.64,278.71 565.85,278.92 568.05,279.14 570.26,279.37 572.47,279.62 574.67,279.88 576.88,280.14 579.09,280.43 581.29,280.72 583.50,281.03 585.71,281.36 587.91,281.70 590.12,282.05 592.33,282.42 594.53,282.81 596.74,283.22 598.95,283.64 601.15,284.08 603.36,284.54 605.57,285.01 607.77,285.51 609.98,286.03 612.18,286.56 614.39,287.12 616.60,287.69 618.80,288.29 621.01,288.91 623.22,289.55 625.42,290.21 627.63,290.90 629.84,291.61 632.04,292.33 634.25,293.09 636.46,293.86 638.66,294.65 640.87,295.47 643.08,296.31 645.28,297.18 647.49,298.06 649.70,298.97 651.90,299.90 654.11,300.85 656.32,301.82 658.52,302.81 660.73,303.82 662.93,304.86 665.14,305.91 667.35,306.98 669.55,308.07 671.76,309.18 673.97,310.31 676.17,311.46 678.38,312.63 680.59,313.81 682.79,315.01 685.00,316.22 687.21,317.46 689.41,318.70 691.62,319.96 693.83,321.24 696.03,322.53 698.24,323.83 700.45,325.15 702.65,326.48 704.86,327.82 707.07,329.17 709.27,330.53 711.48,331.91 713.68,333.29 715.89,334.69 718.10,336.09 720.30,337.51 722.51,338.93 724.72,340.36 726.92,341.80 729.13,343.25 731.34,344.70 733.54,346.16 735.75,347.63 737.96,349.10 740.16,350.58 742.37,352.07 744.58,353.55 746.78,355.05 748.99,356.55 751.20,358.05 753.40,359.55 755.61,361.06 757.82,362.57 760.02,364.09 762.23,365.60 764.43,367.12 766.64,368.64 768.85,370.15 771.05,371.67 773.26,373.19 775.47,374.71 777.67,376.23 779.88,377.75 782.09,379.27 784.29,380.78 786.50,382.30 788.71,383.81 790.91,385.32 793.12,386.83 795.33,388.33 797.53,389.83 799.74,391.33 801.95,392.82 804.15,394.31 806.36,395.79 808.57,397.27 810.77,398.75 812.98,400.21 815.18,401.68 817.39,403.13 819.60,404.58 821.80,406.03 824.01,407.46 826.22,408.89 828.42,410.32 830.63,411.73 832.84,413.13 835.04,414.53 837.25,415.92 839.46,417.30 841.66,418.67 843.87,420.02 846.08,421.37 848.28,422.71 850.49,424.03 852.70,425.35 854.90,426.65 857.11,427.93 859.32,429.21 861.52,430.47 863.73,431.72 865.93,432.95 868.14,434.17 870.35,435.37 872.55,436.56 874.76,437.73 876.97,438.88 879.17,440.02 881.38,441.14 883.59,442.24 885.79,443.32 888.00,444.38" fill="none" stroke="#1665d8" stroke-width="3" stroke-linejoin="round"/>
<line x1="660" y1="88" x2="696" y2="88" stroke="#1665d8" stroke-width="3"/>
<text x="706" y="93" font-family="Arial, Helvetica, sans-serif" font-size="13" font-weight="400" text-anchor="start" fill="#111">gain, dB</text>
<polyline points="76.00,347.58 78.21,347.72 80.41,347.86 82.62,348.00 84.83,348.13 87.03,348.27 89.24,348.39 91.45,348.52 93.65,348.64 95.86,348.77 98.07,348.88 100.27,349.00 102.48,349.11 104.68,349.22 106.89,349.33 109.10,349.44 111.30,349.54 113.51,349.64 115.72,349.74 117.92,349.84 120.13,349.93 122.34,350.02 124.54,350.11 126.75,350.20 128.96,350.28 131.16,350.37 133.37,350.45 135.58,350.53 137.78,350.60 139.99,350.68 142.20,350.75 144.40,350.82 146.61,350.89 148.82,350.96 151.02,351.02 153.23,351.09 155.43,351.15 157.64,351.21 159.85,351.27 162.05,351.33 164.26,351.38 166.47,351.44 168.67,351.49 170.88,351.54 173.09,351.59 175.29,351.64 177.50,351.69 179.71,351.73 181.91,351.78 184.12,351.82 186.33,351.86 188.53,351.90 190.74,351.94 192.95,351.98 195.15,352.02 197.36,352.06 199.57,352.09 201.77,352.13 203.98,352.16 206.18,352.20 208.39,352.23 210.60,352.26 212.80,352.29 215.01,352.32 217.22,352.35 219.42,352.38 221.63,352.41 223.84,352.43 226.04,352.46 228.25,352.48 230.46,352.51 232.66,352.53 234.87,352.56 237.08,352.58 239.28,352.60 241.49,352.62 243.70,352.64 245.90,352.66 248.11,352.68 250.32,352.70 252.52,352.72 254.73,352.74 256.93,352.76 259.14,352.78 261.35,352.79 263.55,352.81 265.76,352.83 267.97,352.84 270.17,352.86 272.38,352.87 274.59,352.89 276.79,352.90 279.00,352.92 281.21,352.93 283.41,352.95 285.62,352.96 287.83,352.97 290.03,352.98 292.24,353.00 294.45,353.01 296.65,353.02 298.86,353.03 301.07,353.05 303.27,353.06 305.48,353.07 307.68,353.08 309.89,353.09 312.10,353.10 314.30,353.11 316.51,353.12 318.72,353.13 320.92,353.14 323.13,353.15 325.34,353.16 327.54,353.17 329.75,353.18 331.96,353.19 334.16,353.20 336.37,353.21 338.58,353.22 340.78,353.23 342.99,353.24 345.20,353.25 347.40,353.26 349.61,353.27 351.82,353.28 354.02,353.28 356.23,315.01 358.43,315.02 360.64,315.03 362.85,315.04 365.05,315.05 367.26,315.06 369.47,315.07 371.67,315.08 373.88,315.09 376.09,315.10 378.29,315.11 380.50,315.12 382.71,315.13 384.91,315.14 387.12,315.15 389.33,315.16 391.53,315.17 393.74,315.18 395.95,315.19 398.15,315.20 400.36,315.21 402.57,315.22 404.77,315.23 406.98,315.24 409.18,315.25 411.39,315.26 413.60,315.28 415.80,315.29 418.01,315.30 420.22,315.31 422.42,315.32 424.63,315.34 426.84,315.35 429.04,315.36 431.25,315.38 433.46,315.39 435.66,315.41 437.87,315.42 440.08,315.44 442.28,315.45 444.49,315.47 446.70,315.48 448.90,315.50 451.11,315.52 453.32,315.53 455.52,315.55 457.73,315.57 459.93,315.59 462.14,315.61 464.35,315.63 466.55,315.64 468.76,315.67 470.97,315.69 473.17,315.71 475.38,315.73 477.59,315.75 479.79,315.78 482.00,315.80 484.21,315.82 486.41,315.85 488.62,315.87 490.83,315.90 493.03,315.93 495.24,315.96 497.45,315.98 499.65,316.01 501.86,316.04 504.07,316.07 506.27,316.11 508.48,316.14 510.68,316.17 512.89,316.21 515.10,316.24 517.30,316.28 519.51,316.31 521.72,316.35 523.92,316.39 526.13,316.43 528.34,316.47 530.54,316.51 532.75,316.55 534.96,316.60 537.16,316.64 539.37,316.69 541.58,316.74 543.78,316.78 545.99,316.83 548.20,316.88 550.40,316.94 552.61,316.99 554.82,317.04 557.02,317.10 559.23,317.16 561.43,317.21 563.64,317.27 565.85,317.33 568.05,317.39 570.26,317.46 572.47,317.52 574.67,317.59 576.88,317.65 579.09,317.72 581.29,317.79 583.50,317.86 585.71,317.93 587.91,318.00 590.12,318.07 592.33,318.15 594.53,318.22 596.74,318.30 598.95,318.38 601.15,318.46 603.36,318.54 605.57,318.62 607.77,318.70 609.98,318.78 612.18,318.86 614.39,318.95 616.60,319.03 618.80,319.11 621.01,319.20 623.22,319.29 625.42,319.37 627.63,319.46 629.84,319.54 632.04,319.63 634.25,319.72 636.46,319.80 638.66,319.89 640.87,319.97 643.08,320.06 645.28,320.14 647.49,320.23 649.70,320.31 651.90,320.40 654.11,320.48 656.32,320.56 658.52,320.64 660.73,320.73 662.93,320.81 665.14,320.88 667.35,320.96 669.55,321.04 671.76,321.12 673.97,321.19 676.17,321.26 678.38,321.34 680.59,321.41 682.79,321.48 685.00,321.55 687.21,321.61 689.41,321.68 691.62,321.74 693.83,321.80 696.03,321.87 698.24,321.92 700.45,321.98 702.65,322.04 704.86,322.09 707.07,322.15 709.27,322.20 711.48,322.25 713.68,322.30 715.89,322.34 718.10,322.39 720.30,322.43 722.51,322.47 724.72,322.51 726.92,322.55 729.13,322.59 731.34,322.62 733.54,322.66 735.75,322.69 737.96,322.72 740.16,322.75 742.37,322.77 744.58,322.80 746.78,322.82 748.99,322.84 751.20,322.86 753.40,322.88 755.61,322.89 757.82,322.91 760.02,322.92 762.23,322.93 764.43,322.94 766.64,322.95 768.85,322.95 771.05,322.96 773.26,322.96 775.47,322.96 777.67,322.96 779.88,322.96 782.09,322.95 784.29,322.95 786.50,322.94 788.71,322.93 790.91,322.92 793.12,322.90 795.33,322.89 797.53,322.87 799.74,322.85 801.95,322.84 804.15,322.81 806.36,322.79 808.57,322.77 810.77,322.74 812.98,322.71 815.18,322.68 817.39,322.65 819.60,322.62 821.80,322.59 824.01,322.55 826.22,322.51 828.42,322.47 830.63,322.43 832.84,322.39 835.04,322.35 837.25,322.30 839.46,322.26 841.66,322.21 843.87,322.16 846.08,322.11 848.28,322.05 850.49,322.00 852.70,321.94 854.90,321.89 857.11,321.83 859.32,321.77 861.52,321.70 863.73,321.64 865.93,321.58 868.14,321.51 870.35,321.44 872.55,321.37 874.76,321.30 876.97,321.23 879.17,321.16 881.38,321.09 883.59,321.01 885.79,320.93 888.00,320.86" fill="none" stroke="#b54708" stroke-width="3" stroke-linejoin="round"/>
<line x1="660" y1="114" x2="696" y2="114" stroke="#b54708" stroke-width="3"/>
<text x="706" y="119" font-family="Arial, Helvetica, sans-serif" font-size="13" font-weight="400" text-anchor="start" fill="#111">phase, deg</text>
<text x="460" y="502" font-family="Arial, Helvetica, sans-serif" font-size="14" font-weight="400" text-anchor="middle" fill="#111">Frequency, Hz</text>
<text x="22" y="260" font-family="Arial, Helvetica, sans-serif" font-size="14" text-anchor="middle" fill="#111" transform="rotate(-90 22 260)">Gain dB / phase deg</text>
</svg>
