<svg xmlns="http://www.w3.org/2000/svg" width="920" height="520" viewBox="0 0 920 520">
<defs>
<style>
.wire{stroke:#111;stroke-width:2.6;fill:none;stroke-linecap:round;stroke-linejoin:round}
.thin{stroke:#a7b0bd;stroke-width:1.2;fill:none;stroke-linecap:round;stroke-linejoin:round}
.axis{stroke:#111;stroke-width:1.4;fill:none}
.blue{stroke:#1665d8;stroke-width:3;fill:none;stroke-linecap:round;stroke-linejoin:round}
.green{stroke:#13795b;stroke-width:3;fill:none;stroke-linecap:round;stroke-linejoin:round}
.orange{stroke:#b54708;stroke-width:3;fill:none;stroke-linecap:round;stroke-linejoin:round}
.node{fill:#111;stroke:none}
</style>
</defs>
<rect width="100%" height="100%" fill="#fff"/>
<text x="76" y="36" font-family="Arial, Helvetica, sans-serif" font-size="22" font-weight="700" text-anchor="start" fill="#111">Sine-wave response, 1 kHz, Vin = 2.0 mVpp</text>
<rect x="76" y="60" width="812" height="396" fill="#fff" stroke="#111" stroke-width="1.4"/>
<line x1="76" y1="60" x2="76" y2="456" class="thin"/>
<text x="76" y="479" font-family="Arial, Helvetica, sans-serif" font-size="12" font-weight="400" text-anchor="middle" fill="#111">0</text>
<line x1="279" y1="60" x2="279" y2="456" class="thin"/>
<text x="279" y="479" font-family="Arial, Helvetica, sans-serif" font-size="12" font-weight="400" text-anchor="middle" fill="#111">1</text>
<line x1="482" y1="60" x2="482" y2="456" class="thin"/>
<text x="482" y="479" font-family="Arial, Helvetica, sans-serif" font-size="12" font-weight="400" text-anchor="middle" fill="#111">2</text>
<line x1="685" y1="60" x2="685" y2="456" class="thin"/>
<text x="685" y="479" font-family="Arial, Helvetica, sans-serif" font-size="12" font-weight="400" text-anchor="middle" fill="#111">3</text>
<line x1="888" y1="60" x2="888" y2="456" class="thin"/>
<text x="888" y="479" font-family="Arial, Helvetica, sans-serif" font-size="12" font-weight="400" text-anchor="middle" fill="#111">4</text>
<line x1="76" y1="456" x2="888" y2="456" class="thin"/>
<text x="66" y="460" font-family="Arial, Helvetica, sans-serif" font-size="12" font-weight="400" text-anchor="end" fill="#111">-5</text>
<line x1="76" y1="357" x2="888" y2="357" class="thin"/>
<text x="66" y="361" font-family="Arial, Helvetica, sans-serif" font-size="12" font-weight="400" text-anchor="end" fill="#111">-2.5</text>
<line x1="76" y1="258" x2="888" y2="258" class="thin"/>
<text x="66" y="262" font-family="Arial, Helvetica, sans-serif" font-size="12" font-weight="400" text-anchor="end" fill="#111">0</text>
<line x1="76" y1="159" x2="888" y2="159" class="thin"/>
<text x="66" y="163" font-family="Arial, Helvetica, sans-serif" font-size="12" font-weight="400" text-anchor="end" fill="#111">2.5</text>
<line x1="76" y1="60" x2="888" y2="60" class="thin"/>
<text x="66" y="64" font-family="Arial, Helvetica, sans-serif" font-size="12" font-weight="400" text-anchor="end" fill="#111">5</text>
<polyline points="76.00,243.08 77.01,246.83 78.03,250.60 79.05,254.38 80.06,258.15 81.07,261.93 82.09,265.71 83.11,269.47 84.12,273.23 85.14,276.97 86.15,280.69 87.16,284.39 88.18,288.06 89.20,291.71 90.21,295.32 91.22,298.89 92.24,302.42 93.26,305.91 94.27,309.36 95.28,312.75 96.30,316.09 97.32,319.37 98.33,322.59 99.35,325.74 100.36,328.83 101.38,331.85 102.39,334.80 103.41,337.67 104.42,340.46 105.43,343.17 106.45,345.80 107.47,348.34 108.48,350.79 109.49,353.15 110.51,355.42 111.53,357.59 112.54,359.66 113.55,361.63 114.57,363.50 115.59,365.26 116.60,366.92 117.62,368.47 118.63,369.92 119.64,371.25 120.66,372.47 121.68,373.58 122.69,374.57 123.70,375.45 124.72,376.21 125.74,376.86 126.75,377.38 127.76,377.79 128.78,378.09 129.80,378.26 130.81,378.32 131.82,378.25 132.84,378.07 133.86,377.77 134.87,377.35 135.89,376.81 136.90,376.16 137.91,375.39 138.93,374.50 139.95,373.50 140.96,372.38 141.97,371.15 142.99,369.81 144.01,368.36 145.02,366.80 146.03,365.14 147.05,363.36 148.07,361.48 149.08,359.51 150.09,357.43 151.11,355.25 152.13,352.98 153.14,350.61 154.16,348.15 155.17,345.60 156.18,342.97 157.20,340.25 158.22,337.45 159.23,334.57 160.24,331.62 161.26,328.59 162.28,325.50 163.29,322.33 164.30,319.11 165.32,315.82 166.34,312.48 167.35,309.08 168.36,305.63 169.38,302.14 170.40,298.60 171.41,295.02 172.43,291.41 173.44,287.76 174.45,284.08 175.47,280.38 176.49,276.66 177.50,272.91 178.51,269.15 179.53,265.38 180.55,261.61 181.56,257.83 182.57,254.05 183.59,250.27 184.61,246.51 185.62,242.75 186.64,239.01 187.65,235.29 188.66,231.58 189.68,227.91 190.70,224.27 191.71,220.66 192.72,217.08 193.74,213.55 194.76,210.06 195.77,206.61 196.78,203.22 197.80,199.89 198.82,196.60 199.83,193.39 200.84,190.23 201.86,187.14 202.88,184.12 203.89,181.18 204.91,178.31 205.92,175.51 206.93,172.80 207.95,170.18 208.97,167.64 209.98,165.19 210.99,162.83 212.01,160.57 213.03,158.40 214.04,156.33 215.05,154.36 216.07,152.49 217.09,150.73 218.10,149.07 219.11,147.52 220.13,146.08 221.15,144.75 222.16,143.53 223.18,142.43 224.19,141.44 225.20,140.56 226.22,139.80 227.24,139.16 228.25,138.63 229.26,138.22 230.28,137.93 231.30,137.76 232.31,137.70 233.32,137.77 234.34,137.95 235.36,138.26 236.37,138.68 237.38,139.21 238.40,139.87 239.42,140.64 240.43,141.53 241.45,142.53 242.46,143.65 243.47,144.88 244.49,146.22 245.51,147.67 246.52,149.23 247.53,150.90 248.55,152.67 249.57,154.55 250.58,156.53 251.59,158.60 252.61,160.78 253.63,163.05 254.64,165.42 255.66,167.88 256.67,170.43 257.69,173.06 258.70,175.78 259.72,178.57 260.73,181.45 261.74,184.40 262.76,187.43 263.78,190.52 264.79,193.68 265.80,196.91 266.82,200.19 267.84,203.53 268.85,206.93 269.86,210.37 270.88,213.87 271.90,217.40 272.91,220.98 273.93,224.59 274.94,228.24 275.95,231.91 276.97,235.61 277.99,239.34 279.00,243.08 280.01,246.83 281.03,250.60 282.05,254.38 283.06,258.15 284.07,261.93 285.09,265.71 286.11,269.47 287.12,273.23 288.13,276.97 289.15,280.69 290.17,284.39 291.18,288.06 292.20,291.71 293.21,295.32 294.22,298.89 295.24,302.42 296.26,305.91 297.27,309.36 298.28,312.75 299.30,316.09 300.32,319.37 301.33,322.59 302.34,325.74 303.36,328.83 304.38,331.85 305.39,334.80 306.40,337.67 307.42,340.46 308.44,343.17 309.45,345.80 310.47,348.34 311.48,350.79 312.49,353.15 313.51,355.42 314.53,357.59 315.54,359.66 316.55,361.63 317.57,363.50 318.59,365.26 319.60,366.92 320.61,368.47 321.63,369.92 322.65,371.25 323.66,372.47 324.68,373.58 325.69,374.57 326.70,375.45 327.72,376.21 328.74,376.86 329.75,377.38 330.76,377.79 331.78,378.09 332.80,378.26 333.81,378.32 334.82,378.25 335.84,378.07 336.86,377.77 337.87,377.35 338.88,376.81 339.90,376.16 340.92,375.39 341.93,374.50 342.95,373.50 343.96,372.38 344.97,371.15 345.99,369.81 347.01,368.36 348.02,366.80 349.03,365.14 350.05,363.36 351.07,361.49 352.08,359.51 353.09,357.43 354.11,355.25 355.13,352.98 356.14,350.61 357.15,348.15 358.17,345.60 359.19,342.97 360.20,340.25 361.22,337.45 362.23,334.57 363.24,331.62 364.26,328.59 365.28,325.50 366.29,322.33 367.30,319.11 368.32,315.82 369.34,312.48 370.35,309.08 371.36,305.63 372.38,302.14 373.40,298.60 374.41,295.02 375.42,291.41 376.44,287.76 377.46,284.08 378.47,280.38 379.49,276.66 380.50,272.91 381.51,269.15 382.53,265.39 383.55,261.61 384.56,257.83 385.57,254.05 386.59,250.27 387.61,246.51 388.62,242.75 389.63,239.01 390.65,235.29 391.67,231.59 392.68,227.91 393.70,224.27 394.71,220.66 395.72,217.08 396.74,213.55 397.76,210.06 398.77,206.62 399.78,203.22 400.80,199.89 401.82,196.61 402.83,193.39 403.84,190.23 404.86,187.14 405.88,184.12 406.89,181.18 407.90,178.31 408.92,175.51 409.94,172.80 410.95,170.18 411.97,167.64 412.98,165.19 413.99,162.83 415.01,160.57 416.03,158.40 417.04,156.33 418.05,154.36 419.07,152.49 420.09,150.73 421.10,149.07 422.11,147.52 423.13,146.08 424.15,144.75 425.16,143.53 426.17,142.43 427.19,141.44 428.21,140.56 429.22,139.80 430.24,139.16 431.25,138.63 432.26,138.22 433.28,137.93 434.30,137.76 435.31,137.70 436.32,137.77 437.34,137.95 438.36,138.26 439.37,138.68 440.38,139.21 441.40,139.87 442.42,140.64 443.43,141.53 444.44,142.53 445.46,143.65 446.48,144.88 447.49,146.22 448.51,147.67 449.52,149.23 450.53,150.90 451.55,152.67 452.57,154.55 453.58,156.53 454.59,158.60 455.61,160.78 456.63,163.05 457.64,165.42 458.65,167.88 459.67,170.43 460.69,173.06 461.70,175.78 462.72,178.57 463.73,181.45 464.75,184.40 465.76,187.43 466.78,190.52 467.79,193.68 468.80,196.91 469.82,200.19 470.84,203.53 471.85,206.93 472.86,210.37 473.88,213.87 474.90,217.40 475.91,220.98 476.92,224.59 477.94,228.24 478.96,231.91 479.97,235.61 480.99,239.34 482.00,243.08 483.01,246.83 484.03,250.60 485.05,254.38 486.06,258.15 487.07,261.93 488.09,265.71 489.11,269.47 490.12,273.23 491.13,276.97 492.15,280.69 493.17,284.39 494.18,288.06 495.19,291.71 496.21,295.32 497.23,298.89 498.24,302.43 499.26,305.91 500.27,309.36 501.28,312.75 502.30,316.09 503.32,319.37 504.33,322.59 505.34,325.74 506.36,328.83 507.38,331.85 508.39,334.80 509.40,337.67 510.42,340.46 511.44,343.17 512.45,345.80 513.46,348.34 514.48,350.79 515.50,353.15 516.51,355.42 517.53,357.59 518.54,359.66 519.55,361.63 520.57,363.50 521.59,365.26 522.60,366.92 523.61,368.47 524.63,369.92 525.65,371.25 526.66,372.47 527.67,373.58 528.69,374.57 529.71,375.45 530.72,376.21 531.74,376.86 532.75,377.38 533.76,377.79 534.78,378.09 535.80,378.26 536.81,378.32 537.82,378.25 538.84,378.07 539.86,377.77 540.87,377.35 541.88,376.81 542.90,376.16 543.92,375.39 544.93,374.50 545.94,373.50 546.96,372.38 547.98,371.15 548.99,369.81 550.01,368.36 551.02,366.80 552.03,365.14 553.05,363.36 554.07,361.49 555.08,359.51 556.09,357.43 557.11,355.25 558.13,352.98 559.14,350.61 560.15,348.15 561.17,345.60 562.19,342.97 563.20,340.25 564.21,337.45 565.23,334.57 566.25,331.62 567.26,328.59 568.28,325.50 569.29,322.33 570.30,319.11 571.32,315.82 572.34,312.48 573.35,309.08 574.36,305.63 575.38,302.14 576.40,298.60 577.41,295.02 578.42,291.41 579.44,287.76 580.46,284.08 581.47,280.38 582.48,276.66 583.50,272.91 584.52,269.15 585.53,265.39 586.55,261.61 587.56,257.83 588.57,254.05 589.59,250.27 590.61,246.51 591.62,242.75 592.63,239.01 593.65,235.29 594.67,231.59 595.68,227.91 596.69,224.27 597.71,220.66 598.73,217.08 599.74,213.55 600.76,210.06 601.77,206.62 602.79,203.22 603.80,199.89 604.82,196.61 605.83,193.39 606.84,190.23 607.86,187.14 608.88,184.12 609.89,181.18 610.90,178.31 611.92,175.52 612.94,172.80 613.95,170.18 614.96,167.64 615.98,165.19 617.00,162.83 618.01,160.57 619.03,158.40 620.04,156.33 621.06,154.36 622.07,152.49 623.09,150.73 624.10,149.07 625.11,147.52 626.13,146.08 627.15,144.75 628.16,143.53 629.17,142.43 630.19,141.44 631.21,140.56 632.22,139.80 633.23,139.16 634.25,138.63 635.27,138.22 636.28,137.93 637.30,137.76 638.31,137.70 639.32,137.77 640.34,137.95 641.36,138.26 642.37,138.68 643.38,139.21 644.40,139.87 645.42,140.64 646.43,141.53 647.44,142.53 648.46,143.65 649.48,144.88 650.49,146.22 651.50,147.67 652.52,149.23 653.54,150.90 654.55,152.67 655.57,154.55 656.58,156.53 657.59,158.60 658.61,160.78 659.63,163.06 660.64,165.42 661.65,167.88 662.67,170.43 663.69,173.06 664.70,175.78 665.71,178.57 666.73,181.45 667.75,184.40 668.76,187.43 669.78,190.52 670.79,193.68 671.81,196.91 672.82,200.19 673.84,203.53 674.85,206.93 675.86,210.37 676.88,213.87 677.90,217.40 678.91,220.98 679.92,224.59 680.94,228.24 681.96,231.91 682.97,235.61 683.98,239.34 685.00,243.08 686.02,246.84 687.03,250.60 688.05,254.38 689.06,258.16 690.07,261.93 691.09,265.71 692.11,269.47 693.12,273.23 694.13,276.97 695.15,280.69 696.17,284.39 697.18,288.06 698.19,291.71 699.21,295.32 700.23,298.89 701.24,302.43 702.25,305.92 703.27,309.36 704.29,312.75 705.30,316.09 706.32,319.37 707.33,322.59 708.34,325.74 709.36,328.83 710.38,331.85 711.39,334.80 712.40,337.67 713.42,340.46 714.44,343.17 715.45,345.80 716.46,348.34 717.48,350.79 718.50,353.15 719.51,355.42 720.52,357.59 721.54,359.66 722.56,361.63 723.57,363.50 724.59,365.26 725.60,366.92 726.61,368.47 727.63,369.92 728.65,371.25 729.66,372.47 730.67,373.58 731.69,374.57 732.71,375.45 733.72,376.21 734.73,376.86 735.75,377.38 736.77,377.80 737.78,378.09 738.80,378.26 739.81,378.32 740.83,378.25 741.84,378.07 742.86,377.77 743.87,377.35 744.88,376.81 745.90,376.16 746.92,375.39 747.93,374.50 748.94,373.50 749.96,372.38 750.98,371.15 751.99,369.81 753.00,368.36 754.02,366.80 755.04,365.14 756.05,363.36 757.07,361.49 758.08,359.51 759.09,357.43 760.11,355.25 761.13,352.98 762.14,350.61 763.15,348.15 764.17,345.60 765.19,342.97 766.20,340.25 767.21,337.45 768.23,334.57 769.25,331.62 770.26,328.59 771.27,325.50 772.29,322.33 773.31,319.11 774.32,315.82 775.34,312.48 776.35,309.08 777.36,305.63 778.38,302.14 779.40,298.60 780.41,295.02 781.42,291.41 782.44,287.76 783.46,284.08 784.47,280.38 785.48,276.66 786.50,272.91 787.52,269.15 788.53,265.39 789.54,261.61 790.56,257.83 791.58,254.05 792.59,250.27 793.61,246.51 794.62,242.75 795.63,239.01 796.65,235.29 797.67,231.59 798.68,227.91 799.69,224.27 800.71,220.66 801.73,217.08 802.74,213.55 803.75,210.06 804.77,206.62 805.79,203.22 806.80,199.89 807.81,196.61 808.83,193.39 809.85,190.23 810.86,187.14 811.88,184.12 812.89,181.18 813.90,178.31 814.92,175.52 815.94,172.81 816.95,170.18 817.96,167.64 818.98,165.19 820.00,162.83 821.01,160.57 822.02,158.40 823.04,156.33 824.06,154.36 825.07,152.49 826.09,150.73 827.10,149.07 828.12,147.52 829.13,146.08 830.15,144.75 831.16,143.53 832.17,142.43 833.19,141.44 834.21,140.56 835.22,139.80 836.23,139.16 837.25,138.63 838.27,138.22 839.28,137.93 840.29,137.76 841.31,137.70 842.33,137.77 843.34,137.95 844.36,138.26 845.37,138.68 846.38,139.21 847.40,139.87 848.42,140.64 849.43,141.53 850.44,142.53 851.46,143.65 852.48,144.88 853.49,146.22 854.50,147.67 855.52,149.23 856.54,150.90 857.55,152.67 858.56,154.55 859.58,156.53 860.60,158.61 861.61,160.78 862.63,163.06 863.64,165.42 864.65,167.88 865.67,170.43 866.69,173.06 867.70,175.78 868.71,178.58 869.73,181.45 870.75,184.40 871.76,187.43 872.77,190.52 873.79,193.68 874.81,196.91 875.82,200.19 876.83,203.53 877.85,206.93 878.87,210.37 879.88,213.87 880.90,217.40 881.91,220.98 882.92,224.59 883.94,228.24 884.96,231.91 885.97,235.61 886.98,239.34" fill="none" stroke="#13795b" stroke-width="3" stroke-linejoin="round"/>
<line x1="660" y1="88" x2="696" y2="88" stroke="#13795b" stroke-width="3"/>
<text x="706" y="93" font-family="Arial, Helvetica, sans-serif" font-size="13" font-weight="400" text-anchor="start" fill="#111">amp out AC</text>
<polyline points="76.00,243.54 77.01,247.29 78.03,251.06 79.05,254.84 80.06,258.62 81.07,262.39 82.09,266.17 83.11,269.93 84.12,273.69 85.14,277.42 86.15,281.14 87.16,284.84 88.18,288.51 89.20,292.15 90.21,295.75 91.22,299.32 92.24,302.85 93.26,306.33 94.27,309.77 95.28,313.15 96.30,316.48 97.32,319.76 98.33,322.97 99.35,326.11 100.36,329.20 101.38,332.20 102.39,335.14 103.41,338.00 104.42,340.78 105.43,343.48 106.45,346.10 107.47,348.63 108.48,351.07 109.49,353.41 110.51,355.67 111.53,357.82 112.54,359.88 113.55,361.84 114.57,363.69 115.59,365.45 116.60,367.09 117.62,368.63 118.63,370.05 119.64,371.37 120.66,372.58 121.68,373.67 122.69,374.65 123.70,375.51 124.72,376.26 125.74,376.89 126.75,377.40 127.76,377.79 128.78,378.07 129.80,378.23 130.81,378.27 131.82,378.19 132.84,377.99 133.86,377.67 134.87,377.24 135.89,376.68 136.90,376.01 137.91,375.23 138.93,374.32 139.95,373.31 140.96,372.18 141.97,370.93 142.99,369.58 144.01,368.11 145.02,366.54 146.03,364.86 147.05,363.07 148.07,361.18 149.08,359.18 150.09,357.09 151.11,354.90 152.13,352.61 153.14,350.23 154.16,347.76 155.17,345.20 156.18,342.56 157.20,339.83 158.22,337.02 159.23,334.13 160.24,331.17 161.26,328.13 162.28,325.03 163.29,321.86 164.30,318.62 165.32,315.33 166.34,311.98 167.35,308.57 168.36,305.12 169.38,301.62 170.40,298.08 171.41,294.49 172.43,290.87 173.44,287.22 174.45,283.54 175.47,279.83 176.49,276.11 177.50,272.36 178.51,268.60 179.53,264.83 180.55,261.05 181.56,257.27 182.57,253.50 183.59,249.72 184.61,245.95 185.62,242.20 186.64,238.46 187.65,234.74 188.66,231.04 189.68,227.37 190.70,223.73 191.71,220.13 192.72,216.56 193.74,213.03 194.76,209.55 195.77,206.11 196.78,202.73 197.80,199.40 198.82,196.12 199.83,192.91 200.84,189.77 201.86,186.69 202.88,183.68 203.89,180.74 204.91,177.88 205.92,175.10 206.93,172.40 207.95,169.79 208.97,167.26 209.98,164.82 210.99,162.48 212.01,160.23 213.03,158.07 214.04,156.01 215.05,154.06 216.07,152.21 217.09,150.46 218.10,148.81 219.11,147.28 220.13,145.85 221.15,144.54 222.16,143.33 223.18,142.24 224.19,141.27 225.20,140.41 226.22,139.66 227.24,139.03 228.25,138.52 229.26,138.13 230.28,137.86 231.30,137.70 232.31,137.66 233.32,137.74 234.34,137.94 235.36,138.26 236.37,138.70 237.38,139.25 238.40,139.92 239.42,140.71 240.43,141.61 241.45,142.63 242.46,143.76 243.47,145.01 244.49,146.36 245.51,147.83 246.52,149.41 247.53,151.09 248.55,152.87 249.57,154.76 250.58,156.76 251.59,158.85 252.61,161.04 253.63,163.33 254.64,165.70 255.66,168.17 256.67,170.73 257.69,173.38 258.70,176.11 259.72,178.92 260.73,181.80 261.74,184.76 262.76,187.80 263.78,190.90 264.79,194.07 265.80,197.30 266.82,200.60 267.84,203.94 268.85,207.35 269.86,210.80 270.88,214.30 271.90,217.84 272.91,221.42 273.93,225.04 274.94,228.69 275.95,232.37 276.97,236.07 277.99,239.80 279.00,243.54 280.01,247.30 281.03,251.07 282.05,254.84 283.06,258.62 284.07,262.40 285.09,266.17 286.11,269.94 287.12,273.69 288.13,277.43 289.15,281.15 290.17,284.84 291.18,288.51 292.20,292.15 293.21,295.76 294.22,299.33 295.24,302.86 296.26,306.34 297.27,309.77 298.28,313.16 299.30,316.49 300.32,319.76 301.33,322.97 302.34,326.12 303.36,329.20 304.38,332.21 305.39,335.15 306.40,338.01 307.42,340.79 308.44,343.49 309.45,346.10 310.47,348.63 311.48,351.07 312.49,353.42 313.51,355.67 314.53,357.83 315.54,359.89 316.55,361.85 317.57,363.70 318.59,365.45 319.60,367.10 320.61,368.63 321.63,370.06 322.65,371.38 323.66,372.58 324.68,373.67 325.69,374.65 326.70,375.51 327.72,376.26 328.74,376.89 329.75,377.40 330.76,377.80 331.78,378.08 332.80,378.23 333.81,378.27 334.82,378.19 335.84,377.99 336.86,377.68 337.87,377.24 338.88,376.69 339.90,376.02 340.92,375.23 341.93,374.33 342.95,373.31 343.96,372.18 344.97,370.94 345.99,369.58 347.01,368.12 348.02,366.54 349.03,364.86 350.05,363.07 351.07,361.18 352.08,359.19 353.09,357.10 354.11,354.91 355.13,352.62 356.14,350.24 357.15,347.77 358.17,345.21 359.19,342.56 360.20,339.84 361.22,337.03 362.23,334.14 363.24,331.17 364.26,328.14 365.28,325.03 366.29,321.86 367.30,318.63 368.32,315.33 369.34,311.98 370.35,308.58 371.36,305.13 372.38,301.62 373.40,298.08 374.41,294.50 375.42,290.88 376.44,287.23 377.46,283.55 378.47,279.84 379.49,276.11 380.50,272.37 381.51,268.61 382.53,264.84 383.55,261.06 384.56,257.28 385.57,253.50 386.59,249.73 387.61,245.96 388.62,242.21 389.63,238.47 390.65,234.75 391.67,231.05 392.68,227.38 393.70,223.74 394.71,220.13 395.72,216.56 396.74,213.04 397.76,209.55 398.77,206.12 399.78,202.73 400.80,199.40 401.82,196.13 402.83,192.92 403.84,189.77 404.86,186.69 405.88,183.68 406.89,180.75 407.90,177.89 408.92,175.11 409.94,172.41 410.95,169.79 411.97,167.27 412.98,164.83 413.99,162.48 415.01,160.23 416.03,158.08 417.04,156.02 418.05,154.06 419.07,152.21 420.09,150.46 421.10,148.82 422.11,147.28 423.13,145.86 424.15,144.54 425.16,143.34 426.17,142.25 427.19,141.27 428.21,140.41 429.22,139.67 430.24,139.04 431.25,138.53 432.26,138.14 433.28,137.86 434.30,137.71 435.31,137.67 436.32,137.75 437.34,137.95 438.36,138.27 439.37,138.70 440.38,139.26 441.40,139.93 442.42,140.72 443.43,141.62 444.44,142.64 445.46,143.77 446.48,145.01 447.49,146.37 448.51,147.84 449.52,149.41 450.53,151.09 451.55,152.88 452.57,154.77 453.58,156.76 454.59,158.86 455.61,161.05 456.63,163.33 457.64,165.71 458.65,168.18 459.67,170.74 460.69,173.38 461.70,176.11 462.72,178.92 463.73,181.81 464.75,184.77 465.76,187.80 466.78,190.91 467.79,194.08 468.80,197.31 469.82,200.60 470.84,203.95 471.85,207.35 472.86,210.81 473.88,214.30 474.90,217.85 475.91,221.43 476.92,225.04 477.94,228.69 478.96,232.37 479.97,236.08 480.99,239.80 482.00,243.55 483.01,247.31 484.03,251.07 485.05,254.85 486.06,258.63 487.07,262.41 488.09,266.18 489.11,269.94 490.12,273.70 491.13,277.44 492.15,281.15 493.17,284.85 494.18,288.52 495.19,292.16 496.21,295.77 497.23,299.33 498.24,302.86 499.26,306.34 500.27,309.78 501.28,313.16 502.30,316.50 503.32,319.77 504.33,322.98 505.34,326.13 506.36,329.21 507.38,332.22 508.39,335.15 509.40,338.01 510.42,340.80 511.44,343.50 512.45,346.11 513.46,348.64 514.48,351.08 515.50,353.43 516.51,355.68 517.53,357.84 518.54,359.89 519.55,361.85 520.57,363.71 521.59,365.46 522.60,367.10 523.61,368.64 524.63,370.07 525.65,371.38 526.66,372.59 527.67,373.68 528.69,374.66 529.71,375.52 530.72,376.27 531.74,376.90 532.75,377.41 533.76,377.80 534.78,378.08 535.80,378.24 536.81,378.28 537.82,378.20 538.84,378.00 539.86,377.68 540.87,377.25 541.88,376.69 542.90,376.02 543.92,375.24 544.93,374.34 545.94,373.32 546.96,372.19 547.98,370.94 548.99,369.59 550.01,368.12 551.02,366.55 552.03,364.87 553.05,363.08 554.07,361.19 555.08,359.20 556.09,357.10 557.11,354.91 558.13,352.63 559.14,350.25 560.15,347.78 561.17,345.22 562.19,342.57 563.20,339.84 564.21,337.03 565.23,334.14 566.25,331.18 567.26,328.14 568.28,325.04 569.29,321.87 570.30,318.63 571.32,315.34 572.34,311.99 573.35,308.58 574.36,305.13 575.38,301.63 576.40,298.09 577.41,294.50 578.42,290.88 579.44,287.23 580.46,283.55 581.47,279.85 582.48,276.12 583.50,272.37 584.52,268.61 585.53,264.84 586.55,261.07 587.56,257.29 588.57,253.51 589.59,249.73 590.61,245.97 591.62,242.21 592.63,238.47 593.65,234.75 594.67,231.06 595.68,227.38 596.69,223.74 597.71,220.14 598.73,216.57 599.74,213.04 600.76,209.56 601.77,206.12 602.79,202.74 603.80,199.41 604.82,196.14 605.83,192.92 606.84,189.78 607.86,186.70 608.88,183.69 609.89,180.75 610.90,177.89 611.92,175.11 612.94,172.41 613.95,169.80 614.96,167.27 615.98,164.83 617.00,162.49 618.01,160.24 619.03,158.08 620.04,156.03 621.06,154.07 622.07,152.22 623.09,150.47 624.10,148.83 625.11,147.29 626.13,145.86 627.15,144.55 628.16,143.35 629.17,142.26 630.19,141.28 631.21,140.42 632.22,139.67 633.23,139.05 634.25,138.54 635.27,138.14 636.28,137.87 637.30,137.71 638.31,137.67 639.32,137.76 640.34,137.96 641.36,138.27 642.37,138.71 643.38,139.26 644.40,139.94 645.42,140.72 646.43,141.63 647.44,142.64 648.46,143.78 649.48,145.02 650.49,146.38 651.50,147.84 652.52,149.42 653.54,151.10 654.55,152.89 655.57,154.78 656.58,156.77 657.59,158.86 658.61,161.05 659.63,163.34 660.64,165.72 661.65,168.19 662.67,170.74 663.69,173.39 664.70,176.12 665.71,178.93 666.73,181.81 667.75,184.78 668.76,187.81 669.78,190.91 670.79,194.08 671.81,197.31 672.82,200.61 673.84,203.96 674.85,207.36 675.86,210.81 676.88,214.31 677.90,217.85 678.91,221.43 679.92,225.05 680.94,228.70 681.96,232.38 682.97,236.08 683.98,239.81 685.00,243.55 686.02,247.31 687.03,251.08 688.05,254.85 689.06,258.63 690.07,262.41 691.09,266.18 692.11,269.95 693.12,273.70 694.13,277.44 695.15,281.16 696.17,284.86 697.18,288.53 698.19,292.16 699.21,295.77 700.23,299.34 701.24,302.87 702.25,306.35 703.27,309.79 704.29,313.17 705.30,316.50 706.32,319.77 707.33,322.98 708.34,326.13 709.36,329.21 710.38,332.22 711.39,335.16 712.40,338.02 713.42,340.80 714.44,343.50 715.45,346.12 716.46,348.64 717.48,351.08 718.50,353.43 719.51,355.68 720.52,357.84 721.54,359.90 722.56,361.86 723.57,363.71 724.59,365.46 725.60,367.11 726.61,368.64 727.63,370.07 728.65,371.39 729.66,372.59 730.67,373.69 731.69,374.66 732.71,375.53 733.72,376.27 734.73,376.90 735.75,377.42 736.77,377.81 737.78,378.09 738.80,378.24 739.81,378.28 740.83,378.20 741.84,378.01 742.86,377.69 743.87,377.25 744.88,376.70 745.90,376.03 746.92,375.24 747.93,374.34 748.94,373.32 749.96,372.19 750.98,370.95 751.99,369.59 753.00,368.13 754.02,366.55 755.04,364.87 756.05,363.09 757.07,361.19 758.08,359.20 759.09,357.11 760.11,354.92 761.13,352.63 762.14,350.25 763.15,347.78 764.17,345.22 765.19,342.58 766.20,339.85 767.21,337.04 768.23,334.15 769.25,331.19 770.26,328.15 771.27,325.04 772.29,321.87 773.31,318.64 774.32,315.35 775.34,311.99 776.35,308.59 777.36,305.14 778.38,301.64 779.40,298.09 780.41,294.51 781.42,290.89 782.44,287.24 783.46,283.56 784.47,279.85 785.48,276.12 786.50,272.38 787.52,268.62 788.53,264.85 789.54,261.07 790.56,257.29 791.58,253.51 792.59,249.74 793.61,245.97 794.62,242.22 795.63,238.48 796.65,234.76 797.67,231.06 798.68,227.39 799.69,223.75 800.71,220.14 801.73,216.57 802.74,213.05 803.75,209.56 804.77,206.13 805.79,202.74 806.80,199.41 807.81,196.14 808.83,192.93 809.85,189.78 810.86,186.70 811.88,183.69 812.89,180.76 813.90,177.90 814.92,175.12 815.94,172.42 816.95,169.80 817.96,167.28 818.98,164.84 820.00,162.49 821.01,160.24 822.02,158.09 823.04,156.03 824.06,154.08 825.07,152.22 826.09,150.47 827.10,148.83 828.12,147.30 829.13,145.87 830.15,144.55 831.16,143.35 832.17,142.26 833.19,141.29 834.21,140.42 835.22,139.68 836.23,139.05 837.25,138.54 838.27,138.15 839.28,137.87 840.29,137.72 841.31,137.68 842.33,137.76 843.34,137.96 844.36,138.28 845.37,138.72 846.38,139.27 847.40,139.94 848.42,140.73 849.43,141.63 850.44,142.65 851.46,143.78 852.48,145.03 853.49,146.38 854.50,147.85 855.52,149.42 856.54,151.10 857.55,152.89 858.56,154.78 859.58,156.77 860.60,158.87 861.61,161.06 862.63,163.34 863.64,165.72 864.65,168.19 865.67,170.75 866.69,173.39 867.70,176.12 868.71,178.93 869.73,181.82 870.75,184.78 871.76,187.81 872.77,190.92 873.79,194.09 874.81,197.32 875.82,200.61 876.83,203.96 877.85,207.36 878.87,210.82 879.88,214.32 880.90,217.86 881.91,221.44 882.92,225.06 883.94,228.71 884.96,232.38 885.97,236.09 886.98,239.81" fill="none" stroke="#1665d8" stroke-width="3" stroke-linejoin="round"/>
<line x1="660" y1="114" x2="696" y2="114" stroke="#1665d8" stroke-width="3"/>
<text x="706" y="119" font-family="Arial, Helvetica, sans-serif" font-size="13" font-weight="400" text-anchor="start" fill="#111">load output</text>
<polyline points="76.00,256.94 77.01,253.16 78.03,249.39 79.05,245.62 80.06,241.86 81.07,238.13 82.09,234.41 83.11,230.71 84.12,227.04 85.14,223.40 86.15,219.80 87.16,216.23 88.18,212.71 89.20,209.23 90.21,205.80 91.22,202.42 92.24,199.09 93.26,195.82 94.27,192.62 95.28,189.47 96.30,186.40 97.32,183.40 98.33,180.47 99.35,177.61 100.36,174.84 101.38,172.15 102.39,169.54 103.41,167.02 104.42,164.59 105.43,162.25 106.45,160.01 107.47,157.86 108.48,155.81 109.49,153.86 110.51,152.02 111.53,150.28 112.54,148.65 113.55,147.12 114.57,145.70 115.59,144.40 116.60,143.21 117.62,142.13 118.63,141.16 119.64,140.31 120.66,139.58 121.68,138.96 122.69,138.46 123.70,138.08 124.72,137.81 125.74,137.67 126.75,137.64 127.76,137.74 128.78,137.95 129.80,138.28 130.81,138.72 131.82,139.29 132.84,139.97 133.86,140.77 134.87,141.69 135.89,142.72 136.90,143.86 137.91,145.12 138.93,146.48 139.95,147.96 140.96,149.55 141.97,151.24 142.99,153.04 144.01,154.94 145.02,156.95 146.03,159.05 147.05,161.25 148.07,163.55 149.08,165.94 150.09,168.42 151.11,170.99 152.13,173.64 153.14,176.38 154.16,179.20 155.17,182.10 156.18,185.07 157.20,188.11 158.22,191.22 159.23,194.40 160.24,197.64 161.26,200.95 162.28,204.30 163.29,207.71 164.30,211.17 165.32,214.68 166.34,218.23 167.35,221.81 168.36,225.44 169.38,229.09 170.40,232.78 171.41,236.49 172.43,240.22 173.44,243.97 174.45,247.73 175.47,251.50 176.49,255.28 177.50,259.06 178.51,262.84 179.53,266.61 180.55,270.38 181.56,274.14 182.57,277.87 183.59,281.59 184.61,285.29 185.62,288.96 186.64,292.60 187.65,296.20 188.66,299.77 189.68,303.29 190.70,306.77 191.71,310.20 192.72,313.58 193.74,316.91 194.76,320.18 195.77,323.38 196.78,326.53 197.80,329.60 198.82,332.60 199.83,335.53 200.84,338.39 201.86,341.16 202.88,343.85 203.89,346.46 204.91,348.98 205.92,351.41 206.93,353.75 207.95,355.99 208.97,358.14 209.98,360.19 210.99,362.14 212.01,363.98 213.03,365.72 214.04,367.35 215.05,368.88 216.07,370.30 217.09,371.60 218.10,372.79 219.11,373.87 220.13,374.84 221.15,375.69 222.16,376.42 223.18,377.04 224.19,377.54 225.20,377.92 226.22,378.19 227.24,378.33 228.25,378.36 229.26,378.26 230.28,378.05 231.30,377.72 232.31,377.28 233.32,376.71 234.34,376.03 235.36,375.23 236.37,374.31 237.38,373.28 238.40,372.14 239.42,370.88 240.43,369.52 241.45,368.04 242.46,366.45 243.47,364.76 244.49,362.96 245.51,361.06 246.52,359.05 247.53,356.95 248.55,354.75 249.57,352.45 250.58,350.06 251.59,347.58 252.61,345.01 253.63,342.36 254.64,339.62 255.66,336.80 256.67,333.90 257.69,330.93 258.70,327.89 259.72,324.78 260.73,321.60 261.74,318.36 262.76,315.05 263.78,311.70 264.79,308.29 265.80,304.83 266.82,301.32 267.84,297.77 268.85,294.19 269.86,290.56 270.88,286.91 271.90,283.22 272.91,279.51 273.93,275.78 274.94,272.03 275.95,268.27 276.97,264.50 277.99,260.72 279.00,256.94 280.01,253.16 281.03,249.39 282.05,245.62 283.06,241.86 284.07,238.13 285.09,234.41 286.11,230.71 287.12,227.04 288.13,223.40 289.15,219.80 290.17,216.23 291.18,212.71 292.20,209.23 293.21,205.80 294.22,202.42 295.24,199.09 296.26,195.82 297.27,192.62 298.28,189.47 299.30,186.40 300.32,183.40 301.33,180.47 302.34,177.61 303.36,174.84 304.38,172.15 305.39,169.54 306.40,167.02 307.42,164.59 308.44,162.25 309.45,160.01 310.47,157.86 311.48,155.81 312.49,153.86 313.51,152.02 314.53,150.28 315.54,148.65 316.55,147.12 317.57,145.70 318.59,144.40 319.60,143.21 320.61,142.13 321.63,141.16 322.65,140.31 323.66,139.58 324.68,138.96 325.69,138.46 326.70,138.08 327.72,137.81 328.74,137.67 329.75,137.64 330.76,137.74 331.78,137.95 332.80,138.28 333.81,138.72 334.82,139.29 335.84,139.97 336.86,140.77 337.87,141.69 338.88,142.72 339.90,143.86 340.92,145.12 341.93,146.48 342.95,147.96 343.96,149.55 344.97,151.24 345.99,153.04 347.01,154.94 348.02,156.95 349.03,159.05 350.05,161.25 351.07,163.55 352.08,165.94 353.09,168.42 354.11,170.99 355.13,173.64 356.14,176.38 357.15,179.20 358.17,182.10 359.19,185.07 360.20,188.11 361.22,191.22 362.23,194.40 363.24,197.64 364.26,200.95 365.28,204.30 366.29,207.71 367.30,211.17 368.32,214.68 369.34,218.23 370.35,221.81 371.36,225.44 372.38,229.09 373.40,232.78 374.41,236.49 375.42,240.22 376.44,243.97 377.46,247.73 378.47,251.50 379.49,255.28 380.50,259.06 381.51,262.84 382.53,266.61 383.55,270.38 384.56,274.14 385.57,277.87 386.59,281.59 387.61,285.29 388.62,288.96 389.63,292.60 390.65,296.20 391.67,299.77 392.68,303.29 393.70,306.77 394.71,310.20 395.72,313.58 396.74,316.91 397.76,320.18 398.77,323.38 399.78,326.53 400.80,329.60 401.82,332.60 402.83,335.53 403.84,338.39 404.86,341.16 405.88,343.85 406.89,346.46 407.90,348.98 408.92,351.41 409.94,353.75 410.95,355.99 411.97,358.14 412.98,360.19 413.99,362.14 415.01,363.98 416.03,365.72 417.04,367.35 418.05,368.88 419.07,370.30 420.09,371.60 421.10,372.79 422.11,373.87 423.13,374.84 424.15,375.69 425.16,376.42 426.17,377.04 427.19,377.54 428.21,377.92 429.22,378.19 430.24,378.33 431.25,378.36 432.26,378.26 433.28,378.05 434.30,377.72 435.31,377.28 436.32,376.71 437.34,376.03 438.36,375.23 439.37,374.31 440.38,373.28 441.40,372.14 442.42,370.88 443.43,369.52 444.44,368.04 445.46,366.45 446.48,364.76 447.49,362.96 448.51,361.06 449.52,359.05 450.53,356.95 451.55,354.75 452.57,352.45 453.58,350.06 454.59,347.58 455.61,345.01 456.63,342.36 457.64,339.62 458.65,336.80 459.67,333.90 460.69,330.93 461.70,327.89 462.72,324.78 463.73,321.60 464.75,318.36 465.76,315.05 466.78,311.70 467.79,308.29 468.80,304.83 469.82,301.32 470.84,297.77 471.85,294.19 472.86,290.56 473.88,286.91 474.90,283.22 475.91,279.51 476.92,275.78 477.94,272.03 478.96,268.27 479.97,264.50 480.99,260.72 482.00,256.94 483.01,253.16 484.03,249.39 485.05,245.62 486.06,241.86 487.07,238.13 488.09,234.41 489.11,230.71 490.12,227.04 491.13,223.40 492.15,219.80 493.17,216.23 494.18,212.71 495.19,209.23 496.21,205.80 497.23,202.42 498.24,199.09 499.26,195.82 500.27,192.62 501.28,189.47 502.30,186.40 503.32,183.40 504.33,180.47 505.34,177.61 506.36,174.84 507.38,172.15 508.39,169.54 509.40,167.02 510.42,164.59 511.44,162.25 512.45,160.01 513.46,157.86 514.48,155.81 515.50,153.86 516.51,152.02 517.53,150.28 518.54,148.65 519.55,147.12 520.57,145.70 521.59,144.40 522.60,143.21 523.61,142.13 524.63,141.16 525.65,140.31 526.66,139.58 527.67,138.96 528.69,138.46 529.71,138.08 530.72,137.81 531.74,137.67 532.75,137.64 533.76,137.74 534.78,137.95 535.80,138.28 536.81,138.72 537.82,139.29 538.84,139.97 539.86,140.77 540.87,141.69 541.88,142.72 542.90,143.86 543.92,145.12 544.93,146.48 545.94,147.96 546.96,149.55 547.98,151.24 548.99,153.04 550.01,154.94 551.02,156.95 552.03,159.05 553.05,161.25 554.07,163.55 555.08,165.94 556.09,168.42 557.11,170.99 558.13,173.64 559.14,176.38 560.15,179.20 561.17,182.10 562.19,185.07 563.20,188.11 564.21,191.22 565.23,194.40 566.25,197.64 567.26,200.95 568.28,204.30 569.29,207.71 570.30,211.17 571.32,214.68 572.34,218.23 573.35,221.81 574.36,225.44 575.38,229.09 576.40,232.78 577.41,236.49 578.42,240.22 579.44,243.97 580.46,247.73 581.47,251.50 582.48,255.28 583.50,259.06 584.52,262.84 585.53,266.61 586.55,270.38 587.56,274.14 588.57,277.87 589.59,281.59 590.61,285.29 591.62,288.96 592.63,292.60 593.65,296.20 594.67,299.77 595.68,303.29 596.69,306.77 597.71,310.20 598.73,313.58 599.74,316.91 600.76,320.18 601.77,323.38 602.79,326.53 603.80,329.60 604.82,332.60 605.83,335.53 606.84,338.39 607.86,341.16 608.88,343.85 609.89,346.46 610.90,348.98 611.92,351.41 612.94,353.75 613.95,355.99 614.96,358.14 615.98,360.19 617.00,362.14 618.01,363.98 619.03,365.72 620.04,367.35 621.06,368.88 622.07,370.30 623.09,371.60 624.10,372.79 625.11,373.87 626.13,374.84 627.15,375.69 628.16,376.42 629.17,377.04 630.19,377.54 631.21,377.92 632.22,378.19 633.23,378.33 634.25,378.36 635.27,378.26 636.28,378.05 637.30,377.72 638.31,377.28 639.32,376.71 640.34,376.03 641.36,375.23 642.37,374.31 643.38,373.28 644.40,372.14 645.42,370.88 646.43,369.52 647.44,368.04 648.46,366.45 649.48,364.76 650.49,362.96 651.50,361.06 652.52,359.05 653.54,356.95 654.55,354.75 655.57,352.45 656.58,350.06 657.59,347.58 658.61,345.01 659.63,342.36 660.64,339.62 661.65,336.80 662.67,333.90 663.69,330.93 664.70,327.89 665.71,324.78 666.73,321.60 667.75,318.36 668.76,315.05 669.78,311.70 670.79,308.29 671.81,304.83 672.82,301.32 673.84,297.77 674.85,294.19 675.86,290.56 676.88,286.91 677.90,283.22 678.91,279.51 679.92,275.78 680.94,272.03 681.96,268.27 682.97,264.50 683.98,260.72 685.00,256.94 686.02,253.16 687.03,249.39 688.05,245.62 689.06,241.86 690.07,238.13 691.09,234.41 692.11,230.71 693.12,227.04 694.13,223.40 695.15,219.80 696.17,216.23 697.18,212.71 698.19,209.23 699.21,205.80 700.23,202.42 701.24,199.09 702.25,195.82 703.27,192.62 704.29,189.47 705.30,186.40 706.32,183.40 707.33,180.47 708.34,177.61 709.36,174.84 710.38,172.15 711.39,169.54 712.40,167.02 713.42,164.59 714.44,162.25 715.45,160.01 716.46,157.86 717.48,155.81 718.50,153.86 719.51,152.02 720.52,150.28 721.54,148.65 722.56,147.12 723.57,145.70 724.59,144.40 725.60,143.21 726.61,142.13 727.63,141.16 728.65,140.31 729.66,139.58 730.67,138.96 731.69,138.46 732.71,138.08 733.72,137.81 734.73,137.67 735.75,137.64 736.77,137.74 737.78,137.95 738.80,138.28 739.81,138.72 740.83,139.29 741.84,139.97 742.86,140.77 743.87,141.69 744.88,142.72 745.90,143.86 746.92,145.12 747.93,146.48 748.94,147.96 749.96,149.55 750.98,151.24 751.99,153.04 753.00,154.94 754.02,156.95 755.04,159.05 756.05,161.25 757.07,163.55 758.08,165.94 759.09,168.42 760.11,170.99 761.13,173.64 762.14,176.38 763.15,179.20 764.17,182.10 765.19,185.07 766.20,188.11 767.21,191.22 768.23,194.40 769.25,197.64 770.26,200.95 771.27,204.30 772.29,207.71 773.31,211.17 774.32,214.68 775.34,218.23 776.35,221.81 777.36,225.44 778.38,229.09 779.40,232.78 780.41,236.49 781.42,240.22 782.44,243.97 783.46,247.73 784.47,251.50 785.48,255.28 786.50,259.06 787.52,262.84 788.53,266.61 789.54,270.38 790.56,274.14 791.58,277.87 792.59,281.59 793.61,285.29 794.62,288.96 795.63,292.60 796.65,296.20 797.67,299.77 798.68,303.29 799.69,306.77 800.71,310.20 801.73,313.58 802.74,316.91 803.75,320.18 804.77,323.38 805.79,326.53 806.80,329.60 807.81,332.60 808.83,335.53 809.85,338.39 810.86,341.16 811.88,343.85 812.89,346.46 813.90,348.98 814.92,351.41 815.94,353.75 816.95,355.99 817.96,358.14 818.98,360.19 820.00,362.14 821.01,363.98 822.02,365.72 823.04,367.35 824.06,368.88 825.07,370.30 826.09,371.60 827.10,372.79 828.12,373.87 829.13,374.84 830.15,375.69 831.16,376.42 832.17,377.04 833.19,377.54 834.21,377.92 835.22,378.19 836.23,378.33 837.25,378.36 838.27,378.26 839.28,378.05 840.29,377.72 841.31,377.28 842.33,376.71 843.34,376.03 844.36,375.23 845.37,374.31 846.38,373.28 847.40,372.14 848.42,370.88 849.43,369.52 850.44,368.04 851.46,366.45 852.48,364.76 853.49,362.96 854.50,361.06 855.52,359.05 856.54,356.95 857.55,354.75 858.56,352.45 859.58,350.06 860.60,347.58 861.61,345.01 862.63,342.36 863.64,339.62 864.65,336.80 865.67,333.90 866.69,330.93 867.70,327.89 868.71,324.78 869.73,321.60 870.75,318.36 871.76,315.05 872.77,311.70 873.79,308.29 874.81,304.83 875.82,301.32 876.83,297.77 877.85,294.19 878.87,290.56 879.88,286.91 880.90,283.22 881.91,279.51 882.92,275.78 883.94,272.03 884.96,268.27 885.97,264.50 886.98,260.72" fill="none" stroke="#b54708" stroke-width="3" stroke-linejoin="round"/>
<line x1="660" y1="140" x2="696" y2="140" stroke="#b54708" stroke-width="3"/>
<text x="706" y="145" font-family="Arial, Helvetica, sans-serif" font-size="13" font-weight="400" text-anchor="start" fill="#111">input x3</text>
<text x="460" y="502" font-family="Arial, Helvetica, sans-serif" font-size="14" font-weight="400" text-anchor="middle" fill="#111">Time after 40 ms settling, ms</text>
<text x="22" y="260" font-family="Arial, Helvetica, sans-serif" font-size="14" text-anchor="middle" fill="#111" transform="rotate(-90 22 260)">AC voltage, mV</text>
</svg>
