<svg xmlns="http://www.w3.org/2000/svg" width="920" height="520" viewBox="0 0 920 520">
<defs>
<style>
.wire{stroke:#111;stroke-width:2.6;fill:none;stroke-linecap:round;stroke-linejoin:round}
.thin{stroke:#a7b0bd;stroke-width:1.2;fill:none;stroke-linecap:round;stroke-linejoin:round}
.axis{stroke:#111;stroke-width:1.4;fill:none}
.blue{stroke:#1665d8;stroke-width:3;fill:none;stroke-linecap:round;stroke-linejoin:round}
.green{stroke:#13795b;stroke-width:3;fill:none;stroke-linecap:round;stroke-linejoin:round}
.orange{stroke:#b54708;stroke-width:3;fill:none;stroke-linecap:round;stroke-linejoin:round}
.node{fill:#111;stroke:none}
</style>
</defs>
<rect width="100%" height="100%" fill="#fff"/>
<text x="76" y="36" font-family="Arial, Helvetica, sans-serif" font-size="22" font-weight="700" text-anchor="start" fill="#111">Square-wave response, 1 kHz, Vin = 2.0 mVpp</text>
<rect x="76" y="60" width="812" height="396" fill="#fff" stroke="#111" stroke-width="1.4"/>
<line x1="76" y1="60" x2="76" y2="456" class="thin"/>
<text x="76" y="479" font-family="Arial, Helvetica, sans-serif" font-size="12" font-weight="400" text-anchor="middle" fill="#111">0</text>
<line x1="279" y1="60" x2="279" y2="456" class="thin"/>
<text x="279" y="479" font-family="Arial, Helvetica, sans-serif" font-size="12" font-weight="400" text-anchor="middle" fill="#111">1</text>
<line x1="482" y1="60" x2="482" y2="456" class="thin"/>
<text x="482" y="479" font-family="Arial, Helvetica, sans-serif" font-size="12" font-weight="400" text-anchor="middle" fill="#111">2</text>
<line x1="685" y1="60" x2="685" y2="456" class="thin"/>
<text x="685" y="479" font-family="Arial, Helvetica, sans-serif" font-size="12" font-weight="400" text-anchor="middle" fill="#111">3</text>
<line x1="888" y1="60" x2="888" y2="456" class="thin"/>
<text x="888" y="479" font-family="Arial, Helvetica, sans-serif" font-size="12" font-weight="400" text-anchor="middle" fill="#111">4</text>
<line x1="76" y1="456" x2="888" y2="456" class="thin"/>
<text x="66" y="460" font-family="Arial, Helvetica, sans-serif" font-size="12" font-weight="400" text-anchor="end" fill="#111">-0.25</text>
<line x1="76" y1="357" x2="888" y2="357" class="thin"/>
<text x="66" y="361" font-family="Arial, Helvetica, sans-serif" font-size="12" font-weight="400" text-anchor="end" fill="#111">-0.125</text>
<line x1="76" y1="258" x2="888" y2="258" class="thin"/>
<text x="66" y="262" font-family="Arial, Helvetica, sans-serif" font-size="12" font-weight="400" text-anchor="end" fill="#111">0</text>
<line x1="76" y1="159" x2="888" y2="159" class="thin"/>
<text x="66" y="163" font-family="Arial, Helvetica, sans-serif" font-size="12" font-weight="400" text-anchor="end" fill="#111">0.125</text>
<line x1="76" y1="60" x2="888" y2="60" class="thin"/>
<text x="66" y="64" font-family="Arial, Helvetica, sans-serif" font-size="12" font-weight="400" text-anchor="end" fill="#111">0.25</text>
<polyline points="76.00,228.39 76.02,228.58 76.06,229.04 76.13,230.14 76.20,231.64 76.22,231.86 76.25,232.29 76.30,233.15 76.42,234.84 76.64,238.12 77.04,243.53 77.44,248.55 77.83,253.14 78.23,257.33 78.63,261.16 79.02,264.64 79.42,267.82 79.82,270.72 80.21,273.36 80.61,275.77 81.00,277.95 81.40,279.94 81.80,281.75 82.19,283.40 82.59,284.89 82.99,286.25 83.38,287.48 83.78,288.59 84.18,289.61 84.57,290.52 84.97,291.36 85.37,292.11 85.76,292.79 86.16,293.40 86.56,293.95 86.95,294.45 87.35,294.90 87.75,295.30 88.14,295.67 88.54,295.99 88.93,296.28 89.33,296.54 89.73,296.77 90.12,296.97 90.52,297.15 90.92,297.30 91.31,297.44 91.71,297.56 92.11,297.66 92.50,297.75 92.90,297.83 93.30,297.89 93.69,297.94 94.09,297.98 94.49,298.01 94.88,298.03 95.28,298.04 95.67,298.05 96.07,298.05 96.47,298.04 96.86,298.03 97.26,298.01 97.66,297.99 98.05,297.97 98.45,297.94 98.85,297.91 99.24,297.87 99.64,297.83 100.04,297.79 100.43,297.75 100.83,297.71 101.23,297.66 101.62,297.61 102.02,297.56 102.41,297.51 102.81,297.45 103.21,297.40 103.60,297.34 104.00,297.29 104.40,297.23 104.79,297.17 105.19,297.12 105.59,297.06 105.98,297.00 106.38,296.94 106.78,296.87 107.17,296.81 107.57,296.75 107.97,296.69 108.36,296.63 108.76,296.57 109.16,296.50 109.55,296.44 109.95,296.38 110.34,296.32 110.74,296.25 111.14,296.19 111.53,296.12 111.93,296.06 112.33,296.00 112.72,295.93 113.12,295.87 113.52,295.81 113.91,295.74 114.31,295.68 114.71,295.62 115.10,295.55 115.50,295.49 115.90,295.43 116.29,295.36 116.69,295.30 117.08,295.24 117.48,295.17 117.88,295.11 118.27,295.05 118.67,294.98 119.07,294.92 119.46,294.86 119.86,294.80 120.26,294.73 120.65,294.67 121.05,294.61 121.45,294.55 121.84,294.48 122.24,294.42 122.64,294.36 123.03,294.30 123.43,294.23 123.83,294.17 124.22,294.11 124.62,294.05 125.01,293.99 125.41,293.93 125.81,293.86 126.20,293.80 126.60,293.74 127.00,293.68 127.39,293.62 127.79,293.56 128.19,293.50 128.58,293.44 128.98,293.38 129.38,293.32 129.77,293.26 130.17,293.20 130.57,293.14 130.96,293.08 131.36,293.02 131.75,292.96 132.15,292.90 132.55,292.84 132.94,292.78 133.34,292.72 133.74,292.66 134.13,292.60 134.53,292.54 134.93,292.48 135.32,292.42 135.72,292.36 136.12,292.30 136.51,292.24 136.91,292.19 137.31,292.13 137.70,292.07 138.10,292.01 138.50,291.95 138.89,291.89 139.29,291.84 139.68,291.78 140.08,291.72 140.48,291.66 140.87,291.60 141.27,291.55 141.67,291.49 142.06,291.43 142.46,291.38 142.86,291.32 143.25,291.26 143.65,291.20 144.05,291.15 144.44,291.09 144.84,291.03 145.24,290.98 145.63,290.92 146.03,290.86 146.42,290.81 146.82,290.75 147.22,290.70 147.61,290.64 148.01,290.58 148.41,290.53 148.80,290.47 149.20,290.42 149.60,290.36 149.99,290.31 150.39,290.25 150.79,290.20 151.18,290.14 151.58,290.08 151.98,290.03 152.37,289.97 152.77,289.92 153.16,289.87 153.56,289.81 153.96,289.76 154.35,289.70 154.75,289.65 155.15,289.59 155.54,289.54 155.94,289.48 156.34,289.43 156.73,289.38 157.13,289.32 157.53,289.27 157.92,289.22 158.32,289.16 158.72,289.11 159.11,289.06 159.51,289.00 159.91,288.95 160.30,288.90 160.70,288.84 161.09,288.79 161.49,288.74 161.89,288.68 162.28,288.63 162.68,288.58 163.08,288.53 163.47,288.47 163.87,288.42 164.27,288.37 164.66,288.32 165.06,288.27 165.46,288.21 165.85,288.16 166.25,288.11 166.65,288.06 167.04,288.01 167.44,287.96 167.83,287.90 168.23,287.85 168.63,287.80 169.02,287.75 169.42,287.70 169.82,287.65 170.21,287.60 170.61,287.55 171.01,287.50 171.40,287.45 171.80,287.40 172.20,287.34 172.59,287.29 172.99,287.24 173.39,287.19 173.78,287.14 174.18,287.09 174.58,287.04 174.97,286.99 175.37,286.94 175.76,286.89 176.16,286.84 176.56,286.80 176.95,286.75 177.33,286.70 177.70,286.65 177.72,286.46 177.76,285.99 177.83,284.88 177.91,283.42 177.92,283.20 177.95,282.77 178.01,281.92 178.12,280.26 178.35,277.06 178.74,271.84 179.14,267.06 179.54,262.64 179.93,258.57 180.33,254.82 180.73,251.39 181.12,248.23 181.52,245.35 181.91,242.71 182.31,240.30 182.71,238.10 183.10,236.09 183.50,234.25 183.90,232.59 184.29,231.07 184.69,229.69 185.09,228.43 185.48,227.29 185.88,226.25 186.28,225.31 186.67,224.45 187.07,223.68 187.47,222.98 187.86,222.35 188.26,221.78 188.66,221.26 189.05,220.80 189.45,220.38 189.84,220.00 190.24,219.67 190.64,219.37 191.03,219.10 191.43,218.86 191.83,218.64 192.22,218.46 192.62,218.29 193.02,218.14 193.41,218.02 193.81,217.91 194.21,217.81 194.60,217.73 195.00,217.67 195.40,217.61 195.79,217.56 196.19,217.53 196.58,217.50 196.98,217.48 197.38,217.47 197.77,217.47 198.17,217.47 198.57,217.48 198.96,217.49 199.36,217.51 199.76,217.53 200.15,217.55 200.55,217.58 200.95,217.61 201.34,217.65 201.74,217.69 202.14,217.73 202.53,217.77 202.93,217.81 203.33,217.86 203.72,217.90 204.12,217.95 204.51,218.00 204.91,218.05 205.31,218.11 205.70,218.16 206.10,218.21 206.50,218.27 206.89,218.32 207.29,218.38 207.69,218.44 208.08,218.49 208.48,218.55 208.88,218.61 209.27,218.67 209.67,218.73 210.07,218.79 210.46,218.85 210.86,218.91 211.25,218.97 211.65,219.03 212.05,219.09 212.44,219.15 212.84,219.21 213.24,219.27 213.63,219.33 214.03,219.39 214.43,219.45 214.82,219.51 215.22,219.57 215.62,219.63 216.01,219.69 216.41,219.76 216.81,219.82 217.20,219.88 217.60,219.94 217.99,220.00 218.39,220.06 218.79,220.12 219.18,220.18 219.58,220.24 219.98,220.30 220.37,220.36 220.77,220.42 221.17,220.48 221.56,220.54 221.96,220.60 222.36,220.66 222.75,220.73 223.15,220.78 223.55,220.85 223.94,220.90 224.34,220.96 224.74,221.02 225.13,221.08 225.53,221.14 225.92,221.20 226.32,221.26 226.72,221.32 227.11,221.38 227.51,221.44 227.91,221.50 228.30,221.56 228.70,221.62 229.10,221.68 229.49,221.73 229.89,221.79 230.29,221.85 230.68,221.91 231.08,221.97 231.48,222.03 231.87,222.09 232.27,222.14 232.66,222.20 233.06,222.26 233.46,222.32 233.85,222.37 234.25,222.43 234.65,222.49 235.04,222.55 235.44,222.61 235.84,222.66 236.23,222.72 236.63,222.78 237.03,222.83 237.42,222.89 237.82,222.95 238.22,223.00 238.61,223.06 239.01,223.12 239.41,223.17 239.80,223.23 240.20,223.29 240.59,223.34 240.99,223.40 241.39,223.46 241.78,223.51 242.18,223.57 242.58,223.62 242.97,223.68 243.37,223.73 243.77,223.79 244.16,223.85 244.56,223.90 244.96,223.96 245.35,224.01 245.75,224.07 246.15,224.12 246.54,224.18 246.94,224.23 247.33,224.29 247.73,224.34 248.13,224.40 248.52,224.45 248.92,224.50 249.32,224.56 249.71,224.61 250.11,224.67 250.51,224.72 250.90,224.78 251.30,224.83 251.70,224.88 252.09,224.94 252.49,224.99 252.89,225.04 253.28,225.10 253.68,225.15 254.08,225.20 254.47,225.26 254.87,225.31 255.26,225.36 255.66,225.42 256.06,225.47 256.45,225.52 256.85,225.58 257.25,225.63 257.64,225.68 258.04,225.73 258.44,225.79 258.83,225.84 259.23,225.89 259.63,225.94 260.02,226.00 260.42,226.05 260.82,226.10 261.21,226.15 261.61,226.20 262.00,226.25 262.40,226.31 262.80,226.36 263.19,226.41 263.59,226.46 263.99,226.51 264.38,226.56 264.78,226.61 265.18,226.67 265.57,226.72 265.97,226.77 266.37,226.82 266.76,226.87 267.16,226.92 267.56,226.97 267.95,227.02 268.35,227.07 268.74,227.12 269.14,227.17 269.54,227.22 269.93,227.27 270.33,227.32 270.73,227.37 271.12,227.42 271.52,227.47 271.92,227.52 272.31,227.57 272.71,227.62 273.11,227.67 273.50,227.72 273.90,227.77 274.30,227.82 274.69,227.87 275.09,227.92 275.49,227.97 275.88,228.02 276.28,228.06 276.67,228.11 277.07,228.16 277.47,228.21 277.86,228.26 278.26,228.31 278.63,228.35 279.00,228.40 279.02,228.59 279.06,229.04 279.13,230.15 279.20,231.64 279.22,231.87 279.25,232.30 279.30,233.16 279.42,234.85 279.64,238.13 280.04,243.54 280.44,248.56 280.83,253.15 281.23,257.34 281.63,261.16 282.02,264.65 282.42,267.83 282.82,270.73 283.21,273.37 283.61,275.77 284.00,277.96 284.40,279.95 284.80,281.76 285.19,283.40 285.59,284.90 285.99,286.25 286.38,287.48 286.78,288.60 287.18,289.61 287.57,290.53 287.97,291.36 288.37,292.11 288.76,292.79 289.16,293.40 289.56,293.96 289.95,294.46 290.35,294.91 290.75,295.31 291.14,295.67 291.54,295.99 291.93,296.28 292.33,296.54 292.73,296.77 293.12,296.97 293.52,297.15 293.92,297.31 294.31,297.45 294.71,297.57 295.11,297.67 295.50,297.76 295.90,297.83 296.30,297.89 296.69,297.94 297.09,297.98 297.49,298.01 297.88,298.03 298.28,298.05 298.67,298.05 299.07,298.06 299.47,298.05 299.86,298.04 300.26,298.02 300.66,298.00 301.05,297.97 301.45,297.95 301.85,297.91 302.24,297.88 302.64,297.84 303.04,297.80 303.43,297.76 303.83,297.71 304.23,297.66 304.62,297.62 305.02,297.57 305.41,297.51 305.81,297.46 306.21,297.41 306.60,297.35 307.00,297.30 307.40,297.24 307.79,297.18 308.19,297.12 308.59,297.06 308.98,297.00 309.38,296.94 309.78,296.88 310.17,296.82 310.57,296.76 310.97,296.70 311.36,296.63 311.76,296.57 312.16,296.51 312.55,296.45 312.95,296.38 313.34,296.32 313.74,296.26 314.14,296.19 314.53,296.13 314.93,296.07 315.33,296.00 315.72,295.94 316.12,295.88 316.52,295.81 316.91,295.75 317.31,295.69 317.71,295.62 318.10,295.56 318.50,295.50 318.90,295.43 319.29,295.37 319.69,295.31 320.08,295.24 320.48,295.18 320.88,295.12 321.27,295.05 321.67,294.99 322.07,294.93 322.46,294.86 322.86,294.80 323.26,294.74 323.65,294.68 324.05,294.61 324.45,294.55 324.84,294.49 325.24,294.43 325.64,294.36 326.03,294.30 326.43,294.24 326.83,294.18 327.22,294.12 327.62,294.06 328.01,293.99 328.41,293.93 328.81,293.87 329.20,293.81 329.60,293.75 330.00,293.69 330.39,293.63 330.79,293.57 331.19,293.50 331.58,293.44 331.98,293.38 332.38,293.32 332.77,293.26 333.17,293.20 333.57,293.14 333.96,293.08 334.36,293.02 334.75,292.96 335.15,292.90 335.55,292.84 335.94,292.78 336.34,292.72 336.74,292.66 337.13,292.60 337.53,292.54 337.93,292.49 338.32,292.43 338.72,292.37 339.12,292.31 339.51,292.25 339.91,292.19 340.31,292.13 340.70,292.07 341.10,292.02 341.50,291.96 341.89,291.90 342.29,291.84 342.68,291.78 343.08,291.73 343.48,291.67 343.87,291.61 344.27,291.55 344.67,291.50 345.06,291.44 345.46,291.38 345.86,291.32 346.25,291.27 346.65,291.21 347.05,291.15 347.44,291.10 347.84,291.04 348.24,290.98 348.63,290.93 349.03,290.87 349.42,290.81 349.82,290.76 350.22,290.70 350.61,290.65 351.01,290.59 351.41,290.53 351.80,290.48 352.20,290.42 352.60,290.37 352.99,290.31 353.39,290.26 353.79,290.20 354.18,290.15 354.58,290.09 354.98,290.04 355.37,289.98 355.77,289.93 356.16,289.87 356.56,289.82 356.96,289.76 357.35,289.71 357.75,289.65 358.15,289.60 358.54,289.55 358.94,289.49 359.34,289.44 359.73,289.38 360.13,289.33 360.53,289.28 360.92,289.22 361.32,289.17 361.72,289.12 362.11,289.06 362.51,289.01 362.91,288.96 363.30,288.90 363.70,288.85 364.09,288.80 364.49,288.74 364.89,288.69 365.28,288.64 365.68,288.59 366.08,288.53 366.47,288.48 366.87,288.43 367.27,288.38 367.66,288.32 368.06,288.27 368.46,288.22 368.85,288.17 369.25,288.12 369.65,288.06 370.04,288.01 370.44,287.96 370.83,287.91 371.23,287.86 371.63,287.81 372.02,287.76 372.42,287.71 372.82,287.65 373.21,287.60 373.61,287.55 374.01,287.50 374.40,287.45 374.80,287.40 375.20,287.35 375.59,287.30 375.99,287.25 376.39,287.20 376.78,287.15 377.18,287.10 377.58,287.05 377.97,287.00 378.37,286.95 378.76,286.90 379.16,286.85 379.56,286.80 379.95,286.75 380.33,286.70 380.70,286.66 380.72,286.46 380.76,285.99 380.83,284.89 380.91,283.42 380.92,283.20 380.95,282.77 381.01,281.93 381.12,280.27 381.35,277.07 381.74,271.84 382.14,267.06 382.54,262.65 382.93,258.57 383.33,254.83 383.73,251.39 384.12,248.24 384.52,245.35 384.91,242.71 385.31,240.30 385.71,238.10 386.10,236.09 386.50,234.26 386.90,232.59 387.29,231.07 387.69,229.69 388.09,228.43 388.48,227.29 388.88,226.25 389.28,225.31 389.67,224.46 390.07,223.69 390.47,222.99 390.86,222.36 391.26,221.78 391.66,221.27 392.05,220.80 392.45,220.39 392.84,220.01 393.24,219.67 393.64,219.37 394.03,219.10 394.43,218.86 394.83,218.65 395.22,218.46 395.62,218.30 396.02,218.15 396.41,218.02 396.81,217.91 397.21,217.82 397.60,217.74 398.00,217.67 398.40,217.61 398.79,217.57 399.19,217.53 399.58,217.51 399.98,217.49 400.38,217.48 400.77,217.47 401.17,217.48 401.57,217.48 401.96,217.50 402.36,217.51 402.76,217.53 403.15,217.56 403.55,217.59 403.95,217.62 404.34,217.65 404.74,217.69 405.14,217.73 405.53,217.77 405.93,217.82 406.33,217.86 406.72,217.91 407.12,217.96 407.51,218.01 407.91,218.06 408.31,218.11 408.70,218.16 409.10,218.22 409.50,218.27 409.89,218.33 410.29,218.39 410.69,218.44 411.08,218.50 411.48,218.56 411.88,218.62 412.27,218.68 412.67,218.73 413.07,218.79 413.46,218.85 413.86,218.91 414.25,218.97 414.65,219.03 415.05,219.09 415.44,219.15 415.84,219.21 416.24,219.27 416.63,219.34 417.03,219.40 417.43,219.46 417.82,219.52 418.22,219.58 418.62,219.64 419.01,219.70 419.41,219.76 419.81,219.82 420.20,219.88 420.60,219.94 420.99,220.01 421.39,220.07 421.79,220.13 422.18,220.19 422.58,220.25 422.98,220.31 423.37,220.37 423.77,220.43 424.17,220.49 424.56,220.55 424.96,220.61 425.36,220.67 425.75,220.73 426.15,220.79 426.55,220.85 426.94,220.91 427.34,220.97 427.74,221.03 428.13,221.09 428.53,221.15 428.92,221.21 429.32,221.27 429.72,221.33 430.11,221.39 430.51,221.45 430.91,221.50 431.30,221.56 431.70,221.62 432.10,221.68 432.49,221.74 432.89,221.80 433.29,221.86 433.68,221.92 434.08,221.97 434.48,222.03 434.87,222.09 435.27,222.15 435.66,222.21 436.06,222.27 436.46,222.32 436.85,222.38 437.25,222.44 437.65,222.50 438.04,222.55 438.44,222.61 438.84,222.67 439.23,222.73 439.63,222.78 440.03,222.84 440.42,222.90 440.82,222.95 441.22,223.01 441.61,223.07 442.01,223.12 442.41,223.18 442.80,223.24 443.20,223.29 443.59,223.35 443.99,223.41 444.39,223.46 444.78,223.52 445.18,223.57 445.58,223.63 445.97,223.68 446.37,223.74 446.77,223.80 447.16,223.85 447.56,223.91 447.96,223.96 448.35,224.02 448.75,224.07 449.15,224.13 449.54,224.18 449.94,224.24 450.33,224.29 450.73,224.35 451.13,224.40 451.52,224.46 451.92,224.51 452.32,224.56 452.71,224.62 453.11,224.67 453.51,224.73 453.90,224.78 454.30,224.84 454.70,224.89 455.09,224.94 455.49,225.00 455.89,225.05 456.28,225.10 456.68,225.16 457.08,225.21 457.47,225.26 457.87,225.32 458.26,225.37 458.66,225.42 459.06,225.48 459.45,225.53 459.85,225.58 460.25,225.63 460.64,225.69 461.04,225.74 461.44,225.79 461.83,225.84 462.23,225.90 462.63,225.95 463.02,226.00 463.42,226.05 463.82,226.11 464.21,226.16 464.61,226.21 465.00,226.26 465.40,226.31 465.80,226.36 466.19,226.42 466.59,226.47 466.99,226.52 467.38,226.57 467.78,226.62 468.18,226.67 468.57,226.72 468.97,226.77 469.37,226.82 469.76,226.88 470.16,226.93 470.56,226.98 470.95,227.03 471.35,227.08 471.74,227.13 472.14,227.18 472.54,227.23 472.93,227.28 473.33,227.33 473.73,227.38 474.12,227.43 474.52,227.48 474.92,227.53 475.31,227.58 475.71,227.63 476.11,227.68 476.50,227.73 476.90,227.78 477.30,227.82 477.69,227.87 478.09,227.92 478.49,227.97 478.88,228.02 479.28,228.07 479.67,228.12 480.07,228.17 480.47,228.22 480.86,228.26 481.26,228.31 481.63,228.36 482.00,228.40 482.02,228.59 482.06,229.05 482.13,230.15 482.20,231.65 482.22,231.87 482.25,232.31 482.30,233.16 482.42,234.85 482.64,238.13 483.04,243.54 483.44,248.56 483.83,253.15 484.23,257.34 484.63,261.17 485.02,264.65 485.42,267.84 485.82,270.73 486.21,273.37 486.61,275.78 487.00,277.97 487.40,279.95 487.80,281.76 488.19,283.41 488.59,284.90 488.99,286.26 489.38,287.49 489.78,288.61 490.18,289.62 490.57,290.54 490.97,291.37 491.37,292.12 491.76,292.80 492.16,293.41 492.56,293.96 492.95,294.46 493.35,294.91 493.75,295.31 494.14,295.68 494.54,296.00 494.93,296.29 495.33,296.55 495.73,296.78 496.12,296.98 496.52,297.16 496.92,297.32 497.31,297.45 497.71,297.57 498.11,297.68 498.50,297.76 498.90,297.84 499.30,297.90 499.69,297.95 500.09,297.99 500.49,298.02 500.88,298.04 501.28,298.05 501.67,298.06 502.07,298.06 502.47,298.05 502.86,298.04 503.26,298.03 503.66,298.01 504.05,297.98 504.45,297.95 504.85,297.92 505.24,297.88 505.64,297.85 506.04,297.81 506.43,297.76 506.83,297.72 507.23,297.67 507.62,297.62 508.02,297.57 508.41,297.52 508.81,297.47 509.21,297.41 509.60,297.36 510.00,297.30 510.40,297.24 510.79,297.19 511.19,297.13 511.59,297.07 511.98,297.01 512.38,296.95 512.78,296.89 513.17,296.83 513.57,296.76 513.97,296.70 514.36,296.64 514.76,296.58 515.16,296.52 515.55,296.45 515.95,296.39 516.34,296.33 516.74,296.26 517.14,296.20 517.53,296.14 517.93,296.07 518.33,296.01 518.72,295.95 519.12,295.88 519.52,295.82 519.91,295.76 520.31,295.69 520.71,295.63 521.10,295.57 521.50,295.50 521.90,295.44 522.29,295.37 522.69,295.31 523.08,295.25 523.48,295.19 523.88,295.12 524.27,295.06 524.67,295.00 525.07,294.93 525.46,294.87 525.86,294.81 526.26,294.74 526.65,294.68 527.05,294.62 527.45,294.56 527.84,294.49 528.24,294.43 528.64,294.37 529.03,294.31 529.43,294.25 529.83,294.18 530.22,294.12 530.62,294.06 531.01,294.00 531.41,293.94 531.81,293.88 532.20,293.82 532.60,293.75 533.00,293.69 533.39,293.63 533.79,293.57 534.19,293.51 534.58,293.45 534.98,293.39 535.38,293.33 535.77,293.27 536.17,293.21 536.57,293.15 536.96,293.09 537.36,293.03 537.75,292.97 538.15,292.91 538.55,292.85 538.94,292.79 539.34,292.73 539.74,292.67 540.13,292.61 540.53,292.55 540.93,292.49 541.32,292.43 541.72,292.37 542.12,292.31 542.51,292.26 542.91,292.20 543.31,292.14 543.70,292.08 544.10,292.02 544.50,291.96 544.89,291.91 545.29,291.85 545.68,291.79 546.08,291.73 546.48,291.67 546.87,291.62 547.27,291.56 547.67,291.50 548.06,291.44 548.46,291.39 548.86,291.33 549.25,291.27 549.65,291.22 550.05,291.16 550.44,291.10 550.84,291.05 551.24,290.99 551.63,290.93 552.03,290.88 552.42,290.82 552.82,290.76 553.22,290.71 553.61,290.65 554.01,290.60 554.41,290.54 554.80,290.48 555.20,290.43 555.60,290.37 555.99,290.32 556.39,290.26 556.79,290.21 557.18,290.15 557.58,290.10 557.98,290.04 558.37,289.99 558.77,289.93 559.16,289.88 559.56,289.82 559.96,289.77 560.35,289.71 560.75,289.66 561.15,289.60 561.54,289.55 561.94,289.50 562.34,289.44 562.73,289.39 563.13,289.34 563.53,289.28 563.92,289.23 564.32,289.17 564.72,289.12 565.11,289.07 565.51,289.01 565.91,288.96 566.30,288.91 566.70,288.85 567.09,288.80 567.49,288.75 567.89,288.70 568.28,288.64 568.68,288.59 569.08,288.54 569.47,288.49 569.87,288.43 570.27,288.38 570.66,288.33 571.06,288.28 571.46,288.23 571.85,288.17 572.25,288.12 572.65,288.07 573.04,288.02 573.44,287.97 573.83,287.92 574.23,287.86 574.63,287.81 575.02,287.76 575.42,287.71 575.82,287.66 576.21,287.61 576.61,287.56 577.01,287.51 577.40,287.46 577.80,287.41 578.20,287.36 578.59,287.31 578.99,287.26 579.39,287.21 579.78,287.16 580.18,287.11 580.58,287.06 580.97,287.01 581.37,286.96 581.76,286.91 582.16,286.86 582.56,286.81 582.95,286.76 583.33,286.71 583.70,286.66 583.72,286.47 583.76,286.00 583.83,284.89 583.91,283.43 583.92,283.21 583.95,282.78 584.01,281.94 584.12,280.28 584.35,277.08 584.74,271.85 585.14,267.07 585.54,262.65 585.93,258.58 586.33,254.84 586.73,251.40 587.12,248.25 587.52,245.36 587.91,242.72 588.31,240.31 588.71,238.11 589.10,236.10 589.50,234.27 589.90,232.60 590.29,231.08 590.69,229.70 591.09,228.44 591.48,227.30 591.88,226.26 592.28,225.32 592.67,224.47 593.07,223.69 593.47,222.99 593.86,222.36 594.26,221.79 594.66,221.27 595.05,220.81 595.45,220.39 595.84,220.01 596.24,219.68 596.64,219.38 597.03,219.11 597.43,218.87 597.83,218.66 598.22,218.47 598.62,218.30 599.02,218.15 599.41,218.03 599.81,217.92 600.21,217.82 600.60,217.74 601.00,217.68 601.40,217.62 601.79,217.58 602.19,217.54 602.58,217.51 602.98,217.49 603.38,217.48 603.77,217.48 604.17,217.48 604.57,217.49 604.96,217.50 605.36,217.52 605.76,217.54 606.15,217.56 606.55,217.59 606.95,217.63 607.34,217.66 607.74,217.70 608.14,217.74 608.53,217.78 608.93,217.82 609.33,217.87 609.72,217.92 610.12,217.96 610.51,218.01 610.91,218.06 611.31,218.12 611.70,218.17 612.10,218.22 612.50,218.28 612.89,218.34 613.29,218.39 613.69,218.45 614.08,218.51 614.48,218.56 614.88,218.62 615.27,218.68 615.67,218.74 616.07,218.80 616.46,218.86 616.86,218.92 617.25,218.98 617.65,219.04 618.05,219.10 618.44,219.16 618.84,219.22 619.24,219.28 619.63,219.34 620.03,219.40 620.43,219.46 620.82,219.52 621.22,219.58 621.62,219.65 622.01,219.71 622.41,219.77 622.81,219.83 623.20,219.89 623.60,219.95 623.99,220.01 624.39,220.07 624.79,220.13 625.18,220.19 625.58,220.25 625.98,220.31 626.37,220.37 626.77,220.43 627.17,220.50 627.56,220.56 627.96,220.62 628.36,220.68 628.75,220.74 629.15,220.80 629.55,220.86 629.94,220.92 630.34,220.98 630.74,221.04 631.13,221.10 631.53,221.15 631.92,221.21 632.32,221.27 632.72,221.33 633.11,221.39 633.51,221.45 633.91,221.51 634.30,221.57 634.70,221.63 635.10,221.69 635.49,221.75 635.89,221.80 636.29,221.86 636.68,221.92 637.08,221.98 637.48,222.04 637.87,222.10 638.27,222.15 638.66,222.21 639.06,222.27 639.46,222.33 639.85,222.39 640.25,222.44 640.65,222.50 641.04,222.56 641.44,222.62 641.84,222.67 642.23,222.73 642.63,222.79 643.03,222.85 643.42,222.90 643.82,222.96 644.22,223.02 644.61,223.07 645.01,223.13 645.41,223.19 645.80,223.24 646.20,223.30 646.59,223.35 646.99,223.41 647.39,223.47 647.78,223.52 648.18,223.58 648.58,223.63 648.97,223.69 649.37,223.75 649.77,223.80 650.16,223.86 650.56,223.91 650.96,223.97 651.35,224.02 651.75,224.08 652.15,224.13 652.54,224.19 652.94,224.24 653.33,224.30 653.73,224.35 654.13,224.41 654.52,224.46 654.92,224.52 655.32,224.57 655.71,224.62 656.11,224.68 656.51,224.73 656.90,224.79 657.30,224.84 657.70,224.89 658.09,224.95 658.49,225.00 658.89,225.06 659.28,225.11 659.68,225.16 660.08,225.22 660.47,225.27 660.87,225.32 661.26,225.38 661.66,225.43 662.06,225.48 662.45,225.53 662.85,225.59 663.25,225.64 663.64,225.69 664.04,225.75 664.44,225.80 664.83,225.85 665.23,225.90 665.63,225.95 666.02,226.01 666.42,226.06 666.82,226.11 667.21,226.16 667.61,226.21 668.00,226.27 668.40,226.32 668.80,226.37 669.19,226.42 669.59,226.47 669.99,226.52 670.38,226.57 670.78,226.63 671.18,226.68 671.57,226.73 671.97,226.78 672.37,226.83 672.76,226.88 673.16,226.93 673.56,226.98 673.95,227.03 674.35,227.08 674.74,227.13 675.14,227.18 675.54,227.23 675.93,227.28 676.33,227.33 676.73,227.38 677.12,227.43 677.52,227.48 677.92,227.53 678.31,227.58 678.71,227.63 679.11,227.68 679.50,227.73 679.90,227.78 680.30,227.83 680.69,227.88 681.09,227.93 681.49,227.98 681.88,228.03 682.28,228.08 682.67,228.12 683.07,228.17 683.47,228.22 683.86,228.27 684.26,228.32 684.63,228.36 685.00,228.41 685.02,228.60 685.06,229.05 685.13,230.16 685.20,231.65 685.22,231.88 685.25,232.31 685.30,233.17 685.42,234.86 685.64,238.14 686.04,243.55 686.44,248.57 686.83,253.16 687.23,257.35 687.63,261.17 688.02,264.66 688.42,267.84 688.82,270.74 689.21,273.38 689.61,275.78 690.00,277.97 690.40,279.96 690.80,281.77 691.19,283.41 691.59,284.91 691.99,286.26 692.38,287.50 692.78,288.61 693.18,289.63 693.57,290.54 693.97,291.37 694.37,292.12 694.76,292.80 695.16,293.42 695.56,293.97 695.95,294.47 696.35,294.92 696.75,295.32 697.14,295.68 697.54,296.01 697.93,296.30 698.33,296.55 698.73,296.78 699.12,296.99 699.52,297.17 699.92,297.32 700.31,297.46 700.71,297.58 701.11,297.68 701.50,297.77 701.90,297.84 702.30,297.90 702.69,297.96 703.09,297.99 703.49,298.03 703.88,298.05 704.28,298.06 704.67,298.07 705.07,298.07 705.47,298.06 705.86,298.05 706.26,298.03 706.66,298.01 707.05,297.99 707.45,297.96 707.85,297.93 708.24,297.89 708.64,297.85 709.04,297.81 709.43,297.77 709.83,297.72 710.23,297.68 710.62,297.63 711.02,297.58 711.41,297.53 711.81,297.47 712.21,297.42 712.60,297.36 713.00,297.31 713.40,297.25 713.79,297.19 714.19,297.13 714.59,297.07 714.98,297.01 715.38,296.95 715.78,296.89 716.17,296.83 716.57,296.77 716.97,296.71 717.36,296.65 717.76,296.58 718.16,296.52 718.55,296.46 718.95,296.40 719.34,296.33 719.74,296.27 720.14,296.21 720.53,296.14 720.93,296.08 721.33,296.02 721.72,295.95 722.12,295.89 722.52,295.83 722.91,295.76 723.31,295.70 723.71,295.63 724.10,295.57 724.50,295.51 724.90,295.44 725.29,295.38 725.69,295.32 726.08,295.25 726.48,295.19 726.88,295.13 727.27,295.07 727.67,295.00 728.07,294.94 728.46,294.88 728.86,294.81 729.26,294.75 729.65,294.69 730.05,294.63 730.45,294.56 730.84,294.50 731.24,294.44 731.64,294.38 732.03,294.31 732.43,294.25 732.83,294.19 733.22,294.13 733.62,294.07 734.01,294.01 734.41,293.94 734.81,293.88 735.20,293.82 735.60,293.76 736.00,293.70 736.39,293.64 736.79,293.58 737.19,293.52 737.58,293.46 737.98,293.39 738.38,293.33 738.77,293.27 739.17,293.21 739.57,293.15 739.96,293.09 740.36,293.03 740.75,292.97 741.15,292.91 741.55,292.85 741.94,292.79 742.34,292.73 742.74,292.68 743.13,292.62 743.53,292.56 743.93,292.50 744.32,292.44 744.72,292.38 745.12,292.32 745.51,292.26 745.91,292.20 746.31,292.14 746.70,292.09 747.10,292.03 747.50,291.97 747.89,291.91 748.29,291.85 748.68,291.80 749.08,291.74 749.48,291.68 749.87,291.62 750.27,291.57 750.67,291.51 751.06,291.45 751.46,291.39 751.86,291.34 752.25,291.28 752.65,291.22 753.05,291.16 753.44,291.11 753.84,291.05 754.24,290.99 754.63,290.94 755.03,290.88 755.42,290.83 755.82,290.77 756.22,290.71 756.61,290.66 757.01,290.60 757.41,290.55 757.80,290.49 758.20,290.43 758.60,290.38 758.99,290.32 759.39,290.27 759.79,290.21 760.18,290.16 760.58,290.10 760.98,290.05 761.37,289.99 761.77,289.94 762.16,289.88 762.56,289.83 762.96,289.77 763.35,289.72 763.75,289.66 764.15,289.61 764.54,289.56 764.94,289.50 765.34,289.45 765.73,289.39 766.13,289.34 766.53,289.29 766.92,289.23 767.32,289.18 767.72,289.13 768.11,289.07 768.51,289.02 768.91,288.97 769.30,288.91 769.70,288.86 770.09,288.81 770.49,288.75 770.89,288.70 771.28,288.65 771.68,288.60 772.08,288.54 772.47,288.49 772.87,288.44 773.27,288.39 773.66,288.34 774.06,288.28 774.46,288.23 774.85,288.18 775.25,288.13 775.65,288.08 776.04,288.02 776.44,287.97 776.83,287.92 777.23,287.87 777.63,287.82 778.02,287.77 778.42,287.72 778.82,287.67 779.21,287.62 779.61,287.56 780.01,287.51 780.40,287.46 780.80,287.41 781.20,287.36 781.59,287.31 781.99,287.26 782.39,287.21 782.78,287.16 783.18,287.11 783.58,287.06 783.97,287.01 784.37,286.96 784.76,286.91 785.16,286.86 785.56,286.81 785.95,286.76 786.33,286.72 786.70,286.67 786.72,286.47 786.76,286.00 786.83,284.90 786.91,283.43 786.92,283.21 786.95,282.79 787.01,281.94 787.12,280.28 787.35,277.08 787.74,271.86 788.14,267.08 788.54,262.66 788.93,258.59 789.33,254.84 789.73,251.40 790.12,248.25 790.52,245.37 790.91,242.73 791.31,240.31 791.71,238.11 792.10,236.10 792.50,234.27 792.90,232.60 793.29,231.08 793.69,229.70 794.09,228.45 794.48,227.30 794.88,226.27 795.28,225.33 795.67,224.47 796.07,223.70 796.47,223.00 796.86,222.37 797.26,221.79 797.66,221.28 798.05,220.81 798.45,220.40 798.84,220.02 799.24,219.68 799.64,219.38 800.03,219.11 800.43,218.87 800.83,218.66 801.22,218.47 801.62,218.31 802.02,218.16 802.41,218.03 802.81,217.92 803.21,217.83 803.60,217.75 804.00,217.68 804.40,217.63 804.79,217.58 805.19,217.55 805.58,217.52 805.98,217.50 806.38,217.49 806.77,217.48 807.17,217.49 807.57,217.49 807.96,217.51 808.36,217.52 808.76,217.55 809.15,217.57 809.55,217.60 809.95,217.63 810.34,217.67 810.74,217.70 811.14,217.74 811.53,217.78 811.93,217.83 812.33,217.87 812.72,217.92 813.12,217.97 813.51,218.02 813.91,218.07 814.31,218.12 814.70,218.18 815.10,218.23 815.50,218.28 815.89,218.34 816.29,218.40 816.69,218.45 817.08,218.51 817.48,218.57 817.88,218.63 818.27,218.69 818.67,218.74 819.07,218.80 819.46,218.86 819.86,218.92 820.25,218.98 820.65,219.04 821.05,219.10 821.44,219.16 821.84,219.22 822.24,219.29 822.63,219.35 823.03,219.41 823.43,219.47 823.82,219.53 824.22,219.59 824.62,219.65 825.01,219.71 825.41,219.77 825.81,219.83 826.20,219.89 826.60,219.96 826.99,220.02 827.39,220.08 827.79,220.14 828.18,220.20 828.58,220.26 828.98,220.32 829.37,220.38 829.77,220.44 830.17,220.50 830.56,220.56 830.96,220.62 831.36,220.68 831.75,220.74 832.15,220.80 832.55,220.86 832.94,220.92 833.34,220.98 833.74,221.04 834.13,221.10 834.53,221.16 834.92,221.22 835.32,221.28 835.72,221.34 836.11,221.40 836.51,221.46 836.91,221.52 837.30,221.58 837.70,221.63 838.10,221.69 838.49,221.75 838.89,221.81 839.29,221.87 839.68,221.93 840.08,221.99 840.48,222.04 840.87,222.10 841.27,222.16 841.66,222.22 842.06,222.28 842.46,222.33 842.85,222.39 843.25,222.45 843.65,222.51 844.04,222.56 844.44,222.62 844.84,222.68 845.23,222.74 845.63,222.79 846.03,222.85 846.42,222.91 846.82,222.96 847.22,223.02 847.61,223.08 848.01,223.13 848.41,223.19 848.80,223.25 849.20,223.30 849.59,223.36 849.99,223.42 850.39,223.47 850.78,223.53 851.18,223.58 851.58,223.64 851.97,223.70 852.37,223.75 852.77,223.81 853.16,223.86 853.56,223.92 853.96,223.97 854.35,224.03 854.75,224.08 855.15,224.14 855.54,224.19 855.94,224.25 856.33,224.30 856.73,224.36 857.13,224.41 857.52,224.47 857.92,224.52 858.32,224.58 858.71,224.63 859.11,224.68 859.51,224.74 859.90,224.79 860.30,224.85 860.70,224.90 861.09,224.95 861.49,225.01 861.89,225.06 862.28,225.11 862.68,225.17 863.08,225.22 863.47,225.28 863.87,225.33 864.26,225.38 864.66,225.43 865.06,225.49 865.45,225.54 865.85,225.59 866.25,225.65 866.64,225.70 867.04,225.75 867.44,225.80 867.83,225.86 868.23,225.91 868.63,225.96 869.02,226.01 869.42,226.06 869.82,226.12 870.21,226.17 870.61,226.22 871.00,226.27 871.40,226.32 871.80,226.37 872.19,226.43 872.59,226.48 872.99,226.53 873.38,226.58 873.78,226.63 874.18,226.68 874.57,226.73 874.97,226.78 875.37,226.84 875.76,226.89 876.16,226.94 876.56,226.99 876.95,227.04 877.35,227.09 877.74,227.14 878.14,227.19 878.54,227.24 878.93,227.29 879.33,227.34 879.73,227.39 880.12,227.44 880.52,227.49 880.92,227.54 881.31,227.59 881.71,227.64 882.11,227.69 882.50,227.74 882.90,227.79 883.30,227.84 883.69,227.89 884.09,227.93 884.49,227.98 884.88,228.03 885.28,228.08 885.67,228.13 886.07,228.18 886.47,228.23 886.86,228.28 887.26,228.32 887.63,228.37" fill="none" stroke="#1665d8" stroke-width="3" stroke-linejoin="round"/>
<line x1="660" y1="88" x2="696" y2="88" stroke="#1665d8" stroke-width="3"/>
<text x="706" y="93" font-family="Arial, Helvetica, sans-serif" font-size="13" font-weight="400" text-anchor="start" fill="#111">load output</text>
<polyline points="76.00,297.60 76.02,289.68 76.06,273.84 76.13,246.12 76.20,218.40 76.22,218.40 76.25,218.40 76.30,218.40 76.42,218.40 76.64,218.40 77.04,218.40 77.44,218.40 77.83,218.40 78.23,218.40 78.63,218.40 79.02,218.40 79.42,218.40 79.82,218.40 80.21,218.40 80.61,218.40 81.00,218.40 81.40,218.40 81.80,218.40 82.19,218.40 82.59,218.40 82.99,218.40 83.38,218.40 83.78,218.40 84.18,218.40 84.57,218.40 84.97,218.40 85.37,218.40 85.76,218.40 86.16,218.40 86.56,218.40 86.95,218.40 87.35,218.40 87.75,218.40 88.14,218.40 88.54,218.40 88.93,218.40 89.33,218.40 89.73,218.40 90.12,218.40 90.52,218.40 90.92,218.40 91.31,218.40 91.71,218.40 92.11,218.40 92.50,218.40 92.90,218.40 93.30,218.40 93.69,218.40 94.09,218.40 94.49,218.40 94.88,218.40 95.28,218.40 95.67,218.40 96.07,218.40 96.47,218.40 96.86,218.40 97.26,218.40 97.66,218.40 98.05,218.40 98.45,218.40 98.85,218.40 99.24,218.40 99.64,218.40 100.04,218.40 100.43,218.40 100.83,218.40 101.23,218.40 101.62,218.40 102.02,218.40 102.41,218.40 102.81,218.40 103.21,218.40 103.60,218.40 104.00,218.40 104.40,218.40 104.79,218.40 105.19,218.40 105.59,218.40 105.98,218.40 106.38,218.40 106.78,218.40 107.17,218.40 107.57,218.40 107.97,218.40 108.36,218.40 108.76,218.40 109.16,218.40 109.55,218.40 109.95,218.40 110.34,218.40 110.74,218.40 111.14,218.40 111.53,218.40 111.93,218.40 112.33,218.40 112.72,218.40 113.12,218.40 113.52,218.40 113.91,218.40 114.31,218.40 114.71,218.40 115.10,218.40 115.50,218.40 115.90,218.40 116.29,218.40 116.69,218.40 117.08,218.40 117.48,218.40 117.88,218.40 118.27,218.40 118.67,218.40 119.07,218.40 119.46,218.40 119.86,218.40 120.26,218.40 120.65,218.40 121.05,218.40 121.45,218.40 121.84,218.40 122.24,218.40 122.64,218.40 123.03,218.40 123.43,218.40 123.83,218.40 124.22,218.40 124.62,218.40 125.01,218.40 125.41,218.40 125.81,218.40 126.20,218.40 126.60,218.40 127.00,218.40 127.39,218.40 127.79,218.40 128.19,218.40 128.58,218.40 128.98,218.40 129.38,218.40 129.77,218.40 130.17,218.40 130.57,218.40 130.96,218.40 131.36,218.40 131.75,218.40 132.15,218.40 132.55,218.40 132.94,218.40 133.34,218.40 133.74,218.40 134.13,218.40 134.53,218.40 134.93,218.40 135.32,218.40 135.72,218.40 136.12,218.40 136.51,218.40 136.91,218.40 137.31,218.40 137.70,218.40 138.10,218.40 138.50,218.40 138.89,218.40 139.29,218.40 139.68,218.40 140.08,218.40 140.48,218.40 140.87,218.40 141.27,218.40 141.67,218.40 142.06,218.40 142.46,218.40 142.86,218.40 143.25,218.40 143.65,218.40 144.05,218.40 144.44,218.40 144.84,218.40 145.24,218.40 145.63,218.40 146.03,218.40 146.42,218.40 146.82,218.40 147.22,218.40 147.61,218.40 148.01,218.40 148.41,218.40 148.80,218.40 149.20,218.40 149.60,218.40 149.99,218.40 150.39,218.40 150.79,218.40 151.18,218.40 151.58,218.40 151.98,218.40 152.37,218.40 152.77,218.40 153.16,218.40 153.56,218.40 153.96,218.40 154.35,218.40 154.75,218.40 155.15,218.40 155.54,218.40 155.94,218.40 156.34,218.40 156.73,218.40 157.13,218.40 157.53,218.40 157.92,218.40 158.32,218.40 158.72,218.40 159.11,218.40 159.51,218.40 159.91,218.40 160.30,218.40 160.70,218.40 161.09,218.40 161.49,218.40 161.89,218.40 162.28,218.40 162.68,218.40 163.08,218.40 163.47,218.40 163.87,218.40 164.27,218.40 164.66,218.40 165.06,218.40 165.46,218.40 165.85,218.40 166.25,218.40 166.65,218.40 167.04,218.40 167.44,218.40 167.83,218.40 168.23,218.40 168.63,218.40 169.02,218.40 169.42,218.40 169.82,218.40 170.21,218.40 170.61,218.40 171.01,218.40 171.40,218.40 171.80,218.40 172.20,218.40 172.59,218.40 172.99,218.40 173.39,218.40 173.78,218.40 174.18,218.40 174.58,218.40 174.97,218.40 175.37,218.40 175.76,218.40 176.16,218.40 176.56,218.40 176.95,218.40 177.33,218.40 177.70,218.40 177.72,226.32 177.76,242.16 177.83,269.88 177.91,297.60 177.92,297.60 177.95,297.60 178.01,297.60 178.12,297.60 178.35,297.60 178.74,297.60 179.14,297.60 179.54,297.60 179.93,297.60 180.33,297.60 180.73,297.60 181.12,297.60 181.52,297.60 181.91,297.60 182.31,297.60 182.71,297.60 183.10,297.60 183.50,297.60 183.90,297.60 184.29,297.60 184.69,297.60 185.09,297.60 185.48,297.60 185.88,297.60 186.28,297.60 186.67,297.60 187.07,297.60 187.47,297.60 187.86,297.60 188.26,297.60 188.66,297.60 189.05,297.60 189.45,297.60 189.84,297.60 190.24,297.60 190.64,297.60 191.03,297.60 191.43,297.60 191.83,297.60 192.22,297.60 192.62,297.60 193.02,297.60 193.41,297.60 193.81,297.60 194.21,297.60 194.60,297.60 195.00,297.60 195.40,297.60 195.79,297.60 196.19,297.60 196.58,297.60 196.98,297.60 197.38,297.60 197.77,297.60 198.17,297.60 198.57,297.60 198.96,297.60 199.36,297.60 199.76,297.60 200.15,297.60 200.55,297.60 200.95,297.60 201.34,297.60 201.74,297.60 202.14,297.60 202.53,297.60 202.93,297.60 203.33,297.60 203.72,297.60 204.12,297.60 204.51,297.60 204.91,297.60 205.31,297.60 205.70,297.60 206.10,297.60 206.50,297.60 206.89,297.60 207.29,297.60 207.69,297.60 208.08,297.60 208.48,297.60 208.88,297.60 209.27,297.60 209.67,297.60 210.07,297.60 210.46,297.60 210.86,297.60 211.25,297.60 211.65,297.60 212.05,297.60 212.44,297.60 212.84,297.60 213.24,297.60 213.63,297.60 214.03,297.60 214.43,297.60 214.82,297.60 215.22,297.60 215.62,297.60 216.01,297.60 216.41,297.60 216.81,297.60 217.20,297.60 217.60,297.60 217.99,297.60 218.39,297.60 218.79,297.60 219.18,297.60 219.58,297.60 219.98,297.60 220.37,297.60 220.77,297.60 221.17,297.60 221.56,297.60 221.96,297.60 222.36,297.60 222.75,297.60 223.15,297.60 223.55,297.60 223.94,297.60 224.34,297.60 224.74,297.60 225.13,297.60 225.53,297.60 225.92,297.60 226.32,297.60 226.72,297.60 227.11,297.60 227.51,297.60 227.91,297.60 228.30,297.60 228.70,297.60 229.10,297.60 229.49,297.60 229.89,297.60 230.29,297.60 230.68,297.60 231.08,297.60 231.48,297.60 231.87,297.60 232.27,297.60 232.66,297.60 233.06,297.60 233.46,297.60 233.85,297.60 234.25,297.60 234.65,297.60 235.04,297.60 235.44,297.60 235.84,297.60 236.23,297.60 236.63,297.60 237.03,297.60 237.42,297.60 237.82,297.60 238.22,297.60 238.61,297.60 239.01,297.60 239.41,297.60 239.80,297.60 240.20,297.60 240.59,297.60 240.99,297.60 241.39,297.60 241.78,297.60 242.18,297.60 242.58,297.60 242.97,297.60 243.37,297.60 243.77,297.60 244.16,297.60 244.56,297.60 244.96,297.60 245.35,297.60 245.75,297.60 246.15,297.60 246.54,297.60 246.94,297.60 247.33,297.60 247.73,297.60 248.13,297.60 248.52,297.60 248.92,297.60 249.32,297.60 249.71,297.60 250.11,297.60 250.51,297.60 250.90,297.60 251.30,297.60 251.70,297.60 252.09,297.60 252.49,297.60 252.89,297.60 253.28,297.60 253.68,297.60 254.08,297.60 254.47,297.60 254.87,297.60 255.26,297.60 255.66,297.60 256.06,297.60 256.45,297.60 256.85,297.60 257.25,297.60 257.64,297.60 258.04,297.60 258.44,297.60 258.83,297.60 259.23,297.60 259.63,297.60 260.02,297.60 260.42,297.60 260.82,297.60 261.21,297.60 261.61,297.60 262.00,297.60 262.40,297.60 262.80,297.60 263.19,297.60 263.59,297.60 263.99,297.60 264.38,297.60 264.78,297.60 265.18,297.60 265.57,297.60 265.97,297.60 266.37,297.60 266.76,297.60 267.16,297.60 267.56,297.60 267.95,297.60 268.35,297.60 268.74,297.60 269.14,297.60 269.54,297.60 269.93,297.60 270.33,297.60 270.73,297.60 271.12,297.60 271.52,297.60 271.92,297.60 272.31,297.60 272.71,297.60 273.11,297.60 273.50,297.60 273.90,297.60 274.30,297.60 274.69,297.60 275.09,297.60 275.49,297.60 275.88,297.60 276.28,297.60 276.67,297.60 277.07,297.60 277.47,297.60 277.86,297.60 278.26,297.60 278.63,297.60 279.00,297.60 279.02,289.68 279.06,273.84 279.13,246.12 279.20,218.40 279.22,218.40 279.25,218.40 279.30,218.40 279.42,218.40 279.64,218.40 280.04,218.40 280.44,218.40 280.83,218.40 281.23,218.40 281.63,218.40 282.02,218.40 282.42,218.40 282.82,218.40 283.21,218.40 283.61,218.40 284.00,218.40 284.40,218.40 284.80,218.40 285.19,218.40 285.59,218.40 285.99,218.40 286.38,218.40 286.78,218.40 287.18,218.40 287.57,218.40 287.97,218.40 288.37,218.40 288.76,218.40 289.16,218.40 289.56,218.40 289.95,218.40 290.35,218.40 290.75,218.40 291.14,218.40 291.54,218.40 291.93,218.40 292.33,218.40 292.73,218.40 293.12,218.40 293.52,218.40 293.92,218.40 294.31,218.40 294.71,218.40 295.11,218.40 295.50,218.40 295.90,218.40 296.30,218.40 296.69,218.40 297.09,218.40 297.49,218.40 297.88,218.40 298.28,218.40 298.67,218.40 299.07,218.40 299.47,218.40 299.86,218.40 300.26,218.40 300.66,218.40 301.05,218.40 301.45,218.40 301.85,218.40 302.24,218.40 302.64,218.40 303.04,218.40 303.43,218.40 303.83,218.40 304.23,218.40 304.62,218.40 305.02,218.40 305.41,218.40 305.81,218.40 306.21,218.40 306.60,218.40 307.00,218.40 307.40,218.40 307.79,218.40 308.19,218.40 308.59,218.40 308.98,218.40 309.38,218.40 309.78,218.40 310.17,218.40 310.57,218.40 310.97,218.40 311.36,218.40 311.76,218.40 312.16,218.40 312.55,218.40 312.95,218.40 313.34,218.40 313.74,218.40 314.14,218.40 314.53,218.40 314.93,218.40 315.33,218.40 315.72,218.40 316.12,218.40 316.52,218.40 316.91,218.40 317.31,218.40 317.71,218.40 318.10,218.40 318.50,218.40 318.90,218.40 319.29,218.40 319.69,218.40 320.08,218.40 320.48,218.40 320.88,218.40 321.27,218.40 321.67,218.40 322.07,218.40 322.46,218.40 322.86,218.40 323.26,218.40 323.65,218.40 324.05,218.40 324.45,218.40 324.84,218.40 325.24,218.40 325.64,218.40 326.03,218.40 326.43,218.40 326.83,218.40 327.22,218.40 327.62,218.40 328.01,218.40 328.41,218.40 328.81,218.40 329.20,218.40 329.60,218.40 330.00,218.40 330.39,218.40 330.79,218.40 331.19,218.40 331.58,218.40 331.98,218.40 332.38,218.40 332.77,218.40 333.17,218.40 333.57,218.40 333.96,218.40 334.36,218.40 334.75,218.40 335.15,218.40 335.55,218.40 335.94,218.40 336.34,218.40 336.74,218.40 337.13,218.40 337.53,218.40 337.93,218.40 338.32,218.40 338.72,218.40 339.12,218.40 339.51,218.40 339.91,218.40 340.31,218.40 340.70,218.40 341.10,218.40 341.50,218.40 341.89,218.40 342.29,218.40 342.68,218.40 343.08,218.40 343.48,218.40 343.87,218.40 344.27,218.40 344.67,218.40 345.06,218.40 345.46,218.40 345.86,218.40 346.25,218.40 346.65,218.40 347.05,218.40 347.44,218.40 347.84,218.40 348.24,218.40 348.63,218.40 349.03,218.40 349.42,218.40 349.82,218.40 350.22,218.40 350.61,218.40 351.01,218.40 351.41,218.40 351.80,218.40 352.20,218.40 352.60,218.40 352.99,218.40 353.39,218.40 353.79,218.40 354.18,218.40 354.58,218.40 354.98,218.40 355.37,218.40 355.77,218.40 356.16,218.40 356.56,218.40 356.96,218.40 357.35,218.40 357.75,218.40 358.15,218.40 358.54,218.40 358.94,218.40 359.34,218.40 359.73,218.40 360.13,218.40 360.53,218.40 360.92,218.40 361.32,218.40 361.72,218.40 362.11,218.40 362.51,218.40 362.91,218.40 363.30,218.40 363.70,218.40 364.09,218.40 364.49,218.40 364.89,218.40 365.28,218.40 365.68,218.40 366.08,218.40 366.47,218.40 366.87,218.40 367.27,218.40 367.66,218.40 368.06,218.40 368.46,218.40 368.85,218.40 369.25,218.40 369.65,218.40 370.04,218.40 370.44,218.40 370.83,218.40 371.23,218.40 371.63,218.40 372.02,218.40 372.42,218.40 372.82,218.40 373.21,218.40 373.61,218.40 374.01,218.40 374.40,218.40 374.80,218.40 375.20,218.40 375.59,218.40 375.99,218.40 376.39,218.40 376.78,218.40 377.18,218.40 377.58,218.40 377.97,218.40 378.37,218.40 378.76,218.40 379.16,218.40 379.56,218.40 379.95,218.40 380.33,218.40 380.70,218.40 380.72,226.32 380.76,242.16 380.83,269.88 380.91,297.60 380.92,297.60 380.95,297.60 381.01,297.60 381.12,297.60 381.35,297.60 381.74,297.60 382.14,297.60 382.54,297.60 382.93,297.60 383.33,297.60 383.73,297.60 384.12,297.60 384.52,297.60 384.91,297.60 385.31,297.60 385.71,297.60 386.10,297.60 386.50,297.60 386.90,297.60 387.29,297.60 387.69,297.60 388.09,297.60 388.48,297.60 388.88,297.60 389.28,297.60 389.67,297.60 390.07,297.60 390.47,297.60 390.86,297.60 391.26,297.60 391.66,297.60 392.05,297.60 392.45,297.60 392.84,297.60 393.24,297.60 393.64,297.60 394.03,297.60 394.43,297.60 394.83,297.60 395.22,297.60 395.62,297.60 396.02,297.60 396.41,297.60 396.81,297.60 397.21,297.60 397.60,297.60 398.00,297.60 398.40,297.60 398.79,297.60 399.19,297.60 399.58,297.60 399.98,297.60 400.38,297.60 400.77,297.60 401.17,297.60 401.57,297.60 401.96,297.60 402.36,297.60 402.76,297.60 403.15,297.60 403.55,297.60 403.95,297.60 404.34,297.60 404.74,297.60 405.14,297.60 405.53,297.60 405.93,297.60 406.33,297.60 406.72,297.60 407.12,297.60 407.51,297.60 407.91,297.60 408.31,297.60 408.70,297.60 409.10,297.60 409.50,297.60 409.89,297.60 410.29,297.60 410.69,297.60 411.08,297.60 411.48,297.60 411.88,297.60 412.27,297.60 412.67,297.60 413.07,297.60 413.46,297.60 413.86,297.60 414.25,297.60 414.65,297.60 415.05,297.60 415.44,297.60 415.84,297.60 416.24,297.60 416.63,297.60 417.03,297.60 417.43,297.60 417.82,297.60 418.22,297.60 418.62,297.60 419.01,297.60 419.41,297.60 419.81,297.60 420.20,297.60 420.60,297.60 420.99,297.60 421.39,297.60 421.79,297.60 422.18,297.60 422.58,297.60 422.98,297.60 423.37,297.60 423.77,297.60 424.17,297.60 424.56,297.60 424.96,297.60 425.36,297.60 425.75,297.60 426.15,297.60 426.55,297.60 426.94,297.60 427.34,297.60 427.74,297.60 428.13,297.60 428.53,297.60 428.92,297.60 429.32,297.60 429.72,297.60 430.11,297.60 430.51,297.60 430.91,297.60 431.30,297.60 431.70,297.60 432.10,297.60 432.49,297.60 432.89,297.60 433.29,297.60 433.68,297.60 434.08,297.60 434.48,297.60 434.87,297.60 435.27,297.60 435.66,297.60 436.06,297.60 436.46,297.60 436.85,297.60 437.25,297.60 437.65,297.60 438.04,297.60 438.44,297.60 438.84,297.60 439.23,297.60 439.63,297.60 440.03,297.60 440.42,297.60 440.82,297.60 441.22,297.60 441.61,297.60 442.01,297.60 442.41,297.60 442.80,297.60 443.20,297.60 443.59,297.60 443.99,297.60 444.39,297.60 444.78,297.60 445.18,297.60 445.58,297.60 445.97,297.60 446.37,297.60 446.77,297.60 447.16,297.60 447.56,297.60 447.96,297.60 448.35,297.60 448.75,297.60 449.15,297.60 449.54,297.60 449.94,297.60 450.33,297.60 450.73,297.60 451.13,297.60 451.52,297.60 451.92,297.60 452.32,297.60 452.71,297.60 453.11,297.60 453.51,297.60 453.90,297.60 454.30,297.60 454.70,297.60 455.09,297.60 455.49,297.60 455.89,297.60 456.28,297.60 456.68,297.60 457.08,297.60 457.47,297.60 457.87,297.60 458.26,297.60 458.66,297.60 459.06,297.60 459.45,297.60 459.85,297.60 460.25,297.60 460.64,297.60 461.04,297.60 461.44,297.60 461.83,297.60 462.23,297.60 462.63,297.60 463.02,297.60 463.42,297.60 463.82,297.60 464.21,297.60 464.61,297.60 465.00,297.60 465.40,297.60 465.80,297.60 466.19,297.60 466.59,297.60 466.99,297.60 467.38,297.60 467.78,297.60 468.18,297.60 468.57,297.60 468.97,297.60 469.37,297.60 469.76,297.60 470.16,297.60 470.56,297.60 470.95,297.60 471.35,297.60 471.74,297.60 472.14,297.60 472.54,297.60 472.93,297.60 473.33,297.60 473.73,297.60 474.12,297.60 474.52,297.60 474.92,297.60 475.31,297.60 475.71,297.60 476.11,297.60 476.50,297.60 476.90,297.60 477.30,297.60 477.69,297.60 478.09,297.60 478.49,297.60 478.88,297.60 479.28,297.60 479.67,297.60 480.07,297.60 480.47,297.60 480.86,297.60 481.26,297.60 481.63,297.60 482.00,297.60 482.02,289.68 482.06,273.84 482.13,246.12 482.20,218.40 482.22,218.40 482.25,218.40 482.30,218.40 482.42,218.40 482.64,218.40 483.04,218.40 483.44,218.40 483.83,218.40 484.23,218.40 484.63,218.40 485.02,218.40 485.42,218.40 485.82,218.40 486.21,218.40 486.61,218.40 487.00,218.40 487.40,218.40 487.80,218.40 488.19,218.40 488.59,218.40 488.99,218.40 489.38,218.40 489.78,218.40 490.18,218.40 490.57,218.40 490.97,218.40 491.37,218.40 491.76,218.40 492.16,218.40 492.56,218.40 492.95,218.40 493.35,218.40 493.75,218.40 494.14,218.40 494.54,218.40 494.93,218.40 495.33,218.40 495.73,218.40 496.12,218.40 496.52,218.40 496.92,218.40 497.31,218.40 497.71,218.40 498.11,218.40 498.50,218.40 498.90,218.40 499.30,218.40 499.69,218.40 500.09,218.40 500.49,218.40 500.88,218.40 501.28,218.40 501.67,218.40 502.07,218.40 502.47,218.40 502.86,218.40 503.26,218.40 503.66,218.40 504.05,218.40 504.45,218.40 504.85,218.40 505.24,218.40 505.64,218.40 506.04,218.40 506.43,218.40 506.83,218.40 507.23,218.40 507.62,218.40 508.02,218.40 508.41,218.40 508.81,218.40 509.21,218.40 509.60,218.40 510.00,218.40 510.40,218.40 510.79,218.40 511.19,218.40 511.59,218.40 511.98,218.40 512.38,218.40 512.78,218.40 513.17,218.40 513.57,218.40 513.97,218.40 514.36,218.40 514.76,218.40 515.16,218.40 515.55,218.40 515.95,218.40 516.34,218.40 516.74,218.40 517.14,218.40 517.53,218.40 517.93,218.40 518.33,218.40 518.72,218.40 519.12,218.40 519.52,218.40 519.91,218.40 520.31,218.40 520.71,218.40 521.10,218.40 521.50,218.40 521.90,218.40 522.29,218.40 522.69,218.40 523.08,218.40 523.48,218.40 523.88,218.40 524.27,218.40 524.67,218.40 525.07,218.40 525.46,218.40 525.86,218.40 526.26,218.40 526.65,218.40 527.05,218.40 527.45,218.40 527.84,218.40 528.24,218.40 528.64,218.40 529.03,218.40 529.43,218.40 529.83,218.40 530.22,218.40 530.62,218.40 531.01,218.40 531.41,218.40 531.81,218.40 532.20,218.40 532.60,218.40 533.00,218.40 533.39,218.40 533.79,218.40 534.19,218.40 534.58,218.40 534.98,218.40 535.38,218.40 535.77,218.40 536.17,218.40 536.57,218.40 536.96,218.40 537.36,218.40 537.75,218.40 538.15,218.40 538.55,218.40 538.94,218.40 539.34,218.40 539.74,218.40 540.13,218.40 540.53,218.40 540.93,218.40 541.32,218.40 541.72,218.40 542.12,218.40 542.51,218.40 542.91,218.40 543.31,218.40 543.70,218.40 544.10,218.40 544.50,218.40 544.89,218.40 545.29,218.40 545.68,218.40 546.08,218.40 546.48,218.40 546.87,218.40 547.27,218.40 547.67,218.40 548.06,218.40 548.46,218.40 548.86,218.40 549.25,218.40 549.65,218.40 550.05,218.40 550.44,218.40 550.84,218.40 551.24,218.40 551.63,218.40 552.03,218.40 552.42,218.40 552.82,218.40 553.22,218.40 553.61,218.40 554.01,218.40 554.41,218.40 554.80,218.40 555.20,218.40 555.60,218.40 555.99,218.40 556.39,218.40 556.79,218.40 557.18,218.40 557.58,218.40 557.98,218.40 558.37,218.40 558.77,218.40 559.16,218.40 559.56,218.40 559.96,218.40 560.35,218.40 560.75,218.40 561.15,218.40 561.54,218.40 561.94,218.40 562.34,218.40 562.73,218.40 563.13,218.40 563.53,218.40 563.92,218.40 564.32,218.40 564.72,218.40 565.11,218.40 565.51,218.40 565.91,218.40 566.30,218.40 566.70,218.40 567.09,218.40 567.49,218.40 567.89,218.40 568.28,218.40 568.68,218.40 569.08,218.40 569.47,218.40 569.87,218.40 570.27,218.40 570.66,218.40 571.06,218.40 571.46,218.40 571.85,218.40 572.25,218.40 572.65,218.40 573.04,218.40 573.44,218.40 573.83,218.40 574.23,218.40 574.63,218.40 575.02,218.40 575.42,218.40 575.82,218.40 576.21,218.40 576.61,218.40 577.01,218.40 577.40,218.40 577.80,218.40 578.20,218.40 578.59,218.40 578.99,218.40 579.39,218.40 579.78,218.40 580.18,218.40 580.58,218.40 580.97,218.40 581.37,218.40 581.76,218.40 582.16,218.40 582.56,218.40 582.95,218.40 583.33,218.40 583.70,218.40 583.72,226.32 583.76,242.16 583.83,269.88 583.91,297.60 583.92,297.60 583.95,297.60 584.01,297.60 584.12,297.60 584.35,297.60 584.74,297.60 585.14,297.60 585.54,297.60 585.93,297.60 586.33,297.60 586.73,297.60 587.12,297.60 587.52,297.60 587.91,297.60 588.31,297.60 588.71,297.60 589.10,297.60 589.50,297.60 589.90,297.60 590.29,297.60 590.69,297.60 591.09,297.60 591.48,297.60 591.88,297.60 592.28,297.60 592.67,297.60 593.07,297.60 593.47,297.60 593.86,297.60 594.26,297.60 594.66,297.60 595.05,297.60 595.45,297.60 595.84,297.60 596.24,297.60 596.64,297.60 597.03,297.60 597.43,297.60 597.83,297.60 598.22,297.60 598.62,297.60 599.02,297.60 599.41,297.60 599.81,297.60 600.21,297.60 600.60,297.60 601.00,297.60 601.40,297.60 601.79,297.60 602.19,297.60 602.58,297.60 602.98,297.60 603.38,297.60 603.77,297.60 604.17,297.60 604.57,297.60 604.96,297.60 605.36,297.60 605.76,297.60 606.15,297.60 606.55,297.60 606.95,297.60 607.34,297.60 607.74,297.60 608.14,297.60 608.53,297.60 608.93,297.60 609.33,297.60 609.72,297.60 610.12,297.60 610.51,297.60 610.91,297.60 611.31,297.60 611.70,297.60 612.10,297.60 612.50,297.60 612.89,297.60 613.29,297.60 613.69,297.60 614.08,297.60 614.48,297.60 614.88,297.60 615.27,297.60 615.67,297.60 616.07,297.60 616.46,297.60 616.86,297.60 617.25,297.60 617.65,297.60 618.05,297.60 618.44,297.60 618.84,297.60 619.24,297.60 619.63,297.60 620.03,297.60 620.43,297.60 620.82,297.60 621.22,297.60 621.62,297.60 622.01,297.60 622.41,297.60 622.81,297.60 623.20,297.60 623.60,297.60 623.99,297.60 624.39,297.60 624.79,297.60 625.18,297.60 625.58,297.60 625.98,297.60 626.37,297.60 626.77,297.60 627.17,297.60 627.56,297.60 627.96,297.60 628.36,297.60 628.75,297.60 629.15,297.60 629.55,297.60 629.94,297.60 630.34,297.60 630.74,297.60 631.13,297.60 631.53,297.60 631.92,297.60 632.32,297.60 632.72,297.60 633.11,297.60 633.51,297.60 633.91,297.60 634.30,297.60 634.70,297.60 635.10,297.60 635.49,297.60 635.89,297.60 636.29,297.60 636.68,297.60 637.08,297.60 637.48,297.60 637.87,297.60 638.27,297.60 638.66,297.60 639.06,297.60 639.46,297.60 639.85,297.60 640.25,297.60 640.65,297.60 641.04,297.60 641.44,297.60 641.84,297.60 642.23,297.60 642.63,297.60 643.03,297.60 643.42,297.60 643.82,297.60 644.22,297.60 644.61,297.60 645.01,297.60 645.41,297.60 645.80,297.60 646.20,297.60 646.59,297.60 646.99,297.60 647.39,297.60 647.78,297.60 648.18,297.60 648.58,297.60 648.97,297.60 649.37,297.60 649.77,297.60 650.16,297.60 650.56,297.60 650.96,297.60 651.35,297.60 651.75,297.60 652.15,297.60 652.54,297.60 652.94,297.60 653.33,297.60 653.73,297.60 654.13,297.60 654.52,297.60 654.92,297.60 655.32,297.60 655.71,297.60 656.11,297.60 656.51,297.60 656.90,297.60 657.30,297.60 657.70,297.60 658.09,297.60 658.49,297.60 658.89,297.60 659.28,297.60 659.68,297.60 660.08,297.60 660.47,297.60 660.87,297.60 661.26,297.60 661.66,297.60 662.06,297.60 662.45,297.60 662.85,297.60 663.25,297.60 663.64,297.60 664.04,297.60 664.44,297.60 664.83,297.60 665.23,297.60 665.63,297.60 666.02,297.60 666.42,297.60 666.82,297.60 667.21,297.60 667.61,297.60 668.00,297.60 668.40,297.60 668.80,297.60 669.19,297.60 669.59,297.60 669.99,297.60 670.38,297.60 670.78,297.60 671.18,297.60 671.57,297.60 671.97,297.60 672.37,297.60 672.76,297.60 673.16,297.60 673.56,297.60 673.95,297.60 674.35,297.60 674.74,297.60 675.14,297.60 675.54,297.60 675.93,297.60 676.33,297.60 676.73,297.60 677.12,297.60 677.52,297.60 677.92,297.60 678.31,297.60 678.71,297.60 679.11,297.60 679.50,297.60 679.90,297.60 680.30,297.60 680.69,297.60 681.09,297.60 681.49,297.60 681.88,297.60 682.28,297.60 682.67,297.60 683.07,297.60 683.47,297.60 683.86,297.60 684.26,297.60 684.63,297.60 685.00,297.60 685.02,289.68 685.06,273.84 685.13,246.12 685.20,218.40 685.22,218.40 685.25,218.40 685.30,218.40 685.42,218.40 685.64,218.40 686.04,218.40 686.44,218.40 686.83,218.40 687.23,218.40 687.63,218.40 688.02,218.40 688.42,218.40 688.82,218.40 689.21,218.40 689.61,218.40 690.00,218.40 690.40,218.40 690.80,218.40 691.19,218.40 691.59,218.40 691.99,218.40 692.38,218.40 692.78,218.40 693.18,218.40 693.57,218.40 693.97,218.40 694.37,218.40 694.76,218.40 695.16,218.40 695.56,218.40 695.95,218.40 696.35,218.40 696.75,218.40 697.14,218.40 697.54,218.40 697.93,218.40 698.33,218.40 698.73,218.40 699.12,218.40 699.52,218.40 699.92,218.40 700.31,218.40 700.71,218.40 701.11,218.40 701.50,218.40 701.90,218.40 702.30,218.40 702.69,218.40 703.09,218.40 703.49,218.40 703.88,218.40 704.28,218.40 704.67,218.40 705.07,218.40 705.47,218.40 705.86,218.40 706.26,218.40 706.66,218.40 707.05,218.40 707.45,218.40 707.85,218.40 708.24,218.40 708.64,218.40 709.04,218.40 709.43,218.40 709.83,218.40 710.23,218.40 710.62,218.40 711.02,218.40 711.41,218.40 711.81,218.40 712.21,218.40 712.60,218.40 713.00,218.40 713.40,218.40 713.79,218.40 714.19,218.40 714.59,218.40 714.98,218.40 715.38,218.40 715.78,218.40 716.17,218.40 716.57,218.40 716.97,218.40 717.36,218.40 717.76,218.40 718.16,218.40 718.55,218.40 718.95,218.40 719.34,218.40 719.74,218.40 720.14,218.40 720.53,218.40 720.93,218.40 721.33,218.40 721.72,218.40 722.12,218.40 722.52,218.40 722.91,218.40 723.31,218.40 723.71,218.40 724.10,218.40 724.50,218.40 724.90,218.40 725.29,218.40 725.69,218.40 726.08,218.40 726.48,218.40 726.88,218.40 727.27,218.40 727.67,218.40 728.07,218.40 728.46,218.40 728.86,218.40 729.26,218.40 729.65,218.40 730.05,218.40 730.45,218.40 730.84,218.40 731.24,218.40 731.64,218.40 732.03,218.40 732.43,218.40 732.83,218.40 733.22,218.40 733.62,218.40 734.01,218.40 734.41,218.40 734.81,218.40 735.20,218.40 735.60,218.40 736.00,218.40 736.39,218.40 736.79,218.40 737.19,218.40 737.58,218.40 737.98,218.40 738.38,218.40 738.77,218.40 739.17,218.40 739.57,218.40 739.96,218.40 740.36,218.40 740.75,218.40 741.15,218.40 741.55,218.40 741.94,218.40 742.34,218.40 742.74,218.40 743.13,218.40 743.53,218.40 743.93,218.40 744.32,218.40 744.72,218.40 745.12,218.40 745.51,218.40 745.91,218.40 746.31,218.40 746.70,218.40 747.10,218.40 747.50,218.40 747.89,218.40 748.29,218.40 748.68,218.40 749.08,218.40 749.48,218.40 749.87,218.40 750.27,218.40 750.67,218.40 751.06,218.40 751.46,218.40 751.86,218.40 752.25,218.40 752.65,218.40 753.05,218.40 753.44,218.40 753.84,218.40 754.24,218.40 754.63,218.40 755.03,218.40 755.42,218.40 755.82,218.40 756.22,218.40 756.61,218.40 757.01,218.40 757.41,218.40 757.80,218.40 758.20,218.40 758.60,218.40 758.99,218.40 759.39,218.40 759.79,218.40 760.18,218.40 760.58,218.40 760.98,218.40 761.37,218.40 761.77,218.40 762.16,218.40 762.56,218.40 762.96,218.40 763.35,218.40 763.75,218.40 764.15,218.40 764.54,218.40 764.94,218.40 765.34,218.40 765.73,218.40 766.13,218.40 766.53,218.40 766.92,218.40 767.32,218.40 767.72,218.40 768.11,218.40 768.51,218.40 768.91,218.40 769.30,218.40 769.70,218.40 770.09,218.40 770.49,218.40 770.89,218.40 771.28,218.40 771.68,218.40 772.08,218.40 772.47,218.40 772.87,218.40 773.27,218.40 773.66,218.40 774.06,218.40 774.46,218.40 774.85,218.40 775.25,218.40 775.65,218.40 776.04,218.40 776.44,218.40 776.83,218.40 777.23,218.40 777.63,218.40 778.02,218.40 778.42,218.40 778.82,218.40 779.21,218.40 779.61,218.40 780.01,218.40 780.40,218.40 780.80,218.40 781.20,218.40 781.59,218.40 781.99,218.40 782.39,218.40 782.78,218.40 783.18,218.40 783.58,218.40 783.97,218.40 784.37,218.40 784.76,218.40 785.16,218.40 785.56,218.40 785.95,218.40 786.33,218.40 786.70,218.40 786.72,226.32 786.76,242.16 786.83,269.88 786.91,297.60 786.92,297.60 786.95,297.60 787.01,297.60 787.12,297.60 787.35,297.60 787.74,297.60 788.14,297.60 788.54,297.60 788.93,297.60 789.33,297.60 789.73,297.60 790.12,297.60 790.52,297.60 790.91,297.60 791.31,297.60 791.71,297.60 792.10,297.60 792.50,297.60 792.90,297.60 793.29,297.60 793.69,297.60 794.09,297.60 794.48,297.60 794.88,297.60 795.28,297.60 795.67,297.60 796.07,297.60 796.47,297.60 796.86,297.60 797.26,297.60 797.66,297.60 798.05,297.60 798.45,297.60 798.84,297.60 799.24,297.60 799.64,297.60 800.03,297.60 800.43,297.60 800.83,297.60 801.22,297.60 801.62,297.60 802.02,297.60 802.41,297.60 802.81,297.60 803.21,297.60 803.60,297.60 804.00,297.60 804.40,297.60 804.79,297.60 805.19,297.60 805.58,297.60 805.98,297.60 806.38,297.60 806.77,297.60 807.17,297.60 807.57,297.60 807.96,297.60 808.36,297.60 808.76,297.60 809.15,297.60 809.55,297.60 809.95,297.60 810.34,297.60 810.74,297.60 811.14,297.60 811.53,297.60 811.93,297.60 812.33,297.60 812.72,297.60 813.12,297.60 813.51,297.60 813.91,297.60 814.31,297.60 814.70,297.60 815.10,297.60 815.50,297.60 815.89,297.60 816.29,297.60 816.69,297.60 817.08,297.60 817.48,297.60 817.88,297.60 818.27,297.60 818.67,297.60 819.07,297.60 819.46,297.60 819.86,297.60 820.25,297.60 820.65,297.60 821.05,297.60 821.44,297.60 821.84,297.60 822.24,297.60 822.63,297.60 823.03,297.60 823.43,297.60 823.82,297.60 824.22,297.60 824.62,297.60 825.01,297.60 825.41,297.60 825.81,297.60 826.20,297.60 826.60,297.60 826.99,297.60 827.39,297.60 827.79,297.60 828.18,297.60 828.58,297.60 828.98,297.60 829.37,297.60 829.77,297.60 830.17,297.60 830.56,297.60 830.96,297.60 831.36,297.60 831.75,297.60 832.15,297.60 832.55,297.60 832.94,297.60 833.34,297.60 833.74,297.60 834.13,297.60 834.53,297.60 834.92,297.60 835.32,297.60 835.72,297.60 836.11,297.60 836.51,297.60 836.91,297.60 837.30,297.60 837.70,297.60 838.10,297.60 838.49,297.60 838.89,297.60 839.29,297.60 839.68,297.60 840.08,297.60 840.48,297.60 840.87,297.60 841.27,297.60 841.66,297.60 842.06,297.60 842.46,297.60 842.85,297.60 843.25,297.60 843.65,297.60 844.04,297.60 844.44,297.60 844.84,297.60 845.23,297.60 845.63,297.60 846.03,297.60 846.42,297.60 846.82,297.60 847.22,297.60 847.61,297.60 848.01,297.60 848.41,297.60 848.80,297.60 849.20,297.60 849.59,297.60 849.99,297.60 850.39,297.60 850.78,297.60 851.18,297.60 851.58,297.60 851.97,297.60 852.37,297.60 852.77,297.60 853.16,297.60 853.56,297.60 853.96,297.60 854.35,297.60 854.75,297.60 855.15,297.60 855.54,297.60 855.94,297.60 856.33,297.60 856.73,297.60 857.13,297.60 857.52,297.60 857.92,297.60 858.32,297.60 858.71,297.60 859.11,297.60 859.51,297.60 859.90,297.60 860.30,297.60 860.70,297.60 861.09,297.60 861.49,297.60 861.89,297.60 862.28,297.60 862.68,297.60 863.08,297.60 863.47,297.60 863.87,297.60 864.26,297.60 864.66,297.60 865.06,297.60 865.45,297.60 865.85,297.60 866.25,297.60 866.64,297.60 867.04,297.60 867.44,297.60 867.83,297.60 868.23,297.60 868.63,297.60 869.02,297.60 869.42,297.60 869.82,297.60 870.21,297.60 870.61,297.60 871.00,297.60 871.40,297.60 871.80,297.60 872.19,297.60 872.59,297.60 872.99,297.60 873.38,297.60 873.78,297.60 874.18,297.60 874.57,297.60 874.97,297.60 875.37,297.60 875.76,297.60 876.16,297.60 876.56,297.60 876.95,297.60 877.35,297.60 877.74,297.60 878.14,297.60 878.54,297.60 878.93,297.60 879.33,297.60 879.73,297.60 880.12,297.60 880.52,297.60 880.92,297.60 881.31,297.60 881.71,297.60 882.11,297.60 882.50,297.60 882.90,297.60 883.30,297.60 883.69,297.60 884.09,297.60 884.49,297.60 884.88,297.60 885.28,297.60 885.67,297.60 886.07,297.60 886.47,297.60 886.86,297.60 887.26,297.60 887.63,297.60" fill="none" stroke="#b54708" stroke-width="3" stroke-linejoin="round"/>
<line x1="660" y1="114" x2="696" y2="114" stroke="#b54708" stroke-width="3"/>
<text x="706" y="119" font-family="Arial, Helvetica, sans-serif" font-size="13" font-weight="400" text-anchor="start" fill="#111">input x50</text>
<text x="460" y="502" font-family="Arial, Helvetica, sans-serif" font-size="14" font-weight="400" text-anchor="middle" fill="#111">Time after 60 ms settling, ms</text>
<text x="22" y="260" font-family="Arial, Helvetica, sans-serif" font-size="14" text-anchor="middle" fill="#111" transform="rotate(-90 22 260)">Voltage, V</text>
</svg>
