<svg xmlns="http://www.w3.org/2000/svg" width="920" height="520" viewBox="0 0 920 520">
<defs>
<style>
.wire{stroke:#111;stroke-width:2.6;fill:none;stroke-linecap:round;stroke-linejoin:round}
.thin{stroke:#a7b0bd;stroke-width:1.2;fill:none;stroke-linecap:round;stroke-linejoin:round}
.axis{stroke:#111;stroke-width:1.4;fill:none}
.blue{stroke:#1665d8;stroke-width:3;fill:none;stroke-linecap:round;stroke-linejoin:round}
.green{stroke:#13795b;stroke-width:3;fill:none;stroke-linecap:round;stroke-linejoin:round}
.orange{stroke:#b54708;stroke-width:3;fill:none;stroke-linecap:round;stroke-linejoin:round}
.node{fill:#111;stroke:none}
</style>
</defs>
<rect width="100%" height="100%" fill="#fff"/>
<text x="76" y="36" font-family="Arial, Helvetica, sans-serif" font-size="22" font-weight="700" text-anchor="start" fill="#111">Square-wave response, 1 kHz, Vin = 2.0 mVpp</text>
<rect x="76" y="60" width="812" height="396" fill="#fff" stroke="#111" stroke-width="1.4"/>
<line x1="76" y1="60" x2="76" y2="456" class="thin"/>
<text x="76" y="479" font-family="Arial, Helvetica, sans-serif" font-size="12" font-weight="400" text-anchor="middle" fill="#111">0</text>
<line x1="279" y1="60" x2="279" y2="456" class="thin"/>
<text x="279" y="479" font-family="Arial, Helvetica, sans-serif" font-size="12" font-weight="400" text-anchor="middle" fill="#111">1</text>
<line x1="482" y1="60" x2="482" y2="456" class="thin"/>
<text x="482" y="479" font-family="Arial, Helvetica, sans-serif" font-size="12" font-weight="400" text-anchor="middle" fill="#111">2</text>
<line x1="685" y1="60" x2="685" y2="456" class="thin"/>
<text x="685" y="479" font-family="Arial, Helvetica, sans-serif" font-size="12" font-weight="400" text-anchor="middle" fill="#111">3</text>
<line x1="888" y1="60" x2="888" y2="456" class="thin"/>
<text x="888" y="479" font-family="Arial, Helvetica, sans-serif" font-size="12" font-weight="400" text-anchor="middle" fill="#111">4</text>
<line x1="76" y1="456" x2="888" y2="456" class="thin"/>
<text x="66" y="460" font-family="Arial, Helvetica, sans-serif" font-size="12" font-weight="400" text-anchor="end" fill="#111">-0.25</text>
<line x1="76" y1="357" x2="888" y2="357" class="thin"/>
<text x="66" y="361" font-family="Arial, Helvetica, sans-serif" font-size="12" font-weight="400" text-anchor="end" fill="#111">-0.125</text>
<line x1="76" y1="258" x2="888" y2="258" class="thin"/>
<text x="66" y="262" font-family="Arial, Helvetica, sans-serif" font-size="12" font-weight="400" text-anchor="end" fill="#111">0</text>
<line x1="76" y1="159" x2="888" y2="159" class="thin"/>
<text x="66" y="163" font-family="Arial, Helvetica, sans-serif" font-size="12" font-weight="400" text-anchor="end" fill="#111">0.125</text>
<line x1="76" y1="60" x2="888" y2="60" class="thin"/>
<text x="66" y="64" font-family="Arial, Helvetica, sans-serif" font-size="12" font-weight="400" text-anchor="end" fill="#111">0.25</text>
<polyline points="76.00,244.49 76.02,244.57 76.06,244.76 76.13,245.23 76.20,245.87 76.22,245.96 76.25,246.15 76.30,246.51 76.42,247.23 76.64,248.64 77.04,250.96 77.44,253.12 77.83,255.09 78.23,256.87 78.63,258.50 79.02,259.97 79.42,261.31 79.82,262.52 80.21,263.62 80.61,264.62 81.00,265.53 81.40,266.35 81.80,267.09 82.19,267.77 82.59,268.38 82.99,268.93 83.38,269.43 83.78,269.89 84.18,270.30 84.57,270.67 84.97,271.01 85.37,271.31 85.76,271.59 86.16,271.84 86.56,272.07 86.95,272.27 87.35,272.45 87.75,272.62 88.14,272.77 88.54,272.90 88.93,273.02 89.33,273.13 89.73,273.22 90.12,273.31 90.52,273.39 90.92,273.46 91.31,273.52 91.71,273.57 92.11,273.62 92.50,273.66 92.90,273.70 93.30,273.73 93.69,273.75 94.09,273.78 94.49,273.80 94.88,273.81 95.28,273.83 95.67,273.84 96.07,273.85 96.47,273.85 96.86,273.86 97.26,273.86 97.66,273.86 98.05,273.86 98.45,273.86 98.85,273.85 99.24,273.85 99.64,273.84 100.04,273.84 100.43,273.83 100.83,273.82 101.23,273.81 101.62,273.80 102.02,273.79 102.41,273.78 102.81,273.77 103.21,273.76 103.60,273.75 104.00,273.73 104.40,273.72 104.79,273.71 105.19,273.69 105.59,273.68 105.98,273.67 106.38,273.65 106.78,273.64 107.17,273.62 107.57,273.61 107.97,273.59 108.36,273.58 108.76,273.57 109.16,273.55 109.55,273.54 109.95,273.52 110.34,273.51 110.74,273.49 111.14,273.47 111.53,273.46 111.93,273.44 112.33,273.43 112.72,273.41 113.12,273.40 113.52,273.38 113.91,273.37 114.31,273.35 114.71,273.34 115.10,273.32 115.50,273.30 115.90,273.29 116.29,273.27 116.69,273.26 117.08,273.24 117.48,273.23 117.88,273.21 118.27,273.20 118.67,273.18 119.07,273.16 119.46,273.15 119.86,273.13 120.26,273.12 120.65,273.10 121.05,273.09 121.45,273.07 121.84,273.06 122.24,273.04 122.64,273.03 123.03,273.01 123.43,272.99 123.83,272.98 124.22,272.96 124.62,272.95 125.01,272.93 125.41,272.92 125.81,272.90 126.20,272.89 126.60,272.87 127.00,272.86 127.39,272.84 127.79,272.83 128.19,272.81 128.58,272.80 128.98,272.78 129.38,272.76 129.77,272.75 130.17,272.73 130.57,272.72 130.96,272.70 131.36,272.69 131.75,272.67 132.15,272.66 132.55,272.64 132.94,272.63 133.34,272.61 133.74,272.60 134.13,272.58 134.53,272.57 134.93,272.55 135.32,272.54 135.72,272.52 136.12,272.51 136.51,272.49 136.91,272.48 137.31,272.46 137.70,272.45 138.10,272.43 138.50,272.42 138.89,272.40 139.29,272.39 139.68,272.37 140.08,272.36 140.48,272.34 140.87,272.33 141.27,272.32 141.67,272.30 142.06,272.29 142.46,272.27 142.86,272.26 143.25,272.24 143.65,272.23 144.05,272.21 144.44,272.20 144.84,272.18 145.24,272.17 145.63,272.15 146.03,272.14 146.42,272.12 146.82,272.11 147.22,272.10 147.61,272.08 148.01,272.07 148.41,272.05 148.80,272.04 149.20,272.02 149.60,272.01 149.99,271.99 150.39,271.98 150.79,271.97 151.18,271.95 151.58,271.94 151.98,271.92 152.37,271.91 152.77,271.89 153.16,271.88 153.56,271.86 153.96,271.85 154.35,271.84 154.75,271.82 155.15,271.81 155.54,271.79 155.94,271.78 156.34,271.76 156.73,271.75 157.13,271.74 157.53,271.72 157.92,271.71 158.32,271.69 158.72,271.68 159.11,271.67 159.51,271.65 159.91,271.64 160.30,271.62 160.70,271.61 161.09,271.60 161.49,271.58 161.89,271.57 162.28,271.55 162.68,271.54 163.08,271.52 163.47,271.51 163.87,271.50 164.27,271.48 164.66,271.47 165.06,271.46 165.46,271.44 165.85,271.43 166.25,271.41 166.65,271.40 167.04,271.39 167.44,271.37 167.83,271.36 168.23,271.34 168.63,271.33 169.02,271.32 169.42,271.30 169.82,271.29 170.21,271.28 170.61,271.26 171.01,271.25 171.40,271.23 171.80,271.22 172.20,271.21 172.59,271.19 172.99,271.18 173.39,271.17 173.78,271.15 174.18,271.14 174.58,271.13 174.97,271.11 175.37,271.10 175.76,271.08 176.16,271.07 176.56,271.06 176.95,271.04 177.33,271.03 177.70,271.02 177.72,270.93 177.76,270.73 177.83,270.26 177.91,269.63 177.92,269.54 177.95,269.36 178.01,269.00 178.12,268.29 178.35,266.92 178.74,264.68 179.14,262.62 179.54,260.72 179.93,258.97 180.33,257.37 180.73,255.90 181.12,254.56 181.52,253.35 181.91,252.24 182.31,251.23 182.71,250.31 183.10,249.47 183.50,248.72 183.90,248.03 184.29,247.41 184.69,246.84 185.09,246.33 185.48,245.86 185.88,245.44 186.28,245.06 186.67,244.72 187.07,244.41 187.47,244.13 187.86,243.87 188.26,243.64 188.66,243.44 189.05,243.25 189.45,243.08 189.84,242.93 190.24,242.80 190.64,242.68 191.03,242.57 191.43,242.47 191.83,242.38 192.22,242.30 192.62,242.24 193.02,242.17 193.41,242.12 193.81,242.07 194.21,242.03 194.60,241.99 195.00,241.96 195.40,241.94 195.79,241.91 196.19,241.89 196.58,241.88 196.98,241.86 197.38,241.85 197.77,241.84 198.17,241.84 198.57,241.83 198.96,241.83 199.36,241.83 199.76,241.83 200.15,241.83 200.55,241.83 200.95,241.84 201.34,241.84 201.74,241.85 202.14,241.86 202.53,241.87 202.93,241.87 203.33,241.88 203.72,241.89 204.12,241.90 204.51,241.91 204.91,241.92 205.31,241.94 205.70,241.95 206.10,241.96 206.50,241.97 206.89,241.98 207.29,242.00 207.69,242.01 208.08,242.02 208.48,242.04 208.88,242.05 209.27,242.06 209.67,242.08 210.07,242.09 210.46,242.10 210.86,242.12 211.25,242.13 211.65,242.15 212.05,242.16 212.44,242.17 212.84,242.19 213.24,242.20 213.63,242.22 214.03,242.23 214.43,242.25 214.82,242.26 215.22,242.28 215.62,242.29 216.01,242.30 216.41,242.32 216.81,242.33 217.20,242.35 217.60,242.36 217.99,242.38 218.39,242.39 218.79,242.41 219.18,242.42 219.58,242.44 219.98,242.45 220.37,242.46 220.77,242.48 221.17,242.49 221.56,242.51 221.96,242.52 222.36,242.54 222.75,242.55 223.15,242.57 223.55,242.58 223.94,242.60 224.34,242.61 224.74,242.62 225.13,242.64 225.53,242.65 225.92,242.67 226.32,242.68 226.72,242.70 227.11,242.71 227.51,242.73 227.91,242.74 228.30,242.75 228.70,242.77 229.10,242.78 229.49,242.80 229.89,242.81 230.29,242.83 230.68,242.84 231.08,242.85 231.48,242.87 231.87,242.88 232.27,242.90 232.66,242.91 233.06,242.93 233.46,242.94 233.85,242.95 234.25,242.97 234.65,242.98 235.04,243.00 235.44,243.01 235.84,243.02 236.23,243.04 236.63,243.05 237.03,243.07 237.42,243.08 237.82,243.10 238.22,243.11 238.61,243.12 239.01,243.14 239.41,243.15 239.80,243.17 240.20,243.18 240.59,243.19 240.99,243.21 241.39,243.22 241.78,243.24 242.18,243.25 242.58,243.26 242.97,243.28 243.37,243.29 243.77,243.30 244.16,243.32 244.56,243.33 244.96,243.35 245.35,243.36 245.75,243.37 246.15,243.39 246.54,243.40 246.94,243.42 247.33,243.43 247.73,243.44 248.13,243.46 248.52,243.47 248.92,243.48 249.32,243.50 249.71,243.51 250.11,243.53 250.51,243.54 250.90,243.55 251.30,243.57 251.70,243.58 252.09,243.59 252.49,243.61 252.89,243.62 253.28,243.63 253.68,243.65 254.08,243.66 254.47,243.67 254.87,243.69 255.26,243.70 255.66,243.72 256.06,243.73 256.45,243.74 256.85,243.76 257.25,243.77 257.64,243.78 258.04,243.80 258.44,243.81 258.83,243.82 259.23,243.84 259.63,243.85 260.02,243.86 260.42,243.88 260.82,243.89 261.21,243.90 261.61,243.92 262.00,243.93 262.40,243.94 262.80,243.96 263.19,243.97 263.59,243.98 263.99,244.00 264.38,244.01 264.78,244.02 265.18,244.04 265.57,244.05 265.97,244.06 266.37,244.08 266.76,244.09 267.16,244.10 267.56,244.12 267.95,244.13 268.35,244.14 268.74,244.15 269.14,244.17 269.54,244.18 269.93,244.19 270.33,244.21 270.73,244.22 271.12,244.23 271.52,244.25 271.92,244.26 272.31,244.27 272.71,244.29 273.11,244.30 273.50,244.31 273.90,244.32 274.30,244.34 274.69,244.35 275.09,244.36 275.49,244.38 275.88,244.39 276.28,244.40 276.67,244.41 277.07,244.43 277.47,244.44 277.86,244.45 278.26,244.47 278.63,244.48 279.00,244.49 279.02,244.57 279.06,244.76 279.13,245.24 279.20,245.87 279.22,245.97 279.25,246.15 279.30,246.51 279.42,247.24 279.64,248.64 280.04,250.97 280.44,253.12 280.83,255.09 281.23,256.88 281.63,258.50 282.02,259.97 282.42,261.31 282.82,262.53 283.21,263.63 283.61,264.63 284.00,265.53 284.40,266.35 284.80,267.10 285.19,267.77 285.59,268.38 285.99,268.94 286.38,269.44 286.78,269.89 287.18,270.30 287.57,270.68 287.97,271.01 288.37,271.32 288.76,271.59 289.16,271.84 289.56,272.07 289.95,272.27 290.35,272.45 290.75,272.62 291.14,272.77 291.54,272.90 291.93,273.02 292.33,273.13 292.73,273.23 293.12,273.31 293.52,273.39 293.92,273.46 294.31,273.52 294.71,273.57 295.11,273.62 295.50,273.66 295.90,273.70 296.30,273.73 296.69,273.76 297.09,273.78 297.49,273.80 297.88,273.82 298.28,273.83 298.67,273.84 299.07,273.85 299.47,273.86 299.86,273.86 300.26,273.86 300.66,273.86 301.05,273.86 301.45,273.86 301.85,273.86 302.24,273.85 302.64,273.85 303.04,273.84 303.43,273.83 303.83,273.82 304.23,273.81 304.62,273.80 305.02,273.79 305.41,273.78 305.81,273.77 306.21,273.76 306.60,273.75 307.00,273.74 307.40,273.72 307.79,273.71 308.19,273.70 308.59,273.68 308.98,273.67 309.38,273.66 309.78,273.64 310.17,273.63 310.57,273.61 310.97,273.60 311.36,273.58 311.76,273.57 312.16,273.55 312.55,273.54 312.95,273.52 313.34,273.51 313.74,273.49 314.14,273.48 314.53,273.46 314.93,273.45 315.33,273.43 315.72,273.42 316.12,273.40 316.52,273.39 316.91,273.37 317.31,273.35 317.71,273.34 318.10,273.32 318.50,273.31 318.90,273.29 319.29,273.28 319.69,273.26 320.08,273.25 320.48,273.23 320.88,273.21 321.27,273.20 321.67,273.18 322.07,273.17 322.46,273.15 322.86,273.14 323.26,273.12 323.65,273.11 324.05,273.09 324.45,273.07 324.84,273.06 325.24,273.04 325.64,273.03 326.03,273.01 326.43,273.00 326.83,272.98 327.22,272.97 327.62,272.95 328.01,272.94 328.41,272.92 328.81,272.90 329.20,272.89 329.60,272.87 330.00,272.86 330.39,272.84 330.79,272.83 331.19,272.81 331.58,272.80 331.98,272.78 332.38,272.77 332.77,272.75 333.17,272.74 333.57,272.72 333.96,272.71 334.36,272.69 334.75,272.68 335.15,272.66 335.55,272.65 335.94,272.63 336.34,272.62 336.74,272.60 337.13,272.59 337.53,272.57 337.93,272.56 338.32,272.54 338.72,272.53 339.12,272.51 339.51,272.50 339.91,272.48 340.31,272.47 340.70,272.45 341.10,272.44 341.50,272.42 341.89,272.41 342.29,272.39 342.68,272.38 343.08,272.36 343.48,272.35 343.87,272.33 344.27,272.32 344.67,272.30 345.06,272.29 345.46,272.27 345.86,272.26 346.25,272.24 346.65,272.23 347.05,272.21 347.44,272.20 347.84,272.19 348.24,272.17 348.63,272.16 349.03,272.14 349.42,272.13 349.82,272.11 350.22,272.10 350.61,272.08 351.01,272.07 351.41,272.05 351.80,272.04 352.20,272.03 352.60,272.01 352.99,272.00 353.39,271.98 353.79,271.97 354.18,271.95 354.58,271.94 354.98,271.92 355.37,271.91 355.77,271.90 356.16,271.88 356.56,271.87 356.96,271.85 357.35,271.84 357.75,271.82 358.15,271.81 358.54,271.80 358.94,271.78 359.34,271.77 359.73,271.75 360.13,271.74 360.53,271.72 360.92,271.71 361.32,271.70 361.72,271.68 362.11,271.67 362.51,271.65 362.91,271.64 363.30,271.63 363.70,271.61 364.09,271.60 364.49,271.58 364.89,271.57 365.28,271.56 365.68,271.54 366.08,271.53 366.47,271.51 366.87,271.50 367.27,271.49 367.66,271.47 368.06,271.46 368.46,271.44 368.85,271.43 369.25,271.42 369.65,271.40 370.04,271.39 370.44,271.37 370.83,271.36 371.23,271.35 371.63,271.33 372.02,271.32 372.42,271.31 372.82,271.29 373.21,271.28 373.61,271.26 374.01,271.25 374.40,271.24 374.80,271.22 375.20,271.21 375.59,271.20 375.99,271.18 376.39,271.17 376.78,271.16 377.18,271.14 377.58,271.13 377.97,271.11 378.37,271.10 378.76,271.09 379.16,271.07 379.56,271.06 379.95,271.05 380.33,271.03 380.70,271.02 380.72,270.94 380.76,270.73 380.83,270.26 380.91,269.64 380.92,269.54 380.95,269.36 381.01,269.00 381.12,268.29 381.35,266.92 381.74,264.68 382.14,262.62 382.54,260.72 382.93,258.97 383.33,257.37 383.73,255.90 384.12,254.57 384.52,253.35 384.91,252.24 385.31,251.23 385.71,250.31 386.10,249.48 386.50,248.72 386.90,248.03 387.29,247.41 387.69,246.84 388.09,246.33 388.48,245.87 388.88,245.45 389.28,245.07 389.67,244.72 390.07,244.41 390.47,244.13 390.86,243.88 391.26,243.65 391.66,243.44 392.05,243.25 392.45,243.09 392.84,242.93 393.24,242.80 393.64,242.68 394.03,242.57 394.43,242.47 394.83,242.38 395.22,242.31 395.62,242.24 396.02,242.18 396.41,242.12 396.81,242.08 397.21,242.03 397.60,242.00 398.00,241.97 398.40,241.94 398.79,241.91 399.19,241.90 399.58,241.88 399.98,241.86 400.38,241.85 400.77,241.85 401.17,241.84 401.57,241.83 401.96,241.83 402.36,241.83 402.76,241.83 403.15,241.83 403.55,241.84 403.95,241.84 404.34,241.85 404.74,241.85 405.14,241.86 405.53,241.87 405.93,241.88 406.33,241.89 406.72,241.89 407.12,241.90 407.51,241.92 407.91,241.93 408.31,241.94 408.70,241.95 409.10,241.96 409.50,241.97 409.89,241.99 410.29,242.00 410.69,242.01 411.08,242.03 411.48,242.04 411.88,242.05 412.27,242.07 412.67,242.08 413.07,242.09 413.46,242.11 413.86,242.12 414.25,242.13 414.65,242.15 415.05,242.16 415.44,242.18 415.84,242.19 416.24,242.21 416.63,242.22 417.03,242.23 417.43,242.25 417.82,242.26 418.22,242.28 418.62,242.29 419.01,242.31 419.41,242.32 419.81,242.34 420.20,242.35 420.60,242.37 420.99,242.38 421.39,242.39 421.79,242.41 422.18,242.42 422.58,242.44 422.98,242.45 423.37,242.47 423.77,242.48 424.17,242.50 424.56,242.51 424.96,242.53 425.36,242.54 425.75,242.55 426.15,242.57 426.55,242.58 426.94,242.60 427.34,242.61 427.74,242.63 428.13,242.64 428.53,242.66 428.92,242.67 429.32,242.68 429.72,242.70 430.11,242.71 430.51,242.73 430.91,242.74 431.30,242.76 431.70,242.77 432.10,242.79 432.49,242.80 432.89,242.81 433.29,242.83 433.68,242.84 434.08,242.86 434.48,242.87 434.87,242.89 435.27,242.90 435.66,242.91 436.06,242.93 436.46,242.94 436.85,242.96 437.25,242.97 437.65,242.98 438.04,243.00 438.44,243.01 438.84,243.03 439.23,243.04 439.63,243.06 440.03,243.07 440.42,243.08 440.82,243.10 441.22,243.11 441.61,243.13 442.01,243.14 442.41,243.15 442.80,243.17 443.20,243.18 443.59,243.20 443.99,243.21 444.39,243.22 444.78,243.24 445.18,243.25 445.58,243.27 445.97,243.28 446.37,243.29 446.77,243.31 447.16,243.32 447.56,243.34 447.96,243.35 448.35,243.36 448.75,243.38 449.15,243.39 449.54,243.40 449.94,243.42 450.33,243.43 450.73,243.45 451.13,243.46 451.52,243.47 451.92,243.49 452.32,243.50 452.71,243.51 453.11,243.53 453.51,243.54 453.90,243.56 454.30,243.57 454.70,243.58 455.09,243.60 455.49,243.61 455.89,243.62 456.28,243.64 456.68,243.65 457.08,243.66 457.47,243.68 457.87,243.69 458.26,243.70 458.66,243.72 459.06,243.73 459.45,243.75 459.85,243.76 460.25,243.77 460.64,243.79 461.04,243.80 461.44,243.81 461.83,243.83 462.23,243.84 462.63,243.85 463.02,243.87 463.42,243.88 463.82,243.89 464.21,243.91 464.61,243.92 465.00,243.93 465.40,243.95 465.80,243.96 466.19,243.97 466.59,243.99 466.99,244.00 467.38,244.01 467.78,244.03 468.18,244.04 468.57,244.05 468.97,244.07 469.37,244.08 469.76,244.09 470.16,244.10 470.56,244.12 470.95,244.13 471.35,244.14 471.74,244.16 472.14,244.17 472.54,244.18 472.93,244.20 473.33,244.21 473.73,244.22 474.12,244.24 474.52,244.25 474.92,244.26 475.31,244.27 475.71,244.29 476.11,244.30 476.50,244.31 476.90,244.33 477.30,244.34 477.69,244.35 478.09,244.37 478.49,244.38 478.88,244.39 479.28,244.40 479.67,244.42 480.07,244.43 480.47,244.44 480.86,244.46 481.26,244.47 481.63,244.48 482.00,244.49 482.02,244.57 482.06,244.77 482.13,245.24 482.20,245.87 482.22,245.97 482.25,246.15 482.30,246.52 482.42,247.24 482.64,248.64 483.04,250.97 483.44,253.13 483.83,255.09 484.23,256.88 484.63,258.50 485.02,259.98 485.42,261.31 485.82,262.53 486.21,263.63 486.61,264.63 487.00,265.53 487.40,266.35 487.80,267.10 488.19,267.77 488.59,268.38 488.99,268.94 489.38,269.44 489.78,269.89 490.18,270.31 490.57,270.68 490.97,271.02 491.37,271.32 491.76,271.60 492.16,271.85 492.56,272.07 492.95,272.27 493.35,272.46 493.75,272.62 494.14,272.77 494.54,272.90 494.93,273.02 495.33,273.13 495.73,273.23 496.12,273.31 496.52,273.39 496.92,273.46 497.31,273.52 497.71,273.58 498.11,273.62 498.50,273.66 498.90,273.70 499.30,273.73 499.69,273.76 500.09,273.78 500.49,273.80 500.88,273.82 501.28,273.83 501.67,273.84 502.07,273.85 502.47,273.86 502.86,273.86 503.26,273.87 503.66,273.87 504.05,273.86 504.45,273.86 504.85,273.86 505.24,273.85 505.64,273.85 506.04,273.84 506.43,273.83 506.83,273.83 507.23,273.82 507.62,273.81 508.02,273.80 508.41,273.79 508.81,273.77 509.21,273.76 509.60,273.75 510.00,273.74 510.40,273.73 510.79,273.71 511.19,273.70 511.59,273.69 511.98,273.67 512.38,273.66 512.78,273.64 513.17,273.63 513.57,273.61 513.97,273.60 514.36,273.59 514.76,273.57 515.16,273.56 515.55,273.54 515.95,273.53 516.34,273.51 516.74,273.50 517.14,273.48 517.53,273.46 517.93,273.45 518.33,273.43 518.72,273.42 519.12,273.40 519.52,273.39 519.91,273.37 520.31,273.36 520.71,273.34 521.10,273.33 521.50,273.31 521.90,273.29 522.29,273.28 522.69,273.26 523.08,273.25 523.48,273.23 523.88,273.22 524.27,273.20 524.67,273.19 525.07,273.17 525.46,273.15 525.86,273.14 526.26,273.12 526.65,273.11 527.05,273.09 527.45,273.08 527.84,273.06 528.24,273.05 528.64,273.03 529.03,273.02 529.43,273.00 529.83,272.98 530.22,272.97 530.62,272.95 531.01,272.94 531.41,272.92 531.81,272.91 532.20,272.89 532.60,272.88 533.00,272.86 533.39,272.85 533.79,272.83 534.19,272.82 534.58,272.80 534.98,272.79 535.38,272.77 535.77,272.75 536.17,272.74 536.57,272.72 536.96,272.71 537.36,272.69 537.75,272.68 538.15,272.66 538.55,272.65 538.94,272.63 539.34,272.62 539.74,272.60 540.13,272.59 540.53,272.57 540.93,272.56 541.32,272.54 541.72,272.53 542.12,272.51 542.51,272.50 542.91,272.48 543.31,272.47 543.70,272.45 544.10,272.44 544.50,272.42 544.89,272.41 545.29,272.39 545.68,272.38 546.08,272.36 546.48,272.35 546.87,272.34 547.27,272.32 547.67,272.31 548.06,272.29 548.46,272.28 548.86,272.26 549.25,272.25 549.65,272.23 550.05,272.22 550.44,272.20 550.84,272.19 551.24,272.17 551.63,272.16 552.03,272.14 552.42,272.13 552.82,272.12 553.22,272.10 553.61,272.09 554.01,272.07 554.41,272.06 554.80,272.04 555.20,272.03 555.60,272.01 555.99,272.00 556.39,271.98 556.79,271.97 557.18,271.96 557.58,271.94 557.98,271.93 558.37,271.91 558.77,271.90 559.16,271.88 559.56,271.87 559.96,271.86 560.35,271.84 560.75,271.83 561.15,271.81 561.54,271.80 561.94,271.78 562.34,271.77 562.73,271.76 563.13,271.74 563.53,271.73 563.92,271.71 564.32,271.70 564.72,271.68 565.11,271.67 565.51,271.66 565.91,271.64 566.30,271.63 566.70,271.61 567.09,271.60 567.49,271.59 567.89,271.57 568.28,271.56 568.68,271.54 569.08,271.53 569.47,271.52 569.87,271.50 570.27,271.49 570.66,271.47 571.06,271.46 571.46,271.45 571.85,271.43 572.25,271.42 572.65,271.41 573.04,271.39 573.44,271.38 573.83,271.36 574.23,271.35 574.63,271.34 575.02,271.32 575.42,271.31 575.82,271.29 576.21,271.28 576.61,271.27 577.01,271.25 577.40,271.24 577.80,271.23 578.20,271.21 578.59,271.20 578.99,271.19 579.39,271.17 579.78,271.16 580.18,271.14 580.58,271.13 580.97,271.12 581.37,271.10 581.76,271.09 582.16,271.08 582.56,271.06 582.95,271.05 583.33,271.04 583.70,271.02 583.72,270.94 583.76,270.74 583.83,270.26 583.91,269.64 583.92,269.55 583.95,269.36 584.01,269.01 584.12,268.30 584.35,266.93 584.74,264.68 585.14,262.63 585.54,260.72 585.93,258.98 586.33,257.37 586.73,255.91 587.12,254.57 587.52,253.35 587.91,252.24 588.31,251.23 588.71,250.31 589.10,249.48 589.50,248.72 589.90,248.03 590.29,247.41 590.69,246.85 591.09,246.33 591.48,245.87 591.88,245.45 592.28,245.07 592.67,244.72 593.07,244.41 593.47,244.13 593.86,243.88 594.26,243.65 594.66,243.44 595.05,243.26 595.45,243.09 595.84,242.94 596.24,242.80 596.64,242.68 597.03,242.57 597.43,242.47 597.83,242.39 598.22,242.31 598.62,242.24 599.02,242.18 599.41,242.13 599.81,242.08 600.21,242.04 600.60,242.00 601.00,241.97 601.40,241.94 601.79,241.92 602.19,241.90 602.58,241.88 602.98,241.87 603.38,241.86 603.77,241.85 604.17,241.84 604.57,241.84 604.96,241.83 605.36,241.83 605.76,241.83 606.15,241.84 606.55,241.84 606.95,241.84 607.34,241.85 607.74,241.86 608.14,241.86 608.53,241.87 608.93,241.88 609.33,241.89 609.72,241.90 610.12,241.91 610.51,241.92 610.91,241.93 611.31,241.94 611.70,241.95 612.10,241.96 612.50,241.98 612.89,241.99 613.29,242.00 613.69,242.01 614.08,242.03 614.48,242.04 614.88,242.05 615.27,242.07 615.67,242.08 616.07,242.10 616.46,242.11 616.86,242.12 617.25,242.14 617.65,242.15 618.05,242.17 618.44,242.18 618.84,242.19 619.24,242.21 619.63,242.22 620.03,242.24 620.43,242.25 620.82,242.27 621.22,242.28 621.62,242.30 622.01,242.31 622.41,242.32 622.81,242.34 623.20,242.35 623.60,242.37 623.99,242.38 624.39,242.40 624.79,242.41 625.18,242.43 625.58,242.44 625.98,242.46 626.37,242.47 626.77,242.48 627.17,242.50 627.56,242.51 627.96,242.53 628.36,242.54 628.75,242.56 629.15,242.57 629.55,242.59 629.94,242.60 630.34,242.61 630.74,242.63 631.13,242.64 631.53,242.66 631.92,242.67 632.32,242.69 632.72,242.70 633.11,242.72 633.51,242.73 633.91,242.74 634.30,242.76 634.70,242.77 635.10,242.79 635.49,242.80 635.89,242.82 636.29,242.83 636.68,242.85 637.08,242.86 637.48,242.87 637.87,242.89 638.27,242.90 638.66,242.92 639.06,242.93 639.46,242.94 639.85,242.96 640.25,242.97 640.65,242.99 641.04,243.00 641.44,243.02 641.84,243.03 642.23,243.04 642.63,243.06 643.03,243.07 643.42,243.09 643.82,243.10 644.22,243.11 644.61,243.13 645.01,243.14 645.41,243.16 645.80,243.17 646.20,243.18 646.59,243.20 646.99,243.21 647.39,243.23 647.78,243.24 648.18,243.25 648.58,243.27 648.97,243.28 649.37,243.30 649.77,243.31 650.16,243.32 650.56,243.34 650.96,243.35 651.35,243.37 651.75,243.38 652.15,243.39 652.54,243.41 652.94,243.42 653.33,243.43 653.73,243.45 654.13,243.46 654.52,243.48 654.92,243.49 655.32,243.50 655.71,243.52 656.11,243.53 656.51,243.54 656.90,243.56 657.30,243.57 657.70,243.58 658.09,243.60 658.49,243.61 658.89,243.63 659.28,243.64 659.68,243.65 660.08,243.67 660.47,243.68 660.87,243.69 661.26,243.71 661.66,243.72 662.06,243.73 662.45,243.75 662.85,243.76 663.25,243.77 663.64,243.79 664.04,243.80 664.44,243.81 664.83,243.83 665.23,243.84 665.63,243.86 666.02,243.87 666.42,243.88 666.82,243.90 667.21,243.91 667.61,243.92 668.00,243.94 668.40,243.95 668.80,243.96 669.19,243.98 669.59,243.99 669.99,244.00 670.38,244.01 670.78,244.03 671.18,244.04 671.57,244.05 671.97,244.07 672.37,244.08 672.76,244.09 673.16,244.11 673.56,244.12 673.95,244.13 674.35,244.15 674.74,244.16 675.14,244.17 675.54,244.19 675.93,244.20 676.33,244.21 676.73,244.23 677.12,244.24 677.52,244.25 677.92,244.26 678.31,244.28 678.71,244.29 679.11,244.30 679.50,244.32 679.90,244.33 680.30,244.34 680.69,244.36 681.09,244.37 681.49,244.38 681.88,244.39 682.28,244.41 682.67,244.42 683.07,244.43 683.47,244.45 683.86,244.46 684.26,244.47 684.63,244.48 685.00,244.49 685.02,244.58 685.06,244.77 685.13,245.24 685.20,245.88 685.22,245.97 685.25,246.15 685.30,246.52 685.42,247.24 685.64,248.65 686.04,250.97 686.44,253.13 686.83,255.09 687.23,256.88 687.63,258.50 688.02,259.98 688.42,261.32 688.82,262.53 689.21,263.63 689.61,264.63 690.00,265.54 690.40,266.36 690.80,267.10 691.19,267.78 691.59,268.39 691.99,268.94 692.38,269.44 692.78,269.90 693.18,270.31 693.57,270.68 693.97,271.02 694.37,271.32 694.76,271.60 695.16,271.85 695.56,272.07 695.95,272.28 696.35,272.46 696.75,272.62 697.14,272.77 697.54,272.91 697.93,273.03 698.33,273.13 698.73,273.23 699.12,273.32 699.52,273.39 699.92,273.46 700.31,273.52 700.71,273.58 701.11,273.63 701.50,273.67 701.90,273.70 702.30,273.74 702.69,273.76 703.09,273.79 703.49,273.81 703.88,273.82 704.28,273.84 704.67,273.85 705.07,273.86 705.47,273.86 705.86,273.87 706.26,273.87 706.66,273.87 707.05,273.87 707.45,273.87 707.85,273.86 708.24,273.86 708.64,273.85 709.04,273.84 709.43,273.84 709.83,273.83 710.23,273.82 710.62,273.81 711.02,273.80 711.41,273.79 711.81,273.78 712.21,273.77 712.60,273.75 713.00,273.74 713.40,273.73 713.79,273.72 714.19,273.70 714.59,273.69 714.98,273.67 715.38,273.66 715.78,273.65 716.17,273.63 716.57,273.62 716.97,273.60 717.36,273.59 717.76,273.57 718.16,273.56 718.55,273.54 718.95,273.53 719.34,273.51 719.74,273.50 720.14,273.48 720.53,273.47 720.93,273.45 721.33,273.44 721.72,273.42 722.12,273.41 722.52,273.39 722.91,273.37 723.31,273.36 723.71,273.34 724.10,273.33 724.50,273.31 724.90,273.30 725.29,273.28 725.69,273.27 726.08,273.25 726.48,273.24 726.88,273.22 727.27,273.20 727.67,273.19 728.07,273.17 728.46,273.16 728.86,273.14 729.26,273.13 729.65,273.11 730.05,273.10 730.45,273.08 730.84,273.06 731.24,273.05 731.64,273.03 732.03,273.02 732.43,273.00 732.83,272.99 733.22,272.97 733.62,272.96 734.01,272.94 734.41,272.93 734.81,272.91 735.20,272.90 735.60,272.88 736.00,272.86 736.39,272.85 736.79,272.83 737.19,272.82 737.58,272.80 737.98,272.79 738.38,272.77 738.77,272.76 739.17,272.74 739.57,272.73 739.96,272.71 740.36,272.70 740.75,272.68 741.15,272.67 741.55,272.65 741.94,272.64 742.34,272.62 742.74,272.61 743.13,272.59 743.53,272.58 743.93,272.56 744.32,272.55 744.72,272.53 745.12,272.52 745.51,272.50 745.91,272.49 746.31,272.47 746.70,272.46 747.10,272.44 747.50,272.43 747.89,272.41 748.29,272.40 748.68,272.38 749.08,272.37 749.48,272.35 749.87,272.34 750.27,272.32 750.67,272.31 751.06,272.29 751.46,272.28 751.86,272.26 752.25,272.25 752.65,272.23 753.05,272.22 753.44,272.21 753.84,272.19 754.24,272.18 754.63,272.16 755.03,272.15 755.42,272.13 755.82,272.12 756.22,272.10 756.61,272.09 757.01,272.07 757.41,272.06 757.80,272.05 758.20,272.03 758.60,272.02 758.99,272.00 759.39,271.99 759.79,271.97 760.18,271.96 760.58,271.94 760.98,271.93 761.37,271.92 761.77,271.90 762.16,271.89 762.56,271.87 762.96,271.86 763.35,271.84 763.75,271.83 764.15,271.82 764.54,271.80 764.94,271.79 765.34,271.77 765.73,271.76 766.13,271.74 766.53,271.73 766.92,271.72 767.32,271.70 767.72,271.69 768.11,271.67 768.51,271.66 768.91,271.65 769.30,271.63 769.70,271.62 770.09,271.60 770.49,271.59 770.89,271.57 771.28,271.56 771.68,271.55 772.08,271.53 772.47,271.52 772.87,271.51 773.27,271.49 773.66,271.48 774.06,271.46 774.46,271.45 774.85,271.44 775.25,271.42 775.65,271.41 776.04,271.39 776.44,271.38 776.83,271.37 777.23,271.35 777.63,271.34 778.02,271.32 778.42,271.31 778.82,271.30 779.21,271.28 779.61,271.27 780.01,271.26 780.40,271.24 780.80,271.23 781.20,271.22 781.59,271.20 781.99,271.19 782.39,271.17 782.78,271.16 783.18,271.15 783.58,271.13 783.97,271.12 784.37,271.11 784.76,271.09 785.16,271.08 785.56,271.07 785.95,271.05 786.33,271.04 786.70,271.03 786.72,270.94 786.76,270.74 786.83,270.27 786.91,269.64 786.92,269.55 786.95,269.37 787.01,269.01 787.12,268.30 787.35,266.93 787.74,264.69 788.14,262.63 788.54,260.73 788.93,258.98 789.33,257.38 789.73,255.91 790.12,254.57 790.52,253.35 790.91,252.24 791.31,251.23 791.71,250.32 792.10,249.48 792.50,248.72 792.90,248.04 793.29,247.41 793.69,246.85 794.09,246.34 794.48,245.87 794.88,245.45 795.28,245.07 795.67,244.73 796.07,244.42 796.47,244.13 796.86,243.88 797.26,243.65 797.66,243.44 798.05,243.26 798.45,243.09 798.84,242.94 799.24,242.80 799.64,242.68 800.03,242.57 800.43,242.48 800.83,242.39 801.22,242.31 801.62,242.24 802.02,242.18 802.41,242.13 802.81,242.08 803.21,242.04 803.60,242.00 804.00,241.97 804.40,241.94 804.79,241.92 805.19,241.90 805.58,241.88 805.98,241.87 806.38,241.86 806.77,241.85 807.17,241.84 807.57,241.84 807.96,241.84 808.36,241.84 808.76,241.84 809.15,241.84 809.55,241.84 809.95,241.85 810.34,241.85 810.74,241.86 811.14,241.86 811.53,241.87 811.93,241.88 812.33,241.89 812.72,241.90 813.12,241.91 813.51,241.92 813.91,241.93 814.31,241.94 814.70,241.95 815.10,241.97 815.50,241.98 815.89,241.99 816.29,242.00 816.69,242.02 817.08,242.03 817.48,242.04 817.88,242.06 818.27,242.07 818.67,242.08 819.07,242.10 819.46,242.11 819.86,242.13 820.25,242.14 820.65,242.15 821.05,242.17 821.44,242.18 821.84,242.20 822.24,242.21 822.63,242.23 823.03,242.24 823.43,242.25 823.82,242.27 824.22,242.28 824.62,242.30 825.01,242.31 825.41,242.33 825.81,242.34 826.20,242.36 826.60,242.37 826.99,242.39 827.39,242.40 827.79,242.41 828.18,242.43 828.58,242.44 828.98,242.46 829.37,242.47 829.77,242.49 830.17,242.50 830.56,242.52 830.96,242.53 831.36,242.54 831.75,242.56 832.15,242.57 832.55,242.59 832.94,242.60 833.34,242.62 833.74,242.63 834.13,242.65 834.53,242.66 834.92,242.68 835.32,242.69 835.72,242.70 836.11,242.72 836.51,242.73 836.91,242.75 837.30,242.76 837.70,242.78 838.10,242.79 838.49,242.80 838.89,242.82 839.29,242.83 839.68,242.85 840.08,242.86 840.48,242.88 840.87,242.89 841.27,242.90 841.66,242.92 842.06,242.93 842.46,242.95 842.85,242.96 843.25,242.98 843.65,242.99 844.04,243.00 844.44,243.02 844.84,243.03 845.23,243.05 845.63,243.06 846.03,243.07 846.42,243.09 846.82,243.10 847.22,243.12 847.61,243.13 848.01,243.14 848.41,243.16 848.80,243.17 849.20,243.19 849.59,243.20 849.99,243.21 850.39,243.23 850.78,243.24 851.18,243.26 851.58,243.27 851.97,243.28 852.37,243.30 852.77,243.31 853.16,243.33 853.56,243.34 853.96,243.35 854.35,243.37 854.75,243.38 855.15,243.40 855.54,243.41 855.94,243.42 856.33,243.44 856.73,243.45 857.13,243.46 857.52,243.48 857.92,243.49 858.32,243.51 858.71,243.52 859.11,243.53 859.51,243.55 859.90,243.56 860.30,243.57 860.70,243.59 861.09,243.60 861.49,243.61 861.89,243.63 862.28,243.64 862.68,243.66 863.08,243.67 863.47,243.68 863.87,243.70 864.26,243.71 864.66,243.72 865.06,243.74 865.45,243.75 865.85,243.76 866.25,243.78 866.64,243.79 867.04,243.80 867.44,243.82 867.83,243.83 868.23,243.84 868.63,243.86 869.02,243.87 869.42,243.88 869.82,243.90 870.21,243.91 870.61,243.92 871.00,243.94 871.40,243.95 871.80,243.96 872.19,243.98 872.59,243.99 872.99,244.00 873.38,244.02 873.78,244.03 874.18,244.04 874.57,244.06 874.97,244.07 875.37,244.08 875.76,244.10 876.16,244.11 876.56,244.12 876.95,244.14 877.35,244.15 877.74,244.16 878.14,244.18 878.54,244.19 878.93,244.20 879.33,244.21 879.73,244.23 880.12,244.24 880.52,244.25 880.92,244.27 881.31,244.28 881.71,244.29 882.11,244.31 882.50,244.32 882.90,244.33 883.30,244.34 883.69,244.36 884.09,244.37 884.49,244.38 884.88,244.40 885.28,244.41 885.67,244.42 886.07,244.43 886.47,244.45 886.86,244.46 887.26,244.47 887.63,244.49" fill="none" stroke="#1665d8" stroke-width="3" stroke-linejoin="round"/>
<line x1="660" y1="88" x2="696" y2="88" stroke="#1665d8" stroke-width="3"/>
<text x="706" y="93" font-family="Arial, Helvetica, sans-serif" font-size="13" font-weight="400" text-anchor="start" fill="#111">load output</text>
<polyline points="76.00,297.60 76.02,289.68 76.06,273.84 76.13,246.12 76.20,218.40 76.22,218.40 76.25,218.40 76.30,218.40 76.42,218.40 76.64,218.40 77.04,218.40 77.44,218.40 77.83,218.40 78.23,218.40 78.63,218.40 79.02,218.40 79.42,218.40 79.82,218.40 80.21,218.40 80.61,218.40 81.00,218.40 81.40,218.40 81.80,218.40 82.19,218.40 82.59,218.40 82.99,218.40 83.38,218.40 83.78,218.40 84.18,218.40 84.57,218.40 84.97,218.40 85.37,218.40 85.76,218.40 86.16,218.40 86.56,218.40 86.95,218.40 87.35,218.40 87.75,218.40 88.14,218.40 88.54,218.40 88.93,218.40 89.33,218.40 89.73,218.40 90.12,218.40 90.52,218.40 90.92,218.40 91.31,218.40 91.71,218.40 92.11,218.40 92.50,218.40 92.90,218.40 93.30,218.40 93.69,218.40 94.09,218.40 94.49,218.40 94.88,218.40 95.28,218.40 95.67,218.40 96.07,218.40 96.47,218.40 96.86,218.40 97.26,218.40 97.66,218.40 98.05,218.40 98.45,218.40 98.85,218.40 99.24,218.40 99.64,218.40 100.04,218.40 100.43,218.40 100.83,218.40 101.23,218.40 101.62,218.40 102.02,218.40 102.41,218.40 102.81,218.40 103.21,218.40 103.60,218.40 104.00,218.40 104.40,218.40 104.79,218.40 105.19,218.40 105.59,218.40 105.98,218.40 106.38,218.40 106.78,218.40 107.17,218.40 107.57,218.40 107.97,218.40 108.36,218.40 108.76,218.40 109.16,218.40 109.55,218.40 109.95,218.40 110.34,218.40 110.74,218.40 111.14,218.40 111.53,218.40 111.93,218.40 112.33,218.40 112.72,218.40 113.12,218.40 113.52,218.40 113.91,218.40 114.31,218.40 114.71,218.40 115.10,218.40 115.50,218.40 115.90,218.40 116.29,218.40 116.69,218.40 117.08,218.40 117.48,218.40 117.88,218.40 118.27,218.40 118.67,218.40 119.07,218.40 119.46,218.40 119.86,218.40 120.26,218.40 120.65,218.40 121.05,218.40 121.45,218.40 121.84,218.40 122.24,218.40 122.64,218.40 123.03,218.40 123.43,218.40 123.83,218.40 124.22,218.40 124.62,218.40 125.01,218.40 125.41,218.40 125.81,218.40 126.20,218.40 126.60,218.40 127.00,218.40 127.39,218.40 127.79,218.40 128.19,218.40 128.58,218.40 128.98,218.40 129.38,218.40 129.77,218.40 130.17,218.40 130.57,218.40 130.96,218.40 131.36,218.40 131.75,218.40 132.15,218.40 132.55,218.40 132.94,218.40 133.34,218.40 133.74,218.40 134.13,218.40 134.53,218.40 134.93,218.40 135.32,218.40 135.72,218.40 136.12,218.40 136.51,218.40 136.91,218.40 137.31,218.40 137.70,218.40 138.10,218.40 138.50,218.40 138.89,218.40 139.29,218.40 139.68,218.40 140.08,218.40 140.48,218.40 140.87,218.40 141.27,218.40 141.67,218.40 142.06,218.40 142.46,218.40 142.86,218.40 143.25,218.40 143.65,218.40 144.05,218.40 144.44,218.40 144.84,218.40 145.24,218.40 145.63,218.40 146.03,218.40 146.42,218.40 146.82,218.40 147.22,218.40 147.61,218.40 148.01,218.40 148.41,218.40 148.80,218.40 149.20,218.40 149.60,218.40 149.99,218.40 150.39,218.40 150.79,218.40 151.18,218.40 151.58,218.40 151.98,218.40 152.37,218.40 152.77,218.40 153.16,218.40 153.56,218.40 153.96,218.40 154.35,218.40 154.75,218.40 155.15,218.40 155.54,218.40 155.94,218.40 156.34,218.40 156.73,218.40 157.13,218.40 157.53,218.40 157.92,218.40 158.32,218.40 158.72,218.40 159.11,218.40 159.51,218.40 159.91,218.40 160.30,218.40 160.70,218.40 161.09,218.40 161.49,218.40 161.89,218.40 162.28,218.40 162.68,218.40 163.08,218.40 163.47,218.40 163.87,218.40 164.27,218.40 164.66,218.40 165.06,218.40 165.46,218.40 165.85,218.40 166.25,218.40 166.65,218.40 167.04,218.40 167.44,218.40 167.83,218.40 168.23,218.40 168.63,218.40 169.02,218.40 169.42,218.40 169.82,218.40 170.21,218.40 170.61,218.40 171.01,218.40 171.40,218.40 171.80,218.40 172.20,218.40 172.59,218.40 172.99,218.40 173.39,218.40 173.78,218.40 174.18,218.40 174.58,218.40 174.97,218.40 175.37,218.40 175.76,218.40 176.16,218.40 176.56,218.40 176.95,218.40 177.33,218.40 177.70,218.40 177.72,226.32 177.76,242.16 177.83,269.88 177.91,297.60 177.92,297.60 177.95,297.60 178.01,297.60 178.12,297.60 178.35,297.60 178.74,297.60 179.14,297.60 179.54,297.60 179.93,297.60 180.33,297.60 180.73,297.60 181.12,297.60 181.52,297.60 181.91,297.60 182.31,297.60 182.71,297.60 183.10,297.60 183.50,297.60 183.90,297.60 184.29,297.60 184.69,297.60 185.09,297.60 185.48,297.60 185.88,297.60 186.28,297.60 186.67,297.60 187.07,297.60 187.47,297.60 187.86,297.60 188.26,297.60 188.66,297.60 189.05,297.60 189.45,297.60 189.84,297.60 190.24,297.60 190.64,297.60 191.03,297.60 191.43,297.60 191.83,297.60 192.22,297.60 192.62,297.60 193.02,297.60 193.41,297.60 193.81,297.60 194.21,297.60 194.60,297.60 195.00,297.60 195.40,297.60 195.79,297.60 196.19,297.60 196.58,297.60 196.98,297.60 197.38,297.60 197.77,297.60 198.17,297.60 198.57,297.60 198.96,297.60 199.36,297.60 199.76,297.60 200.15,297.60 200.55,297.60 200.95,297.60 201.34,297.60 201.74,297.60 202.14,297.60 202.53,297.60 202.93,297.60 203.33,297.60 203.72,297.60 204.12,297.60 204.51,297.60 204.91,297.60 205.31,297.60 205.70,297.60 206.10,297.60 206.50,297.60 206.89,297.60 207.29,297.60 207.69,297.60 208.08,297.60 208.48,297.60 208.88,297.60 209.27,297.60 209.67,297.60 210.07,297.60 210.46,297.60 210.86,297.60 211.25,297.60 211.65,297.60 212.05,297.60 212.44,297.60 212.84,297.60 213.24,297.60 213.63,297.60 214.03,297.60 214.43,297.60 214.82,297.60 215.22,297.60 215.62,297.60 216.01,297.60 216.41,297.60 216.81,297.60 217.20,297.60 217.60,297.60 217.99,297.60 218.39,297.60 218.79,297.60 219.18,297.60 219.58,297.60 219.98,297.60 220.37,297.60 220.77,297.60 221.17,297.60 221.56,297.60 221.96,297.60 222.36,297.60 222.75,297.60 223.15,297.60 223.55,297.60 223.94,297.60 224.34,297.60 224.74,297.60 225.13,297.60 225.53,297.60 225.92,297.60 226.32,297.60 226.72,297.60 227.11,297.60 227.51,297.60 227.91,297.60 228.30,297.60 228.70,297.60 229.10,297.60 229.49,297.60 229.89,297.60 230.29,297.60 230.68,297.60 231.08,297.60 231.48,297.60 231.87,297.60 232.27,297.60 232.66,297.60 233.06,297.60 233.46,297.60 233.85,297.60 234.25,297.60 234.65,297.60 235.04,297.60 235.44,297.60 235.84,297.60 236.23,297.60 236.63,297.60 237.03,297.60 237.42,297.60 237.82,297.60 238.22,297.60 238.61,297.60 239.01,297.60 239.41,297.60 239.80,297.60 240.20,297.60 240.59,297.60 240.99,297.60 241.39,297.60 241.78,297.60 242.18,297.60 242.58,297.60 242.97,297.60 243.37,297.60 243.77,297.60 244.16,297.60 244.56,297.60 244.96,297.60 245.35,297.60 245.75,297.60 246.15,297.60 246.54,297.60 246.94,297.60 247.33,297.60 247.73,297.60 248.13,297.60 248.52,297.60 248.92,297.60 249.32,297.60 249.71,297.60 250.11,297.60 250.51,297.60 250.90,297.60 251.30,297.60 251.70,297.60 252.09,297.60 252.49,297.60 252.89,297.60 253.28,297.60 253.68,297.60 254.08,297.60 254.47,297.60 254.87,297.60 255.26,297.60 255.66,297.60 256.06,297.60 256.45,297.60 256.85,297.60 257.25,297.60 257.64,297.60 258.04,297.60 258.44,297.60 258.83,297.60 259.23,297.60 259.63,297.60 260.02,297.60 260.42,297.60 260.82,297.60 261.21,297.60 261.61,297.60 262.00,297.60 262.40,297.60 262.80,297.60 263.19,297.60 263.59,297.60 263.99,297.60 264.38,297.60 264.78,297.60 265.18,297.60 265.57,297.60 265.97,297.60 266.37,297.60 266.76,297.60 267.16,297.60 267.56,297.60 267.95,297.60 268.35,297.60 268.74,297.60 269.14,297.60 269.54,297.60 269.93,297.60 270.33,297.60 270.73,297.60 271.12,297.60 271.52,297.60 271.92,297.60 272.31,297.60 272.71,297.60 273.11,297.60 273.50,297.60 273.90,297.60 274.30,297.60 274.69,297.60 275.09,297.60 275.49,297.60 275.88,297.60 276.28,297.60 276.67,297.60 277.07,297.60 277.47,297.60 277.86,297.60 278.26,297.60 278.63,297.60 279.00,297.60 279.02,289.68 279.06,273.84 279.13,246.12 279.20,218.40 279.22,218.40 279.25,218.40 279.30,218.40 279.42,218.40 279.64,218.40 280.04,218.40 280.44,218.40 280.83,218.40 281.23,218.40 281.63,218.40 282.02,218.40 282.42,218.40 282.82,218.40 283.21,218.40 283.61,218.40 284.00,218.40 284.40,218.40 284.80,218.40 285.19,218.40 285.59,218.40 285.99,218.40 286.38,218.40 286.78,218.40 287.18,218.40 287.57,218.40 287.97,218.40 288.37,218.40 288.76,218.40 289.16,218.40 289.56,218.40 289.95,218.40 290.35,218.40 290.75,218.40 291.14,218.40 291.54,218.40 291.93,218.40 292.33,218.40 292.73,218.40 293.12,218.40 293.52,218.40 293.92,218.40 294.31,218.40 294.71,218.40 295.11,218.40 295.50,218.40 295.90,218.40 296.30,218.40 296.69,218.40 297.09,218.40 297.49,218.40 297.88,218.40 298.28,218.40 298.67,218.40 299.07,218.40 299.47,218.40 299.86,218.40 300.26,218.40 300.66,218.40 301.05,218.40 301.45,218.40 301.85,218.40 302.24,218.40 302.64,218.40 303.04,218.40 303.43,218.40 303.83,218.40 304.23,218.40 304.62,218.40 305.02,218.40 305.41,218.40 305.81,218.40 306.21,218.40 306.60,218.40 307.00,218.40 307.40,218.40 307.79,218.40 308.19,218.40 308.59,218.40 308.98,218.40 309.38,218.40 309.78,218.40 310.17,218.40 310.57,218.40 310.97,218.40 311.36,218.40 311.76,218.40 312.16,218.40 312.55,218.40 312.95,218.40 313.34,218.40 313.74,218.40 314.14,218.40 314.53,218.40 314.93,218.40 315.33,218.40 315.72,218.40 316.12,218.40 316.52,218.40 316.91,218.40 317.31,218.40 317.71,218.40 318.10,218.40 318.50,218.40 318.90,218.40 319.29,218.40 319.69,218.40 320.08,218.40 320.48,218.40 320.88,218.40 321.27,218.40 321.67,218.40 322.07,218.40 322.46,218.40 322.86,218.40 323.26,218.40 323.65,218.40 324.05,218.40 324.45,218.40 324.84,218.40 325.24,218.40 325.64,218.40 326.03,218.40 326.43,218.40 326.83,218.40 327.22,218.40 327.62,218.40 328.01,218.40 328.41,218.40 328.81,218.40 329.20,218.40 329.60,218.40 330.00,218.40 330.39,218.40 330.79,218.40 331.19,218.40 331.58,218.40 331.98,218.40 332.38,218.40 332.77,218.40 333.17,218.40 333.57,218.40 333.96,218.40 334.36,218.40 334.75,218.40 335.15,218.40 335.55,218.40 335.94,218.40 336.34,218.40 336.74,218.40 337.13,218.40 337.53,218.40 337.93,218.40 338.32,218.40 338.72,218.40 339.12,218.40 339.51,218.40 339.91,218.40 340.31,218.40 340.70,218.40 341.10,218.40 341.50,218.40 341.89,218.40 342.29,218.40 342.68,218.40 343.08,218.40 343.48,218.40 343.87,218.40 344.27,218.40 344.67,218.40 345.06,218.40 345.46,218.40 345.86,218.40 346.25,218.40 346.65,218.40 347.05,218.40 347.44,218.40 347.84,218.40 348.24,218.40 348.63,218.40 349.03,218.40 349.42,218.40 349.82,218.40 350.22,218.40 350.61,218.40 351.01,218.40 351.41,218.40 351.80,218.40 352.20,218.40 352.60,218.40 352.99,218.40 353.39,218.40 353.79,218.40 354.18,218.40 354.58,218.40 354.98,218.40 355.37,218.40 355.77,218.40 356.16,218.40 356.56,218.40 356.96,218.40 357.35,218.40 357.75,218.40 358.15,218.40 358.54,218.40 358.94,218.40 359.34,218.40 359.73,218.40 360.13,218.40 360.53,218.40 360.92,218.40 361.32,218.40 361.72,218.40 362.11,218.40 362.51,218.40 362.91,218.40 363.30,218.40 363.70,218.40 364.09,218.40 364.49,218.40 364.89,218.40 365.28,218.40 365.68,218.40 366.08,218.40 366.47,218.40 366.87,218.40 367.27,218.40 367.66,218.40 368.06,218.40 368.46,218.40 368.85,218.40 369.25,218.40 369.65,218.40 370.04,218.40 370.44,218.40 370.83,218.40 371.23,218.40 371.63,218.40 372.02,218.40 372.42,218.40 372.82,218.40 373.21,218.40 373.61,218.40 374.01,218.40 374.40,218.40 374.80,218.40 375.20,218.40 375.59,218.40 375.99,218.40 376.39,218.40 376.78,218.40 377.18,218.40 377.58,218.40 377.97,218.40 378.37,218.40 378.76,218.40 379.16,218.40 379.56,218.40 379.95,218.40 380.33,218.40 380.70,218.40 380.72,226.32 380.76,242.16 380.83,269.88 380.91,297.60 380.92,297.60 380.95,297.60 381.01,297.60 381.12,297.60 381.35,297.60 381.74,297.60 382.14,297.60 382.54,297.60 382.93,297.60 383.33,297.60 383.73,297.60 384.12,297.60 384.52,297.60 384.91,297.60 385.31,297.60 385.71,297.60 386.10,297.60 386.50,297.60 386.90,297.60 387.29,297.60 387.69,297.60 388.09,297.60 388.48,297.60 388.88,297.60 389.28,297.60 389.67,297.60 390.07,297.60 390.47,297.60 390.86,297.60 391.26,297.60 391.66,297.60 392.05,297.60 392.45,297.60 392.84,297.60 393.24,297.60 393.64,297.60 394.03,297.60 394.43,297.60 394.83,297.60 395.22,297.60 395.62,297.60 396.02,297.60 396.41,297.60 396.81,297.60 397.21,297.60 397.60,297.60 398.00,297.60 398.40,297.60 398.79,297.60 399.19,297.60 399.58,297.60 399.98,297.60 400.38,297.60 400.77,297.60 401.17,297.60 401.57,297.60 401.96,297.60 402.36,297.60 402.76,297.60 403.15,297.60 403.55,297.60 403.95,297.60 404.34,297.60 404.74,297.60 405.14,297.60 405.53,297.60 405.93,297.60 406.33,297.60 406.72,297.60 407.12,297.60 407.51,297.60 407.91,297.60 408.31,297.60 408.70,297.60 409.10,297.60 409.50,297.60 409.89,297.60 410.29,297.60 410.69,297.60 411.08,297.60 411.48,297.60 411.88,297.60 412.27,297.60 412.67,297.60 413.07,297.60 413.46,297.60 413.86,297.60 414.25,297.60 414.65,297.60 415.05,297.60 415.44,297.60 415.84,297.60 416.24,297.60 416.63,297.60 417.03,297.60 417.43,297.60 417.82,297.60 418.22,297.60 418.62,297.60 419.01,297.60 419.41,297.60 419.81,297.60 420.20,297.60 420.60,297.60 420.99,297.60 421.39,297.60 421.79,297.60 422.18,297.60 422.58,297.60 422.98,297.60 423.37,297.60 423.77,297.60 424.17,297.60 424.56,297.60 424.96,297.60 425.36,297.60 425.75,297.60 426.15,297.60 426.55,297.60 426.94,297.60 427.34,297.60 427.74,297.60 428.13,297.60 428.53,297.60 428.92,297.60 429.32,297.60 429.72,297.60 430.11,297.60 430.51,297.60 430.91,297.60 431.30,297.60 431.70,297.60 432.10,297.60 432.49,297.60 432.89,297.60 433.29,297.60 433.68,297.60 434.08,297.60 434.48,297.60 434.87,297.60 435.27,297.60 435.66,297.60 436.06,297.60 436.46,297.60 436.85,297.60 437.25,297.60 437.65,297.60 438.04,297.60 438.44,297.60 438.84,297.60 439.23,297.60 439.63,297.60 440.03,297.60 440.42,297.60 440.82,297.60 441.22,297.60 441.61,297.60 442.01,297.60 442.41,297.60 442.80,297.60 443.20,297.60 443.59,297.60 443.99,297.60 444.39,297.60 444.78,297.60 445.18,297.60 445.58,297.60 445.97,297.60 446.37,297.60 446.77,297.60 447.16,297.60 447.56,297.60 447.96,297.60 448.35,297.60 448.75,297.60 449.15,297.60 449.54,297.60 449.94,297.60 450.33,297.60 450.73,297.60 451.13,297.60 451.52,297.60 451.92,297.60 452.32,297.60 452.71,297.60 453.11,297.60 453.51,297.60 453.90,297.60 454.30,297.60 454.70,297.60 455.09,297.60 455.49,297.60 455.89,297.60 456.28,297.60 456.68,297.60 457.08,297.60 457.47,297.60 457.87,297.60 458.26,297.60 458.66,297.60 459.06,297.60 459.45,297.60 459.85,297.60 460.25,297.60 460.64,297.60 461.04,297.60 461.44,297.60 461.83,297.60 462.23,297.60 462.63,297.60 463.02,297.60 463.42,297.60 463.82,297.60 464.21,297.60 464.61,297.60 465.00,297.60 465.40,297.60 465.80,297.60 466.19,297.60 466.59,297.60 466.99,297.60 467.38,297.60 467.78,297.60 468.18,297.60 468.57,297.60 468.97,297.60 469.37,297.60 469.76,297.60 470.16,297.60 470.56,297.60 470.95,297.60 471.35,297.60 471.74,297.60 472.14,297.60 472.54,297.60 472.93,297.60 473.33,297.60 473.73,297.60 474.12,297.60 474.52,297.60 474.92,297.60 475.31,297.60 475.71,297.60 476.11,297.60 476.50,297.60 476.90,297.60 477.30,297.60 477.69,297.60 478.09,297.60 478.49,297.60 478.88,297.60 479.28,297.60 479.67,297.60 480.07,297.60 480.47,297.60 480.86,297.60 481.26,297.60 481.63,297.60 482.00,297.60 482.02,289.68 482.06,273.84 482.13,246.12 482.20,218.40 482.22,218.40 482.25,218.40 482.30,218.40 482.42,218.40 482.64,218.40 483.04,218.40 483.44,218.40 483.83,218.40 484.23,218.40 484.63,218.40 485.02,218.40 485.42,218.40 485.82,218.40 486.21,218.40 486.61,218.40 487.00,218.40 487.40,218.40 487.80,218.40 488.19,218.40 488.59,218.40 488.99,218.40 489.38,218.40 489.78,218.40 490.18,218.40 490.57,218.40 490.97,218.40 491.37,218.40 491.76,218.40 492.16,218.40 492.56,218.40 492.95,218.40 493.35,218.40 493.75,218.40 494.14,218.40 494.54,218.40 494.93,218.40 495.33,218.40 495.73,218.40 496.12,218.40 496.52,218.40 496.92,218.40 497.31,218.40 497.71,218.40 498.11,218.40 498.50,218.40 498.90,218.40 499.30,218.40 499.69,218.40 500.09,218.40 500.49,218.40 500.88,218.40 501.28,218.40 501.67,218.40 502.07,218.40 502.47,218.40 502.86,218.40 503.26,218.40 503.66,218.40 504.05,218.40 504.45,218.40 504.85,218.40 505.24,218.40 505.64,218.40 506.04,218.40 506.43,218.40 506.83,218.40 507.23,218.40 507.62,218.40 508.02,218.40 508.41,218.40 508.81,218.40 509.21,218.40 509.60,218.40 510.00,218.40 510.40,218.40 510.79,218.40 511.19,218.40 511.59,218.40 511.98,218.40 512.38,218.40 512.78,218.40 513.17,218.40 513.57,218.40 513.97,218.40 514.36,218.40 514.76,218.40 515.16,218.40 515.55,218.40 515.95,218.40 516.34,218.40 516.74,218.40 517.14,218.40 517.53,218.40 517.93,218.40 518.33,218.40 518.72,218.40 519.12,218.40 519.52,218.40 519.91,218.40 520.31,218.40 520.71,218.40 521.10,218.40 521.50,218.40 521.90,218.40 522.29,218.40 522.69,218.40 523.08,218.40 523.48,218.40 523.88,218.40 524.27,218.40 524.67,218.40 525.07,218.40 525.46,218.40 525.86,218.40 526.26,218.40 526.65,218.40 527.05,218.40 527.45,218.40 527.84,218.40 528.24,218.40 528.64,218.40 529.03,218.40 529.43,218.40 529.83,218.40 530.22,218.40 530.62,218.40 531.01,218.40 531.41,218.40 531.81,218.40 532.20,218.40 532.60,218.40 533.00,218.40 533.39,218.40 533.79,218.40 534.19,218.40 534.58,218.40 534.98,218.40 535.38,218.40 535.77,218.40 536.17,218.40 536.57,218.40 536.96,218.40 537.36,218.40 537.75,218.40 538.15,218.40 538.55,218.40 538.94,218.40 539.34,218.40 539.74,218.40 540.13,218.40 540.53,218.40 540.93,218.40 541.32,218.40 541.72,218.40 542.12,218.40 542.51,218.40 542.91,218.40 543.31,218.40 543.70,218.40 544.10,218.40 544.50,218.40 544.89,218.40 545.29,218.40 545.68,218.40 546.08,218.40 546.48,218.40 546.87,218.40 547.27,218.40 547.67,218.40 548.06,218.40 548.46,218.40 548.86,218.40 549.25,218.40 549.65,218.40 550.05,218.40 550.44,218.40 550.84,218.40 551.24,218.40 551.63,218.40 552.03,218.40 552.42,218.40 552.82,218.40 553.22,218.40 553.61,218.40 554.01,218.40 554.41,218.40 554.80,218.40 555.20,218.40 555.60,218.40 555.99,218.40 556.39,218.40 556.79,218.40 557.18,218.40 557.58,218.40 557.98,218.40 558.37,218.40 558.77,218.40 559.16,218.40 559.56,218.40 559.96,218.40 560.35,218.40 560.75,218.40 561.15,218.40 561.54,218.40 561.94,218.40 562.34,218.40 562.73,218.40 563.13,218.40 563.53,218.40 563.92,218.40 564.32,218.40 564.72,218.40 565.11,218.40 565.51,218.40 565.91,218.40 566.30,218.40 566.70,218.40 567.09,218.40 567.49,218.40 567.89,218.40 568.28,218.40 568.68,218.40 569.08,218.40 569.47,218.40 569.87,218.40 570.27,218.40 570.66,218.40 571.06,218.40 571.46,218.40 571.85,218.40 572.25,218.40 572.65,218.40 573.04,218.40 573.44,218.40 573.83,218.40 574.23,218.40 574.63,218.40 575.02,218.40 575.42,218.40 575.82,218.40 576.21,218.40 576.61,218.40 577.01,218.40 577.40,218.40 577.80,218.40 578.20,218.40 578.59,218.40 578.99,218.40 579.39,218.40 579.78,218.40 580.18,218.40 580.58,218.40 580.97,218.40 581.37,218.40 581.76,218.40 582.16,218.40 582.56,218.40 582.95,218.40 583.33,218.40 583.70,218.40 583.72,226.32 583.76,242.16 583.83,269.88 583.91,297.60 583.92,297.60 583.95,297.60 584.01,297.60 584.12,297.60 584.35,297.60 584.74,297.60 585.14,297.60 585.54,297.60 585.93,297.60 586.33,297.60 586.73,297.60 587.12,297.60 587.52,297.60 587.91,297.60 588.31,297.60 588.71,297.60 589.10,297.60 589.50,297.60 589.90,297.60 590.29,297.60 590.69,297.60 591.09,297.60 591.48,297.60 591.88,297.60 592.28,297.60 592.67,297.60 593.07,297.60 593.47,297.60 593.86,297.60 594.26,297.60 594.66,297.60 595.05,297.60 595.45,297.60 595.84,297.60 596.24,297.60 596.64,297.60 597.03,297.60 597.43,297.60 597.83,297.60 598.22,297.60 598.62,297.60 599.02,297.60 599.41,297.60 599.81,297.60 600.21,297.60 600.60,297.60 601.00,297.60 601.40,297.60 601.79,297.60 602.19,297.60 602.58,297.60 602.98,297.60 603.38,297.60 603.77,297.60 604.17,297.60 604.57,297.60 604.96,297.60 605.36,297.60 605.76,297.60 606.15,297.60 606.55,297.60 606.95,297.60 607.34,297.60 607.74,297.60 608.14,297.60 608.53,297.60 608.93,297.60 609.33,297.60 609.72,297.60 610.12,297.60 610.51,297.60 610.91,297.60 611.31,297.60 611.70,297.60 612.10,297.60 612.50,297.60 612.89,297.60 613.29,297.60 613.69,297.60 614.08,297.60 614.48,297.60 614.88,297.60 615.27,297.60 615.67,297.60 616.07,297.60 616.46,297.60 616.86,297.60 617.25,297.60 617.65,297.60 618.05,297.60 618.44,297.60 618.84,297.60 619.24,297.60 619.63,297.60 620.03,297.60 620.43,297.60 620.82,297.60 621.22,297.60 621.62,297.60 622.01,297.60 622.41,297.60 622.81,297.60 623.20,297.60 623.60,297.60 623.99,297.60 624.39,297.60 624.79,297.60 625.18,297.60 625.58,297.60 625.98,297.60 626.37,297.60 626.77,297.60 627.17,297.60 627.56,297.60 627.96,297.60 628.36,297.60 628.75,297.60 629.15,297.60 629.55,297.60 629.94,297.60 630.34,297.60 630.74,297.60 631.13,297.60 631.53,297.60 631.92,297.60 632.32,297.60 632.72,297.60 633.11,297.60 633.51,297.60 633.91,297.60 634.30,297.60 634.70,297.60 635.10,297.60 635.49,297.60 635.89,297.60 636.29,297.60 636.68,297.60 637.08,297.60 637.48,297.60 637.87,297.60 638.27,297.60 638.66,297.60 639.06,297.60 639.46,297.60 639.85,297.60 640.25,297.60 640.65,297.60 641.04,297.60 641.44,297.60 641.84,297.60 642.23,297.60 642.63,297.60 643.03,297.60 643.42,297.60 643.82,297.60 644.22,297.60 644.61,297.60 645.01,297.60 645.41,297.60 645.80,297.60 646.20,297.60 646.59,297.60 646.99,297.60 647.39,297.60 647.78,297.60 648.18,297.60 648.58,297.60 648.97,297.60 649.37,297.60 649.77,297.60 650.16,297.60 650.56,297.60 650.96,297.60 651.35,297.60 651.75,297.60 652.15,297.60 652.54,297.60 652.94,297.60 653.33,297.60 653.73,297.60 654.13,297.60 654.52,297.60 654.92,297.60 655.32,297.60 655.71,297.60 656.11,297.60 656.51,297.60 656.90,297.60 657.30,297.60 657.70,297.60 658.09,297.60 658.49,297.60 658.89,297.60 659.28,297.60 659.68,297.60 660.08,297.60 660.47,297.60 660.87,297.60 661.26,297.60 661.66,297.60 662.06,297.60 662.45,297.60 662.85,297.60 663.25,297.60 663.64,297.60 664.04,297.60 664.44,297.60 664.83,297.60 665.23,297.60 665.63,297.60 666.02,297.60 666.42,297.60 666.82,297.60 667.21,297.60 667.61,297.60 668.00,297.60 668.40,297.60 668.80,297.60 669.19,297.60 669.59,297.60 669.99,297.60 670.38,297.60 670.78,297.60 671.18,297.60 671.57,297.60 671.97,297.60 672.37,297.60 672.76,297.60 673.16,297.60 673.56,297.60 673.95,297.60 674.35,297.60 674.74,297.60 675.14,297.60 675.54,297.60 675.93,297.60 676.33,297.60 676.73,297.60 677.12,297.60 677.52,297.60 677.92,297.60 678.31,297.60 678.71,297.60 679.11,297.60 679.50,297.60 679.90,297.60 680.30,297.60 680.69,297.60 681.09,297.60 681.49,297.60 681.88,297.60 682.28,297.60 682.67,297.60 683.07,297.60 683.47,297.60 683.86,297.60 684.26,297.60 684.63,297.60 685.00,297.60 685.02,289.68 685.06,273.84 685.13,246.12 685.20,218.40 685.22,218.40 685.25,218.40 685.30,218.40 685.42,218.40 685.64,218.40 686.04,218.40 686.44,218.40 686.83,218.40 687.23,218.40 687.63,218.40 688.02,218.40 688.42,218.40 688.82,218.40 689.21,218.40 689.61,218.40 690.00,218.40 690.40,218.40 690.80,218.40 691.19,218.40 691.59,218.40 691.99,218.40 692.38,218.40 692.78,218.40 693.18,218.40 693.57,218.40 693.97,218.40 694.37,218.40 694.76,218.40 695.16,218.40 695.56,218.40 695.95,218.40 696.35,218.40 696.75,218.40 697.14,218.40 697.54,218.40 697.93,218.40 698.33,218.40 698.73,218.40 699.12,218.40 699.52,218.40 699.92,218.40 700.31,218.40 700.71,218.40 701.11,218.40 701.50,218.40 701.90,218.40 702.30,218.40 702.69,218.40 703.09,218.40 703.49,218.40 703.88,218.40 704.28,218.40 704.67,218.40 705.07,218.40 705.47,218.40 705.86,218.40 706.26,218.40 706.66,218.40 707.05,218.40 707.45,218.40 707.85,218.40 708.24,218.40 708.64,218.40 709.04,218.40 709.43,218.40 709.83,218.40 710.23,218.40 710.62,218.40 711.02,218.40 711.41,218.40 711.81,218.40 712.21,218.40 712.60,218.40 713.00,218.40 713.40,218.40 713.79,218.40 714.19,218.40 714.59,218.40 714.98,218.40 715.38,218.40 715.78,218.40 716.17,218.40 716.57,218.40 716.97,218.40 717.36,218.40 717.76,218.40 718.16,218.40 718.55,218.40 718.95,218.40 719.34,218.40 719.74,218.40 720.14,218.40 720.53,218.40 720.93,218.40 721.33,218.40 721.72,218.40 722.12,218.40 722.52,218.40 722.91,218.40 723.31,218.40 723.71,218.40 724.10,218.40 724.50,218.40 724.90,218.40 725.29,218.40 725.69,218.40 726.08,218.40 726.48,218.40 726.88,218.40 727.27,218.40 727.67,218.40 728.07,218.40 728.46,218.40 728.86,218.40 729.26,218.40 729.65,218.40 730.05,218.40 730.45,218.40 730.84,218.40 731.24,218.40 731.64,218.40 732.03,218.40 732.43,218.40 732.83,218.40 733.22,218.40 733.62,218.40 734.01,218.40 734.41,218.40 734.81,218.40 735.20,218.40 735.60,218.40 736.00,218.40 736.39,218.40 736.79,218.40 737.19,218.40 737.58,218.40 737.98,218.40 738.38,218.40 738.77,218.40 739.17,218.40 739.57,218.40 739.96,218.40 740.36,218.40 740.75,218.40 741.15,218.40 741.55,218.40 741.94,218.40 742.34,218.40 742.74,218.40 743.13,218.40 743.53,218.40 743.93,218.40 744.32,218.40 744.72,218.40 745.12,218.40 745.51,218.40 745.91,218.40 746.31,218.40 746.70,218.40 747.10,218.40 747.50,218.40 747.89,218.40 748.29,218.40 748.68,218.40 749.08,218.40 749.48,218.40 749.87,218.40 750.27,218.40 750.67,218.40 751.06,218.40 751.46,218.40 751.86,218.40 752.25,218.40 752.65,218.40 753.05,218.40 753.44,218.40 753.84,218.40 754.24,218.40 754.63,218.40 755.03,218.40 755.42,218.40 755.82,218.40 756.22,218.40 756.61,218.40 757.01,218.40 757.41,218.40 757.80,218.40 758.20,218.40 758.60,218.40 758.99,218.40 759.39,218.40 759.79,218.40 760.18,218.40 760.58,218.40 760.98,218.40 761.37,218.40 761.77,218.40 762.16,218.40 762.56,218.40 762.96,218.40 763.35,218.40 763.75,218.40 764.15,218.40 764.54,218.40 764.94,218.40 765.34,218.40 765.73,218.40 766.13,218.40 766.53,218.40 766.92,218.40 767.32,218.40 767.72,218.40 768.11,218.40 768.51,218.40 768.91,218.40 769.30,218.40 769.70,218.40 770.09,218.40 770.49,218.40 770.89,218.40 771.28,218.40 771.68,218.40 772.08,218.40 772.47,218.40 772.87,218.40 773.27,218.40 773.66,218.40 774.06,218.40 774.46,218.40 774.85,218.40 775.25,218.40 775.65,218.40 776.04,218.40 776.44,218.40 776.83,218.40 777.23,218.40 777.63,218.40 778.02,218.40 778.42,218.40 778.82,218.40 779.21,218.40 779.61,218.40 780.01,218.40 780.40,218.40 780.80,218.40 781.20,218.40 781.59,218.40 781.99,218.40 782.39,218.40 782.78,218.40 783.18,218.40 783.58,218.40 783.97,218.40 784.37,218.40 784.76,218.40 785.16,218.40 785.56,218.40 785.95,218.40 786.33,218.40 786.70,218.40 786.72,226.32 786.76,242.16 786.83,269.88 786.91,297.60 786.92,297.60 786.95,297.60 787.01,297.60 787.12,297.60 787.35,297.60 787.74,297.60 788.14,297.60 788.54,297.60 788.93,297.60 789.33,297.60 789.73,297.60 790.12,297.60 790.52,297.60 790.91,297.60 791.31,297.60 791.71,297.60 792.10,297.60 792.50,297.60 792.90,297.60 793.29,297.60 793.69,297.60 794.09,297.60 794.48,297.60 794.88,297.60 795.28,297.60 795.67,297.60 796.07,297.60 796.47,297.60 796.86,297.60 797.26,297.60 797.66,297.60 798.05,297.60 798.45,297.60 798.84,297.60 799.24,297.60 799.64,297.60 800.03,297.60 800.43,297.60 800.83,297.60 801.22,297.60 801.62,297.60 802.02,297.60 802.41,297.60 802.81,297.60 803.21,297.60 803.60,297.60 804.00,297.60 804.40,297.60 804.79,297.60 805.19,297.60 805.58,297.60 805.98,297.60 806.38,297.60 806.77,297.60 807.17,297.60 807.57,297.60 807.96,297.60 808.36,297.60 808.76,297.60 809.15,297.60 809.55,297.60 809.95,297.60 810.34,297.60 810.74,297.60 811.14,297.60 811.53,297.60 811.93,297.60 812.33,297.60 812.72,297.60 813.12,297.60 813.51,297.60 813.91,297.60 814.31,297.60 814.70,297.60 815.10,297.60 815.50,297.60 815.89,297.60 816.29,297.60 816.69,297.60 817.08,297.60 817.48,297.60 817.88,297.60 818.27,297.60 818.67,297.60 819.07,297.60 819.46,297.60 819.86,297.60 820.25,297.60 820.65,297.60 821.05,297.60 821.44,297.60 821.84,297.60 822.24,297.60 822.63,297.60 823.03,297.60 823.43,297.60 823.82,297.60 824.22,297.60 824.62,297.60 825.01,297.60 825.41,297.60 825.81,297.60 826.20,297.60 826.60,297.60 826.99,297.60 827.39,297.60 827.79,297.60 828.18,297.60 828.58,297.60 828.98,297.60 829.37,297.60 829.77,297.60 830.17,297.60 830.56,297.60 830.96,297.60 831.36,297.60 831.75,297.60 832.15,297.60 832.55,297.60 832.94,297.60 833.34,297.60 833.74,297.60 834.13,297.60 834.53,297.60 834.92,297.60 835.32,297.60 835.72,297.60 836.11,297.60 836.51,297.60 836.91,297.60 837.30,297.60 837.70,297.60 838.10,297.60 838.49,297.60 838.89,297.60 839.29,297.60 839.68,297.60 840.08,297.60 840.48,297.60 840.87,297.60 841.27,297.60 841.66,297.60 842.06,297.60 842.46,297.60 842.85,297.60 843.25,297.60 843.65,297.60 844.04,297.60 844.44,297.60 844.84,297.60 845.23,297.60 845.63,297.60 846.03,297.60 846.42,297.60 846.82,297.60 847.22,297.60 847.61,297.60 848.01,297.60 848.41,297.60 848.80,297.60 849.20,297.60 849.59,297.60 849.99,297.60 850.39,297.60 850.78,297.60 851.18,297.60 851.58,297.60 851.97,297.60 852.37,297.60 852.77,297.60 853.16,297.60 853.56,297.60 853.96,297.60 854.35,297.60 854.75,297.60 855.15,297.60 855.54,297.60 855.94,297.60 856.33,297.60 856.73,297.60 857.13,297.60 857.52,297.60 857.92,297.60 858.32,297.60 858.71,297.60 859.11,297.60 859.51,297.60 859.90,297.60 860.30,297.60 860.70,297.60 861.09,297.60 861.49,297.60 861.89,297.60 862.28,297.60 862.68,297.60 863.08,297.60 863.47,297.60 863.87,297.60 864.26,297.60 864.66,297.60 865.06,297.60 865.45,297.60 865.85,297.60 866.25,297.60 866.64,297.60 867.04,297.60 867.44,297.60 867.83,297.60 868.23,297.60 868.63,297.60 869.02,297.60 869.42,297.60 869.82,297.60 870.21,297.60 870.61,297.60 871.00,297.60 871.40,297.60 871.80,297.60 872.19,297.60 872.59,297.60 872.99,297.60 873.38,297.60 873.78,297.60 874.18,297.60 874.57,297.60 874.97,297.60 875.37,297.60 875.76,297.60 876.16,297.60 876.56,297.60 876.95,297.60 877.35,297.60 877.74,297.60 878.14,297.60 878.54,297.60 878.93,297.60 879.33,297.60 879.73,297.60 880.12,297.60 880.52,297.60 880.92,297.60 881.31,297.60 881.71,297.60 882.11,297.60 882.50,297.60 882.90,297.60 883.30,297.60 883.69,297.60 884.09,297.60 884.49,297.60 884.88,297.60 885.28,297.60 885.67,297.60 886.07,297.60 886.47,297.60 886.86,297.60 887.26,297.60 887.63,297.60" fill="none" stroke="#b54708" stroke-width="3" stroke-linejoin="round"/>
<line x1="660" y1="114" x2="696" y2="114" stroke="#b54708" stroke-width="3"/>
<text x="706" y="119" font-family="Arial, Helvetica, sans-serif" font-size="13" font-weight="400" text-anchor="start" fill="#111">input x50</text>
<text x="460" y="502" font-family="Arial, Helvetica, sans-serif" font-size="14" font-weight="400" text-anchor="middle" fill="#111">Time after 60 ms settling, ms</text>
<text x="22" y="260" font-family="Arial, Helvetica, sans-serif" font-size="14" text-anchor="middle" fill="#111" transform="rotate(-90 22 260)">Voltage, V</text>
</svg>
