<svg xmlns="http://www.w3.org/2000/svg" width="920" height="520" viewBox="0 0 920 520">
<defs>
<style>
.wire{stroke:#111;stroke-width:2.6;fill:none;stroke-linecap:round;stroke-linejoin:round}
.thin{stroke:#a7b0bd;stroke-width:1.2;fill:none;stroke-linecap:round;stroke-linejoin:round}
.axis{stroke:#111;stroke-width:1.4;fill:none}
.blue{stroke:#1665d8;stroke-width:3;fill:none;stroke-linecap:round;stroke-linejoin:round}
.green{stroke:#13795b;stroke-width:3;fill:none;stroke-linecap:round;stroke-linejoin:round}
.orange{stroke:#b54708;stroke-width:3;fill:none;stroke-linecap:round;stroke-linejoin:round}
.node{fill:#111;stroke:none}
</style>
</defs>
<rect width="100%" height="100%" fill="#fff"/>
<text x="76" y="36" font-family="Arial, Helvetica, sans-serif" font-size="22" font-weight="700" text-anchor="start" fill="#111">Square-wave response, 10 kHz, Vin = 2.0 mVpp</text>
<rect x="76" y="60" width="812" height="396" fill="#fff" stroke="#111" stroke-width="1.4"/>
<line x1="76" y1="60" x2="76" y2="456" class="thin"/>
<text x="76" y="479" font-family="Arial, Helvetica, sans-serif" font-size="12" font-weight="400" text-anchor="middle" fill="#111">0</text>
<line x1="279" y1="60" x2="279" y2="456" class="thin"/>
<text x="279" y="479" font-family="Arial, Helvetica, sans-serif" font-size="12" font-weight="400" text-anchor="middle" fill="#111">0.1</text>
<line x1="482" y1="60" x2="482" y2="456" class="thin"/>
<text x="482" y="479" font-family="Arial, Helvetica, sans-serif" font-size="12" font-weight="400" text-anchor="middle" fill="#111">0.2</text>
<line x1="685" y1="60" x2="685" y2="456" class="thin"/>
<text x="685" y="479" font-family="Arial, Helvetica, sans-serif" font-size="12" font-weight="400" text-anchor="middle" fill="#111">0.3</text>
<line x1="888" y1="60" x2="888" y2="456" class="thin"/>
<text x="888" y="479" font-family="Arial, Helvetica, sans-serif" font-size="12" font-weight="400" text-anchor="middle" fill="#111">0.4</text>
<line x1="76" y1="456" x2="888" y2="456" class="thin"/>
<text x="66" y="460" font-family="Arial, Helvetica, sans-serif" font-size="12" font-weight="400" text-anchor="end" fill="#111">-0.004</text>
<line x1="76" y1="357" x2="888" y2="357" class="thin"/>
<text x="66" y="361" font-family="Arial, Helvetica, sans-serif" font-size="12" font-weight="400" text-anchor="end" fill="#111">-0.002</text>
<line x1="76" y1="258" x2="888" y2="258" class="thin"/>
<text x="66" y="262" font-family="Arial, Helvetica, sans-serif" font-size="12" font-weight="400" text-anchor="end" fill="#111">0</text>
<line x1="76" y1="159" x2="888" y2="159" class="thin"/>
<text x="66" y="163" font-family="Arial, Helvetica, sans-serif" font-size="12" font-weight="400" text-anchor="end" fill="#111">0.002</text>
<line x1="76" y1="60" x2="888" y2="60" class="thin"/>
<text x="66" y="64" font-family="Arial, Helvetica, sans-serif" font-size="12" font-weight="400" text-anchor="end" fill="#111">0.004</text>
<polyline points="76.00,134.98 76.04,135.08 76.12,135.31 76.28,135.84 76.59,137.13 76.99,139.17 77.39,141.69 77.71,144.08 78.03,146.78 78.07,147.01 78.15,147.44 78.31,148.31 78.62,150.05 79.02,152.21 79.42,154.37 79.81,156.50 80.21,158.63 80.61,160.74 81.00,162.85 81.40,164.94 81.80,167.01 82.19,169.08 82.59,171.13 82.99,173.16 83.38,175.19 83.78,177.20 84.18,179.20 84.57,181.18 84.97,183.15 85.36,185.10 85.76,187.04 86.16,188.97 86.55,190.89 86.95,192.78 87.35,194.67 87.74,196.54 88.14,198.40 88.54,200.24 88.93,202.07 89.33,203.89 89.73,205.69 90.12,207.48 90.52,209.25 90.92,211.01 91.31,212.75 91.71,214.48 92.11,216.20 92.50,217.91 92.90,219.60 93.29,221.27 93.69,222.94 94.09,224.58 94.48,226.22 94.88,227.84 95.28,229.45 95.67,231.05 96.07,232.63 96.47,234.20 96.86,235.75 97.26,237.29 97.66,238.82 98.05,240.34 98.45,241.84 98.85,243.33 99.24,244.81 99.64,246.28 100.03,247.73 100.43,249.17 100.83,250.60 101.22,252.02 101.62,253.42 102.02,254.81 102.41,256.19 102.81,257.56 103.21,258.91 103.60,260.26 104.00,261.59 104.40,262.91 104.79,264.22 105.19,265.52 105.59,266.80 105.98,268.08 106.38,269.34 106.78,270.60 107.17,271.84 107.57,273.07 107.96,274.29 108.36,275.50 108.76,276.70 109.15,277.88 109.55,279.06 109.95,280.23 110.34,281.39 110.74,282.53 111.14,283.67 111.53,284.79 111.93,285.91 112.33,287.02 112.72,288.11 113.12,289.20 113.52,290.28 113.91,291.34 114.31,292.40 114.70,293.45 115.10,294.49 115.50,295.52 115.89,296.54 116.29,297.55 116.69,298.56 117.08,299.55 117.48,300.53 117.88,301.51 118.27,302.48 118.67,303.44 119.07,304.39 119.46,305.33 119.86,306.26 120.26,307.19 120.65,308.10 121.05,309.01 121.45,309.91 121.84,310.80 122.24,311.69 122.63,312.56 123.03,313.43 123.43,314.29 123.82,315.14 124.22,315.99 124.62,316.83 125.01,317.66 125.41,318.48 125.81,319.29 126.20,320.10 126.60,320.90 127.00,321.70 127.39,322.48 127.79,323.26 128.19,324.03 128.58,324.80 128.98,325.56 129.37,326.31 129.77,327.05 130.17,327.79 130.56,328.52 130.96,329.25 131.36,329.97 131.75,330.68 132.15,331.38 132.55,332.08 132.94,332.78 133.34,333.46 133.74,334.14 134.13,334.82 134.53,335.49 134.93,336.15 135.32,336.80 135.72,337.45 136.11,338.10 136.51,338.74 136.91,339.37 137.30,340.00 137.70,340.62 138.10,341.24 138.49,341.85 138.89,342.45 139.29,343.05 139.68,343.64 140.08,344.23 140.48,344.82 140.87,345.40 141.27,345.97 141.67,346.54 142.06,347.10 142.46,347.66 142.86,348.21 143.25,348.76 143.65,349.30 144.04,349.84 144.44,350.37 144.84,350.90 145.23,351.42 145.63,351.94 146.03,352.45 146.42,352.96 146.82,353.47 147.22,353.97 147.61,354.46 148.01,354.96 148.41,355.44 148.80,355.93 149.20,356.40 149.60,356.88 149.99,357.35 150.39,357.81 150.78,358.27 151.18,358.73 151.58,359.18 151.97,359.63 152.37,360.08 152.77,360.52 153.16,360.95 153.56,361.39 153.96,361.82 154.35,362.24 154.75,362.66 155.15,363.08 155.54,363.49 155.94,363.90 156.34,364.31 156.73,364.71 157.13,365.11 157.53,365.51 157.92,365.90 158.32,366.28 158.71,366.67 159.11,367.05 159.51,367.43 159.90,367.80 160.30,368.17 160.70,368.54 161.09,368.91 161.49,369.27 161.89,369.62 162.28,369.98 162.68,370.33 163.08,370.68 163.47,371.02 163.87,371.37 164.27,371.70 164.66,372.04 165.06,372.37 165.45,372.70 165.85,373.03 166.25,373.35 166.64,373.67 167.04,373.99 167.44,374.31 167.83,374.62 168.23,374.93 168.63,375.24 169.02,375.54 169.42,375.84 169.82,376.14 170.21,376.44 170.61,376.73 171.01,377.02 171.40,377.31 171.80,377.59 172.20,377.88 172.59,378.16 172.99,378.43 173.38,378.71 173.78,378.98 174.18,379.25 174.57,379.52 174.97,379.78 175.37,380.05 175.76,380.31 176.16,380.57 176.56,380.82 176.95,381.08 177.35,381.33 177.75,381.58 178.14,381.82 178.54,382.07 178.94,382.31 179.23,382.49 179.53,382.67 179.57,382.57 179.65,382.33 179.81,381.79 180.12,380.48 180.52,378.41 180.92,375.87 181.24,373.46 181.56,370.74 181.60,370.51 181.68,370.06 181.84,369.18 182.15,367.43 182.55,365.24 182.95,363.07 183.34,360.91 183.74,358.76 184.14,356.63 184.53,354.51 184.93,352.40 185.33,350.30 185.72,348.22 186.12,346.15 186.52,344.09 186.91,342.05 187.31,340.02 187.71,338.01 188.10,336.01 188.50,334.02 188.89,332.05 189.29,330.09 189.69,328.14 190.08,326.21 190.48,324.29 190.88,322.39 191.27,320.50 191.67,318.63 192.07,316.77 192.46,314.92 192.86,313.09 193.26,311.27 193.65,309.47 194.05,307.68 194.45,305.90 194.84,304.14 195.24,302.39 195.64,300.66 196.03,298.94 196.43,297.24 196.82,295.54 197.22,293.86 197.62,292.20 198.01,290.55 198.41,288.91 198.81,287.29 199.20,285.68 199.60,284.08 200.00,282.50 200.39,280.93 200.79,279.37 201.19,277.82 201.58,276.29 201.98,274.77 202.38,273.27 202.77,271.78 203.17,270.30 203.56,268.83 203.96,267.37 204.36,265.93 204.75,264.50 205.15,263.08 205.55,261.68 205.94,260.28 206.34,258.90 206.74,257.53 207.13,256.18 207.53,254.83 207.93,253.50 208.32,252.17 208.72,250.86 209.12,249.56 209.51,248.27 209.91,247.00 210.31,245.73 210.70,244.47 211.10,243.23 211.49,242.00 211.89,240.78 212.29,239.56 212.68,238.36 213.08,237.17 213.48,235.99 213.87,234.82 214.27,233.66 214.67,232.51 215.06,231.38 215.46,230.25 215.86,229.13 216.25,228.02 216.65,226.92 217.05,225.83 217.44,224.75 217.84,223.68 218.23,222.62 218.63,221.57 219.03,220.53 219.42,219.50 219.82,218.47 220.22,217.46 220.61,216.45 221.01,215.46 221.41,214.47 221.80,213.49 222.20,212.52 222.60,211.56 222.99,210.61 223.39,209.66 223.79,208.73 224.18,207.80 224.58,206.88 224.98,205.97 225.37,205.07 225.77,204.17 226.16,203.29 226.56,202.41 226.96,201.54 227.35,200.67 227.75,199.82 228.15,198.97 228.54,198.13 228.94,197.30 229.34,196.47 229.73,195.66 230.13,194.85 230.53,194.04 230.92,193.25 231.32,192.46 231.72,191.68 232.11,190.90 232.51,190.13 232.90,189.37 233.30,188.62 233.70,187.87 234.09,187.13 234.49,186.40 234.89,185.67 235.28,184.95 235.68,184.23 236.08,183.53 236.47,182.83 236.87,182.13 237.27,181.44 237.66,180.76 238.06,180.08 238.46,179.41 238.85,178.75 239.25,178.09 239.64,177.44 240.04,176.79 240.44,176.15 240.83,175.51 241.23,174.88 241.63,174.26 242.02,173.64 242.42,173.03 242.82,172.42 243.21,171.82 243.61,171.22 244.01,170.63 244.40,170.05 244.80,169.47 245.20,168.89 245.59,168.32 245.99,167.76 246.39,167.20 246.78,166.64 247.18,166.09 247.57,165.55 247.97,165.01 248.37,164.47 248.76,163.94 249.16,163.42 249.56,162.90 249.95,162.38 250.35,161.87 250.75,161.36 251.14,160.86 251.54,160.36 251.94,159.87 252.33,159.38 252.73,158.90 253.13,158.42 253.52,157.94 253.92,157.47 254.31,157.00 254.71,156.54 255.11,156.08 255.50,155.63 255.90,155.18 256.30,154.73 256.69,154.29 257.09,153.85 257.49,153.41 257.88,152.98 258.28,152.56 258.68,152.13 259.07,151.72 259.47,151.30 259.87,150.89 260.26,150.48 260.66,150.08 261.06,149.68 261.45,149.28 261.85,148.89 262.24,148.50 262.64,148.11 263.04,147.73 263.43,147.35 263.83,146.97 264.23,146.60 264.62,146.23 265.02,145.87 265.42,145.50 265.81,145.14 266.21,144.79 266.61,144.44 267.00,144.09 267.40,143.74 267.80,143.40 268.19,143.06 268.59,142.72 268.98,142.39 269.38,142.05 269.78,141.73 270.17,141.40 270.57,141.08 270.97,140.76 271.36,140.44 271.76,140.13 272.16,139.82 272.55,139.51 272.95,139.21 273.35,138.90 273.74,138.60 274.14,138.31 274.54,138.01 274.93,137.72 275.33,137.43 275.73,137.15 276.12,136.86 276.52,136.58 276.91,136.30 277.31,136.03 277.71,135.75 278.10,135.48 278.50,135.21 278.75,135.05 279.00,134.88 279.04,134.98 279.12,135.21 279.28,135.74 279.59,137.03 279.99,139.07 280.39,141.59 280.71,143.98 281.03,146.68 281.07,146.91 281.15,147.34 281.31,148.21 281.62,149.95 282.02,152.11 282.42,154.27 282.81,156.40 283.21,158.53 283.61,160.64 284.00,162.75 284.40,164.84 284.80,166.91 285.19,168.98 285.59,171.03 285.99,173.06 286.38,175.09 286.78,177.10 287.18,179.10 287.57,181.08 287.97,183.05 288.36,185.00 288.76,186.94 289.16,188.87 289.55,190.79 289.95,192.68 290.35,194.57 290.74,196.44 291.14,198.30 291.54,200.14 291.93,201.97 292.33,203.79 292.73,205.59 293.12,207.38 293.52,209.15 293.92,210.91 294.31,212.65 294.71,214.38 295.11,216.10 295.50,217.81 295.90,219.50 296.29,221.17 296.69,222.84 297.09,224.48 297.48,226.12 297.88,227.74 298.28,229.35 298.67,230.95 299.07,232.53 299.47,234.10 299.86,235.65 300.26,237.19 300.66,238.72 301.05,240.24 301.45,241.74 301.85,243.23 302.24,244.71 302.64,246.18 303.03,247.63 303.43,249.07 303.83,250.50 304.22,251.92 304.62,253.32 305.02,254.71 305.41,256.09 305.81,257.46 306.21,258.81 306.60,260.16 307.00,261.49 307.40,262.81 307.79,264.12 308.19,265.42 308.59,266.70 308.98,267.98 309.38,269.24 309.78,270.50 310.17,271.74 310.57,272.97 310.96,274.19 311.36,275.40 311.76,276.60 312.15,277.78 312.55,278.96 312.95,280.13 313.34,281.29 313.74,282.43 314.14,283.57 314.53,284.69 314.93,285.81 315.33,286.92 315.72,288.01 316.12,289.10 316.52,290.18 316.91,291.25 317.31,292.30 317.70,293.35 318.10,294.39 318.50,295.42 318.89,296.44 319.29,297.45 319.69,298.46 320.08,299.45 320.48,300.43 320.88,301.41 321.27,302.38 321.67,303.34 322.07,304.29 322.46,305.23 322.86,306.16 323.26,307.09 323.65,308.00 324.05,308.91 324.45,309.81 324.84,310.70 325.24,311.59 325.63,312.46 326.03,313.33 326.43,314.19 326.82,315.04 327.22,315.89 327.62,316.73 328.01,317.56 328.41,318.38 328.81,319.19 329.20,320.00 329.60,320.80 330.00,321.60 330.39,322.38 330.79,323.16 331.19,323.93 331.58,324.70 331.98,325.46 332.37,326.21 332.77,326.95 333.17,327.69 333.56,328.42 333.96,329.15 334.36,329.87 334.75,330.58 335.15,331.28 335.55,331.98 335.94,332.68 336.34,333.36 336.74,334.04 337.13,334.72 337.53,335.39 337.93,336.05 338.32,336.70 338.72,337.36 339.11,338.00 339.51,338.64 339.91,339.27 340.30,339.90 340.70,340.52 341.10,341.14 341.49,341.75 341.89,342.35 342.29,342.95 342.68,343.55 343.08,344.13 343.48,344.72 343.87,345.30 344.27,345.87 344.67,346.44 345.06,347.00 345.46,347.56 345.86,348.11 346.25,348.66 346.65,349.20 347.04,349.74 347.44,350.27 347.84,350.80 348.23,351.32 348.63,351.84 349.03,352.35 349.42,352.86 349.82,353.37 350.22,353.87 350.61,354.36 351.01,354.86 351.41,355.34 351.80,355.83 352.20,356.30 352.60,356.78 352.99,357.25 353.39,357.71 353.78,358.17 354.18,358.63 354.58,359.08 354.97,359.53 355.37,359.98 355.77,360.42 356.16,360.85 356.56,361.29 356.96,361.72 357.35,362.14 357.75,362.56 358.15,362.98 358.54,363.39 358.94,363.80 359.34,364.21 359.73,364.61 360.13,365.01 360.53,365.41 360.92,365.80 361.32,366.19 361.71,366.57 362.11,366.95 362.51,367.33 362.90,367.70 363.30,368.07 363.70,368.44 364.09,368.81 364.49,369.17 364.89,369.53 365.28,369.88 365.68,370.23 366.08,370.58 366.47,370.92 366.87,371.27 367.27,371.61 367.66,371.94 368.06,372.27 368.45,372.60 368.85,372.93 369.25,373.25 369.64,373.58 370.04,373.89 370.44,374.21 370.83,374.52 371.23,374.83 371.63,375.14 372.02,375.44 372.42,375.74 372.82,376.04 373.21,376.34 373.61,376.63 374.01,376.92 374.40,377.21 374.80,377.49 375.20,377.78 375.59,378.06 375.99,378.33 376.38,378.61 376.78,378.88 377.18,379.15 377.57,379.42 377.97,379.68 378.37,379.95 378.76,380.21 379.16,380.47 379.56,380.72 379.95,380.98 380.35,381.23 380.75,381.48 381.14,381.72 381.54,381.97 381.94,382.21 382.23,382.39 382.53,382.57 382.57,382.47 382.65,382.23 382.81,381.69 383.12,380.38 383.52,378.31 383.92,375.77 384.24,373.36 384.56,370.64 384.60,370.41 384.68,369.96 384.84,369.08 385.15,367.33 385.55,365.14 385.95,362.97 386.34,360.81 386.74,358.66 387.14,356.53 387.53,354.41 387.93,352.30 388.33,350.20 388.72,348.12 389.12,346.05 389.52,343.99 389.91,341.95 390.31,339.92 390.71,337.91 391.10,335.91 391.50,333.92 391.89,331.95 392.29,329.99 392.69,328.04 393.08,326.11 393.48,324.19 393.88,322.29 394.27,320.40 394.67,318.53 395.07,316.67 395.46,314.82 395.86,312.99 396.26,311.17 396.65,309.37 397.05,307.58 397.45,305.80 397.84,304.04 398.24,302.29 398.64,300.56 399.03,298.84 399.43,297.14 399.82,295.44 400.22,293.76 400.62,292.10 401.01,290.45 401.41,288.81 401.81,287.19 402.20,285.58 402.60,283.98 403.00,282.40 403.39,280.83 403.79,279.27 404.19,277.72 404.58,276.19 404.98,274.68 405.38,273.17 405.77,271.68 406.17,270.20 406.56,268.73 406.96,267.27 407.36,265.83 407.75,264.40 408.15,262.98 408.55,261.58 408.94,260.18 409.34,258.80 409.74,257.43 410.13,256.08 410.53,254.73 410.93,253.40 411.32,252.07 411.72,250.76 412.12,249.46 412.51,248.17 412.91,246.90 413.31,245.63 413.70,244.37 414.10,243.13 414.49,241.90 414.89,240.68 415.29,239.46 415.68,238.26 416.08,237.07 416.48,235.89 416.87,234.72 417.27,233.56 417.67,232.42 418.06,231.28 418.46,230.15 418.86,229.03 419.25,227.92 419.65,226.82 420.05,225.73 420.44,224.65 420.84,223.58 421.23,222.52 421.63,221.47 422.03,220.43 422.42,219.40 422.82,218.37 423.22,217.36 423.61,216.35 424.01,215.36 424.41,214.37 424.80,213.39 425.20,212.42 425.60,211.46 425.99,210.51 426.39,209.56 426.79,208.63 427.18,207.70 427.58,206.78 427.98,205.87 428.37,204.97 428.77,204.07 429.16,203.19 429.56,202.31 429.96,201.44 430.35,200.57 430.75,199.72 431.15,198.87 431.54,198.03 431.94,197.20 432.34,196.37 432.73,195.56 433.13,194.75 433.53,193.94 433.92,193.15 434.32,192.36 434.72,191.58 435.11,190.80 435.51,190.03 435.90,189.27 436.30,188.52 436.70,187.77 437.09,187.03 437.49,186.30 437.89,185.57 438.28,184.85 438.68,184.13 439.08,183.43 439.47,182.73 439.87,182.03 440.27,181.34 440.66,180.66 441.06,179.98 441.46,179.31 441.85,178.65 442.25,177.99 442.64,177.34 443.04,176.69 443.44,176.05 443.83,175.41 444.23,174.78 444.63,174.16 445.02,173.54 445.42,172.93 445.82,172.32 446.21,171.72 446.61,171.12 447.01,170.53 447.40,169.95 447.80,169.37 448.20,168.79 448.59,168.22 448.99,167.66 449.39,167.10 449.78,166.54 450.18,165.99 450.57,165.45 450.97,164.91 451.37,164.37 451.76,163.84 452.16,163.32 452.56,162.80 452.95,162.28 453.35,161.77 453.75,161.26 454.14,160.76 454.54,160.26 454.94,159.77 455.33,159.28 455.73,158.80 456.13,158.32 456.52,157.84 456.92,157.37 457.31,156.90 457.71,156.44 458.11,155.98 458.50,155.53 458.90,155.08 459.30,154.63 459.69,154.19 460.09,153.75 460.49,153.31 460.88,152.88 461.28,152.46 461.68,152.03 462.07,151.62 462.47,151.20 462.87,150.79 463.26,150.38 463.66,149.98 464.06,149.58 464.45,149.18 464.85,148.79 465.24,148.40 465.64,148.01 466.04,147.63 466.43,147.25 466.83,146.87 467.23,146.50 467.62,146.13 468.02,145.77 468.42,145.40 468.81,145.04 469.21,144.69 469.61,144.34 470.00,143.99 470.40,143.64 470.80,143.30 471.19,142.96 471.59,142.62 471.98,142.29 472.38,141.95 472.78,141.63 473.17,141.30 473.57,140.98 473.97,140.66 474.36,140.34 474.76,140.03 475.16,139.72 475.55,139.41 475.95,139.11 476.35,138.80 476.74,138.50 477.14,138.21 477.54,137.91 477.93,137.62 478.33,137.33 478.73,137.05 479.12,136.76 479.52,136.48 479.91,136.20 480.31,135.93 480.71,135.65 481.10,135.38 481.50,135.11 481.75,134.95 482.00,134.78 482.04,134.88 482.12,135.11 482.28,135.64 482.59,136.93 482.99,138.97 483.39,141.49 483.71,143.88 484.03,146.58 484.07,146.81 484.15,147.25 484.31,148.12 484.62,149.85 485.02,152.01 485.42,154.17 485.81,156.30 486.21,158.43 486.61,160.54 487.00,162.65 487.40,164.74 487.80,166.81 488.19,168.88 488.59,170.93 488.99,172.96 489.38,174.99 489.78,177.00 490.18,179.00 490.57,180.98 490.97,182.95 491.36,184.90 491.76,186.84 492.16,188.77 492.55,190.69 492.95,192.58 493.35,194.47 493.74,196.34 494.14,198.20 494.54,200.04 494.93,201.87 495.33,203.69 495.73,205.49 496.12,207.28 496.52,209.05 496.92,210.81 497.31,212.55 497.71,214.29 498.11,216.00 498.50,217.71 498.90,219.40 499.29,221.07 499.69,222.74 500.09,224.38 500.48,226.02 500.88,227.64 501.28,229.25 501.67,230.85 502.07,232.43 502.47,234.00 502.86,235.55 503.26,237.09 503.66,238.62 504.05,240.14 504.45,241.64 504.85,243.14 505.24,244.61 505.64,246.08 506.03,247.53 506.43,248.97 506.83,250.40 507.22,251.82 507.62,253.22 508.02,254.61 508.41,255.99 508.81,257.36 509.21,258.72 509.60,260.06 510.00,261.39 510.40,262.71 510.79,264.02 511.19,265.32 511.59,266.60 511.98,267.88 512.38,269.14 512.78,270.40 513.17,271.64 513.57,272.87 513.96,274.09 514.36,275.30 514.76,276.50 515.15,277.68 515.55,278.86 515.95,280.03 516.34,281.19 516.74,282.33 517.14,283.47 517.53,284.59 517.93,285.71 518.33,286.82 518.72,287.91 519.12,289.00 519.52,290.08 519.91,291.15 520.31,292.20 520.70,293.25 521.10,294.29 521.50,295.32 521.89,296.34 522.29,297.35 522.69,298.36 523.08,299.35 523.48,300.33 523.88,301.31 524.27,302.28 524.67,303.24 525.07,304.19 525.46,305.13 525.86,306.06 526.26,306.99 526.65,307.90 527.05,308.81 527.45,309.71 527.84,310.60 528.24,311.49 528.63,312.36 529.03,313.23 529.43,314.09 529.82,314.95 530.22,315.79 530.62,316.63 531.01,317.46 531.41,318.28 531.81,319.10 532.20,319.90 532.60,320.70 533.00,321.50 533.39,322.28 533.79,323.06 534.19,323.83 534.58,324.60 534.98,325.36 535.37,326.11 535.77,326.85 536.17,327.59 536.56,328.32 536.96,329.05 537.36,329.77 537.75,330.48 538.15,331.19 538.55,331.88 538.94,332.58 539.34,333.26 539.74,333.94 540.13,334.62 540.53,335.29 540.93,335.95 541.32,336.61 541.72,337.26 542.11,337.90 542.51,338.54 542.91,339.17 543.30,339.80 543.70,340.42 544.10,341.04 544.49,341.65 544.89,342.25 545.29,342.85 545.68,343.45 546.08,344.03 546.48,344.62 546.87,345.20 547.27,345.77 547.67,346.34 548.06,346.90 548.46,347.46 548.86,348.01 549.25,348.56 549.65,349.10 550.04,349.64 550.44,350.17 550.84,350.70 551.23,351.22 551.63,351.74 552.03,352.26 552.42,352.76 552.82,353.27 553.22,353.77 553.61,354.27 554.01,354.76 554.41,355.24 554.80,355.73 555.20,356.20 555.60,356.68 555.99,357.15 556.39,357.61 556.78,358.07 557.18,358.53 557.58,358.98 557.97,359.43 558.37,359.88 558.77,360.32 559.16,360.75 559.56,361.19 559.96,361.62 560.35,362.04 560.75,362.46 561.15,362.88 561.54,363.29 561.94,363.70 562.34,364.11 562.73,364.51 563.13,364.91 563.53,365.31 563.92,365.70 564.32,366.09 564.71,366.47 565.11,366.85 565.51,367.23 565.90,367.60 566.30,367.97 566.70,368.34 567.09,368.71 567.49,369.07 567.89,369.43 568.28,369.78 568.68,370.13 569.08,370.48 569.47,370.82 569.87,371.17 570.27,371.51 570.66,371.84 571.06,372.17 571.45,372.50 571.85,372.83 572.25,373.15 572.64,373.48 573.04,373.79 573.44,374.11 573.83,374.42 574.23,374.73 574.63,375.04 575.02,375.34 575.42,375.64 575.82,375.94 576.21,376.24 576.61,376.53 577.01,376.82 577.40,377.11 577.80,377.39 578.20,377.68 578.59,377.96 578.99,378.23 579.38,378.51 579.78,378.78 580.18,379.05 580.57,379.32 580.97,379.58 581.37,379.85 581.76,380.11 582.16,380.37 582.56,380.62 582.95,380.88 583.35,381.13 583.75,381.38 584.14,381.62 584.54,381.87 584.94,382.11 585.23,382.29 585.53,382.47 585.57,382.37 585.65,382.13 585.81,381.59 586.12,380.28 586.52,378.21 586.92,375.67 587.24,373.26 587.56,370.54 587.60,370.31 587.68,369.86 587.84,368.98 588.15,367.23 588.55,365.04 588.95,362.87 589.34,360.71 589.74,358.56 590.14,356.43 590.53,354.31 590.93,352.20 591.33,350.10 591.72,348.02 592.12,345.95 592.52,343.90 592.91,341.85 593.31,339.82 593.71,337.81 594.10,335.81 594.50,333.82 594.89,331.85 595.29,329.89 595.69,327.94 596.08,326.01 596.48,324.09 596.88,322.19 597.27,320.30 597.67,318.43 598.07,316.57 598.46,314.72 598.86,312.89 599.26,311.07 599.65,309.27 600.05,307.48 600.45,305.70 600.84,303.94 601.24,302.20 601.64,300.46 602.03,298.74 602.43,297.04 602.82,295.34 603.22,293.67 603.62,292.00 604.01,290.35 604.41,288.71 604.81,287.09 605.20,285.48 605.60,283.88 606.00,282.30 606.39,280.73 606.79,279.17 607.19,277.63 607.58,276.09 607.98,274.58 608.38,273.07 608.77,271.58 609.17,270.10 609.56,268.63 609.96,267.17 610.36,265.73 610.75,264.30 611.15,262.88 611.55,261.48 611.94,260.08 612.34,258.70 612.74,257.33 613.13,255.98 613.53,254.63 613.93,253.30 614.32,251.97 614.72,250.66 615.12,249.36 615.51,248.07 615.91,246.80 616.31,245.53 616.70,244.27 617.10,243.03 617.49,241.80 617.89,240.58 618.29,239.36 618.68,238.16 619.08,236.97 619.48,235.79 619.87,234.62 620.27,233.46 620.67,232.32 621.06,231.18 621.46,230.05 621.86,228.93 622.25,227.82 622.65,226.72 623.05,225.63 623.44,224.55 623.84,223.48 624.23,222.42 624.63,221.37 625.03,220.33 625.42,219.30 625.82,218.27 626.22,217.26 626.61,216.25 627.01,215.26 627.41,214.27 627.80,213.29 628.20,212.32 628.60,211.36 628.99,210.41 629.39,209.46 629.79,208.53 630.18,207.60 630.58,206.68 630.98,205.77 631.37,204.87 631.77,203.97 632.16,203.09 632.56,202.21 632.96,201.34 633.35,200.48 633.75,199.62 634.15,198.77 634.54,197.93 634.94,197.10 635.34,196.27 635.73,195.46 636.13,194.65 636.53,193.84 636.92,193.05 637.32,192.26 637.72,191.48 638.11,190.70 638.51,189.93 638.90,189.17 639.30,188.42 639.70,187.67 640.09,186.93 640.49,186.20 640.89,185.47 641.28,184.75 641.68,184.04 642.08,183.33 642.47,182.63 642.87,181.93 643.27,181.24 643.66,180.56 644.06,179.88 644.46,179.21 644.85,178.55 645.25,177.89 645.64,177.24 646.04,176.59 646.44,175.95 646.83,175.31 647.23,174.68 647.63,174.06 648.02,173.44 648.42,172.83 648.82,172.22 649.21,171.62 649.61,171.02 650.01,170.43 650.40,169.85 650.80,169.27 651.20,168.69 651.59,168.12 651.99,167.56 652.39,167.00 652.78,166.44 653.18,165.89 653.57,165.35 653.97,164.81 654.37,164.27 654.76,163.74 655.16,163.22 655.56,162.70 655.95,162.18 656.35,161.67 656.75,161.16 657.14,160.66 657.54,160.16 657.94,159.67 658.33,159.18 658.73,158.70 659.13,158.22 659.52,157.74 659.92,157.27 660.31,156.80 660.71,156.34 661.11,155.88 661.50,155.43 661.90,154.98 662.30,154.53 662.69,154.09 663.09,153.65 663.49,153.22 663.88,152.78 664.28,152.36 664.68,151.94 665.07,151.52 665.47,151.10 665.87,150.69 666.26,150.28 666.66,149.88 667.06,149.48 667.45,149.08 667.85,148.69 668.24,148.30 668.64,147.91 669.04,147.53 669.43,147.15 669.83,146.77 670.23,146.40 670.62,146.03 671.02,145.67 671.42,145.30 671.81,144.95 672.21,144.59 672.61,144.24 673.00,143.89 673.40,143.54 673.80,143.20 674.19,142.86 674.59,142.52 674.98,142.19 675.38,141.86 675.78,141.53 676.17,141.20 676.57,140.88 676.97,140.56 677.36,140.24 677.76,139.93 678.16,139.62 678.55,139.31 678.95,139.01 679.35,138.70 679.74,138.41 680.14,138.11 680.54,137.81 680.93,137.52 681.33,137.23 681.73,136.95 682.12,136.66 682.52,136.38 682.91,136.10 683.31,135.83 683.71,135.55 684.10,135.28 684.50,135.01 684.75,134.85 685.00,134.68 685.04,134.78 685.12,135.01 685.28,135.54 685.59,136.83 685.99,138.87 686.39,141.39 686.71,143.78 687.03,146.48 687.07,146.71 687.15,147.15 687.31,148.02 687.62,149.75 688.02,151.91 688.42,154.07 688.81,156.20 689.21,158.33 689.61,160.45 690.00,162.55 690.40,164.64 690.80,166.71 691.19,168.78 691.59,170.83 691.99,172.86 692.38,174.89 692.78,176.90 693.18,178.90 693.57,180.88 693.97,182.85 694.36,184.80 694.76,186.75 695.16,188.67 695.55,190.59 695.95,192.49 696.35,194.37 696.74,196.24 697.14,198.10 697.54,199.94 697.93,201.77 698.33,203.59 698.73,205.39 699.12,207.18 699.52,208.95 699.92,210.71 700.31,212.46 700.71,214.19 701.11,215.90 701.50,217.61 701.90,219.30 702.29,220.97 702.69,222.64 703.09,224.29 703.48,225.92 703.88,227.54 704.28,229.15 704.67,230.75 705.07,232.33 705.47,233.90 705.86,235.45 706.26,237.00 706.66,238.53 707.05,240.04 707.45,241.55 707.85,243.04 708.24,244.51 708.64,245.98 709.03,247.43 709.43,248.87 709.83,250.30 710.22,251.72 710.62,253.12 711.02,254.51 711.41,255.89 711.81,257.26 712.21,258.62 712.60,259.96 713.00,261.29 713.40,262.61 713.79,263.92 714.19,265.22 714.59,266.51 714.98,267.78 715.38,269.04 715.78,270.30 716.17,271.54 716.57,272.77 716.96,273.99 717.36,275.20 717.76,276.40 718.15,277.59 718.55,278.76 718.95,279.93 719.34,281.09 719.74,282.23 720.14,283.37 720.53,284.50 720.93,285.61 721.33,286.72 721.72,287.82 722.12,288.90 722.52,289.98 722.91,291.05 723.31,292.10 723.70,293.15 724.10,294.19 724.50,295.22 724.89,296.24 725.29,297.25 725.69,298.26 726.08,299.25 726.48,300.24 726.88,301.21 727.27,302.18 727.67,303.14 728.07,304.09 728.46,305.03 728.86,305.96 729.26,306.89 729.65,307.80 730.05,308.71 730.45,309.61 730.84,310.50 731.24,311.39 731.63,312.26 732.03,313.13 732.43,313.99 732.82,314.85 733.22,315.69 733.62,316.53 734.01,317.36 734.41,318.18 734.81,319.00 735.20,319.80 735.60,320.60 736.00,321.40 736.39,322.18 736.79,322.96 737.19,323.74 737.58,324.50 737.98,325.26 738.37,326.01 738.77,326.76 739.17,327.49 739.56,328.23 739.96,328.95 740.36,329.67 740.75,330.38 741.15,331.09 741.55,331.78 741.94,332.48 742.34,333.16 742.74,333.84 743.13,334.52 743.53,335.19 743.93,335.85 744.32,336.51 744.72,337.16 745.11,337.80 745.51,338.44 745.91,339.07 746.30,339.70 746.70,340.32 747.10,340.94 747.49,341.55 747.89,342.15 748.29,342.75 748.68,343.35 749.08,343.94 749.48,344.52 749.87,345.10 750.27,345.67 750.67,346.24 751.06,346.80 751.46,347.36 751.86,347.91 752.25,348.46 752.65,349.00 753.04,349.54 753.44,350.07 753.84,350.60 754.23,351.12 754.63,351.64 755.03,352.16 755.42,352.67 755.82,353.17 756.22,353.67 756.61,354.17 757.01,354.66 757.41,355.14 757.80,355.63 758.20,356.10 758.60,356.58 758.99,357.05 759.39,357.51 759.78,357.97 760.18,358.43 760.58,358.88 760.97,359.33 761.37,359.78 761.77,360.22 762.16,360.66 762.56,361.09 762.96,361.52 763.35,361.94 763.75,362.36 764.15,362.78 764.54,363.19 764.94,363.60 765.34,364.01 765.73,364.41 766.13,364.81 766.53,365.21 766.92,365.60 767.32,365.99 767.71,366.37 768.11,366.75 768.51,367.13 768.90,367.50 769.30,367.88 769.70,368.24 770.09,368.61 770.49,368.97 770.89,369.33 771.28,369.68 771.68,370.03 772.08,370.38 772.47,370.73 772.87,371.07 773.27,371.41 773.66,371.74 774.06,372.08 774.45,372.40 774.85,372.73 775.25,373.06 775.64,373.38 776.04,373.69 776.44,374.01 776.83,374.32 777.23,374.63 777.63,374.94 778.02,375.24 778.42,375.54 778.82,375.84 779.21,376.14 779.61,376.43 780.01,376.72 780.40,377.01 780.80,377.29 781.20,377.58 781.59,377.86 781.99,378.13 782.38,378.41 782.78,378.68 783.18,378.95 783.57,379.22 783.97,379.49 784.37,379.75 784.76,380.01 785.16,380.27 785.56,380.52 785.95,380.78 786.35,381.03 786.75,381.28 787.14,381.52 787.54,381.77 787.94,382.01 788.23,382.19 788.53,382.37 788.57,382.27 788.65,382.03 788.81,381.49 789.12,380.18 789.52,378.11 789.92,375.57 790.24,373.16 790.56,370.44 790.60,370.21 790.68,369.76 790.84,368.89 791.15,367.13 791.55,364.95 791.95,362.77 792.34,360.61 792.74,358.47 793.14,356.33 793.53,354.21 793.93,352.10 794.33,350.00 794.72,347.92 795.12,345.85 795.52,343.80 795.91,341.75 796.31,339.72 796.71,337.71 797.10,335.71 797.50,333.72 797.89,331.75 798.29,329.79 798.69,327.84 799.08,325.91 799.48,324.00 799.88,322.09 800.27,320.20 800.67,318.33 801.07,316.47 801.46,314.62 801.86,312.79 802.26,310.97 802.65,309.17 803.05,307.38 803.45,305.61 803.84,303.84 804.24,302.10 804.64,300.36 805.03,298.64 805.43,296.94 805.82,295.25 806.22,293.57 806.62,291.90 807.01,290.25 807.41,288.61 807.81,286.99 808.20,285.38 808.60,283.78 809.00,282.20 809.39,280.63 809.79,279.07 810.19,277.53 810.58,276.00 810.98,274.48 811.38,272.97 811.77,271.48 812.17,270.00 812.56,268.53 812.96,267.08 813.36,265.63 813.75,264.20 814.15,262.78 814.55,261.38 814.94,259.99 815.34,258.60 815.74,257.23 816.13,255.88 816.53,254.53 816.93,253.20 817.32,251.87 817.72,250.56 818.12,249.26 818.51,247.97 818.91,246.70 819.31,245.43 819.70,244.18 820.10,242.93 820.49,241.70 820.89,240.48 821.29,239.26 821.68,238.06 822.08,236.87 822.48,235.69 822.87,234.52 823.27,233.37 823.67,232.22 824.06,231.08 824.46,229.95 824.86,228.83 825.25,227.72 825.65,226.62 826.05,225.53 826.44,224.45 826.84,223.38 827.23,222.32 827.63,221.27 828.03,220.23 828.42,219.20 828.82,218.17 829.22,217.16 829.61,216.16 830.01,215.16 830.41,214.17 830.80,213.19 831.20,212.22 831.60,211.26 831.99,210.31 832.39,209.37 832.79,208.43 833.18,207.50 833.58,206.58 833.98,205.67 834.37,204.77 834.77,203.88 835.16,202.99 835.56,202.11 835.96,201.24 836.35,200.38 836.75,199.52 837.15,198.67 837.54,197.83 837.94,197.00 838.34,196.18 838.73,195.36 839.13,194.55 839.53,193.74 839.92,192.95 840.32,192.16 840.72,191.38 841.11,190.60 841.51,189.84 841.90,189.07 842.30,188.32 842.70,187.57 843.09,186.83 843.49,186.10 843.89,185.37 844.28,184.65 844.68,183.94 845.08,183.23 845.47,182.53 845.87,181.83 846.27,181.14 846.66,180.46 847.06,179.78 847.46,179.11 847.85,178.45 848.25,177.79 848.64,177.14 849.04,176.49 849.44,175.85 849.83,175.21 850.23,174.58 850.63,173.96 851.02,173.34 851.42,172.73 851.82,172.12 852.21,171.52 852.61,170.92 853.01,170.33 853.40,169.75 853.80,169.17 854.20,168.59 854.59,168.02 854.99,167.46 855.39,166.90 855.78,166.34 856.18,165.79 856.57,165.25 856.97,164.71 857.37,164.17 857.76,163.64 858.16,163.12 858.56,162.60 858.95,162.08 859.35,161.57 859.75,161.06 860.14,160.56 860.54,160.06 860.94,159.57 861.33,159.08 861.73,158.60 862.13,158.12 862.52,157.64 862.92,157.17 863.31,156.70 863.71,156.24 864.11,155.78 864.50,155.33 864.90,154.88 865.30,154.43 865.69,153.99 866.09,153.55 866.49,153.12 866.88,152.69 867.28,152.26 867.68,151.84 868.07,151.42 868.47,151.00 868.87,150.59 869.26,150.18 869.66,149.78 870.06,149.38 870.45,148.98 870.85,148.59 871.24,148.20 871.64,147.81 872.04,147.43 872.43,147.05 872.83,146.67 873.23,146.30 873.62,145.93 874.02,145.57 874.42,145.21 874.81,144.85 875.21,144.49 875.61,144.14 876.00,143.79 876.40,143.44 876.80,143.10 877.19,142.76 877.59,142.42 877.98,142.09 878.38,141.76 878.78,141.43 879.17,141.10 879.57,140.78 879.97,140.46 880.36,140.15 880.76,139.83 881.16,139.52 881.55,139.21 881.95,138.91 882.35,138.61 882.74,138.31 883.14,138.01 883.54,137.72 883.93,137.42 884.33,137.13 884.73,136.85 885.12,136.56 885.52,136.28 885.91,136.00 886.31,135.73 886.71,135.46 887.10,135.18 887.50,134.92 887.75,134.75" fill="none" stroke="#1665d8" stroke-width="3" stroke-linejoin="round"/>
<line x1="660" y1="88" x2="696" y2="88" stroke="#1665d8" stroke-width="3"/>
<text x="706" y="93" font-family="Arial, Helvetica, sans-serif" font-size="13" font-weight="400" text-anchor="start" fill="#111">load output</text>
<polyline points="76.00,382.67 76.04,377.80 76.12,368.06 76.28,348.58 76.59,309.62 76.99,260.92 77.39,212.22 77.71,172.78 78.03,133.33 78.07,133.33 78.15,133.33 78.31,133.33 78.62,133.33 79.02,133.33 79.42,133.33 79.81,133.33 80.21,133.33 80.61,133.33 81.00,133.33 81.40,133.33 81.80,133.33 82.19,133.33 82.59,133.33 82.99,133.33 83.38,133.33 83.78,133.33 84.18,133.33 84.57,133.33 84.97,133.33 85.36,133.33 85.76,133.33 86.16,133.33 86.55,133.33 86.95,133.33 87.35,133.33 87.74,133.33 88.14,133.33 88.54,133.33 88.93,133.33 89.33,133.33 89.73,133.33 90.12,133.33 90.52,133.33 90.92,133.33 91.31,133.33 91.71,133.33 92.11,133.33 92.50,133.33 92.90,133.33 93.29,133.33 93.69,133.33 94.09,133.33 94.48,133.33 94.88,133.33 95.28,133.33 95.67,133.33 96.07,133.33 96.47,133.33 96.86,133.33 97.26,133.33 97.66,133.33 98.05,133.33 98.45,133.33 98.85,133.33 99.24,133.33 99.64,133.33 100.03,133.33 100.43,133.33 100.83,133.33 101.22,133.33 101.62,133.33 102.02,133.33 102.41,133.33 102.81,133.33 103.21,133.33 103.60,133.33 104.00,133.33 104.40,133.33 104.79,133.33 105.19,133.33 105.59,133.33 105.98,133.33 106.38,133.33 106.78,133.33 107.17,133.33 107.57,133.33 107.96,133.33 108.36,133.33 108.76,133.33 109.15,133.33 109.55,133.33 109.95,133.33 110.34,133.33 110.74,133.33 111.14,133.33 111.53,133.33 111.93,133.33 112.33,133.33 112.72,133.33 113.12,133.33 113.52,133.33 113.91,133.33 114.31,133.33 114.70,133.33 115.10,133.33 115.50,133.33 115.89,133.33 116.29,133.33 116.69,133.33 117.08,133.33 117.48,133.33 117.88,133.33 118.27,133.33 118.67,133.33 119.07,133.33 119.46,133.33 119.86,133.33 120.26,133.33 120.65,133.33 121.05,133.33 121.45,133.33 121.84,133.33 122.24,133.33 122.63,133.33 123.03,133.33 123.43,133.33 123.82,133.33 124.22,133.33 124.62,133.33 125.01,133.33 125.41,133.33 125.81,133.33 126.20,133.33 126.60,133.33 127.00,133.33 127.39,133.33 127.79,133.33 128.19,133.33 128.58,133.33 128.98,133.33 129.37,133.33 129.77,133.33 130.17,133.33 130.56,133.33 130.96,133.33 131.36,133.33 131.75,133.33 132.15,133.33 132.55,133.33 132.94,133.33 133.34,133.33 133.74,133.33 134.13,133.33 134.53,133.33 134.93,133.33 135.32,133.33 135.72,133.33 136.11,133.33 136.51,133.33 136.91,133.33 137.30,133.33 137.70,133.33 138.10,133.33 138.49,133.33 138.89,133.33 139.29,133.33 139.68,133.33 140.08,133.33 140.48,133.33 140.87,133.33 141.27,133.33 141.67,133.33 142.06,133.33 142.46,133.33 142.86,133.33 143.25,133.33 143.65,133.33 144.04,133.33 144.44,133.33 144.84,133.33 145.23,133.33 145.63,133.33 146.03,133.33 146.42,133.33 146.82,133.33 147.22,133.33 147.61,133.33 148.01,133.33 148.41,133.33 148.80,133.33 149.20,133.33 149.60,133.33 149.99,133.33 150.39,133.33 150.78,133.33 151.18,133.33 151.58,133.33 151.97,133.33 152.37,133.33 152.77,133.33 153.16,133.33 153.56,133.33 153.96,133.33 154.35,133.33 154.75,133.33 155.15,133.33 155.54,133.33 155.94,133.33 156.34,133.33 156.73,133.33 157.13,133.33 157.53,133.33 157.92,133.33 158.32,133.33 158.71,133.33 159.11,133.33 159.51,133.33 159.90,133.33 160.30,133.33 160.70,133.33 161.09,133.33 161.49,133.33 161.89,133.33 162.28,133.33 162.68,133.33 163.08,133.33 163.47,133.33 163.87,133.33 164.27,133.33 164.66,133.33 165.06,133.33 165.45,133.33 165.85,133.33 166.25,133.33 166.64,133.33 167.04,133.33 167.44,133.33 167.83,133.33 168.23,133.33 168.63,133.33 169.02,133.33 169.42,133.33 169.82,133.33 170.21,133.33 170.61,133.33 171.01,133.33 171.40,133.33 171.80,133.33 172.20,133.33 172.59,133.33 172.99,133.33 173.38,133.33 173.78,133.33 174.18,133.33 174.57,133.33 174.97,133.33 175.37,133.33 175.76,133.33 176.16,133.33 176.56,133.33 176.95,133.33 177.35,133.33 177.75,133.33 178.14,133.33 178.54,133.33 178.94,133.33 179.23,133.33 179.53,133.33 179.57,138.20 179.65,147.94 179.81,167.42 180.12,206.38 180.52,255.08 180.92,303.78 181.24,343.22 181.56,382.67 181.60,382.67 181.68,382.67 181.84,382.67 182.15,382.67 182.55,382.67 182.95,382.67 183.34,382.67 183.74,382.67 184.14,382.67 184.53,382.67 184.93,382.67 185.33,382.67 185.72,382.67 186.12,382.67 186.52,382.67 186.91,382.67 187.31,382.67 187.71,382.67 188.10,382.67 188.50,382.67 188.89,382.67 189.29,382.67 189.69,382.67 190.08,382.67 190.48,382.67 190.88,382.67 191.27,382.67 191.67,382.67 192.07,382.67 192.46,382.67 192.86,382.67 193.26,382.67 193.65,382.67 194.05,382.67 194.45,382.67 194.84,382.67 195.24,382.67 195.64,382.67 196.03,382.67 196.43,382.67 196.82,382.67 197.22,382.67 197.62,382.67 198.01,382.67 198.41,382.67 198.81,382.67 199.20,382.67 199.60,382.67 200.00,382.67 200.39,382.67 200.79,382.67 201.19,382.67 201.58,382.67 201.98,382.67 202.38,382.67 202.77,382.67 203.17,382.67 203.56,382.67 203.96,382.67 204.36,382.67 204.75,382.67 205.15,382.67 205.55,382.67 205.94,382.67 206.34,382.67 206.74,382.67 207.13,382.67 207.53,382.67 207.93,382.67 208.32,382.67 208.72,382.67 209.12,382.67 209.51,382.67 209.91,382.67 210.31,382.67 210.70,382.67 211.10,382.67 211.49,382.67 211.89,382.67 212.29,382.67 212.68,382.67 213.08,382.67 213.48,382.67 213.87,382.67 214.27,382.67 214.67,382.67 215.06,382.67 215.46,382.67 215.86,382.67 216.25,382.67 216.65,382.67 217.05,382.67 217.44,382.67 217.84,382.67 218.23,382.67 218.63,382.67 219.03,382.67 219.42,382.67 219.82,382.67 220.22,382.67 220.61,382.67 221.01,382.67 221.41,382.67 221.80,382.67 222.20,382.67 222.60,382.67 222.99,382.67 223.39,382.67 223.79,382.67 224.18,382.67 224.58,382.67 224.98,382.67 225.37,382.67 225.77,382.67 226.16,382.67 226.56,382.67 226.96,382.67 227.35,382.67 227.75,382.67 228.15,382.67 228.54,382.67 228.94,382.67 229.34,382.67 229.73,382.67 230.13,382.67 230.53,382.67 230.92,382.67 231.32,382.67 231.72,382.67 232.11,382.67 232.51,382.67 232.90,382.67 233.30,382.67 233.70,382.67 234.09,382.67 234.49,382.67 234.89,382.67 235.28,382.67 235.68,382.67 236.08,382.67 236.47,382.67 236.87,382.67 237.27,382.67 237.66,382.67 238.06,382.67 238.46,382.67 238.85,382.67 239.25,382.67 239.64,382.67 240.04,382.67 240.44,382.67 240.83,382.67 241.23,382.67 241.63,382.67 242.02,382.67 242.42,382.67 242.82,382.67 243.21,382.67 243.61,382.67 244.01,382.67 244.40,382.67 244.80,382.67 245.20,382.67 245.59,382.67 245.99,382.67 246.39,382.67 246.78,382.67 247.18,382.67 247.57,382.67 247.97,382.67 248.37,382.67 248.76,382.67 249.16,382.67 249.56,382.67 249.95,382.67 250.35,382.67 250.75,382.67 251.14,382.67 251.54,382.67 251.94,382.67 252.33,382.67 252.73,382.67 253.13,382.67 253.52,382.67 253.92,382.67 254.31,382.67 254.71,382.67 255.11,382.67 255.50,382.67 255.90,382.67 256.30,382.67 256.69,382.67 257.09,382.67 257.49,382.67 257.88,382.67 258.28,382.67 258.68,382.67 259.07,382.67 259.47,382.67 259.87,382.67 260.26,382.67 260.66,382.67 261.06,382.67 261.45,382.67 261.85,382.67 262.24,382.67 262.64,382.67 263.04,382.67 263.43,382.67 263.83,382.67 264.23,382.67 264.62,382.67 265.02,382.67 265.42,382.67 265.81,382.67 266.21,382.67 266.61,382.67 267.00,382.67 267.40,382.67 267.80,382.67 268.19,382.67 268.59,382.67 268.98,382.67 269.38,382.67 269.78,382.67 270.17,382.67 270.57,382.67 270.97,382.67 271.36,382.67 271.76,382.67 272.16,382.67 272.55,382.67 272.95,382.67 273.35,382.67 273.74,382.67 274.14,382.67 274.54,382.67 274.93,382.67 275.33,382.67 275.73,382.67 276.12,382.67 276.52,382.67 276.91,382.67 277.31,382.67 277.71,382.67 278.10,382.67 278.50,382.67 278.75,382.67 279.00,382.67 279.04,377.80 279.12,368.06 279.28,348.58 279.59,309.62 279.99,260.92 280.39,212.22 280.71,172.78 281.03,133.33 281.07,133.33 281.15,133.33 281.31,133.33 281.62,133.33 282.02,133.33 282.42,133.33 282.81,133.33 283.21,133.33 283.61,133.33 284.00,133.33 284.40,133.33 284.80,133.33 285.19,133.33 285.59,133.33 285.99,133.33 286.38,133.33 286.78,133.33 287.18,133.33 287.57,133.33 287.97,133.33 288.36,133.33 288.76,133.33 289.16,133.33 289.55,133.33 289.95,133.33 290.35,133.33 290.74,133.33 291.14,133.33 291.54,133.33 291.93,133.33 292.33,133.33 292.73,133.33 293.12,133.33 293.52,133.33 293.92,133.33 294.31,133.33 294.71,133.33 295.11,133.33 295.50,133.33 295.90,133.33 296.29,133.33 296.69,133.33 297.09,133.33 297.48,133.33 297.88,133.33 298.28,133.33 298.67,133.33 299.07,133.33 299.47,133.33 299.86,133.33 300.26,133.33 300.66,133.33 301.05,133.33 301.45,133.33 301.85,133.33 302.24,133.33 302.64,133.33 303.03,133.33 303.43,133.33 303.83,133.33 304.22,133.33 304.62,133.33 305.02,133.33 305.41,133.33 305.81,133.33 306.21,133.33 306.60,133.33 307.00,133.33 307.40,133.33 307.79,133.33 308.19,133.33 308.59,133.33 308.98,133.33 309.38,133.33 309.78,133.33 310.17,133.33 310.57,133.33 310.96,133.33 311.36,133.33 311.76,133.33 312.15,133.33 312.55,133.33 312.95,133.33 313.34,133.33 313.74,133.33 314.14,133.33 314.53,133.33 314.93,133.33 315.33,133.33 315.72,133.33 316.12,133.33 316.52,133.33 316.91,133.33 317.31,133.33 317.70,133.33 318.10,133.33 318.50,133.33 318.89,133.33 319.29,133.33 319.69,133.33 320.08,133.33 320.48,133.33 320.88,133.33 321.27,133.33 321.67,133.33 322.07,133.33 322.46,133.33 322.86,133.33 323.26,133.33 323.65,133.33 324.05,133.33 324.45,133.33 324.84,133.33 325.24,133.33 325.63,133.33 326.03,133.33 326.43,133.33 326.82,133.33 327.22,133.33 327.62,133.33 328.01,133.33 328.41,133.33 328.81,133.33 329.20,133.33 329.60,133.33 330.00,133.33 330.39,133.33 330.79,133.33 331.19,133.33 331.58,133.33 331.98,133.33 332.37,133.33 332.77,133.33 333.17,133.33 333.56,133.33 333.96,133.33 334.36,133.33 334.75,133.33 335.15,133.33 335.55,133.33 335.94,133.33 336.34,133.33 336.74,133.33 337.13,133.33 337.53,133.33 337.93,133.33 338.32,133.33 338.72,133.33 339.11,133.33 339.51,133.33 339.91,133.33 340.30,133.33 340.70,133.33 341.10,133.33 341.49,133.33 341.89,133.33 342.29,133.33 342.68,133.33 343.08,133.33 343.48,133.33 343.87,133.33 344.27,133.33 344.67,133.33 345.06,133.33 345.46,133.33 345.86,133.33 346.25,133.33 346.65,133.33 347.04,133.33 347.44,133.33 347.84,133.33 348.23,133.33 348.63,133.33 349.03,133.33 349.42,133.33 349.82,133.33 350.22,133.33 350.61,133.33 351.01,133.33 351.41,133.33 351.80,133.33 352.20,133.33 352.60,133.33 352.99,133.33 353.39,133.33 353.78,133.33 354.18,133.33 354.58,133.33 354.97,133.33 355.37,133.33 355.77,133.33 356.16,133.33 356.56,133.33 356.96,133.33 357.35,133.33 357.75,133.33 358.15,133.33 358.54,133.33 358.94,133.33 359.34,133.33 359.73,133.33 360.13,133.33 360.53,133.33 360.92,133.33 361.32,133.33 361.71,133.33 362.11,133.33 362.51,133.33 362.90,133.33 363.30,133.33 363.70,133.33 364.09,133.33 364.49,133.33 364.89,133.33 365.28,133.33 365.68,133.33 366.08,133.33 366.47,133.33 366.87,133.33 367.27,133.33 367.66,133.33 368.06,133.33 368.45,133.33 368.85,133.33 369.25,133.33 369.64,133.33 370.04,133.33 370.44,133.33 370.83,133.33 371.23,133.33 371.63,133.33 372.02,133.33 372.42,133.33 372.82,133.33 373.21,133.33 373.61,133.33 374.01,133.33 374.40,133.33 374.80,133.33 375.20,133.33 375.59,133.33 375.99,133.33 376.38,133.33 376.78,133.33 377.18,133.33 377.57,133.33 377.97,133.33 378.37,133.33 378.76,133.33 379.16,133.33 379.56,133.33 379.95,133.33 380.35,133.33 380.75,133.33 381.14,133.33 381.54,133.33 381.94,133.33 382.23,133.33 382.53,133.33 382.57,138.20 382.65,147.94 382.81,167.42 383.12,206.38 383.52,255.08 383.92,303.78 384.24,343.22 384.56,382.67 384.60,382.67 384.68,382.67 384.84,382.67 385.15,382.67 385.55,382.67 385.95,382.67 386.34,382.67 386.74,382.67 387.14,382.67 387.53,382.67 387.93,382.67 388.33,382.67 388.72,382.67 389.12,382.67 389.52,382.67 389.91,382.67 390.31,382.67 390.71,382.67 391.10,382.67 391.50,382.67 391.89,382.67 392.29,382.67 392.69,382.67 393.08,382.67 393.48,382.67 393.88,382.67 394.27,382.67 394.67,382.67 395.07,382.67 395.46,382.67 395.86,382.67 396.26,382.67 396.65,382.67 397.05,382.67 397.45,382.67 397.84,382.67 398.24,382.67 398.64,382.67 399.03,382.67 399.43,382.67 399.82,382.67 400.22,382.67 400.62,382.67 401.01,382.67 401.41,382.67 401.81,382.67 402.20,382.67 402.60,382.67 403.00,382.67 403.39,382.67 403.79,382.67 404.19,382.67 404.58,382.67 404.98,382.67 405.38,382.67 405.77,382.67 406.17,382.67 406.56,382.67 406.96,382.67 407.36,382.67 407.75,382.67 408.15,382.67 408.55,382.67 408.94,382.67 409.34,382.67 409.74,382.67 410.13,382.67 410.53,382.67 410.93,382.67 411.32,382.67 411.72,382.67 412.12,382.67 412.51,382.67 412.91,382.67 413.31,382.67 413.70,382.67 414.10,382.67 414.49,382.67 414.89,382.67 415.29,382.67 415.68,382.67 416.08,382.67 416.48,382.67 416.87,382.67 417.27,382.67 417.67,382.67 418.06,382.67 418.46,382.67 418.86,382.67 419.25,382.67 419.65,382.67 420.05,382.67 420.44,382.67 420.84,382.67 421.23,382.67 421.63,382.67 422.03,382.67 422.42,382.67 422.82,382.67 423.22,382.67 423.61,382.67 424.01,382.67 424.41,382.67 424.80,382.67 425.20,382.67 425.60,382.67 425.99,382.67 426.39,382.67 426.79,382.67 427.18,382.67 427.58,382.67 427.98,382.67 428.37,382.67 428.77,382.67 429.16,382.67 429.56,382.67 429.96,382.67 430.35,382.67 430.75,382.67 431.15,382.67 431.54,382.67 431.94,382.67 432.34,382.67 432.73,382.67 433.13,382.67 433.53,382.67 433.92,382.67 434.32,382.67 434.72,382.67 435.11,382.67 435.51,382.67 435.90,382.67 436.30,382.67 436.70,382.67 437.09,382.67 437.49,382.67 437.89,382.67 438.28,382.67 438.68,382.67 439.08,382.67 439.47,382.67 439.87,382.67 440.27,382.67 440.66,382.67 441.06,382.67 441.46,382.67 441.85,382.67 442.25,382.67 442.64,382.67 443.04,382.67 443.44,382.67 443.83,382.67 444.23,382.67 444.63,382.67 445.02,382.67 445.42,382.67 445.82,382.67 446.21,382.67 446.61,382.67 447.01,382.67 447.40,382.67 447.80,382.67 448.20,382.67 448.59,382.67 448.99,382.67 449.39,382.67 449.78,382.67 450.18,382.67 450.57,382.67 450.97,382.67 451.37,382.67 451.76,382.67 452.16,382.67 452.56,382.67 452.95,382.67 453.35,382.67 453.75,382.67 454.14,382.67 454.54,382.67 454.94,382.67 455.33,382.67 455.73,382.67 456.13,382.67 456.52,382.67 456.92,382.67 457.31,382.67 457.71,382.67 458.11,382.67 458.50,382.67 458.90,382.67 459.30,382.67 459.69,382.67 460.09,382.67 460.49,382.67 460.88,382.67 461.28,382.67 461.68,382.67 462.07,382.67 462.47,382.67 462.87,382.67 463.26,382.67 463.66,382.67 464.06,382.67 464.45,382.67 464.85,382.67 465.24,382.67 465.64,382.67 466.04,382.67 466.43,382.67 466.83,382.67 467.23,382.67 467.62,382.67 468.02,382.67 468.42,382.67 468.81,382.67 469.21,382.67 469.61,382.67 470.00,382.67 470.40,382.67 470.80,382.67 471.19,382.67 471.59,382.67 471.98,382.67 472.38,382.67 472.78,382.67 473.17,382.67 473.57,382.67 473.97,382.67 474.36,382.67 474.76,382.67 475.16,382.67 475.55,382.67 475.95,382.67 476.35,382.67 476.74,382.67 477.14,382.67 477.54,382.67 477.93,382.67 478.33,382.67 478.73,382.67 479.12,382.67 479.52,382.67 479.91,382.67 480.31,382.67 480.71,382.67 481.10,382.67 481.50,382.67 481.75,382.67 482.00,382.67 482.04,377.80 482.12,368.06 482.28,348.58 482.59,309.62 482.99,260.92 483.39,212.22 483.71,172.78 484.03,133.33 484.07,133.33 484.15,133.33 484.31,133.33 484.62,133.33 485.02,133.33 485.42,133.33 485.81,133.33 486.21,133.33 486.61,133.33 487.00,133.33 487.40,133.33 487.80,133.33 488.19,133.33 488.59,133.33 488.99,133.33 489.38,133.33 489.78,133.33 490.18,133.33 490.57,133.33 490.97,133.33 491.36,133.33 491.76,133.33 492.16,133.33 492.55,133.33 492.95,133.33 493.35,133.33 493.74,133.33 494.14,133.33 494.54,133.33 494.93,133.33 495.33,133.33 495.73,133.33 496.12,133.33 496.52,133.33 496.92,133.33 497.31,133.33 497.71,133.33 498.11,133.33 498.50,133.33 498.90,133.33 499.29,133.33 499.69,133.33 500.09,133.33 500.48,133.33 500.88,133.33 501.28,133.33 501.67,133.33 502.07,133.33 502.47,133.33 502.86,133.33 503.26,133.33 503.66,133.33 504.05,133.33 504.45,133.33 504.85,133.33 505.24,133.33 505.64,133.33 506.03,133.33 506.43,133.33 506.83,133.33 507.22,133.33 507.62,133.33 508.02,133.33 508.41,133.33 508.81,133.33 509.21,133.33 509.60,133.33 510.00,133.33 510.40,133.33 510.79,133.33 511.19,133.33 511.59,133.33 511.98,133.33 512.38,133.33 512.78,133.33 513.17,133.33 513.57,133.33 513.96,133.33 514.36,133.33 514.76,133.33 515.15,133.33 515.55,133.33 515.95,133.33 516.34,133.33 516.74,133.33 517.14,133.33 517.53,133.33 517.93,133.33 518.33,133.33 518.72,133.33 519.12,133.33 519.52,133.33 519.91,133.33 520.31,133.33 520.70,133.33 521.10,133.33 521.50,133.33 521.89,133.33 522.29,133.33 522.69,133.33 523.08,133.33 523.48,133.33 523.88,133.33 524.27,133.33 524.67,133.33 525.07,133.33 525.46,133.33 525.86,133.33 526.26,133.33 526.65,133.33 527.05,133.33 527.45,133.33 527.84,133.33 528.24,133.33 528.63,133.33 529.03,133.33 529.43,133.33 529.82,133.33 530.22,133.33 530.62,133.33 531.01,133.33 531.41,133.33 531.81,133.33 532.20,133.33 532.60,133.33 533.00,133.33 533.39,133.33 533.79,133.33 534.19,133.33 534.58,133.33 534.98,133.33 535.37,133.33 535.77,133.33 536.17,133.33 536.56,133.33 536.96,133.33 537.36,133.33 537.75,133.33 538.15,133.33 538.55,133.33 538.94,133.33 539.34,133.33 539.74,133.33 540.13,133.33 540.53,133.33 540.93,133.33 541.32,133.33 541.72,133.33 542.11,133.33 542.51,133.33 542.91,133.33 543.30,133.33 543.70,133.33 544.10,133.33 544.49,133.33 544.89,133.33 545.29,133.33 545.68,133.33 546.08,133.33 546.48,133.33 546.87,133.33 547.27,133.33 547.67,133.33 548.06,133.33 548.46,133.33 548.86,133.33 549.25,133.33 549.65,133.33 550.04,133.33 550.44,133.33 550.84,133.33 551.23,133.33 551.63,133.33 552.03,133.33 552.42,133.33 552.82,133.33 553.22,133.33 553.61,133.33 554.01,133.33 554.41,133.33 554.80,133.33 555.20,133.33 555.60,133.33 555.99,133.33 556.39,133.33 556.78,133.33 557.18,133.33 557.58,133.33 557.97,133.33 558.37,133.33 558.77,133.33 559.16,133.33 559.56,133.33 559.96,133.33 560.35,133.33 560.75,133.33 561.15,133.33 561.54,133.33 561.94,133.33 562.34,133.33 562.73,133.33 563.13,133.33 563.53,133.33 563.92,133.33 564.32,133.33 564.71,133.33 565.11,133.33 565.51,133.33 565.90,133.33 566.30,133.33 566.70,133.33 567.09,133.33 567.49,133.33 567.89,133.33 568.28,133.33 568.68,133.33 569.08,133.33 569.47,133.33 569.87,133.33 570.27,133.33 570.66,133.33 571.06,133.33 571.45,133.33 571.85,133.33 572.25,133.33 572.64,133.33 573.04,133.33 573.44,133.33 573.83,133.33 574.23,133.33 574.63,133.33 575.02,133.33 575.42,133.33 575.82,133.33 576.21,133.33 576.61,133.33 577.01,133.33 577.40,133.33 577.80,133.33 578.20,133.33 578.59,133.33 578.99,133.33 579.38,133.33 579.78,133.33 580.18,133.33 580.57,133.33 580.97,133.33 581.37,133.33 581.76,133.33 582.16,133.33 582.56,133.33 582.95,133.33 583.35,133.33 583.75,133.33 584.14,133.33 584.54,133.33 584.94,133.33 585.23,133.33 585.53,133.33 585.57,138.20 585.65,147.94 585.81,167.42 586.12,206.38 586.52,255.08 586.92,303.78 587.24,343.22 587.56,382.67 587.60,382.67 587.68,382.67 587.84,382.67 588.15,382.67 588.55,382.67 588.95,382.67 589.34,382.67 589.74,382.67 590.14,382.67 590.53,382.67 590.93,382.67 591.33,382.67 591.72,382.67 592.12,382.67 592.52,382.67 592.91,382.67 593.31,382.67 593.71,382.67 594.10,382.67 594.50,382.67 594.89,382.67 595.29,382.67 595.69,382.67 596.08,382.67 596.48,382.67 596.88,382.67 597.27,382.67 597.67,382.67 598.07,382.67 598.46,382.67 598.86,382.67 599.26,382.67 599.65,382.67 600.05,382.67 600.45,382.67 600.84,382.67 601.24,382.67 601.64,382.67 602.03,382.67 602.43,382.67 602.82,382.67 603.22,382.67 603.62,382.67 604.01,382.67 604.41,382.67 604.81,382.67 605.20,382.67 605.60,382.67 606.00,382.67 606.39,382.67 606.79,382.67 607.19,382.67 607.58,382.67 607.98,382.67 608.38,382.67 608.77,382.67 609.17,382.67 609.56,382.67 609.96,382.67 610.36,382.67 610.75,382.67 611.15,382.67 611.55,382.67 611.94,382.67 612.34,382.67 612.74,382.67 613.13,382.67 613.53,382.67 613.93,382.67 614.32,382.67 614.72,382.67 615.12,382.67 615.51,382.67 615.91,382.67 616.31,382.67 616.70,382.67 617.10,382.67 617.49,382.67 617.89,382.67 618.29,382.67 618.68,382.67 619.08,382.67 619.48,382.67 619.87,382.67 620.27,382.67 620.67,382.67 621.06,382.67 621.46,382.67 621.86,382.67 622.25,382.67 622.65,382.67 623.05,382.67 623.44,382.67 623.84,382.67 624.23,382.67 624.63,382.67 625.03,382.67 625.42,382.67 625.82,382.67 626.22,382.67 626.61,382.67 627.01,382.67 627.41,382.67 627.80,382.67 628.20,382.67 628.60,382.67 628.99,382.67 629.39,382.67 629.79,382.67 630.18,382.67 630.58,382.67 630.98,382.67 631.37,382.67 631.77,382.67 632.16,382.67 632.56,382.67 632.96,382.67 633.35,382.67 633.75,382.67 634.15,382.67 634.54,382.67 634.94,382.67 635.34,382.67 635.73,382.67 636.13,382.67 636.53,382.67 636.92,382.67 637.32,382.67 637.72,382.67 638.11,382.67 638.51,382.67 638.90,382.67 639.30,382.67 639.70,382.67 640.09,382.67 640.49,382.67 640.89,382.67 641.28,382.67 641.68,382.67 642.08,382.67 642.47,382.67 642.87,382.67 643.27,382.67 643.66,382.67 644.06,382.67 644.46,382.67 644.85,382.67 645.25,382.67 645.64,382.67 646.04,382.67 646.44,382.67 646.83,382.67 647.23,382.67 647.63,382.67 648.02,382.67 648.42,382.67 648.82,382.67 649.21,382.67 649.61,382.67 650.01,382.67 650.40,382.67 650.80,382.67 651.20,382.67 651.59,382.67 651.99,382.67 652.39,382.67 652.78,382.67 653.18,382.67 653.57,382.67 653.97,382.67 654.37,382.67 654.76,382.67 655.16,382.67 655.56,382.67 655.95,382.67 656.35,382.67 656.75,382.67 657.14,382.67 657.54,382.67 657.94,382.67 658.33,382.67 658.73,382.67 659.13,382.67 659.52,382.67 659.92,382.67 660.31,382.67 660.71,382.67 661.11,382.67 661.50,382.67 661.90,382.67 662.30,382.67 662.69,382.67 663.09,382.67 663.49,382.67 663.88,382.67 664.28,382.67 664.68,382.67 665.07,382.67 665.47,382.67 665.87,382.67 666.26,382.67 666.66,382.67 667.06,382.67 667.45,382.67 667.85,382.67 668.24,382.67 668.64,382.67 669.04,382.67 669.43,382.67 669.83,382.67 670.23,382.67 670.62,382.67 671.02,382.67 671.42,382.67 671.81,382.67 672.21,382.67 672.61,382.67 673.00,382.67 673.40,382.67 673.80,382.67 674.19,382.67 674.59,382.67 674.98,382.67 675.38,382.67 675.78,382.67 676.17,382.67 676.57,382.67 676.97,382.67 677.36,382.67 677.76,382.67 678.16,382.67 678.55,382.67 678.95,382.67 679.35,382.67 679.74,382.67 680.14,382.67 680.54,382.67 680.93,382.67 681.33,382.67 681.73,382.67 682.12,382.67 682.52,382.67 682.91,382.67 683.31,382.67 683.71,382.67 684.10,382.67 684.50,382.67 684.75,382.67 685.00,382.67 685.04,377.80 685.12,368.06 685.28,348.58 685.59,309.62 685.99,260.92 686.39,212.22 686.71,172.78 687.03,133.33 687.07,133.33 687.15,133.33 687.31,133.33 687.62,133.33 688.02,133.33 688.42,133.33 688.81,133.33 689.21,133.33 689.61,133.33 690.00,133.33 690.40,133.33 690.80,133.33 691.19,133.33 691.59,133.33 691.99,133.33 692.38,133.33 692.78,133.33 693.18,133.33 693.57,133.33 693.97,133.33 694.36,133.33 694.76,133.33 695.16,133.33 695.55,133.33 695.95,133.33 696.35,133.33 696.74,133.33 697.14,133.33 697.54,133.33 697.93,133.33 698.33,133.33 698.73,133.33 699.12,133.33 699.52,133.33 699.92,133.33 700.31,133.33 700.71,133.33 701.11,133.33 701.50,133.33 701.90,133.33 702.29,133.33 702.69,133.33 703.09,133.33 703.48,133.33 703.88,133.33 704.28,133.33 704.67,133.33 705.07,133.33 705.47,133.33 705.86,133.33 706.26,133.33 706.66,133.33 707.05,133.33 707.45,133.33 707.85,133.33 708.24,133.33 708.64,133.33 709.03,133.33 709.43,133.33 709.83,133.33 710.22,133.33 710.62,133.33 711.02,133.33 711.41,133.33 711.81,133.33 712.21,133.33 712.60,133.33 713.00,133.33 713.40,133.33 713.79,133.33 714.19,133.33 714.59,133.33 714.98,133.33 715.38,133.33 715.78,133.33 716.17,133.33 716.57,133.33 716.96,133.33 717.36,133.33 717.76,133.33 718.15,133.33 718.55,133.33 718.95,133.33 719.34,133.33 719.74,133.33 720.14,133.33 720.53,133.33 720.93,133.33 721.33,133.33 721.72,133.33 722.12,133.33 722.52,133.33 722.91,133.33 723.31,133.33 723.70,133.33 724.10,133.33 724.50,133.33 724.89,133.33 725.29,133.33 725.69,133.33 726.08,133.33 726.48,133.33 726.88,133.33 727.27,133.33 727.67,133.33 728.07,133.33 728.46,133.33 728.86,133.33 729.26,133.33 729.65,133.33 730.05,133.33 730.45,133.33 730.84,133.33 731.24,133.33 731.63,133.33 732.03,133.33 732.43,133.33 732.82,133.33 733.22,133.33 733.62,133.33 734.01,133.33 734.41,133.33 734.81,133.33 735.20,133.33 735.60,133.33 736.00,133.33 736.39,133.33 736.79,133.33 737.19,133.33 737.58,133.33 737.98,133.33 738.37,133.33 738.77,133.33 739.17,133.33 739.56,133.33 739.96,133.33 740.36,133.33 740.75,133.33 741.15,133.33 741.55,133.33 741.94,133.33 742.34,133.33 742.74,133.33 743.13,133.33 743.53,133.33 743.93,133.33 744.32,133.33 744.72,133.33 745.11,133.33 745.51,133.33 745.91,133.33 746.30,133.33 746.70,133.33 747.10,133.33 747.49,133.33 747.89,133.33 748.29,133.33 748.68,133.33 749.08,133.33 749.48,133.33 749.87,133.33 750.27,133.33 750.67,133.33 751.06,133.33 751.46,133.33 751.86,133.33 752.25,133.33 752.65,133.33 753.04,133.33 753.44,133.33 753.84,133.33 754.23,133.33 754.63,133.33 755.03,133.33 755.42,133.33 755.82,133.33 756.22,133.33 756.61,133.33 757.01,133.33 757.41,133.33 757.80,133.33 758.20,133.33 758.60,133.33 758.99,133.33 759.39,133.33 759.78,133.33 760.18,133.33 760.58,133.33 760.97,133.33 761.37,133.33 761.77,133.33 762.16,133.33 762.56,133.33 762.96,133.33 763.35,133.33 763.75,133.33 764.15,133.33 764.54,133.33 764.94,133.33 765.34,133.33 765.73,133.33 766.13,133.33 766.53,133.33 766.92,133.33 767.32,133.33 767.71,133.33 768.11,133.33 768.51,133.33 768.90,133.33 769.30,133.33 769.70,133.33 770.09,133.33 770.49,133.33 770.89,133.33 771.28,133.33 771.68,133.33 772.08,133.33 772.47,133.33 772.87,133.33 773.27,133.33 773.66,133.33 774.06,133.33 774.45,133.33 774.85,133.33 775.25,133.33 775.64,133.33 776.04,133.33 776.44,133.33 776.83,133.33 777.23,133.33 777.63,133.33 778.02,133.33 778.42,133.33 778.82,133.33 779.21,133.33 779.61,133.33 780.01,133.33 780.40,133.33 780.80,133.33 781.20,133.33 781.59,133.33 781.99,133.33 782.38,133.33 782.78,133.33 783.18,133.33 783.57,133.33 783.97,133.33 784.37,133.33 784.76,133.33 785.16,133.33 785.56,133.33 785.95,133.33 786.35,133.33 786.75,133.33 787.14,133.33 787.54,133.33 787.94,133.33 788.23,133.33 788.53,133.33 788.57,138.20 788.65,147.94 788.81,167.42 789.12,206.38 789.52,255.08 789.92,303.78 790.24,343.22 790.56,382.67 790.60,382.67 790.68,382.67 790.84,382.67 791.15,382.67 791.55,382.67 791.95,382.67 792.34,382.67 792.74,382.67 793.14,382.67 793.53,382.67 793.93,382.67 794.33,382.67 794.72,382.67 795.12,382.67 795.52,382.67 795.91,382.67 796.31,382.67 796.71,382.67 797.10,382.67 797.50,382.67 797.89,382.67 798.29,382.67 798.69,382.67 799.08,382.67 799.48,382.67 799.88,382.67 800.27,382.67 800.67,382.67 801.07,382.67 801.46,382.67 801.86,382.67 802.26,382.67 802.65,382.67 803.05,382.67 803.45,382.67 803.84,382.67 804.24,382.67 804.64,382.67 805.03,382.67 805.43,382.67 805.82,382.67 806.22,382.67 806.62,382.67 807.01,382.67 807.41,382.67 807.81,382.67 808.20,382.67 808.60,382.67 809.00,382.67 809.39,382.67 809.79,382.67 810.19,382.67 810.58,382.67 810.98,382.67 811.38,382.67 811.77,382.67 812.17,382.67 812.56,382.67 812.96,382.67 813.36,382.67 813.75,382.67 814.15,382.67 814.55,382.67 814.94,382.67 815.34,382.67 815.74,382.67 816.13,382.67 816.53,382.67 816.93,382.67 817.32,382.67 817.72,382.67 818.12,382.67 818.51,382.67 818.91,382.67 819.31,382.67 819.70,382.67 820.10,382.67 820.49,382.67 820.89,382.67 821.29,382.67 821.68,382.67 822.08,382.67 822.48,382.67 822.87,382.67 823.27,382.67 823.67,382.67 824.06,382.67 824.46,382.67 824.86,382.67 825.25,382.67 825.65,382.67 826.05,382.67 826.44,382.67 826.84,382.67 827.23,382.67 827.63,382.67 828.03,382.67 828.42,382.67 828.82,382.67 829.22,382.67 829.61,382.67 830.01,382.67 830.41,382.67 830.80,382.67 831.20,382.67 831.60,382.67 831.99,382.67 832.39,382.67 832.79,382.67 833.18,382.67 833.58,382.67 833.98,382.67 834.37,382.67 834.77,382.67 835.16,382.67 835.56,382.67 835.96,382.67 836.35,382.67 836.75,382.67 837.15,382.67 837.54,382.67 837.94,382.67 838.34,382.67 838.73,382.67 839.13,382.67 839.53,382.67 839.92,382.67 840.32,382.67 840.72,382.67 841.11,382.67 841.51,382.67 841.90,382.67 842.30,382.67 842.70,382.67 843.09,382.67 843.49,382.67 843.89,382.67 844.28,382.67 844.68,382.67 845.08,382.67 845.47,382.67 845.87,382.67 846.27,382.67 846.66,382.67 847.06,382.67 847.46,382.67 847.85,382.67 848.25,382.67 848.64,382.67 849.04,382.67 849.44,382.67 849.83,382.67 850.23,382.67 850.63,382.67 851.02,382.67 851.42,382.67 851.82,382.67 852.21,382.67 852.61,382.67 853.01,382.67 853.40,382.67 853.80,382.67 854.20,382.67 854.59,382.67 854.99,382.67 855.39,382.67 855.78,382.67 856.18,382.67 856.57,382.67 856.97,382.67 857.37,382.67 857.76,382.67 858.16,382.67 858.56,382.67 858.95,382.67 859.35,382.67 859.75,382.67 860.14,382.67 860.54,382.67 860.94,382.67 861.33,382.67 861.73,382.67 862.13,382.67 862.52,382.67 862.92,382.67 863.31,382.67 863.71,382.67 864.11,382.67 864.50,382.67 864.90,382.67 865.30,382.67 865.69,382.67 866.09,382.67 866.49,382.67 866.88,382.67 867.28,382.67 867.68,382.67 868.07,382.67 868.47,382.67 868.87,382.67 869.26,382.67 869.66,382.67 870.06,382.67 870.45,382.67 870.85,382.67 871.24,382.67 871.64,382.67 872.04,382.67 872.43,382.67 872.83,382.67 873.23,382.67 873.62,382.67 874.02,382.67 874.42,382.67 874.81,382.67 875.21,382.67 875.61,382.67 876.00,382.67 876.40,382.67 876.80,382.67 877.19,382.67 877.59,382.67 877.98,382.67 878.38,382.67 878.78,382.67 879.17,382.67 879.57,382.67 879.97,382.67 880.36,382.67 880.76,382.67 881.16,382.67 881.55,382.67 881.95,382.67 882.35,382.67 882.74,382.67 883.14,382.67 883.54,382.67 883.93,382.67 884.33,382.67 884.73,382.67 885.12,382.67 885.52,382.67 885.91,382.67 886.31,382.67 886.71,382.67 887.10,382.67 887.50,382.67 887.75,382.67" fill="none" stroke="#b54708" stroke-width="3" stroke-linejoin="round"/>
<line x1="660" y1="114" x2="696" y2="114" stroke="#b54708" stroke-width="3"/>
<text x="706" y="119" font-family="Arial, Helvetica, sans-serif" font-size="13" font-weight="400" text-anchor="start" fill="#111">input x2.5</text>
<text x="460" y="502" font-family="Arial, Helvetica, sans-serif" font-size="14" font-weight="400" text-anchor="middle" fill="#111">Time after 60 ms settling, ms</text>
<text x="22" y="260" font-family="Arial, Helvetica, sans-serif" font-size="14" text-anchor="middle" fill="#111" transform="rotate(-90 22 260)">Voltage, V</text>
</svg>
