<svg xmlns="http://www.w3.org/2000/svg" width="920" height="520" viewBox="0 0 920 520">
<defs>
<style>
.wire{stroke:#111;stroke-width:2.6;fill:none;stroke-linecap:round;stroke-linejoin:round}
.thin{stroke:#a7b0bd;stroke-width:1.2;fill:none;stroke-linecap:round;stroke-linejoin:round}
.axis{stroke:#111;stroke-width:1.4;fill:none}
.blue{stroke:#1665d8;stroke-width:3;fill:none;stroke-linecap:round;stroke-linejoin:round}
.green{stroke:#13795b;stroke-width:3;fill:none;stroke-linecap:round;stroke-linejoin:round}
.orange{stroke:#b54708;stroke-width:3;fill:none;stroke-linecap:round;stroke-linejoin:round}
.node{fill:#111;stroke:none}
</style>
</defs>
<rect width="100%" height="100%" fill="#fff"/>
<text x="76" y="36" font-family="Arial, Helvetica, sans-serif" font-size="22" font-weight="700" text-anchor="start" fill="#111">Square-wave response, 10 kHz, Vin = 2.0 mVpp</text>
<rect x="76" y="60" width="812" height="396" fill="#fff" stroke="#111" stroke-width="1.4"/>
<line x1="76" y1="60" x2="76" y2="456" class="thin"/>
<text x="76" y="479" font-family="Arial, Helvetica, sans-serif" font-size="12" font-weight="400" text-anchor="middle" fill="#111">0</text>
<line x1="279" y1="60" x2="279" y2="456" class="thin"/>
<text x="279" y="479" font-family="Arial, Helvetica, sans-serif" font-size="12" font-weight="400" text-anchor="middle" fill="#111">0.1</text>
<line x1="482" y1="60" x2="482" y2="456" class="thin"/>
<text x="482" y="479" font-family="Arial, Helvetica, sans-serif" font-size="12" font-weight="400" text-anchor="middle" fill="#111">0.2</text>
<line x1="685" y1="60" x2="685" y2="456" class="thin"/>
<text x="685" y="479" font-family="Arial, Helvetica, sans-serif" font-size="12" font-weight="400" text-anchor="middle" fill="#111">0.3</text>
<line x1="888" y1="60" x2="888" y2="456" class="thin"/>
<text x="888" y="479" font-family="Arial, Helvetica, sans-serif" font-size="12" font-weight="400" text-anchor="middle" fill="#111">0.4</text>
<line x1="76" y1="456" x2="888" y2="456" class="thin"/>
<text x="66" y="460" font-family="Arial, Helvetica, sans-serif" font-size="12" font-weight="400" text-anchor="end" fill="#111">-0.25</text>
<line x1="76" y1="357" x2="888" y2="357" class="thin"/>
<text x="66" y="361" font-family="Arial, Helvetica, sans-serif" font-size="12" font-weight="400" text-anchor="end" fill="#111">-0.125</text>
<line x1="76" y1="258" x2="888" y2="258" class="thin"/>
<text x="66" y="262" font-family="Arial, Helvetica, sans-serif" font-size="12" font-weight="400" text-anchor="end" fill="#111">0</text>
<line x1="76" y1="159" x2="888" y2="159" class="thin"/>
<text x="66" y="163" font-family="Arial, Helvetica, sans-serif" font-size="12" font-weight="400" text-anchor="end" fill="#111">0.125</text>
<line x1="76" y1="60" x2="888" y2="60" class="thin"/>
<text x="66" y="64" font-family="Arial, Helvetica, sans-serif" font-size="12" font-weight="400" text-anchor="end" fill="#111">0.25</text>
<polyline points="76.00,245.13 76.04,245.14 76.12,245.16 76.28,245.22 76.59,245.35 76.99,245.57 77.39,245.83 77.71,246.09 78.03,246.38 78.07,246.40 78.15,246.45 78.31,246.54 78.62,246.73 79.02,246.96 79.42,247.19 79.81,247.41 80.21,247.64 80.61,247.86 81.00,248.09 81.40,248.31 81.80,248.53 82.19,248.75 82.59,248.97 82.99,249.18 83.38,249.40 83.78,249.61 84.18,249.82 84.57,250.03 84.97,250.24 85.36,250.44 85.76,250.65 86.16,250.85 86.55,251.05 86.95,251.25 87.35,251.45 87.74,251.65 88.14,251.84 88.54,252.03 88.93,252.23 89.33,252.42 89.73,252.60 90.12,252.79 90.52,252.98 90.92,253.16 91.31,253.34 91.71,253.52 92.11,253.70 92.50,253.88 92.90,254.06 93.29,254.23 93.69,254.40 94.09,254.57 94.48,254.74 94.88,254.91 95.28,255.08 95.67,255.24 96.07,255.41 96.47,255.57 96.86,255.73 97.26,255.89 97.66,256.05 98.05,256.20 98.45,256.36 98.85,256.51 99.24,256.67 99.64,256.82 100.03,256.97 100.43,257.11 100.83,257.26 101.22,257.41 101.62,257.55 102.02,257.69 102.41,257.83 102.81,257.97 103.21,258.11 103.60,258.25 104.00,258.39 104.40,258.52 104.79,258.65 105.19,258.79 105.59,258.92 105.98,259.05 106.38,259.18 106.78,259.30 107.17,259.43 107.57,259.55 107.96,259.68 108.36,259.80 108.76,259.92 109.15,260.04 109.55,260.16 109.95,260.28 110.34,260.40 110.74,260.51 111.14,260.63 111.53,260.74 111.93,260.85 112.33,260.96 112.72,261.07 113.12,261.18 113.52,261.29 113.91,261.40 114.31,261.50 114.70,261.61 115.10,261.71 115.50,261.82 115.89,261.92 116.29,262.02 116.69,262.12 117.08,262.22 117.48,262.32 117.88,262.41 118.27,262.51 118.67,262.61 119.07,262.70 119.46,262.79 119.86,262.89 120.26,262.98 120.65,263.07 121.05,263.16 121.45,263.25 121.84,263.34 122.24,263.42 122.63,263.51 123.03,263.60 123.43,263.68 123.82,263.76 124.22,263.85 124.62,263.93 125.01,264.01 125.41,264.09 125.81,264.17 126.20,264.25 126.60,264.33 127.00,264.41 127.39,264.49 127.79,264.56 128.19,264.64 128.58,264.71 128.98,264.79 129.37,264.86 129.77,264.93 130.17,265.00 130.56,265.08 130.96,265.15 131.36,265.22 131.75,265.28 132.15,265.35 132.55,265.42 132.94,265.49 133.34,265.55 133.74,265.62 134.13,265.69 134.53,265.75 134.93,265.81 135.32,265.88 135.72,265.94 136.11,266.00 136.51,266.06 136.91,266.12 137.30,266.18 137.70,266.24 138.10,266.30 138.49,266.36 138.89,266.42 139.29,266.48 139.68,266.53 140.08,266.59 140.48,266.65 140.87,266.70 141.27,266.76 141.67,266.81 142.06,266.86 142.46,266.92 142.86,266.97 143.25,267.02 143.65,267.07 144.04,267.12 144.44,267.18 144.84,267.23 145.23,267.27 145.63,267.32 146.03,267.37 146.42,267.42 146.82,267.47 147.22,267.52 147.61,267.56 148.01,267.61 148.41,267.65 148.80,267.70 149.20,267.74 149.60,267.79 149.99,267.83 150.39,267.88 150.78,267.92 151.18,267.96 151.58,268.00 151.97,268.05 152.37,268.09 152.77,268.13 153.16,268.17 153.56,268.21 153.96,268.25 154.35,268.29 154.75,268.33 155.15,268.37 155.54,268.41 155.94,268.44 156.34,268.48 156.73,268.52 157.13,268.56 157.53,268.59 157.92,268.63 158.32,268.66 158.71,268.70 159.11,268.73 159.51,268.77 159.90,268.80 160.30,268.84 160.70,268.87 161.09,268.90 161.49,268.94 161.89,268.97 162.28,269.00 162.68,269.03 163.08,269.07 163.47,269.10 163.87,269.13 164.27,269.16 164.66,269.19 165.06,269.22 165.45,269.25 165.85,269.28 166.25,269.31 166.64,269.34 167.04,269.37 167.44,269.40 167.83,269.42 168.23,269.45 168.63,269.48 169.02,269.51 169.42,269.53 169.82,269.56 170.21,269.59 170.61,269.61 171.01,269.64 171.40,269.66 171.80,269.69 172.20,269.72 172.59,269.74 172.99,269.76 173.38,269.79 173.78,269.81 174.18,269.84 174.57,269.86 174.97,269.88 175.37,269.91 175.76,269.93 176.16,269.95 176.56,269.98 176.95,270.00 177.35,270.02 177.75,270.04 178.14,270.06 178.54,270.09 178.94,270.11 179.23,270.12 179.53,270.14 179.57,270.13 179.65,270.10 179.81,270.04 180.12,269.90 180.52,269.67 180.92,269.40 181.24,269.15 181.56,268.86 181.60,268.84 181.68,268.79 181.84,268.70 182.15,268.51 182.55,268.28 182.95,268.05 183.34,267.83 183.74,267.60 184.14,267.38 184.53,267.15 184.93,266.93 185.33,266.71 185.72,266.49 186.12,266.28 186.52,266.06 186.91,265.85 187.31,265.64 187.71,265.43 188.10,265.22 188.50,265.01 188.89,264.80 189.29,264.60 189.69,264.40 190.08,264.20 190.48,264.00 190.88,263.80 191.27,263.60 191.67,263.41 192.07,263.21 192.46,263.02 192.86,262.83 193.26,262.64 193.65,262.46 194.05,262.27 194.45,262.09 194.84,261.91 195.24,261.72 195.64,261.55 196.03,261.37 196.43,261.19 196.82,261.02 197.22,260.84 197.62,260.67 198.01,260.50 198.41,260.33 198.81,260.17 199.20,260.00 199.60,259.84 200.00,259.67 200.39,259.51 200.79,259.35 201.19,259.19 201.58,259.04 201.98,258.88 202.38,258.73 202.77,258.57 203.17,258.42 203.56,258.27 203.96,258.12 204.36,257.98 204.75,257.83 205.15,257.68 205.55,257.54 205.94,257.40 206.34,257.26 206.74,257.12 207.13,256.98 207.53,256.84 207.93,256.71 208.32,256.57 208.72,256.44 209.12,256.31 209.51,256.18 209.91,256.05 210.31,255.92 210.70,255.79 211.10,255.66 211.49,255.54 211.89,255.42 212.29,255.29 212.68,255.17 213.08,255.05 213.48,254.93 213.87,254.81 214.27,254.70 214.67,254.58 215.06,254.47 215.46,254.35 215.86,254.24 216.25,254.13 216.65,254.02 217.05,253.91 217.44,253.80 217.84,253.69 218.23,253.59 218.63,253.48 219.03,253.38 219.42,253.27 219.82,253.17 220.22,253.07 220.61,252.97 221.01,252.87 221.41,252.77 221.80,252.67 222.20,252.57 222.60,252.48 222.99,252.38 223.39,252.29 223.79,252.20 224.18,252.10 224.58,252.01 224.98,251.92 225.37,251.83 225.77,251.74 226.16,251.66 226.56,251.57 226.96,251.48 227.35,251.40 227.75,251.31 228.15,251.23 228.54,251.14 228.94,251.06 229.34,250.98 229.73,250.90 230.13,250.82 230.53,250.74 230.92,250.66 231.32,250.59 231.72,250.51 232.11,250.43 232.51,250.36 232.90,250.28 233.30,250.21 233.70,250.14 234.09,250.06 234.49,249.99 234.89,249.92 235.28,249.85 235.68,249.78 236.08,249.71 236.47,249.64 236.87,249.57 237.27,249.51 237.66,249.44 238.06,249.37 238.46,249.31 238.85,249.24 239.25,249.18 239.64,249.12 240.04,249.05 240.44,248.99 240.83,248.93 241.23,248.87 241.63,248.81 242.02,248.75 242.42,248.69 242.82,248.63 243.21,248.57 243.61,248.52 244.01,248.46 244.40,248.40 244.80,248.35 245.20,248.29 245.59,248.24 245.99,248.18 246.39,248.13 246.78,248.08 247.18,248.02 247.57,247.97 247.97,247.92 248.37,247.87 248.76,247.82 249.16,247.77 249.56,247.72 249.95,247.67 250.35,247.62 250.75,247.57 251.14,247.53 251.54,247.48 251.94,247.43 252.33,247.39 252.73,247.34 253.13,247.30 253.52,247.25 253.92,247.21 254.31,247.16 254.71,247.12 255.11,247.08 255.50,247.03 255.90,246.99 256.30,246.95 256.69,246.91 257.09,246.87 257.49,246.82 257.88,246.78 258.28,246.74 258.68,246.71 259.07,246.67 259.47,246.63 259.87,246.59 260.26,246.55 260.66,246.51 261.06,246.48 261.45,246.44 261.85,246.40 262.24,246.37 262.64,246.33 263.04,246.30 263.43,246.26 263.83,246.23 264.23,246.19 264.62,246.16 265.02,246.12 265.42,246.09 265.81,246.06 266.21,246.03 266.61,245.99 267.00,245.96 267.40,245.93 267.80,245.90 268.19,245.87 268.59,245.84 268.98,245.81 269.38,245.78 269.78,245.75 270.17,245.72 270.57,245.69 270.97,245.66 271.36,245.63 271.76,245.60 272.16,245.57 272.55,245.55 272.95,245.52 273.35,245.49 273.74,245.46 274.14,245.44 274.54,245.41 274.93,245.38 275.33,245.36 275.73,245.33 276.12,245.31 276.52,245.28 276.91,245.26 277.31,245.23 277.71,245.21 278.10,245.18 278.50,245.16 278.75,245.15 279.00,245.13 279.04,245.14 279.12,245.17 279.28,245.22 279.59,245.35 279.99,245.57 280.39,245.83 280.71,246.09 281.03,246.38 281.07,246.40 281.15,246.45 281.31,246.54 281.62,246.73 282.02,246.96 282.42,247.19 282.81,247.41 283.21,247.64 283.61,247.86 284.00,248.09 284.40,248.31 284.80,248.53 285.19,248.75 285.59,248.97 285.99,249.18 286.38,249.40 286.78,249.61 287.18,249.82 287.57,250.03 287.97,250.24 288.36,250.44 288.76,250.65 289.16,250.85 289.55,251.05 289.95,251.25 290.35,251.45 290.74,251.65 291.14,251.84 291.54,252.03 291.93,252.23 292.33,252.42 292.73,252.60 293.12,252.79 293.52,252.98 293.92,253.16 294.31,253.34 294.71,253.52 295.11,253.70 295.50,253.88 295.90,254.06 296.29,254.23 296.69,254.40 297.09,254.57 297.48,254.74 297.88,254.91 298.28,255.08 298.67,255.24 299.07,255.41 299.47,255.57 299.86,255.73 300.26,255.89 300.66,256.05 301.05,256.21 301.45,256.36 301.85,256.51 302.24,256.67 302.64,256.82 303.03,256.97 303.43,257.11 303.83,257.26 304.22,257.41 304.62,257.55 305.02,257.69 305.41,257.83 305.81,257.97 306.21,258.11 306.60,258.25 307.00,258.39 307.40,258.52 307.79,258.65 308.19,258.79 308.59,258.92 308.98,259.05 309.38,259.18 309.78,259.30 310.17,259.43 310.57,259.55 310.96,259.68 311.36,259.80 311.76,259.92 312.15,260.04 312.55,260.16 312.95,260.28 313.34,260.40 313.74,260.51 314.14,260.63 314.53,260.74 314.93,260.85 315.33,260.96 315.72,261.07 316.12,261.18 316.52,261.29 316.91,261.40 317.31,261.50 317.70,261.61 318.10,261.71 318.50,261.82 318.89,261.92 319.29,262.02 319.69,262.12 320.08,262.22 320.48,262.32 320.88,262.41 321.27,262.51 321.67,262.61 322.07,262.70 322.46,262.79 322.86,262.89 323.26,262.98 323.65,263.07 324.05,263.16 324.45,263.25 324.84,263.34 325.24,263.42 325.63,263.51 326.03,263.60 326.43,263.68 326.82,263.77 327.22,263.85 327.62,263.93 328.01,264.01 328.41,264.09 328.81,264.17 329.20,264.25 329.60,264.33 330.00,264.41 330.39,264.49 330.79,264.56 331.19,264.64 331.58,264.71 331.98,264.79 332.37,264.86 332.77,264.93 333.17,265.00 333.56,265.08 333.96,265.15 334.36,265.22 334.75,265.28 335.15,265.35 335.55,265.42 335.94,265.49 336.34,265.55 336.74,265.62 337.13,265.69 337.53,265.75 337.93,265.81 338.32,265.88 338.72,265.94 339.11,266.00 339.51,266.06 339.91,266.12 340.30,266.19 340.70,266.24 341.10,266.30 341.49,266.36 341.89,266.42 342.29,266.48 342.68,266.53 343.08,266.59 343.48,266.65 343.87,266.70 344.27,266.76 344.67,266.81 345.06,266.86 345.46,266.92 345.86,266.97 346.25,267.02 346.65,267.07 347.04,267.12 347.44,267.18 347.84,267.23 348.23,267.27 348.63,267.32 349.03,267.37 349.42,267.42 349.82,267.47 350.22,267.52 350.61,267.56 351.01,267.61 351.41,267.65 351.80,267.70 352.20,267.74 352.60,267.79 352.99,267.83 353.39,267.88 353.78,267.92 354.18,267.96 354.58,268.00 354.97,268.05 355.37,268.09 355.77,268.13 356.16,268.17 356.56,268.21 356.96,268.25 357.35,268.29 357.75,268.33 358.15,268.37 358.54,268.41 358.94,268.44 359.34,268.48 359.73,268.52 360.13,268.56 360.53,268.59 360.92,268.63 361.32,268.66 361.71,268.70 362.11,268.73 362.51,268.77 362.90,268.80 363.30,268.84 363.70,268.87 364.09,268.90 364.49,268.94 364.89,268.97 365.28,269.00 365.68,269.03 366.08,269.07 366.47,269.10 366.87,269.13 367.27,269.16 367.66,269.19 368.06,269.22 368.45,269.25 368.85,269.28 369.25,269.31 369.64,269.34 370.04,269.37 370.44,269.40 370.83,269.42 371.23,269.45 371.63,269.48 372.02,269.51 372.42,269.53 372.82,269.56 373.21,269.59 373.61,269.61 374.01,269.64 374.40,269.66 374.80,269.69 375.20,269.72 375.59,269.74 375.99,269.77 376.38,269.79 376.78,269.81 377.18,269.84 377.57,269.86 377.97,269.89 378.37,269.91 378.76,269.93 379.16,269.95 379.56,269.98 379.95,270.00 380.35,270.02 380.75,270.04 381.14,270.06 381.54,270.09 381.94,270.11 382.23,270.12 382.53,270.14 382.57,270.13 382.65,270.10 382.81,270.04 383.12,269.90 383.52,269.67 383.92,269.40 384.24,269.15 384.56,268.87 384.60,268.84 384.68,268.79 384.84,268.70 385.15,268.51 385.55,268.28 385.95,268.05 386.34,267.83 386.74,267.60 387.14,267.38 387.53,267.15 387.93,266.93 388.33,266.71 388.72,266.49 389.12,266.28 389.52,266.06 389.91,265.85 390.31,265.64 390.71,265.43 391.10,265.22 391.50,265.01 391.89,264.80 392.29,264.60 392.69,264.40 393.08,264.20 393.48,264.00 393.88,263.80 394.27,263.60 394.67,263.41 395.07,263.21 395.46,263.02 395.86,262.83 396.26,262.64 396.65,262.46 397.05,262.27 397.45,262.09 397.84,261.91 398.24,261.73 398.64,261.55 399.03,261.37 399.43,261.19 399.82,261.02 400.22,260.84 400.62,260.67 401.01,260.50 401.41,260.33 401.81,260.17 402.20,260.00 402.60,259.84 403.00,259.67 403.39,259.51 403.79,259.35 404.19,259.19 404.58,259.04 404.98,258.88 405.38,258.73 405.77,258.57 406.17,258.42 406.56,258.27 406.96,258.12 407.36,257.98 407.75,257.83 408.15,257.69 408.55,257.54 408.94,257.40 409.34,257.26 409.74,257.12 410.13,256.98 410.53,256.84 410.93,256.71 411.32,256.57 411.72,256.44 412.12,256.31 412.51,256.18 412.91,256.05 413.31,255.92 413.70,255.79 414.10,255.66 414.49,255.54 414.89,255.42 415.29,255.29 415.68,255.17 416.08,255.05 416.48,254.93 416.87,254.81 417.27,254.70 417.67,254.58 418.06,254.47 418.46,254.35 418.86,254.24 419.25,254.13 419.65,254.02 420.05,253.91 420.44,253.80 420.84,253.69 421.23,253.59 421.63,253.48 422.03,253.38 422.42,253.27 422.82,253.17 423.22,253.07 423.61,252.97 424.01,252.87 424.41,252.77 424.80,252.67 425.20,252.57 425.60,252.48 425.99,252.38 426.39,252.29 426.79,252.20 427.18,252.10 427.58,252.01 427.98,251.92 428.37,251.83 428.77,251.74 429.16,251.66 429.56,251.57 429.96,251.48 430.35,251.40 430.75,251.31 431.15,251.23 431.54,251.15 431.94,251.06 432.34,250.98 432.73,250.90 433.13,250.82 433.53,250.74 433.92,250.66 434.32,250.59 434.72,250.51 435.11,250.43 435.51,250.36 435.90,250.28 436.30,250.21 436.70,250.14 437.09,250.06 437.49,249.99 437.89,249.92 438.28,249.85 438.68,249.78 439.08,249.71 439.47,249.64 439.87,249.57 440.27,249.51 440.66,249.44 441.06,249.37 441.46,249.31 441.85,249.24 442.25,249.18 442.64,249.12 443.04,249.06 443.44,248.99 443.83,248.93 444.23,248.87 444.63,248.81 445.02,248.75 445.42,248.69 445.82,248.63 446.21,248.57 446.61,248.52 447.01,248.46 447.40,248.40 447.80,248.35 448.20,248.29 448.59,248.24 448.99,248.18 449.39,248.13 449.78,248.08 450.18,248.03 450.57,247.97 450.97,247.92 451.37,247.87 451.76,247.82 452.16,247.77 452.56,247.72 452.95,247.67 453.35,247.62 453.75,247.57 454.14,247.53 454.54,247.48 454.94,247.43 455.33,247.39 455.73,247.34 456.13,247.30 456.52,247.25 456.92,247.21 457.31,247.16 457.71,247.12 458.11,247.08 458.50,247.03 458.90,246.99 459.30,246.95 459.69,246.91 460.09,246.87 460.49,246.83 460.88,246.78 461.28,246.75 461.68,246.71 462.07,246.67 462.47,246.63 462.87,246.59 463.26,246.55 463.66,246.51 464.06,246.48 464.45,246.44 464.85,246.40 465.24,246.37 465.64,246.33 466.04,246.30 466.43,246.26 466.83,246.23 467.23,246.19 467.62,246.16 468.02,246.12 468.42,246.09 468.81,246.06 469.21,246.03 469.61,245.99 470.00,245.96 470.40,245.93 470.80,245.90 471.19,245.87 471.59,245.84 471.98,245.81 472.38,245.78 472.78,245.75 473.17,245.72 473.57,245.69 473.97,245.66 474.36,245.63 474.76,245.60 475.16,245.57 475.55,245.55 475.95,245.52 476.35,245.49 476.74,245.46 477.14,245.44 477.54,245.41 477.93,245.38 478.33,245.36 478.73,245.33 479.12,245.31 479.52,245.28 479.91,245.26 480.31,245.23 480.71,245.21 481.10,245.19 481.50,245.16 481.75,245.15 482.00,245.13 482.04,245.14 482.12,245.17 482.28,245.22 482.59,245.35 482.99,245.57 483.39,245.83 483.71,246.09 484.03,246.38 484.07,246.40 484.15,246.45 484.31,246.54 484.62,246.73 485.02,246.96 485.42,247.19 485.81,247.41 486.21,247.64 486.61,247.86 487.00,248.09 487.40,248.31 487.80,248.53 488.19,248.75 488.59,248.97 488.99,249.18 489.38,249.40 489.78,249.61 490.18,249.82 490.57,250.03 490.97,250.24 491.36,250.44 491.76,250.65 492.16,250.85 492.55,251.05 492.95,251.25 493.35,251.45 493.74,251.65 494.14,251.84 494.54,252.03 494.93,252.23 495.33,252.42 495.73,252.60 496.12,252.79 496.52,252.98 496.92,253.16 497.31,253.34 497.71,253.52 498.11,253.70 498.50,253.88 498.90,254.06 499.29,254.23 499.69,254.40 500.09,254.57 500.48,254.74 500.88,254.91 501.28,255.08 501.67,255.24 502.07,255.41 502.47,255.57 502.86,255.73 503.26,255.89 503.66,256.05 504.05,256.21 504.45,256.36 504.85,256.51 505.24,256.67 505.64,256.82 506.03,256.97 506.43,257.11 506.83,257.26 507.22,257.41 507.62,257.55 508.02,257.69 508.41,257.83 508.81,257.97 509.21,258.11 509.60,258.25 510.00,258.39 510.40,258.52 510.79,258.65 511.19,258.79 511.59,258.92 511.98,259.05 512.38,259.18 512.78,259.30 513.17,259.43 513.57,259.55 513.96,259.68 514.36,259.80 514.76,259.92 515.15,260.04 515.55,260.16 515.95,260.28 516.34,260.40 516.74,260.51 517.14,260.63 517.53,260.74 517.93,260.85 518.33,260.96 518.72,261.07 519.12,261.18 519.52,261.29 519.91,261.40 520.31,261.50 520.70,261.61 521.10,261.71 521.50,261.82 521.89,261.92 522.29,262.02 522.69,262.12 523.08,262.22 523.48,262.32 523.88,262.41 524.27,262.51 524.67,262.61 525.07,262.70 525.46,262.79 525.86,262.89 526.26,262.98 526.65,263.07 527.05,263.16 527.45,263.25 527.84,263.34 528.24,263.42 528.63,263.51 529.03,263.60 529.43,263.68 529.82,263.77 530.22,263.85 530.62,263.93 531.01,264.01 531.41,264.09 531.81,264.17 532.20,264.25 532.60,264.33 533.00,264.41 533.39,264.49 533.79,264.56 534.19,264.64 534.58,264.71 534.98,264.79 535.37,264.86 535.77,264.93 536.17,265.00 536.56,265.08 536.96,265.15 537.36,265.22 537.75,265.29 538.15,265.35 538.55,265.42 538.94,265.49 539.34,265.56 539.74,265.62 540.13,265.69 540.53,265.75 540.93,265.81 541.32,265.88 541.72,265.94 542.11,266.00 542.51,266.06 542.91,266.13 543.30,266.19 543.70,266.25 544.10,266.30 544.49,266.36 544.89,266.42 545.29,266.48 545.68,266.54 546.08,266.59 546.48,266.65 546.87,266.70 547.27,266.76 547.67,266.81 548.06,266.86 548.46,266.92 548.86,266.97 549.25,267.02 549.65,267.07 550.04,267.13 550.44,267.18 550.84,267.23 551.23,267.28 551.63,267.32 552.03,267.37 552.42,267.42 552.82,267.47 553.22,267.52 553.61,267.56 554.01,267.61 554.41,267.65 554.80,267.70 555.20,267.74 555.60,267.79 555.99,267.83 556.39,267.88 556.78,267.92 557.18,267.96 557.58,268.01 557.97,268.05 558.37,268.09 558.77,268.13 559.16,268.17 559.56,268.21 559.96,268.25 560.35,268.29 560.75,268.33 561.15,268.37 561.54,268.41 561.94,268.44 562.34,268.48 562.73,268.52 563.13,268.56 563.53,268.59 563.92,268.63 564.32,268.66 564.71,268.70 565.11,268.73 565.51,268.77 565.90,268.80 566.30,268.84 566.70,268.87 567.09,268.90 567.49,268.94 567.89,268.97 568.28,269.00 568.68,269.03 569.08,269.07 569.47,269.10 569.87,269.13 570.27,269.16 570.66,269.19 571.06,269.22 571.45,269.25 571.85,269.28 572.25,269.31 572.64,269.34 573.04,269.37 573.44,269.40 573.83,269.42 574.23,269.45 574.63,269.48 575.02,269.51 575.42,269.53 575.82,269.56 576.21,269.59 576.61,269.61 577.01,269.64 577.40,269.67 577.80,269.69 578.20,269.72 578.59,269.74 578.99,269.77 579.38,269.79 579.78,269.81 580.18,269.84 580.57,269.86 580.97,269.89 581.37,269.91 581.76,269.93 582.16,269.95 582.56,269.98 582.95,270.00 583.35,270.02 583.75,270.04 584.14,270.07 584.54,270.09 584.94,270.11 585.23,270.12 585.53,270.14 585.57,270.13 585.65,270.10 585.81,270.04 586.12,269.90 586.52,269.67 586.92,269.40 587.24,269.15 587.56,268.87 587.60,268.84 587.68,268.79 587.84,268.70 588.15,268.51 588.55,268.28 588.95,268.06 589.34,267.83 589.74,267.60 590.14,267.38 590.53,267.15 590.93,266.93 591.33,266.71 591.72,266.49 592.12,266.28 592.52,266.06 592.91,265.85 593.31,265.64 593.71,265.43 594.10,265.22 594.50,265.01 594.89,264.80 595.29,264.60 595.69,264.40 596.08,264.20 596.48,264.00 596.88,263.80 597.27,263.60 597.67,263.41 598.07,263.21 598.46,263.02 598.86,262.83 599.26,262.64 599.65,262.46 600.05,262.27 600.45,262.09 600.84,261.91 601.24,261.73 601.64,261.55 602.03,261.37 602.43,261.19 602.82,261.02 603.22,260.84 603.62,260.67 604.01,260.50 604.41,260.33 604.81,260.17 605.20,260.00 605.60,259.84 606.00,259.67 606.39,259.51 606.79,259.35 607.19,259.19 607.58,259.04 607.98,258.88 608.38,258.73 608.77,258.57 609.17,258.42 609.56,258.27 609.96,258.12 610.36,257.98 610.75,257.83 611.15,257.69 611.55,257.54 611.94,257.40 612.34,257.26 612.74,257.12 613.13,256.98 613.53,256.84 613.93,256.71 614.32,256.57 614.72,256.44 615.12,256.31 615.51,256.18 615.91,256.05 616.31,255.92 616.70,255.79 617.10,255.67 617.49,255.54 617.89,255.42 618.29,255.29 618.68,255.17 619.08,255.05 619.48,254.93 619.87,254.81 620.27,254.70 620.67,254.58 621.06,254.47 621.46,254.35 621.86,254.24 622.25,254.13 622.65,254.02 623.05,253.91 623.44,253.80 623.84,253.69 624.23,253.59 624.63,253.48 625.03,253.38 625.42,253.27 625.82,253.17 626.22,253.07 626.61,252.97 627.01,252.87 627.41,252.77 627.80,252.67 628.20,252.58 628.60,252.48 628.99,252.38 629.39,252.29 629.79,252.20 630.18,252.10 630.58,252.01 630.98,251.92 631.37,251.83 631.77,251.74 632.16,251.66 632.56,251.57 632.96,251.48 633.35,251.40 633.75,251.31 634.15,251.23 634.54,251.15 634.94,251.06 635.34,250.98 635.73,250.90 636.13,250.82 636.53,250.74 636.92,250.66 637.32,250.59 637.72,250.51 638.11,250.43 638.51,250.36 638.90,250.28 639.30,250.21 639.70,250.14 640.09,250.06 640.49,249.99 640.89,249.92 641.28,249.85 641.68,249.78 642.08,249.71 642.47,249.64 642.87,249.57 643.27,249.51 643.66,249.44 644.06,249.38 644.46,249.31 644.85,249.25 645.25,249.18 645.64,249.12 646.04,249.06 646.44,248.99 646.83,248.93 647.23,248.87 647.63,248.81 648.02,248.75 648.42,248.69 648.82,248.63 649.21,248.58 649.61,248.52 650.01,248.46 650.40,248.40 650.80,248.35 651.20,248.29 651.59,248.24 651.99,248.18 652.39,248.13 652.78,248.08 653.18,248.03 653.57,247.97 653.97,247.92 654.37,247.87 654.76,247.82 655.16,247.77 655.56,247.72 655.95,247.67 656.35,247.62 656.75,247.57 657.14,247.53 657.54,247.48 657.94,247.43 658.33,247.39 658.73,247.34 659.13,247.30 659.52,247.25 659.92,247.21 660.31,247.16 660.71,247.12 661.11,247.08 661.50,247.03 661.90,246.99 662.30,246.95 662.69,246.91 663.09,246.87 663.49,246.83 663.88,246.79 664.28,246.75 664.68,246.71 665.07,246.67 665.47,246.63 665.87,246.59 666.26,246.55 666.66,246.51 667.06,246.48 667.45,246.44 667.85,246.40 668.24,246.37 668.64,246.33 669.04,246.30 669.43,246.26 669.83,246.23 670.23,246.19 670.62,246.16 671.02,246.12 671.42,246.09 671.81,246.06 672.21,246.03 672.61,245.99 673.00,245.96 673.40,245.93 673.80,245.90 674.19,245.87 674.59,245.84 674.98,245.81 675.38,245.78 675.78,245.75 676.17,245.72 676.57,245.69 676.97,245.66 677.36,245.63 677.76,245.60 678.16,245.57 678.55,245.55 678.95,245.52 679.35,245.49 679.74,245.46 680.14,245.44 680.54,245.41 680.93,245.39 681.33,245.36 681.73,245.33 682.12,245.31 682.52,245.28 682.91,245.26 683.31,245.23 683.71,245.21 684.10,245.19 684.50,245.16 684.75,245.15 685.00,245.13 685.04,245.14 685.12,245.17 685.28,245.22 685.59,245.35 685.99,245.57 686.39,245.83 686.71,246.09 687.03,246.38 687.07,246.40 687.15,246.45 687.31,246.54 687.62,246.73 688.02,246.96 688.42,247.19 688.81,247.41 689.21,247.64 689.61,247.87 690.00,248.09 690.40,248.31 690.80,248.53 691.19,248.75 691.59,248.97 691.99,249.18 692.38,249.40 692.78,249.61 693.18,249.82 693.57,250.03 693.97,250.24 694.36,250.44 694.76,250.65 695.16,250.85 695.55,251.05 695.95,251.25 696.35,251.45 696.74,251.65 697.14,251.84 697.54,252.03 697.93,252.23 698.33,252.42 698.73,252.60 699.12,252.79 699.52,252.98 699.92,253.16 700.31,253.34 700.71,253.52 701.11,253.70 701.50,253.88 701.90,254.06 702.29,254.23 702.69,254.40 703.09,254.57 703.48,254.74 703.88,254.91 704.28,255.08 704.67,255.25 705.07,255.41 705.47,255.57 705.86,255.73 706.26,255.89 706.66,256.05 707.05,256.21 707.45,256.36 707.85,256.51 708.24,256.67 708.64,256.82 709.03,256.97 709.43,257.12 709.83,257.26 710.22,257.41 710.62,257.55 711.02,257.69 711.41,257.83 711.81,257.97 712.21,258.11 712.60,258.25 713.00,258.39 713.40,258.52 713.79,258.66 714.19,258.79 714.59,258.92 714.98,259.05 715.38,259.18 715.78,259.30 716.17,259.43 716.57,259.55 716.96,259.68 717.36,259.80 717.76,259.92 718.15,260.04 718.55,260.16 718.95,260.28 719.34,260.40 719.74,260.51 720.14,260.63 720.53,260.74 720.93,260.85 721.33,260.96 721.72,261.07 722.12,261.18 722.52,261.29 722.91,261.40 723.31,261.50 723.70,261.61 724.10,261.71 724.50,261.82 724.89,261.92 725.29,262.02 725.69,262.12 726.08,262.22 726.48,262.32 726.88,262.41 727.27,262.51 727.67,262.61 728.07,262.70 728.46,262.79 728.86,262.89 729.26,262.98 729.65,263.07 730.05,263.16 730.45,263.25 730.84,263.34 731.24,263.42 731.63,263.51 732.03,263.60 732.43,263.68 732.82,263.77 733.22,263.85 733.62,263.93 734.01,264.01 734.41,264.09 734.81,264.17 735.20,264.25 735.60,264.33 736.00,264.41 736.39,264.49 736.79,264.56 737.19,264.64 737.58,264.71 737.98,264.79 738.37,264.86 738.77,264.93 739.17,265.00 739.56,265.08 739.96,265.15 740.36,265.22 740.75,265.29 741.15,265.35 741.55,265.42 741.94,265.49 742.34,265.56 742.74,265.62 743.13,265.69 743.53,265.75 743.93,265.82 744.32,265.88 744.72,265.94 745.11,266.00 745.51,266.06 745.91,266.13 746.30,266.19 746.70,266.25 747.10,266.30 747.49,266.36 747.89,266.42 748.29,266.48 748.68,266.54 749.08,266.59 749.48,266.65 749.87,266.70 750.27,266.76 750.67,266.81 751.06,266.87 751.46,266.92 751.86,266.97 752.25,267.02 752.65,267.07 753.04,267.13 753.44,267.18 753.84,267.23 754.23,267.28 754.63,267.32 755.03,267.37 755.42,267.42 755.82,267.47 756.22,267.52 756.61,267.56 757.01,267.61 757.41,267.65 757.80,267.70 758.20,267.75 758.60,267.79 758.99,267.83 759.39,267.88 759.78,267.92 760.18,267.96 760.58,268.01 760.97,268.05 761.37,268.09 761.77,268.13 762.16,268.17 762.56,268.21 762.96,268.25 763.35,268.29 763.75,268.33 764.15,268.37 764.54,268.41 764.94,268.44 765.34,268.48 765.73,268.52 766.13,268.56 766.53,268.59 766.92,268.63 767.32,268.66 767.71,268.70 768.11,268.73 768.51,268.77 768.90,268.80 769.30,268.84 769.70,268.87 770.09,268.91 770.49,268.94 770.89,268.97 771.28,269.00 771.68,269.04 772.08,269.07 772.47,269.10 772.87,269.13 773.27,269.16 773.66,269.19 774.06,269.22 774.45,269.25 774.85,269.28 775.25,269.31 775.64,269.34 776.04,269.37 776.44,269.40 776.83,269.42 777.23,269.45 777.63,269.48 778.02,269.51 778.42,269.53 778.82,269.56 779.21,269.59 779.61,269.61 780.01,269.64 780.40,269.67 780.80,269.69 781.20,269.72 781.59,269.74 781.99,269.77 782.38,269.79 782.78,269.81 783.18,269.84 783.57,269.86 783.97,269.89 784.37,269.91 784.76,269.93 785.16,269.95 785.56,269.98 785.95,270.00 786.35,270.02 786.75,270.04 787.14,270.07 787.54,270.09 787.94,270.11 788.23,270.12 788.53,270.14 788.57,270.13 788.65,270.10 788.81,270.04 789.12,269.90 789.52,269.67 789.92,269.40 790.24,269.15 790.56,268.87 790.60,268.84 790.68,268.79 790.84,268.70 791.15,268.51 791.55,268.28 791.95,268.06 792.34,267.83 792.74,267.60 793.14,267.38 793.53,267.15 793.93,266.93 794.33,266.71 794.72,266.49 795.12,266.28 795.52,266.06 795.91,265.85 796.31,265.64 796.71,265.43 797.10,265.22 797.50,265.01 797.89,264.80 798.29,264.60 798.69,264.40 799.08,264.20 799.48,264.00 799.88,263.80 800.27,263.60 800.67,263.41 801.07,263.21 801.46,263.02 801.86,262.83 802.26,262.64 802.65,262.46 803.05,262.27 803.45,262.09 803.84,261.91 804.24,261.73 804.64,261.55 805.03,261.37 805.43,261.19 805.82,261.02 806.22,260.84 806.62,260.67 807.01,260.50 807.41,260.33 807.81,260.17 808.20,260.00 808.60,259.84 809.00,259.67 809.39,259.51 809.79,259.35 810.19,259.19 810.58,259.04 810.98,258.88 811.38,258.73 811.77,258.57 812.17,258.42 812.56,258.27 812.96,258.12 813.36,257.98 813.75,257.83 814.15,257.69 814.55,257.54 814.94,257.40 815.34,257.26 815.74,257.12 816.13,256.98 816.53,256.84 816.93,256.71 817.32,256.57 817.72,256.44 818.12,256.31 818.51,256.18 818.91,256.05 819.31,255.92 819.70,255.79 820.10,255.67 820.49,255.54 820.89,255.42 821.29,255.29 821.68,255.17 822.08,255.05 822.48,254.93 822.87,254.81 823.27,254.70 823.67,254.58 824.06,254.47 824.46,254.35 824.86,254.24 825.25,254.13 825.65,254.02 826.05,253.91 826.44,253.80 826.84,253.69 827.23,253.59 827.63,253.48 828.03,253.38 828.42,253.27 828.82,253.17 829.22,253.07 829.61,252.97 830.01,252.87 830.41,252.77 830.80,252.67 831.20,252.58 831.60,252.48 831.99,252.38 832.39,252.29 832.79,252.20 833.18,252.10 833.58,252.01 833.98,251.92 834.37,251.83 834.77,251.74 835.16,251.66 835.56,251.57 835.96,251.48 836.35,251.40 836.75,251.31 837.15,251.23 837.54,251.15 837.94,251.06 838.34,250.98 838.73,250.90 839.13,250.82 839.53,250.74 839.92,250.66 840.32,250.59 840.72,250.51 841.11,250.43 841.51,250.36 841.90,250.28 842.30,250.21 842.70,250.14 843.09,250.06 843.49,249.99 843.89,249.92 844.28,249.85 844.68,249.78 845.08,249.71 845.47,249.64 845.87,249.57 846.27,249.51 846.66,249.44 847.06,249.38 847.46,249.31 847.85,249.25 848.25,249.18 848.64,249.12 849.04,249.06 849.44,248.99 849.83,248.93 850.23,248.87 850.63,248.81 851.02,248.75 851.42,248.69 851.82,248.63 852.21,248.58 852.61,248.52 853.01,248.46 853.40,248.40 853.80,248.35 854.20,248.29 854.59,248.24 854.99,248.18 855.39,248.13 855.78,248.08 856.18,248.03 856.57,247.97 856.97,247.92 857.37,247.87 857.76,247.82 858.16,247.77 858.56,247.72 858.95,247.67 859.35,247.62 859.75,247.58 860.14,247.53 860.54,247.48 860.94,247.43 861.33,247.39 861.73,247.34 862.13,247.30 862.52,247.25 862.92,247.21 863.31,247.16 863.71,247.12 864.11,247.08 864.50,247.03 864.90,246.99 865.30,246.95 865.69,246.91 866.09,246.87 866.49,246.83 866.88,246.79 867.28,246.75 867.68,246.71 868.07,246.67 868.47,246.63 868.87,246.59 869.26,246.55 869.66,246.51 870.06,246.48 870.45,246.44 870.85,246.40 871.24,246.37 871.64,246.33 872.04,246.30 872.43,246.26 872.83,246.23 873.23,246.19 873.62,246.16 874.02,246.13 874.42,246.09 874.81,246.06 875.21,246.03 875.61,245.99 876.00,245.96 876.40,245.93 876.80,245.90 877.19,245.87 877.59,245.84 877.98,245.81 878.38,245.78 878.78,245.75 879.17,245.72 879.57,245.69 879.97,245.66 880.36,245.63 880.76,245.60 881.16,245.57 881.55,245.55 881.95,245.52 882.35,245.49 882.74,245.46 883.14,245.44 883.54,245.41 883.93,245.39 884.33,245.36 884.73,245.33 885.12,245.31 885.52,245.28 885.91,245.26 886.31,245.23 886.71,245.21 887.10,245.19 887.50,245.16 887.75,245.15" fill="none" stroke="#1665d8" stroke-width="3" stroke-linejoin="round"/>
<line x1="660" y1="88" x2="696" y2="88" stroke="#1665d8" stroke-width="3"/>
<text x="706" y="93" font-family="Arial, Helvetica, sans-serif" font-size="13" font-weight="400" text-anchor="start" fill="#111">load output</text>
<polyline points="76.00,297.60 76.04,296.05 76.12,292.96 76.28,286.77 76.59,274.40 76.99,258.93 77.39,243.46 77.71,230.93 78.03,218.40 78.07,218.40 78.15,218.40 78.31,218.40 78.62,218.40 79.02,218.40 79.42,218.40 79.81,218.40 80.21,218.40 80.61,218.40 81.00,218.40 81.40,218.40 81.80,218.40 82.19,218.40 82.59,218.40 82.99,218.40 83.38,218.40 83.78,218.40 84.18,218.40 84.57,218.40 84.97,218.40 85.36,218.40 85.76,218.40 86.16,218.40 86.55,218.40 86.95,218.40 87.35,218.40 87.74,218.40 88.14,218.40 88.54,218.40 88.93,218.40 89.33,218.40 89.73,218.40 90.12,218.40 90.52,218.40 90.92,218.40 91.31,218.40 91.71,218.40 92.11,218.40 92.50,218.40 92.90,218.40 93.29,218.40 93.69,218.40 94.09,218.40 94.48,218.40 94.88,218.40 95.28,218.40 95.67,218.40 96.07,218.40 96.47,218.40 96.86,218.40 97.26,218.40 97.66,218.40 98.05,218.40 98.45,218.40 98.85,218.40 99.24,218.40 99.64,218.40 100.03,218.40 100.43,218.40 100.83,218.40 101.22,218.40 101.62,218.40 102.02,218.40 102.41,218.40 102.81,218.40 103.21,218.40 103.60,218.40 104.00,218.40 104.40,218.40 104.79,218.40 105.19,218.40 105.59,218.40 105.98,218.40 106.38,218.40 106.78,218.40 107.17,218.40 107.57,218.40 107.96,218.40 108.36,218.40 108.76,218.40 109.15,218.40 109.55,218.40 109.95,218.40 110.34,218.40 110.74,218.40 111.14,218.40 111.53,218.40 111.93,218.40 112.33,218.40 112.72,218.40 113.12,218.40 113.52,218.40 113.91,218.40 114.31,218.40 114.70,218.40 115.10,218.40 115.50,218.40 115.89,218.40 116.29,218.40 116.69,218.40 117.08,218.40 117.48,218.40 117.88,218.40 118.27,218.40 118.67,218.40 119.07,218.40 119.46,218.40 119.86,218.40 120.26,218.40 120.65,218.40 121.05,218.40 121.45,218.40 121.84,218.40 122.24,218.40 122.63,218.40 123.03,218.40 123.43,218.40 123.82,218.40 124.22,218.40 124.62,218.40 125.01,218.40 125.41,218.40 125.81,218.40 126.20,218.40 126.60,218.40 127.00,218.40 127.39,218.40 127.79,218.40 128.19,218.40 128.58,218.40 128.98,218.40 129.37,218.40 129.77,218.40 130.17,218.40 130.56,218.40 130.96,218.40 131.36,218.40 131.75,218.40 132.15,218.40 132.55,218.40 132.94,218.40 133.34,218.40 133.74,218.40 134.13,218.40 134.53,218.40 134.93,218.40 135.32,218.40 135.72,218.40 136.11,218.40 136.51,218.40 136.91,218.40 137.30,218.40 137.70,218.40 138.10,218.40 138.49,218.40 138.89,218.40 139.29,218.40 139.68,218.40 140.08,218.40 140.48,218.40 140.87,218.40 141.27,218.40 141.67,218.40 142.06,218.40 142.46,218.40 142.86,218.40 143.25,218.40 143.65,218.40 144.04,218.40 144.44,218.40 144.84,218.40 145.23,218.40 145.63,218.40 146.03,218.40 146.42,218.40 146.82,218.40 147.22,218.40 147.61,218.40 148.01,218.40 148.41,218.40 148.80,218.40 149.20,218.40 149.60,218.40 149.99,218.40 150.39,218.40 150.78,218.40 151.18,218.40 151.58,218.40 151.97,218.40 152.37,218.40 152.77,218.40 153.16,218.40 153.56,218.40 153.96,218.40 154.35,218.40 154.75,218.40 155.15,218.40 155.54,218.40 155.94,218.40 156.34,218.40 156.73,218.40 157.13,218.40 157.53,218.40 157.92,218.40 158.32,218.40 158.71,218.40 159.11,218.40 159.51,218.40 159.90,218.40 160.30,218.40 160.70,218.40 161.09,218.40 161.49,218.40 161.89,218.40 162.28,218.40 162.68,218.40 163.08,218.40 163.47,218.40 163.87,218.40 164.27,218.40 164.66,218.40 165.06,218.40 165.45,218.40 165.85,218.40 166.25,218.40 166.64,218.40 167.04,218.40 167.44,218.40 167.83,218.40 168.23,218.40 168.63,218.40 169.02,218.40 169.42,218.40 169.82,218.40 170.21,218.40 170.61,218.40 171.01,218.40 171.40,218.40 171.80,218.40 172.20,218.40 172.59,218.40 172.99,218.40 173.38,218.40 173.78,218.40 174.18,218.40 174.57,218.40 174.97,218.40 175.37,218.40 175.76,218.40 176.16,218.40 176.56,218.40 176.95,218.40 177.35,218.40 177.75,218.40 178.14,218.40 178.54,218.40 178.94,218.40 179.23,218.40 179.53,218.40 179.57,219.95 179.65,223.04 179.81,229.23 180.12,241.60 180.52,257.07 180.92,272.54 181.24,285.07 181.56,297.60 181.60,297.60 181.68,297.60 181.84,297.60 182.15,297.60 182.55,297.60 182.95,297.60 183.34,297.60 183.74,297.60 184.14,297.60 184.53,297.60 184.93,297.60 185.33,297.60 185.72,297.60 186.12,297.60 186.52,297.60 186.91,297.60 187.31,297.60 187.71,297.60 188.10,297.60 188.50,297.60 188.89,297.60 189.29,297.60 189.69,297.60 190.08,297.60 190.48,297.60 190.88,297.60 191.27,297.60 191.67,297.60 192.07,297.60 192.46,297.60 192.86,297.60 193.26,297.60 193.65,297.60 194.05,297.60 194.45,297.60 194.84,297.60 195.24,297.60 195.64,297.60 196.03,297.60 196.43,297.60 196.82,297.60 197.22,297.60 197.62,297.60 198.01,297.60 198.41,297.60 198.81,297.60 199.20,297.60 199.60,297.60 200.00,297.60 200.39,297.60 200.79,297.60 201.19,297.60 201.58,297.60 201.98,297.60 202.38,297.60 202.77,297.60 203.17,297.60 203.56,297.60 203.96,297.60 204.36,297.60 204.75,297.60 205.15,297.60 205.55,297.60 205.94,297.60 206.34,297.60 206.74,297.60 207.13,297.60 207.53,297.60 207.93,297.60 208.32,297.60 208.72,297.60 209.12,297.60 209.51,297.60 209.91,297.60 210.31,297.60 210.70,297.60 211.10,297.60 211.49,297.60 211.89,297.60 212.29,297.60 212.68,297.60 213.08,297.60 213.48,297.60 213.87,297.60 214.27,297.60 214.67,297.60 215.06,297.60 215.46,297.60 215.86,297.60 216.25,297.60 216.65,297.60 217.05,297.60 217.44,297.60 217.84,297.60 218.23,297.60 218.63,297.60 219.03,297.60 219.42,297.60 219.82,297.60 220.22,297.60 220.61,297.60 221.01,297.60 221.41,297.60 221.80,297.60 222.20,297.60 222.60,297.60 222.99,297.60 223.39,297.60 223.79,297.60 224.18,297.60 224.58,297.60 224.98,297.60 225.37,297.60 225.77,297.60 226.16,297.60 226.56,297.60 226.96,297.60 227.35,297.60 227.75,297.60 228.15,297.60 228.54,297.60 228.94,297.60 229.34,297.60 229.73,297.60 230.13,297.60 230.53,297.60 230.92,297.60 231.32,297.60 231.72,297.60 232.11,297.60 232.51,297.60 232.90,297.60 233.30,297.60 233.70,297.60 234.09,297.60 234.49,297.60 234.89,297.60 235.28,297.60 235.68,297.60 236.08,297.60 236.47,297.60 236.87,297.60 237.27,297.60 237.66,297.60 238.06,297.60 238.46,297.60 238.85,297.60 239.25,297.60 239.64,297.60 240.04,297.60 240.44,297.60 240.83,297.60 241.23,297.60 241.63,297.60 242.02,297.60 242.42,297.60 242.82,297.60 243.21,297.60 243.61,297.60 244.01,297.60 244.40,297.60 244.80,297.60 245.20,297.60 245.59,297.60 245.99,297.60 246.39,297.60 246.78,297.60 247.18,297.60 247.57,297.60 247.97,297.60 248.37,297.60 248.76,297.60 249.16,297.60 249.56,297.60 249.95,297.60 250.35,297.60 250.75,297.60 251.14,297.60 251.54,297.60 251.94,297.60 252.33,297.60 252.73,297.60 253.13,297.60 253.52,297.60 253.92,297.60 254.31,297.60 254.71,297.60 255.11,297.60 255.50,297.60 255.90,297.60 256.30,297.60 256.69,297.60 257.09,297.60 257.49,297.60 257.88,297.60 258.28,297.60 258.68,297.60 259.07,297.60 259.47,297.60 259.87,297.60 260.26,297.60 260.66,297.60 261.06,297.60 261.45,297.60 261.85,297.60 262.24,297.60 262.64,297.60 263.04,297.60 263.43,297.60 263.83,297.60 264.23,297.60 264.62,297.60 265.02,297.60 265.42,297.60 265.81,297.60 266.21,297.60 266.61,297.60 267.00,297.60 267.40,297.60 267.80,297.60 268.19,297.60 268.59,297.60 268.98,297.60 269.38,297.60 269.78,297.60 270.17,297.60 270.57,297.60 270.97,297.60 271.36,297.60 271.76,297.60 272.16,297.60 272.55,297.60 272.95,297.60 273.35,297.60 273.74,297.60 274.14,297.60 274.54,297.60 274.93,297.60 275.33,297.60 275.73,297.60 276.12,297.60 276.52,297.60 276.91,297.60 277.31,297.60 277.71,297.60 278.10,297.60 278.50,297.60 278.75,297.60 279.00,297.60 279.04,296.05 279.12,292.96 279.28,286.77 279.59,274.40 279.99,258.93 280.39,243.46 280.71,230.93 281.03,218.40 281.07,218.40 281.15,218.40 281.31,218.40 281.62,218.40 282.02,218.40 282.42,218.40 282.81,218.40 283.21,218.40 283.61,218.40 284.00,218.40 284.40,218.40 284.80,218.40 285.19,218.40 285.59,218.40 285.99,218.40 286.38,218.40 286.78,218.40 287.18,218.40 287.57,218.40 287.97,218.40 288.36,218.40 288.76,218.40 289.16,218.40 289.55,218.40 289.95,218.40 290.35,218.40 290.74,218.40 291.14,218.40 291.54,218.40 291.93,218.40 292.33,218.40 292.73,218.40 293.12,218.40 293.52,218.40 293.92,218.40 294.31,218.40 294.71,218.40 295.11,218.40 295.50,218.40 295.90,218.40 296.29,218.40 296.69,218.40 297.09,218.40 297.48,218.40 297.88,218.40 298.28,218.40 298.67,218.40 299.07,218.40 299.47,218.40 299.86,218.40 300.26,218.40 300.66,218.40 301.05,218.40 301.45,218.40 301.85,218.40 302.24,218.40 302.64,218.40 303.03,218.40 303.43,218.40 303.83,218.40 304.22,218.40 304.62,218.40 305.02,218.40 305.41,218.40 305.81,218.40 306.21,218.40 306.60,218.40 307.00,218.40 307.40,218.40 307.79,218.40 308.19,218.40 308.59,218.40 308.98,218.40 309.38,218.40 309.78,218.40 310.17,218.40 310.57,218.40 310.96,218.40 311.36,218.40 311.76,218.40 312.15,218.40 312.55,218.40 312.95,218.40 313.34,218.40 313.74,218.40 314.14,218.40 314.53,218.40 314.93,218.40 315.33,218.40 315.72,218.40 316.12,218.40 316.52,218.40 316.91,218.40 317.31,218.40 317.70,218.40 318.10,218.40 318.50,218.40 318.89,218.40 319.29,218.40 319.69,218.40 320.08,218.40 320.48,218.40 320.88,218.40 321.27,218.40 321.67,218.40 322.07,218.40 322.46,218.40 322.86,218.40 323.26,218.40 323.65,218.40 324.05,218.40 324.45,218.40 324.84,218.40 325.24,218.40 325.63,218.40 326.03,218.40 326.43,218.40 326.82,218.40 327.22,218.40 327.62,218.40 328.01,218.40 328.41,218.40 328.81,218.40 329.20,218.40 329.60,218.40 330.00,218.40 330.39,218.40 330.79,218.40 331.19,218.40 331.58,218.40 331.98,218.40 332.37,218.40 332.77,218.40 333.17,218.40 333.56,218.40 333.96,218.40 334.36,218.40 334.75,218.40 335.15,218.40 335.55,218.40 335.94,218.40 336.34,218.40 336.74,218.40 337.13,218.40 337.53,218.40 337.93,218.40 338.32,218.40 338.72,218.40 339.11,218.40 339.51,218.40 339.91,218.40 340.30,218.40 340.70,218.40 341.10,218.40 341.49,218.40 341.89,218.40 342.29,218.40 342.68,218.40 343.08,218.40 343.48,218.40 343.87,218.40 344.27,218.40 344.67,218.40 345.06,218.40 345.46,218.40 345.86,218.40 346.25,218.40 346.65,218.40 347.04,218.40 347.44,218.40 347.84,218.40 348.23,218.40 348.63,218.40 349.03,218.40 349.42,218.40 349.82,218.40 350.22,218.40 350.61,218.40 351.01,218.40 351.41,218.40 351.80,218.40 352.20,218.40 352.60,218.40 352.99,218.40 353.39,218.40 353.78,218.40 354.18,218.40 354.58,218.40 354.97,218.40 355.37,218.40 355.77,218.40 356.16,218.40 356.56,218.40 356.96,218.40 357.35,218.40 357.75,218.40 358.15,218.40 358.54,218.40 358.94,218.40 359.34,218.40 359.73,218.40 360.13,218.40 360.53,218.40 360.92,218.40 361.32,218.40 361.71,218.40 362.11,218.40 362.51,218.40 362.90,218.40 363.30,218.40 363.70,218.40 364.09,218.40 364.49,218.40 364.89,218.40 365.28,218.40 365.68,218.40 366.08,218.40 366.47,218.40 366.87,218.40 367.27,218.40 367.66,218.40 368.06,218.40 368.45,218.40 368.85,218.40 369.25,218.40 369.64,218.40 370.04,218.40 370.44,218.40 370.83,218.40 371.23,218.40 371.63,218.40 372.02,218.40 372.42,218.40 372.82,218.40 373.21,218.40 373.61,218.40 374.01,218.40 374.40,218.40 374.80,218.40 375.20,218.40 375.59,218.40 375.99,218.40 376.38,218.40 376.78,218.40 377.18,218.40 377.57,218.40 377.97,218.40 378.37,218.40 378.76,218.40 379.16,218.40 379.56,218.40 379.95,218.40 380.35,218.40 380.75,218.40 381.14,218.40 381.54,218.40 381.94,218.40 382.23,218.40 382.53,218.40 382.57,219.95 382.65,223.04 382.81,229.23 383.12,241.60 383.52,257.07 383.92,272.54 384.24,285.07 384.56,297.60 384.60,297.60 384.68,297.60 384.84,297.60 385.15,297.60 385.55,297.60 385.95,297.60 386.34,297.60 386.74,297.60 387.14,297.60 387.53,297.60 387.93,297.60 388.33,297.60 388.72,297.60 389.12,297.60 389.52,297.60 389.91,297.60 390.31,297.60 390.71,297.60 391.10,297.60 391.50,297.60 391.89,297.60 392.29,297.60 392.69,297.60 393.08,297.60 393.48,297.60 393.88,297.60 394.27,297.60 394.67,297.60 395.07,297.60 395.46,297.60 395.86,297.60 396.26,297.60 396.65,297.60 397.05,297.60 397.45,297.60 397.84,297.60 398.24,297.60 398.64,297.60 399.03,297.60 399.43,297.60 399.82,297.60 400.22,297.60 400.62,297.60 401.01,297.60 401.41,297.60 401.81,297.60 402.20,297.60 402.60,297.60 403.00,297.60 403.39,297.60 403.79,297.60 404.19,297.60 404.58,297.60 404.98,297.60 405.38,297.60 405.77,297.60 406.17,297.60 406.56,297.60 406.96,297.60 407.36,297.60 407.75,297.60 408.15,297.60 408.55,297.60 408.94,297.60 409.34,297.60 409.74,297.60 410.13,297.60 410.53,297.60 410.93,297.60 411.32,297.60 411.72,297.60 412.12,297.60 412.51,297.60 412.91,297.60 413.31,297.60 413.70,297.60 414.10,297.60 414.49,297.60 414.89,297.60 415.29,297.60 415.68,297.60 416.08,297.60 416.48,297.60 416.87,297.60 417.27,297.60 417.67,297.60 418.06,297.60 418.46,297.60 418.86,297.60 419.25,297.60 419.65,297.60 420.05,297.60 420.44,297.60 420.84,297.60 421.23,297.60 421.63,297.60 422.03,297.60 422.42,297.60 422.82,297.60 423.22,297.60 423.61,297.60 424.01,297.60 424.41,297.60 424.80,297.60 425.20,297.60 425.60,297.60 425.99,297.60 426.39,297.60 426.79,297.60 427.18,297.60 427.58,297.60 427.98,297.60 428.37,297.60 428.77,297.60 429.16,297.60 429.56,297.60 429.96,297.60 430.35,297.60 430.75,297.60 431.15,297.60 431.54,297.60 431.94,297.60 432.34,297.60 432.73,297.60 433.13,297.60 433.53,297.60 433.92,297.60 434.32,297.60 434.72,297.60 435.11,297.60 435.51,297.60 435.90,297.60 436.30,297.60 436.70,297.60 437.09,297.60 437.49,297.60 437.89,297.60 438.28,297.60 438.68,297.60 439.08,297.60 439.47,297.60 439.87,297.60 440.27,297.60 440.66,297.60 441.06,297.60 441.46,297.60 441.85,297.60 442.25,297.60 442.64,297.60 443.04,297.60 443.44,297.60 443.83,297.60 444.23,297.60 444.63,297.60 445.02,297.60 445.42,297.60 445.82,297.60 446.21,297.60 446.61,297.60 447.01,297.60 447.40,297.60 447.80,297.60 448.20,297.60 448.59,297.60 448.99,297.60 449.39,297.60 449.78,297.60 450.18,297.60 450.57,297.60 450.97,297.60 451.37,297.60 451.76,297.60 452.16,297.60 452.56,297.60 452.95,297.60 453.35,297.60 453.75,297.60 454.14,297.60 454.54,297.60 454.94,297.60 455.33,297.60 455.73,297.60 456.13,297.60 456.52,297.60 456.92,297.60 457.31,297.60 457.71,297.60 458.11,297.60 458.50,297.60 458.90,297.60 459.30,297.60 459.69,297.60 460.09,297.60 460.49,297.60 460.88,297.60 461.28,297.60 461.68,297.60 462.07,297.60 462.47,297.60 462.87,297.60 463.26,297.60 463.66,297.60 464.06,297.60 464.45,297.60 464.85,297.60 465.24,297.60 465.64,297.60 466.04,297.60 466.43,297.60 466.83,297.60 467.23,297.60 467.62,297.60 468.02,297.60 468.42,297.60 468.81,297.60 469.21,297.60 469.61,297.60 470.00,297.60 470.40,297.60 470.80,297.60 471.19,297.60 471.59,297.60 471.98,297.60 472.38,297.60 472.78,297.60 473.17,297.60 473.57,297.60 473.97,297.60 474.36,297.60 474.76,297.60 475.16,297.60 475.55,297.60 475.95,297.60 476.35,297.60 476.74,297.60 477.14,297.60 477.54,297.60 477.93,297.60 478.33,297.60 478.73,297.60 479.12,297.60 479.52,297.60 479.91,297.60 480.31,297.60 480.71,297.60 481.10,297.60 481.50,297.60 481.75,297.60 482.00,297.60 482.04,296.05 482.12,292.96 482.28,286.77 482.59,274.40 482.99,258.93 483.39,243.46 483.71,230.93 484.03,218.40 484.07,218.40 484.15,218.40 484.31,218.40 484.62,218.40 485.02,218.40 485.42,218.40 485.81,218.40 486.21,218.40 486.61,218.40 487.00,218.40 487.40,218.40 487.80,218.40 488.19,218.40 488.59,218.40 488.99,218.40 489.38,218.40 489.78,218.40 490.18,218.40 490.57,218.40 490.97,218.40 491.36,218.40 491.76,218.40 492.16,218.40 492.55,218.40 492.95,218.40 493.35,218.40 493.74,218.40 494.14,218.40 494.54,218.40 494.93,218.40 495.33,218.40 495.73,218.40 496.12,218.40 496.52,218.40 496.92,218.40 497.31,218.40 497.71,218.40 498.11,218.40 498.50,218.40 498.90,218.40 499.29,218.40 499.69,218.40 500.09,218.40 500.48,218.40 500.88,218.40 501.28,218.40 501.67,218.40 502.07,218.40 502.47,218.40 502.86,218.40 503.26,218.40 503.66,218.40 504.05,218.40 504.45,218.40 504.85,218.40 505.24,218.40 505.64,218.40 506.03,218.40 506.43,218.40 506.83,218.40 507.22,218.40 507.62,218.40 508.02,218.40 508.41,218.40 508.81,218.40 509.21,218.40 509.60,218.40 510.00,218.40 510.40,218.40 510.79,218.40 511.19,218.40 511.59,218.40 511.98,218.40 512.38,218.40 512.78,218.40 513.17,218.40 513.57,218.40 513.96,218.40 514.36,218.40 514.76,218.40 515.15,218.40 515.55,218.40 515.95,218.40 516.34,218.40 516.74,218.40 517.14,218.40 517.53,218.40 517.93,218.40 518.33,218.40 518.72,218.40 519.12,218.40 519.52,218.40 519.91,218.40 520.31,218.40 520.70,218.40 521.10,218.40 521.50,218.40 521.89,218.40 522.29,218.40 522.69,218.40 523.08,218.40 523.48,218.40 523.88,218.40 524.27,218.40 524.67,218.40 525.07,218.40 525.46,218.40 525.86,218.40 526.26,218.40 526.65,218.40 527.05,218.40 527.45,218.40 527.84,218.40 528.24,218.40 528.63,218.40 529.03,218.40 529.43,218.40 529.82,218.40 530.22,218.40 530.62,218.40 531.01,218.40 531.41,218.40 531.81,218.40 532.20,218.40 532.60,218.40 533.00,218.40 533.39,218.40 533.79,218.40 534.19,218.40 534.58,218.40 534.98,218.40 535.37,218.40 535.77,218.40 536.17,218.40 536.56,218.40 536.96,218.40 537.36,218.40 537.75,218.40 538.15,218.40 538.55,218.40 538.94,218.40 539.34,218.40 539.74,218.40 540.13,218.40 540.53,218.40 540.93,218.40 541.32,218.40 541.72,218.40 542.11,218.40 542.51,218.40 542.91,218.40 543.30,218.40 543.70,218.40 544.10,218.40 544.49,218.40 544.89,218.40 545.29,218.40 545.68,218.40 546.08,218.40 546.48,218.40 546.87,218.40 547.27,218.40 547.67,218.40 548.06,218.40 548.46,218.40 548.86,218.40 549.25,218.40 549.65,218.40 550.04,218.40 550.44,218.40 550.84,218.40 551.23,218.40 551.63,218.40 552.03,218.40 552.42,218.40 552.82,218.40 553.22,218.40 553.61,218.40 554.01,218.40 554.41,218.40 554.80,218.40 555.20,218.40 555.60,218.40 555.99,218.40 556.39,218.40 556.78,218.40 557.18,218.40 557.58,218.40 557.97,218.40 558.37,218.40 558.77,218.40 559.16,218.40 559.56,218.40 559.96,218.40 560.35,218.40 560.75,218.40 561.15,218.40 561.54,218.40 561.94,218.40 562.34,218.40 562.73,218.40 563.13,218.40 563.53,218.40 563.92,218.40 564.32,218.40 564.71,218.40 565.11,218.40 565.51,218.40 565.90,218.40 566.30,218.40 566.70,218.40 567.09,218.40 567.49,218.40 567.89,218.40 568.28,218.40 568.68,218.40 569.08,218.40 569.47,218.40 569.87,218.40 570.27,218.40 570.66,218.40 571.06,218.40 571.45,218.40 571.85,218.40 572.25,218.40 572.64,218.40 573.04,218.40 573.44,218.40 573.83,218.40 574.23,218.40 574.63,218.40 575.02,218.40 575.42,218.40 575.82,218.40 576.21,218.40 576.61,218.40 577.01,218.40 577.40,218.40 577.80,218.40 578.20,218.40 578.59,218.40 578.99,218.40 579.38,218.40 579.78,218.40 580.18,218.40 580.57,218.40 580.97,218.40 581.37,218.40 581.76,218.40 582.16,218.40 582.56,218.40 582.95,218.40 583.35,218.40 583.75,218.40 584.14,218.40 584.54,218.40 584.94,218.40 585.23,218.40 585.53,218.40 585.57,219.95 585.65,223.04 585.81,229.23 586.12,241.60 586.52,257.07 586.92,272.54 587.24,285.07 587.56,297.60 587.60,297.60 587.68,297.60 587.84,297.60 588.15,297.60 588.55,297.60 588.95,297.60 589.34,297.60 589.74,297.60 590.14,297.60 590.53,297.60 590.93,297.60 591.33,297.60 591.72,297.60 592.12,297.60 592.52,297.60 592.91,297.60 593.31,297.60 593.71,297.60 594.10,297.60 594.50,297.60 594.89,297.60 595.29,297.60 595.69,297.60 596.08,297.60 596.48,297.60 596.88,297.60 597.27,297.60 597.67,297.60 598.07,297.60 598.46,297.60 598.86,297.60 599.26,297.60 599.65,297.60 600.05,297.60 600.45,297.60 600.84,297.60 601.24,297.60 601.64,297.60 602.03,297.60 602.43,297.60 602.82,297.60 603.22,297.60 603.62,297.60 604.01,297.60 604.41,297.60 604.81,297.60 605.20,297.60 605.60,297.60 606.00,297.60 606.39,297.60 606.79,297.60 607.19,297.60 607.58,297.60 607.98,297.60 608.38,297.60 608.77,297.60 609.17,297.60 609.56,297.60 609.96,297.60 610.36,297.60 610.75,297.60 611.15,297.60 611.55,297.60 611.94,297.60 612.34,297.60 612.74,297.60 613.13,297.60 613.53,297.60 613.93,297.60 614.32,297.60 614.72,297.60 615.12,297.60 615.51,297.60 615.91,297.60 616.31,297.60 616.70,297.60 617.10,297.60 617.49,297.60 617.89,297.60 618.29,297.60 618.68,297.60 619.08,297.60 619.48,297.60 619.87,297.60 620.27,297.60 620.67,297.60 621.06,297.60 621.46,297.60 621.86,297.60 622.25,297.60 622.65,297.60 623.05,297.60 623.44,297.60 623.84,297.60 624.23,297.60 624.63,297.60 625.03,297.60 625.42,297.60 625.82,297.60 626.22,297.60 626.61,297.60 627.01,297.60 627.41,297.60 627.80,297.60 628.20,297.60 628.60,297.60 628.99,297.60 629.39,297.60 629.79,297.60 630.18,297.60 630.58,297.60 630.98,297.60 631.37,297.60 631.77,297.60 632.16,297.60 632.56,297.60 632.96,297.60 633.35,297.60 633.75,297.60 634.15,297.60 634.54,297.60 634.94,297.60 635.34,297.60 635.73,297.60 636.13,297.60 636.53,297.60 636.92,297.60 637.32,297.60 637.72,297.60 638.11,297.60 638.51,297.60 638.90,297.60 639.30,297.60 639.70,297.60 640.09,297.60 640.49,297.60 640.89,297.60 641.28,297.60 641.68,297.60 642.08,297.60 642.47,297.60 642.87,297.60 643.27,297.60 643.66,297.60 644.06,297.60 644.46,297.60 644.85,297.60 645.25,297.60 645.64,297.60 646.04,297.60 646.44,297.60 646.83,297.60 647.23,297.60 647.63,297.60 648.02,297.60 648.42,297.60 648.82,297.60 649.21,297.60 649.61,297.60 650.01,297.60 650.40,297.60 650.80,297.60 651.20,297.60 651.59,297.60 651.99,297.60 652.39,297.60 652.78,297.60 653.18,297.60 653.57,297.60 653.97,297.60 654.37,297.60 654.76,297.60 655.16,297.60 655.56,297.60 655.95,297.60 656.35,297.60 656.75,297.60 657.14,297.60 657.54,297.60 657.94,297.60 658.33,297.60 658.73,297.60 659.13,297.60 659.52,297.60 659.92,297.60 660.31,297.60 660.71,297.60 661.11,297.60 661.50,297.60 661.90,297.60 662.30,297.60 662.69,297.60 663.09,297.60 663.49,297.60 663.88,297.60 664.28,297.60 664.68,297.60 665.07,297.60 665.47,297.60 665.87,297.60 666.26,297.60 666.66,297.60 667.06,297.60 667.45,297.60 667.85,297.60 668.24,297.60 668.64,297.60 669.04,297.60 669.43,297.60 669.83,297.60 670.23,297.60 670.62,297.60 671.02,297.60 671.42,297.60 671.81,297.60 672.21,297.60 672.61,297.60 673.00,297.60 673.40,297.60 673.80,297.60 674.19,297.60 674.59,297.60 674.98,297.60 675.38,297.60 675.78,297.60 676.17,297.60 676.57,297.60 676.97,297.60 677.36,297.60 677.76,297.60 678.16,297.60 678.55,297.60 678.95,297.60 679.35,297.60 679.74,297.60 680.14,297.60 680.54,297.60 680.93,297.60 681.33,297.60 681.73,297.60 682.12,297.60 682.52,297.60 682.91,297.60 683.31,297.60 683.71,297.60 684.10,297.60 684.50,297.60 684.75,297.60 685.00,297.60 685.04,296.05 685.12,292.96 685.28,286.77 685.59,274.40 685.99,258.93 686.39,243.46 686.71,230.93 687.03,218.40 687.07,218.40 687.15,218.40 687.31,218.40 687.62,218.40 688.02,218.40 688.42,218.40 688.81,218.40 689.21,218.40 689.61,218.40 690.00,218.40 690.40,218.40 690.80,218.40 691.19,218.40 691.59,218.40 691.99,218.40 692.38,218.40 692.78,218.40 693.18,218.40 693.57,218.40 693.97,218.40 694.36,218.40 694.76,218.40 695.16,218.40 695.55,218.40 695.95,218.40 696.35,218.40 696.74,218.40 697.14,218.40 697.54,218.40 697.93,218.40 698.33,218.40 698.73,218.40 699.12,218.40 699.52,218.40 699.92,218.40 700.31,218.40 700.71,218.40 701.11,218.40 701.50,218.40 701.90,218.40 702.29,218.40 702.69,218.40 703.09,218.40 703.48,218.40 703.88,218.40 704.28,218.40 704.67,218.40 705.07,218.40 705.47,218.40 705.86,218.40 706.26,218.40 706.66,218.40 707.05,218.40 707.45,218.40 707.85,218.40 708.24,218.40 708.64,218.40 709.03,218.40 709.43,218.40 709.83,218.40 710.22,218.40 710.62,218.40 711.02,218.40 711.41,218.40 711.81,218.40 712.21,218.40 712.60,218.40 713.00,218.40 713.40,218.40 713.79,218.40 714.19,218.40 714.59,218.40 714.98,218.40 715.38,218.40 715.78,218.40 716.17,218.40 716.57,218.40 716.96,218.40 717.36,218.40 717.76,218.40 718.15,218.40 718.55,218.40 718.95,218.40 719.34,218.40 719.74,218.40 720.14,218.40 720.53,218.40 720.93,218.40 721.33,218.40 721.72,218.40 722.12,218.40 722.52,218.40 722.91,218.40 723.31,218.40 723.70,218.40 724.10,218.40 724.50,218.40 724.89,218.40 725.29,218.40 725.69,218.40 726.08,218.40 726.48,218.40 726.88,218.40 727.27,218.40 727.67,218.40 728.07,218.40 728.46,218.40 728.86,218.40 729.26,218.40 729.65,218.40 730.05,218.40 730.45,218.40 730.84,218.40 731.24,218.40 731.63,218.40 732.03,218.40 732.43,218.40 732.82,218.40 733.22,218.40 733.62,218.40 734.01,218.40 734.41,218.40 734.81,218.40 735.20,218.40 735.60,218.40 736.00,218.40 736.39,218.40 736.79,218.40 737.19,218.40 737.58,218.40 737.98,218.40 738.37,218.40 738.77,218.40 739.17,218.40 739.56,218.40 739.96,218.40 740.36,218.40 740.75,218.40 741.15,218.40 741.55,218.40 741.94,218.40 742.34,218.40 742.74,218.40 743.13,218.40 743.53,218.40 743.93,218.40 744.32,218.40 744.72,218.40 745.11,218.40 745.51,218.40 745.91,218.40 746.30,218.40 746.70,218.40 747.10,218.40 747.49,218.40 747.89,218.40 748.29,218.40 748.68,218.40 749.08,218.40 749.48,218.40 749.87,218.40 750.27,218.40 750.67,218.40 751.06,218.40 751.46,218.40 751.86,218.40 752.25,218.40 752.65,218.40 753.04,218.40 753.44,218.40 753.84,218.40 754.23,218.40 754.63,218.40 755.03,218.40 755.42,218.40 755.82,218.40 756.22,218.40 756.61,218.40 757.01,218.40 757.41,218.40 757.80,218.40 758.20,218.40 758.60,218.40 758.99,218.40 759.39,218.40 759.78,218.40 760.18,218.40 760.58,218.40 760.97,218.40 761.37,218.40 761.77,218.40 762.16,218.40 762.56,218.40 762.96,218.40 763.35,218.40 763.75,218.40 764.15,218.40 764.54,218.40 764.94,218.40 765.34,218.40 765.73,218.40 766.13,218.40 766.53,218.40 766.92,218.40 767.32,218.40 767.71,218.40 768.11,218.40 768.51,218.40 768.90,218.40 769.30,218.40 769.70,218.40 770.09,218.40 770.49,218.40 770.89,218.40 771.28,218.40 771.68,218.40 772.08,218.40 772.47,218.40 772.87,218.40 773.27,218.40 773.66,218.40 774.06,218.40 774.45,218.40 774.85,218.40 775.25,218.40 775.64,218.40 776.04,218.40 776.44,218.40 776.83,218.40 777.23,218.40 777.63,218.40 778.02,218.40 778.42,218.40 778.82,218.40 779.21,218.40 779.61,218.40 780.01,218.40 780.40,218.40 780.80,218.40 781.20,218.40 781.59,218.40 781.99,218.40 782.38,218.40 782.78,218.40 783.18,218.40 783.57,218.40 783.97,218.40 784.37,218.40 784.76,218.40 785.16,218.40 785.56,218.40 785.95,218.40 786.35,218.40 786.75,218.40 787.14,218.40 787.54,218.40 787.94,218.40 788.23,218.40 788.53,218.40 788.57,219.95 788.65,223.04 788.81,229.23 789.12,241.60 789.52,257.07 789.92,272.54 790.24,285.07 790.56,297.60 790.60,297.60 790.68,297.60 790.84,297.60 791.15,297.60 791.55,297.60 791.95,297.60 792.34,297.60 792.74,297.60 793.14,297.60 793.53,297.60 793.93,297.60 794.33,297.60 794.72,297.60 795.12,297.60 795.52,297.60 795.91,297.60 796.31,297.60 796.71,297.60 797.10,297.60 797.50,297.60 797.89,297.60 798.29,297.60 798.69,297.60 799.08,297.60 799.48,297.60 799.88,297.60 800.27,297.60 800.67,297.60 801.07,297.60 801.46,297.60 801.86,297.60 802.26,297.60 802.65,297.60 803.05,297.60 803.45,297.60 803.84,297.60 804.24,297.60 804.64,297.60 805.03,297.60 805.43,297.60 805.82,297.60 806.22,297.60 806.62,297.60 807.01,297.60 807.41,297.60 807.81,297.60 808.20,297.60 808.60,297.60 809.00,297.60 809.39,297.60 809.79,297.60 810.19,297.60 810.58,297.60 810.98,297.60 811.38,297.60 811.77,297.60 812.17,297.60 812.56,297.60 812.96,297.60 813.36,297.60 813.75,297.60 814.15,297.60 814.55,297.60 814.94,297.60 815.34,297.60 815.74,297.60 816.13,297.60 816.53,297.60 816.93,297.60 817.32,297.60 817.72,297.60 818.12,297.60 818.51,297.60 818.91,297.60 819.31,297.60 819.70,297.60 820.10,297.60 820.49,297.60 820.89,297.60 821.29,297.60 821.68,297.60 822.08,297.60 822.48,297.60 822.87,297.60 823.27,297.60 823.67,297.60 824.06,297.60 824.46,297.60 824.86,297.60 825.25,297.60 825.65,297.60 826.05,297.60 826.44,297.60 826.84,297.60 827.23,297.60 827.63,297.60 828.03,297.60 828.42,297.60 828.82,297.60 829.22,297.60 829.61,297.60 830.01,297.60 830.41,297.60 830.80,297.60 831.20,297.60 831.60,297.60 831.99,297.60 832.39,297.60 832.79,297.60 833.18,297.60 833.58,297.60 833.98,297.60 834.37,297.60 834.77,297.60 835.16,297.60 835.56,297.60 835.96,297.60 836.35,297.60 836.75,297.60 837.15,297.60 837.54,297.60 837.94,297.60 838.34,297.60 838.73,297.60 839.13,297.60 839.53,297.60 839.92,297.60 840.32,297.60 840.72,297.60 841.11,297.60 841.51,297.60 841.90,297.60 842.30,297.60 842.70,297.60 843.09,297.60 843.49,297.60 843.89,297.60 844.28,297.60 844.68,297.60 845.08,297.60 845.47,297.60 845.87,297.60 846.27,297.60 846.66,297.60 847.06,297.60 847.46,297.60 847.85,297.60 848.25,297.60 848.64,297.60 849.04,297.60 849.44,297.60 849.83,297.60 850.23,297.60 850.63,297.60 851.02,297.60 851.42,297.60 851.82,297.60 852.21,297.60 852.61,297.60 853.01,297.60 853.40,297.60 853.80,297.60 854.20,297.60 854.59,297.60 854.99,297.60 855.39,297.60 855.78,297.60 856.18,297.60 856.57,297.60 856.97,297.60 857.37,297.60 857.76,297.60 858.16,297.60 858.56,297.60 858.95,297.60 859.35,297.60 859.75,297.60 860.14,297.60 860.54,297.60 860.94,297.60 861.33,297.60 861.73,297.60 862.13,297.60 862.52,297.60 862.92,297.60 863.31,297.60 863.71,297.60 864.11,297.60 864.50,297.60 864.90,297.60 865.30,297.60 865.69,297.60 866.09,297.60 866.49,297.60 866.88,297.60 867.28,297.60 867.68,297.60 868.07,297.60 868.47,297.60 868.87,297.60 869.26,297.60 869.66,297.60 870.06,297.60 870.45,297.60 870.85,297.60 871.24,297.60 871.64,297.60 872.04,297.60 872.43,297.60 872.83,297.60 873.23,297.60 873.62,297.60 874.02,297.60 874.42,297.60 874.81,297.60 875.21,297.60 875.61,297.60 876.00,297.60 876.40,297.60 876.80,297.60 877.19,297.60 877.59,297.60 877.98,297.60 878.38,297.60 878.78,297.60 879.17,297.60 879.57,297.60 879.97,297.60 880.36,297.60 880.76,297.60 881.16,297.60 881.55,297.60 881.95,297.60 882.35,297.60 882.74,297.60 883.14,297.60 883.54,297.60 883.93,297.60 884.33,297.60 884.73,297.60 885.12,297.60 885.52,297.60 885.91,297.60 886.31,297.60 886.71,297.60 887.10,297.60 887.50,297.60 887.75,297.60" fill="none" stroke="#b54708" stroke-width="3" stroke-linejoin="round"/>
<line x1="660" y1="114" x2="696" y2="114" stroke="#b54708" stroke-width="3"/>
<text x="706" y="119" font-family="Arial, Helvetica, sans-serif" font-size="13" font-weight="400" text-anchor="start" fill="#111">input x50</text>
<text x="460" y="502" font-family="Arial, Helvetica, sans-serif" font-size="14" font-weight="400" text-anchor="middle" fill="#111">Time after 60 ms settling, ms</text>
<text x="22" y="260" font-family="Arial, Helvetica, sans-serif" font-size="14" text-anchor="middle" fill="#111" transform="rotate(-90 22 260)">Voltage, V</text>
</svg>
