<svg xmlns="http://www.w3.org/2000/svg" width="920" height="520" viewBox="0 0 920 520">
<defs>
<style>
.wire{stroke:#111;stroke-width:2.6;fill:none;stroke-linecap:round;stroke-linejoin:round}
.thin{stroke:#a7b0bd;stroke-width:1.2;fill:none;stroke-linecap:round;stroke-linejoin:round}
.axis{stroke:#111;stroke-width:1.4;fill:none}
.blue{stroke:#1665d8;stroke-width:3;fill:none;stroke-linecap:round;stroke-linejoin:round}
.green{stroke:#13795b;stroke-width:3;fill:none;stroke-linecap:round;stroke-linejoin:round}
.orange{stroke:#b54708;stroke-width:3;fill:none;stroke-linecap:round;stroke-linejoin:round}
.node{fill:#111;stroke:none}
</style>
</defs>
<rect width="100%" height="100%" fill="#fff"/>
<text x="76" y="36" font-family="Arial, Helvetica, sans-serif" font-size="22" font-weight="700" text-anchor="start" fill="#111">Square-wave response, 1 kHz, Vin = 2.0 mVpp</text>
<rect x="76" y="60" width="812" height="396" fill="#fff" stroke="#111" stroke-width="1.4"/>
<line x1="76" y1="60" x2="76" y2="456" class="thin"/>
<text x="76" y="479" font-family="Arial, Helvetica, sans-serif" font-size="12" font-weight="400" text-anchor="middle" fill="#111">0</text>
<line x1="279" y1="60" x2="279" y2="456" class="thin"/>
<text x="279" y="479" font-family="Arial, Helvetica, sans-serif" font-size="12" font-weight="400" text-anchor="middle" fill="#111">1</text>
<line x1="482" y1="60" x2="482" y2="456" class="thin"/>
<text x="482" y="479" font-family="Arial, Helvetica, sans-serif" font-size="12" font-weight="400" text-anchor="middle" fill="#111">2</text>
<line x1="685" y1="60" x2="685" y2="456" class="thin"/>
<text x="685" y="479" font-family="Arial, Helvetica, sans-serif" font-size="12" font-weight="400" text-anchor="middle" fill="#111">3</text>
<line x1="888" y1="60" x2="888" y2="456" class="thin"/>
<text x="888" y="479" font-family="Arial, Helvetica, sans-serif" font-size="12" font-weight="400" text-anchor="middle" fill="#111">4</text>
<line x1="76" y1="456" x2="888" y2="456" class="thin"/>
<text x="66" y="460" font-family="Arial, Helvetica, sans-serif" font-size="12" font-weight="400" text-anchor="end" fill="#111">-0.005</text>
<line x1="76" y1="357" x2="888" y2="357" class="thin"/>
<text x="66" y="361" font-family="Arial, Helvetica, sans-serif" font-size="12" font-weight="400" text-anchor="end" fill="#111">-0.0025</text>
<line x1="76" y1="258" x2="888" y2="258" class="thin"/>
<text x="66" y="262" font-family="Arial, Helvetica, sans-serif" font-size="12" font-weight="400" text-anchor="end" fill="#111">0</text>
<line x1="76" y1="159" x2="888" y2="159" class="thin"/>
<text x="66" y="163" font-family="Arial, Helvetica, sans-serif" font-size="12" font-weight="400" text-anchor="end" fill="#111">0.0025</text>
<line x1="76" y1="60" x2="888" y2="60" class="thin"/>
<text x="66" y="64" font-family="Arial, Helvetica, sans-serif" font-size="12" font-weight="400" text-anchor="end" fill="#111">0.005</text>
<polyline points="76.00,138.99 76.02,139.63 76.06,141.13 76.13,144.72 76.20,149.53 76.22,150.24 76.25,151.63 76.30,154.40 76.42,159.87 76.64,170.52 77.04,188.15 77.44,204.53 77.83,219.64 78.23,233.53 78.63,246.28 79.02,257.95 79.42,268.64 79.82,278.41 80.21,287.34 80.61,295.50 81.00,302.96 81.40,309.77 81.80,315.99 82.19,321.68 82.59,326.87 82.99,331.61 83.38,335.94 83.78,339.90 84.18,343.51 84.57,346.81 84.97,349.82 85.37,352.58 85.76,355.09 86.16,357.39 86.56,359.48 86.95,361.40 87.35,363.14 87.75,364.74 88.14,366.20 88.54,367.53 88.93,368.75 89.33,369.85 89.73,370.87 90.12,371.79 90.52,372.64 90.92,373.41 91.31,374.11 91.71,374.75 92.11,375.34 92.50,375.87 92.90,376.36 93.30,376.80 93.69,377.21 94.09,377.58 94.49,377.92 94.88,378.22 95.28,378.50 95.67,378.76 96.07,378.99 96.47,379.20 96.86,379.39 97.26,379.57 97.66,379.73 98.05,379.87 98.45,380.00 98.85,380.12 99.24,380.23 99.64,380.33 100.04,380.41 100.43,380.49 100.83,380.57 101.23,380.63 101.62,380.69 102.02,380.75 102.41,380.79 102.81,380.84 103.21,380.87 103.60,380.91 104.00,380.94 104.40,380.97 104.79,380.99 105.19,381.01 105.59,381.03 105.98,381.05 106.38,381.06 106.78,381.07 107.17,381.08 107.57,381.09 107.97,381.10 108.36,381.10 108.76,381.11 109.16,381.11 109.55,381.11 109.95,381.12 110.34,381.12 110.74,381.11 111.14,381.11 111.53,381.11 111.93,381.11 112.33,381.11 112.72,381.10 113.12,381.10 113.52,381.09 113.91,381.09 114.31,381.08 114.71,381.08 115.10,381.07 115.50,381.07 115.90,381.06 116.29,381.05 116.69,381.05 117.08,381.04 117.48,381.03 117.88,381.03 118.27,381.02 118.67,381.01 119.07,381.00 119.46,380.99 119.86,380.99 120.26,380.98 120.65,380.97 121.05,380.96 121.45,380.95 121.84,380.95 122.24,380.94 122.64,380.93 123.03,380.92 123.43,380.91 123.83,380.90 124.22,380.89 124.62,380.89 125.01,380.88 125.41,380.87 125.81,380.86 126.20,380.85 126.60,380.84 127.00,380.83 127.39,380.82 127.79,380.82 128.19,380.81 128.58,380.80 128.98,380.79 129.38,380.78 129.77,380.77 130.17,380.76 130.57,380.75 130.96,380.74 131.36,380.74 131.75,380.73 132.15,380.72 132.55,380.71 132.94,380.70 133.34,380.69 133.74,380.68 134.13,380.67 134.53,380.66 134.93,380.66 135.32,380.65 135.72,380.64 136.12,380.63 136.51,380.62 136.91,380.61 137.31,380.60 137.70,380.59 138.10,380.58 138.50,380.57 138.89,380.57 139.29,380.56 139.68,380.55 140.08,380.54 140.48,380.53 140.87,380.52 141.27,380.51 141.67,380.50 142.06,380.49 142.46,380.48 142.86,380.48 143.25,380.47 143.65,380.46 144.05,380.45 144.44,380.44 144.84,380.43 145.24,380.42 145.63,380.41 146.03,380.40 146.42,380.39 146.82,380.39 147.22,380.38 147.61,380.37 148.01,380.36 148.41,380.35 148.80,380.34 149.20,380.33 149.60,380.32 149.99,380.31 150.39,380.30 150.79,380.30 151.18,380.29 151.58,380.28 151.98,380.27 152.37,380.26 152.77,380.25 153.16,380.24 153.56,380.23 153.96,380.22 154.35,380.21 154.75,380.21 155.15,380.20 155.54,380.19 155.94,380.18 156.34,380.17 156.73,380.16 157.13,380.15 157.53,380.14 157.92,380.13 158.32,380.12 158.72,380.12 159.11,380.11 159.51,380.10 159.91,380.09 160.30,380.08 160.70,380.07 161.09,380.06 161.49,380.05 161.89,380.04 162.28,380.04 162.68,380.03 163.08,380.02 163.47,380.01 163.87,380.00 164.27,379.99 164.66,379.98 165.06,379.97 165.46,379.96 165.85,379.95 166.25,379.95 166.65,379.94 167.04,379.93 167.44,379.92 167.83,379.91 168.23,379.90 168.63,379.89 169.02,379.88 169.42,379.87 169.82,379.86 170.21,379.86 170.61,379.85 171.01,379.84 171.40,379.83 171.80,379.82 172.20,379.81 172.59,379.80 172.99,379.79 173.39,379.78 173.78,379.78 174.18,379.77 174.58,379.76 174.97,379.75 175.37,379.74 175.76,379.73 176.16,379.72 176.56,379.71 176.95,379.70 177.33,379.69 177.70,379.69 177.72,379.05 177.76,377.54 177.83,373.95 177.91,369.14 177.92,368.43 177.95,367.04 178.01,364.28 178.12,358.82 178.35,348.20 178.74,330.65 179.14,314.38 179.54,299.33 179.93,285.47 180.33,272.74 180.73,261.06 181.12,250.37 181.52,240.58 181.91,231.63 182.31,223.44 182.71,215.95 183.10,209.11 183.50,202.86 183.90,197.15 184.29,191.93 184.69,187.17 185.09,182.81 185.48,178.84 185.88,175.20 186.28,171.88 186.67,168.85 187.07,166.08 187.47,163.56 187.86,161.25 188.26,159.14 188.66,157.21 189.05,155.45 189.45,153.85 189.84,152.38 190.24,151.05 190.64,149.82 191.03,148.71 191.43,147.69 191.83,146.76 192.22,145.91 192.62,145.14 193.02,144.43 193.41,143.78 193.81,143.19 194.21,142.66 194.60,142.17 195.00,141.72 195.40,141.31 195.79,140.94 196.19,140.60 196.58,140.29 196.98,140.01 197.38,139.75 197.77,139.52 198.17,139.30 198.57,139.11 198.96,138.93 199.36,138.77 199.76,138.62 200.15,138.49 200.55,138.37 200.95,138.26 201.34,138.16 201.74,138.07 202.14,137.98 202.53,137.91 202.93,137.84 203.33,137.78 203.72,137.72 204.12,137.67 204.51,137.63 204.91,137.59 205.31,137.55 205.70,137.52 206.10,137.49 206.50,137.46 206.89,137.44 207.29,137.42 207.69,137.40 208.08,137.38 208.48,137.37 208.88,137.35 209.27,137.34 209.67,137.33 210.07,137.32 210.46,137.32 210.86,137.31 211.25,137.31 211.65,137.30 212.05,137.30 212.44,137.30 212.84,137.29 213.24,137.29 213.63,137.29 214.03,137.29 214.43,137.29 214.82,137.29 215.22,137.30 215.62,137.30 216.01,137.30 216.41,137.30 216.81,137.31 217.20,137.31 217.60,137.31 217.99,137.32 218.39,137.32 218.79,137.32 219.18,137.33 219.58,137.33 219.98,137.34 220.37,137.34 220.77,137.35 221.17,137.35 221.56,137.36 221.96,137.36 222.36,137.37 222.75,137.37 223.15,137.38 223.55,137.38 223.94,137.39 224.34,137.39 224.74,137.40 225.13,137.41 225.53,137.41 225.92,137.42 226.32,137.42 226.72,137.43 227.11,137.43 227.51,137.44 227.91,137.44 228.30,137.45 228.70,137.46 229.10,137.46 229.49,137.47 229.89,137.47 230.29,137.48 230.68,137.49 231.08,137.49 231.48,137.50 231.87,137.50 232.27,137.51 232.66,137.52 233.06,137.52 233.46,137.53 233.85,137.53 234.25,137.54 234.65,137.55 235.04,137.55 235.44,137.56 235.84,137.56 236.23,137.57 236.63,137.58 237.03,137.58 237.42,137.59 237.82,137.59 238.22,137.60 238.61,137.61 239.01,137.61 239.41,137.62 239.80,137.62 240.20,137.63 240.59,137.64 240.99,137.64 241.39,137.65 241.78,137.65 242.18,137.66 242.58,137.67 242.97,137.67 243.37,137.68 243.77,137.68 244.16,137.69 244.56,137.70 244.96,137.70 245.35,137.71 245.75,137.71 246.15,137.72 246.54,137.73 246.94,137.73 247.33,137.74 247.73,137.74 248.13,137.75 248.52,137.76 248.92,137.76 249.32,137.77 249.71,137.77 250.11,137.78 250.51,137.79 250.90,137.79 251.30,137.80 251.70,137.80 252.09,137.81 252.49,137.82 252.89,137.82 253.28,137.83 253.68,137.83 254.08,137.84 254.47,137.85 254.87,137.85 255.26,137.86 255.66,137.86 256.06,137.87 256.45,137.88 256.85,137.88 257.25,137.89 257.64,137.89 258.04,137.90 258.44,137.91 258.83,137.91 259.23,137.92 259.63,137.92 260.02,137.93 260.42,137.94 260.82,137.94 261.21,137.95 261.61,137.95 262.00,137.96 262.40,137.97 262.80,137.97 263.19,137.98 263.59,137.98 263.99,137.99 264.38,138.00 264.78,138.00 265.18,138.01 265.57,138.01 265.97,138.02 266.37,138.03 266.76,138.03 267.16,138.04 267.56,138.04 267.95,138.05 268.35,138.06 268.74,138.06 269.14,138.07 269.54,138.07 269.93,138.08 270.33,138.09 270.73,138.09 271.12,138.10 271.52,138.10 271.92,138.11 272.31,138.12 272.71,138.12 273.11,138.13 273.50,138.13 273.90,138.14 274.30,138.15 274.69,138.15 275.09,138.16 275.49,138.16 275.88,138.17 276.28,138.18 276.67,138.18 277.07,138.19 277.47,138.19 277.86,138.20 278.26,138.21 278.63,138.21 279.00,138.22 279.02,138.86 279.06,140.36 279.13,143.95 279.20,148.76 279.22,149.47 279.25,150.86 279.30,153.63 279.42,159.10 279.64,169.75 280.04,187.38 280.44,203.76 280.83,218.87 281.23,232.76 281.63,245.51 282.02,257.19 282.42,267.87 282.82,277.64 283.21,286.57 283.61,294.73 284.00,302.19 284.40,309.00 284.80,315.23 285.19,320.91 285.59,326.10 285.99,330.84 286.38,335.17 286.78,339.13 287.18,342.74 287.57,346.04 287.97,349.06 288.37,351.81 288.76,354.32 289.16,356.62 289.56,358.71 289.95,360.63 290.35,362.38 290.75,363.97 291.14,365.43 291.54,366.76 291.93,367.98 292.33,369.09 292.73,370.10 293.12,371.02 293.52,371.87 293.92,372.64 294.31,373.34 294.71,373.98 295.11,374.57 295.50,375.10 295.90,375.59 296.30,376.04 296.69,376.44 297.09,376.81 297.49,377.15 297.88,377.45 298.28,377.73 298.67,377.99 299.07,378.22 299.47,378.43 299.86,378.62 300.26,378.80 300.66,378.96 301.05,379.10 301.45,379.23 301.85,379.35 302.24,379.46 302.64,379.56 303.04,379.65 303.43,379.73 303.83,379.80 304.23,379.87 304.62,379.93 305.02,379.98 305.41,380.03 305.81,380.07 306.21,380.11 306.60,380.14 307.00,380.17 307.40,380.20 307.79,380.22 308.19,380.25 308.59,380.26 308.98,380.28 309.38,380.29 309.78,380.31 310.17,380.32 310.57,380.33 310.97,380.33 311.36,380.34 311.76,380.34 312.16,380.35 312.55,380.35 312.95,380.35 313.34,380.35 313.74,380.35 314.14,380.35 314.53,380.35 314.93,380.34 315.33,380.34 315.72,380.34 316.12,380.33 316.52,380.33 316.91,380.32 317.31,380.32 317.71,380.31 318.10,380.31 318.50,380.30 318.90,380.30 319.29,380.29 319.69,380.28 320.08,380.27 320.48,380.27 320.88,380.26 321.27,380.25 321.67,380.25 322.07,380.24 322.46,380.23 322.86,380.22 323.26,380.21 323.65,380.21 324.05,380.20 324.45,380.19 324.84,380.18 325.24,380.17 325.64,380.16 326.03,380.16 326.43,380.15 326.83,380.14 327.22,380.13 327.62,380.12 328.01,380.11 328.41,380.10 328.81,380.10 329.20,380.09 329.60,380.08 330.00,380.07 330.39,380.06 330.79,380.05 331.19,380.04 331.58,380.03 331.98,380.03 332.38,380.02 332.77,380.01 333.17,380.00 333.57,379.99 333.96,379.98 334.36,379.97 334.75,379.96 335.15,379.95 335.55,379.95 335.94,379.94 336.34,379.93 336.74,379.92 337.13,379.91 337.53,379.90 337.93,379.89 338.32,379.88 338.72,379.87 339.12,379.87 339.51,379.86 339.91,379.85 340.31,379.84 340.70,379.83 341.10,379.82 341.50,379.81 341.89,379.80 342.29,379.79 342.68,379.79 343.08,379.78 343.48,379.77 343.87,379.76 344.27,379.75 344.67,379.74 345.06,379.73 345.46,379.72 345.86,379.71 346.25,379.70 346.65,379.70 347.05,379.69 347.44,379.68 347.84,379.67 348.24,379.66 348.63,379.65 349.03,379.64 349.42,379.63 349.82,379.62 350.22,379.61 350.61,379.61 351.01,379.60 351.41,379.59 351.80,379.58 352.20,379.57 352.60,379.56 352.99,379.55 353.39,379.54 353.79,379.53 354.18,379.53 354.58,379.52 354.98,379.51 355.37,379.50 355.77,379.49 356.16,379.48 356.56,379.47 356.96,379.46 357.35,379.45 357.75,379.45 358.15,379.44 358.54,379.43 358.94,379.42 359.34,379.41 359.73,379.40 360.13,379.39 360.53,379.38 360.92,379.37 361.32,379.36 361.72,379.36 362.11,379.35 362.51,379.34 362.91,379.33 363.30,379.32 363.70,379.31 364.09,379.30 364.49,379.29 364.89,379.28 365.28,379.28 365.68,379.27 366.08,379.26 366.47,379.25 366.87,379.24 367.27,379.23 367.66,379.22 368.06,379.21 368.46,379.20 368.85,379.20 369.25,379.19 369.65,379.18 370.04,379.17 370.44,379.16 370.83,379.15 371.23,379.14 371.63,379.13 372.02,379.12 372.42,379.11 372.82,379.11 373.21,379.10 373.61,379.09 374.01,379.08 374.40,379.07 374.80,379.06 375.20,379.05 375.59,379.04 375.99,379.03 376.39,379.03 376.78,379.02 377.18,379.01 377.58,379.00 377.97,378.99 378.37,378.98 378.76,378.97 379.16,378.96 379.56,378.95 379.95,378.95 380.33,378.94 380.70,378.93 380.72,378.29 380.76,376.78 380.83,373.19 380.91,368.38 380.92,367.68 380.95,366.28 381.01,363.52 381.12,358.06 381.35,347.44 381.74,329.90 382.14,313.62 382.54,298.57 382.93,284.72 383.33,271.98 383.73,260.31 384.12,249.61 384.52,239.82 384.91,230.87 385.31,222.68 385.71,215.20 386.10,208.36 386.50,202.10 386.90,196.39 387.29,191.18 387.69,186.41 388.09,182.06 388.48,178.08 388.88,174.44 389.28,171.13 389.67,168.10 390.07,165.33 390.47,162.80 390.86,160.49 391.26,158.38 391.66,156.46 392.05,154.70 392.45,153.09 392.84,151.63 393.24,150.29 393.64,149.07 394.03,147.95 394.43,146.93 394.83,146.00 395.22,145.15 395.62,144.38 396.02,143.67 396.41,143.03 396.81,142.44 397.21,141.90 397.60,141.41 398.00,140.96 398.40,140.56 398.79,140.18 399.19,139.84 399.58,139.54 399.98,139.25 400.38,139.00 400.77,138.76 401.17,138.55 401.57,138.35 401.96,138.18 402.36,138.02 402.76,137.87 403.15,137.74 403.55,137.61 403.95,137.50 404.34,137.40 404.74,137.31 405.14,137.23 405.53,137.16 405.93,137.09 406.33,137.03 406.72,136.97 407.12,136.92 407.51,136.87 407.91,136.83 408.31,136.80 408.70,136.76 409.10,136.73 409.50,136.71 409.89,136.68 410.29,136.66 410.69,136.64 411.08,136.63 411.48,136.61 411.88,136.60 412.27,136.59 412.67,136.58 413.07,136.57 413.46,136.56 413.86,136.56 414.25,136.55 414.65,136.55 415.05,136.54 415.44,136.54 415.84,136.54 416.24,136.54 416.63,136.54 417.03,136.54 417.43,136.54 417.82,136.54 418.22,136.54 418.62,136.55 419.01,136.55 419.41,136.55 419.81,136.55 420.20,136.56 420.60,136.56 420.99,136.56 421.39,136.57 421.79,136.57 422.18,136.58 422.58,136.58 422.98,136.59 423.37,136.59 423.77,136.59 424.17,136.60 424.56,136.60 424.96,136.61 425.36,136.62 425.75,136.62 426.15,136.63 426.55,136.63 426.94,136.64 427.34,136.64 427.74,136.65 428.13,136.65 428.53,136.66 428.92,136.66 429.32,136.67 429.72,136.68 430.11,136.68 430.51,136.69 430.91,136.69 431.30,136.70 431.70,136.71 432.10,136.71 432.49,136.72 432.89,136.72 433.29,136.73 433.68,136.74 434.08,136.74 434.48,136.75 434.87,136.75 435.27,136.76 435.66,136.76 436.06,136.77 436.46,136.78 436.85,136.78 437.25,136.79 437.65,136.80 438.04,136.80 438.44,136.81 438.84,136.81 439.23,136.82 439.63,136.83 440.03,136.83 440.42,136.84 440.82,136.84 441.22,136.85 441.61,136.86 442.01,136.86 442.41,136.87 442.80,136.87 443.20,136.88 443.59,136.89 443.99,136.89 444.39,136.90 444.78,136.90 445.18,136.91 445.58,136.92 445.97,136.92 446.37,136.93 446.77,136.93 447.16,136.94 447.56,136.95 447.96,136.95 448.35,136.96 448.75,136.96 449.15,136.97 449.54,136.98 449.94,136.98 450.33,136.99 450.73,136.99 451.13,137.00 451.52,137.01 451.92,137.01 452.32,137.02 452.71,137.03 453.11,137.03 453.51,137.04 453.90,137.04 454.30,137.05 454.70,137.06 455.09,137.06 455.49,137.07 455.89,137.07 456.28,137.08 456.68,137.09 457.08,137.09 457.47,137.10 457.87,137.10 458.26,137.11 458.66,137.12 459.06,137.12 459.45,137.13 459.85,137.13 460.25,137.14 460.64,137.15 461.04,137.15 461.44,137.16 461.83,137.16 462.23,137.17 462.63,137.18 463.02,137.18 463.42,137.19 463.82,137.19 464.21,137.20 464.61,137.21 465.00,137.21 465.40,137.22 465.80,137.22 466.19,137.23 466.59,137.24 466.99,137.24 467.38,137.25 467.78,137.26 468.18,137.26 468.57,137.27 468.97,137.27 469.37,137.28 469.76,137.29 470.16,137.29 470.56,137.30 470.95,137.30 471.35,137.31 471.74,137.32 472.14,137.32 472.54,137.33 472.93,137.33 473.33,137.34 473.73,137.35 474.12,137.35 474.52,137.36 474.92,137.36 475.31,137.37 475.71,137.38 476.11,137.38 476.50,137.39 476.90,137.39 477.30,137.40 477.69,137.41 478.09,137.41 478.49,137.42 478.88,137.42 479.28,137.43 479.67,137.44 480.07,137.44 480.47,137.45 480.86,137.45 481.26,137.46 481.63,137.47 482.00,137.47 482.02,138.11 482.06,139.61 482.13,143.21 482.20,148.02 482.22,148.73 482.25,150.12 482.30,152.88 482.42,158.35 482.64,169.01 483.04,186.63 483.44,203.01 483.83,218.13 484.23,232.02 484.63,244.77 485.02,256.44 485.42,267.13 485.82,276.90 486.21,285.83 486.61,293.99 487.00,301.45 487.40,308.26 487.80,314.48 488.19,320.17 488.59,325.36 488.99,330.10 489.38,334.43 489.78,338.39 490.18,342.00 490.57,345.30 490.97,348.31 491.37,351.06 491.76,353.58 492.16,355.87 492.56,357.97 492.95,359.88 493.35,361.63 493.75,363.23 494.14,364.69 494.54,366.02 494.93,367.23 495.33,368.34 495.73,369.36 496.12,370.28 496.52,371.13 496.92,371.90 497.31,372.60 497.71,373.24 498.11,373.83 498.50,374.36 498.90,374.85 499.30,375.29 499.69,375.70 500.09,376.07 500.49,376.40 500.88,376.71 501.28,376.99 501.67,377.25 502.07,377.48 502.47,377.69 502.86,377.88 503.26,378.06 503.66,378.21 504.05,378.36 504.45,378.49 504.85,378.61 505.24,378.72 505.64,378.82 506.04,378.90 506.43,378.98 506.83,379.06 507.23,379.12 507.62,379.18 508.02,379.24 508.41,379.28 508.81,379.33 509.21,379.37 509.60,379.40 510.00,379.43 510.40,379.46 510.79,379.48 511.19,379.50 511.59,379.52 511.98,379.54 512.38,379.55 512.78,379.56 513.17,379.57 513.57,379.58 513.97,379.59 514.36,379.60 514.76,379.60 515.16,379.60 515.55,379.61 515.95,379.61 516.34,379.61 516.74,379.61 517.14,379.61 517.53,379.60 517.93,379.60 518.33,379.60 518.72,379.60 519.12,379.59 519.52,379.59 519.91,379.58 520.31,379.58 520.71,379.57 521.10,379.57 521.50,379.56 521.90,379.55 522.29,379.55 522.69,379.54 523.08,379.53 523.48,379.53 523.88,379.52 524.27,379.51 524.67,379.50 525.07,379.50 525.46,379.49 525.86,379.48 526.26,379.47 526.65,379.46 527.05,379.46 527.45,379.45 527.84,379.44 528.24,379.43 528.64,379.42 529.03,379.42 529.43,379.41 529.83,379.40 530.22,379.39 530.62,379.38 531.01,379.37 531.41,379.36 531.81,379.36 532.20,379.35 532.60,379.34 533.00,379.33 533.39,379.32 533.79,379.31 534.19,379.30 534.58,379.29 534.98,379.29 535.38,379.28 535.77,379.27 536.17,379.26 536.57,379.25 536.96,379.24 537.36,379.23 537.75,379.22 538.15,379.21 538.55,379.21 538.94,379.20 539.34,379.19 539.74,379.18 540.13,379.17 540.53,379.16 540.93,379.15 541.32,379.14 541.72,379.14 542.12,379.13 542.51,379.12 542.91,379.11 543.31,379.10 543.70,379.09 544.10,379.08 544.50,379.07 544.89,379.06 545.29,379.05 545.68,379.05 546.08,379.04 546.48,379.03 546.87,379.02 547.27,379.01 547.67,379.00 548.06,378.99 548.46,378.98 548.86,378.98 549.25,378.97 549.65,378.96 550.05,378.95 550.44,378.94 550.84,378.93 551.24,378.92 551.63,378.91 552.03,378.90 552.42,378.89 552.82,378.89 553.22,378.88 553.61,378.87 554.01,378.86 554.41,378.85 554.80,378.84 555.20,378.83 555.60,378.82 555.99,378.81 556.39,378.81 556.79,378.80 557.18,378.79 557.58,378.78 557.98,378.77 558.37,378.76 558.77,378.75 559.16,378.74 559.56,378.73 559.96,378.73 560.35,378.72 560.75,378.71 561.15,378.70 561.54,378.69 561.94,378.68 562.34,378.67 562.73,378.66 563.13,378.65 563.53,378.65 563.92,378.64 564.32,378.63 564.72,378.62 565.11,378.61 565.51,378.60 565.91,378.59 566.30,378.58 566.70,378.57 567.09,378.57 567.49,378.56 567.89,378.55 568.28,378.54 568.68,378.53 569.08,378.52 569.47,378.51 569.87,378.50 570.27,378.50 570.66,378.49 571.06,378.48 571.46,378.47 571.85,378.46 572.25,378.45 572.65,378.44 573.04,378.43 573.44,378.42 573.83,378.41 574.23,378.41 574.63,378.40 575.02,378.39 575.42,378.38 575.82,378.37 576.21,378.36 576.61,378.35 577.01,378.34 577.40,378.34 577.80,378.33 578.20,378.32 578.59,378.31 578.99,378.30 579.39,378.29 579.78,378.28 580.18,378.27 580.58,378.26 580.97,378.26 581.37,378.25 581.76,378.24 582.16,378.23 582.56,378.22 582.95,378.21 583.33,378.20 583.70,378.19 583.72,377.55 583.76,376.05 583.83,372.46 583.91,367.65 583.92,366.94 583.95,365.55 584.01,362.79 584.12,357.33 584.35,346.71 584.74,329.16 585.14,312.89 585.54,297.84 585.93,283.98 586.33,271.25 586.73,259.57 587.12,248.88 587.52,239.09 587.91,230.13 588.31,221.95 588.71,214.46 589.10,207.62 589.50,201.37 589.90,195.66 590.29,190.44 590.69,185.68 591.09,181.32 591.48,177.34 591.88,173.71 592.28,170.39 592.67,167.36 593.07,164.59 593.47,162.07 593.86,159.76 594.26,157.65 594.66,155.72 595.05,153.97 595.45,152.36 595.84,150.89 596.24,149.56 596.64,148.33 597.03,147.22 597.43,146.20 597.83,145.27 598.22,144.42 598.62,143.65 599.02,142.94 599.41,142.30 599.81,141.71 600.21,141.17 600.60,140.68 601.00,140.23 601.40,139.82 601.79,139.45 602.19,139.11 602.58,138.80 602.98,138.52 603.38,138.26 603.77,138.03 604.17,137.82 604.57,137.62 604.96,137.45 605.36,137.28 605.76,137.14 606.15,137.00 606.55,136.88 606.95,136.77 607.34,136.67 607.74,136.58 608.14,136.50 608.53,136.42 608.93,136.36 609.33,136.30 609.72,136.24 610.12,136.19 610.51,136.14 610.91,136.10 611.31,136.07 611.70,136.03 612.10,136.00 612.50,135.98 612.89,135.95 613.29,135.93 613.69,135.91 614.08,135.90 614.48,135.88 614.88,135.87 615.27,135.86 615.67,135.85 616.07,135.84 616.46,135.83 616.86,135.83 617.25,135.82 617.65,135.82 618.05,135.81 618.44,135.81 618.84,135.81 619.24,135.81 619.63,135.81 620.03,135.81 620.43,135.81 620.82,135.81 621.22,135.81 621.62,135.82 622.01,135.82 622.41,135.82 622.81,135.82 623.20,135.83 623.60,135.83 623.99,135.84 624.39,135.84 624.79,135.84 625.18,135.85 625.58,135.85 625.98,135.86 626.37,135.86 626.77,135.87 627.17,135.87 627.56,135.88 627.96,135.88 628.36,135.89 628.75,135.89 629.15,135.90 629.55,135.90 629.94,135.91 630.34,135.91 630.74,135.92 631.13,135.93 631.53,135.93 631.92,135.94 632.32,135.94 632.72,135.95 633.11,135.95 633.51,135.96 633.91,135.97 634.30,135.97 634.70,135.98 635.10,135.98 635.49,135.99 635.89,136.00 636.29,136.00 636.68,136.01 637.08,136.01 637.48,136.02 637.87,136.03 638.27,136.03 638.66,136.04 639.06,136.04 639.46,136.05 639.85,136.06 640.25,136.06 640.65,136.07 641.04,136.07 641.44,136.08 641.84,136.09 642.23,136.09 642.63,136.10 643.03,136.10 643.42,136.11 643.82,136.12 644.22,136.12 644.61,136.13 645.01,136.13 645.41,136.14 645.80,136.15 646.20,136.15 646.59,136.16 646.99,136.17 647.39,136.17 647.78,136.18 648.18,136.18 648.58,136.19 648.97,136.20 649.37,136.20 649.77,136.21 650.16,136.21 650.56,136.22 650.96,136.23 651.35,136.23 651.75,136.24 652.15,136.24 652.54,136.25 652.94,136.26 653.33,136.26 653.73,136.27 654.13,136.28 654.52,136.28 654.92,136.29 655.32,136.29 655.71,136.30 656.11,136.31 656.51,136.31 656.90,136.32 657.30,136.32 657.70,136.33 658.09,136.34 658.49,136.34 658.89,136.35 659.28,136.35 659.68,136.36 660.08,136.37 660.47,136.37 660.87,136.38 661.26,136.39 661.66,136.39 662.06,136.40 662.45,136.40 662.85,136.41 663.25,136.42 663.64,136.42 664.04,136.43 664.44,136.43 664.83,136.44 665.23,136.45 665.63,136.45 666.02,136.46 666.42,136.46 666.82,136.47 667.21,136.48 667.61,136.48 668.00,136.49 668.40,136.49 668.80,136.50 669.19,136.51 669.59,136.51 669.99,136.52 670.38,136.53 670.78,136.53 671.18,136.54 671.57,136.54 671.97,136.55 672.37,136.56 672.76,136.56 673.16,136.57 673.56,136.57 673.95,136.58 674.35,136.59 674.74,136.59 675.14,136.60 675.54,136.60 675.93,136.61 676.33,136.62 676.73,136.62 677.12,136.63 677.52,136.63 677.92,136.64 678.31,136.65 678.71,136.65 679.11,136.66 679.50,136.67 679.90,136.67 680.30,136.68 680.69,136.68 681.09,136.69 681.49,136.70 681.88,136.70 682.28,136.71 682.67,136.71 683.07,136.72 683.47,136.73 683.86,136.73 684.26,136.74 684.63,136.74 685.00,136.75 685.02,137.39 685.06,138.89 685.13,142.48 685.20,147.30 685.22,148.00 685.25,149.40 685.30,152.16 685.42,157.63 685.64,168.28 686.04,185.91 686.44,202.29 686.83,217.40 687.23,231.30 687.63,244.04 688.02,255.72 688.42,266.40 688.82,276.17 689.21,285.11 689.61,293.27 690.00,300.73 690.40,307.54 690.80,313.76 691.19,319.44 691.59,324.64 691.99,329.38 692.38,333.71 692.78,337.66 693.18,341.28 693.57,344.58 693.97,347.59 694.37,350.34 694.76,352.86 695.16,355.15 695.56,357.25 695.95,359.16 696.35,360.91 696.75,362.51 697.14,363.97 697.54,365.30 697.93,366.51 698.33,367.62 698.73,368.64 699.12,369.56 699.52,370.40 699.92,371.17 700.31,371.88 700.71,372.52 701.11,373.11 701.50,373.64 701.90,374.13 702.30,374.57 702.69,374.98 703.09,375.35 703.49,375.68 703.88,375.99 704.28,376.27 704.67,376.52 705.07,376.76 705.47,376.97 705.86,377.16 706.26,377.34 706.66,377.49 707.05,377.64 707.45,377.77 707.85,377.89 708.24,378.00 708.64,378.10 709.04,378.18 709.43,378.26 709.83,378.34 710.23,378.40 710.62,378.46 711.02,378.52 711.41,378.56 711.81,378.61 712.21,378.65 712.60,378.68 713.00,378.71 713.40,378.74 713.79,378.76 714.19,378.78 714.59,378.80 714.98,378.82 715.38,378.83 715.78,378.84 716.17,378.85 716.57,378.86 716.97,378.87 717.36,378.88 717.76,378.88 718.16,378.88 718.55,378.89 718.95,378.89 719.34,378.89 719.74,378.89 720.14,378.89 720.53,378.89 720.93,378.88 721.33,378.88 721.72,378.88 722.12,378.87 722.52,378.87 722.91,378.86 723.31,378.86 723.71,378.85 724.10,378.85 724.50,378.84 724.90,378.84 725.29,378.83 725.69,378.82 726.08,378.81 726.48,378.81 726.88,378.80 727.27,378.79 727.67,378.79 728.07,378.78 728.46,378.77 728.86,378.76 729.26,378.75 729.65,378.75 730.05,378.74 730.45,378.73 730.84,378.72 731.24,378.71 731.64,378.71 732.03,378.70 732.43,378.69 732.83,378.68 733.22,378.67 733.62,378.66 734.01,378.66 734.41,378.65 734.81,378.64 735.20,378.63 735.60,378.62 736.00,378.61 736.39,378.60 736.79,378.59 737.19,378.59 737.58,378.58 737.98,378.57 738.38,378.56 738.77,378.55 739.17,378.54 739.57,378.53 739.96,378.52 740.36,378.52 740.75,378.51 741.15,378.50 741.55,378.49 741.94,378.48 742.34,378.47 742.74,378.46 743.13,378.45 743.53,378.45 743.93,378.44 744.32,378.43 744.72,378.42 745.12,378.41 745.51,378.40 745.91,378.39 746.31,378.38 746.70,378.37 747.10,378.37 747.50,378.36 747.89,378.35 748.29,378.34 748.68,378.33 749.08,378.32 749.48,378.31 749.87,378.30 750.27,378.30 750.67,378.29 751.06,378.28 751.46,378.27 751.86,378.26 752.25,378.25 752.65,378.24 753.05,378.23 753.44,378.22 753.84,378.22 754.24,378.21 754.63,378.20 755.03,378.19 755.42,378.18 755.82,378.17 756.22,378.16 756.61,378.15 757.01,378.14 757.41,378.14 757.80,378.13 758.20,378.12 758.60,378.11 758.99,378.10 759.39,378.09 759.79,378.08 760.18,378.07 760.58,378.06 760.98,378.06 761.37,378.05 761.77,378.04 762.16,378.03 762.56,378.02 762.96,378.01 763.35,378.00 763.75,377.99 764.15,377.99 764.54,377.98 764.94,377.97 765.34,377.96 765.73,377.95 766.13,377.94 766.53,377.93 766.92,377.92 767.32,377.91 767.72,377.91 768.11,377.90 768.51,377.89 768.91,377.88 769.30,377.87 769.70,377.86 770.09,377.85 770.49,377.84 770.89,377.84 771.28,377.83 771.68,377.82 772.08,377.81 772.47,377.80 772.87,377.79 773.27,377.78 773.66,377.77 774.06,377.76 774.46,377.76 774.85,377.75 775.25,377.74 775.65,377.73 776.04,377.72 776.44,377.71 776.83,377.70 777.23,377.69 777.63,377.68 778.02,377.68 778.42,377.67 778.82,377.66 779.21,377.65 779.61,377.64 780.01,377.63 780.40,377.62 780.80,377.61 781.20,377.61 781.59,377.60 781.99,377.59 782.39,377.58 782.78,377.57 783.18,377.56 783.58,377.55 783.97,377.54 784.37,377.53 784.76,377.53 785.16,377.52 785.56,377.51 785.95,377.50 786.33,377.49 786.70,377.48 786.72,376.84 786.76,375.34 786.83,371.74 786.91,366.94 786.92,366.23 786.95,364.84 787.01,362.07 787.12,356.62 787.35,345.99 787.74,328.45 788.14,312.18 788.54,297.13 788.93,283.27 789.33,270.54 789.73,258.86 790.12,248.16 790.52,238.38 790.91,229.42 791.31,221.23 791.71,213.75 792.10,206.91 792.50,200.66 792.90,194.95 793.29,189.73 793.69,184.96 794.09,180.61 794.48,176.63 794.88,173.00 795.28,169.68 795.67,166.65 796.07,163.88 796.47,161.36 796.86,159.05 797.26,156.94 797.66,155.01 798.05,153.26 798.45,151.65 798.84,150.18 799.24,148.85 799.64,147.62 800.03,146.51 800.43,145.49 800.83,144.56 801.22,143.71 801.62,142.94 802.02,142.23 802.41,141.59 802.81,141.00 803.21,140.46 803.60,139.97 804.00,139.52 804.40,139.11 804.79,138.74 805.19,138.40 805.58,138.09 805.98,137.81 806.38,137.56 806.77,137.32 807.17,137.11 807.57,136.91 807.96,136.74 808.36,136.58 808.76,136.43 809.15,136.30 809.55,136.18 809.95,136.06 810.34,135.96 810.74,135.87 811.14,135.79 811.53,135.72 811.93,135.65 812.33,135.59 812.72,135.53 813.12,135.48 813.51,135.44 813.91,135.40 814.31,135.36 814.70,135.33 815.10,135.30 815.50,135.27 815.89,135.25 816.29,135.22 816.69,135.21 817.08,135.19 817.48,135.17 817.88,135.16 818.27,135.15 818.67,135.14 819.07,135.13 819.46,135.13 819.86,135.12 820.25,135.11 820.65,135.11 821.05,135.11 821.44,135.11 821.84,135.10 822.24,135.10 822.63,135.10 823.03,135.10 823.43,135.10 823.82,135.11 824.22,135.11 824.62,135.11 825.01,135.11 825.41,135.11 825.81,135.12 826.20,135.12 826.60,135.12 826.99,135.13 827.39,135.13 827.79,135.14 828.18,135.14 828.58,135.15 828.98,135.15 829.37,135.16 829.77,135.16 830.17,135.17 830.56,135.17 830.96,135.18 831.36,135.18 831.75,135.19 832.15,135.19 832.55,135.20 832.94,135.20 833.34,135.21 833.74,135.21 834.13,135.22 834.53,135.23 834.92,135.23 835.32,135.24 835.72,135.24 836.11,135.25 836.51,135.25 836.91,135.26 837.30,135.27 837.70,135.27 838.10,135.28 838.49,135.28 838.89,135.29 839.29,135.30 839.68,135.30 840.08,135.31 840.48,135.31 840.87,135.32 841.27,135.33 841.66,135.33 842.06,135.34 842.46,135.34 842.85,135.35 843.25,135.36 843.65,135.36 844.04,135.37 844.44,135.38 844.84,135.38 845.23,135.39 845.63,135.39 846.03,135.40 846.42,135.41 846.82,135.41 847.22,135.42 847.61,135.42 848.01,135.43 848.41,135.44 848.80,135.44 849.20,135.45 849.59,135.46 849.99,135.46 850.39,135.47 850.78,135.47 851.18,135.48 851.58,135.49 851.97,135.49 852.37,135.50 852.77,135.50 853.16,135.51 853.56,135.52 853.96,135.52 854.35,135.53 854.75,135.54 855.15,135.54 855.54,135.55 855.94,135.55 856.33,135.56 856.73,135.57 857.13,135.57 857.52,135.58 857.92,135.58 858.32,135.59 858.71,135.60 859.11,135.60 859.51,135.61 859.90,135.62 860.30,135.62 860.70,135.63 861.09,135.63 861.49,135.64 861.89,135.65 862.28,135.65 862.68,135.66 863.08,135.66 863.47,135.67 863.87,135.68 864.26,135.68 864.66,135.69 865.06,135.70 865.45,135.70 865.85,135.71 866.25,135.71 866.64,135.72 867.04,135.73 867.44,135.73 867.83,135.74 868.23,135.74 868.63,135.75 869.02,135.76 869.42,135.76 869.82,135.77 870.21,135.77 870.61,135.78 871.00,135.79 871.40,135.79 871.80,135.80 872.19,135.81 872.59,135.81 872.99,135.82 873.38,135.82 873.78,135.83 874.18,135.84 874.57,135.84 874.97,135.85 875.37,135.85 875.76,135.86 876.16,135.87 876.56,135.87 876.95,135.88 877.35,135.89 877.74,135.89 878.14,135.90 878.54,135.90 878.93,135.91 879.33,135.92 879.73,135.92 880.12,135.93 880.52,135.93 880.92,135.94 881.31,135.95 881.71,135.95 882.11,135.96 882.50,135.97 882.90,135.97 883.30,135.98 883.69,135.98 884.09,135.99 884.49,136.00 884.88,136.00 885.28,136.01 885.67,136.01 886.07,136.02 886.47,136.03 886.86,136.03 887.26,136.04 887.63,136.04" fill="none" stroke="#1665d8" stroke-width="3" stroke-linejoin="round"/>
<line x1="660" y1="88" x2="696" y2="88" stroke="#1665d8" stroke-width="3"/>
<text x="706" y="93" font-family="Arial, Helvetica, sans-serif" font-size="13" font-weight="400" text-anchor="start" fill="#111">load output</text>
<polyline points="76.00,381.12 76.02,356.49 76.06,307.25 76.13,221.07 76.20,134.88 76.22,134.88 76.25,134.88 76.30,134.88 76.42,134.88 76.64,134.88 77.04,134.88 77.44,134.88 77.83,134.88 78.23,134.88 78.63,134.88 79.02,134.88 79.42,134.88 79.82,134.88 80.21,134.88 80.61,134.88 81.00,134.88 81.40,134.88 81.80,134.88 82.19,134.88 82.59,134.88 82.99,134.88 83.38,134.88 83.78,134.88 84.18,134.88 84.57,134.88 84.97,134.88 85.37,134.88 85.76,134.88 86.16,134.88 86.56,134.88 86.95,134.88 87.35,134.88 87.75,134.88 88.14,134.88 88.54,134.88 88.93,134.88 89.33,134.88 89.73,134.88 90.12,134.88 90.52,134.88 90.92,134.88 91.31,134.88 91.71,134.88 92.11,134.88 92.50,134.88 92.90,134.88 93.30,134.88 93.69,134.88 94.09,134.88 94.49,134.88 94.88,134.88 95.28,134.88 95.67,134.88 96.07,134.88 96.47,134.88 96.86,134.88 97.26,134.88 97.66,134.88 98.05,134.88 98.45,134.88 98.85,134.88 99.24,134.88 99.64,134.88 100.04,134.88 100.43,134.88 100.83,134.88 101.23,134.88 101.62,134.88 102.02,134.88 102.41,134.88 102.81,134.88 103.21,134.88 103.60,134.88 104.00,134.88 104.40,134.88 104.79,134.88 105.19,134.88 105.59,134.88 105.98,134.88 106.38,134.88 106.78,134.88 107.17,134.88 107.57,134.88 107.97,134.88 108.36,134.88 108.76,134.88 109.16,134.88 109.55,134.88 109.95,134.88 110.34,134.88 110.74,134.88 111.14,134.88 111.53,134.88 111.93,134.88 112.33,134.88 112.72,134.88 113.12,134.88 113.52,134.88 113.91,134.88 114.31,134.88 114.71,134.88 115.10,134.88 115.50,134.88 115.90,134.88 116.29,134.88 116.69,134.88 117.08,134.88 117.48,134.88 117.88,134.88 118.27,134.88 118.67,134.88 119.07,134.88 119.46,134.88 119.86,134.88 120.26,134.88 120.65,134.88 121.05,134.88 121.45,134.88 121.84,134.88 122.24,134.88 122.64,134.88 123.03,134.88 123.43,134.88 123.83,134.88 124.22,134.88 124.62,134.88 125.01,134.88 125.41,134.88 125.81,134.88 126.20,134.88 126.60,134.88 127.00,134.88 127.39,134.88 127.79,134.88 128.19,134.88 128.58,134.88 128.98,134.88 129.38,134.88 129.77,134.88 130.17,134.88 130.57,134.88 130.96,134.88 131.36,134.88 131.75,134.88 132.15,134.88 132.55,134.88 132.94,134.88 133.34,134.88 133.74,134.88 134.13,134.88 134.53,134.88 134.93,134.88 135.32,134.88 135.72,134.88 136.12,134.88 136.51,134.88 136.91,134.88 137.31,134.88 137.70,134.88 138.10,134.88 138.50,134.88 138.89,134.88 139.29,134.88 139.68,134.88 140.08,134.88 140.48,134.88 140.87,134.88 141.27,134.88 141.67,134.88 142.06,134.88 142.46,134.88 142.86,134.88 143.25,134.88 143.65,134.88 144.05,134.88 144.44,134.88 144.84,134.88 145.24,134.88 145.63,134.88 146.03,134.88 146.42,134.88 146.82,134.88 147.22,134.88 147.61,134.88 148.01,134.88 148.41,134.88 148.80,134.88 149.20,134.88 149.60,134.88 149.99,134.88 150.39,134.88 150.79,134.88 151.18,134.88 151.58,134.88 151.98,134.88 152.37,134.88 152.77,134.88 153.16,134.88 153.56,134.88 153.96,134.88 154.35,134.88 154.75,134.88 155.15,134.88 155.54,134.88 155.94,134.88 156.34,134.88 156.73,134.88 157.13,134.88 157.53,134.88 157.92,134.88 158.32,134.88 158.72,134.88 159.11,134.88 159.51,134.88 159.91,134.88 160.30,134.88 160.70,134.88 161.09,134.88 161.49,134.88 161.89,134.88 162.28,134.88 162.68,134.88 163.08,134.88 163.47,134.88 163.87,134.88 164.27,134.88 164.66,134.88 165.06,134.88 165.46,134.88 165.85,134.88 166.25,134.88 166.65,134.88 167.04,134.88 167.44,134.88 167.83,134.88 168.23,134.88 168.63,134.88 169.02,134.88 169.42,134.88 169.82,134.88 170.21,134.88 170.61,134.88 171.01,134.88 171.40,134.88 171.80,134.88 172.20,134.88 172.59,134.88 172.99,134.88 173.39,134.88 173.78,134.88 174.18,134.88 174.58,134.88 174.97,134.88 175.37,134.88 175.76,134.88 176.16,134.88 176.56,134.88 176.95,134.88 177.33,134.88 177.70,134.88 177.72,159.51 177.76,208.75 177.83,294.93 177.91,381.12 177.92,381.12 177.95,381.12 178.01,381.12 178.12,381.12 178.35,381.12 178.74,381.12 179.14,381.12 179.54,381.12 179.93,381.12 180.33,381.12 180.73,381.12 181.12,381.12 181.52,381.12 181.91,381.12 182.31,381.12 182.71,381.12 183.10,381.12 183.50,381.12 183.90,381.12 184.29,381.12 184.69,381.12 185.09,381.12 185.48,381.12 185.88,381.12 186.28,381.12 186.67,381.12 187.07,381.12 187.47,381.12 187.86,381.12 188.26,381.12 188.66,381.12 189.05,381.12 189.45,381.12 189.84,381.12 190.24,381.12 190.64,381.12 191.03,381.12 191.43,381.12 191.83,381.12 192.22,381.12 192.62,381.12 193.02,381.12 193.41,381.12 193.81,381.12 194.21,381.12 194.60,381.12 195.00,381.12 195.40,381.12 195.79,381.12 196.19,381.12 196.58,381.12 196.98,381.12 197.38,381.12 197.77,381.12 198.17,381.12 198.57,381.12 198.96,381.12 199.36,381.12 199.76,381.12 200.15,381.12 200.55,381.12 200.95,381.12 201.34,381.12 201.74,381.12 202.14,381.12 202.53,381.12 202.93,381.12 203.33,381.12 203.72,381.12 204.12,381.12 204.51,381.12 204.91,381.12 205.31,381.12 205.70,381.12 206.10,381.12 206.50,381.12 206.89,381.12 207.29,381.12 207.69,381.12 208.08,381.12 208.48,381.12 208.88,381.12 209.27,381.12 209.67,381.12 210.07,381.12 210.46,381.12 210.86,381.12 211.25,381.12 211.65,381.12 212.05,381.12 212.44,381.12 212.84,381.12 213.24,381.12 213.63,381.12 214.03,381.12 214.43,381.12 214.82,381.12 215.22,381.12 215.62,381.12 216.01,381.12 216.41,381.12 216.81,381.12 217.20,381.12 217.60,381.12 217.99,381.12 218.39,381.12 218.79,381.12 219.18,381.12 219.58,381.12 219.98,381.12 220.37,381.12 220.77,381.12 221.17,381.12 221.56,381.12 221.96,381.12 222.36,381.12 222.75,381.12 223.15,381.12 223.55,381.12 223.94,381.12 224.34,381.12 224.74,381.12 225.13,381.12 225.53,381.12 225.92,381.12 226.32,381.12 226.72,381.12 227.11,381.12 227.51,381.12 227.91,381.12 228.30,381.12 228.70,381.12 229.10,381.12 229.49,381.12 229.89,381.12 230.29,381.12 230.68,381.12 231.08,381.12 231.48,381.12 231.87,381.12 232.27,381.12 232.66,381.12 233.06,381.12 233.46,381.12 233.85,381.12 234.25,381.12 234.65,381.12 235.04,381.12 235.44,381.12 235.84,381.12 236.23,381.12 236.63,381.12 237.03,381.12 237.42,381.12 237.82,381.12 238.22,381.12 238.61,381.12 239.01,381.12 239.41,381.12 239.80,381.12 240.20,381.12 240.59,381.12 240.99,381.12 241.39,381.12 241.78,381.12 242.18,381.12 242.58,381.12 242.97,381.12 243.37,381.12 243.77,381.12 244.16,381.12 244.56,381.12 244.96,381.12 245.35,381.12 245.75,381.12 246.15,381.12 246.54,381.12 246.94,381.12 247.33,381.12 247.73,381.12 248.13,381.12 248.52,381.12 248.92,381.12 249.32,381.12 249.71,381.12 250.11,381.12 250.51,381.12 250.90,381.12 251.30,381.12 251.70,381.12 252.09,381.12 252.49,381.12 252.89,381.12 253.28,381.12 253.68,381.12 254.08,381.12 254.47,381.12 254.87,381.12 255.26,381.12 255.66,381.12 256.06,381.12 256.45,381.12 256.85,381.12 257.25,381.12 257.64,381.12 258.04,381.12 258.44,381.12 258.83,381.12 259.23,381.12 259.63,381.12 260.02,381.12 260.42,381.12 260.82,381.12 261.21,381.12 261.61,381.12 262.00,381.12 262.40,381.12 262.80,381.12 263.19,381.12 263.59,381.12 263.99,381.12 264.38,381.12 264.78,381.12 265.18,381.12 265.57,381.12 265.97,381.12 266.37,381.12 266.76,381.12 267.16,381.12 267.56,381.12 267.95,381.12 268.35,381.12 268.74,381.12 269.14,381.12 269.54,381.12 269.93,381.12 270.33,381.12 270.73,381.12 271.12,381.12 271.52,381.12 271.92,381.12 272.31,381.12 272.71,381.12 273.11,381.12 273.50,381.12 273.90,381.12 274.30,381.12 274.69,381.12 275.09,381.12 275.49,381.12 275.88,381.12 276.28,381.12 276.67,381.12 277.07,381.12 277.47,381.12 277.86,381.12 278.26,381.12 278.63,381.12 279.00,381.12 279.02,356.49 279.06,307.25 279.13,221.07 279.20,134.88 279.22,134.88 279.25,134.88 279.30,134.88 279.42,134.88 279.64,134.88 280.04,134.88 280.44,134.88 280.83,134.88 281.23,134.88 281.63,134.88 282.02,134.88 282.42,134.88 282.82,134.88 283.21,134.88 283.61,134.88 284.00,134.88 284.40,134.88 284.80,134.88 285.19,134.88 285.59,134.88 285.99,134.88 286.38,134.88 286.78,134.88 287.18,134.88 287.57,134.88 287.97,134.88 288.37,134.88 288.76,134.88 289.16,134.88 289.56,134.88 289.95,134.88 290.35,134.88 290.75,134.88 291.14,134.88 291.54,134.88 291.93,134.88 292.33,134.88 292.73,134.88 293.12,134.88 293.52,134.88 293.92,134.88 294.31,134.88 294.71,134.88 295.11,134.88 295.50,134.88 295.90,134.88 296.30,134.88 296.69,134.88 297.09,134.88 297.49,134.88 297.88,134.88 298.28,134.88 298.67,134.88 299.07,134.88 299.47,134.88 299.86,134.88 300.26,134.88 300.66,134.88 301.05,134.88 301.45,134.88 301.85,134.88 302.24,134.88 302.64,134.88 303.04,134.88 303.43,134.88 303.83,134.88 304.23,134.88 304.62,134.88 305.02,134.88 305.41,134.88 305.81,134.88 306.21,134.88 306.60,134.88 307.00,134.88 307.40,134.88 307.79,134.88 308.19,134.88 308.59,134.88 308.98,134.88 309.38,134.88 309.78,134.88 310.17,134.88 310.57,134.88 310.97,134.88 311.36,134.88 311.76,134.88 312.16,134.88 312.55,134.88 312.95,134.88 313.34,134.88 313.74,134.88 314.14,134.88 314.53,134.88 314.93,134.88 315.33,134.88 315.72,134.88 316.12,134.88 316.52,134.88 316.91,134.88 317.31,134.88 317.71,134.88 318.10,134.88 318.50,134.88 318.90,134.88 319.29,134.88 319.69,134.88 320.08,134.88 320.48,134.88 320.88,134.88 321.27,134.88 321.67,134.88 322.07,134.88 322.46,134.88 322.86,134.88 323.26,134.88 323.65,134.88 324.05,134.88 324.45,134.88 324.84,134.88 325.24,134.88 325.64,134.88 326.03,134.88 326.43,134.88 326.83,134.88 327.22,134.88 327.62,134.88 328.01,134.88 328.41,134.88 328.81,134.88 329.20,134.88 329.60,134.88 330.00,134.88 330.39,134.88 330.79,134.88 331.19,134.88 331.58,134.88 331.98,134.88 332.38,134.88 332.77,134.88 333.17,134.88 333.57,134.88 333.96,134.88 334.36,134.88 334.75,134.88 335.15,134.88 335.55,134.88 335.94,134.88 336.34,134.88 336.74,134.88 337.13,134.88 337.53,134.88 337.93,134.88 338.32,134.88 338.72,134.88 339.12,134.88 339.51,134.88 339.91,134.88 340.31,134.88 340.70,134.88 341.10,134.88 341.50,134.88 341.89,134.88 342.29,134.88 342.68,134.88 343.08,134.88 343.48,134.88 343.87,134.88 344.27,134.88 344.67,134.88 345.06,134.88 345.46,134.88 345.86,134.88 346.25,134.88 346.65,134.88 347.05,134.88 347.44,134.88 347.84,134.88 348.24,134.88 348.63,134.88 349.03,134.88 349.42,134.88 349.82,134.88 350.22,134.88 350.61,134.88 351.01,134.88 351.41,134.88 351.80,134.88 352.20,134.88 352.60,134.88 352.99,134.88 353.39,134.88 353.79,134.88 354.18,134.88 354.58,134.88 354.98,134.88 355.37,134.88 355.77,134.88 356.16,134.88 356.56,134.88 356.96,134.88 357.35,134.88 357.75,134.88 358.15,134.88 358.54,134.88 358.94,134.88 359.34,134.88 359.73,134.88 360.13,134.88 360.53,134.88 360.92,134.88 361.32,134.88 361.72,134.88 362.11,134.88 362.51,134.88 362.91,134.88 363.30,134.88 363.70,134.88 364.09,134.88 364.49,134.88 364.89,134.88 365.28,134.88 365.68,134.88 366.08,134.88 366.47,134.88 366.87,134.88 367.27,134.88 367.66,134.88 368.06,134.88 368.46,134.88 368.85,134.88 369.25,134.88 369.65,134.88 370.04,134.88 370.44,134.88 370.83,134.88 371.23,134.88 371.63,134.88 372.02,134.88 372.42,134.88 372.82,134.88 373.21,134.88 373.61,134.88 374.01,134.88 374.40,134.88 374.80,134.88 375.20,134.88 375.59,134.88 375.99,134.88 376.39,134.88 376.78,134.88 377.18,134.88 377.58,134.88 377.97,134.88 378.37,134.88 378.76,134.88 379.16,134.88 379.56,134.88 379.95,134.88 380.33,134.88 380.70,134.88 380.72,159.51 380.76,208.75 380.83,294.93 380.91,381.12 380.92,381.12 380.95,381.12 381.01,381.12 381.12,381.12 381.35,381.12 381.74,381.12 382.14,381.12 382.54,381.12 382.93,381.12 383.33,381.12 383.73,381.12 384.12,381.12 384.52,381.12 384.91,381.12 385.31,381.12 385.71,381.12 386.10,381.12 386.50,381.12 386.90,381.12 387.29,381.12 387.69,381.12 388.09,381.12 388.48,381.12 388.88,381.12 389.28,381.12 389.67,381.12 390.07,381.12 390.47,381.12 390.86,381.12 391.26,381.12 391.66,381.12 392.05,381.12 392.45,381.12 392.84,381.12 393.24,381.12 393.64,381.12 394.03,381.12 394.43,381.12 394.83,381.12 395.22,381.12 395.62,381.12 396.02,381.12 396.41,381.12 396.81,381.12 397.21,381.12 397.60,381.12 398.00,381.12 398.40,381.12 398.79,381.12 399.19,381.12 399.58,381.12 399.98,381.12 400.38,381.12 400.77,381.12 401.17,381.12 401.57,381.12 401.96,381.12 402.36,381.12 402.76,381.12 403.15,381.12 403.55,381.12 403.95,381.12 404.34,381.12 404.74,381.12 405.14,381.12 405.53,381.12 405.93,381.12 406.33,381.12 406.72,381.12 407.12,381.12 407.51,381.12 407.91,381.12 408.31,381.12 408.70,381.12 409.10,381.12 409.50,381.12 409.89,381.12 410.29,381.12 410.69,381.12 411.08,381.12 411.48,381.12 411.88,381.12 412.27,381.12 412.67,381.12 413.07,381.12 413.46,381.12 413.86,381.12 414.25,381.12 414.65,381.12 415.05,381.12 415.44,381.12 415.84,381.12 416.24,381.12 416.63,381.12 417.03,381.12 417.43,381.12 417.82,381.12 418.22,381.12 418.62,381.12 419.01,381.12 419.41,381.12 419.81,381.12 420.20,381.12 420.60,381.12 420.99,381.12 421.39,381.12 421.79,381.12 422.18,381.12 422.58,381.12 422.98,381.12 423.37,381.12 423.77,381.12 424.17,381.12 424.56,381.12 424.96,381.12 425.36,381.12 425.75,381.12 426.15,381.12 426.55,381.12 426.94,381.12 427.34,381.12 427.74,381.12 428.13,381.12 428.53,381.12 428.92,381.12 429.32,381.12 429.72,381.12 430.11,381.12 430.51,381.12 430.91,381.12 431.30,381.12 431.70,381.12 432.10,381.12 432.49,381.12 432.89,381.12 433.29,381.12 433.68,381.12 434.08,381.12 434.48,381.12 434.87,381.12 435.27,381.12 435.66,381.12 436.06,381.12 436.46,381.12 436.85,381.12 437.25,381.12 437.65,381.12 438.04,381.12 438.44,381.12 438.84,381.12 439.23,381.12 439.63,381.12 440.03,381.12 440.42,381.12 440.82,381.12 441.22,381.12 441.61,381.12 442.01,381.12 442.41,381.12 442.80,381.12 443.20,381.12 443.59,381.12 443.99,381.12 444.39,381.12 444.78,381.12 445.18,381.12 445.58,381.12 445.97,381.12 446.37,381.12 446.77,381.12 447.16,381.12 447.56,381.12 447.96,381.12 448.35,381.12 448.75,381.12 449.15,381.12 449.54,381.12 449.94,381.12 450.33,381.12 450.73,381.12 451.13,381.12 451.52,381.12 451.92,381.12 452.32,381.12 452.71,381.12 453.11,381.12 453.51,381.12 453.90,381.12 454.30,381.12 454.70,381.12 455.09,381.12 455.49,381.12 455.89,381.12 456.28,381.12 456.68,381.12 457.08,381.12 457.47,381.12 457.87,381.12 458.26,381.12 458.66,381.12 459.06,381.12 459.45,381.12 459.85,381.12 460.25,381.12 460.64,381.12 461.04,381.12 461.44,381.12 461.83,381.12 462.23,381.12 462.63,381.12 463.02,381.12 463.42,381.12 463.82,381.12 464.21,381.12 464.61,381.12 465.00,381.12 465.40,381.12 465.80,381.12 466.19,381.12 466.59,381.12 466.99,381.12 467.38,381.12 467.78,381.12 468.18,381.12 468.57,381.12 468.97,381.12 469.37,381.12 469.76,381.12 470.16,381.12 470.56,381.12 470.95,381.12 471.35,381.12 471.74,381.12 472.14,381.12 472.54,381.12 472.93,381.12 473.33,381.12 473.73,381.12 474.12,381.12 474.52,381.12 474.92,381.12 475.31,381.12 475.71,381.12 476.11,381.12 476.50,381.12 476.90,381.12 477.30,381.12 477.69,381.12 478.09,381.12 478.49,381.12 478.88,381.12 479.28,381.12 479.67,381.12 480.07,381.12 480.47,381.12 480.86,381.12 481.26,381.12 481.63,381.12 482.00,381.12 482.02,356.49 482.06,307.25 482.13,221.07 482.20,134.88 482.22,134.88 482.25,134.88 482.30,134.88 482.42,134.88 482.64,134.88 483.04,134.88 483.44,134.88 483.83,134.88 484.23,134.88 484.63,134.88 485.02,134.88 485.42,134.88 485.82,134.88 486.21,134.88 486.61,134.88 487.00,134.88 487.40,134.88 487.80,134.88 488.19,134.88 488.59,134.88 488.99,134.88 489.38,134.88 489.78,134.88 490.18,134.88 490.57,134.88 490.97,134.88 491.37,134.88 491.76,134.88 492.16,134.88 492.56,134.88 492.95,134.88 493.35,134.88 493.75,134.88 494.14,134.88 494.54,134.88 494.93,134.88 495.33,134.88 495.73,134.88 496.12,134.88 496.52,134.88 496.92,134.88 497.31,134.88 497.71,134.88 498.11,134.88 498.50,134.88 498.90,134.88 499.30,134.88 499.69,134.88 500.09,134.88 500.49,134.88 500.88,134.88 501.28,134.88 501.67,134.88 502.07,134.88 502.47,134.88 502.86,134.88 503.26,134.88 503.66,134.88 504.05,134.88 504.45,134.88 504.85,134.88 505.24,134.88 505.64,134.88 506.04,134.88 506.43,134.88 506.83,134.88 507.23,134.88 507.62,134.88 508.02,134.88 508.41,134.88 508.81,134.88 509.21,134.88 509.60,134.88 510.00,134.88 510.40,134.88 510.79,134.88 511.19,134.88 511.59,134.88 511.98,134.88 512.38,134.88 512.78,134.88 513.17,134.88 513.57,134.88 513.97,134.88 514.36,134.88 514.76,134.88 515.16,134.88 515.55,134.88 515.95,134.88 516.34,134.88 516.74,134.88 517.14,134.88 517.53,134.88 517.93,134.88 518.33,134.88 518.72,134.88 519.12,134.88 519.52,134.88 519.91,134.88 520.31,134.88 520.71,134.88 521.10,134.88 521.50,134.88 521.90,134.88 522.29,134.88 522.69,134.88 523.08,134.88 523.48,134.88 523.88,134.88 524.27,134.88 524.67,134.88 525.07,134.88 525.46,134.88 525.86,134.88 526.26,134.88 526.65,134.88 527.05,134.88 527.45,134.88 527.84,134.88 528.24,134.88 528.64,134.88 529.03,134.88 529.43,134.88 529.83,134.88 530.22,134.88 530.62,134.88 531.01,134.88 531.41,134.88 531.81,134.88 532.20,134.88 532.60,134.88 533.00,134.88 533.39,134.88 533.79,134.88 534.19,134.88 534.58,134.88 534.98,134.88 535.38,134.88 535.77,134.88 536.17,134.88 536.57,134.88 536.96,134.88 537.36,134.88 537.75,134.88 538.15,134.88 538.55,134.88 538.94,134.88 539.34,134.88 539.74,134.88 540.13,134.88 540.53,134.88 540.93,134.88 541.32,134.88 541.72,134.88 542.12,134.88 542.51,134.88 542.91,134.88 543.31,134.88 543.70,134.88 544.10,134.88 544.50,134.88 544.89,134.88 545.29,134.88 545.68,134.88 546.08,134.88 546.48,134.88 546.87,134.88 547.27,134.88 547.67,134.88 548.06,134.88 548.46,134.88 548.86,134.88 549.25,134.88 549.65,134.88 550.05,134.88 550.44,134.88 550.84,134.88 551.24,134.88 551.63,134.88 552.03,134.88 552.42,134.88 552.82,134.88 553.22,134.88 553.61,134.88 554.01,134.88 554.41,134.88 554.80,134.88 555.20,134.88 555.60,134.88 555.99,134.88 556.39,134.88 556.79,134.88 557.18,134.88 557.58,134.88 557.98,134.88 558.37,134.88 558.77,134.88 559.16,134.88 559.56,134.88 559.96,134.88 560.35,134.88 560.75,134.88 561.15,134.88 561.54,134.88 561.94,134.88 562.34,134.88 562.73,134.88 563.13,134.88 563.53,134.88 563.92,134.88 564.32,134.88 564.72,134.88 565.11,134.88 565.51,134.88 565.91,134.88 566.30,134.88 566.70,134.88 567.09,134.88 567.49,134.88 567.89,134.88 568.28,134.88 568.68,134.88 569.08,134.88 569.47,134.88 569.87,134.88 570.27,134.88 570.66,134.88 571.06,134.88 571.46,134.88 571.85,134.88 572.25,134.88 572.65,134.88 573.04,134.88 573.44,134.88 573.83,134.88 574.23,134.88 574.63,134.88 575.02,134.88 575.42,134.88 575.82,134.88 576.21,134.88 576.61,134.88 577.01,134.88 577.40,134.88 577.80,134.88 578.20,134.88 578.59,134.88 578.99,134.88 579.39,134.88 579.78,134.88 580.18,134.88 580.58,134.88 580.97,134.88 581.37,134.88 581.76,134.88 582.16,134.88 582.56,134.88 582.95,134.88 583.33,134.88 583.70,134.88 583.72,159.51 583.76,208.75 583.83,294.93 583.91,381.12 583.92,381.12 583.95,381.12 584.01,381.12 584.12,381.12 584.35,381.12 584.74,381.12 585.14,381.12 585.54,381.12 585.93,381.12 586.33,381.12 586.73,381.12 587.12,381.12 587.52,381.12 587.91,381.12 588.31,381.12 588.71,381.12 589.10,381.12 589.50,381.12 589.90,381.12 590.29,381.12 590.69,381.12 591.09,381.12 591.48,381.12 591.88,381.12 592.28,381.12 592.67,381.12 593.07,381.12 593.47,381.12 593.86,381.12 594.26,381.12 594.66,381.12 595.05,381.12 595.45,381.12 595.84,381.12 596.24,381.12 596.64,381.12 597.03,381.12 597.43,381.12 597.83,381.12 598.22,381.12 598.62,381.12 599.02,381.12 599.41,381.12 599.81,381.12 600.21,381.12 600.60,381.12 601.00,381.12 601.40,381.12 601.79,381.12 602.19,381.12 602.58,381.12 602.98,381.12 603.38,381.12 603.77,381.12 604.17,381.12 604.57,381.12 604.96,381.12 605.36,381.12 605.76,381.12 606.15,381.12 606.55,381.12 606.95,381.12 607.34,381.12 607.74,381.12 608.14,381.12 608.53,381.12 608.93,381.12 609.33,381.12 609.72,381.12 610.12,381.12 610.51,381.12 610.91,381.12 611.31,381.12 611.70,381.12 612.10,381.12 612.50,381.12 612.89,381.12 613.29,381.12 613.69,381.12 614.08,381.12 614.48,381.12 614.88,381.12 615.27,381.12 615.67,381.12 616.07,381.12 616.46,381.12 616.86,381.12 617.25,381.12 617.65,381.12 618.05,381.12 618.44,381.12 618.84,381.12 619.24,381.12 619.63,381.12 620.03,381.12 620.43,381.12 620.82,381.12 621.22,381.12 621.62,381.12 622.01,381.12 622.41,381.12 622.81,381.12 623.20,381.12 623.60,381.12 623.99,381.12 624.39,381.12 624.79,381.12 625.18,381.12 625.58,381.12 625.98,381.12 626.37,381.12 626.77,381.12 627.17,381.12 627.56,381.12 627.96,381.12 628.36,381.12 628.75,381.12 629.15,381.12 629.55,381.12 629.94,381.12 630.34,381.12 630.74,381.12 631.13,381.12 631.53,381.12 631.92,381.12 632.32,381.12 632.72,381.12 633.11,381.12 633.51,381.12 633.91,381.12 634.30,381.12 634.70,381.12 635.10,381.12 635.49,381.12 635.89,381.12 636.29,381.12 636.68,381.12 637.08,381.12 637.48,381.12 637.87,381.12 638.27,381.12 638.66,381.12 639.06,381.12 639.46,381.12 639.85,381.12 640.25,381.12 640.65,381.12 641.04,381.12 641.44,381.12 641.84,381.12 642.23,381.12 642.63,381.12 643.03,381.12 643.42,381.12 643.82,381.12 644.22,381.12 644.61,381.12 645.01,381.12 645.41,381.12 645.80,381.12 646.20,381.12 646.59,381.12 646.99,381.12 647.39,381.12 647.78,381.12 648.18,381.12 648.58,381.12 648.97,381.12 649.37,381.12 649.77,381.12 650.16,381.12 650.56,381.12 650.96,381.12 651.35,381.12 651.75,381.12 652.15,381.12 652.54,381.12 652.94,381.12 653.33,381.12 653.73,381.12 654.13,381.12 654.52,381.12 654.92,381.12 655.32,381.12 655.71,381.12 656.11,381.12 656.51,381.12 656.90,381.12 657.30,381.12 657.70,381.12 658.09,381.12 658.49,381.12 658.89,381.12 659.28,381.12 659.68,381.12 660.08,381.12 660.47,381.12 660.87,381.12 661.26,381.12 661.66,381.12 662.06,381.12 662.45,381.12 662.85,381.12 663.25,381.12 663.64,381.12 664.04,381.12 664.44,381.12 664.83,381.12 665.23,381.12 665.63,381.12 666.02,381.12 666.42,381.12 666.82,381.12 667.21,381.12 667.61,381.12 668.00,381.12 668.40,381.12 668.80,381.12 669.19,381.12 669.59,381.12 669.99,381.12 670.38,381.12 670.78,381.12 671.18,381.12 671.57,381.12 671.97,381.12 672.37,381.12 672.76,381.12 673.16,381.12 673.56,381.12 673.95,381.12 674.35,381.12 674.74,381.12 675.14,381.12 675.54,381.12 675.93,381.12 676.33,381.12 676.73,381.12 677.12,381.12 677.52,381.12 677.92,381.12 678.31,381.12 678.71,381.12 679.11,381.12 679.50,381.12 679.90,381.12 680.30,381.12 680.69,381.12 681.09,381.12 681.49,381.12 681.88,381.12 682.28,381.12 682.67,381.12 683.07,381.12 683.47,381.12 683.86,381.12 684.26,381.12 684.63,381.12 685.00,381.12 685.02,356.49 685.06,307.25 685.13,221.07 685.20,134.88 685.22,134.88 685.25,134.88 685.30,134.88 685.42,134.88 685.64,134.88 686.04,134.88 686.44,134.88 686.83,134.88 687.23,134.88 687.63,134.88 688.02,134.88 688.42,134.88 688.82,134.88 689.21,134.88 689.61,134.88 690.00,134.88 690.40,134.88 690.80,134.88 691.19,134.88 691.59,134.88 691.99,134.88 692.38,134.88 692.78,134.88 693.18,134.88 693.57,134.88 693.97,134.88 694.37,134.88 694.76,134.88 695.16,134.88 695.56,134.88 695.95,134.88 696.35,134.88 696.75,134.88 697.14,134.88 697.54,134.88 697.93,134.88 698.33,134.88 698.73,134.88 699.12,134.88 699.52,134.88 699.92,134.88 700.31,134.88 700.71,134.88 701.11,134.88 701.50,134.88 701.90,134.88 702.30,134.88 702.69,134.88 703.09,134.88 703.49,134.88 703.88,134.88 704.28,134.88 704.67,134.88 705.07,134.88 705.47,134.88 705.86,134.88 706.26,134.88 706.66,134.88 707.05,134.88 707.45,134.88 707.85,134.88 708.24,134.88 708.64,134.88 709.04,134.88 709.43,134.88 709.83,134.88 710.23,134.88 710.62,134.88 711.02,134.88 711.41,134.88 711.81,134.88 712.21,134.88 712.60,134.88 713.00,134.88 713.40,134.88 713.79,134.88 714.19,134.88 714.59,134.88 714.98,134.88 715.38,134.88 715.78,134.88 716.17,134.88 716.57,134.88 716.97,134.88 717.36,134.88 717.76,134.88 718.16,134.88 718.55,134.88 718.95,134.88 719.34,134.88 719.74,134.88 720.14,134.88 720.53,134.88 720.93,134.88 721.33,134.88 721.72,134.88 722.12,134.88 722.52,134.88 722.91,134.88 723.31,134.88 723.71,134.88 724.10,134.88 724.50,134.88 724.90,134.88 725.29,134.88 725.69,134.88 726.08,134.88 726.48,134.88 726.88,134.88 727.27,134.88 727.67,134.88 728.07,134.88 728.46,134.88 728.86,134.88 729.26,134.88 729.65,134.88 730.05,134.88 730.45,134.88 730.84,134.88 731.24,134.88 731.64,134.88 732.03,134.88 732.43,134.88 732.83,134.88 733.22,134.88 733.62,134.88 734.01,134.88 734.41,134.88 734.81,134.88 735.20,134.88 735.60,134.88 736.00,134.88 736.39,134.88 736.79,134.88 737.19,134.88 737.58,134.88 737.98,134.88 738.38,134.88 738.77,134.88 739.17,134.88 739.57,134.88 739.96,134.88 740.36,134.88 740.75,134.88 741.15,134.88 741.55,134.88 741.94,134.88 742.34,134.88 742.74,134.88 743.13,134.88 743.53,134.88 743.93,134.88 744.32,134.88 744.72,134.88 745.12,134.88 745.51,134.88 745.91,134.88 746.31,134.88 746.70,134.88 747.10,134.88 747.50,134.88 747.89,134.88 748.29,134.88 748.68,134.88 749.08,134.88 749.48,134.88 749.87,134.88 750.27,134.88 750.67,134.88 751.06,134.88 751.46,134.88 751.86,134.88 752.25,134.88 752.65,134.88 753.05,134.88 753.44,134.88 753.84,134.88 754.24,134.88 754.63,134.88 755.03,134.88 755.42,134.88 755.82,134.88 756.22,134.88 756.61,134.88 757.01,134.88 757.41,134.88 757.80,134.88 758.20,134.88 758.60,134.88 758.99,134.88 759.39,134.88 759.79,134.88 760.18,134.88 760.58,134.88 760.98,134.88 761.37,134.88 761.77,134.88 762.16,134.88 762.56,134.88 762.96,134.88 763.35,134.88 763.75,134.88 764.15,134.88 764.54,134.88 764.94,134.88 765.34,134.88 765.73,134.88 766.13,134.88 766.53,134.88 766.92,134.88 767.32,134.88 767.72,134.88 768.11,134.88 768.51,134.88 768.91,134.88 769.30,134.88 769.70,134.88 770.09,134.88 770.49,134.88 770.89,134.88 771.28,134.88 771.68,134.88 772.08,134.88 772.47,134.88 772.87,134.88 773.27,134.88 773.66,134.88 774.06,134.88 774.46,134.88 774.85,134.88 775.25,134.88 775.65,134.88 776.04,134.88 776.44,134.88 776.83,134.88 777.23,134.88 777.63,134.88 778.02,134.88 778.42,134.88 778.82,134.88 779.21,134.88 779.61,134.88 780.01,134.88 780.40,134.88 780.80,134.88 781.20,134.88 781.59,134.88 781.99,134.88 782.39,134.88 782.78,134.88 783.18,134.88 783.58,134.88 783.97,134.88 784.37,134.88 784.76,134.88 785.16,134.88 785.56,134.88 785.95,134.88 786.33,134.88 786.70,134.88 786.72,159.51 786.76,208.75 786.83,294.93 786.91,381.12 786.92,381.12 786.95,381.12 787.01,381.12 787.12,381.12 787.35,381.12 787.74,381.12 788.14,381.12 788.54,381.12 788.93,381.12 789.33,381.12 789.73,381.12 790.12,381.12 790.52,381.12 790.91,381.12 791.31,381.12 791.71,381.12 792.10,381.12 792.50,381.12 792.90,381.12 793.29,381.12 793.69,381.12 794.09,381.12 794.48,381.12 794.88,381.12 795.28,381.12 795.67,381.12 796.07,381.12 796.47,381.12 796.86,381.12 797.26,381.12 797.66,381.12 798.05,381.12 798.45,381.12 798.84,381.12 799.24,381.12 799.64,381.12 800.03,381.12 800.43,381.12 800.83,381.12 801.22,381.12 801.62,381.12 802.02,381.12 802.41,381.12 802.81,381.12 803.21,381.12 803.60,381.12 804.00,381.12 804.40,381.12 804.79,381.12 805.19,381.12 805.58,381.12 805.98,381.12 806.38,381.12 806.77,381.12 807.17,381.12 807.57,381.12 807.96,381.12 808.36,381.12 808.76,381.12 809.15,381.12 809.55,381.12 809.95,381.12 810.34,381.12 810.74,381.12 811.14,381.12 811.53,381.12 811.93,381.12 812.33,381.12 812.72,381.12 813.12,381.12 813.51,381.12 813.91,381.12 814.31,381.12 814.70,381.12 815.10,381.12 815.50,381.12 815.89,381.12 816.29,381.12 816.69,381.12 817.08,381.12 817.48,381.12 817.88,381.12 818.27,381.12 818.67,381.12 819.07,381.12 819.46,381.12 819.86,381.12 820.25,381.12 820.65,381.12 821.05,381.12 821.44,381.12 821.84,381.12 822.24,381.12 822.63,381.12 823.03,381.12 823.43,381.12 823.82,381.12 824.22,381.12 824.62,381.12 825.01,381.12 825.41,381.12 825.81,381.12 826.20,381.12 826.60,381.12 826.99,381.12 827.39,381.12 827.79,381.12 828.18,381.12 828.58,381.12 828.98,381.12 829.37,381.12 829.77,381.12 830.17,381.12 830.56,381.12 830.96,381.12 831.36,381.12 831.75,381.12 832.15,381.12 832.55,381.12 832.94,381.12 833.34,381.12 833.74,381.12 834.13,381.12 834.53,381.12 834.92,381.12 835.32,381.12 835.72,381.12 836.11,381.12 836.51,381.12 836.91,381.12 837.30,381.12 837.70,381.12 838.10,381.12 838.49,381.12 838.89,381.12 839.29,381.12 839.68,381.12 840.08,381.12 840.48,381.12 840.87,381.12 841.27,381.12 841.66,381.12 842.06,381.12 842.46,381.12 842.85,381.12 843.25,381.12 843.65,381.12 844.04,381.12 844.44,381.12 844.84,381.12 845.23,381.12 845.63,381.12 846.03,381.12 846.42,381.12 846.82,381.12 847.22,381.12 847.61,381.12 848.01,381.12 848.41,381.12 848.80,381.12 849.20,381.12 849.59,381.12 849.99,381.12 850.39,381.12 850.78,381.12 851.18,381.12 851.58,381.12 851.97,381.12 852.37,381.12 852.77,381.12 853.16,381.12 853.56,381.12 853.96,381.12 854.35,381.12 854.75,381.12 855.15,381.12 855.54,381.12 855.94,381.12 856.33,381.12 856.73,381.12 857.13,381.12 857.52,381.12 857.92,381.12 858.32,381.12 858.71,381.12 859.11,381.12 859.51,381.12 859.90,381.12 860.30,381.12 860.70,381.12 861.09,381.12 861.49,381.12 861.89,381.12 862.28,381.12 862.68,381.12 863.08,381.12 863.47,381.12 863.87,381.12 864.26,381.12 864.66,381.12 865.06,381.12 865.45,381.12 865.85,381.12 866.25,381.12 866.64,381.12 867.04,381.12 867.44,381.12 867.83,381.12 868.23,381.12 868.63,381.12 869.02,381.12 869.42,381.12 869.82,381.12 870.21,381.12 870.61,381.12 871.00,381.12 871.40,381.12 871.80,381.12 872.19,381.12 872.59,381.12 872.99,381.12 873.38,381.12 873.78,381.12 874.18,381.12 874.57,381.12 874.97,381.12 875.37,381.12 875.76,381.12 876.16,381.12 876.56,381.12 876.95,381.12 877.35,381.12 877.74,381.12 878.14,381.12 878.54,381.12 878.93,381.12 879.33,381.12 879.73,381.12 880.12,381.12 880.52,381.12 880.92,381.12 881.31,381.12 881.71,381.12 882.11,381.12 882.50,381.12 882.90,381.12 883.30,381.12 883.69,381.12 884.09,381.12 884.49,381.12 884.88,381.12 885.28,381.12 885.67,381.12 886.07,381.12 886.47,381.12 886.86,381.12 887.26,381.12 887.63,381.12" fill="none" stroke="#b54708" stroke-width="3" stroke-linejoin="round"/>
<line x1="660" y1="114" x2="696" y2="114" stroke="#b54708" stroke-width="3"/>
<text x="706" y="119" font-family="Arial, Helvetica, sans-serif" font-size="13" font-weight="400" text-anchor="start" fill="#111">input x3.1</text>
<text x="460" y="502" font-family="Arial, Helvetica, sans-serif" font-size="14" font-weight="400" text-anchor="middle" fill="#111">Time after 60 ms settling, ms</text>
<text x="22" y="260" font-family="Arial, Helvetica, sans-serif" font-size="14" text-anchor="middle" fill="#111" transform="rotate(-90 22 260)">Voltage, V</text>
</svg>
