<svg xmlns="http://www.w3.org/2000/svg" width="920" height="520" viewBox="0 0 920 520">
<defs>
<style>
.wire{stroke:#111;stroke-width:2.6;fill:none;stroke-linecap:round;stroke-linejoin:round}
.thin{stroke:#a7b0bd;stroke-width:1.2;fill:none;stroke-linecap:round;stroke-linejoin:round}
.axis{stroke:#111;stroke-width:1.4;fill:none}
.blue{stroke:#1665d8;stroke-width:3;fill:none;stroke-linecap:round;stroke-linejoin:round}
.green{stroke:#13795b;stroke-width:3;fill:none;stroke-linecap:round;stroke-linejoin:round}
.orange{stroke:#b54708;stroke-width:3;fill:none;stroke-linecap:round;stroke-linejoin:round}
.node{fill:#111;stroke:none}
</style>
</defs>
<rect width="100%" height="100%" fill="#fff"/>
<text x="76" y="36" font-family="Arial, Helvetica, sans-serif" font-size="22" font-weight="700" text-anchor="start" fill="#111">Square-wave response, 10 kHz, Vin = 2.0 mVpp</text>
<rect x="76" y="60" width="812" height="396" fill="#fff" stroke="#111" stroke-width="1.4"/>
<line x1="76" y1="60" x2="76" y2="456" class="thin"/>
<text x="76" y="479" font-family="Arial, Helvetica, sans-serif" font-size="12" font-weight="400" text-anchor="middle" fill="#111">0</text>
<line x1="279" y1="60" x2="279" y2="456" class="thin"/>
<text x="279" y="479" font-family="Arial, Helvetica, sans-serif" font-size="12" font-weight="400" text-anchor="middle" fill="#111">0.1</text>
<line x1="482" y1="60" x2="482" y2="456" class="thin"/>
<text x="482" y="479" font-family="Arial, Helvetica, sans-serif" font-size="12" font-weight="400" text-anchor="middle" fill="#111">0.2</text>
<line x1="685" y1="60" x2="685" y2="456" class="thin"/>
<text x="685" y="479" font-family="Arial, Helvetica, sans-serif" font-size="12" font-weight="400" text-anchor="middle" fill="#111">0.3</text>
<line x1="888" y1="60" x2="888" y2="456" class="thin"/>
<text x="888" y="479" font-family="Arial, Helvetica, sans-serif" font-size="12" font-weight="400" text-anchor="middle" fill="#111">0.4</text>
<line x1="76" y1="456" x2="888" y2="456" class="thin"/>
<text x="66" y="460" font-family="Arial, Helvetica, sans-serif" font-size="12" font-weight="400" text-anchor="end" fill="#111">-0.25</text>
<line x1="76" y1="357" x2="888" y2="357" class="thin"/>
<text x="66" y="361" font-family="Arial, Helvetica, sans-serif" font-size="12" font-weight="400" text-anchor="end" fill="#111">-0.125</text>
<line x1="76" y1="258" x2="888" y2="258" class="thin"/>
<text x="66" y="262" font-family="Arial, Helvetica, sans-serif" font-size="12" font-weight="400" text-anchor="end" fill="#111">0</text>
<line x1="76" y1="159" x2="888" y2="159" class="thin"/>
<text x="66" y="163" font-family="Arial, Helvetica, sans-serif" font-size="12" font-weight="400" text-anchor="end" fill="#111">0.125</text>
<line x1="76" y1="60" x2="888" y2="60" class="thin"/>
<text x="66" y="64" font-family="Arial, Helvetica, sans-serif" font-size="12" font-weight="400" text-anchor="end" fill="#111">0.25</text>
<polyline points="76.00,227.85 76.04,227.87 76.12,227.92 76.28,228.05 76.59,228.36 76.99,228.86 77.39,229.48 77.71,230.08 78.03,230.75 78.07,230.81 78.15,230.92 78.31,231.13 78.62,231.57 79.02,232.10 79.42,232.63 79.81,233.16 80.21,233.69 80.61,234.20 81.00,234.72 81.40,235.23 81.80,235.74 82.19,236.25 82.59,236.75 82.99,237.24 83.38,237.74 83.78,238.23 84.18,238.71 84.57,239.19 84.97,239.67 85.36,240.15 85.76,240.62 86.16,241.08 86.55,241.55 86.95,242.01 87.35,242.46 87.74,242.91 88.14,243.36 88.54,243.81 88.93,244.25 89.33,244.68 89.73,245.12 90.12,245.55 90.52,245.98 90.92,246.40 91.31,246.82 91.71,247.23 92.11,247.65 92.50,248.06 92.90,248.46 93.29,248.86 93.69,249.26 94.09,249.66 94.48,250.05 94.88,250.44 95.28,250.82 95.67,251.21 96.07,251.59 96.47,251.96 96.86,252.33 97.26,252.70 97.66,253.07 98.05,253.43 98.45,253.79 98.85,254.15 99.24,254.50 99.64,254.85 100.03,255.20 100.43,255.54 100.83,255.88 101.22,256.22 101.62,256.56 102.02,256.89 102.41,257.22 102.81,257.55 103.21,257.87 103.60,258.19 104.00,258.51 104.40,258.82 104.79,259.14 105.19,259.45 105.59,259.75 105.98,260.06 106.38,260.36 106.78,260.66 107.17,260.95 107.57,261.25 107.96,261.54 108.36,261.82 108.76,262.11 109.15,262.39 109.55,262.67 109.95,262.95 110.34,263.23 110.74,263.50 111.14,263.77 111.53,264.04 111.93,264.30 112.33,264.56 112.72,264.83 113.12,265.08 113.52,265.34 113.91,265.59 114.31,265.84 114.70,266.09 115.10,266.34 115.50,266.58 115.89,266.83 116.29,267.07 116.69,267.30 117.08,267.54 117.48,267.77 117.88,268.00 118.27,268.23 118.67,268.46 119.07,268.69 119.46,268.91 119.86,269.13 120.26,269.35 120.65,269.56 121.05,269.78 121.45,269.99 121.84,270.20 122.24,270.41 122.63,270.62 123.03,270.82 123.43,271.03 123.82,271.23 124.22,271.43 124.62,271.63 125.01,271.82 125.41,272.01 125.81,272.21 126.20,272.40 126.60,272.59 127.00,272.77 127.39,272.96 127.79,273.14 128.19,273.32 128.58,273.50 128.98,273.68 129.37,273.86 129.77,274.03 130.17,274.20 130.56,274.38 130.96,274.55 131.36,274.71 131.75,274.88 132.15,275.05 132.55,275.21 132.94,275.37 133.34,275.53 133.74,275.69 134.13,275.85 134.53,276.01 134.93,276.16 135.32,276.31 135.72,276.47 136.11,276.62 136.51,276.76 136.91,276.91 137.30,277.06 137.70,277.20 138.10,277.35 138.49,277.49 138.89,277.63 139.29,277.77 139.68,277.91 140.08,278.04 140.48,278.18 140.87,278.31 141.27,278.45 141.67,278.58 142.06,278.71 142.46,278.84 142.86,278.96 143.25,279.09 143.65,279.22 144.04,279.34 144.44,279.46 144.84,279.59 145.23,279.71 145.63,279.83 146.03,279.94 146.42,280.06 146.82,280.18 147.22,280.29 147.61,280.41 148.01,280.52 148.41,280.63 148.80,280.74 149.20,280.85 149.60,280.96 149.99,281.07 150.39,281.17 150.78,281.28 151.18,281.38 151.58,281.49 151.97,281.59 152.37,281.69 152.77,281.79 153.16,281.89 153.56,281.99 153.96,282.09 154.35,282.19 154.75,282.28 155.15,282.38 155.54,282.47 155.94,282.56 156.34,282.65 156.73,282.75 157.13,282.84 157.53,282.93 157.92,283.01 158.32,283.10 158.71,283.19 159.11,283.27 159.51,283.36 159.90,283.44 160.30,283.53 160.70,283.61 161.09,283.69 161.49,283.77 161.89,283.85 162.28,283.93 162.68,284.01 163.08,284.09 163.47,284.17 163.87,284.24 164.27,284.32 164.66,284.39 165.06,284.47 165.45,284.54 165.85,284.61 166.25,284.69 166.64,284.76 167.04,284.83 167.44,284.90 167.83,284.97 168.23,285.04 168.63,285.10 169.02,285.17 169.42,285.24 169.82,285.30 170.21,285.37 170.61,285.43 171.01,285.50 171.40,285.56 171.80,285.62 172.20,285.69 172.59,285.75 172.99,285.81 173.38,285.87 173.78,285.93 174.18,285.99 174.57,286.05 174.97,286.10 175.37,286.16 175.76,286.22 176.16,286.27 176.56,286.33 176.95,286.38 177.35,286.44 177.75,286.49 178.14,286.55 178.54,286.60 178.94,286.65 179.23,286.69 179.53,286.73 179.57,286.71 179.65,286.65 179.81,286.51 180.12,286.18 180.52,285.66 180.92,285.03 181.24,284.43 181.56,283.77 181.60,283.71 181.68,283.60 181.84,283.38 182.15,282.95 182.55,282.41 182.95,281.88 183.34,281.35 183.74,280.82 184.14,280.30 184.53,279.78 184.93,279.27 185.33,278.76 185.72,278.25 186.12,277.75 186.52,277.25 186.91,276.76 187.31,276.27 187.71,275.78 188.10,275.30 188.50,274.82 188.89,274.34 189.29,273.87 189.69,273.40 190.08,272.94 190.48,272.48 190.88,272.02 191.27,271.57 191.67,271.12 192.07,270.68 192.46,270.23 192.86,269.80 193.26,269.36 193.65,268.93 194.05,268.50 194.45,268.08 194.84,267.66 195.24,267.24 195.64,266.83 196.03,266.42 196.43,266.01 196.82,265.61 197.22,265.21 197.62,264.81 198.01,264.42 198.41,264.03 198.81,263.64 199.20,263.26 199.60,262.88 200.00,262.50 200.39,262.13 200.79,261.76 201.19,261.39 201.58,261.02 201.98,260.66 202.38,260.31 202.77,259.95 203.17,259.60 203.56,259.25 203.96,258.90 204.36,258.56 204.75,258.22 205.15,257.88 205.55,257.55 205.94,257.22 206.34,256.89 206.74,256.57 207.13,256.24 207.53,255.92 207.93,255.61 208.32,255.29 208.72,254.98 209.12,254.67 209.51,254.37 209.91,254.06 210.31,253.76 210.70,253.46 211.10,253.17 211.49,252.88 211.89,252.59 212.29,252.30 212.68,252.01 213.08,251.73 213.48,251.45 213.87,251.17 214.27,250.90 214.67,250.63 215.06,250.36 215.46,250.09 215.86,249.82 216.25,249.56 216.65,249.30 217.05,249.04 217.44,248.78 217.84,248.53 218.23,248.28 218.63,248.03 219.03,247.78 219.42,247.54 219.82,247.30 220.22,247.06 220.61,246.82 221.01,246.58 221.41,246.35 221.80,246.12 222.20,245.89 222.60,245.66 222.99,245.43 223.39,245.21 223.79,244.99 224.18,244.77 224.58,244.55 224.98,244.34 225.37,244.12 225.77,243.91 226.16,243.70 226.56,243.49 226.96,243.29 227.35,243.08 227.75,242.88 228.15,242.68 228.54,242.48 228.94,242.29 229.34,242.09 229.73,241.90 230.13,241.71 230.53,241.52 230.92,241.33 231.32,241.15 231.72,240.96 232.11,240.78 232.51,240.60 232.90,240.42 233.30,240.24 233.70,240.07 234.09,239.89 234.49,239.72 234.89,239.55 235.28,239.38 235.68,239.21 236.08,239.04 236.47,238.88 236.87,238.72 237.27,238.55 237.66,238.39 238.06,238.23 238.46,238.08 238.85,237.92 239.25,237.77 239.64,237.61 240.04,237.46 240.44,237.31 240.83,237.16 241.23,237.02 241.63,236.87 242.02,236.73 242.42,236.58 242.82,236.44 243.21,236.30 243.61,236.16 244.01,236.02 244.40,235.89 244.80,235.75 245.20,235.62 245.59,235.48 245.99,235.35 246.39,235.22 246.78,235.09 247.18,234.97 247.57,234.84 247.97,234.71 248.37,234.59 248.76,234.47 249.16,234.34 249.56,234.22 249.95,234.10 250.35,233.99 250.75,233.87 251.14,233.75 251.54,233.64 251.94,233.52 252.33,233.41 252.73,233.30 253.13,233.19 253.52,233.08 253.92,232.97 254.31,232.86 254.71,232.75 255.11,232.65 255.50,232.54 255.90,232.44 256.30,232.34 256.69,232.23 257.09,232.13 257.49,232.03 257.88,231.94 258.28,231.84 258.68,231.74 259.07,231.64 259.47,231.55 259.87,231.46 260.26,231.36 260.66,231.27 261.06,231.18 261.45,231.09 261.85,231.00 262.24,230.91 262.64,230.82 263.04,230.73 263.43,230.65 263.83,230.56 264.23,230.48 264.62,230.39 265.02,230.31 265.42,230.23 265.81,230.15 266.21,230.07 266.61,229.99 267.00,229.91 267.40,229.83 267.80,229.75 268.19,229.68 268.59,229.60 268.98,229.52 269.38,229.45 269.78,229.38 270.17,229.30 270.57,229.23 270.97,229.16 271.36,229.09 271.76,229.02 272.16,228.95 272.55,228.88 272.95,228.81 273.35,228.74 273.74,228.68 274.14,228.61 274.54,228.55 274.93,228.48 275.33,228.42 275.73,228.35 276.12,228.29 276.52,228.23 276.91,228.17 277.31,228.10 277.71,228.04 278.10,227.98 278.50,227.93 278.75,227.89 279.00,227.85 279.04,227.87 279.12,227.93 279.28,228.05 279.59,228.37 279.99,228.87 280.39,229.48 280.71,230.08 281.03,230.75 281.07,230.81 281.15,230.92 281.31,231.14 281.62,231.57 282.02,232.10 282.42,232.63 282.81,233.16 283.21,233.69 283.61,234.21 284.00,234.72 284.40,235.23 284.80,235.74 285.19,236.25 285.59,236.75 285.99,237.24 286.38,237.74 286.78,238.23 287.18,238.71 287.57,239.19 287.97,239.67 288.36,240.15 288.76,240.62 289.16,241.08 289.55,241.55 289.95,242.01 290.35,242.46 290.74,242.91 291.14,243.36 291.54,243.81 291.93,244.25 292.33,244.69 292.73,245.12 293.12,245.55 293.52,245.98 293.92,246.40 294.31,246.82 294.71,247.23 295.11,247.65 295.50,248.06 295.90,248.46 296.29,248.86 296.69,249.26 297.09,249.66 297.48,250.05 297.88,250.44 298.28,250.82 298.67,251.21 299.07,251.59 299.47,251.96 299.86,252.33 300.26,252.70 300.66,253.07 301.05,253.43 301.45,253.79 301.85,254.15 302.24,254.50 302.64,254.85 303.03,255.20 303.43,255.54 303.83,255.88 304.22,256.22 304.62,256.56 305.02,256.89 305.41,257.22 305.81,257.55 306.21,257.87 306.60,258.19 307.00,258.51 307.40,258.82 307.79,259.14 308.19,259.45 308.59,259.75 308.98,260.06 309.38,260.36 309.78,260.66 310.17,260.95 310.57,261.25 310.96,261.54 311.36,261.82 311.76,262.11 312.15,262.39 312.55,262.67 312.95,262.95 313.34,263.23 313.74,263.50 314.14,263.77 314.53,264.04 314.93,264.30 315.33,264.57 315.72,264.83 316.12,265.08 316.52,265.34 316.91,265.59 317.31,265.84 317.70,266.09 318.10,266.34 318.50,266.58 318.89,266.83 319.29,267.07 319.69,267.30 320.08,267.54 320.48,267.77 320.88,268.00 321.27,268.23 321.67,268.46 322.07,268.69 322.46,268.91 322.86,269.13 323.26,269.35 323.65,269.57 324.05,269.78 324.45,269.99 324.84,270.20 325.24,270.41 325.63,270.62 326.03,270.82 326.43,271.03 326.82,271.23 327.22,271.43 327.62,271.63 328.01,271.82 328.41,272.02 328.81,272.21 329.20,272.40 329.60,272.59 330.00,272.77 330.39,272.96 330.79,273.14 331.19,273.32 331.58,273.50 331.98,273.68 332.37,273.86 332.77,274.03 333.17,274.21 333.56,274.38 333.96,274.55 334.36,274.72 334.75,274.88 335.15,275.05 335.55,275.21 335.94,275.37 336.34,275.53 336.74,275.69 337.13,275.85 337.53,276.01 337.93,276.16 338.32,276.31 338.72,276.47 339.11,276.62 339.51,276.77 339.91,276.91 340.30,277.06 340.70,277.20 341.10,277.35 341.49,277.49 341.89,277.63 342.29,277.77 342.68,277.91 343.08,278.04 343.48,278.18 343.87,278.31 344.27,278.45 344.67,278.58 345.06,278.71 345.46,278.84 345.86,278.97 346.25,279.09 346.65,279.22 347.04,279.34 347.44,279.46 347.84,279.59 348.23,279.71 348.63,279.83 349.03,279.95 349.42,280.06 349.82,280.18 350.22,280.29 350.61,280.41 351.01,280.52 351.41,280.63 351.80,280.74 352.20,280.85 352.60,280.96 352.99,281.07 353.39,281.18 353.78,281.28 354.18,281.39 354.58,281.49 354.97,281.59 355.37,281.69 355.77,281.79 356.16,281.89 356.56,281.99 356.96,282.09 357.35,282.19 357.75,282.28 358.15,282.38 358.54,282.47 358.94,282.56 359.34,282.66 359.73,282.75 360.13,282.84 360.53,282.93 360.92,283.01 361.32,283.10 361.71,283.19 362.11,283.28 362.51,283.36 362.90,283.44 363.30,283.53 363.70,283.61 364.09,283.69 364.49,283.77 364.89,283.85 365.28,283.93 365.68,284.01 366.08,284.09 366.47,284.17 366.87,284.24 367.27,284.32 367.66,284.39 368.06,284.47 368.45,284.54 368.85,284.62 369.25,284.69 369.64,284.76 370.04,284.83 370.44,284.90 370.83,284.97 371.23,285.04 371.63,285.11 372.02,285.17 372.42,285.24 372.82,285.30 373.21,285.37 373.61,285.43 374.01,285.50 374.40,285.56 374.80,285.62 375.20,285.69 375.59,285.75 375.99,285.81 376.38,285.87 376.78,285.93 377.18,285.99 377.57,286.05 377.97,286.10 378.37,286.16 378.76,286.22 379.16,286.27 379.56,286.33 379.95,286.38 380.35,286.44 380.75,286.49 381.14,286.55 381.54,286.60 381.94,286.65 382.23,286.69 382.53,286.73 382.57,286.71 382.65,286.65 382.81,286.51 383.12,286.18 383.52,285.66 383.92,285.03 384.24,284.44 384.56,283.77 384.60,283.71 384.68,283.60 384.84,283.38 385.15,282.95 385.55,282.41 385.95,281.88 386.34,281.35 386.74,280.82 387.14,280.30 387.53,279.78 387.93,279.27 388.33,278.76 388.72,278.25 389.12,277.75 389.52,277.25 389.91,276.76 390.31,276.27 390.71,275.78 391.10,275.30 391.50,274.82 391.89,274.34 392.29,273.87 392.69,273.40 393.08,272.94 393.48,272.48 393.88,272.02 394.27,271.57 394.67,271.12 395.07,270.68 395.46,270.23 395.86,269.80 396.26,269.36 396.65,268.93 397.05,268.50 397.45,268.08 397.84,267.66 398.24,267.24 398.64,266.83 399.03,266.42 399.43,266.01 399.82,265.61 400.22,265.21 400.62,264.81 401.01,264.42 401.41,264.03 401.81,263.64 402.20,263.26 402.60,262.88 403.00,262.50 403.39,262.13 403.79,261.76 404.19,261.39 404.58,261.03 404.98,260.66 405.38,260.31 405.77,259.95 406.17,259.60 406.56,259.25 406.96,258.90 407.36,258.56 407.75,258.22 408.15,257.89 408.55,257.55 408.94,257.22 409.34,256.89 409.74,256.57 410.13,256.24 410.53,255.92 410.93,255.61 411.32,255.29 411.72,254.98 412.12,254.67 412.51,254.37 412.91,254.06 413.31,253.76 413.70,253.46 414.10,253.17 414.49,252.88 414.89,252.59 415.29,252.30 415.68,252.01 416.08,251.73 416.48,251.45 416.87,251.17 417.27,250.90 417.67,250.63 418.06,250.36 418.46,250.09 418.86,249.82 419.25,249.56 419.65,249.30 420.05,249.04 420.44,248.79 420.84,248.53 421.23,248.28 421.63,248.03 422.03,247.78 422.42,247.54 422.82,247.30 423.22,247.06 423.61,246.82 424.01,246.58 424.41,246.35 424.80,246.12 425.20,245.89 425.60,245.66 425.99,245.43 426.39,245.21 426.79,244.99 427.18,244.77 427.58,244.55 427.98,244.34 428.37,244.12 428.77,243.91 429.16,243.70 429.56,243.50 429.96,243.29 430.35,243.09 430.75,242.88 431.15,242.68 431.54,242.48 431.94,242.29 432.34,242.09 432.73,241.90 433.13,241.71 433.53,241.52 433.92,241.33 434.32,241.15 434.72,240.96 435.11,240.78 435.51,240.60 435.90,240.42 436.30,240.24 436.70,240.07 437.09,239.89 437.49,239.72 437.89,239.55 438.28,239.38 438.68,239.21 439.08,239.04 439.47,238.88 439.87,238.72 440.27,238.55 440.66,238.39 441.06,238.24 441.46,238.08 441.85,237.92 442.25,237.77 442.64,237.61 443.04,237.46 443.44,237.31 443.83,237.16 444.23,237.02 444.63,236.87 445.02,236.73 445.42,236.58 445.82,236.44 446.21,236.30 446.61,236.16 447.01,236.02 447.40,235.89 447.80,235.75 448.20,235.62 448.59,235.49 448.99,235.35 449.39,235.22 449.78,235.09 450.18,234.97 450.57,234.84 450.97,234.71 451.37,234.59 451.76,234.47 452.16,234.34 452.56,234.22 452.95,234.10 453.35,233.99 453.75,233.87 454.14,233.75 454.54,233.64 454.94,233.52 455.33,233.41 455.73,233.30 456.13,233.19 456.52,233.08 456.92,232.97 457.31,232.86 457.71,232.75 458.11,232.65 458.50,232.54 458.90,232.44 459.30,232.34 459.69,232.24 460.09,232.13 460.49,232.04 460.88,231.94 461.28,231.84 461.68,231.74 462.07,231.65 462.47,231.55 462.87,231.46 463.26,231.36 463.66,231.27 464.06,231.18 464.45,231.09 464.85,231.00 465.24,230.91 465.64,230.82 466.04,230.74 466.43,230.65 466.83,230.56 467.23,230.48 467.62,230.39 468.02,230.31 468.42,230.23 468.81,230.15 469.21,230.07 469.61,229.99 470.00,229.91 470.40,229.83 470.80,229.75 471.19,229.68 471.59,229.60 471.98,229.53 472.38,229.45 472.78,229.38 473.17,229.30 473.57,229.23 473.97,229.16 474.36,229.09 474.76,229.02 475.16,228.95 475.55,228.88 475.95,228.81 476.35,228.74 476.74,228.68 477.14,228.61 477.54,228.55 477.93,228.48 478.33,228.42 478.73,228.35 479.12,228.29 479.52,228.23 479.91,228.17 480.31,228.11 480.71,228.05 481.10,227.99 481.50,227.93 481.75,227.89 482.00,227.85 482.04,227.87 482.12,227.93 482.28,228.06 482.59,228.37 482.99,228.87 483.39,229.48 483.71,230.08 484.03,230.75 484.07,230.81 484.15,230.92 484.31,231.14 484.62,231.57 485.02,232.10 485.42,232.63 485.81,233.16 486.21,233.69 486.61,234.21 487.00,234.72 487.40,235.23 487.80,235.74 488.19,236.25 488.59,236.75 488.99,237.25 489.38,237.74 489.78,238.23 490.18,238.71 490.57,239.20 490.97,239.67 491.36,240.15 491.76,240.62 492.16,241.08 492.55,241.55 492.95,242.01 493.35,242.46 493.74,242.91 494.14,243.36 494.54,243.81 494.93,244.25 495.33,244.69 495.73,245.12 496.12,245.55 496.52,245.98 496.92,246.40 497.31,246.82 497.71,247.23 498.11,247.65 498.50,248.06 498.90,248.46 499.29,248.86 499.69,249.26 500.09,249.66 500.48,250.05 500.88,250.44 501.28,250.83 501.67,251.21 502.07,251.59 502.47,251.96 502.86,252.33 503.26,252.70 503.66,253.07 504.05,253.43 504.45,253.79 504.85,254.15 505.24,254.50 505.64,254.85 506.03,255.20 506.43,255.54 506.83,255.89 507.22,256.22 507.62,256.56 508.02,256.89 508.41,257.22 508.81,257.55 509.21,257.87 509.60,258.19 510.00,258.51 510.40,258.82 510.79,259.14 511.19,259.45 511.59,259.75 511.98,260.06 512.38,260.36 512.78,260.66 513.17,260.95 513.57,261.25 513.96,261.54 514.36,261.82 514.76,262.11 515.15,262.39 515.55,262.67 515.95,262.95 516.34,263.23 516.74,263.50 517.14,263.77 517.53,264.04 517.93,264.30 518.33,264.57 518.72,264.83 519.12,265.08 519.52,265.34 519.91,265.59 520.31,265.85 520.70,266.09 521.10,266.34 521.50,266.59 521.89,266.83 522.29,267.07 522.69,267.31 523.08,267.54 523.48,267.77 523.88,268.01 524.27,268.23 524.67,268.46 525.07,268.69 525.46,268.91 525.86,269.13 526.26,269.35 526.65,269.57 527.05,269.78 527.45,269.99 527.84,270.20 528.24,270.41 528.63,270.62 529.03,270.83 529.43,271.03 529.82,271.23 530.22,271.43 530.62,271.63 531.01,271.82 531.41,272.02 531.81,272.21 532.20,272.40 532.60,272.59 533.00,272.77 533.39,272.96 533.79,273.14 534.19,273.32 534.58,273.50 534.98,273.68 535.37,273.86 535.77,274.03 536.17,274.21 536.56,274.38 536.96,274.55 537.36,274.72 537.75,274.88 538.15,275.05 538.55,275.21 538.94,275.37 539.34,275.53 539.74,275.69 540.13,275.85 540.53,276.01 540.93,276.16 541.32,276.32 541.72,276.47 542.11,276.62 542.51,276.77 542.91,276.91 543.30,277.06 543.70,277.20 544.10,277.35 544.49,277.49 544.89,277.63 545.29,277.77 545.68,277.91 546.08,278.04 546.48,278.18 546.87,278.31 547.27,278.45 547.67,278.58 548.06,278.71 548.46,278.84 548.86,278.97 549.25,279.09 549.65,279.22 550.04,279.34 550.44,279.47 550.84,279.59 551.23,279.71 551.63,279.83 552.03,279.95 552.42,280.06 552.82,280.18 553.22,280.29 553.61,280.41 554.01,280.52 554.41,280.63 554.80,280.74 555.20,280.85 555.60,280.96 555.99,281.07 556.39,281.18 556.78,281.28 557.18,281.39 557.58,281.49 557.97,281.59 558.37,281.69 558.77,281.79 559.16,281.89 559.56,281.99 559.96,282.09 560.35,282.19 560.75,282.28 561.15,282.38 561.54,282.47 561.94,282.56 562.34,282.66 562.73,282.75 563.13,282.84 563.53,282.93 563.92,283.02 564.32,283.10 564.71,283.19 565.11,283.28 565.51,283.36 565.90,283.45 566.30,283.53 566.70,283.61 567.09,283.69 567.49,283.77 567.89,283.86 568.28,283.93 568.68,284.01 569.08,284.09 569.47,284.17 569.87,284.24 570.27,284.32 570.66,284.40 571.06,284.47 571.45,284.54 571.85,284.62 572.25,284.69 572.64,284.76 573.04,284.83 573.44,284.90 573.83,284.97 574.23,285.04 574.63,285.11 575.02,285.17 575.42,285.24 575.82,285.31 576.21,285.37 576.61,285.44 577.01,285.50 577.40,285.56 577.80,285.63 578.20,285.69 578.59,285.75 578.99,285.81 579.38,285.87 579.78,285.93 580.18,285.99 580.57,286.05 580.97,286.10 581.37,286.16 581.76,286.22 582.16,286.27 582.56,286.33 582.95,286.38 583.35,286.44 583.75,286.49 584.14,286.55 584.54,286.60 584.94,286.65 585.23,286.69 585.53,286.73 585.57,286.71 585.65,286.65 585.81,286.51 586.12,286.18 586.52,285.66 586.92,285.03 587.24,284.44 587.56,283.77 587.60,283.71 587.68,283.60 587.84,283.38 588.15,282.95 588.55,282.41 588.95,281.88 589.34,281.35 589.74,280.82 590.14,280.30 590.53,279.78 590.93,279.27 591.33,278.76 591.72,278.25 592.12,277.75 592.52,277.25 592.91,276.76 593.31,276.27 593.71,275.78 594.10,275.30 594.50,274.82 594.89,274.34 595.29,273.87 595.69,273.40 596.08,272.94 596.48,272.48 596.88,272.02 597.27,271.57 597.67,271.12 598.07,270.68 598.46,270.24 598.86,269.80 599.26,269.36 599.65,268.93 600.05,268.50 600.45,268.08 600.84,267.66 601.24,267.24 601.64,266.83 602.03,266.42 602.43,266.01 602.82,265.61 603.22,265.21 603.62,264.81 604.01,264.42 604.41,264.03 604.81,263.64 605.20,263.26 605.60,262.88 606.00,262.50 606.39,262.13 606.79,261.76 607.19,261.39 607.58,261.03 607.98,260.66 608.38,260.31 608.77,259.95 609.17,259.60 609.56,259.25 609.96,258.91 610.36,258.56 610.75,258.22 611.15,257.89 611.55,257.55 611.94,257.22 612.34,256.89 612.74,256.57 613.13,256.24 613.53,255.92 613.93,255.61 614.32,255.29 614.72,254.98 615.12,254.67 615.51,254.37 615.91,254.06 616.31,253.76 616.70,253.47 617.10,253.17 617.49,252.88 617.89,252.59 618.29,252.30 618.68,252.01 619.08,251.73 619.48,251.45 619.87,251.17 620.27,250.90 620.67,250.63 621.06,250.36 621.46,250.09 621.86,249.82 622.25,249.56 622.65,249.30 623.05,249.04 623.44,248.79 623.84,248.53 624.23,248.28 624.63,248.03 625.03,247.78 625.42,247.54 625.82,247.30 626.22,247.06 626.61,246.82 627.01,246.58 627.41,246.35 627.80,246.12 628.20,245.89 628.60,245.66 628.99,245.44 629.39,245.21 629.79,244.99 630.18,244.77 630.58,244.55 630.98,244.34 631.37,244.12 631.77,243.91 632.16,243.70 632.56,243.50 632.96,243.29 633.35,243.09 633.75,242.88 634.15,242.68 634.54,242.49 634.94,242.29 635.34,242.09 635.73,241.90 636.13,241.71 636.53,241.52 636.92,241.33 637.32,241.15 637.72,240.96 638.11,240.78 638.51,240.60 638.90,240.42 639.30,240.24 639.70,240.07 640.09,239.89 640.49,239.72 640.89,239.55 641.28,239.38 641.68,239.21 642.08,239.04 642.47,238.88 642.87,238.72 643.27,238.56 643.66,238.39 644.06,238.24 644.46,238.08 644.85,237.92 645.25,237.77 645.64,237.62 646.04,237.46 646.44,237.31 646.83,237.17 647.23,237.02 647.63,236.87 648.02,236.73 648.42,236.58 648.82,236.44 649.21,236.30 649.61,236.16 650.01,236.02 650.40,235.89 650.80,235.75 651.20,235.62 651.59,235.49 651.99,235.35 652.39,235.22 652.78,235.09 653.18,234.97 653.57,234.84 653.97,234.71 654.37,234.59 654.76,234.47 655.16,234.35 655.56,234.22 655.95,234.10 656.35,233.99 656.75,233.87 657.14,233.75 657.54,233.64 657.94,233.52 658.33,233.41 658.73,233.30 659.13,233.19 659.52,233.08 659.92,232.97 660.31,232.86 660.71,232.75 661.11,232.65 661.50,232.54 661.90,232.44 662.30,232.34 662.69,232.24 663.09,232.14 663.49,232.04 663.88,231.94 664.28,231.84 664.68,231.74 665.07,231.65 665.47,231.55 665.87,231.46 666.26,231.36 666.66,231.27 667.06,231.18 667.45,231.09 667.85,231.00 668.24,230.91 668.64,230.82 669.04,230.74 669.43,230.65 669.83,230.56 670.23,230.48 670.62,230.40 671.02,230.31 671.42,230.23 671.81,230.15 672.21,230.07 672.61,229.99 673.00,229.91 673.40,229.83 673.80,229.75 674.19,229.68 674.59,229.60 674.98,229.53 675.38,229.45 675.78,229.38 676.17,229.30 676.57,229.23 676.97,229.16 677.36,229.09 677.76,229.02 678.16,228.95 678.55,228.88 678.95,228.81 679.35,228.75 679.74,228.68 680.14,228.61 680.54,228.55 680.93,228.48 681.33,228.42 681.73,228.35 682.12,228.29 682.52,228.23 682.91,228.17 683.31,228.11 683.71,228.05 684.10,227.99 684.50,227.93 684.75,227.89 685.00,227.85 685.04,227.87 685.12,227.93 685.28,228.06 685.59,228.37 685.99,228.87 686.39,229.49 686.71,230.08 687.03,230.75 687.07,230.81 687.15,230.92 687.31,231.14 687.62,231.57 688.02,232.10 688.42,232.64 688.81,233.16 689.21,233.69 689.61,234.21 690.00,234.72 690.40,235.23 690.80,235.74 691.19,236.25 691.59,236.75 691.99,237.25 692.38,237.74 692.78,238.23 693.18,238.71 693.57,239.20 693.97,239.67 694.36,240.15 694.76,240.62 695.16,241.09 695.55,241.55 695.95,242.01 696.35,242.46 696.74,242.92 697.14,243.36 697.54,243.81 697.93,244.25 698.33,244.69 698.73,245.12 699.12,245.55 699.52,245.98 699.92,246.40 700.31,246.82 700.71,247.24 701.11,247.65 701.50,248.06 701.90,248.46 702.29,248.87 702.69,249.26 703.09,249.66 703.48,250.05 703.88,250.44 704.28,250.83 704.67,251.21 705.07,251.59 705.47,251.96 705.86,252.34 706.26,252.70 706.66,253.07 707.05,253.43 707.45,253.79 707.85,254.15 708.24,254.50 708.64,254.85 709.03,255.20 709.43,255.54 709.83,255.89 710.22,256.22 710.62,256.56 711.02,256.89 711.41,257.22 711.81,257.55 712.21,257.87 712.60,258.19 713.00,258.51 713.40,258.83 713.79,259.14 714.19,259.45 714.59,259.75 714.98,260.06 715.38,260.36 715.78,260.66 716.17,260.95 716.57,261.25 716.96,261.54 717.36,261.83 717.76,262.11 718.15,262.39 718.55,262.67 718.95,262.95 719.34,263.23 719.74,263.50 720.14,263.77 720.53,264.04 720.93,264.30 721.33,264.57 721.72,264.83 722.12,265.09 722.52,265.34 722.91,265.59 723.31,265.85 723.70,266.09 724.10,266.34 724.50,266.59 724.89,266.83 725.29,267.07 725.69,267.31 726.08,267.54 726.48,267.77 726.88,268.01 727.27,268.24 727.67,268.46 728.07,268.69 728.46,268.91 728.86,269.13 729.26,269.35 729.65,269.57 730.05,269.78 730.45,269.99 730.84,270.20 731.24,270.41 731.63,270.62 732.03,270.83 732.43,271.03 732.82,271.23 733.22,271.43 733.62,271.63 734.01,271.82 734.41,272.02 734.81,272.21 735.20,272.40 735.60,272.59 736.00,272.77 736.39,272.96 736.79,273.14 737.19,273.32 737.58,273.50 737.98,273.68 738.37,273.86 738.77,274.03 739.17,274.21 739.56,274.38 739.96,274.55 740.36,274.72 740.75,274.88 741.15,275.05 741.55,275.21 741.94,275.37 742.34,275.53 742.74,275.69 743.13,275.85 743.53,276.01 743.93,276.16 744.32,276.32 744.72,276.47 745.11,276.62 745.51,276.77 745.91,276.91 746.30,277.06 746.70,277.21 747.10,277.35 747.49,277.49 747.89,277.63 748.29,277.77 748.68,277.91 749.08,278.05 749.48,278.18 749.87,278.31 750.27,278.45 750.67,278.58 751.06,278.71 751.46,278.84 751.86,278.97 752.25,279.09 752.65,279.22 753.04,279.34 753.44,279.47 753.84,279.59 754.23,279.71 754.63,279.83 755.03,279.95 755.42,280.06 755.82,280.18 756.22,280.29 756.61,280.41 757.01,280.52 757.41,280.63 757.80,280.74 758.20,280.85 758.60,280.96 758.99,281.07 759.39,281.18 759.78,281.28 760.18,281.39 760.58,281.49 760.97,281.59 761.37,281.69 761.77,281.79 762.16,281.89 762.56,281.99 762.96,282.09 763.35,282.19 763.75,282.28 764.15,282.38 764.54,282.47 764.94,282.56 765.34,282.66 765.73,282.75 766.13,282.84 766.53,282.93 766.92,283.02 767.32,283.10 767.71,283.19 768.11,283.28 768.51,283.36 768.90,283.45 769.30,283.53 769.70,283.61 770.09,283.69 770.49,283.78 770.89,283.86 771.28,283.94 771.68,284.01 772.08,284.09 772.47,284.17 772.87,284.25 773.27,284.32 773.66,284.40 774.06,284.47 774.45,284.54 774.85,284.62 775.25,284.69 775.64,284.76 776.04,284.83 776.44,284.90 776.83,284.97 777.23,285.04 777.63,285.11 778.02,285.17 778.42,285.24 778.82,285.31 779.21,285.37 779.61,285.44 780.01,285.50 780.40,285.56 780.80,285.63 781.20,285.69 781.59,285.75 781.99,285.81 782.38,285.87 782.78,285.93 783.18,285.99 783.57,286.05 783.97,286.10 784.37,286.16 784.76,286.22 785.16,286.27 785.56,286.33 785.95,286.39 786.35,286.44 786.75,286.49 787.14,286.55 787.54,286.60 787.94,286.65 788.23,286.69 788.53,286.73 788.57,286.71 788.65,286.65 788.81,286.51 789.12,286.18 789.52,285.66 789.92,285.03 790.24,284.44 790.56,283.77 790.60,283.71 790.68,283.60 790.84,283.38 791.15,282.95 791.55,282.41 791.95,281.88 792.34,281.35 792.74,280.82 793.14,280.30 793.53,279.78 793.93,279.27 794.33,278.76 794.72,278.25 795.12,277.75 795.52,277.25 795.91,276.76 796.31,276.27 796.71,275.78 797.10,275.30 797.50,274.82 797.89,274.34 798.29,273.87 798.69,273.41 799.08,272.94 799.48,272.48 799.88,272.02 800.27,271.57 800.67,271.12 801.07,270.68 801.46,270.24 801.86,269.80 802.26,269.36 802.65,268.93 803.05,268.50 803.45,268.08 803.84,267.66 804.24,267.24 804.64,266.83 805.03,266.42 805.43,266.01 805.82,265.61 806.22,265.21 806.62,264.81 807.01,264.42 807.41,264.03 807.81,263.64 808.20,263.26 808.60,262.88 809.00,262.50 809.39,262.13 809.79,261.76 810.19,261.39 810.58,261.03 810.98,260.67 811.38,260.31 811.77,259.95 812.17,259.60 812.56,259.25 812.96,258.91 813.36,258.56 813.75,258.22 814.15,257.89 814.55,257.55 814.94,257.22 815.34,256.89 815.74,256.57 816.13,256.24 816.53,255.93 816.93,255.61 817.32,255.29 817.72,254.98 818.12,254.67 818.51,254.37 818.91,254.06 819.31,253.76 819.70,253.47 820.10,253.17 820.49,252.88 820.89,252.59 821.29,252.30 821.68,252.02 822.08,251.73 822.48,251.45 822.87,251.18 823.27,250.90 823.67,250.63 824.06,250.36 824.46,250.09 824.86,249.82 825.25,249.56 825.65,249.30 826.05,249.04 826.44,248.79 826.84,248.53 827.23,248.28 827.63,248.03 828.03,247.79 828.42,247.54 828.82,247.30 829.22,247.06 829.61,246.82 830.01,246.58 830.41,246.35 830.80,246.12 831.20,245.89 831.60,245.66 831.99,245.44 832.39,245.21 832.79,244.99 833.18,244.77 833.58,244.55 833.98,244.34 834.37,244.13 834.77,243.91 835.16,243.70 835.56,243.50 835.96,243.29 836.35,243.09 836.75,242.88 837.15,242.68 837.54,242.49 837.94,242.29 838.34,242.09 838.73,241.90 839.13,241.71 839.53,241.52 839.92,241.33 840.32,241.15 840.72,240.96 841.11,240.78 841.51,240.60 841.90,240.42 842.30,240.24 842.70,240.07 843.09,239.89 843.49,239.72 843.89,239.55 844.28,239.38 844.68,239.21 845.08,239.05 845.47,238.88 845.87,238.72 846.27,238.56 846.66,238.40 847.06,238.24 847.46,238.08 847.85,237.92 848.25,237.77 848.64,237.62 849.04,237.46 849.44,237.31 849.83,237.17 850.23,237.02 850.63,236.87 851.02,236.73 851.42,236.58 851.82,236.44 852.21,236.30 852.61,236.16 853.01,236.03 853.40,235.89 853.80,235.75 854.20,235.62 854.59,235.49 854.99,235.35 855.39,235.22 855.78,235.10 856.18,234.97 856.57,234.84 856.97,234.72 857.37,234.59 857.76,234.47 858.16,234.35 858.56,234.23 858.95,234.11 859.35,233.99 859.75,233.87 860.14,233.75 860.54,233.64 860.94,233.52 861.33,233.41 861.73,233.30 862.13,233.19 862.52,233.08 862.92,232.97 863.31,232.86 863.71,232.76 864.11,232.65 864.50,232.54 864.90,232.44 865.30,232.34 865.69,232.24 866.09,232.14 866.49,232.04 866.88,231.94 867.28,231.84 867.68,231.74 868.07,231.65 868.47,231.55 868.87,231.46 869.26,231.36 869.66,231.27 870.06,231.18 870.45,231.09 870.85,231.00 871.24,230.91 871.64,230.82 872.04,230.74 872.43,230.65 872.83,230.56 873.23,230.48 873.62,230.40 874.02,230.31 874.42,230.23 874.81,230.15 875.21,230.07 875.61,229.99 876.00,229.91 876.40,229.83 876.80,229.75 877.19,229.68 877.59,229.60 877.98,229.53 878.38,229.45 878.78,229.38 879.17,229.31 879.57,229.23 879.97,229.16 880.36,229.09 880.76,229.02 881.16,228.95 881.55,228.88 881.95,228.81 882.35,228.75 882.74,228.68 883.14,228.61 883.54,228.55 883.93,228.48 884.33,228.42 884.73,228.35 885.12,228.29 885.52,228.23 885.91,228.17 886.31,228.11 886.71,228.05 887.10,227.99 887.50,227.93 887.75,227.89" fill="none" stroke="#1665d8" stroke-width="3" stroke-linejoin="round"/>
<line x1="660" y1="88" x2="696" y2="88" stroke="#1665d8" stroke-width="3"/>
<text x="706" y="93" font-family="Arial, Helvetica, sans-serif" font-size="13" font-weight="400" text-anchor="start" fill="#111">load output</text>
<polyline points="76.00,297.60 76.04,296.05 76.12,292.96 76.28,286.77 76.59,274.40 76.99,258.93 77.39,243.46 77.71,230.93 78.03,218.40 78.07,218.40 78.15,218.40 78.31,218.40 78.62,218.40 79.02,218.40 79.42,218.40 79.81,218.40 80.21,218.40 80.61,218.40 81.00,218.40 81.40,218.40 81.80,218.40 82.19,218.40 82.59,218.40 82.99,218.40 83.38,218.40 83.78,218.40 84.18,218.40 84.57,218.40 84.97,218.40 85.36,218.40 85.76,218.40 86.16,218.40 86.55,218.40 86.95,218.40 87.35,218.40 87.74,218.40 88.14,218.40 88.54,218.40 88.93,218.40 89.33,218.40 89.73,218.40 90.12,218.40 90.52,218.40 90.92,218.40 91.31,218.40 91.71,218.40 92.11,218.40 92.50,218.40 92.90,218.40 93.29,218.40 93.69,218.40 94.09,218.40 94.48,218.40 94.88,218.40 95.28,218.40 95.67,218.40 96.07,218.40 96.47,218.40 96.86,218.40 97.26,218.40 97.66,218.40 98.05,218.40 98.45,218.40 98.85,218.40 99.24,218.40 99.64,218.40 100.03,218.40 100.43,218.40 100.83,218.40 101.22,218.40 101.62,218.40 102.02,218.40 102.41,218.40 102.81,218.40 103.21,218.40 103.60,218.40 104.00,218.40 104.40,218.40 104.79,218.40 105.19,218.40 105.59,218.40 105.98,218.40 106.38,218.40 106.78,218.40 107.17,218.40 107.57,218.40 107.96,218.40 108.36,218.40 108.76,218.40 109.15,218.40 109.55,218.40 109.95,218.40 110.34,218.40 110.74,218.40 111.14,218.40 111.53,218.40 111.93,218.40 112.33,218.40 112.72,218.40 113.12,218.40 113.52,218.40 113.91,218.40 114.31,218.40 114.70,218.40 115.10,218.40 115.50,218.40 115.89,218.40 116.29,218.40 116.69,218.40 117.08,218.40 117.48,218.40 117.88,218.40 118.27,218.40 118.67,218.40 119.07,218.40 119.46,218.40 119.86,218.40 120.26,218.40 120.65,218.40 121.05,218.40 121.45,218.40 121.84,218.40 122.24,218.40 122.63,218.40 123.03,218.40 123.43,218.40 123.82,218.40 124.22,218.40 124.62,218.40 125.01,218.40 125.41,218.40 125.81,218.40 126.20,218.40 126.60,218.40 127.00,218.40 127.39,218.40 127.79,218.40 128.19,218.40 128.58,218.40 128.98,218.40 129.37,218.40 129.77,218.40 130.17,218.40 130.56,218.40 130.96,218.40 131.36,218.40 131.75,218.40 132.15,218.40 132.55,218.40 132.94,218.40 133.34,218.40 133.74,218.40 134.13,218.40 134.53,218.40 134.93,218.40 135.32,218.40 135.72,218.40 136.11,218.40 136.51,218.40 136.91,218.40 137.30,218.40 137.70,218.40 138.10,218.40 138.49,218.40 138.89,218.40 139.29,218.40 139.68,218.40 140.08,218.40 140.48,218.40 140.87,218.40 141.27,218.40 141.67,218.40 142.06,218.40 142.46,218.40 142.86,218.40 143.25,218.40 143.65,218.40 144.04,218.40 144.44,218.40 144.84,218.40 145.23,218.40 145.63,218.40 146.03,218.40 146.42,218.40 146.82,218.40 147.22,218.40 147.61,218.40 148.01,218.40 148.41,218.40 148.80,218.40 149.20,218.40 149.60,218.40 149.99,218.40 150.39,218.40 150.78,218.40 151.18,218.40 151.58,218.40 151.97,218.40 152.37,218.40 152.77,218.40 153.16,218.40 153.56,218.40 153.96,218.40 154.35,218.40 154.75,218.40 155.15,218.40 155.54,218.40 155.94,218.40 156.34,218.40 156.73,218.40 157.13,218.40 157.53,218.40 157.92,218.40 158.32,218.40 158.71,218.40 159.11,218.40 159.51,218.40 159.90,218.40 160.30,218.40 160.70,218.40 161.09,218.40 161.49,218.40 161.89,218.40 162.28,218.40 162.68,218.40 163.08,218.40 163.47,218.40 163.87,218.40 164.27,218.40 164.66,218.40 165.06,218.40 165.45,218.40 165.85,218.40 166.25,218.40 166.64,218.40 167.04,218.40 167.44,218.40 167.83,218.40 168.23,218.40 168.63,218.40 169.02,218.40 169.42,218.40 169.82,218.40 170.21,218.40 170.61,218.40 171.01,218.40 171.40,218.40 171.80,218.40 172.20,218.40 172.59,218.40 172.99,218.40 173.38,218.40 173.78,218.40 174.18,218.40 174.57,218.40 174.97,218.40 175.37,218.40 175.76,218.40 176.16,218.40 176.56,218.40 176.95,218.40 177.35,218.40 177.75,218.40 178.14,218.40 178.54,218.40 178.94,218.40 179.23,218.40 179.53,218.40 179.57,219.95 179.65,223.04 179.81,229.23 180.12,241.60 180.52,257.07 180.92,272.54 181.24,285.07 181.56,297.60 181.60,297.60 181.68,297.60 181.84,297.60 182.15,297.60 182.55,297.60 182.95,297.60 183.34,297.60 183.74,297.60 184.14,297.60 184.53,297.60 184.93,297.60 185.33,297.60 185.72,297.60 186.12,297.60 186.52,297.60 186.91,297.60 187.31,297.60 187.71,297.60 188.10,297.60 188.50,297.60 188.89,297.60 189.29,297.60 189.69,297.60 190.08,297.60 190.48,297.60 190.88,297.60 191.27,297.60 191.67,297.60 192.07,297.60 192.46,297.60 192.86,297.60 193.26,297.60 193.65,297.60 194.05,297.60 194.45,297.60 194.84,297.60 195.24,297.60 195.64,297.60 196.03,297.60 196.43,297.60 196.82,297.60 197.22,297.60 197.62,297.60 198.01,297.60 198.41,297.60 198.81,297.60 199.20,297.60 199.60,297.60 200.00,297.60 200.39,297.60 200.79,297.60 201.19,297.60 201.58,297.60 201.98,297.60 202.38,297.60 202.77,297.60 203.17,297.60 203.56,297.60 203.96,297.60 204.36,297.60 204.75,297.60 205.15,297.60 205.55,297.60 205.94,297.60 206.34,297.60 206.74,297.60 207.13,297.60 207.53,297.60 207.93,297.60 208.32,297.60 208.72,297.60 209.12,297.60 209.51,297.60 209.91,297.60 210.31,297.60 210.70,297.60 211.10,297.60 211.49,297.60 211.89,297.60 212.29,297.60 212.68,297.60 213.08,297.60 213.48,297.60 213.87,297.60 214.27,297.60 214.67,297.60 215.06,297.60 215.46,297.60 215.86,297.60 216.25,297.60 216.65,297.60 217.05,297.60 217.44,297.60 217.84,297.60 218.23,297.60 218.63,297.60 219.03,297.60 219.42,297.60 219.82,297.60 220.22,297.60 220.61,297.60 221.01,297.60 221.41,297.60 221.80,297.60 222.20,297.60 222.60,297.60 222.99,297.60 223.39,297.60 223.79,297.60 224.18,297.60 224.58,297.60 224.98,297.60 225.37,297.60 225.77,297.60 226.16,297.60 226.56,297.60 226.96,297.60 227.35,297.60 227.75,297.60 228.15,297.60 228.54,297.60 228.94,297.60 229.34,297.60 229.73,297.60 230.13,297.60 230.53,297.60 230.92,297.60 231.32,297.60 231.72,297.60 232.11,297.60 232.51,297.60 232.90,297.60 233.30,297.60 233.70,297.60 234.09,297.60 234.49,297.60 234.89,297.60 235.28,297.60 235.68,297.60 236.08,297.60 236.47,297.60 236.87,297.60 237.27,297.60 237.66,297.60 238.06,297.60 238.46,297.60 238.85,297.60 239.25,297.60 239.64,297.60 240.04,297.60 240.44,297.60 240.83,297.60 241.23,297.60 241.63,297.60 242.02,297.60 242.42,297.60 242.82,297.60 243.21,297.60 243.61,297.60 244.01,297.60 244.40,297.60 244.80,297.60 245.20,297.60 245.59,297.60 245.99,297.60 246.39,297.60 246.78,297.60 247.18,297.60 247.57,297.60 247.97,297.60 248.37,297.60 248.76,297.60 249.16,297.60 249.56,297.60 249.95,297.60 250.35,297.60 250.75,297.60 251.14,297.60 251.54,297.60 251.94,297.60 252.33,297.60 252.73,297.60 253.13,297.60 253.52,297.60 253.92,297.60 254.31,297.60 254.71,297.60 255.11,297.60 255.50,297.60 255.90,297.60 256.30,297.60 256.69,297.60 257.09,297.60 257.49,297.60 257.88,297.60 258.28,297.60 258.68,297.60 259.07,297.60 259.47,297.60 259.87,297.60 260.26,297.60 260.66,297.60 261.06,297.60 261.45,297.60 261.85,297.60 262.24,297.60 262.64,297.60 263.04,297.60 263.43,297.60 263.83,297.60 264.23,297.60 264.62,297.60 265.02,297.60 265.42,297.60 265.81,297.60 266.21,297.60 266.61,297.60 267.00,297.60 267.40,297.60 267.80,297.60 268.19,297.60 268.59,297.60 268.98,297.60 269.38,297.60 269.78,297.60 270.17,297.60 270.57,297.60 270.97,297.60 271.36,297.60 271.76,297.60 272.16,297.60 272.55,297.60 272.95,297.60 273.35,297.60 273.74,297.60 274.14,297.60 274.54,297.60 274.93,297.60 275.33,297.60 275.73,297.60 276.12,297.60 276.52,297.60 276.91,297.60 277.31,297.60 277.71,297.60 278.10,297.60 278.50,297.60 278.75,297.60 279.00,297.60 279.04,296.05 279.12,292.96 279.28,286.77 279.59,274.40 279.99,258.93 280.39,243.46 280.71,230.93 281.03,218.40 281.07,218.40 281.15,218.40 281.31,218.40 281.62,218.40 282.02,218.40 282.42,218.40 282.81,218.40 283.21,218.40 283.61,218.40 284.00,218.40 284.40,218.40 284.80,218.40 285.19,218.40 285.59,218.40 285.99,218.40 286.38,218.40 286.78,218.40 287.18,218.40 287.57,218.40 287.97,218.40 288.36,218.40 288.76,218.40 289.16,218.40 289.55,218.40 289.95,218.40 290.35,218.40 290.74,218.40 291.14,218.40 291.54,218.40 291.93,218.40 292.33,218.40 292.73,218.40 293.12,218.40 293.52,218.40 293.92,218.40 294.31,218.40 294.71,218.40 295.11,218.40 295.50,218.40 295.90,218.40 296.29,218.40 296.69,218.40 297.09,218.40 297.48,218.40 297.88,218.40 298.28,218.40 298.67,218.40 299.07,218.40 299.47,218.40 299.86,218.40 300.26,218.40 300.66,218.40 301.05,218.40 301.45,218.40 301.85,218.40 302.24,218.40 302.64,218.40 303.03,218.40 303.43,218.40 303.83,218.40 304.22,218.40 304.62,218.40 305.02,218.40 305.41,218.40 305.81,218.40 306.21,218.40 306.60,218.40 307.00,218.40 307.40,218.40 307.79,218.40 308.19,218.40 308.59,218.40 308.98,218.40 309.38,218.40 309.78,218.40 310.17,218.40 310.57,218.40 310.96,218.40 311.36,218.40 311.76,218.40 312.15,218.40 312.55,218.40 312.95,218.40 313.34,218.40 313.74,218.40 314.14,218.40 314.53,218.40 314.93,218.40 315.33,218.40 315.72,218.40 316.12,218.40 316.52,218.40 316.91,218.40 317.31,218.40 317.70,218.40 318.10,218.40 318.50,218.40 318.89,218.40 319.29,218.40 319.69,218.40 320.08,218.40 320.48,218.40 320.88,218.40 321.27,218.40 321.67,218.40 322.07,218.40 322.46,218.40 322.86,218.40 323.26,218.40 323.65,218.40 324.05,218.40 324.45,218.40 324.84,218.40 325.24,218.40 325.63,218.40 326.03,218.40 326.43,218.40 326.82,218.40 327.22,218.40 327.62,218.40 328.01,218.40 328.41,218.40 328.81,218.40 329.20,218.40 329.60,218.40 330.00,218.40 330.39,218.40 330.79,218.40 331.19,218.40 331.58,218.40 331.98,218.40 332.37,218.40 332.77,218.40 333.17,218.40 333.56,218.40 333.96,218.40 334.36,218.40 334.75,218.40 335.15,218.40 335.55,218.40 335.94,218.40 336.34,218.40 336.74,218.40 337.13,218.40 337.53,218.40 337.93,218.40 338.32,218.40 338.72,218.40 339.11,218.40 339.51,218.40 339.91,218.40 340.30,218.40 340.70,218.40 341.10,218.40 341.49,218.40 341.89,218.40 342.29,218.40 342.68,218.40 343.08,218.40 343.48,218.40 343.87,218.40 344.27,218.40 344.67,218.40 345.06,218.40 345.46,218.40 345.86,218.40 346.25,218.40 346.65,218.40 347.04,218.40 347.44,218.40 347.84,218.40 348.23,218.40 348.63,218.40 349.03,218.40 349.42,218.40 349.82,218.40 350.22,218.40 350.61,218.40 351.01,218.40 351.41,218.40 351.80,218.40 352.20,218.40 352.60,218.40 352.99,218.40 353.39,218.40 353.78,218.40 354.18,218.40 354.58,218.40 354.97,218.40 355.37,218.40 355.77,218.40 356.16,218.40 356.56,218.40 356.96,218.40 357.35,218.40 357.75,218.40 358.15,218.40 358.54,218.40 358.94,218.40 359.34,218.40 359.73,218.40 360.13,218.40 360.53,218.40 360.92,218.40 361.32,218.40 361.71,218.40 362.11,218.40 362.51,218.40 362.90,218.40 363.30,218.40 363.70,218.40 364.09,218.40 364.49,218.40 364.89,218.40 365.28,218.40 365.68,218.40 366.08,218.40 366.47,218.40 366.87,218.40 367.27,218.40 367.66,218.40 368.06,218.40 368.45,218.40 368.85,218.40 369.25,218.40 369.64,218.40 370.04,218.40 370.44,218.40 370.83,218.40 371.23,218.40 371.63,218.40 372.02,218.40 372.42,218.40 372.82,218.40 373.21,218.40 373.61,218.40 374.01,218.40 374.40,218.40 374.80,218.40 375.20,218.40 375.59,218.40 375.99,218.40 376.38,218.40 376.78,218.40 377.18,218.40 377.57,218.40 377.97,218.40 378.37,218.40 378.76,218.40 379.16,218.40 379.56,218.40 379.95,218.40 380.35,218.40 380.75,218.40 381.14,218.40 381.54,218.40 381.94,218.40 382.23,218.40 382.53,218.40 382.57,219.95 382.65,223.04 382.81,229.23 383.12,241.60 383.52,257.07 383.92,272.54 384.24,285.07 384.56,297.60 384.60,297.60 384.68,297.60 384.84,297.60 385.15,297.60 385.55,297.60 385.95,297.60 386.34,297.60 386.74,297.60 387.14,297.60 387.53,297.60 387.93,297.60 388.33,297.60 388.72,297.60 389.12,297.60 389.52,297.60 389.91,297.60 390.31,297.60 390.71,297.60 391.10,297.60 391.50,297.60 391.89,297.60 392.29,297.60 392.69,297.60 393.08,297.60 393.48,297.60 393.88,297.60 394.27,297.60 394.67,297.60 395.07,297.60 395.46,297.60 395.86,297.60 396.26,297.60 396.65,297.60 397.05,297.60 397.45,297.60 397.84,297.60 398.24,297.60 398.64,297.60 399.03,297.60 399.43,297.60 399.82,297.60 400.22,297.60 400.62,297.60 401.01,297.60 401.41,297.60 401.81,297.60 402.20,297.60 402.60,297.60 403.00,297.60 403.39,297.60 403.79,297.60 404.19,297.60 404.58,297.60 404.98,297.60 405.38,297.60 405.77,297.60 406.17,297.60 406.56,297.60 406.96,297.60 407.36,297.60 407.75,297.60 408.15,297.60 408.55,297.60 408.94,297.60 409.34,297.60 409.74,297.60 410.13,297.60 410.53,297.60 410.93,297.60 411.32,297.60 411.72,297.60 412.12,297.60 412.51,297.60 412.91,297.60 413.31,297.60 413.70,297.60 414.10,297.60 414.49,297.60 414.89,297.60 415.29,297.60 415.68,297.60 416.08,297.60 416.48,297.60 416.87,297.60 417.27,297.60 417.67,297.60 418.06,297.60 418.46,297.60 418.86,297.60 419.25,297.60 419.65,297.60 420.05,297.60 420.44,297.60 420.84,297.60 421.23,297.60 421.63,297.60 422.03,297.60 422.42,297.60 422.82,297.60 423.22,297.60 423.61,297.60 424.01,297.60 424.41,297.60 424.80,297.60 425.20,297.60 425.60,297.60 425.99,297.60 426.39,297.60 426.79,297.60 427.18,297.60 427.58,297.60 427.98,297.60 428.37,297.60 428.77,297.60 429.16,297.60 429.56,297.60 429.96,297.60 430.35,297.60 430.75,297.60 431.15,297.60 431.54,297.60 431.94,297.60 432.34,297.60 432.73,297.60 433.13,297.60 433.53,297.60 433.92,297.60 434.32,297.60 434.72,297.60 435.11,297.60 435.51,297.60 435.90,297.60 436.30,297.60 436.70,297.60 437.09,297.60 437.49,297.60 437.89,297.60 438.28,297.60 438.68,297.60 439.08,297.60 439.47,297.60 439.87,297.60 440.27,297.60 440.66,297.60 441.06,297.60 441.46,297.60 441.85,297.60 442.25,297.60 442.64,297.60 443.04,297.60 443.44,297.60 443.83,297.60 444.23,297.60 444.63,297.60 445.02,297.60 445.42,297.60 445.82,297.60 446.21,297.60 446.61,297.60 447.01,297.60 447.40,297.60 447.80,297.60 448.20,297.60 448.59,297.60 448.99,297.60 449.39,297.60 449.78,297.60 450.18,297.60 450.57,297.60 450.97,297.60 451.37,297.60 451.76,297.60 452.16,297.60 452.56,297.60 452.95,297.60 453.35,297.60 453.75,297.60 454.14,297.60 454.54,297.60 454.94,297.60 455.33,297.60 455.73,297.60 456.13,297.60 456.52,297.60 456.92,297.60 457.31,297.60 457.71,297.60 458.11,297.60 458.50,297.60 458.90,297.60 459.30,297.60 459.69,297.60 460.09,297.60 460.49,297.60 460.88,297.60 461.28,297.60 461.68,297.60 462.07,297.60 462.47,297.60 462.87,297.60 463.26,297.60 463.66,297.60 464.06,297.60 464.45,297.60 464.85,297.60 465.24,297.60 465.64,297.60 466.04,297.60 466.43,297.60 466.83,297.60 467.23,297.60 467.62,297.60 468.02,297.60 468.42,297.60 468.81,297.60 469.21,297.60 469.61,297.60 470.00,297.60 470.40,297.60 470.80,297.60 471.19,297.60 471.59,297.60 471.98,297.60 472.38,297.60 472.78,297.60 473.17,297.60 473.57,297.60 473.97,297.60 474.36,297.60 474.76,297.60 475.16,297.60 475.55,297.60 475.95,297.60 476.35,297.60 476.74,297.60 477.14,297.60 477.54,297.60 477.93,297.60 478.33,297.60 478.73,297.60 479.12,297.60 479.52,297.60 479.91,297.60 480.31,297.60 480.71,297.60 481.10,297.60 481.50,297.60 481.75,297.60 482.00,297.60 482.04,296.05 482.12,292.96 482.28,286.77 482.59,274.40 482.99,258.93 483.39,243.46 483.71,230.93 484.03,218.40 484.07,218.40 484.15,218.40 484.31,218.40 484.62,218.40 485.02,218.40 485.42,218.40 485.81,218.40 486.21,218.40 486.61,218.40 487.00,218.40 487.40,218.40 487.80,218.40 488.19,218.40 488.59,218.40 488.99,218.40 489.38,218.40 489.78,218.40 490.18,218.40 490.57,218.40 490.97,218.40 491.36,218.40 491.76,218.40 492.16,218.40 492.55,218.40 492.95,218.40 493.35,218.40 493.74,218.40 494.14,218.40 494.54,218.40 494.93,218.40 495.33,218.40 495.73,218.40 496.12,218.40 496.52,218.40 496.92,218.40 497.31,218.40 497.71,218.40 498.11,218.40 498.50,218.40 498.90,218.40 499.29,218.40 499.69,218.40 500.09,218.40 500.48,218.40 500.88,218.40 501.28,218.40 501.67,218.40 502.07,218.40 502.47,218.40 502.86,218.40 503.26,218.40 503.66,218.40 504.05,218.40 504.45,218.40 504.85,218.40 505.24,218.40 505.64,218.40 506.03,218.40 506.43,218.40 506.83,218.40 507.22,218.40 507.62,218.40 508.02,218.40 508.41,218.40 508.81,218.40 509.21,218.40 509.60,218.40 510.00,218.40 510.40,218.40 510.79,218.40 511.19,218.40 511.59,218.40 511.98,218.40 512.38,218.40 512.78,218.40 513.17,218.40 513.57,218.40 513.96,218.40 514.36,218.40 514.76,218.40 515.15,218.40 515.55,218.40 515.95,218.40 516.34,218.40 516.74,218.40 517.14,218.40 517.53,218.40 517.93,218.40 518.33,218.40 518.72,218.40 519.12,218.40 519.52,218.40 519.91,218.40 520.31,218.40 520.70,218.40 521.10,218.40 521.50,218.40 521.89,218.40 522.29,218.40 522.69,218.40 523.08,218.40 523.48,218.40 523.88,218.40 524.27,218.40 524.67,218.40 525.07,218.40 525.46,218.40 525.86,218.40 526.26,218.40 526.65,218.40 527.05,218.40 527.45,218.40 527.84,218.40 528.24,218.40 528.63,218.40 529.03,218.40 529.43,218.40 529.82,218.40 530.22,218.40 530.62,218.40 531.01,218.40 531.41,218.40 531.81,218.40 532.20,218.40 532.60,218.40 533.00,218.40 533.39,218.40 533.79,218.40 534.19,218.40 534.58,218.40 534.98,218.40 535.37,218.40 535.77,218.40 536.17,218.40 536.56,218.40 536.96,218.40 537.36,218.40 537.75,218.40 538.15,218.40 538.55,218.40 538.94,218.40 539.34,218.40 539.74,218.40 540.13,218.40 540.53,218.40 540.93,218.40 541.32,218.40 541.72,218.40 542.11,218.40 542.51,218.40 542.91,218.40 543.30,218.40 543.70,218.40 544.10,218.40 544.49,218.40 544.89,218.40 545.29,218.40 545.68,218.40 546.08,218.40 546.48,218.40 546.87,218.40 547.27,218.40 547.67,218.40 548.06,218.40 548.46,218.40 548.86,218.40 549.25,218.40 549.65,218.40 550.04,218.40 550.44,218.40 550.84,218.40 551.23,218.40 551.63,218.40 552.03,218.40 552.42,218.40 552.82,218.40 553.22,218.40 553.61,218.40 554.01,218.40 554.41,218.40 554.80,218.40 555.20,218.40 555.60,218.40 555.99,218.40 556.39,218.40 556.78,218.40 557.18,218.40 557.58,218.40 557.97,218.40 558.37,218.40 558.77,218.40 559.16,218.40 559.56,218.40 559.96,218.40 560.35,218.40 560.75,218.40 561.15,218.40 561.54,218.40 561.94,218.40 562.34,218.40 562.73,218.40 563.13,218.40 563.53,218.40 563.92,218.40 564.32,218.40 564.71,218.40 565.11,218.40 565.51,218.40 565.90,218.40 566.30,218.40 566.70,218.40 567.09,218.40 567.49,218.40 567.89,218.40 568.28,218.40 568.68,218.40 569.08,218.40 569.47,218.40 569.87,218.40 570.27,218.40 570.66,218.40 571.06,218.40 571.45,218.40 571.85,218.40 572.25,218.40 572.64,218.40 573.04,218.40 573.44,218.40 573.83,218.40 574.23,218.40 574.63,218.40 575.02,218.40 575.42,218.40 575.82,218.40 576.21,218.40 576.61,218.40 577.01,218.40 577.40,218.40 577.80,218.40 578.20,218.40 578.59,218.40 578.99,218.40 579.38,218.40 579.78,218.40 580.18,218.40 580.57,218.40 580.97,218.40 581.37,218.40 581.76,218.40 582.16,218.40 582.56,218.40 582.95,218.40 583.35,218.40 583.75,218.40 584.14,218.40 584.54,218.40 584.94,218.40 585.23,218.40 585.53,218.40 585.57,219.95 585.65,223.04 585.81,229.23 586.12,241.60 586.52,257.07 586.92,272.54 587.24,285.07 587.56,297.60 587.60,297.60 587.68,297.60 587.84,297.60 588.15,297.60 588.55,297.60 588.95,297.60 589.34,297.60 589.74,297.60 590.14,297.60 590.53,297.60 590.93,297.60 591.33,297.60 591.72,297.60 592.12,297.60 592.52,297.60 592.91,297.60 593.31,297.60 593.71,297.60 594.10,297.60 594.50,297.60 594.89,297.60 595.29,297.60 595.69,297.60 596.08,297.60 596.48,297.60 596.88,297.60 597.27,297.60 597.67,297.60 598.07,297.60 598.46,297.60 598.86,297.60 599.26,297.60 599.65,297.60 600.05,297.60 600.45,297.60 600.84,297.60 601.24,297.60 601.64,297.60 602.03,297.60 602.43,297.60 602.82,297.60 603.22,297.60 603.62,297.60 604.01,297.60 604.41,297.60 604.81,297.60 605.20,297.60 605.60,297.60 606.00,297.60 606.39,297.60 606.79,297.60 607.19,297.60 607.58,297.60 607.98,297.60 608.38,297.60 608.77,297.60 609.17,297.60 609.56,297.60 609.96,297.60 610.36,297.60 610.75,297.60 611.15,297.60 611.55,297.60 611.94,297.60 612.34,297.60 612.74,297.60 613.13,297.60 613.53,297.60 613.93,297.60 614.32,297.60 614.72,297.60 615.12,297.60 615.51,297.60 615.91,297.60 616.31,297.60 616.70,297.60 617.10,297.60 617.49,297.60 617.89,297.60 618.29,297.60 618.68,297.60 619.08,297.60 619.48,297.60 619.87,297.60 620.27,297.60 620.67,297.60 621.06,297.60 621.46,297.60 621.86,297.60 622.25,297.60 622.65,297.60 623.05,297.60 623.44,297.60 623.84,297.60 624.23,297.60 624.63,297.60 625.03,297.60 625.42,297.60 625.82,297.60 626.22,297.60 626.61,297.60 627.01,297.60 627.41,297.60 627.80,297.60 628.20,297.60 628.60,297.60 628.99,297.60 629.39,297.60 629.79,297.60 630.18,297.60 630.58,297.60 630.98,297.60 631.37,297.60 631.77,297.60 632.16,297.60 632.56,297.60 632.96,297.60 633.35,297.60 633.75,297.60 634.15,297.60 634.54,297.60 634.94,297.60 635.34,297.60 635.73,297.60 636.13,297.60 636.53,297.60 636.92,297.60 637.32,297.60 637.72,297.60 638.11,297.60 638.51,297.60 638.90,297.60 639.30,297.60 639.70,297.60 640.09,297.60 640.49,297.60 640.89,297.60 641.28,297.60 641.68,297.60 642.08,297.60 642.47,297.60 642.87,297.60 643.27,297.60 643.66,297.60 644.06,297.60 644.46,297.60 644.85,297.60 645.25,297.60 645.64,297.60 646.04,297.60 646.44,297.60 646.83,297.60 647.23,297.60 647.63,297.60 648.02,297.60 648.42,297.60 648.82,297.60 649.21,297.60 649.61,297.60 650.01,297.60 650.40,297.60 650.80,297.60 651.20,297.60 651.59,297.60 651.99,297.60 652.39,297.60 652.78,297.60 653.18,297.60 653.57,297.60 653.97,297.60 654.37,297.60 654.76,297.60 655.16,297.60 655.56,297.60 655.95,297.60 656.35,297.60 656.75,297.60 657.14,297.60 657.54,297.60 657.94,297.60 658.33,297.60 658.73,297.60 659.13,297.60 659.52,297.60 659.92,297.60 660.31,297.60 660.71,297.60 661.11,297.60 661.50,297.60 661.90,297.60 662.30,297.60 662.69,297.60 663.09,297.60 663.49,297.60 663.88,297.60 664.28,297.60 664.68,297.60 665.07,297.60 665.47,297.60 665.87,297.60 666.26,297.60 666.66,297.60 667.06,297.60 667.45,297.60 667.85,297.60 668.24,297.60 668.64,297.60 669.04,297.60 669.43,297.60 669.83,297.60 670.23,297.60 670.62,297.60 671.02,297.60 671.42,297.60 671.81,297.60 672.21,297.60 672.61,297.60 673.00,297.60 673.40,297.60 673.80,297.60 674.19,297.60 674.59,297.60 674.98,297.60 675.38,297.60 675.78,297.60 676.17,297.60 676.57,297.60 676.97,297.60 677.36,297.60 677.76,297.60 678.16,297.60 678.55,297.60 678.95,297.60 679.35,297.60 679.74,297.60 680.14,297.60 680.54,297.60 680.93,297.60 681.33,297.60 681.73,297.60 682.12,297.60 682.52,297.60 682.91,297.60 683.31,297.60 683.71,297.60 684.10,297.60 684.50,297.60 684.75,297.60 685.00,297.60 685.04,296.05 685.12,292.96 685.28,286.77 685.59,274.40 685.99,258.93 686.39,243.46 686.71,230.93 687.03,218.40 687.07,218.40 687.15,218.40 687.31,218.40 687.62,218.40 688.02,218.40 688.42,218.40 688.81,218.40 689.21,218.40 689.61,218.40 690.00,218.40 690.40,218.40 690.80,218.40 691.19,218.40 691.59,218.40 691.99,218.40 692.38,218.40 692.78,218.40 693.18,218.40 693.57,218.40 693.97,218.40 694.36,218.40 694.76,218.40 695.16,218.40 695.55,218.40 695.95,218.40 696.35,218.40 696.74,218.40 697.14,218.40 697.54,218.40 697.93,218.40 698.33,218.40 698.73,218.40 699.12,218.40 699.52,218.40 699.92,218.40 700.31,218.40 700.71,218.40 701.11,218.40 701.50,218.40 701.90,218.40 702.29,218.40 702.69,218.40 703.09,218.40 703.48,218.40 703.88,218.40 704.28,218.40 704.67,218.40 705.07,218.40 705.47,218.40 705.86,218.40 706.26,218.40 706.66,218.40 707.05,218.40 707.45,218.40 707.85,218.40 708.24,218.40 708.64,218.40 709.03,218.40 709.43,218.40 709.83,218.40 710.22,218.40 710.62,218.40 711.02,218.40 711.41,218.40 711.81,218.40 712.21,218.40 712.60,218.40 713.00,218.40 713.40,218.40 713.79,218.40 714.19,218.40 714.59,218.40 714.98,218.40 715.38,218.40 715.78,218.40 716.17,218.40 716.57,218.40 716.96,218.40 717.36,218.40 717.76,218.40 718.15,218.40 718.55,218.40 718.95,218.40 719.34,218.40 719.74,218.40 720.14,218.40 720.53,218.40 720.93,218.40 721.33,218.40 721.72,218.40 722.12,218.40 722.52,218.40 722.91,218.40 723.31,218.40 723.70,218.40 724.10,218.40 724.50,218.40 724.89,218.40 725.29,218.40 725.69,218.40 726.08,218.40 726.48,218.40 726.88,218.40 727.27,218.40 727.67,218.40 728.07,218.40 728.46,218.40 728.86,218.40 729.26,218.40 729.65,218.40 730.05,218.40 730.45,218.40 730.84,218.40 731.24,218.40 731.63,218.40 732.03,218.40 732.43,218.40 732.82,218.40 733.22,218.40 733.62,218.40 734.01,218.40 734.41,218.40 734.81,218.40 735.20,218.40 735.60,218.40 736.00,218.40 736.39,218.40 736.79,218.40 737.19,218.40 737.58,218.40 737.98,218.40 738.37,218.40 738.77,218.40 739.17,218.40 739.56,218.40 739.96,218.40 740.36,218.40 740.75,218.40 741.15,218.40 741.55,218.40 741.94,218.40 742.34,218.40 742.74,218.40 743.13,218.40 743.53,218.40 743.93,218.40 744.32,218.40 744.72,218.40 745.11,218.40 745.51,218.40 745.91,218.40 746.30,218.40 746.70,218.40 747.10,218.40 747.49,218.40 747.89,218.40 748.29,218.40 748.68,218.40 749.08,218.40 749.48,218.40 749.87,218.40 750.27,218.40 750.67,218.40 751.06,218.40 751.46,218.40 751.86,218.40 752.25,218.40 752.65,218.40 753.04,218.40 753.44,218.40 753.84,218.40 754.23,218.40 754.63,218.40 755.03,218.40 755.42,218.40 755.82,218.40 756.22,218.40 756.61,218.40 757.01,218.40 757.41,218.40 757.80,218.40 758.20,218.40 758.60,218.40 758.99,218.40 759.39,218.40 759.78,218.40 760.18,218.40 760.58,218.40 760.97,218.40 761.37,218.40 761.77,218.40 762.16,218.40 762.56,218.40 762.96,218.40 763.35,218.40 763.75,218.40 764.15,218.40 764.54,218.40 764.94,218.40 765.34,218.40 765.73,218.40 766.13,218.40 766.53,218.40 766.92,218.40 767.32,218.40 767.71,218.40 768.11,218.40 768.51,218.40 768.90,218.40 769.30,218.40 769.70,218.40 770.09,218.40 770.49,218.40 770.89,218.40 771.28,218.40 771.68,218.40 772.08,218.40 772.47,218.40 772.87,218.40 773.27,218.40 773.66,218.40 774.06,218.40 774.45,218.40 774.85,218.40 775.25,218.40 775.64,218.40 776.04,218.40 776.44,218.40 776.83,218.40 777.23,218.40 777.63,218.40 778.02,218.40 778.42,218.40 778.82,218.40 779.21,218.40 779.61,218.40 780.01,218.40 780.40,218.40 780.80,218.40 781.20,218.40 781.59,218.40 781.99,218.40 782.38,218.40 782.78,218.40 783.18,218.40 783.57,218.40 783.97,218.40 784.37,218.40 784.76,218.40 785.16,218.40 785.56,218.40 785.95,218.40 786.35,218.40 786.75,218.40 787.14,218.40 787.54,218.40 787.94,218.40 788.23,218.40 788.53,218.40 788.57,219.95 788.65,223.04 788.81,229.23 789.12,241.60 789.52,257.07 789.92,272.54 790.24,285.07 790.56,297.60 790.60,297.60 790.68,297.60 790.84,297.60 791.15,297.60 791.55,297.60 791.95,297.60 792.34,297.60 792.74,297.60 793.14,297.60 793.53,297.60 793.93,297.60 794.33,297.60 794.72,297.60 795.12,297.60 795.52,297.60 795.91,297.60 796.31,297.60 796.71,297.60 797.10,297.60 797.50,297.60 797.89,297.60 798.29,297.60 798.69,297.60 799.08,297.60 799.48,297.60 799.88,297.60 800.27,297.60 800.67,297.60 801.07,297.60 801.46,297.60 801.86,297.60 802.26,297.60 802.65,297.60 803.05,297.60 803.45,297.60 803.84,297.60 804.24,297.60 804.64,297.60 805.03,297.60 805.43,297.60 805.82,297.60 806.22,297.60 806.62,297.60 807.01,297.60 807.41,297.60 807.81,297.60 808.20,297.60 808.60,297.60 809.00,297.60 809.39,297.60 809.79,297.60 810.19,297.60 810.58,297.60 810.98,297.60 811.38,297.60 811.77,297.60 812.17,297.60 812.56,297.60 812.96,297.60 813.36,297.60 813.75,297.60 814.15,297.60 814.55,297.60 814.94,297.60 815.34,297.60 815.74,297.60 816.13,297.60 816.53,297.60 816.93,297.60 817.32,297.60 817.72,297.60 818.12,297.60 818.51,297.60 818.91,297.60 819.31,297.60 819.70,297.60 820.10,297.60 820.49,297.60 820.89,297.60 821.29,297.60 821.68,297.60 822.08,297.60 822.48,297.60 822.87,297.60 823.27,297.60 823.67,297.60 824.06,297.60 824.46,297.60 824.86,297.60 825.25,297.60 825.65,297.60 826.05,297.60 826.44,297.60 826.84,297.60 827.23,297.60 827.63,297.60 828.03,297.60 828.42,297.60 828.82,297.60 829.22,297.60 829.61,297.60 830.01,297.60 830.41,297.60 830.80,297.60 831.20,297.60 831.60,297.60 831.99,297.60 832.39,297.60 832.79,297.60 833.18,297.60 833.58,297.60 833.98,297.60 834.37,297.60 834.77,297.60 835.16,297.60 835.56,297.60 835.96,297.60 836.35,297.60 836.75,297.60 837.15,297.60 837.54,297.60 837.94,297.60 838.34,297.60 838.73,297.60 839.13,297.60 839.53,297.60 839.92,297.60 840.32,297.60 840.72,297.60 841.11,297.60 841.51,297.60 841.90,297.60 842.30,297.60 842.70,297.60 843.09,297.60 843.49,297.60 843.89,297.60 844.28,297.60 844.68,297.60 845.08,297.60 845.47,297.60 845.87,297.60 846.27,297.60 846.66,297.60 847.06,297.60 847.46,297.60 847.85,297.60 848.25,297.60 848.64,297.60 849.04,297.60 849.44,297.60 849.83,297.60 850.23,297.60 850.63,297.60 851.02,297.60 851.42,297.60 851.82,297.60 852.21,297.60 852.61,297.60 853.01,297.60 853.40,297.60 853.80,297.60 854.20,297.60 854.59,297.60 854.99,297.60 855.39,297.60 855.78,297.60 856.18,297.60 856.57,297.60 856.97,297.60 857.37,297.60 857.76,297.60 858.16,297.60 858.56,297.60 858.95,297.60 859.35,297.60 859.75,297.60 860.14,297.60 860.54,297.60 860.94,297.60 861.33,297.60 861.73,297.60 862.13,297.60 862.52,297.60 862.92,297.60 863.31,297.60 863.71,297.60 864.11,297.60 864.50,297.60 864.90,297.60 865.30,297.60 865.69,297.60 866.09,297.60 866.49,297.60 866.88,297.60 867.28,297.60 867.68,297.60 868.07,297.60 868.47,297.60 868.87,297.60 869.26,297.60 869.66,297.60 870.06,297.60 870.45,297.60 870.85,297.60 871.24,297.60 871.64,297.60 872.04,297.60 872.43,297.60 872.83,297.60 873.23,297.60 873.62,297.60 874.02,297.60 874.42,297.60 874.81,297.60 875.21,297.60 875.61,297.60 876.00,297.60 876.40,297.60 876.80,297.60 877.19,297.60 877.59,297.60 877.98,297.60 878.38,297.60 878.78,297.60 879.17,297.60 879.57,297.60 879.97,297.60 880.36,297.60 880.76,297.60 881.16,297.60 881.55,297.60 881.95,297.60 882.35,297.60 882.74,297.60 883.14,297.60 883.54,297.60 883.93,297.60 884.33,297.60 884.73,297.60 885.12,297.60 885.52,297.60 885.91,297.60 886.31,297.60 886.71,297.60 887.10,297.60 887.50,297.60 887.75,297.60" fill="none" stroke="#b54708" stroke-width="3" stroke-linejoin="round"/>
<line x1="660" y1="114" x2="696" y2="114" stroke="#b54708" stroke-width="3"/>
<text x="706" y="119" font-family="Arial, Helvetica, sans-serif" font-size="13" font-weight="400" text-anchor="start" fill="#111">input x50</text>
<text x="460" y="502" font-family="Arial, Helvetica, sans-serif" font-size="14" font-weight="400" text-anchor="middle" fill="#111">Time after 60 ms settling, ms</text>
<text x="22" y="260" font-family="Arial, Helvetica, sans-serif" font-size="14" text-anchor="middle" fill="#111" transform="rotate(-90 22 260)">Voltage, V</text>
</svg>
