<svg xmlns="http://www.w3.org/2000/svg" width="1800" height="1080" viewBox="0 0 1800 1080">

<defs>
  <style>
    .wire { stroke:#111; stroke-width:2.1; fill:none; stroke-linecap:round; stroke-linejoin:round; }
    .thin { stroke:#111; stroke-width:1.35; fill:none; stroke-linecap:round; stroke-linejoin:round; }
    .rail { stroke:#111; stroke-width:3; fill:none; stroke-linecap:round; }
    .dash { stroke:#111; stroke-width:1.9; fill:none; stroke-linecap:round; stroke-linejoin:round; stroke-dasharray:8 7; }
    .sym { stroke:#111; stroke-width:2.1; fill:none; stroke-linecap:round; stroke-linejoin:round; }
    .dot { fill:#111; }
    .panel { fill:#fff; stroke:#111; stroke-width:1.4; }
  </style>
  <g id="npn">
    <circle cx="38" cy="45" r="34" class="sym"/>
    <line x1="0" y1="45" x2="22" y2="45" class="sym"/>
    <line x1="22" y1="22" x2="22" y2="68" class="sym"/>
    <line x1="22" y1="35" x2="70" y2="10" class="sym"/>
    <line x1="22" y1="55" x2="70" y2="80" class="sym"/>
    <polygon points="56,73 43,72 47,62" fill="#111"/>
  </g>
  <g id="pnp">
    <circle cx="38" cy="45" r="34" class="sym"/>
    <line x1="0" y1="45" x2="22" y2="45" class="sym"/>
    <line x1="22" y1="22" x2="22" y2="68" class="sym"/>
    <line x1="22" y1="55" x2="70" y2="80" class="sym"/>
    <line x1="70" y1="10" x2="22" y2="35" class="sym"/>
    <polygon points="40,29 56,26 52,17" fill="#111"/>
  </g>
  <g id="ground">
    <line x1="0" y1="0" x2="44" y2="0" class="wire"/>
    <line x1="8" y1="12" x2="36" y2="12" class="wire"/>
    <line x1="16" y1="24" x2="28" y2="24" class="wire"/>
  </g>
</defs>

<rect width="100%" height="100%" fill="#fff"/>
<text x="65" y="56" font-family="Arial, Helvetica, sans-serif" font-size="28" font-weight="700" fill="#111">Variant 02: Rogov-style triple emitter follower output</text>
<text x="65" y="88" font-family="Arial, Helvetica, sans-serif" font-size="14" font-weight="400" fill="#111">Rogov 2018 two-vs-three follower discussion; Grechishkin 2013 BJT signal path. +/-15 V, 8 ohm load, Av target 10.</text>
<line x1="65" y1="125" x2="1735" y2="125" class="rail"/>
<line x1="65" y1="900" x2="1735" y2="900" class="rail"/>
<text x="72" y="111" font-family="Arial, Helvetica, sans-serif" font-size="15" font-weight="700" fill="#111">+15 V</text>
<text x="72" y="932" font-family="Arial, Helvetica, sans-serif" font-size="15" font-weight="700" fill="#111">-15 V</text>
<text x="80" y="178" font-family="Arial, Helvetica, sans-serif" font-size="17" font-weight="700" fill="#111">Input and differential pair</text>
<text x="675" y="178" font-family="Arial, Helvetica, sans-serif" font-size="17" font-weight="700" fill="#111">Voltage gain stage</text>
<text x="1040" y="178" font-family="Arial, Helvetica, sans-serif" font-size="17" font-weight="700" fill="#111">Bias and triple emitter follower output</text>
<text x="80" y="446" font-family="Arial, Helvetica, sans-serif" font-size="14" font-weight="700" fill="#111">IN</text>
<line x1="110" y1="440" x2="170" y2="440" class="wire"/>
<line x1="170" y1="412" x2="170" y2="468" class="wire"/>
<line x1="188" y1="412" x2="188" y2="468" class="wire"/>
<text x="167" y="402" font-family="Arial, Helvetica, sans-serif" font-size="12" font-weight="400" fill="#111">C1</text>
<line x1="188" y1="440" x2="320" y2="440" class="wire"/>
<use href="#npn" transform="translate(320,395)"/>
<use href="#npn" transform="translate(500,395)"/>
<text x="345" y="386" font-family="Arial, Helvetica, sans-serif" font-size="13" font-weight="700" fill="#111">VT1</text>
<text x="525" y="386" font-family="Arial, Helvetica, sans-serif" font-size="13" font-weight="700" fill="#111">VT2</text>
<text x="340" y="493" font-family="Arial, Helvetica, sans-serif" font-size="12" font-weight="400" fill="#111">matched</text>
<text x="520" y="493" font-family="Arial, Helvetica, sans-serif" font-size="12" font-weight="400" fill="#111">matched</text>
<line x1="390" y1="475" x2="390" y2="535" class="wire"/>
<line x1="570" y1="475" x2="570" y2="535" class="wire"/>
<line x1="390" y1="535" x2="480" y2="535" class="wire"/>
<line x1="480" y1="535" x2="570" y2="535" class="wire"/>
<circle cx="480" cy="535" r="4" class="dot"/>
<use href="#npn" transform="translate(410,560)"/>
<text x="438" y="552" font-family="Arial, Helvetica, sans-serif" font-size="12" font-weight="700" fill="#111">VT5 tail CCS</text>
<line x1="480" y1="535" x2="480" y2="570" class="wire"/>
<line x1="480" y1="640" x2="480" y2="900" class="wire"/>
<circle cx="480" cy="900" r="4" class="dot"/>
<use href="#pnp" transform="translate(320,220)"/>
<use href="#pnp" transform="translate(500,220)"/>
<text x="346" y="212" font-family="Arial, Helvetica, sans-serif" font-size="13" font-weight="700" fill="#111">VT3</text>
<text x="526" y="212" font-family="Arial, Helvetica, sans-serif" font-size="13" font-weight="700" fill="#111">VT4 mirror</text>
<line x1="390" y1="125" x2="390" y2="230" class="wire"/>
<circle cx="390" cy="125" r="4" class="dot"/>
<line x1="570" y1="125" x2="570" y2="230" class="wire"/>
<circle cx="570" cy="125" r="4" class="dot"/>
<line x1="390" y1="300" x2="390" y2="405" class="wire"/>
<line x1="570" y1="300" x2="570" y2="405" class="wire"/>
<polyline points="390,300 300,300 300,265 320,265" class="wire"/>
<polyline points="320,265 300,265 300,190 480,190 480,265 500,265" class="wire"/>
<circle cx="320" cy="265" r="4" class="dot"/>
<circle cx="300" cy="265" r="4" class="dot"/>
<line x1="500" y1="440" x2="455" y2="440" class="wire"/>
<rect x="390" y="426" width="65" height="28" fill="#fff" stroke="#111" stroke-width="1.6"/><text x="396" y="445" font-family="Arial, Helvetica, sans-serif" font-size="12" font-weight="700" fill="#111">REF/FB</text>
<line x1="410" y1="605" x2="360" y2="605" class="wire"/>
<rect x="300" y="591" width="60" height="28" fill="#fff" stroke="#111" stroke-width="1.6"/><text x="306" y="610" font-family="Arial, Helvetica, sans-serif" font-size="12" font-weight="700" fill="#111">Iset-</text>
<use href="#npn" transform="translate(700,385)"/>
<text x="727" y="376" font-family="Arial, Helvetica, sans-serif" font-size="13" font-weight="700" fill="#111">VT6 VAS</text>
<polyline points="570,405 645,405 645,430 700,430" class="wire"/>
<use href="#pnp" transform="translate(760,210)"/>
<text x="787" y="202" font-family="Arial, Helvetica, sans-serif" font-size="13" font-weight="700" fill="#111">VT7 CCS</text>
<line x1="830" y1="125" x2="830" y2="220" class="wire"/>
<circle cx="830" cy="125" r="4" class="dot"/>
<line x1="760" y1="255" x2="710" y2="255" class="wire"/>
<rect x="650" y="241" width="60" height="28" fill="#fff" stroke="#111" stroke-width="1.6"/><text x="656" y="260" font-family="Arial, Helvetica, sans-serif" font-size="12" font-weight="700" fill="#111">Iset+</text>
<line x1="830" y1="290" x2="830" y2="395" class="wire"/>
<line x1="770" y1="395" x2="1010" y2="395" class="wire"/>
<circle cx="830" cy="395" r="4" class="dot"/>
<circle cx="1010" cy="395" r="4" class="dot"/>
<line x1="770" y1="465" x2="770" y2="500" class="wire"/>
<line x1="770" y1="500" x2="770" y2="520" class="wire"/>
<rect x="760" y="520" width="20" height="50" class="sym"/>
<line x1="770" y1="570" x2="770" y2="590" class="wire"/>
<text x="784" y="550" font-family="Arial, Helvetica, sans-serif" font-size="12" font-weight="400" fill="#111">R1 Re VAS</text>
<line x1="770" y1="590" x2="770" y2="900" class="wire"/>
<circle cx="770" cy="900" r="4" class="dot"/>
<line x1="1010" y1="305" x2="1080" y2="305" class="wire"/>
<line x1="1010" y1="695" x2="1080" y2="695" class="wire"/>
<line x1="1010" y1="305" x2="1010" y2="440" class="wire"/>
<use href="#npn" transform="translate(940,430)"/>
<text x="968" y="422" font-family="Arial, Helvetica, sans-serif" font-size="13" font-weight="700" fill="#111">VT8 bias</text>
<line x1="940" y1="475" x2="900" y2="475" class="wire"/>
<circle cx="900" cy="475" r="4" class="dot"/>
<line x1="900" y1="475" x2="900" y2="440" class="wire"/>
<line x1="900" y1="440" x2="910" y2="440" class="wire"/>
<line x1="910" y1="440" x2="930" y2="440" class="wire"/>
<rect x="930" y="430" width="30" height="20" class="sym"/>
<line x1="960" y1="440" x2="980" y2="440" class="wire"/>
<text x="930" y="426" font-family="Arial, Helvetica, sans-serif" font-size="12" font-weight="400" fill="#111">R2</text>
<line x1="980" y1="440" x2="1010" y2="440" class="wire"/>
<circle cx="1010" cy="440" r="4" class="dot"/>
<line x1="900" y1="475" x2="900" y2="510" class="wire"/>
<line x1="900" y1="510" x2="910" y2="510" class="wire"/>
<line x1="910" y1="510" x2="930" y2="510" class="wire"/>
<rect x="930" y="500" width="30" height="20" class="sym"/>
<line x1="960" y1="510" x2="980" y2="510" class="wire"/>
<text x="930" y="496" font-family="Arial, Helvetica, sans-serif" font-size="12" font-weight="400" fill="#111">R3</text>
<line x1="980" y1="510" x2="1010" y2="510" class="wire"/>
<circle cx="1010" cy="510" r="4" class="dot"/>
<line x1="1010" y1="510" x2="1010" y2="695" class="wire"/>
<text x="902" y="536" font-family="Arial, Helvetica, sans-serif" font-size="12" font-weight="400" fill="#111">Vbe multiplier</text>
<use href="#npn" transform="translate(1080,260)"/>
<use href="#npn" transform="translate(1210,295)"/>
<use href="#npn" transform="translate(1340,330)"/>
<text x="1106" y="250" font-family="Arial, Helvetica, sans-serif" font-size="13" font-weight="700" fill="#111">VT9 pre</text>
<text x="1236" y="285" font-family="Arial, Helvetica, sans-serif" font-size="13" font-weight="700" fill="#111">VT11 drv</text>
<text x="1366" y="320" font-family="Arial, Helvetica, sans-serif" font-size="13" font-weight="700" fill="#111">VT13 out</text>
<line x1="1150" y1="125" x2="1150" y2="270" class="wire"/>
<circle cx="1150" cy="125" r="4" class="dot"/>
<line x1="1280" y1="125" x2="1280" y2="305" class="wire"/>
<circle cx="1280" cy="125" r="4" class="dot"/>
<line x1="1410" y1="125" x2="1410" y2="340" class="wire"/>
<circle cx="1410" cy="125" r="4" class="dot"/>
<line x1="1150" y1="340" x2="1210" y2="340" class="wire"/>
<line x1="1280" y1="375" x2="1340" y2="375" class="wire"/>
<line x1="1410" y1="410" x2="1520" y2="410" class="wire"/>
<line x1="1520" y1="410" x2="1520" y2="430" class="wire"/>
<rect x="1510" y="430" width="20" height="32" class="sym"/>
<line x1="1520" y1="462" x2="1520" y2="482" class="wire"/>
<text x="1534" y="451" font-family="Arial, Helvetica, sans-serif" font-size="12" font-weight="400" fill="#111">R4 0R22</text>
<line x1="1520" y1="482" x2="1520" y2="500" class="wire"/>
<use href="#pnp" transform="translate(1080,650)"/>
<use href="#pnp" transform="translate(1210,615)"/>
<use href="#pnp" transform="translate(1340,580)"/>
<text x="1106" y="746" font-family="Arial, Helvetica, sans-serif" font-size="13" font-weight="700" fill="#111">VT10 pre</text>
<text x="1236" y="711" font-family="Arial, Helvetica, sans-serif" font-size="13" font-weight="700" fill="#111">VT12 drv</text>
<text x="1366" y="676" font-family="Arial, Helvetica, sans-serif" font-size="13" font-weight="700" fill="#111">VT14 out</text>
<line x1="1150" y1="730" x2="1150" y2="900" class="wire"/>
<circle cx="1150" cy="900" r="4" class="dot"/>
<line x1="1280" y1="695" x2="1280" y2="900" class="wire"/>
<circle cx="1280" cy="900" r="4" class="dot"/>
<line x1="1410" y1="660" x2="1410" y2="900" class="wire"/>
<circle cx="1410" cy="900" r="4" class="dot"/>
<line x1="1150" y1="660" x2="1210" y2="660" class="wire"/>
<line x1="1280" y1="625" x2="1340" y2="625" class="wire"/>
<line x1="1410" y1="590" x2="1520" y2="590" class="wire"/>
<line x1="1520" y1="500" x2="1520" y2="518" class="wire"/>
<line x1="1520" y1="518" x2="1520" y2="538" class="wire"/>
<rect x="1510" y="538" width="20" height="32" class="sym"/>
<line x1="1520" y1="570" x2="1520" y2="590" class="wire"/>
<text x="1534" y="559" font-family="Arial, Helvetica, sans-serif" font-size="12" font-weight="400" fill="#111">R5 0R22</text>
<circle cx="1520" cy="500" r="4" class="dot"/>
<line x1="1520" y1="500" x2="1680" y2="500" class="wire"/>
<text x="1692" y="505" font-family="Arial, Helvetica, sans-serif" font-size="15" font-weight="700" fill="#111">OUT</text>
<line x1="1680" y1="500" x2="1680" y2="560" class="wire"/>
<line x1="1680" y1="560" x2="1680" y2="580" class="wire"/>
<rect x="1670" y="580" width="20" height="90" class="sym"/>
<line x1="1680" y1="670" x2="1680" y2="690" class="wire"/>
<text x="1694" y="630" font-family="Arial, Helvetica, sans-serif" font-size="12" font-weight="400" fill="#111">R6 8 ohm load</text>
<line x1="1680" y1="690" x2="1680" y2="760" class="wire"/>
<use href="#ground" transform="translate(1658,760)"/>
<line x1="1590" y1="500" x2="1590" y2="560" class="wire"/>
<circle cx="1590" cy="500" r="4" class="dot"/>
<line x1="1590" y1="560" x2="1590" y2="580" class="wire"/>
<rect x="1580" y="580" width="20" height="42" class="sym"/>
<line x1="1590" y1="622" x2="1590" y2="642" class="wire"/>
<text x="1604" y="606" font-family="Arial, Helvetica, sans-serif" font-size="12" font-weight="400" fill="#111">R7 10R</text>
<line x1="1590" y1="642" x2="1590" y2="700" class="wire"/>
<line x1="1562" y1="700" x2="1618" y2="700" class="wire"/>
<line x1="1562" y1="718" x2="1618" y2="718" class="wire"/>
<text x="1625" y="713" font-family="Arial, Helvetica, sans-serif" font-size="12" font-weight="400" fill="#111">C2 100n</text>
<line x1="1590" y1="718" x2="1590" y2="760" class="wire"/>
<use href="#ground" transform="translate(1568,760)"/>
<text x="1544" y="655" font-family="Arial, Helvetica, sans-serif" font-size="12" font-weight="700" fill="#111">Zobel</text>
<rect x="70" y="950" width="1660" height="88" class="panel"/>
<text x="94" y="978" font-family="Arial, Helvetica, sans-serif" font-size="14" font-weight="700" fill="#111">Feedback: No overall feedback; local emitter degeneration and ballast resistors</text>
<text x="94" y="1005" font-family="Arial, Helvetica, sans-serif" font-size="14" font-weight="400" fill="#111">Component sim: THD 1 W 0.0014%, THD 5 W 0.0035%, clean power 9.0 W @ 1% THD, damping 48.5, score 88.22/100.</text>
<text x="94" y="1026" font-family="Arial, Helvetica, sans-serif" font-size="12" font-weight="400" fill="#111">Conceptual topology schematic; transistor choices, compensation, protection, and PCB layout still need hardware design.</text>
</svg>
