<svg xmlns="http://www.w3.org/2000/svg" width="920" height="520" viewBox="0 0 920 520">
<defs>
<style>
.wire{stroke:#111;stroke-width:2.6;fill:none;stroke-linecap:round;stroke-linejoin:round}
.thin{stroke:#a7b0bd;stroke-width:1.2;fill:none;stroke-linecap:round;stroke-linejoin:round}
.axis{stroke:#111;stroke-width:1.4;fill:none}
.blue{stroke:#1665d8;stroke-width:3;fill:none;stroke-linecap:round;stroke-linejoin:round}
.green{stroke:#13795b;stroke-width:3;fill:none;stroke-linecap:round;stroke-linejoin:round}
.orange{stroke:#b54708;stroke-width:3;fill:none;stroke-linecap:round;stroke-linejoin:round}
.node{fill:#111;stroke:none}
</style>
</defs>
<rect width="100%" height="100%" fill="#fff"/>
<text x="76" y="36" font-family="Arial, Helvetica, sans-serif" font-size="22" font-weight="700" text-anchor="start" fill="#111">Darlington AC gain and phase, load = 8 ohm</text>
<rect x="76" y="60" width="812" height="396" fill="#fff" stroke="#111" stroke-width="1.4"/>
<line x1="129.115" y1="60" x2="129.115" y2="456" class="thin"/>
<text x="129.115" y="479" font-family="Arial, Helvetica, sans-serif" font-size="12" font-weight="400" text-anchor="middle" fill="#111">10</text>
<line x1="305.557" y1="60" x2="305.557" y2="456" class="thin"/>
<text x="305.557" y="479" font-family="Arial, Helvetica, sans-serif" font-size="12" font-weight="400" text-anchor="middle" fill="#111">100</text>
<line x1="482" y1="60" x2="482" y2="456" class="thin"/>
<text x="482" y="479" font-family="Arial, Helvetica, sans-serif" font-size="12" font-weight="400" text-anchor="middle" fill="#111">1k</text>
<line x1="658.443" y1="60" x2="658.443" y2="456" class="thin"/>
<text x="658.443" y="479" font-family="Arial, Helvetica, sans-serif" font-size="12" font-weight="400" text-anchor="middle" fill="#111">10k</text>
<line x1="834.885" y1="60" x2="834.885" y2="456" class="thin"/>
<text x="834.885" y="479" font-family="Arial, Helvetica, sans-serif" font-size="12" font-weight="400" text-anchor="middle" fill="#111">100k</text>
<line x1="76" y1="456" x2="888" y2="456" class="thin"/>
<text x="66" y="460" font-family="Arial, Helvetica, sans-serif" font-size="12" font-weight="400" text-anchor="end" fill="#111">-20</text>
<line x1="76" y1="334.154" x2="888" y2="334.154" class="thin"/>
<text x="66" y="338.154" font-family="Arial, Helvetica, sans-serif" font-size="12" font-weight="400" text-anchor="end" fill="#111">0</text>
<line x1="76" y1="212.308" x2="888" y2="212.308" class="thin"/>
<text x="66" y="216.308" font-family="Arial, Helvetica, sans-serif" font-size="12" font-weight="400" text-anchor="end" fill="#111">20</text>
<line x1="76" y1="90.4615" x2="888" y2="90.4615" class="thin"/>
<text x="66" y="94.4615" font-family="Arial, Helvetica, sans-serif" font-size="12" font-weight="400" text-anchor="end" fill="#111">40</text>
<polyline points="76.00,240.63 78.21,239.80 80.41,239.00 82.62,238.23 84.83,237.49 87.03,236.78 89.24,236.10 91.45,235.45 93.65,234.83 95.86,234.24 98.07,233.67 100.27,233.13 102.48,232.61 104.68,232.12 106.89,231.65 109.10,231.20 111.30,230.77 113.51,230.36 115.72,229.97 117.92,229.60 120.13,229.25 122.34,228.91 124.54,228.59 126.75,228.29 128.96,228.00 131.16,227.73 133.37,227.47 135.58,227.22 137.78,226.99 139.99,226.77 142.20,226.55 144.40,226.35 146.61,226.16 148.82,225.98 151.02,225.81 153.23,225.65 155.43,225.50 157.64,225.36 159.85,225.22 162.05,225.09 164.26,224.97 166.47,224.85 168.67,224.74 170.88,224.63 173.09,224.54 175.29,224.44 177.50,224.35 179.71,224.27 181.91,224.19 184.12,224.12 186.33,224.05 188.53,223.98 190.74,223.92 192.95,223.86 195.15,223.80 197.36,223.75 199.57,223.70 201.77,223.65 203.98,223.60 206.18,223.56 208.39,223.52 210.60,223.48 212.80,223.45 215.01,223.41 217.22,223.38 219.42,223.35 221.63,223.32 223.84,223.30 226.04,223.27 228.25,223.25 230.46,223.22 232.66,223.20 234.87,223.18 237.08,223.16 239.28,223.14 241.49,223.13 243.70,223.11 245.90,223.10 248.11,223.08 250.32,223.07 252.52,223.06 254.73,223.04 256.93,223.03 259.14,223.02 261.35,223.01 263.55,223.00 265.76,222.99 267.97,222.98 270.17,222.98 272.38,222.97 274.59,222.96 276.79,222.96 279.00,222.95 281.21,222.94 283.41,222.94 285.62,222.93 287.83,222.93 290.03,222.92 292.24,222.92 294.45,222.91 296.65,222.91 298.86,222.91 301.07,222.90 303.27,222.90 305.48,222.90 307.68,222.90 309.89,222.89 312.10,222.89 314.30,222.89 316.51,222.89 318.72,222.89 320.92,222.88 323.13,222.88 325.34,222.88 327.54,222.88 329.75,222.88 331.96,222.88 334.16,222.88 336.37,222.88 338.58,222.88 340.78,222.88 342.99,222.88 345.20,222.88 347.40,222.88 349.61,222.88 351.82,222.88 354.02,222.88 356.23,222.88 358.43,222.88 360.64,222.88 362.85,222.89 365.05,222.89 367.26,222.89 369.47,222.89 371.67,222.89 373.88,222.89 376.09,222.90 378.29,222.90 380.50,222.90 382.71,222.91 384.91,222.91 387.12,222.91 389.33,222.92 391.53,222.92 393.74,222.92 395.95,222.93 398.15,222.93 400.36,222.94 402.57,222.95 404.77,222.95 406.98,222.96 409.18,222.96 411.39,222.97 413.60,222.98 415.80,222.99 418.01,223.00 420.22,223.01 422.42,223.02 424.63,223.03 426.84,223.04 429.04,223.05 431.25,223.06 433.46,223.07 435.66,223.09 437.87,223.10 440.08,223.12 442.28,223.13 444.49,223.15 446.70,223.17 448.90,223.19 451.11,223.21 453.32,223.23 455.52,223.25 457.73,223.28 459.93,223.31 462.14,223.33 464.35,223.36 466.55,223.39 468.76,223.43 470.97,223.46 473.17,223.50 475.38,223.54 477.59,223.58 479.79,223.62 482.00,223.67 484.21,223.71 486.41,223.76 488.62,223.82 490.83,223.88 493.03,223.94 495.24,224.00 497.45,224.07 499.65,224.14 501.86,224.22 504.07,224.30 506.27,224.38 508.48,224.47 510.68,224.56 512.89,224.66 515.10,224.77 517.30,224.88 519.51,225.00 521.72,225.12 523.92,225.25 526.13,225.39 528.34,225.53 530.54,225.68 532.75,225.85 534.96,226.01 537.16,226.19 539.37,226.38 541.58,226.58 543.78,226.79 545.99,227.01 548.20,227.24 550.40,227.48 552.61,227.74 554.82,228.00 557.02,228.29 559.23,228.58 561.43,228.89 563.64,229.21 565.85,229.56 568.05,229.91 570.26,230.29 572.47,230.68 574.67,231.09 576.88,231.51 579.09,231.96 581.29,232.43 583.50,232.91 585.71,233.42 587.91,233.95 590.12,234.50 592.33,235.07 594.53,235.67 596.74,236.29 598.95,236.94 601.15,237.60 603.36,238.30 605.57,239.02 607.77,239.76 609.98,240.53 612.18,241.33 614.39,242.15 616.60,243.00 618.80,243.88 621.01,244.78 623.22,245.72 625.42,246.68 627.63,247.66 629.84,248.67 632.04,249.72 634.25,250.78 636.46,251.88 638.66,253.00 640.87,254.15 643.08,255.32 645.28,256.52 647.49,257.75 649.70,259.00 651.90,260.27 654.11,261.57 656.32,262.90 658.52,264.24 660.73,265.61 662.93,267.00 665.14,268.42 667.35,269.85 669.55,271.30 671.76,272.78 673.97,274.27 676.17,275.77 678.38,277.30 680.59,278.84 682.79,280.40 685.00,281.97 687.21,283.55 689.41,285.14 691.62,286.75 693.83,288.37 696.03,290.00 698.24,291.63 700.45,293.28 702.65,294.93 704.86,296.59 707.07,298.25 709.27,299.92 711.48,301.60 713.68,303.27 715.89,304.95 718.10,306.63 720.30,308.31 722.51,309.99 724.72,311.67 726.92,313.36 729.13,315.04 731.34,316.71 733.54,318.39 735.75,320.06 737.96,321.73 740.16,323.40 742.37,325.06 744.58,326.72 746.78,328.38 748.99,330.03 751.20,331.68 753.40,333.32 755.61,334.95 757.82,336.59 760.02,338.21 762.23,339.83 764.43,341.45 766.64,343.06 768.85,344.66 771.05,346.26 773.26,347.85 775.47,349.43 777.67,351.01 779.88,352.59 782.09,354.16 784.29,355.72 786.50,357.28 788.71,358.83 790.91,360.37 793.12,361.91 795.33,363.44 797.53,364.96 799.74,366.48 801.95,367.99 804.15,369.50 806.36,371.00 808.57,372.49 810.77,373.98 812.98,375.45 815.18,376.92 817.39,378.39 819.60,379.84 821.80,381.29 824.01,382.73 826.22,384.16 828.42,385.59 830.63,387.00 832.84,388.41 835.04,389.80 837.25,391.19 839.46,392.57 841.66,393.93 843.87,395.29 846.08,396.64 848.28,397.97 850.49,399.29 852.70,400.60 854.90,401.90 857.11,403.19 859.32,404.46 861.52,405.72 863.73,406.96 865.93,408.19 868.14,409.41 870.35,410.60 872.55,411.79 874.76,412.95 876.97,414.11 879.17,415.24 881.38,416.35 883.59,417.45 885.79,418.53 888.00,419.59" fill="none" stroke="#1665d8" stroke-width="3" stroke-linejoin="round"/>
<polyline points="76.00,346.41 78.21,346.57 80.41,346.72 82.62,346.87 84.83,347.03 87.03,347.17 89.24,347.32 91.45,347.46 93.65,347.61 95.86,347.75 98.07,347.88 100.27,348.02 102.48,348.15 104.68,348.28 106.89,348.41 109.10,348.53 111.30,348.65 113.51,348.77 115.72,348.89 117.92,349.00 120.13,349.12 122.34,349.23 124.54,349.33 126.75,349.44 128.96,349.54 131.16,349.64 133.37,349.74 135.58,349.84 137.78,349.93 139.99,350.02 142.20,350.11 144.40,350.20 146.61,350.28 148.82,350.36 151.02,350.44 153.23,350.52 155.43,350.60 157.64,350.67 159.85,350.75 162.05,350.82 164.26,350.89 166.47,350.96 168.67,351.02 170.88,351.08 173.09,351.15 175.29,351.21 177.50,351.27 179.71,351.32 181.91,351.38 184.12,351.44 186.33,351.49 188.53,351.54 190.74,351.59 192.95,351.64 195.15,351.69 197.36,351.73 199.57,351.78 201.77,351.82 203.98,351.87 206.18,351.91 208.39,351.95 210.60,351.99 212.80,352.03 215.01,352.07 217.22,352.10 219.42,352.14 221.63,352.17 223.84,352.21 226.04,352.24 228.25,352.27 230.46,352.30 232.66,352.33 234.87,352.36 237.08,352.39 239.28,352.42 241.49,352.45 243.70,352.47 245.90,352.50 248.11,352.53 250.32,352.55 252.52,352.58 254.73,352.60 256.93,352.62 259.14,352.64 261.35,352.67 263.55,352.69 265.76,352.71 267.97,352.73 270.17,352.75 272.38,352.77 274.59,352.79 276.79,352.81 279.00,352.83 281.21,352.84 283.41,352.86 285.62,352.88 287.83,352.90 290.03,352.91 292.24,352.93 294.45,352.94 296.65,352.96 298.86,352.97 301.07,352.99 303.27,353.00 305.48,353.02 307.68,353.03 309.89,353.05 312.10,353.06 314.30,353.08 316.51,353.09 318.72,353.10 320.92,353.12 323.13,353.13 325.34,353.14 327.54,353.16 329.75,353.17 331.96,353.18 334.16,353.19 336.37,353.21 338.58,353.22 340.78,353.23 342.99,353.24 345.20,353.26 347.40,353.27 349.61,353.28 351.82,353.29 354.02,315.03 356.23,315.04 358.43,315.05 360.64,315.06 362.85,315.07 365.05,315.09 367.26,315.10 369.47,315.11 371.67,315.12 373.88,315.14 376.09,315.15 378.29,315.16 380.50,315.18 382.71,315.19 384.91,315.20 387.12,315.22 389.33,315.23 391.53,315.24 393.74,315.26 395.95,315.27 398.15,315.28 400.36,315.30 402.57,315.31 404.77,315.33 406.98,315.34 409.18,315.36 411.39,315.38 413.60,315.39 415.80,315.41 418.01,315.43 420.22,315.44 422.42,315.46 424.63,315.48 426.84,315.50 429.04,315.51 431.25,315.53 433.46,315.55 435.66,315.57 437.87,315.59 440.08,315.61 442.28,315.64 444.49,315.66 446.70,315.68 448.90,315.70 451.11,315.73 453.32,315.75 455.52,315.77 457.73,315.80 459.93,315.83 462.14,315.85 464.35,315.88 466.55,315.91 468.76,315.94 470.97,315.96 473.17,315.99 475.38,316.02 477.59,316.06 479.79,316.09 482.00,316.12 484.21,316.16 486.41,316.19 488.62,316.23 490.83,316.26 493.03,316.30 495.24,316.34 497.45,316.38 499.65,316.42 501.86,316.46 504.07,316.50 506.27,316.55 508.48,316.59 510.68,316.64 512.89,316.69 515.10,316.73 517.30,316.78 519.51,316.83 521.72,316.89 523.92,316.94 526.13,316.99 528.34,317.05 530.54,317.11 532.75,317.17 534.96,317.23 537.16,317.29 539.37,317.35 541.58,317.41 543.78,317.48 545.99,317.55 548.20,317.61 550.40,317.68 552.61,317.75 554.82,317.83 557.02,317.90 559.23,317.98 561.43,318.05 563.64,318.13 565.85,318.21 568.05,318.29 570.26,318.37 572.47,318.46 574.67,318.54 576.88,318.63 579.09,318.72 581.29,318.81 583.50,318.90 585.71,318.99 587.91,319.08 590.12,319.17 592.33,319.27 594.53,319.36 596.74,319.46 598.95,319.56 601.15,319.66 603.36,319.75 605.57,319.85 607.77,319.95 609.98,320.05 612.18,320.15 614.39,320.25 616.60,320.35 618.80,320.45 621.01,320.55 623.22,320.66 625.42,320.76 627.63,320.86 629.84,320.96 632.04,321.05 634.25,321.15 636.46,321.25 638.66,321.35 640.87,321.44 643.08,321.54 645.28,321.63 647.49,321.72 649.70,321.82 651.90,321.91 654.11,321.99 656.32,322.08 658.52,322.17 660.73,322.25 662.93,322.33 665.14,322.41 667.35,322.49 669.55,322.57 671.76,322.64 673.97,322.71 676.17,322.78 678.38,322.85 680.59,322.91 682.79,322.97 685.00,323.03 687.21,323.09 689.41,323.15 691.62,323.20 693.83,323.25 696.03,323.30 698.24,323.35 700.45,323.39 702.65,323.43 704.86,323.47 707.07,323.50 709.27,323.54 711.48,323.57 713.68,323.60 715.89,323.62 718.10,323.65 720.30,323.67 722.51,323.69 724.72,323.71 726.92,323.72 729.13,323.74 731.34,323.75 733.54,323.76 735.75,323.76 737.96,323.77 740.16,323.77 742.37,323.77 744.58,323.77 746.78,323.77 748.99,323.77 751.20,323.76 753.40,323.76 755.61,323.75 757.82,323.74 760.02,323.73 762.23,323.72 764.43,323.70 766.64,323.69 768.85,323.67 771.05,323.65 773.26,323.64 775.47,323.61 777.67,323.59 779.88,323.57 782.09,323.55 784.29,323.52 786.50,323.49 788.71,323.47 790.91,323.44 793.12,323.41 795.33,323.38 797.53,323.35 799.74,323.31 801.95,323.28 804.15,323.24 806.36,323.20 808.57,323.17 810.77,323.13 812.98,323.09 815.18,323.05 817.39,323.00 819.60,322.96 821.80,322.91 824.01,322.87 826.22,322.82 828.42,322.77 830.63,322.72 832.84,322.67 835.04,322.62 837.25,322.56 839.46,322.51 841.66,322.45 843.87,322.39 846.08,322.33 848.28,322.27 850.49,322.21 852.70,322.15 854.90,322.09 857.11,322.02 859.32,321.95 861.52,321.89 863.73,321.82 865.93,321.75 868.14,321.67 870.35,321.60 872.55,321.53 874.76,321.45 876.97,321.38 879.17,321.30 881.38,321.22 883.59,321.14 885.79,321.06 888.00,320.98" fill="none" stroke="#b54708" stroke-width="3" stroke-linejoin="round"/>
<rect x="670" y="62" width="190" height="70" rx="4" ry="4" fill="#fff" fill-opacity="0.82" stroke="#111" stroke-width="1"/>
<line x1="682" y1="78" x2="718" y2="78" stroke="#1665d8" stroke-width="3"/>
<text x="728" y="83" font-family="Arial, Helvetica, sans-serif" font-size="13" font-weight="400" text-anchor="start" fill="#111">gain, dB</text>
<line x1="682" y1="104" x2="718" y2="104" stroke="#b54708" stroke-width="3"/>
<text x="728" y="109" font-family="Arial, Helvetica, sans-serif" font-size="13" font-weight="400" text-anchor="start" fill="#111">phase, deg</text>
<text x="460" y="502" font-family="Arial, Helvetica, sans-serif" font-size="14" font-weight="400" text-anchor="middle" fill="#111">Frequency, Hz</text>
<text x="22" y="260" font-family="Arial, Helvetica, sans-serif" font-size="14" text-anchor="middle" fill="#111" transform="rotate(-90 22 260)">Gain dB / phase deg</text>
</svg>
