<svg xmlns="http://www.w3.org/2000/svg" width="920" height="520" viewBox="0 0 920 520">
<defs>
<style>
.wire{stroke:#111;stroke-width:2.6;fill:none;stroke-linecap:round;stroke-linejoin:round}
.thin{stroke:#a7b0bd;stroke-width:1.2;fill:none;stroke-linecap:round;stroke-linejoin:round}
.axis{stroke:#111;stroke-width:1.4;fill:none}
.blue{stroke:#1665d8;stroke-width:3;fill:none;stroke-linecap:round;stroke-linejoin:round}
.green{stroke:#13795b;stroke-width:3;fill:none;stroke-linecap:round;stroke-linejoin:round}
.orange{stroke:#b54708;stroke-width:3;fill:none;stroke-linecap:round;stroke-linejoin:round}
.node{fill:#111;stroke:none}
</style>
</defs>
<rect width="100%" height="100%" fill="#fff"/>
<text x="76" y="36" font-family="Arial, Helvetica, sans-serif" font-size="22" font-weight="700" text-anchor="start" fill="#111">Darlington sine-wave response, 1 kHz, Vin = 1000 mVpp</text>
<rect x="76" y="60" width="812" height="396" fill="#fff" stroke="#111" stroke-width="1.4"/>
<line x1="76" y1="60" x2="76" y2="456" class="thin"/>
<text x="76" y="479" font-family="Arial, Helvetica, sans-serif" font-size="12" font-weight="400" text-anchor="middle" fill="#111">0</text>
<line x1="279" y1="60" x2="279" y2="456" class="thin"/>
<text x="279" y="479" font-family="Arial, Helvetica, sans-serif" font-size="12" font-weight="400" text-anchor="middle" fill="#111">1</text>
<line x1="482" y1="60" x2="482" y2="456" class="thin"/>
<text x="482" y="479" font-family="Arial, Helvetica, sans-serif" font-size="12" font-weight="400" text-anchor="middle" fill="#111">2</text>
<line x1="685" y1="60" x2="685" y2="456" class="thin"/>
<text x="685" y="479" font-family="Arial, Helvetica, sans-serif" font-size="12" font-weight="400" text-anchor="middle" fill="#111">3</text>
<line x1="888" y1="60" x2="888" y2="456" class="thin"/>
<text x="888" y="479" font-family="Arial, Helvetica, sans-serif" font-size="12" font-weight="400" text-anchor="middle" fill="#111">4</text>
<line x1="76" y1="456" x2="888" y2="456" class="thin"/>
<text x="66" y="460" font-family="Arial, Helvetica, sans-serif" font-size="12" font-weight="400" text-anchor="end" fill="#111">-10000</text>
<line x1="76" y1="357" x2="888" y2="357" class="thin"/>
<text x="66" y="361" font-family="Arial, Helvetica, sans-serif" font-size="12" font-weight="400" text-anchor="end" fill="#111">-5000</text>
<line x1="76" y1="258" x2="888" y2="258" class="thin"/>
<text x="66" y="262" font-family="Arial, Helvetica, sans-serif" font-size="12" font-weight="400" text-anchor="end" fill="#111">0</text>
<line x1="76" y1="159" x2="888" y2="159" class="thin"/>
<text x="66" y="163" font-family="Arial, Helvetica, sans-serif" font-size="12" font-weight="400" text-anchor="end" fill="#111">5000</text>
<line x1="76" y1="60" x2="888" y2="60" class="thin"/>
<text x="66" y="64" font-family="Arial, Helvetica, sans-serif" font-size="12" font-weight="400" text-anchor="end" fill="#111">10000</text>
<polyline points="76.00,272.21 77.01,273.18 78.03,276.21 79.05,276.74 80.06,279.48 81.08,279.83 82.09,282.38 83.11,282.60 84.12,285.01 85.14,285.14 86.15,287.46 87.16,287.52 88.18,289.76 89.20,289.72 90.21,291.90 91.22,291.83 92.24,293.97 93.26,293.86 94.27,295.97 95.28,295.82 96.30,297.89 97.32,297.70 98.33,299.73 99.35,299.50 100.36,301.48 101.38,301.20 102.39,303.13 103.41,302.81 104.42,304.70 105.43,304.35 106.45,306.17 107.47,305.76 108.48,307.53 109.49,307.06 110.51,308.76 111.53,308.23 112.54,309.88 113.56,309.29 114.57,310.88 115.59,310.24 116.60,311.77 117.62,311.06 118.63,312.53 119.64,311.76 120.66,313.17 121.68,312.34 122.69,313.69 123.70,312.80 124.72,314.08 125.74,313.14 126.75,314.36 127.76,313.35 128.78,314.51 129.80,313.45 130.81,314.54 131.83,313.42 132.84,314.45 133.86,313.27 134.87,314.24 135.89,313.00 136.90,313.91 137.91,312.61 138.93,313.47 139.95,312.11 140.96,312.90 141.97,311.49 142.99,312.22 144.01,310.75 145.02,311.43 146.03,309.90 147.05,310.52 148.07,308.95 149.08,309.51 150.10,307.88 151.11,308.39 152.13,306.71 153.14,307.15 154.16,305.42 155.17,305.83 156.18,304.06 157.20,304.40 158.22,302.57 159.23,302.88 160.24,301.00 161.26,301.27 162.28,299.35 163.29,299.57 164.30,297.62 165.32,297.80 166.34,295.81 167.35,295.96 168.37,293.93 169.38,294.04 170.40,291.99 171.41,292.06 172.43,289.98 173.44,290.03 174.45,287.91 175.47,287.94 176.49,285.80 177.50,285.80 178.51,283.64 179.53,283.62 180.55,281.44 181.56,281.40 182.58,279.19 183.59,279.14 184.61,276.91 185.62,276.83 186.64,274.57 187.65,274.46 188.66,272.12 189.68,271.92 190.70,269.30 191.71,268.22 192.72,220.22 193.74,194.02 194.76,197.27 195.77,193.83 196.78,195.71 197.80,196.51 198.82,196.14 199.83,196.17 200.85,196.24 201.86,196.06 202.88,196.25 203.89,196.01 204.91,196.24 205.92,195.98 206.93,196.23 207.95,195.97 208.97,196.22 209.98,195.97 210.99,196.22 212.01,195.97 213.03,196.21 214.04,196.03 215.05,196.29 216.07,196.00 217.09,196.26 218.10,196.01 219.12,196.26 220.13,196.01 221.15,196.26 222.16,196.01 223.18,196.26 224.19,196.01 225.20,196.26 226.22,196.00 227.24,196.26 228.25,196.00 229.26,196.26 230.28,196.00 231.30,196.26 232.31,196.00 233.32,196.26 234.34,196.00 235.36,196.25 236.37,196.00 237.39,196.25 238.40,196.00 239.42,196.25 240.43,196.00 241.45,196.25 242.46,196.00 243.47,196.20 244.49,196.02 245.51,196.21 246.52,196.02 247.53,196.22 248.55,195.98 249.57,196.22 250.58,196.00 251.59,196.23 252.61,196.02 253.63,196.26 254.64,196.11 255.66,196.30 256.67,196.16 257.69,196.36 258.70,196.23 259.72,196.43 260.73,196.34 261.74,196.62 262.76,196.48 263.78,196.80 264.79,196.82 265.80,197.28 266.82,204.00 267.84,213.10 268.85,226.66 269.87,235.69 270.88,243.61 271.90,248.65 272.91,254.32 273.93,257.23 274.94,261.63 275.95,263.63 276.97,267.33 277.99,268.75 279.00,271.94 280.01,273.06 281.03,275.85 282.05,276.56 283.06,279.19 284.07,279.67 285.09,282.10 286.11,282.45 287.12,284.75 288.14,285.00 289.15,287.20 290.17,287.39 291.18,289.51 292.20,289.64 293.21,291.71 294.22,291.79 295.24,293.80 296.26,293.84 297.27,295.81 298.28,295.80 299.30,297.74 300.32,297.68 301.33,299.57 302.34,299.48 303.36,301.35 304.38,301.20 305.39,303.01 306.41,302.81 307.42,304.56 308.44,304.31 309.45,306.01 310.47,305.70 311.48,307.34 312.49,306.98 313.51,308.56 314.53,308.14 315.54,309.67 316.55,309.19 317.57,310.66 318.59,310.13 319.60,311.53 320.61,310.94 321.63,312.29 322.65,311.64 323.66,312.92 324.68,312.22 325.69,313.44 326.70,312.67 327.72,313.83 328.74,313.01 329.75,314.11 330.76,313.22 331.78,314.26 332.80,313.32 333.81,314.29 334.82,313.29 335.84,314.20 336.86,313.14 337.87,313.99 338.89,312.87 339.90,313.66 340.92,312.48 341.93,313.21 342.95,311.98 343.96,312.65 344.97,311.36 345.99,311.97 347.01,310.62 348.02,311.18 349.03,309.77 350.05,310.27 351.07,308.82 352.08,309.26 353.09,307.76 354.11,308.15 355.13,306.58 356.14,306.91 357.16,305.30 358.17,305.58 359.19,303.93 360.20,304.16 361.22,302.46 362.23,302.65 363.24,300.91 364.26,301.05 365.28,299.27 366.29,299.37 367.30,297.55 368.32,297.61 369.34,295.75 370.35,295.77 371.36,293.89 372.38,293.87 373.40,291.95 374.41,291.90 375.43,289.96 376.44,289.88 377.46,287.91 378.47,287.80 379.49,285.82 380.50,285.68 381.51,283.68 382.53,283.51 383.55,281.43 384.56,281.25 385.57,279.15 386.59,278.97 387.61,276.85 388.62,276.65 389.63,274.51 390.65,274.28 391.67,272.07 392.68,271.75 393.70,269.30 394.71,268.33 395.72,228.25 396.74,196.22 397.76,196.19 398.77,192.73 399.78,197.49 400.80,195.56 401.82,196.64 402.83,195.90 403.84,196.38 404.86,195.97 405.88,196.29 406.89,195.97 407.91,196.25 408.92,195.96 409.94,196.24 410.95,195.95 411.97,196.23 412.98,195.95 413.99,196.22 415.01,195.94 416.03,196.22 417.04,195.94 418.05,196.26 419.07,195.98 420.09,196.27 421.10,195.98 422.11,196.26 423.13,195.98 424.15,196.26 425.16,195.98 426.18,196.26 427.19,195.98 428.21,196.26 429.22,195.98 430.24,196.26 431.25,195.98 432.26,196.26 433.28,195.98 434.30,196.26 435.31,195.98 436.32,196.26 437.34,195.98 438.36,196.26 439.37,195.97 440.38,196.25 441.40,195.97 442.42,196.25 443.43,195.97 444.45,196.21 445.46,195.99 446.48,196.22 447.49,195.99 448.51,196.22 449.52,195.99 450.53,196.23 451.55,196.00 452.57,196.24 453.58,196.02 454.59,196.25 455.61,196.04 456.63,196.28 457.64,196.08 458.65,196.31 459.67,196.13 460.69,196.37 461.70,196.20 462.72,196.44 463.73,196.31 464.75,196.63 465.76,196.47 466.78,196.82 467.79,196.82 468.80,197.35 469.82,204.72 470.84,214.40 471.85,227.59 472.86,236.45 473.88,244.08 474.90,249.01 475.91,254.50 476.93,257.42 477.94,261.68 478.96,263.72 479.97,267.29 480.99,268.76 482.00,271.85 483.01,272.91 484.03,275.66 485.05,276.45 486.06,278.99 487.07,279.54 488.09,281.89 489.11,282.32 490.12,284.53 491.13,284.87 492.15,286.97 493.17,287.25 494.18,289.28 495.20,289.50 496.21,291.52 497.23,291.69 498.24,293.65 499.26,293.76 500.27,295.67 501.28,295.73 502.30,297.59 503.32,297.61 504.33,299.42 505.34,299.40 506.36,301.16 507.38,301.09 508.39,302.80 509.40,302.68 510.42,304.34 511.44,304.16 512.45,305.77 513.47,305.55 514.48,307.10 515.50,306.82 516.51,308.31 517.53,307.98 518.54,309.42 519.55,309.03 520.57,310.41 521.59,309.96 522.60,311.28 523.61,310.78 524.63,312.04 525.65,311.48 526.66,312.67 527.67,312.05 528.69,313.19 529.71,312.51 530.72,313.58 531.74,312.84 532.75,313.86 533.76,313.06 534.78,314.01 535.80,313.15 536.81,314.04 537.82,313.12 538.84,313.95 539.86,312.97 540.87,313.74 541.88,312.70 542.90,313.41 543.92,312.31 544.93,312.96 545.95,311.81 546.96,312.40 547.98,311.19 548.99,311.72 550.01,310.45 551.02,310.93 552.03,309.61 553.05,310.02 554.07,308.65 555.08,309.01 556.09,307.59 557.11,307.90 558.13,306.43 559.14,306.68 560.15,305.16 561.17,305.36 562.19,303.79 563.20,303.95 564.22,302.34 565.23,302.45 566.25,300.79 567.26,300.86 568.28,299.16 569.29,299.18 570.30,297.44 571.32,297.43 572.34,295.66 573.35,295.61 574.36,293.79 575.38,293.67 576.40,291.84 577.41,291.69 578.42,289.83 579.44,289.66 580.46,287.78 581.47,287.58 582.49,285.68 583.50,285.46 584.52,283.54 585.53,283.30 586.55,281.37 587.56,281.10 588.57,279.17 589.59,278.88 590.61,276.94 591.62,276.63 592.63,274.68 593.65,274.34 594.67,272.37 595.68,271.95 596.69,269.63 597.71,268.81 598.73,247.21 599.74,199.10 600.76,190.90 601.77,196.49 602.79,196.27 603.80,196.20 604.82,196.26 605.83,196.01 606.84,196.31 607.86,195.99 608.88,196.27 609.89,195.97 610.90,196.25 611.92,195.95 612.94,196.23 613.95,195.94 614.97,196.23 615.98,195.93 617.00,196.22 618.01,195.93 619.03,196.22 620.04,195.92 621.06,196.25 622.07,195.96 623.09,196.26 624.10,195.96 625.11,196.26 626.13,195.96 627.15,196.26 628.16,195.96 629.17,196.26 630.19,195.95 631.21,196.26 632.22,195.95 633.24,196.26 634.25,195.95 635.27,196.26 636.28,195.95 637.30,196.25 638.31,195.95 639.32,196.25 640.34,195.95 641.36,196.25 642.37,195.95 643.38,196.25 644.40,195.95 645.42,196.25 646.43,195.95 647.44,196.21 648.46,195.97 649.48,196.22 650.49,195.96 651.51,196.22 652.52,195.97 653.54,196.23 654.55,195.98 655.57,196.24 656.58,195.99 657.59,196.26 658.61,196.02 659.63,196.28 660.64,196.06 661.65,196.32 662.67,196.11 663.69,196.37 664.70,196.18 665.71,196.45 666.73,196.30 667.75,196.64 668.76,196.46 669.78,196.84 670.79,196.83 671.81,197.41 672.82,205.41 673.84,215.60 674.85,228.42 675.86,237.11 676.88,244.51 677.90,249.36 678.91,254.67 679.92,257.60 680.94,261.73 681.96,263.80 682.97,267.26 683.99,268.77 685.00,271.75 686.02,272.87 687.03,275.53 688.05,276.37 689.06,278.82 690.07,279.44 691.09,281.70 692.11,282.20 693.12,284.32 694.13,284.74 695.15,286.81 696.17,287.16 697.18,289.15 698.19,289.43 699.21,291.36 700.23,291.58 701.24,293.46 702.26,293.64 703.27,295.46 704.29,295.60 705.30,297.38 706.32,297.47 707.33,299.20 708.34,299.25 709.36,300.93 710.38,300.93 711.39,302.57 712.40,302.52 713.42,304.10 714.44,304.01 715.45,305.54 716.46,305.39 717.48,306.86 718.50,306.66 719.51,308.08 720.53,307.82 721.54,309.18 722.56,308.87 723.57,310.17 724.59,309.80 725.60,311.05 726.61,310.62 727.63,311.80 728.65,311.32 729.66,312.44 730.67,311.89 731.69,312.95 732.71,312.35 733.72,313.35 734.73,312.68 735.75,313.62 736.77,312.90 737.78,313.77 738.80,312.99 739.81,313.80 740.83,312.96 741.84,313.71 742.86,312.81 743.87,313.50 744.88,312.54 745.90,313.17 746.92,312.15 747.93,312.72 748.94,311.65 749.96,312.16 750.98,311.03 751.99,311.48 753.01,310.29 754.02,310.69 755.04,309.45 756.05,309.79 757.07,308.49 758.08,308.78 759.09,307.43 760.11,307.66 761.13,306.26 762.14,306.45 763.15,305.00 764.17,305.13 765.19,303.63 766.20,303.72 767.21,302.18 768.23,302.21 769.25,300.63 770.26,300.62 771.28,299.00 772.29,298.95 773.31,297.29 774.32,297.20 775.34,295.50 776.35,295.37 777.36,293.64 778.38,293.48 779.40,291.72 780.41,291.53 781.42,289.74 782.44,289.52 783.46,287.70 784.47,287.47 785.48,285.63 786.50,285.37 787.52,283.50 788.53,283.16 789.55,281.30 790.56,280.95 791.58,279.08 792.59,278.71 793.61,276.84 794.62,276.45 795.63,274.58 796.65,274.15 797.67,272.27 798.68,271.77 799.69,269.56 800.71,268.75 801.73,257.05 802.74,200.83 803.75,186.10 804.77,208.62 805.79,197.99 806.80,194.85 807.82,197.03 808.83,195.65 809.85,196.53 810.86,195.84 811.88,196.37 812.89,195.88 813.90,196.31 814.92,195.88 815.94,196.28 816.95,195.87 817.96,196.27 818.98,195.87 820.00,196.26 821.01,195.87 822.02,196.26 823.04,195.87 824.06,196.28 825.07,195.88 826.09,196.28 827.10,195.91 828.12,196.29 829.13,195.90 830.15,196.28 831.16,195.90 832.17,196.28 833.19,195.90 834.21,196.28 835.22,195.90 836.23,196.28 837.25,195.90 838.27,196.28 839.28,195.90 840.30,196.28 841.31,195.90 842.33,196.28 843.34,195.90 844.36,196.27 845.37,195.90 846.38,196.27 847.40,195.90 848.42,196.24 849.43,195.91 850.44,196.24 851.46,195.91 852.48,196.25 853.49,195.91 854.50,196.25 855.52,195.91 856.54,196.26 857.55,195.92 858.57,196.27 859.58,195.94 860.60,196.29 861.61,195.97 862.63,196.31 863.64,196.00 864.65,196.35 865.67,196.06 866.69,196.41 867.70,196.13 868.71,196.49 869.73,196.25 870.75,196.62 871.76,196.44 872.77,196.90 873.79,196.80 874.81,197.51 875.82,205.97 876.84,217.00 877.85,229.30 878.87,237.94 879.88,244.95 880.90,249.83 881.91,254.84 882.92,257.89 883.94,261.76 884.96,263.98 885.97,267.19 886.98,268.87" fill="none" stroke="#13795b" stroke-width="3" stroke-linejoin="round"/>
<polyline points="76.00,269.57 77.01,270.54 78.03,273.57 79.05,274.10 80.06,276.84 81.08,277.19 82.09,279.73 83.11,279.96 84.12,282.37 85.14,282.50 86.15,284.82 87.16,284.87 88.18,287.10 89.20,287.06 90.21,289.25 91.22,289.16 92.24,291.31 93.26,291.19 94.27,293.30 95.28,293.15 96.30,295.21 97.32,295.02 98.33,297.04 99.35,296.81 100.36,298.79 101.38,298.51 102.39,300.43 103.41,300.11 104.42,301.99 105.43,301.63 106.45,303.46 107.47,303.04 108.48,304.80 109.49,304.32 110.51,306.03 111.53,305.49 112.54,307.14 113.56,306.54 114.57,308.13 115.59,307.47 116.60,309.00 117.62,308.28 118.63,309.75 119.64,308.98 120.66,310.38 121.68,309.55 122.69,310.89 123.70,309.99 124.72,311.27 125.74,310.32 126.75,311.54 127.76,310.52 128.78,311.68 129.80,310.61 130.81,311.70 131.83,310.57 132.84,311.60 133.86,310.41 134.87,311.37 135.89,310.13 136.90,311.03 137.91,309.73 138.93,310.57 139.95,309.21 140.96,310.00 141.97,308.58 142.99,309.31 144.01,307.83 145.02,308.50 146.03,306.97 147.05,307.59 148.07,306.01 149.08,306.56 150.10,304.93 151.11,305.43 152.13,303.75 153.14,304.19 154.16,302.45 155.17,302.85 156.18,301.08 157.20,301.42 158.22,299.58 159.23,299.88 160.24,298.01 161.26,298.27 162.28,296.35 163.29,296.57 164.30,294.61 165.32,294.79 166.34,292.80 167.35,292.94 168.37,290.91 169.38,291.02 170.40,288.96 171.41,289.03 172.43,286.94 173.44,286.99 174.45,284.87 175.47,284.89 176.49,282.75 177.50,282.75 178.51,280.59 179.53,280.57 180.55,278.38 181.56,278.34 182.58,276.14 183.59,276.08 184.61,273.86 185.62,273.78 186.64,271.52 187.65,271.40 188.66,269.07 189.68,268.86 190.70,266.24 191.71,265.16 192.72,217.17 193.74,190.97 194.76,194.24 195.77,190.80 196.78,192.70 197.80,193.51 198.82,193.15 199.83,193.19 200.85,193.26 201.86,193.09 202.88,193.29 203.89,193.06 204.91,193.31 205.92,193.05 206.93,193.32 207.95,193.06 208.97,193.33 209.98,193.08 210.99,193.34 212.01,193.10 213.03,193.36 214.04,193.18 215.05,193.45 216.07,193.17 217.09,193.45 218.10,193.20 219.12,193.47 220.13,193.22 221.15,193.49 222.16,193.24 223.18,193.50 224.19,193.26 225.20,193.52 226.22,193.28 227.24,193.54 228.25,193.30 229.26,193.56 230.28,193.32 231.30,193.58 232.31,193.34 233.32,193.60 234.34,193.36 235.36,193.62 236.37,193.37 237.39,193.64 238.40,193.39 239.42,193.66 240.43,193.41 241.45,193.68 242.46,193.44 243.47,193.64 244.49,193.47 245.51,193.68 246.52,193.49 247.53,193.70 248.55,193.47 249.57,193.72 250.58,193.51 251.59,193.76 252.61,193.55 253.63,193.80 254.64,193.66 255.66,193.87 256.67,193.73 257.69,193.94 258.70,193.82 259.72,194.03 260.73,193.95 261.74,194.24 262.76,194.11 263.78,194.44 264.79,194.47 265.80,194.94 266.82,201.66 267.84,210.77 268.85,224.35 269.87,233.38 270.88,241.30 271.90,246.35 272.91,252.02 273.93,254.93 274.94,259.34 275.95,261.34 276.97,265.04 277.99,266.45 279.00,269.65 280.01,270.76 281.03,273.55 282.05,274.26 283.06,276.89 284.07,277.37 285.09,279.80 286.11,280.15 287.12,282.44 288.14,282.70 289.15,284.89 290.17,285.08 291.18,287.20 292.20,287.32 293.21,289.39 294.22,289.46 295.24,291.48 296.26,291.51 297.27,293.48 298.28,293.47 299.30,295.40 300.32,295.34 301.33,297.23 302.34,297.13 303.36,298.99 304.38,298.84 305.39,300.65 306.41,300.44 307.42,302.19 308.44,301.93 309.45,303.63 310.47,303.31 311.48,304.95 312.49,304.58 313.51,306.16 314.53,305.74 315.54,307.26 316.55,306.78 317.57,308.24 318.59,307.70 319.60,309.10 320.61,308.51 321.63,309.85 322.65,309.20 323.66,310.47 324.68,309.76 325.69,310.98 326.70,310.21 327.72,311.36 328.74,310.53 329.75,311.62 330.76,310.73 331.78,311.76 332.80,310.81 333.81,311.78 334.82,310.77 335.84,311.68 336.86,310.61 337.87,311.46 338.89,310.33 339.90,311.12 340.92,309.93 341.93,310.66 342.95,309.42 343.96,310.08 344.97,308.79 345.99,309.39 347.01,308.04 348.02,308.59 349.03,307.18 350.05,307.68 351.07,306.22 352.08,306.66 353.09,305.15 354.11,305.53 355.13,303.96 356.14,304.29 357.16,302.67 358.17,302.95 359.19,301.29 360.20,301.52 361.22,299.82 362.23,300.00 363.24,298.25 364.26,298.39 365.28,296.61 366.29,296.70 367.30,294.88 368.32,294.93 369.34,293.07 370.35,293.09 371.36,291.20 372.38,291.18 373.40,289.26 374.41,289.21 375.43,287.26 376.44,287.18 377.46,285.21 378.47,285.10 379.49,283.11 380.50,282.98 381.51,280.97 382.53,280.80 383.55,278.71 384.56,278.53 385.57,276.44 386.59,276.25 387.61,274.14 388.62,273.93 389.63,271.79 390.65,271.56 391.67,269.35 392.68,269.03 393.70,266.58 394.71,265.61 395.72,225.54 396.74,193.51 397.76,193.49 398.77,190.04 399.78,194.81 400.80,192.89 401.82,193.98 402.83,193.25 403.84,193.74 404.86,193.34 405.88,193.67 406.89,193.36 407.91,193.65 408.92,193.37 409.94,193.66 410.95,193.38 411.97,193.67 412.98,193.40 413.99,193.68 415.01,193.41 416.03,193.70 417.04,193.43 418.05,193.76 419.07,193.49 420.09,193.79 421.10,193.51 422.11,193.80 423.13,193.53 424.15,193.82 425.16,193.55 426.18,193.84 427.19,193.57 428.21,193.86 429.22,193.59 430.24,193.88 431.25,193.60 432.26,193.90 433.28,193.62 434.30,193.91 435.31,193.64 436.32,193.93 437.34,193.66 438.36,193.95 439.37,193.68 440.38,193.97 441.40,193.70 442.42,193.99 443.43,193.72 444.45,193.96 445.46,193.76 446.48,193.99 447.49,193.77 448.51,194.02 449.52,193.80 450.53,194.04 451.55,193.83 452.57,194.07 453.58,193.86 454.59,194.11 455.61,193.91 456.63,194.15 457.64,193.96 458.65,194.21 459.67,194.03 460.69,194.28 461.70,194.13 462.72,194.38 463.73,194.26 464.75,194.59 465.76,194.43 466.78,194.80 467.79,194.81 468.80,195.34 469.82,202.72 470.84,212.41 471.85,225.60 472.86,234.47 473.88,242.10 474.90,247.04 475.91,252.53 476.93,255.45 477.94,259.72 478.96,261.76 479.97,265.33 480.99,266.80 482.00,269.88 483.01,270.95 484.03,273.70 485.05,274.48 486.06,277.02 487.07,277.58 488.09,279.92 489.11,280.35 490.12,282.55 491.13,282.89 492.15,285.00 493.17,285.27 494.18,287.30 495.20,287.52 496.21,289.54 497.23,289.70 498.24,291.66 499.26,291.77 500.27,293.67 501.28,293.73 502.30,295.59 503.32,295.60 504.33,297.41 505.34,297.38 506.36,299.14 507.38,299.06 508.39,300.77 509.40,300.64 510.42,302.30 511.44,302.12 512.45,303.72 513.47,303.49 514.48,305.04 515.50,304.76 516.51,306.25 517.53,305.91 518.54,307.34 519.55,306.95 520.57,308.32 521.59,307.87 522.60,309.18 523.61,308.68 524.63,309.93 525.65,309.36 526.66,310.55 527.67,309.93 528.69,311.06 529.71,310.37 530.72,311.44 531.74,310.70 532.75,311.70 533.76,310.90 534.78,311.84 535.80,310.98 536.81,311.86 537.82,310.94 538.84,311.76 539.86,310.78 540.87,311.54 541.88,310.50 542.90,311.20 543.92,310.10 544.93,310.74 545.95,309.58 546.96,310.16 547.98,308.95 548.99,309.47 550.01,308.21 551.02,308.67 552.03,307.35 553.05,307.76 554.07,306.38 555.08,306.74 556.09,305.31 557.11,305.61 558.13,304.13 559.14,304.38 560.15,302.86 561.17,303.06 562.19,301.48 563.20,301.64 564.22,300.02 565.23,300.12 566.25,298.46 567.26,298.53 568.28,296.82 569.29,296.84 570.30,295.10 571.32,295.08 572.34,293.31 573.35,293.25 574.36,291.44 575.38,291.32 576.40,289.48 577.41,289.33 578.42,287.47 579.44,287.29 580.46,285.41 581.47,285.21 582.49,283.30 583.50,283.08 584.52,281.16 585.53,280.91 586.55,278.99 587.56,278.72 588.57,276.78 589.59,276.49 590.61,274.55 591.62,274.24 592.63,272.29 593.65,271.95 594.67,269.98 595.68,269.55 596.69,267.23 597.71,266.42 598.73,244.82 599.74,196.72 600.76,188.52 601.77,194.13 602.79,193.92 603.80,193.86 604.82,193.93 605.83,193.69 606.84,193.99 607.86,193.68 608.88,193.98 609.89,193.68 610.90,193.97 611.92,193.69 612.94,193.98 613.95,193.69 614.97,193.99 615.98,193.71 617.00,194.01 618.01,193.72 619.03,194.02 620.04,193.74 621.06,194.08 622.07,193.79 623.09,194.11 624.10,193.81 625.11,194.12 626.13,193.83 627.15,194.14 628.16,193.85 629.17,194.16 630.19,193.87 631.21,194.18 632.22,193.89 633.24,194.20 634.25,193.91 635.27,194.22 636.28,193.93 637.30,194.24 638.31,193.95 639.32,194.26 640.34,193.96 641.36,194.28 642.37,193.98 643.38,194.29 644.40,194.00 645.42,194.31 646.43,194.02 647.44,194.29 648.46,194.06 649.48,194.32 650.49,194.07 651.51,194.34 652.52,194.10 653.54,194.37 654.55,194.13 655.57,194.40 656.58,194.16 657.59,194.43 658.61,194.21 659.63,194.48 660.64,194.26 661.65,194.54 662.67,194.34 663.69,194.61 664.70,194.43 665.71,194.71 666.73,194.56 667.75,194.92 668.76,194.74 669.78,195.14 670.79,195.14 671.81,195.73 672.82,203.73 673.84,213.93 674.85,226.76 675.86,235.46 676.88,242.85 677.90,247.71 678.91,253.02 679.92,255.96 680.94,260.09 681.96,262.16 682.97,265.62 683.99,267.13 685.00,270.11 686.02,271.23 687.03,273.88 688.05,274.73 689.06,277.18 690.07,277.80 691.09,280.05 692.11,280.55 693.12,282.67 694.13,283.09 695.15,285.15 696.17,285.50 697.18,287.49 698.19,287.77 699.21,289.69 700.23,289.92 701.24,291.79 702.26,291.96 703.27,293.79 704.29,293.92 705.30,295.69 706.32,295.78 707.33,297.51 708.34,297.55 709.36,299.23 710.38,299.23 711.39,300.86 712.40,300.81 713.42,302.39 714.44,302.29 715.45,303.81 716.46,303.66 717.48,305.13 718.50,304.92 719.51,306.34 720.53,306.07 721.54,307.43 722.56,307.11 723.57,308.41 724.59,308.03 725.60,309.27 726.61,308.84 727.63,310.01 728.65,309.52 729.66,310.64 730.67,310.09 731.69,311.14 732.71,310.53 733.72,311.53 734.73,310.86 735.75,311.79 736.77,311.06 737.78,311.93 738.80,311.14 739.81,311.95 740.83,311.10 741.84,311.84 742.86,310.94 743.87,311.62 744.88,310.66 745.90,311.28 746.92,310.26 747.93,310.82 748.94,309.74 749.96,310.25 750.98,309.11 751.99,309.56 753.01,308.36 754.02,308.76 755.04,307.51 756.05,307.84 757.07,306.54 758.08,306.82 759.09,305.47 760.11,305.70 761.13,304.29 762.14,304.47 763.15,303.02 764.17,303.15 765.19,301.65 766.20,301.72 767.21,300.18 768.23,300.21 769.25,298.62 770.26,298.61 771.28,296.98 772.29,296.93 773.31,295.26 774.32,295.17 775.34,293.47 776.35,293.34 777.36,291.60 778.38,291.44 779.40,289.68 780.41,289.49 781.42,287.69 782.44,287.47 783.46,285.65 784.47,285.41 785.48,283.57 786.50,283.31 787.52,281.44 788.53,281.10 789.55,279.24 790.56,278.88 791.58,277.01 792.59,276.64 793.61,274.77 794.62,274.38 795.63,272.51 796.65,272.08 797.67,270.20 798.68,269.70 799.69,267.49 800.71,266.68 801.73,254.98 802.74,198.77 803.75,184.05 804.77,206.58 805.79,195.96 806.80,192.83 807.82,195.01 808.83,193.65 809.85,194.53 810.86,193.85 811.88,194.39 812.89,193.91 813.90,194.35 814.92,193.93 815.94,194.35 816.95,193.94 817.96,194.35 818.98,193.96 820.00,194.36 821.01,193.98 822.02,194.38 823.04,194.00 824.06,194.43 825.07,194.03 826.09,194.44 827.10,194.08 828.12,194.47 829.13,194.09 830.15,194.48 831.16,194.11 832.17,194.50 833.19,194.13 834.21,194.52 835.22,194.15 836.23,194.54 837.25,194.17 838.27,194.56 839.28,194.19 840.30,194.57 841.31,194.21 842.33,194.59 843.34,194.23 844.36,194.61 845.37,194.25 846.38,194.63 847.40,194.27 848.42,194.61 849.43,194.29 850.44,194.64 851.46,194.31 852.48,194.66 853.49,194.33 854.50,194.69 855.52,194.36 856.54,194.71 857.55,194.39 858.57,194.74 859.58,194.42 860.60,194.78 861.61,194.47 862.63,194.83 863.64,194.53 864.65,194.88 865.67,194.60 866.69,194.96 867.70,194.70 868.71,195.06 869.73,194.83 870.75,195.21 871.76,195.04 872.77,195.51 873.79,195.42 874.81,196.14 875.82,204.61 876.84,215.65 877.85,227.95 878.87,236.60 879.88,243.62 880.90,248.50 881.91,253.51 882.92,256.56 883.94,260.43 884.96,262.65 885.97,265.86 886.98,267.54" fill="none" stroke="#1665d8" stroke-width="3" stroke-linejoin="round"/>
<polyline points="76.00,255.34 77.01,252.24 78.03,249.14 79.05,246.04 80.06,242.96 81.08,239.90 82.09,236.85 83.11,233.82 84.12,230.82 85.14,227.84 86.15,224.89 87.16,221.98 88.18,219.10 89.20,216.26 90.21,213.46 91.22,210.70 92.24,208.00 93.26,205.34 94.27,202.73 95.28,200.18 96.30,197.68 97.32,195.25 98.33,192.87 99.35,190.56 100.36,188.32 101.38,186.14 102.39,184.04 103.41,182.01 104.42,180.05 105.43,178.18 106.45,176.38 107.47,174.66 108.48,173.02 109.49,171.47 110.51,170.00 111.53,168.62 112.54,167.32 113.56,166.12 114.57,165.01 115.59,163.99 116.60,163.06 117.62,162.22 118.63,161.48 119.64,160.84 120.66,160.29 121.68,159.84 122.69,159.48 123.70,159.22 124.72,159.06 125.74,159.00 126.75,159.04 127.76,159.17 128.78,159.40 129.80,159.72 130.81,160.15 131.83,160.67 132.84,161.29 133.86,162.00 134.87,162.81 135.89,163.71 136.90,164.70 137.91,165.79 138.93,166.96 139.95,168.23 140.96,169.59 141.97,171.03 142.99,172.56 144.01,174.17 145.02,175.86 146.03,177.64 147.05,179.50 148.07,181.43 149.08,183.44 150.10,185.52 151.11,187.68 152.13,189.90 153.14,192.19 154.16,194.55 155.17,196.96 156.18,199.44 157.20,201.98 158.22,204.57 159.23,207.21 160.24,209.91 161.26,212.65 162.28,215.44 163.29,218.27 164.30,221.13 165.32,224.04 166.34,226.98 167.35,229.94 168.37,232.94 169.38,235.96 170.40,239.00 171.41,242.06 172.43,245.14 173.44,248.23 174.45,251.33 175.47,254.44 176.49,257.55 177.50,260.66 178.51,263.76 179.53,266.86 180.55,269.96 181.56,273.04 182.58,276.10 183.59,279.15 184.61,282.18 185.62,285.18 186.64,288.16 187.65,291.11 188.66,294.02 189.68,296.90 190.70,299.74 191.71,302.54 192.72,305.30 193.74,308.00 194.76,310.66 195.77,313.27 196.78,315.82 197.80,318.32 198.82,320.75 199.83,323.13 200.85,325.44 201.86,327.68 202.88,329.86 203.89,331.96 204.91,333.99 205.92,335.95 206.93,337.82 207.95,339.62 208.97,341.34 209.98,342.98 210.99,344.53 212.01,346.00 213.03,347.38 214.04,348.68 215.05,349.88 216.07,350.99 217.09,352.01 218.10,352.94 219.12,353.78 220.13,354.52 221.15,355.16 222.16,355.71 223.18,356.16 224.19,356.52 225.20,356.78 226.22,356.94 227.24,357.00 228.25,356.96 229.26,356.83 230.28,356.60 231.30,356.28 232.31,355.85 233.32,355.33 234.34,354.71 235.36,354.00 236.37,353.19 237.39,352.29 238.40,351.30 239.42,350.21 240.43,349.04 241.45,347.77 242.46,346.41 243.47,344.97 244.49,343.44 245.51,341.83 246.52,340.14 247.53,338.36 248.55,336.50 249.57,334.57 250.58,332.56 251.59,330.48 252.61,328.32 253.63,326.10 254.64,323.81 255.66,321.45 256.67,319.04 257.69,316.56 258.70,314.02 259.72,311.43 260.73,308.79 261.74,306.09 262.76,303.35 263.78,300.56 264.79,297.73 265.80,294.87 266.82,291.96 267.84,289.02 268.85,286.06 269.87,283.06 270.88,280.04 271.90,277.00 272.91,273.94 273.93,270.86 274.94,267.77 275.95,264.67 276.97,261.56 277.99,258.45 279.00,255.34 280.01,252.24 281.03,249.14 282.05,246.04 283.06,242.96 284.07,239.90 285.09,236.85 286.11,233.82 287.12,230.82 288.14,227.84 289.15,224.89 290.17,221.98 291.18,219.10 292.20,216.26 293.21,213.46 294.22,210.70 295.24,208.00 296.26,205.34 297.27,202.73 298.28,200.18 299.30,197.68 300.32,195.25 301.33,192.87 302.34,190.56 303.36,188.32 304.38,186.14 305.39,184.04 306.41,182.01 307.42,180.05 308.44,178.18 309.45,176.38 310.47,174.66 311.48,173.02 312.49,171.47 313.51,170.00 314.53,168.62 315.54,167.32 316.55,166.12 317.57,165.01 318.59,163.99 319.60,163.06 320.61,162.22 321.63,161.48 322.65,160.84 323.66,160.29 324.68,159.84 325.69,159.48 326.70,159.22 327.72,159.06 328.74,159.00 329.75,159.04 330.76,159.17 331.78,159.40 332.80,159.72 333.81,160.15 334.82,160.67 335.84,161.29 336.86,162.00 337.87,162.81 338.89,163.71 339.90,164.70 340.92,165.79 341.93,166.96 342.95,168.23 343.96,169.59 344.97,171.03 345.99,172.56 347.01,174.17 348.02,175.86 349.03,177.64 350.05,179.50 351.07,181.43 352.08,183.44 353.09,185.52 354.11,187.68 355.13,189.90 356.14,192.19 357.16,194.55 358.17,196.96 359.19,199.44 360.20,201.98 361.22,204.57 362.23,207.21 363.24,209.91 364.26,212.65 365.28,215.44 366.29,218.27 367.30,221.13 368.32,224.04 369.34,226.98 370.35,229.94 371.36,232.94 372.38,235.96 373.40,239.00 374.41,242.06 375.43,245.14 376.44,248.23 377.46,251.33 378.47,254.44 379.49,257.55 380.50,260.66 381.51,263.76 382.53,266.86 383.55,269.96 384.56,273.04 385.57,276.10 386.59,279.15 387.61,282.18 388.62,285.18 389.63,288.16 390.65,291.11 391.67,294.02 392.68,296.90 393.70,299.74 394.71,302.54 395.72,305.30 396.74,308.00 397.76,310.66 398.77,313.27 399.78,315.82 400.80,318.32 401.82,320.75 402.83,323.13 403.84,325.44 404.86,327.68 405.88,329.86 406.89,331.96 407.91,333.99 408.92,335.95 409.94,337.82 410.95,339.62 411.97,341.34 412.98,342.98 413.99,344.53 415.01,346.00 416.03,347.38 417.04,348.68 418.05,349.88 419.07,350.99 420.09,352.01 421.10,352.94 422.11,353.78 423.13,354.52 424.15,355.16 425.16,355.71 426.18,356.16 427.19,356.52 428.21,356.78 429.22,356.94 430.24,357.00 431.25,356.96 432.26,356.83 433.28,356.60 434.30,356.28 435.31,355.85 436.32,355.33 437.34,354.71 438.36,354.00 439.37,353.19 440.38,352.29 441.40,351.30 442.42,350.21 443.43,349.04 444.45,347.77 445.46,346.41 446.48,344.97 447.49,343.44 448.51,341.83 449.52,340.14 450.53,338.36 451.55,336.50 452.57,334.57 453.58,332.56 454.59,330.48 455.61,328.32 456.63,326.10 457.64,323.81 458.65,321.45 459.67,319.04 460.69,316.56 461.70,314.02 462.72,311.43 463.73,308.79 464.75,306.09 465.76,303.35 466.78,300.56 467.79,297.73 468.80,294.87 469.82,291.96 470.84,289.02 471.85,286.06 472.86,283.06 473.88,280.04 474.90,277.00 475.91,273.94 476.93,270.86 477.94,267.77 478.96,264.67 479.97,261.56 480.99,258.45 482.00,255.34 483.01,252.24 484.03,249.14 485.05,246.04 486.06,242.96 487.07,239.90 488.09,236.85 489.11,233.82 490.12,230.82 491.13,227.84 492.15,224.89 493.17,221.98 494.18,219.10 495.20,216.26 496.21,213.46 497.23,210.70 498.24,208.00 499.26,205.34 500.27,202.73 501.28,200.18 502.30,197.68 503.32,195.25 504.33,192.87 505.34,190.56 506.36,188.32 507.38,186.14 508.39,184.04 509.40,182.01 510.42,180.05 511.44,178.18 512.45,176.38 513.47,174.66 514.48,173.02 515.50,171.47 516.51,170.00 517.53,168.62 518.54,167.32 519.55,166.12 520.57,165.01 521.59,163.99 522.60,163.06 523.61,162.22 524.63,161.48 525.65,160.84 526.66,160.29 527.67,159.84 528.69,159.48 529.71,159.22 530.72,159.06 531.74,159.00 532.75,159.04 533.76,159.17 534.78,159.40 535.80,159.72 536.81,160.15 537.82,160.67 538.84,161.29 539.86,162.00 540.87,162.81 541.88,163.71 542.90,164.70 543.92,165.79 544.93,166.96 545.95,168.23 546.96,169.59 547.98,171.03 548.99,172.56 550.01,174.17 551.02,175.86 552.03,177.64 553.05,179.50 554.07,181.43 555.08,183.44 556.09,185.52 557.11,187.68 558.13,189.90 559.14,192.19 560.15,194.55 561.17,196.96 562.19,199.44 563.20,201.98 564.22,204.57 565.23,207.21 566.25,209.91 567.26,212.65 568.28,215.44 569.29,218.27 570.30,221.13 571.32,224.04 572.34,226.98 573.35,229.94 574.36,232.94 575.38,235.96 576.40,239.00 577.41,242.06 578.42,245.14 579.44,248.23 580.46,251.33 581.47,254.44 582.49,257.55 583.50,260.66 584.52,263.76 585.53,266.86 586.55,269.96 587.56,273.04 588.57,276.10 589.59,279.15 590.61,282.18 591.62,285.18 592.63,288.16 593.65,291.11 594.67,294.02 595.68,296.90 596.69,299.74 597.71,302.54 598.73,305.30 599.74,308.00 600.76,310.66 601.77,313.27 602.79,315.82 603.80,318.32 604.82,320.75 605.83,323.13 606.84,325.44 607.86,327.68 608.88,329.86 609.89,331.96 610.90,333.99 611.92,335.95 612.94,337.82 613.95,339.62 614.97,341.34 615.98,342.98 617.00,344.53 618.01,346.00 619.03,347.38 620.04,348.68 621.06,349.88 622.07,350.99 623.09,352.01 624.10,352.94 625.11,353.78 626.13,354.52 627.15,355.16 628.16,355.71 629.17,356.16 630.19,356.52 631.21,356.78 632.22,356.94 633.24,357.00 634.25,356.96 635.27,356.83 636.28,356.60 637.30,356.28 638.31,355.85 639.32,355.33 640.34,354.71 641.36,354.00 642.37,353.19 643.38,352.29 644.40,351.30 645.42,350.21 646.43,349.04 647.44,347.77 648.46,346.41 649.48,344.97 650.49,343.44 651.51,341.83 652.52,340.14 653.54,338.36 654.55,336.50 655.57,334.57 656.58,332.56 657.59,330.48 658.61,328.32 659.63,326.10 660.64,323.81 661.65,321.45 662.67,319.04 663.69,316.56 664.70,314.02 665.71,311.43 666.73,308.79 667.75,306.09 668.76,303.35 669.78,300.56 670.79,297.73 671.81,294.87 672.82,291.96 673.84,289.02 674.85,286.06 675.86,283.06 676.88,280.04 677.90,277.00 678.91,273.94 679.92,270.86 680.94,267.77 681.96,264.67 682.97,261.56 683.99,258.45 685.00,255.34 686.02,252.24 687.03,249.14 688.05,246.04 689.06,242.96 690.07,239.90 691.09,236.85 692.11,233.82 693.12,230.82 694.13,227.84 695.15,224.89 696.17,221.98 697.18,219.10 698.19,216.26 699.21,213.46 700.23,210.70 701.24,208.00 702.26,205.34 703.27,202.73 704.29,200.18 705.30,197.68 706.32,195.25 707.33,192.87 708.34,190.56 709.36,188.32 710.38,186.14 711.39,184.04 712.40,182.01 713.42,180.05 714.44,178.18 715.45,176.38 716.46,174.66 717.48,173.02 718.50,171.47 719.51,170.00 720.53,168.62 721.54,167.32 722.56,166.12 723.57,165.01 724.59,163.99 725.60,163.06 726.61,162.22 727.63,161.48 728.65,160.84 729.66,160.29 730.67,159.84 731.69,159.48 732.71,159.22 733.72,159.06 734.73,159.00 735.75,159.04 736.77,159.17 737.78,159.40 738.80,159.72 739.81,160.15 740.83,160.67 741.84,161.29 742.86,162.00 743.87,162.81 744.88,163.71 745.90,164.70 746.92,165.79 747.93,166.96 748.94,168.23 749.96,169.59 750.98,171.03 751.99,172.56 753.01,174.17 754.02,175.86 755.04,177.64 756.05,179.50 757.07,181.43 758.08,183.44 759.09,185.52 760.11,187.68 761.13,189.90 762.14,192.19 763.15,194.55 764.17,196.96 765.19,199.44 766.20,201.98 767.21,204.57 768.23,207.21 769.25,209.91 770.26,212.65 771.28,215.44 772.29,218.27 773.31,221.13 774.32,224.04 775.34,226.98 776.35,229.94 777.36,232.94 778.38,235.96 779.40,239.00 780.41,242.06 781.42,245.14 782.44,248.23 783.46,251.33 784.47,254.44 785.48,257.55 786.50,260.66 787.52,263.76 788.53,266.86 789.55,269.96 790.56,273.04 791.58,276.10 792.59,279.15 793.61,282.18 794.62,285.18 795.63,288.16 796.65,291.11 797.67,294.02 798.68,296.90 799.69,299.74 800.71,302.54 801.73,305.30 802.74,308.00 803.75,310.66 804.77,313.27 805.79,315.82 806.80,318.32 807.82,320.75 808.83,323.13 809.85,325.44 810.86,327.68 811.88,329.86 812.89,331.96 813.90,333.99 814.92,335.95 815.94,337.82 816.95,339.62 817.96,341.34 818.98,342.98 820.00,344.53 821.01,346.00 822.02,347.38 823.04,348.68 824.06,349.88 825.07,350.99 826.09,352.01 827.10,352.94 828.12,353.78 829.13,354.52 830.15,355.16 831.16,355.71 832.17,356.16 833.19,356.52 834.21,356.78 835.22,356.94 836.23,357.00 837.25,356.96 838.27,356.83 839.28,356.60 840.30,356.28 841.31,355.85 842.33,355.33 843.34,354.71 844.36,354.00 845.37,353.19 846.38,352.29 847.40,351.30 848.42,350.21 849.43,349.04 850.44,347.77 851.46,346.41 852.48,344.97 853.49,343.44 854.50,341.83 855.52,340.14 856.54,338.36 857.55,336.50 858.57,334.57 859.58,332.56 860.60,330.48 861.61,328.32 862.63,326.10 863.64,323.81 864.65,321.45 865.67,319.04 866.69,316.56 867.70,314.02 868.71,311.43 869.73,308.79 870.75,306.09 871.76,303.35 872.77,300.56 873.79,297.73 874.81,294.87 875.82,291.96 876.84,289.02 877.85,286.06 878.87,283.06 879.88,280.04 880.90,277.00 881.91,273.94 882.92,270.86 883.94,267.77 884.96,264.67 885.97,261.56 886.98,258.45" fill="none" stroke="#b54708" stroke-width="3" stroke-linejoin="round"/>
<rect x="670" y="62" width="190" height="96" rx="4" ry="4" fill="#fff" fill-opacity="0.82" stroke="#111" stroke-width="1"/>
<line x1="682" y1="78" x2="718" y2="78" stroke="#13795b" stroke-width="3"/>
<text x="728" y="83" font-family="Arial, Helvetica, sans-serif" font-size="13" font-weight="400" text-anchor="start" fill="#111">amp out AC</text>
<line x1="682" y1="104" x2="718" y2="104" stroke="#1665d8" stroke-width="3"/>
<text x="728" y="109" font-family="Arial, Helvetica, sans-serif" font-size="13" font-weight="400" text-anchor="start" fill="#111">load output</text>
<line x1="682" y1="130" x2="718" y2="130" stroke="#b54708" stroke-width="3"/>
<text x="728" y="135" font-family="Arial, Helvetica, sans-serif" font-size="13" font-weight="400" text-anchor="start" fill="#111">input x10</text>
<text x="460" y="502" font-family="Arial, Helvetica, sans-serif" font-size="14" font-weight="400" text-anchor="middle" fill="#111">Time after 40 ms settling, ms</text>
<text x="22" y="260" font-family="Arial, Helvetica, sans-serif" font-size="14" text-anchor="middle" fill="#111" transform="rotate(-90 22 260)">AC voltage, mV</text>
</svg>
