<svg xmlns="http://www.w3.org/2000/svg" width="920" height="520" viewBox="0 0 920 520">
<defs>
<style>
.wire{stroke:#111;stroke-width:2.6;fill:none;stroke-linecap:round;stroke-linejoin:round}
.thin{stroke:#a7b0bd;stroke-width:1.2;fill:none;stroke-linecap:round;stroke-linejoin:round}
.axis{stroke:#111;stroke-width:1.4;fill:none}
.blue{stroke:#1665d8;stroke-width:3;fill:none;stroke-linecap:round;stroke-linejoin:round}
.green{stroke:#13795b;stroke-width:3;fill:none;stroke-linecap:round;stroke-linejoin:round}
.orange{stroke:#b54708;stroke-width:3;fill:none;stroke-linecap:round;stroke-linejoin:round}
.node{fill:#111;stroke:none}
</style>
</defs>
<rect width="100%" height="100%" fill="#fff"/>
<text x="76" y="36" font-family="Arial, Helvetica, sans-serif" font-size="22" font-weight="700" text-anchor="start" fill="#111">Darlington square response, 1 kHz, Vin = 1000 mVpp</text>
<rect x="76" y="60" width="812" height="396" fill="#fff" stroke="#111" stroke-width="1.4"/>
<line x1="76" y1="60" x2="76" y2="456" class="thin"/>
<text x="76" y="479" font-family="Arial, Helvetica, sans-serif" font-size="12" font-weight="400" text-anchor="middle" fill="#111">0</text>
<line x1="279" y1="60" x2="279" y2="456" class="thin"/>
<text x="279" y="479" font-family="Arial, Helvetica, sans-serif" font-size="12" font-weight="400" text-anchor="middle" fill="#111">1</text>
<line x1="482" y1="60" x2="482" y2="456" class="thin"/>
<text x="482" y="479" font-family="Arial, Helvetica, sans-serif" font-size="12" font-weight="400" text-anchor="middle" fill="#111">2</text>
<line x1="685" y1="60" x2="685" y2="456" class="thin"/>
<text x="685" y="479" font-family="Arial, Helvetica, sans-serif" font-size="12" font-weight="400" text-anchor="middle" fill="#111">3</text>
<line x1="888" y1="60" x2="888" y2="456" class="thin"/>
<text x="888" y="479" font-family="Arial, Helvetica, sans-serif" font-size="12" font-weight="400" text-anchor="middle" fill="#111">4</text>
<line x1="76" y1="456" x2="888" y2="456" class="thin"/>
<text x="66" y="460" font-family="Arial, Helvetica, sans-serif" font-size="12" font-weight="400" text-anchor="end" fill="#111">-10</text>
<line x1="76" y1="357" x2="888" y2="357" class="thin"/>
<text x="66" y="361" font-family="Arial, Helvetica, sans-serif" font-size="12" font-weight="400" text-anchor="end" fill="#111">-5</text>
<line x1="76" y1="258" x2="888" y2="258" class="thin"/>
<text x="66" y="262" font-family="Arial, Helvetica, sans-serif" font-size="12" font-weight="400" text-anchor="end" fill="#111">0</text>
<line x1="76" y1="159" x2="888" y2="159" class="thin"/>
<text x="66" y="163" font-family="Arial, Helvetica, sans-serif" font-size="12" font-weight="400" text-anchor="end" fill="#111">5</text>
<line x1="76" y1="60" x2="888" y2="60" class="thin"/>
<text x="66" y="64" font-family="Arial, Helvetica, sans-serif" font-size="12" font-weight="400" text-anchor="end" fill="#111">10</text>
<polyline points="76.00,170.17 76.02,170.19 76.06,170.19 76.13,170.33 76.20,174.80 76.21,175.24 76.22,175.60 76.23,175.93 76.24,176.32 76.25,176.76 76.27,177.28 76.29,178.08 76.32,179.35 76.39,181.73 76.52,186.56 76.77,196.02 77.17,210.82 77.57,224.05 77.96,233.60 78.36,241.31 78.76,248.11 79.15,254.21 79.55,259.74 79.94,264.73 80.34,269.28 80.74,273.40 81.13,277.16 81.53,280.58 81.93,283.70 82.32,286.54 82.72,289.14 83.12,291.50 83.51,293.66 83.91,295.63 84.31,297.44 84.70,299.09 85.10,300.60 85.50,301.98 85.89,303.25 86.29,304.40 86.69,305.46 87.08,306.43 87.48,307.32 87.87,308.13 88.27,308.88 88.67,309.56 89.06,310.19 89.46,310.76 89.86,311.29 90.25,311.77 90.65,312.22 91.05,312.62 91.44,313.00 91.84,313.33 92.24,313.66 92.63,313.94 93.03,314.21 93.43,314.44 93.82,314.67 94.22,314.87 94.61,315.07 95.01,315.23 95.41,315.40 95.80,315.54 96.20,315.68 96.60,315.79 96.99,315.91 97.39,316.01 97.79,316.11 98.18,316.19 98.58,316.27 98.98,316.34 99.37,316.41 99.77,316.47 100.17,316.53 100.56,316.57 100.96,316.63 101.35,316.66 101.75,316.71 102.15,316.74 102.54,316.78 102.94,316.80 103.34,316.83 103.73,316.85 104.13,316.88 104.53,316.89 104.92,316.92 105.32,316.93 105.72,316.95 106.11,316.96 106.51,316.98 106.91,316.98 107.30,317.00 107.70,317.00 108.10,317.01 108.49,317.01 108.89,317.02 109.28,317.02 109.68,317.03 110.08,317.03 110.47,317.03 110.87,317.03 111.27,317.04 111.66,317.03 112.06,317.04 112.46,317.03 112.85,317.04 113.25,317.03 113.65,317.03 114.04,317.02 114.44,317.03 114.84,317.02 115.23,317.02 115.63,317.01 116.02,317.02 116.42,317.01 116.82,317.01 117.21,317.00 117.61,317.00 118.01,316.99 118.40,317.00 118.80,316.99 119.20,316.99 119.59,316.98 119.99,316.98 120.39,316.97 120.78,316.97 121.18,316.96 121.58,316.97 121.97,316.96 122.37,316.96 122.77,316.95 123.16,316.95 123.56,316.94 123.95,316.94 124.35,316.93 124.75,316.93 125.14,316.92 125.54,316.93 125.94,316.92 126.33,316.92 126.73,316.91 127.13,316.91 127.52,316.90 127.92,316.90 128.32,316.89 128.71,316.89 129.11,316.88 129.51,316.89 129.90,316.88 130.30,316.88 130.69,316.87 131.09,316.87 131.49,316.86 131.88,316.86 132.28,316.85 132.68,316.85 133.07,316.84 133.47,316.84 133.87,316.83 134.26,316.84 134.66,316.83 135.06,316.83 135.45,316.82 135.85,316.82 136.25,316.81 136.64,316.81 137.04,316.80 137.44,316.80 137.83,316.79 138.23,316.80 138.62,316.79 139.02,316.79 139.42,316.78 139.81,316.78 140.21,316.77 140.61,316.77 141.00,316.76 141.40,316.76 141.80,316.75 142.19,316.76 142.59,316.75 142.99,316.75 143.38,316.74 143.78,316.74 144.18,316.73 144.57,316.73 144.97,316.72 145.36,316.72 145.76,316.71 146.16,316.71 146.55,316.70 146.95,316.71 147.35,316.70 147.74,316.70 148.14,316.69 148.54,316.69 148.93,316.68 149.33,316.68 149.73,316.67 150.12,316.67 150.52,316.66 150.92,316.67 151.31,316.66 151.71,316.66 152.10,316.65 152.50,316.65 152.90,316.64 153.29,316.64 153.69,316.63 154.09,316.63 154.48,316.62 154.88,316.63 155.28,316.62 155.67,316.62 156.07,316.61 156.47,316.61 156.86,316.60 157.26,316.60 157.66,316.59 158.05,316.59 158.45,316.58 158.85,316.58 159.24,316.58 159.64,316.58 160.03,316.57 160.43,316.57 160.83,316.56 161.22,316.56 161.62,316.55 162.02,316.55 162.41,316.54 162.81,316.54 163.21,316.53 163.60,316.54 164.00,316.53 164.40,316.53 164.79,316.52 165.19,316.52 165.59,316.51 165.98,316.51 166.38,316.50 166.77,316.50 167.17,316.49 167.57,316.50 167.96,316.49 168.36,316.49 168.76,316.48 169.15,316.48 169.55,316.47 169.95,316.47 170.34,316.46 170.74,316.46 171.14,316.45 171.53,316.45 171.93,316.45 172.33,316.45 172.72,316.44 173.12,316.44 173.52,316.43 173.91,316.43 174.31,316.42 174.70,316.42 175.10,316.41 175.50,316.41 175.89,316.41 176.29,316.41 176.69,316.40 177.08,316.40 177.39,316.39 177.70,316.39 177.72,316.06 177.76,315.32 177.83,313.93 177.91,312.99 177.91,312.88 177.93,312.65 177.97,312.20 178.04,311.30 178.18,309.58 178.46,306.32 178.86,302.21 179.26,298.55 179.65,295.17 180.05,292.04 180.45,289.15 180.84,286.48 181.24,283.99 181.64,281.69 182.03,279.55 182.43,277.56 182.82,275.70 183.22,273.97 183.62,272.36 184.01,270.86 184.41,269.46 184.81,268.15 185.20,266.92 185.60,265.78 186.00,264.70 186.39,263.70 186.79,262.76 187.19,261.88 187.58,261.06 187.98,260.28 188.38,259.39 188.77,258.54 189.17,257.65 189.56,252.15 189.96,219.76 190.36,180.61 190.75,169.79 191.15,157.71 191.55,167.32 191.94,170.23 192.34,169.08 192.74,170.12 193.13,169.11 193.53,170.08 193.93,169.02 194.32,170.10 194.72,169.05 195.12,170.10 195.51,169.06 195.91,170.11 196.31,169.07 196.70,170.12 197.10,169.08 197.49,170.12 197.89,169.09 198.29,170.13 198.68,169.10 199.08,170.14 199.48,169.11 199.87,170.15 200.27,169.12 200.67,170.15 201.06,169.13 201.46,170.16 201.86,169.13 202.25,170.17 202.65,169.14 203.05,170.18 203.44,169.15 203.84,170.19 204.23,169.16 204.63,170.19 205.03,169.17 205.42,170.20 205.82,169.18 206.22,170.21 206.61,169.19 207.01,170.22 207.41,169.20 207.80,170.23 208.20,169.21 208.60,170.23 208.99,169.22 209.39,170.24 209.79,169.23 210.18,170.25 210.58,169.24 210.98,170.26 211.37,169.25 211.77,170.26 212.16,169.26 212.56,170.27 212.96,169.27 213.35,170.28 213.75,169.28 214.15,170.29 214.54,169.29 214.94,170.30 215.34,169.30 215.73,170.30 216.13,169.31 216.53,170.31 216.92,169.31 217.32,170.32 217.72,169.32 218.11,170.33 218.51,169.33 218.90,170.34 219.30,169.34 219.70,170.34 220.09,169.35 220.49,170.35 220.89,169.36 221.28,170.36 221.68,169.37 222.08,170.37 222.47,169.38 222.87,170.38 223.27,169.39 223.66,170.38 224.06,169.40 224.46,170.39 224.85,169.41 225.25,170.40 225.65,169.42 226.04,170.41 226.44,169.43 226.83,170.41 227.23,169.44 227.63,170.42 228.02,169.45 228.42,170.43 228.82,169.46 229.21,170.44 229.61,169.47 230.01,170.45 230.40,169.48 230.80,170.45 231.20,169.48 231.59,170.46 231.99,169.49 232.39,170.47 232.78,169.50 233.18,170.48 233.57,169.51 233.97,170.49 234.37,169.52 234.76,170.49 235.16,169.53 235.56,170.50 235.95,169.54 236.35,170.51 236.75,169.55 237.14,170.52 237.54,169.56 237.94,170.53 238.33,169.57 238.73,170.53 239.13,169.58 239.52,170.54 239.92,169.59 240.31,170.55 240.71,169.60 241.11,170.56 241.50,169.61 241.90,170.57 242.30,169.62 242.69,170.57 243.09,169.63 243.49,170.58 243.88,169.64 244.28,170.59 244.68,169.64 245.07,170.60 245.47,169.65 245.87,170.60 246.26,169.66 246.66,170.61 247.06,169.67 247.45,170.62 247.85,169.68 248.24,170.63 248.64,169.69 249.04,170.64 249.43,169.70 249.83,170.64 250.23,169.71 250.62,170.65 251.02,169.72 251.42,170.66 251.81,169.73 252.21,170.67 252.61,169.74 253.00,170.68 253.40,169.75 253.80,170.68 254.19,169.76 254.59,170.69 254.98,169.77 255.38,170.70 255.78,169.78 256.17,170.71 256.57,169.79 256.97,170.72 257.36,169.80 257.76,170.72 258.16,169.80 258.55,170.73 258.95,169.81 259.35,170.74 259.74,169.82 260.14,170.75 260.54,169.83 260.93,170.76 261.33,169.84 261.73,170.76 262.12,169.85 262.52,170.77 262.91,169.86 263.31,170.78 263.71,169.87 264.10,170.79 264.50,169.88 264.90,170.80 265.29,169.89 265.69,170.80 266.09,169.90 266.48,170.81 266.88,169.91 267.28,170.82 267.67,169.92 268.07,170.83 268.47,169.93 268.86,170.83 269.26,169.94 269.65,170.84 270.05,169.95 270.45,170.85 270.84,169.95 271.24,170.86 271.64,169.96 272.03,170.87 272.43,169.97 272.83,170.87 273.22,169.98 273.62,170.88 274.02,169.99 274.41,170.89 274.81,170.00 275.21,170.90 275.60,170.01 276.00,170.91 276.40,170.02 276.79,170.91 277.19,170.03 277.58,170.92 277.98,170.04 278.38,170.93 278.69,170.05 279.00,170.94 279.02,170.48 279.06,170.47 279.11,170.54 279.15,170.77 279.20,175.03 279.20,174.98 279.21,175.02 279.21,175.15 279.21,175.31 279.22,175.51 279.23,175.86 279.25,176.63 279.29,178.19 279.37,181.55 279.54,188.63 279.87,203.02 280.27,223.25 280.66,235.02 281.06,250.49 281.46,257.23 281.85,262.73 282.25,267.43 282.64,271.67 283.04,275.59 283.44,279.08 283.83,282.33 284.23,285.22 284.63,287.92 285.02,290.32 285.42,292.58 285.82,294.57 286.21,296.46 286.61,298.13 287.01,299.71 287.40,301.10 287.80,302.43 288.20,303.59 288.59,304.72 288.99,305.69 289.38,306.64 289.78,307.45 290.18,308.25 290.57,308.93 290.97,309.61 291.37,310.18 291.76,310.76 292.16,311.23 292.56,311.72 292.95,312.12 293.35,312.54 293.75,312.87 294.14,313.23 294.54,313.50 294.94,313.81 295.33,314.04 295.73,314.30 296.12,314.49 296.52,314.72 296.92,314.87 297.31,315.07 297.71,315.20 298.11,315.37 298.50,315.47 298.90,315.62 299.30,315.70 299.69,315.83 300.09,315.90 300.49,316.01 300.88,316.06 301.28,316.17 301.68,316.20 302.07,316.29 302.47,316.32 302.87,316.40 303.26,316.42 303.66,316.49 304.05,316.50 304.45,316.57 304.85,316.57 305.24,316.63 305.64,316.63 306.04,316.68 306.43,316.68 306.83,316.73 307.23,316.72 307.62,316.76 308.02,316.75 308.42,316.79 308.81,316.77 309.21,316.82 309.61,316.80 310.00,316.83 310.40,316.81 310.79,316.85 311.19,316.82 311.59,316.86 311.98,316.83 312.38,316.87 312.78,316.84 313.17,316.87 313.57,316.84 313.97,316.87 314.36,316.84 314.76,316.87 315.16,316.84 315.55,316.87 315.95,316.84 316.35,316.87 316.74,316.84 317.14,316.86 317.54,316.83 317.93,316.86 318.33,316.83 318.72,316.85 319.12,316.82 319.52,316.85 319.91,316.81 320.31,316.84 320.71,316.81 321.10,316.83 321.50,316.80 321.90,316.82 322.29,316.79 322.69,316.82 323.09,316.78 323.48,316.81 323.88,316.78 324.28,316.80 324.67,316.77 325.07,316.79 325.46,316.76 325.86,316.78 326.26,316.75 326.65,316.78 327.05,316.74 327.45,316.77 327.84,316.74 328.24,316.76 328.64,316.73 329.03,316.75 329.43,316.72 329.83,316.74 330.22,316.71 330.62,316.73 331.02,316.70 331.41,316.73 331.81,316.70 332.21,316.72 332.60,316.69 333.00,316.71 333.39,316.68 333.79,316.70 334.19,316.67 334.58,316.69 334.98,316.66 335.38,316.69 335.77,316.66 336.17,316.68 336.57,316.65 336.96,316.67 337.36,316.64 337.76,316.66 338.15,316.63 338.55,316.65 338.95,316.62 339.34,316.65 339.74,316.62 340.13,316.64 340.53,316.61 340.93,316.63 341.32,316.60 341.72,316.62 342.12,316.59 342.51,316.61 342.91,316.58 343.31,316.60 343.70,316.57 344.10,316.60 344.50,316.57 344.89,316.59 345.29,316.56 345.69,316.58 346.08,316.55 346.48,316.57 346.87,316.54 347.27,316.56 347.67,316.53 348.06,316.56 348.46,316.53 348.86,316.55 349.25,316.52 349.65,316.54 350.05,316.51 350.44,316.53 350.84,316.50 351.24,316.52 351.63,316.49 352.03,316.52 352.43,316.49 352.82,316.51 353.22,316.48 353.62,316.50 354.01,316.47 354.41,316.49 354.80,316.46 355.20,316.48 355.60,316.45 355.99,316.47 356.39,316.45 356.79,316.47 357.18,316.44 357.58,316.46 357.98,316.43 358.37,316.45 358.77,316.42 359.17,316.44 359.56,316.41 359.96,316.43 360.36,316.41 360.75,316.43 361.15,316.40 361.54,316.42 361.94,316.39 362.34,316.41 362.73,316.38 363.13,316.40 363.53,316.37 363.92,316.39 364.32,316.37 364.72,316.39 365.11,316.36 365.51,316.38 365.91,316.35 366.30,316.37 366.70,316.34 367.10,316.36 367.49,316.33 367.89,316.35 368.29,316.33 368.68,316.35 369.08,316.32 369.47,316.34 369.87,316.31 370.27,316.33 370.66,316.30 371.06,316.32 371.46,316.29 371.85,316.31 372.25,316.29 372.65,316.30 373.04,316.28 373.44,316.30 373.84,316.27 374.23,316.29 374.63,316.26 375.03,316.28 375.42,316.25 375.82,316.27 376.21,316.25 376.61,316.26 377.01,316.24 377.40,316.26 377.80,316.23 378.20,316.25 378.59,316.22 378.99,316.24 379.39,316.21 379.78,316.23 380.18,316.21 380.44,316.23 380.70,316.20 380.72,315.89 380.76,315.14 380.83,313.75 380.91,312.82 380.91,312.71 380.93,312.49 380.97,312.04 381.04,311.16 381.18,309.45 381.46,306.23 381.86,302.13 382.25,298.47 382.65,295.10 383.04,291.98 383.44,289.10 383.84,286.42 384.23,283.95 384.63,281.65 385.03,279.51 385.42,277.52 385.82,275.67 386.22,273.95 386.61,272.34 387.01,270.84 387.41,269.44 387.80,268.13 388.20,266.91 388.60,265.76 388.99,264.69 389.39,263.69 389.78,262.75 390.18,261.87 390.58,261.05 390.97,260.27 391.37,259.39 391.77,258.53 392.16,257.65 392.56,251.73 392.96,219.20 393.35,180.28 393.75,170.04 394.15,158.06 394.54,167.54 394.94,170.43 395.34,169.42 395.73,170.32 396.13,169.34 396.52,170.28 396.92,169.37 397.32,170.28 397.71,169.38 398.11,170.29 398.51,169.39 398.90,170.30 399.30,169.40 399.70,170.31 400.09,169.41 400.49,170.32 400.89,169.42 401.28,170.32 401.68,169.43 402.08,170.33 402.47,169.44 402.87,170.34 403.27,169.45 403.66,170.35 404.06,169.46 404.45,170.36 404.85,169.47 405.25,170.36 405.64,169.48 406.04,170.37 406.44,169.49 406.83,170.38 407.23,169.50 407.63,170.39 408.02,169.51 408.42,170.40 408.82,169.52 409.21,170.40 409.61,169.53 410.01,170.41 410.40,169.53 410.80,170.42 411.19,169.54 411.59,170.43 411.99,169.55 412.38,170.44 412.78,169.56 413.18,170.44 413.57,169.57 413.97,170.45 414.37,169.58 414.76,170.46 415.16,169.59 415.56,170.47 415.95,169.60 416.35,170.48 416.75,169.61 417.14,170.48 417.54,169.62 417.94,170.49 418.33,169.63 418.73,170.50 419.12,169.64 419.52,170.51 419.92,169.65 420.31,170.52 420.71,169.66 421.11,170.52 421.50,169.67 421.90,170.53 422.30,169.68 422.69,170.54 423.09,169.68 423.49,170.55 423.88,169.69 424.28,170.56 424.68,169.70 425.07,170.56 425.47,169.71 425.86,170.57 426.26,169.72 426.66,170.58 427.05,169.73 427.45,170.59 427.85,169.74 428.24,170.60 428.64,169.75 429.04,170.60 429.43,169.76 429.83,170.61 430.23,169.77 430.62,170.62 431.02,169.78 431.42,170.63 431.81,169.79 432.21,170.64 432.61,169.80 433.00,170.64 433.40,169.81 433.79,170.65 434.19,169.82 434.59,170.66 434.98,169.82 435.38,170.67 435.78,169.83 436.17,170.68 436.57,169.84 436.97,170.68 437.36,169.85 437.76,170.69 438.16,169.86 438.55,170.70 438.95,169.87 439.35,170.71 439.74,169.88 440.14,170.72 440.53,169.89 440.93,170.72 441.33,169.90 441.72,170.73 442.12,169.91 442.52,170.74 442.91,169.92 443.31,170.75 443.71,169.93 444.10,170.76 444.50,169.94 444.90,170.76 445.29,169.95 445.69,170.77 446.09,169.96 446.48,170.78 446.88,169.96 447.27,170.79 447.67,169.97 448.07,170.80 448.46,169.98 448.86,170.80 449.26,169.99 449.65,170.81 450.05,170.00 450.45,170.82 450.84,170.01 451.24,170.83 451.64,170.02 452.03,170.84 452.43,170.03 452.83,170.84 453.22,170.04 453.62,170.85 454.02,170.05 454.41,170.86 454.81,170.06 455.20,170.87 455.60,170.07 456.00,170.88 456.39,170.08 456.79,170.88 457.19,170.09 457.58,170.89 457.98,170.10 458.38,170.90 458.77,170.10 459.17,170.91 459.57,170.11 459.96,170.92 460.36,170.12 460.76,170.92 461.15,170.13 461.55,170.93 461.94,170.14 462.34,170.94 462.74,170.15 463.13,170.95 463.53,170.16 463.93,170.96 464.32,170.17 464.72,170.96 465.12,170.18 465.51,170.97 465.91,170.19 466.31,170.98 466.70,170.20 467.10,170.99 467.50,170.21 467.89,171.00 468.29,170.22 468.69,171.00 469.08,170.23 469.48,171.01 469.87,170.23 470.27,171.02 470.67,170.24 471.06,171.03 471.46,170.25 471.86,171.04 472.25,170.26 472.65,171.04 473.05,170.27 473.44,171.05 473.84,170.28 474.24,171.06 474.63,170.29 475.03,171.07 475.43,170.30 475.82,171.08 476.22,170.31 476.61,171.09 477.01,170.32 477.41,171.09 477.80,170.33 478.20,171.10 478.60,170.34 478.99,171.11 479.39,170.35 479.79,171.12 480.18,170.36 480.58,171.13 480.98,170.36 481.37,171.13 481.69,170.37 482.00,171.14 482.02,170.75 482.06,170.74 482.11,170.81 482.15,171.05 482.20,175.30 482.20,175.27 482.20,175.22 482.20,175.22 482.20,175.25 482.21,175.31 482.21,175.43 482.22,175.64 482.22,175.98 482.24,176.66 482.28,178.08 482.36,181.09 482.50,187.49 482.80,200.60 483.20,221.18 483.60,233.39 483.99,246.23 484.39,253.01 484.79,258.61 485.18,263.96 485.58,268.49 485.98,272.66 486.37,276.42 486.77,279.88 487.17,282.99 487.56,285.86 487.96,288.45 488.35,290.84 488.75,293.00 489.15,294.99 489.54,296.80 489.94,298.47 490.34,299.97 490.73,301.37 491.13,302.63 491.53,303.81 491.92,304.86 492.32,305.85 492.72,306.73 493.11,307.57 493.51,308.31 493.91,309.01 494.30,309.64 494.70,310.23 495.09,310.75 495.49,311.26 495.89,311.69 496.28,312.12 496.68,312.49 497.08,312.85 497.47,313.16 497.87,313.47 498.27,313.73 498.66,313.99 499.06,314.20 499.46,314.43 499.85,314.61 500.25,314.80 500.65,314.95 501.04,315.11 501.44,315.24 501.83,315.38 502.23,315.48 502.63,315.60 503.02,315.69 503.42,315.79 503.82,315.86 504.21,315.95 504.61,316.01 505.01,316.08 505.40,316.13 505.80,316.19 506.20,316.23 506.59,316.29 506.99,316.32 507.39,316.37 507.78,316.39 508.18,316.43 508.58,316.45 508.97,316.49 509.37,316.50 509.76,316.54 510.16,316.54 510.56,316.57 510.95,316.58 511.35,316.60 511.75,316.60 512.14,316.63 512.54,316.63 512.94,316.65 513.33,316.64 513.73,316.66 514.13,316.66 514.52,316.67 514.92,316.67 515.32,316.68 515.71,316.67 516.11,316.69 516.50,316.68 516.90,316.69 517.30,316.68 517.69,316.69 518.09,316.68 518.49,316.69 518.88,316.67 519.28,316.68 519.68,316.67 520.07,316.68 520.47,316.67 520.87,316.68 521.26,316.66 521.66,316.67 522.06,316.66 522.45,316.66 522.85,316.65 523.25,316.66 523.64,316.64 524.04,316.65 524.43,316.63 524.83,316.64 525.23,316.63 525.62,316.63 526.02,316.62 526.42,316.63 526.81,316.61 527.21,316.62 527.61,316.60 528.00,316.61 528.40,316.60 528.80,316.60 529.19,316.59 529.59,316.59 529.99,316.58 530.38,316.59 530.78,316.57 531.17,316.58 531.57,316.56 531.97,316.57 532.36,316.56 532.76,316.56 533.16,316.55 533.55,316.55 533.95,316.54 534.35,316.55 534.74,316.53 535.14,316.54 535.54,316.52 535.93,316.53 536.33,316.52 536.73,316.52 537.12,316.51 537.52,316.51 537.92,316.50 538.31,316.51 538.71,316.49 539.10,316.50 539.50,316.48 539.90,316.49 540.29,316.48 540.69,316.48 541.09,316.47 541.48,316.47 541.88,316.46 542.28,316.47 542.67,316.45 543.07,316.46 543.47,316.44 543.86,316.45 544.26,316.43 544.66,316.44 545.05,316.43 545.45,316.43 545.84,316.42 546.24,316.42 546.64,316.41 547.03,316.42 547.43,316.40 547.83,316.41 548.22,316.39 548.62,316.40 549.02,316.39 549.41,316.39 549.81,316.38 550.21,316.38 550.60,316.37 551.00,316.38 551.40,316.36 551.79,316.37 552.19,316.35 552.58,316.36 552.98,316.35 553.38,316.35 553.77,316.34 554.17,316.34 554.57,316.33 554.96,316.34 555.36,316.32 555.76,316.33 556.15,316.31 556.55,316.32 556.95,316.31 557.34,316.31 557.74,316.30 558.14,316.30 558.53,316.29 558.93,316.30 559.33,316.28 559.72,316.29 560.12,316.27 560.51,316.28 560.91,316.27 561.31,316.27 561.70,316.26 562.10,316.26 562.50,316.25 562.89,316.26 563.29,316.24 563.69,316.25 564.08,316.23 564.48,316.24 564.88,316.23 565.27,316.23 565.67,316.22 566.07,316.22 566.46,316.21 566.86,316.22 567.25,316.20 567.65,316.21 568.05,316.19 568.44,316.20 568.84,316.19 569.24,316.19 569.63,316.18 570.03,316.18 570.43,316.17 570.82,316.18 571.22,316.16 571.62,316.17 572.01,316.15 572.41,316.16 572.81,316.15 573.20,316.15 573.60,316.14 574.00,316.14 574.39,316.13 574.79,316.13 575.18,316.12 575.58,316.13 575.98,316.11 576.37,316.12 576.77,316.11 577.17,316.11 577.56,316.10 577.96,316.10 578.36,316.09 578.75,316.09 579.15,316.08 579.55,316.09 579.94,316.07 580.34,316.08 580.74,316.07 581.13,316.07 581.53,316.06 581.92,316.06 582.32,316.05 582.72,316.05 583.11,316.04 583.41,316.05 583.70,316.04 583.72,315.72 583.76,314.97 583.83,313.59 583.91,312.66 583.91,312.55 583.93,312.33 583.97,311.89 584.04,311.02 584.18,309.33 584.45,306.14 584.85,302.04 585.25,298.40 585.64,295.03 586.04,291.92 586.44,289.04 586.83,286.37 587.23,283.90 587.63,281.61 588.02,279.47 588.42,277.49 588.82,275.64 589.21,273.92 589.61,272.31 590.00,270.82 590.40,269.42 590.80,268.11 591.19,266.89 591.59,265.75 591.99,264.68 592.38,263.68 592.78,262.74 593.18,261.87 593.57,261.04 593.97,260.27 594.37,259.39 594.76,258.53 595.16,257.65 595.56,251.36 595.95,218.84 596.35,180.10 596.74,170.07 597.14,159.03 597.54,168.70 597.93,170.32 598.33,169.98 598.73,170.29 599.12,170.02 599.52,170.17 599.92,169.96 600.31,170.18 600.71,169.97 601.11,170.19 601.50,169.98 601.90,170.20 602.30,169.99 602.69,170.21 603.09,170.00 603.49,170.22 603.88,170.01 604.28,170.22 604.67,170.02 605.07,170.23 605.47,170.02 605.86,170.24 606.26,170.03 606.66,170.25 607.05,170.04 607.45,170.26 607.85,170.05 608.24,170.27 608.64,170.06 609.04,170.28 609.43,170.07 609.83,170.29 610.23,170.08 610.62,170.29 611.02,170.09 611.41,170.30 611.81,170.10 612.21,170.31 612.60,170.11 613.00,170.32 613.40,170.11 613.79,170.33 614.19,170.12 614.59,170.34 614.98,170.13 615.38,170.35 615.78,170.14 616.17,170.35 616.57,170.15 616.97,170.36 617.36,170.16 617.76,170.37 618.16,170.17 618.55,170.38 618.95,170.18 619.34,170.39 619.74,170.19 620.14,170.40 620.53,170.20 620.93,170.41 621.33,170.20 621.72,170.41 622.12,170.21 622.52,170.42 622.91,170.22 623.31,170.43 623.71,170.23 624.10,170.44 624.50,170.24 624.90,170.45 625.29,170.25 625.69,170.46 626.08,170.26 626.48,170.47 626.88,170.27 627.27,170.48 627.67,170.28 628.07,170.48 628.46,170.28 628.86,170.49 629.26,170.29 629.65,170.50 630.05,170.30 630.45,170.51 630.84,170.31 631.24,170.52 631.64,170.32 632.03,170.53 632.43,170.33 632.82,170.54 633.22,170.34 633.62,170.54 634.01,170.35 634.41,170.55 634.81,170.36 635.20,170.56 635.60,170.37 636.00,170.57 636.39,170.37 636.79,170.58 637.19,170.38 637.58,170.59 637.98,170.39 638.38,170.60 638.77,170.40 639.17,170.60 639.57,170.41 639.96,170.61 640.36,170.42 640.75,170.62 641.15,170.43 641.55,170.63 641.94,170.44 642.34,170.64 642.74,170.45 643.13,170.65 643.53,170.46 643.93,170.66 644.32,170.46 644.72,170.66 645.12,170.47 645.51,170.67 645.91,170.48 646.31,170.68 646.70,170.49 647.10,170.69 647.49,170.50 647.89,170.70 648.29,170.51 648.68,170.71 649.08,170.52 649.48,170.72 649.87,170.53 650.27,170.72 650.67,170.54 651.06,170.73 651.46,170.54 651.86,170.74 652.25,170.55 652.65,170.75 653.05,170.56 653.44,170.76 653.84,170.57 654.24,170.77 654.63,170.58 655.03,170.78 655.42,170.59 655.82,170.79 656.22,170.60 656.61,170.79 657.01,170.61 657.41,170.80 657.80,170.62 658.20,170.81 658.60,170.62 658.99,170.82 659.39,170.63 659.79,170.83 660.18,170.64 660.58,170.84 660.98,170.65 661.37,170.85 661.77,170.66 662.16,170.85 662.56,170.67 662.96,170.86 663.35,170.68 663.75,170.87 664.15,170.69 664.54,170.88 664.94,170.70 665.34,170.89 665.73,170.70 666.13,170.90 666.53,170.71 666.92,170.91 667.32,170.72 667.72,170.91 668.11,170.73 668.51,170.92 668.91,170.74 669.30,170.93 669.70,170.75 670.09,170.94 670.49,170.76 670.89,170.95 671.28,170.77 671.68,170.96 672.08,170.78 672.47,170.97 672.87,170.79 673.27,170.97 673.66,170.79 674.06,170.98 674.46,170.80 674.85,170.99 675.25,170.81 675.65,171.00 676.04,170.82 676.44,171.01 676.83,170.83 677.23,171.02 677.63,170.84 678.02,171.03 678.42,170.85 678.82,171.03 679.21,170.86 679.61,171.04 680.01,170.87 680.40,171.05 680.80,170.87 681.20,171.06 681.59,170.88 681.99,171.07 682.39,170.89 682.78,171.08 683.18,170.90 683.57,171.09 683.97,170.91 684.37,171.09 684.68,170.92 685.00,171.10 685.02,171.01 685.06,171.01 685.13,171.15 685.20,175.56 685.21,176.02 685.22,176.36 685.23,176.68 685.24,177.06 685.25,177.50 685.27,178.03 685.29,178.88 685.33,180.27 685.41,183.01 685.56,188.63 685.86,200.01 686.26,215.13 686.66,227.26 687.05,236.07 687.45,243.40 687.85,249.92 688.24,255.79 688.64,261.11 689.03,265.93 689.43,270.31 689.83,274.29 690.22,277.92 690.62,281.22 691.02,284.23 691.41,286.97 691.81,289.49 692.21,291.77 692.60,293.87 693.00,295.77 693.40,297.52 693.79,299.11 694.19,300.58 694.59,301.91 694.98,303.14 695.38,304.26 695.77,305.29 696.17,306.22 696.57,307.09 696.96,307.87 697.36,308.60 697.76,309.26 698.15,309.87 698.55,310.42 698.95,310.94 699.34,311.40 699.74,311.84 700.14,312.23 700.53,312.60 700.93,312.92 701.33,313.23 701.72,313.51 702.12,313.77 702.52,314.00 702.91,314.22 703.31,314.42 703.70,314.60 704.10,314.77 704.50,314.93 704.89,315.06 705.29,315.20 705.69,315.31 706.08,315.42 706.48,315.52 706.88,315.62 707.27,315.69 707.67,315.78 708.07,315.84 708.46,315.91 708.86,315.97 709.26,316.03 709.65,316.07 710.05,316.12 710.44,316.16 710.84,316.20 711.24,316.23 711.63,316.27 712.03,316.29 712.43,316.32 712.82,316.34 713.22,316.37 713.62,316.38 714.01,316.41 714.41,316.42 714.81,316.44 715.20,316.44 715.60,316.46 716.00,316.46 716.39,316.48 716.79,316.48 717.19,316.49 717.58,316.49 717.98,316.50 718.37,316.50 718.77,316.51 719.17,316.51 719.56,316.52 719.96,316.51 720.36,316.52 720.75,316.51 721.15,316.52 721.55,316.51 721.94,316.52 722.34,316.51 722.74,316.51 723.13,316.51 723.53,316.51 723.93,316.50 724.32,316.50 724.72,316.50 725.11,316.50 725.51,316.49 725.91,316.49 726.30,316.48 726.70,316.48 727.10,316.48 727.49,316.48 727.89,316.47 728.29,316.47 728.68,316.46 729.08,316.46 729.48,316.45 729.87,316.45 730.27,316.45 730.67,316.45 731.06,316.44 731.46,316.44 731.86,316.43 732.25,316.43 732.65,316.42 733.04,316.42 733.44,316.41 733.84,316.42 734.23,316.41 734.63,316.41 735.03,316.40 735.42,316.40 735.82,316.39 736.22,316.39 736.61,316.38 737.01,316.38 737.41,316.37 737.80,316.37 738.20,316.37 738.60,316.37 738.99,316.36 739.39,316.36 739.78,316.35 740.18,316.35 740.58,316.34 740.97,316.34 741.37,316.33 741.77,316.33 742.16,316.33 742.56,316.33 742.96,316.32 743.35,316.32 743.75,316.31 744.15,316.31 744.54,316.30 744.94,316.30 745.34,316.29 745.73,316.29 746.13,316.29 746.52,316.29 746.92,316.28 747.32,316.28 747.71,316.27 748.11,316.27 748.51,316.26 748.90,316.26 749.30,316.25 749.70,316.25 750.09,316.25 750.49,316.25 750.89,316.24 751.28,316.24 751.68,316.23 752.08,316.23 752.47,316.22 752.87,316.22 753.27,316.21 753.66,316.21 754.06,316.21 754.45,316.21 754.85,316.20 755.25,316.20 755.64,316.19 756.04,316.19 756.44,316.18 756.83,316.18 757.23,316.17 757.63,316.17 758.02,316.17 758.42,316.17 758.82,316.16 759.21,316.16 759.61,316.15 760.01,316.15 760.40,316.14 760.80,316.14 761.19,316.13 761.59,316.13 761.99,316.13 762.38,316.13 762.78,316.12 763.18,316.12 763.57,316.11 763.97,316.11 764.37,316.10 764.76,316.10 765.16,316.09 765.56,316.09 765.95,316.09 766.35,316.09 766.75,316.08 767.14,316.08 767.54,316.07 767.94,316.07 768.33,316.06 768.73,316.06 769.12,316.05 769.52,316.05 769.92,316.05 770.31,316.05 770.71,316.04 771.11,316.04 771.50,316.03 771.90,316.03 772.30,316.02 772.69,316.02 773.09,316.01 773.49,316.01 773.88,316.01 774.28,316.01 774.68,316.00 775.07,316.00 775.47,315.99 775.86,315.99 776.26,315.98 776.66,315.98 777.05,315.97 777.45,315.97 777.85,315.97 778.24,315.97 778.64,315.96 779.04,315.96 779.43,315.95 779.83,315.95 780.23,315.94 780.62,315.94 781.02,315.93 781.42,315.93 781.81,315.93 782.21,315.93 782.61,315.92 783.00,315.92 783.40,315.91 783.79,315.91 784.19,315.90 784.59,315.90 784.98,315.89 785.38,315.89 785.78,315.89 786.17,315.89 786.44,315.88 786.70,315.88 786.72,315.55 786.76,314.81 786.83,313.43 786.91,312.51 786.91,312.40 786.93,312.18 786.97,311.74 787.04,310.88 787.17,309.21 787.45,306.06 787.85,301.97 788.24,298.33 788.64,294.97 789.04,291.86 789.43,288.99 789.83,286.33 790.22,283.86 790.62,281.57 791.02,279.44 791.41,277.46 791.81,275.61 792.21,273.90 792.60,272.29 793.00,270.80 793.40,269.40 793.79,268.10 794.19,266.88 794.59,265.74 794.98,264.67 795.38,263.67 795.78,262.74 796.17,261.86 796.57,261.04 796.97,260.27 797.36,259.38 797.76,258.53 798.15,257.65 798.55,251.09 798.95,218.47 799.34,179.81 799.74,170.02 800.14,161.67 800.53,169.94 800.93,170.19 801.22,170.20 801.52,170.44 801.79,170.34 802.19,170.34 802.56,170.34 802.96,170.34 803.35,170.36 803.75,170.35 804.15,170.37 804.54,170.36 804.94,170.38 805.34,170.37 805.73,170.39 806.13,170.38 806.53,170.40 806.92,170.39 807.32,170.41 807.71,170.39 808.11,170.41 808.51,170.40 808.90,170.42 809.30,170.41 809.70,170.43 810.09,170.42 810.49,170.44 810.89,170.43 811.28,170.45 811.68,170.44 812.08,170.46 812.47,170.45 812.87,170.47 813.27,170.46 813.66,170.48 814.06,170.46 814.46,170.48 814.85,170.47 815.25,170.49 815.64,170.48 816.04,170.50 816.44,170.49 816.83,170.51 817.23,170.50 817.63,170.52 818.02,170.51 818.42,170.53 818.82,170.52 819.21,170.54 819.61,170.53 820.01,170.55 820.40,170.54 820.80,170.55 821.20,170.54 821.59,170.56 821.99,170.55 822.38,170.57 822.78,170.56 823.18,170.58 823.57,170.57 823.97,170.59 824.37,170.58 824.76,170.60 825.16,170.59 825.56,170.61 825.95,170.60 826.35,170.62 826.75,170.61 827.14,170.62 827.54,170.61 827.94,170.63 828.33,170.62 828.73,170.64 829.12,170.63 829.52,170.65 829.92,170.64 830.31,170.66 830.71,170.65 831.11,170.67 831.50,170.66 831.90,170.68 832.30,170.67 832.69,170.69 833.09,170.68 833.49,170.69 833.88,170.68 834.28,170.70 834.68,170.69 835.07,170.71 835.47,170.70 835.87,170.72 836.26,170.71 836.66,170.73 837.05,170.72 837.45,170.74 837.85,170.73 838.24,170.75 838.64,170.74 839.04,170.76 839.43,170.75 839.83,170.77 840.23,170.75 840.62,170.77 841.02,170.76 841.42,170.78 841.81,170.77 842.21,170.79 842.61,170.78 843.00,170.80 843.40,170.79 843.79,170.81 844.19,170.80 844.59,170.82 844.98,170.81 845.38,170.83 845.78,170.82 846.17,170.84 846.57,170.82 846.97,170.84 847.36,170.83 847.76,170.85 848.16,170.84 848.55,170.86 848.95,170.85 849.35,170.87 849.74,170.86 850.14,170.88 850.54,170.87 850.93,170.89 851.33,170.88 851.72,170.90 852.12,170.89 852.52,170.90 852.91,170.90 853.31,170.91 853.71,170.90 854.10,170.92 854.50,170.91 854.90,170.93 855.29,170.92 855.69,170.94 856.09,170.93 856.48,170.95 856.88,170.94 857.28,170.96 857.67,170.95 858.07,170.97 858.46,170.96 858.86,170.97 859.26,170.97 859.65,170.98 860.05,170.97 860.45,170.99 860.84,170.98 861.24,171.00 861.64,170.99 862.03,171.01 862.43,171.00 862.83,171.02 863.22,171.01 863.62,171.03 864.02,171.02 864.41,171.04 864.81,171.03 865.21,171.04 865.60,171.04 866.00,171.05 866.39,171.04 866.79,171.06 867.19,171.05 867.58,171.07 867.98,171.06 868.38,171.08 868.77,171.07 869.17,171.09 869.57,171.08 869.96,171.10 870.36,171.09 870.76,171.11 871.15,171.10 871.55,171.11 871.95,171.11 872.34,171.12 872.74,171.11 873.13,171.13 873.53,171.12 873.93,171.14 874.32,171.13 874.72,171.15 875.12,171.14 875.51,171.16 875.91,171.15 876.31,171.17 876.70,171.16 877.10,171.18 877.50,171.17 877.89,171.18 878.29,171.18 878.69,171.19 879.08,171.18 879.48,171.20 879.87,171.19 880.27,171.21 880.67,171.20 881.06,171.22 881.46,171.21 881.86,171.23 882.25,171.22 882.65,171.24 883.05,171.23 883.44,171.25 883.84,171.24 884.24,171.25 884.63,171.24 885.03,171.26 885.43,171.25 885.82,171.27 886.22,171.26 886.62,171.28 887.01,171.27 887.41,171.29 887.70,171.28" fill="none" stroke="#1665d8" stroke-width="3" stroke-linejoin="round"/>
<polyline points="76.00,357.00 76.02,337.20 76.06,297.60 76.13,228.30 76.20,159.00 76.21,159.00 76.22,159.00 76.23,159.00 76.24,159.00 76.25,159.00 76.27,159.00 76.29,159.00 76.32,159.00 76.39,159.00 76.52,159.00 76.77,159.00 77.17,159.00 77.57,159.00 77.96,159.00 78.36,159.00 78.76,159.00 79.15,159.00 79.55,159.00 79.94,159.00 80.34,159.00 80.74,159.00 81.13,159.00 81.53,159.00 81.93,159.00 82.32,159.00 82.72,159.00 83.12,159.00 83.51,159.00 83.91,159.00 84.31,159.00 84.70,159.00 85.10,159.00 85.50,159.00 85.89,159.00 86.29,159.00 86.69,159.00 87.08,159.00 87.48,159.00 87.87,159.00 88.27,159.00 88.67,159.00 89.06,159.00 89.46,159.00 89.86,159.00 90.25,159.00 90.65,159.00 91.05,159.00 91.44,159.00 91.84,159.00 92.24,159.00 92.63,159.00 93.03,159.00 93.43,159.00 93.82,159.00 94.22,159.00 94.61,159.00 95.01,159.00 95.41,159.00 95.80,159.00 96.20,159.00 96.60,159.00 96.99,159.00 97.39,159.00 97.79,159.00 98.18,159.00 98.58,159.00 98.98,159.00 99.37,159.00 99.77,159.00 100.17,159.00 100.56,159.00 100.96,159.00 101.35,159.00 101.75,159.00 102.15,159.00 102.54,159.00 102.94,159.00 103.34,159.00 103.73,159.00 104.13,159.00 104.53,159.00 104.92,159.00 105.32,159.00 105.72,159.00 106.11,159.00 106.51,159.00 106.91,159.00 107.30,159.00 107.70,159.00 108.10,159.00 108.49,159.00 108.89,159.00 109.28,159.00 109.68,159.00 110.08,159.00 110.47,159.00 110.87,159.00 111.27,159.00 111.66,159.00 112.06,159.00 112.46,159.00 112.85,159.00 113.25,159.00 113.65,159.00 114.04,159.00 114.44,159.00 114.84,159.00 115.23,159.00 115.63,159.00 116.02,159.00 116.42,159.00 116.82,159.00 117.21,159.00 117.61,159.00 118.01,159.00 118.40,159.00 118.80,159.00 119.20,159.00 119.59,159.00 119.99,159.00 120.39,159.00 120.78,159.00 121.18,159.00 121.58,159.00 121.97,159.00 122.37,159.00 122.77,159.00 123.16,159.00 123.56,159.00 123.95,159.00 124.35,159.00 124.75,159.00 125.14,159.00 125.54,159.00 125.94,159.00 126.33,159.00 126.73,159.00 127.13,159.00 127.52,159.00 127.92,159.00 128.32,159.00 128.71,159.00 129.11,159.00 129.51,159.00 129.90,159.00 130.30,159.00 130.69,159.00 131.09,159.00 131.49,159.00 131.88,159.00 132.28,159.00 132.68,159.00 133.07,159.00 133.47,159.00 133.87,159.00 134.26,159.00 134.66,159.00 135.06,159.00 135.45,159.00 135.85,159.00 136.25,159.00 136.64,159.00 137.04,159.00 137.44,159.00 137.83,159.00 138.23,159.00 138.62,159.00 139.02,159.00 139.42,159.00 139.81,159.00 140.21,159.00 140.61,159.00 141.00,159.00 141.40,159.00 141.80,159.00 142.19,159.00 142.59,159.00 142.99,159.00 143.38,159.00 143.78,159.00 144.18,159.00 144.57,159.00 144.97,159.00 145.36,159.00 145.76,159.00 146.16,159.00 146.55,159.00 146.95,159.00 147.35,159.00 147.74,159.00 148.14,159.00 148.54,159.00 148.93,159.00 149.33,159.00 149.73,159.00 150.12,159.00 150.52,159.00 150.92,159.00 151.31,159.00 151.71,159.00 152.10,159.00 152.50,159.00 152.90,159.00 153.29,159.00 153.69,159.00 154.09,159.00 154.48,159.00 154.88,159.00 155.28,159.00 155.67,159.00 156.07,159.00 156.47,159.00 156.86,159.00 157.26,159.00 157.66,159.00 158.05,159.00 158.45,159.00 158.85,159.00 159.24,159.00 159.64,159.00 160.03,159.00 160.43,159.00 160.83,159.00 161.22,159.00 161.62,159.00 162.02,159.00 162.41,159.00 162.81,159.00 163.21,159.00 163.60,159.00 164.00,159.00 164.40,159.00 164.79,159.00 165.19,159.00 165.59,159.00 165.98,159.00 166.38,159.00 166.77,159.00 167.17,159.00 167.57,159.00 167.96,159.00 168.36,159.00 168.76,159.00 169.15,159.00 169.55,159.00 169.95,159.00 170.34,159.00 170.74,159.00 171.14,159.00 171.53,159.00 171.93,159.00 172.33,159.00 172.72,159.00 173.12,159.00 173.52,159.00 173.91,159.00 174.31,159.00 174.70,159.00 175.10,159.00 175.50,159.00 175.89,159.00 176.29,159.00 176.69,159.00 177.08,159.00 177.39,159.00 177.70,159.00 177.72,178.80 177.76,218.40 177.83,287.70 177.91,357.00 177.91,357.00 177.93,357.00 177.97,357.00 178.04,357.00 178.18,357.00 178.46,357.00 178.86,357.00 179.26,357.00 179.65,357.00 180.05,357.00 180.45,357.00 180.84,357.00 181.24,357.00 181.64,357.00 182.03,357.00 182.43,357.00 182.82,357.00 183.22,357.00 183.62,357.00 184.01,357.00 184.41,357.00 184.81,357.00 185.20,357.00 185.60,357.00 186.00,357.00 186.39,357.00 186.79,357.00 187.19,357.00 187.58,357.00 187.98,357.00 188.38,357.00 188.77,357.00 189.17,357.00 189.56,357.00 189.96,357.00 190.36,357.00 190.75,357.00 191.15,357.00 191.55,357.00 191.94,357.00 192.34,357.00 192.74,357.00 193.13,357.00 193.53,357.00 193.93,357.00 194.32,357.00 194.72,357.00 195.12,357.00 195.51,357.00 195.91,357.00 196.31,357.00 196.70,357.00 197.10,357.00 197.49,357.00 197.89,357.00 198.29,357.00 198.68,357.00 199.08,357.00 199.48,357.00 199.87,357.00 200.27,357.00 200.67,357.00 201.06,357.00 201.46,357.00 201.86,357.00 202.25,357.00 202.65,357.00 203.05,357.00 203.44,357.00 203.84,357.00 204.23,357.00 204.63,357.00 205.03,357.00 205.42,357.00 205.82,357.00 206.22,357.00 206.61,357.00 207.01,357.00 207.41,357.00 207.80,357.00 208.20,357.00 208.60,357.00 208.99,357.00 209.39,357.00 209.79,357.00 210.18,357.00 210.58,357.00 210.98,357.00 211.37,357.00 211.77,357.00 212.16,357.00 212.56,357.00 212.96,357.00 213.35,357.00 213.75,357.00 214.15,357.00 214.54,357.00 214.94,357.00 215.34,357.00 215.73,357.00 216.13,357.00 216.53,357.00 216.92,357.00 217.32,357.00 217.72,357.00 218.11,357.00 218.51,357.00 218.90,357.00 219.30,357.00 219.70,357.00 220.09,357.00 220.49,357.00 220.89,357.00 221.28,357.00 221.68,357.00 222.08,357.00 222.47,357.00 222.87,357.00 223.27,357.00 223.66,357.00 224.06,357.00 224.46,357.00 224.85,357.00 225.25,357.00 225.65,357.00 226.04,357.00 226.44,357.00 226.83,357.00 227.23,357.00 227.63,357.00 228.02,357.00 228.42,357.00 228.82,357.00 229.21,357.00 229.61,357.00 230.01,357.00 230.40,357.00 230.80,357.00 231.20,357.00 231.59,357.00 231.99,357.00 232.39,357.00 232.78,357.00 233.18,357.00 233.57,357.00 233.97,357.00 234.37,357.00 234.76,357.00 235.16,357.00 235.56,357.00 235.95,357.00 236.35,357.00 236.75,357.00 237.14,357.00 237.54,357.00 237.94,357.00 238.33,357.00 238.73,357.00 239.13,357.00 239.52,357.00 239.92,357.00 240.31,357.00 240.71,357.00 241.11,357.00 241.50,357.00 241.90,357.00 242.30,357.00 242.69,357.00 243.09,357.00 243.49,357.00 243.88,357.00 244.28,357.00 244.68,357.00 245.07,357.00 245.47,357.00 245.87,357.00 246.26,357.00 246.66,357.00 247.06,357.00 247.45,357.00 247.85,357.00 248.24,357.00 248.64,357.00 249.04,357.00 249.43,357.00 249.83,357.00 250.23,357.00 250.62,357.00 251.02,357.00 251.42,357.00 251.81,357.00 252.21,357.00 252.61,357.00 253.00,357.00 253.40,357.00 253.80,357.00 254.19,357.00 254.59,357.00 254.98,357.00 255.38,357.00 255.78,357.00 256.17,357.00 256.57,357.00 256.97,357.00 257.36,357.00 257.76,357.00 258.16,357.00 258.55,357.00 258.95,357.00 259.35,357.00 259.74,357.00 260.14,357.00 260.54,357.00 260.93,357.00 261.33,357.00 261.73,357.00 262.12,357.00 262.52,357.00 262.91,357.00 263.31,357.00 263.71,357.00 264.10,357.00 264.50,357.00 264.90,357.00 265.29,357.00 265.69,357.00 266.09,357.00 266.48,357.00 266.88,357.00 267.28,357.00 267.67,357.00 268.07,357.00 268.47,357.00 268.86,357.00 269.26,357.00 269.65,357.00 270.05,357.00 270.45,357.00 270.84,357.00 271.24,357.00 271.64,357.00 272.03,357.00 272.43,357.00 272.83,357.00 273.22,357.00 273.62,357.00 274.02,357.00 274.41,357.00 274.81,357.00 275.21,357.00 275.60,357.00 276.00,357.00 276.40,357.00 276.79,357.00 277.19,357.00 277.58,357.00 277.98,357.00 278.38,357.00 278.69,357.00 279.00,357.00 279.02,337.20 279.06,297.60 279.11,252.59 279.15,211.83 279.20,159.00 279.20,159.00 279.21,159.00 279.21,159.00 279.21,159.00 279.22,159.00 279.23,159.00 279.25,159.00 279.29,159.00 279.37,159.00 279.54,159.00 279.87,159.00 280.27,159.00 280.66,159.00 281.06,159.00 281.46,159.00 281.85,159.00 282.25,159.00 282.64,159.00 283.04,159.00 283.44,159.00 283.83,159.00 284.23,159.00 284.63,159.00 285.02,159.00 285.42,159.00 285.82,159.00 286.21,159.00 286.61,159.00 287.01,159.00 287.40,159.00 287.80,159.00 288.20,159.00 288.59,159.00 288.99,159.00 289.38,159.00 289.78,159.00 290.18,159.00 290.57,159.00 290.97,159.00 291.37,159.00 291.76,159.00 292.16,159.00 292.56,159.00 292.95,159.00 293.35,159.00 293.75,159.00 294.14,159.00 294.54,159.00 294.94,159.00 295.33,159.00 295.73,159.00 296.12,159.00 296.52,159.00 296.92,159.00 297.31,159.00 297.71,159.00 298.11,159.00 298.50,159.00 298.90,159.00 299.30,159.00 299.69,159.00 300.09,159.00 300.49,159.00 300.88,159.00 301.28,159.00 301.68,159.00 302.07,159.00 302.47,159.00 302.87,159.00 303.26,159.00 303.66,159.00 304.05,159.00 304.45,159.00 304.85,159.00 305.24,159.00 305.64,159.00 306.04,159.00 306.43,159.00 306.83,159.00 307.23,159.00 307.62,159.00 308.02,159.00 308.42,159.00 308.81,159.00 309.21,159.00 309.61,159.00 310.00,159.00 310.40,159.00 310.79,159.00 311.19,159.00 311.59,159.00 311.98,159.00 312.38,159.00 312.78,159.00 313.17,159.00 313.57,159.00 313.97,159.00 314.36,159.00 314.76,159.00 315.16,159.00 315.55,159.00 315.95,159.00 316.35,159.00 316.74,159.00 317.14,159.00 317.54,159.00 317.93,159.00 318.33,159.00 318.72,159.00 319.12,159.00 319.52,159.00 319.91,159.00 320.31,159.00 320.71,159.00 321.10,159.00 321.50,159.00 321.90,159.00 322.29,159.00 322.69,159.00 323.09,159.00 323.48,159.00 323.88,159.00 324.28,159.00 324.67,159.00 325.07,159.00 325.46,159.00 325.86,159.00 326.26,159.00 326.65,159.00 327.05,159.00 327.45,159.00 327.84,159.00 328.24,159.00 328.64,159.00 329.03,159.00 329.43,159.00 329.83,159.00 330.22,159.00 330.62,159.00 331.02,159.00 331.41,159.00 331.81,159.00 332.21,159.00 332.60,159.00 333.00,159.00 333.39,159.00 333.79,159.00 334.19,159.00 334.58,159.00 334.98,159.00 335.38,159.00 335.77,159.00 336.17,159.00 336.57,159.00 336.96,159.00 337.36,159.00 337.76,159.00 338.15,159.00 338.55,159.00 338.95,159.00 339.34,159.00 339.74,159.00 340.13,159.00 340.53,159.00 340.93,159.00 341.32,159.00 341.72,159.00 342.12,159.00 342.51,159.00 342.91,159.00 343.31,159.00 343.70,159.00 344.10,159.00 344.50,159.00 344.89,159.00 345.29,159.00 345.69,159.00 346.08,159.00 346.48,159.00 346.87,159.00 347.27,159.00 347.67,159.00 348.06,159.00 348.46,159.00 348.86,159.00 349.25,159.00 349.65,159.00 350.05,159.00 350.44,159.00 350.84,159.00 351.24,159.00 351.63,159.00 352.03,159.00 352.43,159.00 352.82,159.00 353.22,159.00 353.62,159.00 354.01,159.00 354.41,159.00 354.80,159.00 355.20,159.00 355.60,159.00 355.99,159.00 356.39,159.00 356.79,159.00 357.18,159.00 357.58,159.00 357.98,159.00 358.37,159.00 358.77,159.00 359.17,159.00 359.56,159.00 359.96,159.00 360.36,159.00 360.75,159.00 361.15,159.00 361.54,159.00 361.94,159.00 362.34,159.00 362.73,159.00 363.13,159.00 363.53,159.00 363.92,159.00 364.32,159.00 364.72,159.00 365.11,159.00 365.51,159.00 365.91,159.00 366.30,159.00 366.70,159.00 367.10,159.00 367.49,159.00 367.89,159.00 368.29,159.00 368.68,159.00 369.08,159.00 369.47,159.00 369.87,159.00 370.27,159.00 370.66,159.00 371.06,159.00 371.46,159.00 371.85,159.00 372.25,159.00 372.65,159.00 373.04,159.00 373.44,159.00 373.84,159.00 374.23,159.00 374.63,159.00 375.03,159.00 375.42,159.00 375.82,159.00 376.21,159.00 376.61,159.00 377.01,159.00 377.40,159.00 377.80,159.00 378.20,159.00 378.59,159.00 378.99,159.00 379.39,159.00 379.78,159.00 380.18,159.00 380.44,159.00 380.70,159.00 380.72,178.80 380.76,218.40 380.83,287.70 380.91,357.00 380.91,357.00 380.93,357.00 380.97,357.00 381.04,357.00 381.18,357.00 381.46,357.00 381.86,357.00 382.25,357.00 382.65,357.00 383.04,357.00 383.44,357.00 383.84,357.00 384.23,357.00 384.63,357.00 385.03,357.00 385.42,357.00 385.82,357.00 386.22,357.00 386.61,357.00 387.01,357.00 387.41,357.00 387.80,357.00 388.20,357.00 388.60,357.00 388.99,357.00 389.39,357.00 389.78,357.00 390.18,357.00 390.58,357.00 390.97,357.00 391.37,357.00 391.77,357.00 392.16,357.00 392.56,357.00 392.96,357.00 393.35,357.00 393.75,357.00 394.15,357.00 394.54,357.00 394.94,357.00 395.34,357.00 395.73,357.00 396.13,357.00 396.52,357.00 396.92,357.00 397.32,357.00 397.71,357.00 398.11,357.00 398.51,357.00 398.90,357.00 399.30,357.00 399.70,357.00 400.09,357.00 400.49,357.00 400.89,357.00 401.28,357.00 401.68,357.00 402.08,357.00 402.47,357.00 402.87,357.00 403.27,357.00 403.66,357.00 404.06,357.00 404.45,357.00 404.85,357.00 405.25,357.00 405.64,357.00 406.04,357.00 406.44,357.00 406.83,357.00 407.23,357.00 407.63,357.00 408.02,357.00 408.42,357.00 408.82,357.00 409.21,357.00 409.61,357.00 410.01,357.00 410.40,357.00 410.80,357.00 411.19,357.00 411.59,357.00 411.99,357.00 412.38,357.00 412.78,357.00 413.18,357.00 413.57,357.00 413.97,357.00 414.37,357.00 414.76,357.00 415.16,357.00 415.56,357.00 415.95,357.00 416.35,357.00 416.75,357.00 417.14,357.00 417.54,357.00 417.94,357.00 418.33,357.00 418.73,357.00 419.12,357.00 419.52,357.00 419.92,357.00 420.31,357.00 420.71,357.00 421.11,357.00 421.50,357.00 421.90,357.00 422.30,357.00 422.69,357.00 423.09,357.00 423.49,357.00 423.88,357.00 424.28,357.00 424.68,357.00 425.07,357.00 425.47,357.00 425.86,357.00 426.26,357.00 426.66,357.00 427.05,357.00 427.45,357.00 427.85,357.00 428.24,357.00 428.64,357.00 429.04,357.00 429.43,357.00 429.83,357.00 430.23,357.00 430.62,357.00 431.02,357.00 431.42,357.00 431.81,357.00 432.21,357.00 432.61,357.00 433.00,357.00 433.40,357.00 433.79,357.00 434.19,357.00 434.59,357.00 434.98,357.00 435.38,357.00 435.78,357.00 436.17,357.00 436.57,357.00 436.97,357.00 437.36,357.00 437.76,357.00 438.16,357.00 438.55,357.00 438.95,357.00 439.35,357.00 439.74,357.00 440.14,357.00 440.53,357.00 440.93,357.00 441.33,357.00 441.72,357.00 442.12,357.00 442.52,357.00 442.91,357.00 443.31,357.00 443.71,357.00 444.10,357.00 444.50,357.00 444.90,357.00 445.29,357.00 445.69,357.00 446.09,357.00 446.48,357.00 446.88,357.00 447.27,357.00 447.67,357.00 448.07,357.00 448.46,357.00 448.86,357.00 449.26,357.00 449.65,357.00 450.05,357.00 450.45,357.00 450.84,357.00 451.24,357.00 451.64,357.00 452.03,357.00 452.43,357.00 452.83,357.00 453.22,357.00 453.62,357.00 454.02,357.00 454.41,357.00 454.81,357.00 455.20,357.00 455.60,357.00 456.00,357.00 456.39,357.00 456.79,357.00 457.19,357.00 457.58,357.00 457.98,357.00 458.38,357.00 458.77,357.00 459.17,357.00 459.57,357.00 459.96,357.00 460.36,357.00 460.76,357.00 461.15,357.00 461.55,357.00 461.94,357.00 462.34,357.00 462.74,357.00 463.13,357.00 463.53,357.00 463.93,357.00 464.32,357.00 464.72,357.00 465.12,357.00 465.51,357.00 465.91,357.00 466.31,357.00 466.70,357.00 467.10,357.00 467.50,357.00 467.89,357.00 468.29,357.00 468.69,357.00 469.08,357.00 469.48,357.00 469.87,357.00 470.27,357.00 470.67,357.00 471.06,357.00 471.46,357.00 471.86,357.00 472.25,357.00 472.65,357.00 473.05,357.00 473.44,357.00 473.84,357.00 474.24,357.00 474.63,357.00 475.03,357.00 475.43,357.00 475.82,357.00 476.22,357.00 476.61,357.00 477.01,357.00 477.41,357.00 477.80,357.00 478.20,357.00 478.60,357.00 478.99,357.00 479.39,357.00 479.79,357.00 480.18,357.00 480.58,357.00 480.98,357.00 481.37,357.00 481.69,357.00 482.00,357.00 482.02,337.20 482.06,297.60 482.11,252.29 482.15,211.27 482.20,159.00 482.20,159.00 482.20,159.00 482.20,159.00 482.20,159.00 482.21,159.00 482.21,159.00 482.22,159.00 482.22,159.00 482.24,159.00 482.28,159.00 482.36,159.00 482.50,159.00 482.80,159.00 483.20,159.00 483.60,159.00 483.99,159.00 484.39,159.00 484.79,159.00 485.18,159.00 485.58,159.00 485.98,159.00 486.37,159.00 486.77,159.00 487.17,159.00 487.56,159.00 487.96,159.00 488.35,159.00 488.75,159.00 489.15,159.00 489.54,159.00 489.94,159.00 490.34,159.00 490.73,159.00 491.13,159.00 491.53,159.00 491.92,159.00 492.32,159.00 492.72,159.00 493.11,159.00 493.51,159.00 493.91,159.00 494.30,159.00 494.70,159.00 495.09,159.00 495.49,159.00 495.89,159.00 496.28,159.00 496.68,159.00 497.08,159.00 497.47,159.00 497.87,159.00 498.27,159.00 498.66,159.00 499.06,159.00 499.46,159.00 499.85,159.00 500.25,159.00 500.65,159.00 501.04,159.00 501.44,159.00 501.83,159.00 502.23,159.00 502.63,159.00 503.02,159.00 503.42,159.00 503.82,159.00 504.21,159.00 504.61,159.00 505.01,159.00 505.40,159.00 505.80,159.00 506.20,159.00 506.59,159.00 506.99,159.00 507.39,159.00 507.78,159.00 508.18,159.00 508.58,159.00 508.97,159.00 509.37,159.00 509.76,159.00 510.16,159.00 510.56,159.00 510.95,159.00 511.35,159.00 511.75,159.00 512.14,159.00 512.54,159.00 512.94,159.00 513.33,159.00 513.73,159.00 514.13,159.00 514.52,159.00 514.92,159.00 515.32,159.00 515.71,159.00 516.11,159.00 516.50,159.00 516.90,159.00 517.30,159.00 517.69,159.00 518.09,159.00 518.49,159.00 518.88,159.00 519.28,159.00 519.68,159.00 520.07,159.00 520.47,159.00 520.87,159.00 521.26,159.00 521.66,159.00 522.06,159.00 522.45,159.00 522.85,159.00 523.25,159.00 523.64,159.00 524.04,159.00 524.43,159.00 524.83,159.00 525.23,159.00 525.62,159.00 526.02,159.00 526.42,159.00 526.81,159.00 527.21,159.00 527.61,159.00 528.00,159.00 528.40,159.00 528.80,159.00 529.19,159.00 529.59,159.00 529.99,159.00 530.38,159.00 530.78,159.00 531.17,159.00 531.57,159.00 531.97,159.00 532.36,159.00 532.76,159.00 533.16,159.00 533.55,159.00 533.95,159.00 534.35,159.00 534.74,159.00 535.14,159.00 535.54,159.00 535.93,159.00 536.33,159.00 536.73,159.00 537.12,159.00 537.52,159.00 537.92,159.00 538.31,159.00 538.71,159.00 539.10,159.00 539.50,159.00 539.90,159.00 540.29,159.00 540.69,159.00 541.09,159.00 541.48,159.00 541.88,159.00 542.28,159.00 542.67,159.00 543.07,159.00 543.47,159.00 543.86,159.00 544.26,159.00 544.66,159.00 545.05,159.00 545.45,159.00 545.84,159.00 546.24,159.00 546.64,159.00 547.03,159.00 547.43,159.00 547.83,159.00 548.22,159.00 548.62,159.00 549.02,159.00 549.41,159.00 549.81,159.00 550.21,159.00 550.60,159.00 551.00,159.00 551.40,159.00 551.79,159.00 552.19,159.00 552.58,159.00 552.98,159.00 553.38,159.00 553.77,159.00 554.17,159.00 554.57,159.00 554.96,159.00 555.36,159.00 555.76,159.00 556.15,159.00 556.55,159.00 556.95,159.00 557.34,159.00 557.74,159.00 558.14,159.00 558.53,159.00 558.93,159.00 559.33,159.00 559.72,159.00 560.12,159.00 560.51,159.00 560.91,159.00 561.31,159.00 561.70,159.00 562.10,159.00 562.50,159.00 562.89,159.00 563.29,159.00 563.69,159.00 564.08,159.00 564.48,159.00 564.88,159.00 565.27,159.00 565.67,159.00 566.07,159.00 566.46,159.00 566.86,159.00 567.25,159.00 567.65,159.00 568.05,159.00 568.44,159.00 568.84,159.00 569.24,159.00 569.63,159.00 570.03,159.00 570.43,159.00 570.82,159.00 571.22,159.00 571.62,159.00 572.01,159.00 572.41,159.00 572.81,159.00 573.20,159.00 573.60,159.00 574.00,159.00 574.39,159.00 574.79,159.00 575.18,159.00 575.58,159.00 575.98,159.00 576.37,159.00 576.77,159.00 577.17,159.00 577.56,159.00 577.96,159.00 578.36,159.00 578.75,159.00 579.15,159.00 579.55,159.00 579.94,159.00 580.34,159.00 580.74,159.00 581.13,159.00 581.53,159.00 581.92,159.00 582.32,159.00 582.72,159.00 583.11,159.00 583.41,159.00 583.70,159.00 583.72,178.80 583.76,218.40 583.83,287.70 583.91,357.00 583.91,357.00 583.93,357.00 583.97,357.00 584.04,357.00 584.18,357.00 584.45,357.00 584.85,357.00 585.25,357.00 585.64,357.00 586.04,357.00 586.44,357.00 586.83,357.00 587.23,357.00 587.63,357.00 588.02,357.00 588.42,357.00 588.82,357.00 589.21,357.00 589.61,357.00 590.00,357.00 590.40,357.00 590.80,357.00 591.19,357.00 591.59,357.00 591.99,357.00 592.38,357.00 592.78,357.00 593.18,357.00 593.57,357.00 593.97,357.00 594.37,357.00 594.76,357.00 595.16,357.00 595.56,357.00 595.95,357.00 596.35,357.00 596.74,357.00 597.14,357.00 597.54,357.00 597.93,357.00 598.33,357.00 598.73,357.00 599.12,357.00 599.52,357.00 599.92,357.00 600.31,357.00 600.71,357.00 601.11,357.00 601.50,357.00 601.90,357.00 602.30,357.00 602.69,357.00 603.09,357.00 603.49,357.00 603.88,357.00 604.28,357.00 604.67,357.00 605.07,357.00 605.47,357.00 605.86,357.00 606.26,357.00 606.66,357.00 607.05,357.00 607.45,357.00 607.85,357.00 608.24,357.00 608.64,357.00 609.04,357.00 609.43,357.00 609.83,357.00 610.23,357.00 610.62,357.00 611.02,357.00 611.41,357.00 611.81,357.00 612.21,357.00 612.60,357.00 613.00,357.00 613.40,357.00 613.79,357.00 614.19,357.00 614.59,357.00 614.98,357.00 615.38,357.00 615.78,357.00 616.17,357.00 616.57,357.00 616.97,357.00 617.36,357.00 617.76,357.00 618.16,357.00 618.55,357.00 618.95,357.00 619.34,357.00 619.74,357.00 620.14,357.00 620.53,357.00 620.93,357.00 621.33,357.00 621.72,357.00 622.12,357.00 622.52,357.00 622.91,357.00 623.31,357.00 623.71,357.00 624.10,357.00 624.50,357.00 624.90,357.00 625.29,357.00 625.69,357.00 626.08,357.00 626.48,357.00 626.88,357.00 627.27,357.00 627.67,357.00 628.07,357.00 628.46,357.00 628.86,357.00 629.26,357.00 629.65,357.00 630.05,357.00 630.45,357.00 630.84,357.00 631.24,357.00 631.64,357.00 632.03,357.00 632.43,357.00 632.82,357.00 633.22,357.00 633.62,357.00 634.01,357.00 634.41,357.00 634.81,357.00 635.20,357.00 635.60,357.00 636.00,357.00 636.39,357.00 636.79,357.00 637.19,357.00 637.58,357.00 637.98,357.00 638.38,357.00 638.77,357.00 639.17,357.00 639.57,357.00 639.96,357.00 640.36,357.00 640.75,357.00 641.15,357.00 641.55,357.00 641.94,357.00 642.34,357.00 642.74,357.00 643.13,357.00 643.53,357.00 643.93,357.00 644.32,357.00 644.72,357.00 645.12,357.00 645.51,357.00 645.91,357.00 646.31,357.00 646.70,357.00 647.10,357.00 647.49,357.00 647.89,357.00 648.29,357.00 648.68,357.00 649.08,357.00 649.48,357.00 649.87,357.00 650.27,357.00 650.67,357.00 651.06,357.00 651.46,357.00 651.86,357.00 652.25,357.00 652.65,357.00 653.05,357.00 653.44,357.00 653.84,357.00 654.24,357.00 654.63,357.00 655.03,357.00 655.42,357.00 655.82,357.00 656.22,357.00 656.61,357.00 657.01,357.00 657.41,357.00 657.80,357.00 658.20,357.00 658.60,357.00 658.99,357.00 659.39,357.00 659.79,357.00 660.18,357.00 660.58,357.00 660.98,357.00 661.37,357.00 661.77,357.00 662.16,357.00 662.56,357.00 662.96,357.00 663.35,357.00 663.75,357.00 664.15,357.00 664.54,357.00 664.94,357.00 665.34,357.00 665.73,357.00 666.13,357.00 666.53,357.00 666.92,357.00 667.32,357.00 667.72,357.00 668.11,357.00 668.51,357.00 668.91,357.00 669.30,357.00 669.70,357.00 670.09,357.00 670.49,357.00 670.89,357.00 671.28,357.00 671.68,357.00 672.08,357.00 672.47,357.00 672.87,357.00 673.27,357.00 673.66,357.00 674.06,357.00 674.46,357.00 674.85,357.00 675.25,357.00 675.65,357.00 676.04,357.00 676.44,357.00 676.83,357.00 677.23,357.00 677.63,357.00 678.02,357.00 678.42,357.00 678.82,357.00 679.21,357.00 679.61,357.00 680.01,357.00 680.40,357.00 680.80,357.00 681.20,357.00 681.59,357.00 681.99,357.00 682.39,357.00 682.78,357.00 683.18,357.00 683.57,357.00 683.97,357.00 684.37,357.00 684.68,357.00 685.00,357.00 685.02,337.20 685.06,297.60 685.13,228.30 685.20,159.00 685.21,159.00 685.22,159.00 685.23,159.00 685.24,159.00 685.25,159.00 685.27,159.00 685.29,159.00 685.33,159.00 685.41,159.00 685.56,159.00 685.86,159.00 686.26,159.00 686.66,159.00 687.05,159.00 687.45,159.00 687.85,159.00 688.24,159.00 688.64,159.00 689.03,159.00 689.43,159.00 689.83,159.00 690.22,159.00 690.62,159.00 691.02,159.00 691.41,159.00 691.81,159.00 692.21,159.00 692.60,159.00 693.00,159.00 693.40,159.00 693.79,159.00 694.19,159.00 694.59,159.00 694.98,159.00 695.38,159.00 695.77,159.00 696.17,159.00 696.57,159.00 696.96,159.00 697.36,159.00 697.76,159.00 698.15,159.00 698.55,159.00 698.95,159.00 699.34,159.00 699.74,159.00 700.14,159.00 700.53,159.00 700.93,159.00 701.33,159.00 701.72,159.00 702.12,159.00 702.52,159.00 702.91,159.00 703.31,159.00 703.70,159.00 704.10,159.00 704.50,159.00 704.89,159.00 705.29,159.00 705.69,159.00 706.08,159.00 706.48,159.00 706.88,159.00 707.27,159.00 707.67,159.00 708.07,159.00 708.46,159.00 708.86,159.00 709.26,159.00 709.65,159.00 710.05,159.00 710.44,159.00 710.84,159.00 711.24,159.00 711.63,159.00 712.03,159.00 712.43,159.00 712.82,159.00 713.22,159.00 713.62,159.00 714.01,159.00 714.41,159.00 714.81,159.00 715.20,159.00 715.60,159.00 716.00,159.00 716.39,159.00 716.79,159.00 717.19,159.00 717.58,159.00 717.98,159.00 718.37,159.00 718.77,159.00 719.17,159.00 719.56,159.00 719.96,159.00 720.36,159.00 720.75,159.00 721.15,159.00 721.55,159.00 721.94,159.00 722.34,159.00 722.74,159.00 723.13,159.00 723.53,159.00 723.93,159.00 724.32,159.00 724.72,159.00 725.11,159.00 725.51,159.00 725.91,159.00 726.30,159.00 726.70,159.00 727.10,159.00 727.49,159.00 727.89,159.00 728.29,159.00 728.68,159.00 729.08,159.00 729.48,159.00 729.87,159.00 730.27,159.00 730.67,159.00 731.06,159.00 731.46,159.00 731.86,159.00 732.25,159.00 732.65,159.00 733.04,159.00 733.44,159.00 733.84,159.00 734.23,159.00 734.63,159.00 735.03,159.00 735.42,159.00 735.82,159.00 736.22,159.00 736.61,159.00 737.01,159.00 737.41,159.00 737.80,159.00 738.20,159.00 738.60,159.00 738.99,159.00 739.39,159.00 739.78,159.00 740.18,159.00 740.58,159.00 740.97,159.00 741.37,159.00 741.77,159.00 742.16,159.00 742.56,159.00 742.96,159.00 743.35,159.00 743.75,159.00 744.15,159.00 744.54,159.00 744.94,159.00 745.34,159.00 745.73,159.00 746.13,159.00 746.52,159.00 746.92,159.00 747.32,159.00 747.71,159.00 748.11,159.00 748.51,159.00 748.90,159.00 749.30,159.00 749.70,159.00 750.09,159.00 750.49,159.00 750.89,159.00 751.28,159.00 751.68,159.00 752.08,159.00 752.47,159.00 752.87,159.00 753.27,159.00 753.66,159.00 754.06,159.00 754.45,159.00 754.85,159.00 755.25,159.00 755.64,159.00 756.04,159.00 756.44,159.00 756.83,159.00 757.23,159.00 757.63,159.00 758.02,159.00 758.42,159.00 758.82,159.00 759.21,159.00 759.61,159.00 760.01,159.00 760.40,159.00 760.80,159.00 761.19,159.00 761.59,159.00 761.99,159.00 762.38,159.00 762.78,159.00 763.18,159.00 763.57,159.00 763.97,159.00 764.37,159.00 764.76,159.00 765.16,159.00 765.56,159.00 765.95,159.00 766.35,159.00 766.75,159.00 767.14,159.00 767.54,159.00 767.94,159.00 768.33,159.00 768.73,159.00 769.12,159.00 769.52,159.00 769.92,159.00 770.31,159.00 770.71,159.00 771.11,159.00 771.50,159.00 771.90,159.00 772.30,159.00 772.69,159.00 773.09,159.00 773.49,159.00 773.88,159.00 774.28,159.00 774.68,159.00 775.07,159.00 775.47,159.00 775.86,159.00 776.26,159.00 776.66,159.00 777.05,159.00 777.45,159.00 777.85,159.00 778.24,159.00 778.64,159.00 779.04,159.00 779.43,159.00 779.83,159.00 780.23,159.00 780.62,159.00 781.02,159.00 781.42,159.00 781.81,159.00 782.21,159.00 782.61,159.00 783.00,159.00 783.40,159.00 783.79,159.00 784.19,159.00 784.59,159.00 784.98,159.00 785.38,159.00 785.78,159.00 786.17,159.00 786.44,159.00 786.70,159.00 786.72,178.80 786.76,218.40 786.83,287.70 786.91,357.00 786.91,357.00 786.93,357.00 786.97,357.00 787.04,357.00 787.17,357.00 787.45,357.00 787.85,357.00 788.24,357.00 788.64,357.00 789.04,357.00 789.43,357.00 789.83,357.00 790.22,357.00 790.62,357.00 791.02,357.00 791.41,357.00 791.81,357.00 792.21,357.00 792.60,357.00 793.00,357.00 793.40,357.00 793.79,357.00 794.19,357.00 794.59,357.00 794.98,357.00 795.38,357.00 795.78,357.00 796.17,357.00 796.57,357.00 796.97,357.00 797.36,357.00 797.76,357.00 798.15,357.00 798.55,357.00 798.95,357.00 799.34,357.00 799.74,357.00 800.14,357.00 800.53,357.00 800.93,357.00 801.22,357.00 801.52,357.00 801.79,357.00 802.19,357.00 802.56,357.00 802.96,357.00 803.35,357.00 803.75,357.00 804.15,357.00 804.54,357.00 804.94,357.00 805.34,357.00 805.73,357.00 806.13,357.00 806.53,357.00 806.92,357.00 807.32,357.00 807.71,357.00 808.11,357.00 808.51,357.00 808.90,357.00 809.30,357.00 809.70,357.00 810.09,357.00 810.49,357.00 810.89,357.00 811.28,357.00 811.68,357.00 812.08,357.00 812.47,357.00 812.87,357.00 813.27,357.00 813.66,357.00 814.06,357.00 814.46,357.00 814.85,357.00 815.25,357.00 815.64,357.00 816.04,357.00 816.44,357.00 816.83,357.00 817.23,357.00 817.63,357.00 818.02,357.00 818.42,357.00 818.82,357.00 819.21,357.00 819.61,357.00 820.01,357.00 820.40,357.00 820.80,357.00 821.20,357.00 821.59,357.00 821.99,357.00 822.38,357.00 822.78,357.00 823.18,357.00 823.57,357.00 823.97,357.00 824.37,357.00 824.76,357.00 825.16,357.00 825.56,357.00 825.95,357.00 826.35,357.00 826.75,357.00 827.14,357.00 827.54,357.00 827.94,357.00 828.33,357.00 828.73,357.00 829.12,357.00 829.52,357.00 829.92,357.00 830.31,357.00 830.71,357.00 831.11,357.00 831.50,357.00 831.90,357.00 832.30,357.00 832.69,357.00 833.09,357.00 833.49,357.00 833.88,357.00 834.28,357.00 834.68,357.00 835.07,357.00 835.47,357.00 835.87,357.00 836.26,357.00 836.66,357.00 837.05,357.00 837.45,357.00 837.85,357.00 838.24,357.00 838.64,357.00 839.04,357.00 839.43,357.00 839.83,357.00 840.23,357.00 840.62,357.00 841.02,357.00 841.42,357.00 841.81,357.00 842.21,357.00 842.61,357.00 843.00,357.00 843.40,357.00 843.79,357.00 844.19,357.00 844.59,357.00 844.98,357.00 845.38,357.00 845.78,357.00 846.17,357.00 846.57,357.00 846.97,357.00 847.36,357.00 847.76,357.00 848.16,357.00 848.55,357.00 848.95,357.00 849.35,357.00 849.74,357.00 850.14,357.00 850.54,357.00 850.93,357.00 851.33,357.00 851.72,357.00 852.12,357.00 852.52,357.00 852.91,357.00 853.31,357.00 853.71,357.00 854.10,357.00 854.50,357.00 854.90,357.00 855.29,357.00 855.69,357.00 856.09,357.00 856.48,357.00 856.88,357.00 857.28,357.00 857.67,357.00 858.07,357.00 858.46,357.00 858.86,357.00 859.26,357.00 859.65,357.00 860.05,357.00 860.45,357.00 860.84,357.00 861.24,357.00 861.64,357.00 862.03,357.00 862.43,357.00 862.83,357.00 863.22,357.00 863.62,357.00 864.02,357.00 864.41,357.00 864.81,357.00 865.21,357.00 865.60,357.00 866.00,357.00 866.39,357.00 866.79,357.00 867.19,357.00 867.58,357.00 867.98,357.00 868.38,357.00 868.77,357.00 869.17,357.00 869.57,357.00 869.96,357.00 870.36,357.00 870.76,357.00 871.15,357.00 871.55,357.00 871.95,357.00 872.34,357.00 872.74,357.00 873.13,357.00 873.53,357.00 873.93,357.00 874.32,357.00 874.72,357.00 875.12,357.00 875.51,357.00 875.91,357.00 876.31,357.00 876.70,357.00 877.10,357.00 877.50,357.00 877.89,357.00 878.29,357.00 878.69,357.00 879.08,357.00 879.48,357.00 879.87,357.00 880.27,357.00 880.67,357.00 881.06,357.00 881.46,357.00 881.86,357.00 882.25,357.00 882.65,357.00 883.05,357.00 883.44,357.00 883.84,357.00 884.24,357.00 884.63,357.00 885.03,357.00 885.43,357.00 885.82,357.00 886.22,357.00 886.62,357.00 887.01,357.00 887.41,357.00 887.70,357.00" fill="none" stroke="#b54708" stroke-width="3" stroke-linejoin="round"/>
<rect x="670" y="62" width="190" height="70" rx="4" ry="4" fill="#fff" fill-opacity="0.82" stroke="#111" stroke-width="1"/>
<line x1="682" y1="78" x2="718" y2="78" stroke="#1665d8" stroke-width="3"/>
<text x="728" y="83" font-family="Arial, Helvetica, sans-serif" font-size="13" font-weight="400" text-anchor="start" fill="#111">load output</text>
<line x1="682" y1="104" x2="718" y2="104" stroke="#b54708" stroke-width="3"/>
<text x="728" y="109" font-family="Arial, Helvetica, sans-serif" font-size="13" font-weight="400" text-anchor="start" fill="#111">input x10</text>
<text x="460" y="502" font-family="Arial, Helvetica, sans-serif" font-size="14" font-weight="400" text-anchor="middle" fill="#111">Time after 60 ms settling, ms</text>
<text x="22" y="260" font-family="Arial, Helvetica, sans-serif" font-size="14" text-anchor="middle" fill="#111" transform="rotate(-90 22 260)">Voltage, V</text>
</svg>
