<svg xmlns="http://www.w3.org/2000/svg" width="920" height="520" viewBox="0 0 920 520">
<defs>
<style>
.wire{stroke:#111;stroke-width:2.6;fill:none;stroke-linecap:round;stroke-linejoin:round}
.thin{stroke:#a7b0bd;stroke-width:1.2;fill:none;stroke-linecap:round;stroke-linejoin:round}
.axis{stroke:#111;stroke-width:1.4;fill:none}
.blue{stroke:#1665d8;stroke-width:3;fill:none;stroke-linecap:round;stroke-linejoin:round}
.green{stroke:#13795b;stroke-width:3;fill:none;stroke-linecap:round;stroke-linejoin:round}
.orange{stroke:#b54708;stroke-width:3;fill:none;stroke-linecap:round;stroke-linejoin:round}
.node{fill:#111;stroke:none}
</style>
</defs>
<rect width="100%" height="100%" fill="#fff"/>
<text x="76" y="36" font-family="Arial, Helvetica, sans-serif" font-size="22" font-weight="700" text-anchor="start" fill="#111">Darlington THD vs output power</text>
<rect x="76" y="60" width="812" height="396" fill="#fff" stroke="#111" stroke-width="1.4"/>
<line x1="101.449" y1="60" x2="101.449" y2="456" class="thin"/>
<text x="101.449" y="479" font-family="Arial, Helvetica, sans-serif" font-size="12" font-weight="400" text-anchor="middle" fill="#111">0.05</text>
<line x1="153.688" y1="60" x2="153.688" y2="456" class="thin"/>
<text x="153.688" y="479" font-family="Arial, Helvetica, sans-serif" font-size="12" font-weight="400" text-anchor="middle" fill="#111">0.1</text>
<line x1="205.926" y1="60" x2="205.926" y2="456" class="thin"/>
<text x="205.926" y="479" font-family="Arial, Helvetica, sans-serif" font-size="12" font-weight="400" text-anchor="middle" fill="#111">0.2</text>
<line x1="274.982" y1="60" x2="274.982" y2="456" class="thin"/>
<text x="274.982" y="479" font-family="Arial, Helvetica, sans-serif" font-size="12" font-weight="400" text-anchor="middle" fill="#111">0.5</text>
<line x1="327.22" y1="60" x2="327.22" y2="456" class="thin"/>
<text x="327.22" y="479" font-family="Arial, Helvetica, sans-serif" font-size="12" font-weight="400" text-anchor="middle" fill="#111">1</text>
<line x1="379.459" y1="60" x2="379.459" y2="456" class="thin"/>
<text x="379.459" y="479" font-family="Arial, Helvetica, sans-serif" font-size="12" font-weight="400" text-anchor="middle" fill="#111">2</text>
<line x1="448.514" y1="60" x2="448.514" y2="456" class="thin"/>
<text x="448.514" y="479" font-family="Arial, Helvetica, sans-serif" font-size="12" font-weight="400" text-anchor="middle" fill="#111">5</text>
<line x1="500.752" y1="60" x2="500.752" y2="456" class="thin"/>
<text x="500.752" y="479" font-family="Arial, Helvetica, sans-serif" font-size="12" font-weight="400" text-anchor="middle" fill="#111">10</text>
<line x1="552.991" y1="60" x2="552.991" y2="456" class="thin"/>
<text x="552.991" y="479" font-family="Arial, Helvetica, sans-serif" font-size="12" font-weight="400" text-anchor="middle" fill="#111">20</text>
<line x1="622.046" y1="60" x2="622.046" y2="456" class="thin"/>
<text x="622.046" y="479" font-family="Arial, Helvetica, sans-serif" font-size="12" font-weight="400" text-anchor="middle" fill="#111">50</text>
<line x1="674.285" y1="60" x2="674.285" y2="456" class="thin"/>
<text x="674.285" y="479" font-family="Arial, Helvetica, sans-serif" font-size="12" font-weight="400" text-anchor="middle" fill="#111">100</text>
<line x1="726.523" y1="60" x2="726.523" y2="456" class="thin"/>
<text x="726.523" y="479" font-family="Arial, Helvetica, sans-serif" font-size="12" font-weight="400" text-anchor="middle" fill="#111">200</text>
<line x1="795.579" y1="60" x2="795.579" y2="456" class="thin"/>
<text x="795.579" y="479" font-family="Arial, Helvetica, sans-serif" font-size="12" font-weight="400" text-anchor="middle" fill="#111">500</text>
<line x1="847.817" y1="60" x2="847.817" y2="456" class="thin"/>
<text x="847.817" y="479" font-family="Arial, Helvetica, sans-serif" font-size="12" font-weight="400" text-anchor="middle" fill="#111">1k</text>
<line x1="76" y1="456" x2="888" y2="456" class="thin"/>
<text x="66" y="460" font-family="Arial, Helvetica, sans-serif" font-size="12" font-weight="400" text-anchor="end" fill="#111">0</text>
<line x1="76" y1="357" x2="888" y2="357" class="thin"/>
<text x="66" y="361" font-family="Arial, Helvetica, sans-serif" font-size="12" font-weight="400" text-anchor="end" fill="#111">25</text>
<line x1="76" y1="258" x2="888" y2="258" class="thin"/>
<text x="66" y="262" font-family="Arial, Helvetica, sans-serif" font-size="12" font-weight="400" text-anchor="end" fill="#111">50</text>
<line x1="76" y1="159" x2="888" y2="159" class="thin"/>
<text x="66" y="163" font-family="Arial, Helvetica, sans-serif" font-size="12" font-weight="400" text-anchor="end" fill="#111">75</text>
<line x1="76" y1="60" x2="888" y2="60" class="thin"/>
<text x="66" y="64" font-family="Arial, Helvetica, sans-serif" font-size="12" font-weight="400" text-anchor="end" fill="#111">100</text>
<polyline points="193.35,446.16 335.18,428.59 457.60,373.49 621.92,217.83 773.45,203.95 816.41,341.45 850.26,368.60 879.60,289.62" fill="none" stroke="#7c3aed" stroke-width="3" stroke-linejoin="round"/>
<polyline points="193.15,446.09 336.72,427.09 474.93,346.14 643.32,196.38 804.01,275.10 833.43,358.79 865.79,355.86 884.19,270.64" fill="none" stroke="#13795b" stroke-width="3" stroke-linejoin="round"/>
<polyline points="191.44,446.19 335.38,427.07 487.35,324.72 709.69,154.74 818.07,299.87 842.01,356.32 871.92,357.30 888.00,277.57" fill="none" stroke="#1665d8" stroke-width="3" stroke-linejoin="round"/>
<polyline points="147.76,449.43 289.07,438.13 413.34,399.55 745.06,182.33 814.98,307.67 833.93,350.31 855.87,374.87 878.43,372.75" fill="none" stroke="#b54708" stroke-width="3" stroke-linejoin="round"/>
<polyline points="76.00,452.41 215.16,447.11 324.16,435.67 524.81,302.56 788.56,262.24 802.32,291.92 805.71,232.20 806.24,263.45" fill="none" stroke="#93370d" stroke-width="3" stroke-linejoin="round"/>
<rect x="670" y="62" width="190" height="148" rx="4" ry="4" fill="#fff" fill-opacity="0.82" stroke="#111" stroke-width="1"/>
<line x1="682" y1="78" x2="718" y2="78" stroke="#7c3aed" stroke-width="3"/>
<text x="728" y="83" font-family="Arial, Helvetica, sans-serif" font-size="13" font-weight="400" text-anchor="start" fill="#111">100 Hz</text>
<line x1="682" y1="104" x2="718" y2="104" stroke="#13795b" stroke-width="3"/>
<text x="728" y="109" font-family="Arial, Helvetica, sans-serif" font-size="13" font-weight="400" text-anchor="start" fill="#111">500 Hz</text>
<line x1="682" y1="130" x2="718" y2="130" stroke="#1665d8" stroke-width="3"/>
<text x="728" y="135" font-family="Arial, Helvetica, sans-serif" font-size="13" font-weight="400" text-anchor="start" fill="#111">1 kHz</text>
<line x1="682" y1="156" x2="718" y2="156" stroke="#b54708" stroke-width="3"/>
<text x="728" y="161" font-family="Arial, Helvetica, sans-serif" font-size="13" font-weight="400" text-anchor="start" fill="#111">5 kHz</text>
<line x1="682" y1="182" x2="718" y2="182" stroke="#93370d" stroke-width="3"/>
<text x="728" y="187" font-family="Arial, Helvetica, sans-serif" font-size="13" font-weight="400" text-anchor="start" fill="#111">10 kHz</text>
<text x="460" y="502" font-family="Arial, Helvetica, sans-serif" font-size="14" font-weight="400" text-anchor="middle" fill="#111">Output power, mW into 8 ohm</text>
<text x="22" y="260" font-family="Arial, Helvetica, sans-serif" font-size="14" text-anchor="middle" fill="#111" transform="rotate(-90 22 260)">THD, %</text>
</svg>
