<svg xmlns="http://www.w3.org/2000/svg" width="920" height="520" viewBox="0 0 920 520">
<defs>
<style>
.wire{stroke:#111;stroke-width:2.6;fill:none;stroke-linecap:round;stroke-linejoin:round}
.thin{stroke:#a7b0bd;stroke-width:1.2;fill:none;stroke-linecap:round;stroke-linejoin:round}
.axis{stroke:#111;stroke-width:1.4;fill:none}
.blue{stroke:#1665d8;stroke-width:3;fill:none;stroke-linecap:round;stroke-linejoin:round}
.green{stroke:#13795b;stroke-width:3;fill:none;stroke-linecap:round;stroke-linejoin:round}
.orange{stroke:#b54708;stroke-width:3;fill:none;stroke-linecap:round;stroke-linejoin:round}
.node{fill:#111;stroke:none}
</style>
</defs>
<rect width="100%" height="100%" fill="#fff"/>
<text x="76" y="36" font-family="Arial, Helvetica, sans-serif" font-size="22" font-weight="700" text-anchor="start" fill="#111">Darlington THD vs frequency at fixed output power</text>
<rect x="76" y="60" width="812" height="396" fill="#fff" stroke="#111" stroke-width="1.4"/>
<line x1="76" y1="60" x2="76" y2="456" class="thin"/>
<text x="76" y="479" font-family="Arial, Helvetica, sans-serif" font-size="12" font-weight="400" text-anchor="middle" fill="#111">20</text>
<line x1="183.709" y1="60" x2="183.709" y2="456" class="thin"/>
<text x="183.709" y="479" font-family="Arial, Helvetica, sans-serif" font-size="12" font-weight="400" text-anchor="middle" fill="#111">50</text>
<line x1="265.188" y1="60" x2="265.188" y2="456" class="thin"/>
<text x="265.188" y="479" font-family="Arial, Helvetica, sans-serif" font-size="12" font-weight="400" text-anchor="middle" fill="#111">100</text>
<line x1="535.855" y1="60" x2="535.855" y2="456" class="thin"/>
<text x="535.855" y="479" font-family="Arial, Helvetica, sans-serif" font-size="12" font-weight="400" text-anchor="middle" fill="#111">1k</text>
<line x1="806.521" y1="60" x2="806.521" y2="456" class="thin"/>
<text x="806.521" y="479" font-family="Arial, Helvetica, sans-serif" font-size="12" font-weight="400" text-anchor="middle" fill="#111">10k</text>
<line x1="888" y1="60" x2="888" y2="456" class="thin"/>
<text x="888" y="479" font-family="Arial, Helvetica, sans-serif" font-size="12" font-weight="400" text-anchor="middle" fill="#111">20k</text>
<line x1="76" y1="456" x2="888" y2="456" class="thin"/>
<text x="66" y="460" font-family="Arial, Helvetica, sans-serif" font-size="12" font-weight="400" text-anchor="end" fill="#111">0</text>
<line x1="76" y1="357" x2="888" y2="357" class="thin"/>
<text x="66" y="361" font-family="Arial, Helvetica, sans-serif" font-size="12" font-weight="400" text-anchor="end" fill="#111">50</text>
<line x1="76" y1="258" x2="888" y2="258" class="thin"/>
<text x="66" y="262" font-family="Arial, Helvetica, sans-serif" font-size="12" font-weight="400" text-anchor="end" fill="#111">100</text>
<line x1="76" y1="159" x2="888" y2="159" class="thin"/>
<text x="66" y="163" font-family="Arial, Helvetica, sans-serif" font-size="12" font-weight="400" text-anchor="end" fill="#111">150</text>
<line x1="76" y1="60" x2="888" y2="60" class="thin"/>
<text x="66" y="64" font-family="Arial, Helvetica, sans-serif" font-size="12" font-weight="400" text-anchor="end" fill="#111">200</text>
<polyline points="76.00,324.76 183.71,323.50 265.19,323.70 346.67,324.60 454.38,319.72 535.85,315.94 617.33,316.69 725.04,325.29 806.52,339.75 888.00,419.03" fill="none" stroke="#13795b" stroke-width="3" stroke-linejoin="round"/>
<polyline points="76.00,313.51 183.71,308.59 265.19,308.48 346.67,309.11 454.38,302.67 535.85,297.91 617.33,300.77 725.04,320.25 806.52,336.64 888.00,414.52" fill="none" stroke="#1665d8" stroke-width="3" stroke-linejoin="round"/>
<polyline points="76.00,308.30 183.71,302.50 265.19,302.93 346.67,303.21 454.38,297.17 535.85,294.78 617.33,299.76 725.04,319.45 806.52,334.83 888.00,412.05" fill="none" stroke="#b54708" stroke-width="3" stroke-linejoin="round"/>
<rect x="670" y="62" width="190" height="96" rx="4" ry="4" fill="#fff" fill-opacity="0.82" stroke="#111" stroke-width="1"/>
<line x1="682" y1="78" x2="718" y2="78" stroke="#13795b" stroke-width="3"/>
<text x="728" y="83" font-family="Arial, Helvetica, sans-serif" font-size="13" font-weight="400" text-anchor="start" fill="#111">20 mW</text>
<line x1="682" y1="104" x2="718" y2="104" stroke="#1665d8" stroke-width="3"/>
<text x="728" y="109" font-family="Arial, Helvetica, sans-serif" font-size="13" font-weight="400" text-anchor="start" fill="#111">50 mW</text>
<line x1="682" y1="130" x2="718" y2="130" stroke="#b54708" stroke-width="3"/>
<text x="728" y="135" font-family="Arial, Helvetica, sans-serif" font-size="13" font-weight="400" text-anchor="start" fill="#111">100 mW</text>
<text x="460" y="502" font-family="Arial, Helvetica, sans-serif" font-size="14" font-weight="400" text-anchor="middle" fill="#111">Frequency, Hz</text>
<text x="22" y="260" font-family="Arial, Helvetica, sans-serif" font-size="14" text-anchor="middle" fill="#111" transform="rotate(-90 22 260)">THD, %</text>
</svg>
