<svg xmlns="http://www.w3.org/2000/svg" width="920" height="520" viewBox="0 0 920 520">
<defs>
<style>
.wire{stroke:#111;stroke-width:2.6;fill:none;stroke-linecap:round;stroke-linejoin:round}
.thin{stroke:#a7b0bd;stroke-width:1.2;fill:none;stroke-linecap:round;stroke-linejoin:round}
.axis{stroke:#111;stroke-width:1.4;fill:none}
.blue{stroke:#1665d8;stroke-width:3;fill:none;stroke-linecap:round;stroke-linejoin:round}
.green{stroke:#13795b;stroke-width:3;fill:none;stroke-linecap:round;stroke-linejoin:round}
.orange{stroke:#b54708;stroke-width:3;fill:none;stroke-linecap:round;stroke-linejoin:round}
.node{fill:#111;stroke:none}
</style>
</defs>
<rect width="100%" height="100%" fill="#fff"/>
<text x="76" y="36" font-family="Arial, Helvetica, sans-serif" font-size="22" font-weight="700" text-anchor="start" fill="#111">Darlington sine-wave response, 1 kHz, Vin = 1000 mVpp</text>
<rect x="76" y="60" width="812" height="396" fill="#fff" stroke="#111" stroke-width="1.4"/>
<line x1="76" y1="60" x2="76" y2="456" class="thin"/>
<text x="76" y="479" font-family="Arial, Helvetica, sans-serif" font-size="12" font-weight="400" text-anchor="middle" fill="#111">0</text>
<line x1="279" y1="60" x2="279" y2="456" class="thin"/>
<text x="279" y="479" font-family="Arial, Helvetica, sans-serif" font-size="12" font-weight="400" text-anchor="middle" fill="#111">1</text>
<line x1="482" y1="60" x2="482" y2="456" class="thin"/>
<text x="482" y="479" font-family="Arial, Helvetica, sans-serif" font-size="12" font-weight="400" text-anchor="middle" fill="#111">2</text>
<line x1="685" y1="60" x2="685" y2="456" class="thin"/>
<text x="685" y="479" font-family="Arial, Helvetica, sans-serif" font-size="12" font-weight="400" text-anchor="middle" fill="#111">3</text>
<line x1="888" y1="60" x2="888" y2="456" class="thin"/>
<text x="888" y="479" font-family="Arial, Helvetica, sans-serif" font-size="12" font-weight="400" text-anchor="middle" fill="#111">4</text>
<line x1="76" y1="456" x2="888" y2="456" class="thin"/>
<text x="66" y="460" font-family="Arial, Helvetica, sans-serif" font-size="12" font-weight="400" text-anchor="end" fill="#111">-10000</text>
<line x1="76" y1="357" x2="888" y2="357" class="thin"/>
<text x="66" y="361" font-family="Arial, Helvetica, sans-serif" font-size="12" font-weight="400" text-anchor="end" fill="#111">-5000</text>
<line x1="76" y1="258" x2="888" y2="258" class="thin"/>
<text x="66" y="262" font-family="Arial, Helvetica, sans-serif" font-size="12" font-weight="400" text-anchor="end" fill="#111">0</text>
<line x1="76" y1="159" x2="888" y2="159" class="thin"/>
<text x="66" y="163" font-family="Arial, Helvetica, sans-serif" font-size="12" font-weight="400" text-anchor="end" fill="#111">5000</text>
<line x1="76" y1="60" x2="888" y2="60" class="thin"/>
<text x="66" y="64" font-family="Arial, Helvetica, sans-serif" font-size="12" font-weight="400" text-anchor="end" fill="#111">10000</text>
<polyline points="76.00,243.53 77.02,252.37 78.03,256.37 79.05,263.45 80.06,265.54 81.08,271.95 82.09,273.15 83.11,278.86 84.12,279.50 85.14,284.75 86.15,285.02 87.16,289.96 88.18,289.97 89.20,294.68 90.21,294.49 91.23,299.02 92.24,298.67 93.26,303.05 94.27,302.57 95.29,306.82 96.30,306.22 97.32,310.35 98.33,309.64 99.35,313.66 100.36,312.84 101.38,316.74 102.39,315.82 103.41,319.62 104.42,318.59 105.43,322.28 106.45,321.15 107.47,324.72 108.48,323.49 109.50,326.96 110.51,325.62 111.53,328.98 112.54,327.54 113.56,330.79 114.57,329.25 115.59,332.39 116.60,330.74 117.62,333.77 118.63,332.03 119.64,334.95 120.66,333.10 121.68,335.91 122.69,333.96 123.70,336.66 124.72,334.61 125.74,337.20 126.75,335.04 127.77,337.54 128.78,335.28 129.80,337.66 130.81,335.30 131.83,337.58 132.84,335.11 133.86,337.29 134.87,334.73 135.89,336.79 136.90,334.14 137.91,336.10 138.93,333.34 139.95,335.21 140.96,332.35 141.97,334.11 142.99,331.16 144.01,332.83 145.02,329.78 146.04,331.35 147.05,328.21 148.07,329.68 149.08,326.45 150.10,327.82 151.11,324.51 152.13,325.79 153.14,322.39 154.16,323.58 155.17,320.10 156.18,321.20 157.20,317.64 158.22,318.65 159.23,315.01 160.25,315.95 161.26,312.24 162.28,313.09 163.29,309.31 164.31,310.10 165.32,306.26 166.34,306.98 167.35,303.08 168.37,303.74 169.38,299.79 170.40,300.40 171.41,296.42 172.43,296.99 173.44,292.98 174.45,293.53 175.47,289.51 176.49,289.90 177.50,285.94 178.52,286.32 179.53,282.21 180.55,282.66 181.56,278.64 182.58,279.16 183.59,275.26 184.61,275.67 185.62,217.14 186.64,194.94 187.65,196.67 188.66,196.67 189.68,196.06 190.70,196.99 191.71,195.86 192.72,197.10 193.74,195.80 194.76,197.14 195.77,195.80 196.79,197.14 197.80,195.80 198.82,197.14 199.83,195.81 200.85,197.14 201.86,195.81 202.88,197.14 203.89,195.81 204.91,197.14 205.92,195.82 206.93,197.14 207.95,195.82 208.97,197.13 209.98,195.82 210.99,197.13 212.01,195.82 213.03,197.13 214.04,195.82 215.06,197.13 216.07,195.82 217.09,197.13 218.10,195.82 219.12,197.13 220.13,195.82 221.15,197.13 222.16,195.82 223.18,197.13 224.19,195.82 225.20,197.12 226.22,195.82 227.24,197.12 228.25,195.82 229.27,197.12 230.28,195.82 231.30,197.12 232.31,195.82 233.33,197.12 234.34,195.82 235.36,197.12 236.37,195.82 237.39,197.12 238.40,195.82 239.42,197.12 240.43,195.81 241.45,197.11 242.46,195.81 243.47,197.11 244.49,195.81 245.51,197.11 246.52,195.81 247.54,197.11 248.55,195.81 249.57,197.11 250.58,195.81 251.60,197.11 252.61,195.81 253.63,197.11 254.64,195.81 255.66,197.11 256.67,195.81 257.69,197.11 258.70,195.81 259.72,197.10 260.73,195.81 261.74,197.10 262.76,195.81 263.78,197.08 264.79,195.78 265.81,197.09 266.82,195.82 267.84,197.11 268.85,195.82 269.87,197.17 270.88,195.90 271.90,197.31 272.91,196.10 273.93,197.71 274.94,196.78 275.95,210.33 276.97,222.65 277.99,236.29 279.00,243.63 280.01,252.42 281.03,256.61 282.05,263.33 283.06,265.63 284.08,271.70 285.09,273.15 286.11,278.54 287.12,279.44 288.14,284.39 289.15,284.93 290.17,289.56 291.18,289.85 292.20,294.26 293.21,294.35 294.22,298.59 295.24,298.53 296.26,302.61 297.27,302.42 298.29,306.38 299.30,306.06 300.32,309.90 301.33,309.48 302.35,313.21 303.36,312.67 304.38,316.29 305.39,315.65 306.41,319.16 307.42,318.42 308.44,321.82 309.45,320.97 310.47,324.27 311.48,323.32 312.49,326.50 313.51,325.45 314.53,328.52 315.54,327.37 316.56,330.33 317.57,329.07 318.59,331.93 319.60,330.57 320.62,333.32 321.63,331.85 322.65,334.49 323.66,332.92 324.68,335.45 325.69,333.78 326.70,336.20 327.72,334.43 328.74,336.75 329.75,334.87 330.76,337.08 331.78,335.10 332.80,337.20 333.81,335.12 334.83,337.12 335.84,334.94 336.86,336.83 337.87,334.55 338.89,336.34 339.90,333.96 340.92,335.64 341.93,333.17 342.95,334.75 343.96,332.17 344.97,333.66 345.99,330.99 347.01,332.37 348.02,329.61 349.03,330.89 350.05,328.03 351.07,329.22 352.08,326.28 353.10,327.37 354.11,324.33 355.13,325.33 356.14,322.21 357.16,323.12 358.17,319.92 359.19,320.74 360.20,317.46 361.22,318.20 362.23,314.83 363.24,315.49 364.26,312.06 365.28,312.64 366.29,309.13 367.31,309.64 368.32,306.08 369.34,306.52 370.35,302.90 371.37,303.28 372.38,299.61 373.40,299.95 374.41,296.24 375.43,296.54 376.44,292.80 377.46,293.07 378.47,289.33 379.49,289.60 380.50,285.87 381.51,285.96 382.53,282.10 383.55,282.27 384.56,278.50 385.58,278.75 386.59,275.11 387.61,275.29 388.62,220.44 389.64,195.64 390.65,196.52 391.67,183.52 392.68,192.39 393.70,198.92 394.71,191.38 395.72,198.76 396.74,191.62 397.76,198.72 398.77,191.34 399.78,198.65 400.80,191.14 401.82,198.59 402.83,191.32 403.85,198.58 404.86,191.12 405.88,198.55 406.89,191.22 407.91,198.54 408.92,191.13 409.94,198.53 410.95,191.18 411.97,198.52 412.98,191.15 413.99,198.52 415.01,191.18 416.03,198.51 417.04,191.17 418.05,198.51 419.07,191.19 420.09,198.51 421.10,191.19 422.12,198.51 423.13,191.21 424.15,198.51 425.16,191.22 426.18,198.50 427.19,191.23 428.21,198.50 429.22,191.24 430.24,198.50 431.25,191.25 432.26,198.50 433.28,191.27 434.30,198.50 435.31,191.28 436.32,198.50 437.34,191.29 438.36,198.50 439.37,191.30 440.39,198.50 441.40,191.32 442.42,198.50 443.43,191.33 444.45,198.50 445.46,191.34 446.48,198.50 447.49,191.36 448.51,198.50 449.52,191.37 450.53,198.50 451.55,191.38 452.57,198.50 453.58,191.40 454.60,198.50 455.61,191.41 456.63,198.50 457.64,191.42 458.66,198.50 459.67,191.44 460.69,198.50 461.70,191.45 462.72,198.50 463.73,191.46 464.75,198.50 465.76,191.48 466.78,198.50 467.79,191.47 468.80,198.51 469.82,191.45 470.84,198.53 471.85,191.32 472.87,198.62 473.88,191.09 474.90,198.71 475.91,190.82 476.93,198.80 477.94,190.32 478.96,221.38 479.97,223.70 480.99,244.34 482.00,240.85 483.01,258.59 484.03,251.90 485.05,268.57 486.06,260.88 487.07,276.66 488.09,268.23 489.11,283.37 490.12,274.42 491.14,289.17 492.15,279.82 493.17,294.22 494.18,284.70 495.20,298.91 496.21,289.24 497.23,303.25 498.24,293.43 499.26,307.27 500.27,297.33 501.28,311.03 502.30,300.99 503.32,314.55 504.33,304.38 505.34,317.77 506.36,307.52 507.38,320.81 508.39,310.47 509.41,323.65 510.42,313.23 511.44,326.29 512.45,315.78 513.47,328.72 514.48,318.12 515.50,330.94 516.51,320.25 517.53,332.96 518.54,322.18 519.55,334.77 520.57,323.89 521.59,336.36 522.60,325.39 523.62,337.75 524.63,326.69 525.65,338.93 526.66,327.77 527.68,339.89 528.69,328.64 529.71,340.64 530.72,329.30 531.74,341.18 532.75,329.75 533.76,341.51 534.78,329.99 535.80,341.63 536.81,330.02 537.82,341.54 538.84,329.84 539.86,341.25 540.87,329.46 541.89,340.75 542.90,328.87 543.92,340.05 544.93,328.09 545.95,339.15 546.96,327.10 547.98,338.05 548.99,325.92 550.01,336.75 551.02,324.54 552.03,335.27 553.05,322.97 554.07,333.59 555.08,321.21 556.09,331.72 557.11,319.27 558.13,329.68 559.14,317.15 560.16,327.45 561.17,314.86 562.19,325.06 563.20,312.40 564.22,322.49 565.23,309.77 566.25,319.74 567.26,306.91 568.28,316.81 569.29,303.93 570.30,313.76 571.32,300.83 572.34,310.58 573.35,297.60 574.36,307.28 575.38,294.25 576.40,303.86 577.41,290.81 578.43,300.36 579.44,287.28 580.46,296.79 581.47,283.71 582.49,293.18 583.50,280.11 584.52,289.57 585.53,276.53 586.55,286.01 587.56,273.05 588.57,282.55 589.59,269.70 590.61,278.84 591.62,215.38 592.64,196.34 593.65,195.20 594.67,195.14 595.68,194.46 596.70,198.52 597.71,193.26 598.73,198.63 599.74,192.41 600.76,198.57 601.77,192.45 602.79,198.55 603.80,192.45 604.82,198.53 605.83,192.42 606.84,198.52 607.86,192.41 608.88,198.51 609.89,192.40 610.91,198.50 611.92,192.40 612.94,198.50 613.95,192.41 614.97,198.50 615.98,192.41 617.00,198.49 618.01,192.42 619.03,198.49 620.04,192.42 621.06,198.49 622.07,192.43 623.09,198.49 624.10,192.44 625.11,198.48 626.13,192.45 627.15,198.48 628.16,192.46 629.18,198.48 630.19,192.47 631.21,198.48 632.22,192.48 633.24,198.48 634.25,192.49 635.27,198.48 636.28,192.50 637.30,198.48 638.31,192.50 639.32,198.48 640.34,192.51 641.36,198.48 642.37,192.52 643.38,198.48 644.40,192.53 645.42,198.48 646.43,192.54 647.45,198.48 648.46,192.55 649.48,198.48 650.49,192.56 651.51,198.48 652.52,192.57 653.54,198.48 654.55,192.58 655.57,198.48 656.58,192.59 657.59,198.47 658.61,192.60 659.63,198.47 660.64,192.61 661.66,198.47 662.67,192.62 663.69,198.47 664.70,192.62 665.72,198.47 666.73,192.63 667.75,198.47 668.76,192.64 669.78,198.47 670.79,192.64 671.81,198.48 672.82,192.61 673.84,198.50 674.85,192.49 675.86,198.56 676.88,189.46 677.90,198.47 678.91,190.11 679.93,198.87 680.94,190.98 681.96,218.22 682.97,220.08 683.99,240.31 685.00,238.59 686.02,256.65 687.03,252.62 688.05,268.82 689.06,262.05 690.07,276.26 691.09,268.97 692.11,282.79 693.12,275.17 694.13,288.48 695.15,280.45 696.17,293.44 697.18,285.23 698.20,297.99 699.21,289.63 700.23,302.22 701.24,293.74 702.26,306.18 703.27,297.59 704.29,309.90 705.30,301.21 706.32,313.40 707.33,304.61 708.34,316.68 709.36,307.80 710.38,319.76 711.39,310.78 712.40,322.62 713.42,313.55 714.44,325.26 715.45,316.10 716.47,327.70 717.48,318.45 718.50,329.93 719.51,320.58 720.53,331.95 721.54,322.51 722.56,333.77 723.57,324.23 724.59,335.37 725.60,325.73 726.61,336.76 727.63,327.03 728.65,337.94 729.66,328.11 730.68,338.90 731.69,328.98 732.71,339.65 733.72,329.64 734.74,340.20 735.75,330.09 736.77,340.53 737.78,330.33 738.80,340.65 739.81,330.36 740.83,340.56 741.84,330.18 742.86,340.27 743.87,329.80 744.88,339.77 745.90,329.21 746.92,339.07 747.93,328.42 748.95,338.17 749.96,327.44 750.98,337.07 751.99,326.25 753.01,335.78 754.02,324.87 755.04,334.29 756.05,323.31 757.07,332.61 758.08,321.55 759.09,330.75 760.11,319.61 761.13,328.70 762.14,317.49 763.15,326.45 764.17,315.13 765.19,324.02 766.20,312.63 767.22,321.44 768.23,309.98 769.25,318.70 770.26,307.18 771.28,315.80 772.29,304.22 773.31,312.76 774.32,301.12 775.34,309.59 776.35,297.90 777.36,306.29 778.38,294.55 779.40,302.87 780.41,291.11 781.42,299.37 782.44,287.58 783.46,295.80 784.47,283.99 785.49,292.18 786.50,280.39 787.52,288.56 788.53,276.80 789.55,284.99 790.56,273.30 791.58,281.53 792.59,269.95 793.61,277.77 794.62,215.89 795.63,196.22 796.65,195.37 797.67,198.03 798.68,194.31 799.70,198.53 800.71,193.77 801.73,198.60 802.74,193.42 803.76,198.52 804.77,193.38 805.79,198.50 806.80,193.37 807.82,198.49 808.83,193.37 809.85,198.48 810.86,193.36 811.88,198.47 812.89,193.36 813.90,198.47 814.92,193.36 815.94,198.46 816.95,193.36 817.97,198.46 818.98,193.36 820.00,198.45 821.01,193.36 822.03,198.45 823.04,193.37 824.06,198.45 825.07,193.37 826.09,198.45 827.10,193.37 828.12,198.45 829.13,193.38 830.15,198.44 831.16,193.38 832.17,198.52 833.19,193.34 834.21,198.47 835.22,193.39 836.24,198.53 837.25,193.37 838.27,198.47 839.28,193.64 840.30,198.56 841.31,193.41 842.33,198.55 843.34,193.45 844.36,198.57 845.37,193.44 846.38,198.57 847.40,193.46 848.42,198.57 849.43,193.48 850.44,198.57 851.46,193.49 852.48,198.57 853.49,193.51 854.51,198.57 855.52,193.52 856.54,198.57 857.55,193.53 858.57,198.57 859.58,193.54 860.60,198.57 861.61,193.54 862.63,198.57 863.64,193.79 864.65,198.60 865.67,193.53 866.69,198.57 867.70,193.57 868.72,198.57 869.73,193.79 870.75,198.60 871.76,193.55 872.78,198.49 873.79,193.68 874.81,198.57 875.82,193.55 876.84,198.58 877.85,193.55 878.87,198.63 879.88,193.49 880.90,198.76 881.91,193.07 882.92,199.30 883.94,192.18 884.96,219.41 885.97,222.84 886.99,242.08" fill="none" stroke="#13795b" stroke-width="3" stroke-linejoin="round"/>
<polyline points="76.00,240.18 77.02,249.03 78.03,253.02 79.05,260.11 80.06,262.20 81.08,268.61 82.09,269.81 83.11,275.52 84.12,276.16 85.14,281.41 86.15,281.68 87.16,286.61 88.18,286.62 89.20,291.33 90.21,291.14 91.23,295.66 92.24,295.31 93.26,299.69 94.27,299.21 95.29,303.45 96.30,302.85 97.32,306.97 98.33,306.26 99.35,310.27 100.36,309.45 101.38,313.35 102.39,312.42 103.41,316.21 104.42,315.18 105.43,318.85 106.45,317.72 107.47,321.29 108.48,320.05 109.50,323.51 110.51,322.17 111.53,325.52 112.54,324.07 113.56,327.32 114.57,325.77 115.59,328.90 116.60,327.24 117.62,330.27 118.63,328.51 119.64,331.43 120.66,329.57 121.68,332.37 122.69,330.41 123.70,333.11 124.72,331.04 125.74,333.63 126.75,331.47 127.77,333.95 128.78,331.68 129.80,334.06 130.81,331.69 131.83,333.96 132.84,331.49 133.86,333.65 134.87,331.08 135.89,333.14 136.90,330.48 137.91,332.43 138.93,329.67 139.95,331.52 140.96,328.66 141.97,330.41 142.99,327.46 144.01,329.11 145.02,326.06 146.04,327.62 147.05,324.48 148.07,325.93 149.08,322.70 150.10,324.07 151.11,320.75 152.13,322.02 153.14,318.61 154.16,319.80 155.17,316.31 156.18,317.40 157.20,313.83 158.22,314.84 159.23,311.20 160.25,312.13 161.26,308.41 162.28,309.26 163.29,305.48 164.31,306.26 165.32,302.41 166.34,303.13 167.35,299.23 168.37,299.88 169.38,295.93 170.40,296.54 171.41,292.56 172.43,293.12 173.44,289.11 174.45,289.66 175.47,285.64 176.49,286.02 177.50,282.06 178.52,282.44 179.53,278.33 180.55,278.77 181.56,274.75 182.58,275.28 183.59,271.38 184.61,271.79 185.62,213.25 186.64,191.07 187.65,192.81 188.66,192.82 189.68,192.22 190.70,193.16 191.71,192.04 192.72,193.29 193.74,192.00 194.76,193.35 195.77,192.03 196.79,193.37 197.80,192.05 198.82,193.39 199.83,192.07 200.85,193.41 201.86,192.10 202.88,193.43 203.89,192.12 204.91,193.45 205.92,192.14 206.93,193.47 207.95,192.16 208.97,193.49 209.98,192.19 210.99,193.51 212.01,192.21 213.03,193.53 214.04,192.23 215.06,193.55 216.07,192.25 217.09,193.57 218.10,192.27 219.12,193.59 220.13,192.29 221.15,193.61 222.16,192.31 223.18,193.63 224.19,192.33 225.20,193.65 226.22,192.35 227.24,193.67 228.25,192.37 229.27,193.69 230.28,192.39 231.30,193.71 232.31,192.41 233.33,193.73 234.34,192.43 235.36,193.75 236.37,192.45 237.39,193.77 238.40,192.47 239.42,193.79 240.43,192.49 241.45,193.81 242.46,192.52 243.47,193.82 244.49,192.54 245.51,193.84 246.52,192.56 247.54,193.86 248.55,192.58 249.57,193.88 250.58,192.60 251.60,193.90 252.61,192.62 253.63,193.92 254.64,192.64 255.66,193.94 256.67,192.66 257.69,193.96 258.70,192.68 259.72,193.98 260.73,192.70 261.74,194.00 262.76,192.72 263.78,194.00 264.79,192.71 265.81,194.03 266.82,192.77 267.84,194.07 268.85,192.79 269.87,194.15 270.88,192.89 271.90,194.31 272.91,193.11 273.93,194.73 274.94,193.81 275.95,207.37 276.97,219.70 277.99,233.34 279.00,240.69 280.01,249.49 281.03,253.67 282.05,260.40 283.06,262.70 284.08,268.77 285.09,270.22 286.11,275.61 287.12,276.51 288.14,281.45 289.15,281.99 290.17,286.63 291.18,286.91 292.20,291.32 293.21,291.41 294.22,295.64 295.24,295.58 296.26,299.66 297.27,299.46 298.29,303.42 299.30,303.10 300.32,306.93 301.33,306.50 302.35,310.23 303.36,309.69 304.38,313.30 305.39,312.66 306.41,316.16 307.42,315.41 308.44,318.81 309.45,317.96 310.47,321.24 311.48,320.29 312.49,323.46 313.51,322.40 314.53,325.47 315.54,324.31 316.56,327.26 317.57,326.00 318.59,328.85 319.60,327.48 320.62,330.22 321.63,328.74 322.65,331.38 323.66,329.80 324.68,332.32 325.69,330.64 326.70,333.06 327.72,331.27 328.74,333.58 329.75,331.70 330.76,333.90 331.78,331.91 332.80,334.01 333.81,331.92 334.83,333.91 335.84,331.72 336.86,333.60 337.87,331.31 338.89,333.09 339.90,330.71 340.92,332.38 341.93,329.90 342.95,331.47 343.96,328.89 344.97,330.36 345.99,327.69 347.01,329.06 348.02,326.29 349.03,327.57 350.05,324.71 351.07,325.89 352.08,322.93 353.10,324.02 354.11,320.98 355.13,321.97 356.14,318.84 357.16,319.75 358.17,316.54 359.19,317.35 360.20,314.06 361.22,314.80 362.23,311.43 363.24,312.08 364.26,308.64 365.28,309.22 366.29,305.71 367.31,306.21 368.32,302.64 369.34,303.08 370.35,299.45 371.37,299.84 372.38,296.16 373.40,296.49 374.41,292.78 375.43,293.08 376.44,289.34 377.46,289.61 378.47,285.86 379.49,286.13 380.50,282.40 381.51,282.49 382.53,278.62 383.55,278.79 384.56,275.02 385.58,275.28 386.59,271.63 387.61,271.82 388.62,216.97 389.64,192.17 390.65,193.07 391.67,180.07 392.68,188.95 393.70,195.50 394.71,187.97 395.72,195.36 396.74,188.23 397.76,195.34 398.77,187.97 399.78,195.29 400.80,187.80 401.82,195.25 402.83,187.99 403.85,195.27 404.86,187.82 405.88,195.25 406.89,187.94 407.91,195.27 408.92,187.86 409.94,195.28 410.95,187.94 411.97,195.29 412.98,187.93 413.99,195.31 415.01,187.98 416.03,195.33 417.04,187.99 418.05,195.34 419.07,188.03 420.09,195.36 421.10,188.06 422.12,195.38 423.13,188.09 424.15,195.40 425.16,188.12 426.18,195.42 427.19,188.16 428.21,195.44 429.22,188.19 430.24,195.46 431.25,188.22 432.26,195.48 433.28,188.26 434.30,195.50 435.31,188.29 436.32,195.52 437.34,188.32 438.36,195.55 439.37,188.36 440.39,195.57 441.40,188.39 442.42,195.59 443.43,188.43 444.45,195.61 445.46,188.46 446.48,195.63 447.49,188.50 448.51,195.65 449.52,188.53 450.53,195.67 451.55,188.56 452.57,195.69 453.58,188.60 454.60,195.71 455.61,188.63 456.63,195.73 457.64,188.67 458.66,195.75 459.67,188.70 460.69,195.77 461.70,188.74 462.72,195.80 463.73,188.77 464.75,195.82 465.76,188.80 466.78,195.84 467.79,188.82 468.80,195.87 469.82,188.82 470.84,195.91 471.85,188.71 472.87,196.02 473.88,188.50 474.90,196.13 475.91,188.25 476.93,196.24 477.94,187.77 478.96,218.85 479.97,221.17 480.99,241.82 482.00,238.32 483.01,256.07 484.03,249.38 485.05,266.05 486.06,258.36 487.07,274.15 488.09,265.72 489.11,280.86 490.12,271.91 491.14,286.65 492.15,277.31 493.17,291.70 494.18,282.18 495.20,296.39 496.21,286.72 497.23,300.72 498.24,290.90 499.26,304.74 500.27,294.80 501.28,308.49 502.30,298.44 503.32,312.00 504.33,301.82 505.34,315.21 506.36,304.96 507.38,318.23 508.39,307.90 509.41,321.06 510.42,310.64 511.44,323.69 512.45,313.18 513.47,326.11 514.48,315.50 515.50,328.32 516.51,317.62 517.53,330.32 518.54,319.53 519.55,332.12 520.57,321.23 521.59,333.70 522.60,322.72 523.62,335.07 524.63,324.00 525.65,336.23 526.66,325.07 527.68,337.18 528.69,325.92 529.71,337.91 530.72,326.56 531.74,338.44 532.75,327.00 533.76,338.75 534.78,327.22 535.80,338.86 536.81,327.23 537.82,338.75 538.84,327.04 539.86,338.44 540.87,326.64 541.89,337.93 542.90,326.04 543.92,337.21 544.93,325.24 545.95,336.29 546.96,324.23 547.98,335.18 548.99,323.04 550.01,333.87 551.02,321.64 552.03,332.36 553.05,320.06 554.07,330.67 555.08,318.29 556.09,328.79 557.11,316.34 558.13,326.73 559.14,314.20 560.16,324.49 561.17,311.90 562.19,322.08 563.20,309.42 564.22,319.51 565.23,306.78 566.25,316.75 567.26,303.91 568.28,313.81 569.29,300.92 570.30,310.75 571.32,297.81 572.34,307.56 573.35,294.57 574.36,304.25 575.38,291.22 576.40,300.83 577.41,287.77 578.43,297.32 579.44,284.24 580.46,293.74 581.47,280.66 582.49,290.13 583.50,277.05 584.52,286.51 585.53,273.48 586.55,282.95 587.56,269.99 588.57,279.49 589.59,266.64 590.61,275.78 591.62,212.33 592.64,193.30 593.65,192.16 594.67,192.12 595.68,191.45 596.70,195.52 597.71,190.27 598.73,195.65 599.74,189.43 600.76,195.61 601.77,189.50 602.79,195.61 603.80,189.52 604.82,195.61 605.83,189.51 606.84,195.62 607.86,189.52 608.88,195.63 609.89,189.54 610.91,195.65 611.92,189.56 612.94,195.66 613.95,189.58 614.97,195.68 615.98,189.61 617.00,195.70 618.01,189.63 619.03,195.72 620.04,189.66 621.06,195.73 622.07,189.69 623.09,195.75 624.10,189.72 625.11,195.77 626.13,189.75 627.15,195.79 628.16,189.78 629.18,195.81 630.19,189.81 631.21,195.83 632.22,189.84 633.24,195.85 634.25,189.87 635.27,195.87 636.28,189.90 637.30,195.89 638.31,189.93 639.32,195.91 640.34,189.96 641.36,195.93 642.37,189.99 643.38,195.95 644.40,190.02 645.42,195.97 646.43,190.05 647.45,195.99 648.46,190.08 649.48,196.01 650.49,190.11 651.51,196.04 652.52,190.14 653.54,196.06 654.55,190.17 655.57,196.08 656.58,190.20 657.59,196.10 658.61,190.23 659.63,196.12 660.64,190.26 661.66,196.14 662.67,190.29 663.69,196.16 664.70,190.32 665.72,196.18 666.73,190.35 667.75,196.20 668.76,190.38 669.78,196.22 670.79,190.39 671.81,196.25 672.82,190.39 673.84,196.29 674.85,190.29 675.86,196.37 676.88,187.28 677.90,196.30 678.91,187.95 679.93,196.72 680.94,188.84 681.96,216.09 682.97,217.96 683.99,238.19 685.00,236.48 686.02,254.54 687.03,250.51 688.05,266.72 689.06,259.95 690.07,274.15 691.09,266.86 692.11,280.68 693.12,273.07 694.13,286.38 695.15,278.34 696.17,291.33 697.18,283.12 698.20,295.88 699.21,287.51 700.23,300.10 701.24,291.61 702.26,304.05 703.27,295.46 704.29,307.76 705.30,299.07 706.32,311.25 707.33,302.46 708.34,314.53 709.36,305.64 710.38,317.59 711.39,308.61 712.40,320.44 713.42,311.37 714.44,323.08 715.45,313.91 716.47,325.50 717.48,316.24 718.50,327.72 719.51,318.36 720.53,329.72 721.54,320.27 722.56,331.52 723.57,321.98 724.59,333.11 725.60,323.47 726.61,334.49 727.63,324.75 728.65,335.65 729.66,325.81 730.68,336.60 731.69,326.67 732.71,337.33 733.72,327.31 734.74,337.86 735.75,327.74 736.77,338.17 737.78,327.97 738.80,338.28 739.81,327.98 740.83,338.18 741.84,327.79 742.86,337.87 743.87,327.39 744.88,337.36 745.90,326.79 746.92,336.64 747.93,325.98 748.95,335.72 749.96,324.98 750.98,334.61 751.99,323.78 753.01,333.30 754.02,322.39 755.04,331.79 756.05,320.80 757.07,330.10 758.08,319.03 759.09,328.22 760.11,317.07 761.13,326.16 762.14,314.94 763.15,323.90 764.17,312.57 765.19,321.46 766.20,310.06 767.22,318.86 768.23,307.40 769.25,316.11 770.26,304.58 771.28,313.21 772.29,301.62 773.31,310.16 774.32,298.51 775.34,306.97 776.35,295.28 777.36,303.66 778.38,291.92 779.40,300.24 780.41,288.47 781.42,296.73 782.44,284.94 783.46,293.16 784.47,281.35 785.49,289.54 786.50,277.74 787.52,285.91 788.53,274.16 789.55,282.34 790.56,270.65 791.58,278.88 792.59,267.29 793.61,275.12 794.62,213.24 795.63,193.58 796.65,192.74 797.67,195.41 798.68,191.70 799.70,195.93 800.71,191.18 801.73,196.02 802.74,190.85 803.76,195.97 804.77,190.83 805.79,195.97 806.80,190.85 807.82,195.97 808.83,190.86 809.85,195.98 810.86,190.88 811.88,196.00 812.89,190.89 813.90,196.01 814.92,190.91 815.94,196.03 816.95,190.94 817.97,196.05 818.98,190.96 820.00,196.06 821.01,190.98 822.03,196.08 823.04,191.01 824.06,196.10 825.07,191.03 826.09,196.12 827.10,191.05 828.12,196.14 829.13,191.08 830.15,196.16 831.16,191.10 832.17,196.26 833.19,191.08 834.21,196.22 835.22,191.15 836.24,196.31 837.25,191.15 838.27,196.27 839.28,191.44 840.30,196.38 841.31,191.24 842.33,196.39 843.34,191.29 844.36,196.42 845.37,191.31 846.38,196.44 847.40,191.35 848.42,196.47 849.43,191.39 850.44,196.49 851.46,191.42 852.48,196.51 853.49,191.46 854.51,196.53 855.52,191.49 856.54,196.55 857.55,191.52 858.57,196.57 859.58,191.55 860.60,196.59 861.61,191.57 862.63,196.61 863.64,191.84 864.65,196.66 865.67,191.61 866.69,196.65 867.70,191.66 868.72,196.67 869.73,191.91 870.75,196.72 871.76,191.68 872.78,196.64 873.79,191.83 874.81,196.73 875.82,191.72 876.84,196.76 877.85,191.74 878.87,196.84 879.88,191.70 880.90,196.98 881.91,191.31 882.92,197.55 883.94,190.43 884.96,217.67 885.97,221.11 886.99,240.35" fill="none" stroke="#1665d8" stroke-width="3" stroke-linejoin="round"/>
<polyline points="76.00,256.02 77.02,252.91 78.03,249.81 79.05,246.71 80.06,243.63 81.08,240.56 82.09,237.51 83.11,234.47 84.12,231.46 85.14,228.48 86.15,225.53 87.16,222.61 88.18,219.72 89.20,216.87 90.21,214.06 91.23,211.30 92.24,208.58 93.26,205.91 94.27,203.29 95.29,200.72 96.30,198.22 97.32,195.77 98.33,193.38 99.35,191.06 100.36,188.80 101.38,186.61 102.39,184.49 103.41,182.44 104.42,180.47 105.43,178.57 106.45,176.76 107.47,175.02 108.48,173.37 109.50,171.79 110.51,170.31 111.53,168.91 112.54,167.60 113.56,166.37 114.57,165.24 115.59,164.20 116.60,163.25 117.62,162.40 118.63,161.64 119.64,160.97 120.66,160.40 121.68,159.93 122.69,159.55 123.70,159.27 124.72,159.09 125.74,159.01 126.75,159.02 127.77,159.13 128.78,159.34 129.80,159.65 130.81,160.05 131.83,160.55 132.84,161.14 133.86,161.84 134.87,162.62 135.89,163.50 136.90,164.48 137.91,165.54 138.93,166.70 139.95,167.95 140.96,169.28 141.97,170.71 142.99,172.22 144.01,173.81 145.02,175.49 146.04,177.25 147.05,179.09 148.07,181.01 149.08,183.00 150.10,185.07 151.11,187.20 152.13,189.41 153.14,191.69 154.16,194.03 155.17,196.44 156.18,198.90 157.20,201.43 158.22,204.01 159.23,206.64 160.25,209.32 161.26,212.05 162.28,214.83 163.29,217.65 164.31,220.51 165.32,223.41 166.34,226.34 167.35,229.30 168.37,232.29 169.38,235.31 170.40,238.34 171.41,241.40 172.43,244.47 173.44,247.56 174.45,250.66 175.47,253.76 176.49,256.87 177.50,259.98 178.52,263.09 179.53,266.19 180.55,269.29 181.56,272.37 182.58,275.44 183.59,278.49 184.61,281.53 185.62,284.54 186.64,287.52 187.65,290.47 188.66,293.39 189.68,296.28 190.70,299.13 191.71,301.94 192.72,304.70 193.74,307.42 194.76,310.09 195.77,312.71 196.79,315.28 197.80,317.78 198.82,320.23 199.83,322.62 200.85,324.94 201.86,327.20 202.88,329.39 203.89,331.51 204.91,333.56 205.92,335.53 206.93,337.43 207.95,339.24 208.97,340.98 209.98,342.63 210.99,344.21 212.01,345.69 213.03,347.09 214.04,348.40 215.06,349.63 216.07,350.76 217.09,351.80 218.10,352.75 219.12,353.60 220.13,354.36 221.15,355.03 222.16,355.60 223.18,356.07 224.19,356.45 225.20,356.73 226.22,356.91 227.24,356.99 228.25,356.98 229.27,356.87 230.28,356.66 231.30,356.35 232.31,355.95 233.33,355.45 234.34,354.86 235.36,354.16 236.37,353.38 237.39,352.50 238.40,351.52 239.42,350.46 240.43,349.30 241.45,348.05 242.46,346.72 243.47,345.29 244.49,343.78 245.51,342.19 246.52,340.51 247.54,338.75 248.55,336.91 249.57,334.99 250.58,333.00 251.60,330.93 252.61,328.80 253.63,326.59 254.64,324.31 255.66,321.97 256.67,319.56 257.69,317.10 258.70,314.57 259.72,311.99 260.73,309.36 261.74,306.68 262.76,303.95 263.78,301.17 264.79,298.35 265.81,295.49 266.82,292.59 267.84,289.66 268.85,286.70 269.87,283.71 270.88,280.69 271.90,277.66 272.91,274.60 273.93,271.53 274.94,268.44 275.95,265.34 276.97,262.24 277.99,259.13 279.00,256.02 280.01,252.91 281.03,249.81 282.05,246.71 283.06,243.63 284.08,240.56 285.09,237.51 286.11,234.47 287.12,231.46 288.14,228.48 289.15,225.53 290.17,222.61 291.18,219.72 292.20,216.87 293.21,214.06 294.22,211.30 295.24,208.58 296.26,205.91 297.27,203.29 298.29,200.72 299.30,198.22 300.32,195.77 301.33,193.38 302.35,191.06 303.36,188.80 304.38,186.61 305.39,184.49 306.41,182.44 307.42,180.47 308.44,178.57 309.45,176.76 310.47,175.02 311.48,173.37 312.49,171.79 313.51,170.31 314.53,168.91 315.54,167.60 316.56,166.37 317.57,165.24 318.59,164.20 319.60,163.25 320.62,162.40 321.63,161.64 322.65,160.97 323.66,160.40 324.68,159.93 325.69,159.55 326.70,159.27 327.72,159.09 328.74,159.01 329.75,159.02 330.76,159.13 331.78,159.34 332.80,159.65 333.81,160.05 334.83,160.55 335.84,161.14 336.86,161.84 337.87,162.62 338.89,163.50 339.90,164.48 340.92,165.54 341.93,166.70 342.95,167.95 343.96,169.28 344.97,170.71 345.99,172.22 347.01,173.81 348.02,175.49 349.03,177.25 350.05,179.09 351.07,181.01 352.08,183.00 353.10,185.07 354.11,187.20 355.13,189.41 356.14,191.69 357.16,194.03 358.17,196.44 359.19,198.90 360.20,201.43 361.22,204.01 362.23,206.64 363.24,209.32 364.26,212.05 365.28,214.83 366.29,217.65 367.31,220.51 368.32,223.41 369.34,226.34 370.35,229.30 371.37,232.29 372.38,235.31 373.40,238.34 374.41,241.40 375.43,244.47 376.44,247.56 377.46,250.66 378.47,253.76 379.49,256.87 380.50,259.98 381.51,263.09 382.53,266.19 383.55,269.29 384.56,272.37 385.58,275.44 386.59,278.49 387.61,281.53 388.62,284.54 389.64,287.52 390.65,290.47 391.67,293.39 392.68,296.28 393.70,299.13 394.71,301.94 395.72,304.70 396.74,307.42 397.76,310.09 398.77,312.71 399.78,315.28 400.80,317.78 401.82,320.23 402.83,322.62 403.85,324.94 404.86,327.20 405.88,329.39 406.89,331.51 407.91,333.56 408.92,335.53 409.94,337.43 410.95,339.24 411.97,340.98 412.98,342.63 413.99,344.21 415.01,345.69 416.03,347.09 417.04,348.40 418.05,349.63 419.07,350.76 420.09,351.80 421.10,352.75 422.12,353.60 423.13,354.36 424.15,355.03 425.16,355.60 426.18,356.07 427.19,356.45 428.21,356.73 429.22,356.91 430.24,356.99 431.25,356.98 432.26,356.87 433.28,356.66 434.30,356.35 435.31,355.95 436.32,355.45 437.34,354.86 438.36,354.16 439.37,353.38 440.39,352.50 441.40,351.52 442.42,350.46 443.43,349.30 444.45,348.05 445.46,346.72 446.48,345.29 447.49,343.78 448.51,342.19 449.52,340.51 450.53,338.75 451.55,336.91 452.57,334.99 453.58,333.00 454.60,330.93 455.61,328.80 456.63,326.59 457.64,324.31 458.66,321.97 459.67,319.56 460.69,317.10 461.70,314.57 462.72,311.99 463.73,309.36 464.75,306.68 465.76,303.95 466.78,301.17 467.79,298.35 468.80,295.49 469.82,292.59 470.84,289.66 471.85,286.70 472.87,283.71 473.88,280.69 474.90,277.66 475.91,274.60 476.93,271.53 477.94,268.44 478.96,265.34 479.97,262.24 480.99,259.13 482.00,256.02 483.01,252.91 484.03,249.81 485.05,246.71 486.06,243.63 487.07,240.56 488.09,237.51 489.11,234.47 490.12,231.46 491.14,228.48 492.15,225.53 493.17,222.61 494.18,219.72 495.20,216.87 496.21,214.06 497.23,211.30 498.24,208.58 499.26,205.91 500.27,203.29 501.28,200.72 502.30,198.22 503.32,195.77 504.33,193.38 505.34,191.06 506.36,188.80 507.38,186.61 508.39,184.49 509.41,182.44 510.42,180.47 511.44,178.57 512.45,176.76 513.47,175.02 514.48,173.37 515.50,171.79 516.51,170.31 517.53,168.91 518.54,167.60 519.55,166.37 520.57,165.24 521.59,164.20 522.60,163.25 523.62,162.40 524.63,161.64 525.65,160.97 526.66,160.40 527.68,159.93 528.69,159.55 529.71,159.27 530.72,159.09 531.74,159.01 532.75,159.02 533.76,159.13 534.78,159.34 535.80,159.65 536.81,160.05 537.82,160.55 538.84,161.14 539.86,161.84 540.87,162.62 541.89,163.50 542.90,164.48 543.92,165.54 544.93,166.70 545.95,167.95 546.96,169.28 547.98,170.71 548.99,172.22 550.01,173.81 551.02,175.49 552.03,177.25 553.05,179.09 554.07,181.01 555.08,183.00 556.09,185.07 557.11,187.20 558.13,189.41 559.14,191.69 560.16,194.03 561.17,196.44 562.19,198.90 563.20,201.43 564.22,204.01 565.23,206.64 566.25,209.32 567.26,212.05 568.28,214.83 569.29,217.65 570.30,220.51 571.32,223.41 572.34,226.34 573.35,229.30 574.36,232.29 575.38,235.31 576.40,238.34 577.41,241.40 578.43,244.47 579.44,247.56 580.46,250.66 581.47,253.76 582.49,256.87 583.50,259.98 584.52,263.09 585.53,266.19 586.55,269.29 587.56,272.37 588.57,275.44 589.59,278.49 590.61,281.53 591.62,284.54 592.64,287.52 593.65,290.47 594.67,293.39 595.68,296.28 596.70,299.13 597.71,301.94 598.73,304.70 599.74,307.42 600.76,310.09 601.77,312.71 602.79,315.28 603.80,317.78 604.82,320.23 605.83,322.62 606.84,324.94 607.86,327.20 608.88,329.39 609.89,331.51 610.91,333.56 611.92,335.53 612.94,337.43 613.95,339.24 614.97,340.98 615.98,342.63 617.00,344.21 618.01,345.69 619.03,347.09 620.04,348.40 621.06,349.63 622.07,350.76 623.09,351.80 624.10,352.75 625.11,353.60 626.13,354.36 627.15,355.03 628.16,355.60 629.18,356.07 630.19,356.45 631.21,356.73 632.22,356.91 633.24,356.99 634.25,356.98 635.27,356.87 636.28,356.66 637.30,356.35 638.31,355.95 639.32,355.45 640.34,354.86 641.36,354.16 642.37,353.38 643.38,352.50 644.40,351.52 645.42,350.46 646.43,349.30 647.45,348.05 648.46,346.72 649.48,345.29 650.49,343.78 651.51,342.19 652.52,340.51 653.54,338.75 654.55,336.91 655.57,334.99 656.58,333.00 657.59,330.93 658.61,328.80 659.63,326.59 660.64,324.31 661.66,321.97 662.67,319.56 663.69,317.10 664.70,314.57 665.72,311.99 666.73,309.36 667.75,306.68 668.76,303.95 669.78,301.17 670.79,298.35 671.81,295.49 672.82,292.59 673.84,289.66 674.85,286.70 675.86,283.71 676.88,280.69 677.90,277.66 678.91,274.60 679.93,271.53 680.94,268.44 681.96,265.34 682.97,262.24 683.99,259.13 685.00,256.02 686.02,252.91 687.03,249.81 688.05,246.71 689.06,243.63 690.07,240.56 691.09,237.51 692.11,234.47 693.12,231.46 694.13,228.48 695.15,225.53 696.17,222.61 697.18,219.72 698.20,216.87 699.21,214.06 700.23,211.30 701.24,208.58 702.26,205.91 703.27,203.29 704.29,200.72 705.30,198.22 706.32,195.77 707.33,193.38 708.34,191.06 709.36,188.80 710.38,186.61 711.39,184.49 712.40,182.44 713.42,180.47 714.44,178.57 715.45,176.76 716.47,175.02 717.48,173.37 718.50,171.79 719.51,170.31 720.53,168.91 721.54,167.60 722.56,166.37 723.57,165.24 724.59,164.20 725.60,163.25 726.61,162.40 727.63,161.64 728.65,160.97 729.66,160.40 730.68,159.93 731.69,159.55 732.71,159.27 733.72,159.09 734.74,159.01 735.75,159.02 736.77,159.13 737.78,159.34 738.80,159.65 739.81,160.05 740.83,160.55 741.84,161.14 742.86,161.84 743.87,162.62 744.88,163.50 745.90,164.48 746.92,165.54 747.93,166.70 748.95,167.95 749.96,169.28 750.98,170.71 751.99,172.22 753.01,173.81 754.02,175.49 755.04,177.25 756.05,179.09 757.07,181.01 758.08,183.00 759.09,185.07 760.11,187.20 761.13,189.41 762.14,191.69 763.15,194.03 764.17,196.44 765.19,198.90 766.20,201.43 767.22,204.01 768.23,206.64 769.25,209.32 770.26,212.05 771.28,214.83 772.29,217.65 773.31,220.51 774.32,223.41 775.34,226.34 776.35,229.30 777.36,232.29 778.38,235.31 779.40,238.34 780.41,241.40 781.42,244.47 782.44,247.56 783.46,250.66 784.47,253.76 785.49,256.87 786.50,259.98 787.52,263.09 788.53,266.19 789.55,269.29 790.56,272.37 791.58,275.44 792.59,278.49 793.61,281.53 794.62,284.54 795.63,287.52 796.65,290.47 797.67,293.39 798.68,296.28 799.70,299.13 800.71,301.94 801.73,304.70 802.74,307.42 803.76,310.09 804.77,312.71 805.79,315.28 806.80,317.78 807.82,320.23 808.83,322.62 809.85,324.94 810.86,327.20 811.88,329.39 812.89,331.51 813.90,333.56 814.92,335.53 815.94,337.43 816.95,339.24 817.97,340.98 818.98,342.63 820.00,344.21 821.01,345.69 822.03,347.09 823.04,348.40 824.06,349.63 825.07,350.76 826.09,351.80 827.10,352.75 828.12,353.60 829.13,354.36 830.15,355.03 831.16,355.60 832.17,356.07 833.19,356.45 834.21,356.73 835.22,356.91 836.24,356.99 837.25,356.98 838.27,356.87 839.28,356.66 840.30,356.35 841.31,355.95 842.33,355.45 843.34,354.86 844.36,354.16 845.37,353.38 846.38,352.50 847.40,351.52 848.42,350.46 849.43,349.30 850.44,348.05 851.46,346.72 852.48,345.29 853.49,343.78 854.51,342.19 855.52,340.51 856.54,338.75 857.55,336.91 858.57,334.99 859.58,333.00 860.60,330.93 861.61,328.80 862.63,326.59 863.64,324.31 864.65,321.97 865.67,319.56 866.69,317.10 867.70,314.57 868.72,311.99 869.73,309.36 870.75,306.68 871.76,303.95 872.78,301.17 873.79,298.35 874.81,295.49 875.82,292.59 876.84,289.66 877.85,286.70 878.87,283.71 879.88,280.69 880.90,277.66 881.91,274.60 882.92,271.53 883.94,268.44 884.96,265.34 885.97,262.24 886.99,259.13" fill="none" stroke="#b54708" stroke-width="3" stroke-linejoin="round"/>
<rect x="670" y="62" width="190" height="96" rx="4" ry="4" fill="#fff" fill-opacity="0.82" stroke="#111" stroke-width="1"/>
<line x1="682" y1="78" x2="718" y2="78" stroke="#13795b" stroke-width="3"/>
<text x="728" y="83" font-family="Arial, Helvetica, sans-serif" font-size="13" font-weight="400" text-anchor="start" fill="#111">amp out AC</text>
<line x1="682" y1="104" x2="718" y2="104" stroke="#1665d8" stroke-width="3"/>
<text x="728" y="109" font-family="Arial, Helvetica, sans-serif" font-size="13" font-weight="400" text-anchor="start" fill="#111">load output</text>
<line x1="682" y1="130" x2="718" y2="130" stroke="#b54708" stroke-width="3"/>
<text x="728" y="135" font-family="Arial, Helvetica, sans-serif" font-size="13" font-weight="400" text-anchor="start" fill="#111">input x10</text>
<text x="460" y="502" font-family="Arial, Helvetica, sans-serif" font-size="14" font-weight="400" text-anchor="middle" fill="#111">Time after 40 ms settling, ms</text>
<text x="22" y="260" font-family="Arial, Helvetica, sans-serif" font-size="14" text-anchor="middle" fill="#111" transform="rotate(-90 22 260)">AC voltage, mV</text>
</svg>
