<svg xmlns="http://www.w3.org/2000/svg" width="920" height="520" viewBox="0 0 920 520">
<defs>
<style>
.wire{stroke:#111;stroke-width:2.6;fill:none;stroke-linecap:round;stroke-linejoin:round}
.thin{stroke:#a7b0bd;stroke-width:1.2;fill:none;stroke-linecap:round;stroke-linejoin:round}
.axis{stroke:#111;stroke-width:1.4;fill:none}
.blue{stroke:#1665d8;stroke-width:3;fill:none;stroke-linecap:round;stroke-linejoin:round}
.green{stroke:#13795b;stroke-width:3;fill:none;stroke-linecap:round;stroke-linejoin:round}
.orange{stroke:#b54708;stroke-width:3;fill:none;stroke-linecap:round;stroke-linejoin:round}
.node{fill:#111;stroke:none}
</style>
</defs>
<rect width="100%" height="100%" fill="#fff"/>
<text x="76" y="36" font-family="Arial, Helvetica, sans-serif" font-size="22" font-weight="700" text-anchor="start" fill="#111">Darlington square response, 1 kHz, Vin = 1000 mVpp</text>
<rect x="76" y="60" width="812" height="396" fill="#fff" stroke="#111" stroke-width="1.4"/>
<line x1="76" y1="60" x2="76" y2="456" class="thin"/>
<text x="76" y="479" font-family="Arial, Helvetica, sans-serif" font-size="12" font-weight="400" text-anchor="middle" fill="#111">0</text>
<line x1="279" y1="60" x2="279" y2="456" class="thin"/>
<text x="279" y="479" font-family="Arial, Helvetica, sans-serif" font-size="12" font-weight="400" text-anchor="middle" fill="#111">1</text>
<line x1="482" y1="60" x2="482" y2="456" class="thin"/>
<text x="482" y="479" font-family="Arial, Helvetica, sans-serif" font-size="12" font-weight="400" text-anchor="middle" fill="#111">2</text>
<line x1="685" y1="60" x2="685" y2="456" class="thin"/>
<text x="685" y="479" font-family="Arial, Helvetica, sans-serif" font-size="12" font-weight="400" text-anchor="middle" fill="#111">3</text>
<line x1="888" y1="60" x2="888" y2="456" class="thin"/>
<text x="888" y="479" font-family="Arial, Helvetica, sans-serif" font-size="12" font-weight="400" text-anchor="middle" fill="#111">4</text>
<line x1="76" y1="456" x2="888" y2="456" class="thin"/>
<text x="66" y="460" font-family="Arial, Helvetica, sans-serif" font-size="12" font-weight="400" text-anchor="end" fill="#111">-10</text>
<line x1="76" y1="357" x2="888" y2="357" class="thin"/>
<text x="66" y="361" font-family="Arial, Helvetica, sans-serif" font-size="12" font-weight="400" text-anchor="end" fill="#111">-5</text>
<line x1="76" y1="258" x2="888" y2="258" class="thin"/>
<text x="66" y="262" font-family="Arial, Helvetica, sans-serif" font-size="12" font-weight="400" text-anchor="end" fill="#111">0</text>
<line x1="76" y1="159" x2="888" y2="159" class="thin"/>
<text x="66" y="163" font-family="Arial, Helvetica, sans-serif" font-size="12" font-weight="400" text-anchor="end" fill="#111">5</text>
<line x1="76" y1="60" x2="888" y2="60" class="thin"/>
<text x="66" y="64" font-family="Arial, Helvetica, sans-serif" font-size="12" font-weight="400" text-anchor="end" fill="#111">10</text>
<polyline points="76.00,179.90 76.02,178.63 76.06,178.77 76.11,181.59 76.13,182.21 76.14,182.67 76.16,183.15 76.18,183.94 76.20,184.88 76.21,185.02 76.21,185.19 76.22,185.51 76.24,186.02 76.27,186.90 76.33,188.71 76.44,192.40 76.68,199.97 77.07,212.93 77.47,225.01 77.87,233.48 78.26,240.18 78.66,246.08 79.06,251.40 79.45,256.22 79.85,260.60 80.25,264.58 80.64,268.22 81.04,271.53 81.43,274.56 81.83,277.31 82.23,279.84 82.62,282.15 83.02,284.26 83.42,286.19 83.81,287.97 84.21,289.59 84.61,291.08 85.00,292.44 85.40,293.69 85.80,294.83 86.19,295.89 86.59,296.85 86.99,297.73 87.38,298.54 87.78,299.29 88.17,299.97 88.57,300.61 88.97,301.18 89.36,301.71 89.76,302.20 90.16,302.65 90.55,303.06 90.95,303.44 91.35,303.78 91.74,304.10 92.14,304.39 92.54,304.66 92.93,304.91 93.33,305.14 93.73,305.34 94.12,305.54 94.52,305.71 94.91,305.87 95.31,306.02 95.71,306.16 96.10,306.28 96.50,306.40 96.90,306.50 97.29,306.60 97.69,306.68 98.09,306.76 98.48,306.83 98.88,306.90 99.28,306.96 99.67,307.02 100.07,307.06 100.47,307.11 100.86,307.15 101.26,307.19 101.66,307.22 102.05,307.25 102.45,307.27 102.84,307.30 103.24,307.32 103.64,307.34 104.03,307.35 104.43,307.37 104.83,307.38 105.22,307.39 105.62,307.39 106.02,307.40 106.41,307.41 106.81,307.42 107.21,307.42 107.60,307.42 108.00,307.42 108.40,307.43 108.79,307.43 109.19,307.43 109.58,307.43 109.98,307.43 110.38,307.43 110.77,307.43 111.17,307.43 111.57,307.43 111.96,307.42 112.36,307.43 112.76,307.42 113.15,307.42 113.55,307.42 113.95,307.42 114.34,307.41 114.74,307.42 115.14,307.41 115.53,307.41 115.93,307.41 116.33,307.41 116.72,307.40 117.12,307.40 117.51,307.40 117.91,307.40 118.31,307.39 118.70,307.39 119.10,307.39 119.50,307.39 119.89,307.38 120.29,307.38 120.69,307.38 121.08,307.38 121.48,307.37 121.88,307.38 122.27,307.37 122.67,307.37 123.07,307.37 123.46,307.37 123.86,307.36 124.25,307.36 124.65,307.36 125.05,307.36 125.44,307.35 125.84,307.35 126.24,307.35 126.63,307.35 127.03,307.34 127.43,307.34 127.82,307.34 128.22,307.34 128.62,307.33 129.01,307.33 129.41,307.33 129.81,307.33 130.20,307.32 130.60,307.32 131.00,307.32 131.39,307.32 131.79,307.31 132.18,307.31 132.58,307.31 132.98,307.31 133.37,307.30 133.77,307.30 134.17,307.30 134.56,307.30 134.96,307.29 135.36,307.30 135.75,307.29 136.15,307.29 136.55,307.29 136.94,307.29 137.34,307.28 137.74,307.28 138.13,307.28 138.53,307.28 138.92,307.27 139.32,307.27 139.72,307.27 140.11,307.27 140.51,307.26 140.91,307.26 141.30,307.26 141.70,307.26 142.10,307.25 142.49,307.25 142.89,307.25 143.29,307.25 143.68,307.24 144.08,307.24 144.48,307.24 144.87,307.24 145.27,307.23 145.66,307.23 146.06,307.23 146.46,307.23 146.85,307.22 147.25,307.22 147.65,307.22 148.04,307.22 148.44,307.21 148.84,307.21 149.23,307.21 149.63,307.21 150.03,307.20 150.42,307.20 150.82,307.20 151.22,307.20 151.61,307.19 152.01,307.20 152.41,307.19 152.80,307.19 153.20,307.19 153.59,307.19 153.99,307.18 154.39,307.18 154.78,307.18 155.18,307.18 155.58,307.17 155.97,307.17 156.37,307.17 156.77,307.17 157.16,307.16 157.56,307.16 157.96,307.16 158.35,307.16 158.75,307.15 159.15,307.15 159.54,307.15 159.94,307.15 160.33,307.14 160.73,307.14 161.13,307.14 161.52,307.14 161.92,307.13 162.32,307.13 162.71,307.13 163.11,307.13 163.51,307.12 163.90,307.12 164.30,307.12 164.70,307.12 165.09,307.11 165.49,307.11 165.89,307.11 166.28,307.11 166.68,307.10 167.08,307.11 167.47,307.10 167.87,307.10 168.26,307.10 168.66,307.10 169.06,307.09 169.45,307.09 169.85,307.09 170.25,307.09 170.64,307.08 171.04,307.08 171.44,307.08 171.83,307.08 172.23,307.07 172.63,307.07 173.02,307.07 173.42,307.07 173.82,307.06 174.21,307.06 174.61,307.06 175.00,307.06 175.40,307.05 175.80,307.05 176.19,307.05 176.59,307.05 176.99,307.04 177.35,307.04 177.70,307.04 177.72,306.87 177.76,306.47 177.83,305.53 177.91,304.41 177.92,304.24 177.95,303.91 178.01,303.25 178.12,301.97 178.35,299.52 178.74,295.60 179.14,292.15 179.54,288.95 179.93,285.99 180.33,283.23 180.73,280.67 181.12,278.28 181.52,276.06 181.91,273.98 182.31,272.05 182.71,270.23 183.10,268.53 183.50,266.94 183.90,265.44 184.29,264.03 184.69,262.71 185.09,261.45 185.48,260.25 185.88,258.87 186.28,257.48 186.67,255.87 187.07,233.05 187.47,186.84 187.78,178.03 188.09,176.32 188.47,165.60 188.86,165.94 189.26,178.09 189.66,176.41 190.05,179.74 190.42,176.04 190.81,179.78 191.21,176.03 191.61,179.78 192.00,176.04 192.40,179.79 192.80,176.06 193.19,179.79 193.59,176.07 193.99,179.80 194.38,176.09 194.78,179.80 195.17,176.10 195.57,179.81 195.97,176.11 196.36,179.81 196.76,176.37 197.16,179.82 197.55,176.23 197.95,179.83 198.35,176.36 198.74,179.83 199.14,176.14 199.54,179.83 199.93,176.10 200.33,179.83 200.73,176.20 201.12,179.85 201.52,176.45 201.92,179.84 202.31,176.23 202.71,179.86 203.10,176.45 203.50,179.85 203.90,176.28 204.29,179.87 204.69,176.46 205.09,179.86 205.48,176.27 205.88,179.88 206.28,176.23 206.67,179.87 207.07,176.49 207.47,179.88 207.86,176.39 208.26,179.89 208.66,176.51 209.05,179.89 209.45,176.25 209.84,179.89 210.24,176.32 210.64,179.91 211.03,176.57 211.43,179.89 211.83,176.36 212.22,179.92 212.62,176.58 213.02,179.91 213.41,176.36 213.81,179.93 214.21,176.61 214.60,179.91 215.00,176.41 215.40,179.94 215.79,176.63 216.19,179.92 216.59,176.40 216.98,179.95 217.38,176.65 217.77,179.93 218.17,176.45 218.57,179.96 218.96,176.67 219.36,179.94 219.76,176.43 220.15,179.97 220.55,176.70 220.95,179.95 221.34,176.49 221.74,179.98 222.14,176.72 222.53,179.96 222.93,176.48 223.33,179.99 223.72,176.74 224.12,179.97 224.51,176.52 224.91,180.00 225.31,176.76 225.70,179.98 226.10,176.53 226.50,180.01 226.89,176.79 227.29,179.98 227.69,176.56 228.08,180.02 228.48,176.81 228.88,179.99 229.27,176.58 229.67,180.03 230.07,176.83 230.46,180.00 230.86,176.62 231.26,180.04 231.65,176.85 232.05,180.01 232.44,176.73 232.84,180.05 233.24,176.85 233.63,180.03 234.03,176.82 234.43,180.05 234.82,176.85 235.22,180.05 235.62,176.85 236.01,180.05 236.41,176.87 236.81,180.06 237.20,176.88 237.60,180.06 238.00,176.89 238.39,180.07 238.79,176.90 239.18,180.07 239.58,176.91 239.98,180.08 240.37,176.92 240.77,180.08 241.17,176.93 241.56,180.09 241.96,176.94 242.36,180.09 242.75,176.95 243.15,180.10 243.55,176.96 243.94,180.10 244.34,176.97 244.74,180.11 245.13,176.98 245.53,180.11 245.92,176.99 246.32,180.12 246.72,177.00 247.11,180.12 247.51,177.01 247.91,180.13 248.30,177.02 248.70,180.13 249.10,177.04 249.49,180.14 249.89,177.05 250.29,180.14 250.68,177.06 251.08,180.14 251.48,177.07 251.87,180.15 252.27,177.08 252.67,180.15 253.06,177.09 253.46,180.16 253.85,177.10 254.25,180.16 254.65,177.11 255.04,180.17 255.44,177.12 255.84,180.17 256.23,177.13 256.63,180.18 257.03,177.14 257.42,180.18 257.82,177.15 258.22,180.19 258.61,177.16 259.01,180.19 259.41,177.17 259.80,180.20 260.20,177.18 260.59,180.20 260.99,177.19 261.39,180.21 261.78,177.20 262.18,180.21 262.58,177.21 262.97,180.22 263.37,177.22 263.77,180.22 264.16,177.24 264.56,180.23 264.96,177.25 265.35,180.23 265.75,177.26 266.15,180.24 266.54,177.27 266.94,180.24 267.34,177.28 267.73,180.25 268.13,177.29 268.52,180.25 268.92,177.30 269.32,180.26 269.71,177.31 270.11,180.26 270.51,177.32 270.90,180.27 271.30,177.33 271.70,180.27 272.09,177.34 272.49,180.28 272.89,177.35 273.28,180.28 273.68,177.36 274.08,180.29 274.47,177.37 274.87,180.29 275.26,177.38 275.66,180.30 276.06,177.39 276.45,180.30 276.85,177.40 277.25,180.31 277.64,177.41 278.04,180.31 278.44,177.42 278.72,180.31 279.00,177.43 279.02,178.94 279.06,179.11 279.11,181.90 279.14,182.91 279.17,183.72 279.18,184.56 279.20,185.23 279.21,185.40 279.21,185.62 279.23,185.96 279.24,186.31 279.26,187.01 279.31,188.44 279.40,191.34 279.59,197.31 279.97,209.29 280.36,222.27 280.76,231.60 281.16,238.63 281.55,244.68 281.95,250.13 282.35,255.06 282.74,259.55 283.14,263.62 283.53,267.34 283.93,270.72 284.33,273.81 284.72,276.63 285.12,279.21 285.52,281.56 285.91,283.72 286.31,285.70 286.71,287.51 287.10,289.16 287.50,290.68 287.90,292.07 288.29,293.35 288.69,294.51 289.09,295.59 289.48,296.57 289.88,297.48 290.28,298.30 290.67,299.07 291.07,299.76 291.46,300.41 291.86,300.99 292.26,301.54 292.65,302.03 293.05,302.49 293.45,302.91 293.84,303.30 294.24,303.65 294.64,303.98 295.03,304.27 295.43,304.55 295.83,304.80 296.22,305.03 296.62,305.24 297.02,305.44 297.41,305.62 297.81,305.78 298.20,305.93 298.60,306.07 299.00,306.20 299.39,306.32 299.79,306.42 300.19,306.52 300.58,306.61 300.98,306.69 301.38,306.76 301.77,306.83 302.17,306.89 302.57,306.95 302.96,307.00 303.36,307.05 303.76,307.09 304.15,307.13 304.55,307.16 304.95,307.19 305.34,307.21 305.74,307.24 306.13,307.26 306.53,307.28 306.93,307.29 307.32,307.31 307.72,307.32 308.12,307.33 308.51,307.34 308.91,307.35 309.31,307.35 309.70,307.36 310.10,307.36 310.50,307.37 310.89,307.37 311.29,307.38 311.69,307.37 312.08,307.38 312.48,307.38 312.87,307.38 313.27,307.38 313.67,307.38 314.06,307.37 314.46,307.38 314.86,307.37 315.25,307.37 315.65,307.37 316.05,307.37 316.44,307.37 316.84,307.37 317.24,307.36 317.63,307.36 318.03,307.36 318.43,307.36 318.82,307.36 319.22,307.36 319.61,307.35 320.01,307.35 320.41,307.35 320.80,307.35 321.20,307.34 321.60,307.34 321.99,307.34 322.39,307.34 322.79,307.33 323.18,307.33 323.58,307.33 323.98,307.33 324.37,307.32 324.77,307.32 325.17,307.32 325.56,307.32 325.96,307.31 326.36,307.32 326.75,307.31 327.15,307.31 327.54,307.31 327.94,307.31 328.34,307.30 328.73,307.30 329.13,307.30 329.53,307.30 329.92,307.29 330.32,307.29 330.72,307.29 331.11,307.29 331.51,307.28 331.91,307.28 332.30,307.28 332.70,307.28 333.10,307.27 333.49,307.27 333.89,307.27 334.28,307.27 334.68,307.26 335.08,307.26 335.47,307.26 335.87,307.26 336.27,307.25 336.66,307.25 337.06,307.25 337.46,307.25 337.85,307.24 338.25,307.24 338.65,307.24 339.04,307.24 339.44,307.23 339.84,307.24 340.23,307.23 340.63,307.23 341.03,307.23 341.42,307.23 341.82,307.22 342.21,307.22 342.61,307.22 343.01,307.22 343.40,307.21 343.80,307.21 344.20,307.21 344.59,307.21 344.99,307.20 345.39,307.20 345.78,307.20 346.18,307.20 346.58,307.19 346.97,307.19 347.37,307.19 347.77,307.19 348.16,307.18 348.56,307.18 348.95,307.18 349.35,307.18 349.75,307.17 350.14,307.17 350.54,307.17 350.94,307.17 351.33,307.16 351.73,307.16 352.13,307.16 352.52,307.16 352.92,307.15 353.32,307.15 353.71,307.15 354.11,307.15 354.51,307.14 354.90,307.15 355.30,307.14 355.70,307.14 356.09,307.14 356.49,307.14 356.88,307.13 357.28,307.13 357.68,307.13 358.07,307.13 358.47,307.12 358.87,307.12 359.26,307.12 359.66,307.12 360.06,307.11 360.45,307.11 360.85,307.11 361.25,307.11 361.64,307.10 362.04,307.10 362.44,307.10 362.83,307.10 363.23,307.09 363.62,307.09 364.02,307.09 364.42,307.09 364.81,307.08 365.21,307.08 365.61,307.08 366.00,307.08 366.40,307.07 366.80,307.07 367.19,307.07 367.59,307.07 367.99,307.06 368.38,307.06 368.78,307.06 369.18,307.06 369.57,307.06 369.97,307.06 370.36,307.05 370.76,307.05 371.16,307.05 371.55,307.05 371.95,307.04 372.35,307.04 372.74,307.04 373.14,307.04 373.54,307.03 373.93,307.03 374.33,307.03 374.73,307.03 375.12,307.02 375.52,307.02 375.92,307.02 376.31,307.02 376.71,307.01 377.11,307.01 377.50,307.01 377.90,307.01 378.29,307.00 378.69,307.00 379.09,307.00 379.48,307.00 379.88,306.99 380.28,306.99 380.49,306.99 380.70,306.99 380.72,306.82 380.76,306.42 380.83,305.48 380.91,304.36 380.92,304.19 380.95,303.86 381.01,303.20 381.12,301.92 381.35,299.47 381.74,295.56 382.14,292.12 382.54,288.92 382.93,285.96 383.33,283.21 383.73,280.65 384.12,278.26 384.52,276.04 384.91,273.97 385.31,272.03 385.71,270.22 386.10,268.52 386.50,266.93 386.90,265.43 387.29,264.03 387.69,262.70 388.09,261.45 388.48,260.25 388.88,258.87 389.28,257.47 389.67,255.86 390.07,232.22 390.47,186.24 390.77,178.38 391.08,178.35 391.42,166.09 391.82,166.96 392.21,179.02 392.61,176.42 393.01,180.26 393.35,175.62 393.70,180.16 394.09,175.59 394.49,180.15 394.89,175.86 395.28,180.30 395.68,175.92 396.07,180.33 396.47,176.02 396.87,180.36 397.26,176.06 397.66,180.37 398.06,176.09 398.45,180.38 398.85,176.10 399.25,180.39 399.64,176.12 400.04,180.39 400.44,176.13 400.83,180.40 401.23,176.15 401.63,180.40 402.02,176.16 402.42,180.41 402.81,176.17 403.21,180.41 403.61,176.19 404.00,180.42 404.40,176.20 404.80,180.42 405.19,176.22 405.59,180.43 405.99,176.23 406.38,180.43 406.78,176.24 407.18,180.44 407.57,176.26 407.97,180.44 408.37,176.27 408.76,180.45 409.16,176.29 409.56,180.46 409.95,176.30 410.35,180.46 410.74,176.31 411.14,180.47 411.54,176.33 411.93,180.47 412.33,176.34 412.73,180.48 413.12,176.35 413.52,180.48 413.92,176.37 414.31,180.49 414.71,176.38 415.11,180.49 415.50,176.39 415.90,180.50 416.30,176.41 416.69,180.50 417.09,176.42 417.48,180.51 417.88,176.43 418.28,180.51 418.67,176.45 419.07,180.52 419.47,176.46 419.86,180.52 420.26,176.47 420.66,180.53 421.05,176.49 421.45,180.53 421.85,176.50 422.24,180.54 422.64,176.51 423.04,180.54 423.43,176.53 423.83,180.55 424.23,176.54 424.62,180.55 425.02,176.55 425.41,180.56 425.81,176.57 426.21,180.56 426.60,176.58 427.00,180.57 427.40,176.59 427.79,180.57 428.19,176.60 428.59,180.58 428.98,176.62 429.38,180.58 429.78,176.63 430.17,180.59 430.57,176.64 430.97,180.59 431.36,176.66 431.76,180.60 432.15,176.67 432.55,180.60 432.95,176.68 433.34,180.61 433.74,176.69 434.14,180.61 434.53,176.71 434.93,180.62 435.33,176.72 435.72,180.62 436.12,176.73 436.52,180.63 436.91,176.75 437.31,180.63 437.71,176.76 438.10,180.64 438.50,176.77 438.89,180.64 439.29,176.78 439.69,180.65 440.08,176.80 440.48,180.65 440.88,176.81 441.27,180.66 441.67,176.82 442.07,180.66 442.46,176.83 442.86,180.67 443.26,176.85 443.65,180.67 444.05,176.86 444.45,180.68 444.84,176.87 445.24,180.68 445.64,176.88 446.03,180.69 446.43,176.90 446.82,180.69 447.22,176.91 447.62,180.70 448.01,176.92 448.41,180.70 448.81,176.93 449.20,180.71 449.60,176.95 450.00,180.71 450.39,176.96 450.79,180.72 451.19,176.97 451.58,180.72 451.98,176.98 452.38,180.72 452.77,177.00 453.17,180.73 453.56,177.01 453.96,180.73 454.36,177.02 454.75,180.74 455.15,177.03 455.55,180.74 455.94,177.05 456.34,180.75 456.74,177.06 457.13,180.75 457.53,177.07 457.93,180.76 458.32,177.09 458.72,180.76 459.12,177.10 459.51,180.77 459.91,177.11 460.31,180.77 460.70,177.12 461.10,180.78 461.49,177.14 461.89,180.78 462.29,177.15 462.68,180.79 463.08,177.16 463.48,180.79 463.87,177.17 464.27,180.80 464.67,177.19 465.06,180.80 465.46,177.20 465.86,180.81 466.25,177.21 466.65,180.81 467.05,177.23 467.44,180.82 467.84,177.24 468.23,180.82 468.63,177.25 469.03,180.83 469.42,177.27 469.82,180.83 470.22,177.28 470.61,180.83 471.01,177.29 471.41,180.84 471.80,177.30 472.20,180.84 472.60,177.32 472.99,180.85 473.39,177.33 473.79,180.85 474.18,177.34 474.58,180.86 474.98,177.36 475.37,180.86 475.77,177.38 476.16,180.87 476.56,177.42 476.96,180.87 477.35,177.53 477.75,180.84 478.15,177.50 478.54,180.86 478.94,177.52 479.34,180.86 479.73,177.53 480.13,180.86 480.53,177.54 480.92,180.87 481.32,177.55 481.66,180.87 482.00,177.56 482.02,179.28 482.06,179.45 482.11,182.26 482.14,183.27 482.17,184.07 482.19,184.89 482.20,185.52 482.21,185.68 482.21,185.90 482.23,186.24 482.24,186.60 482.26,187.32 482.31,188.78 482.41,191.77 482.60,197.91 482.99,210.21 483.38,223.19 483.78,232.35 484.18,239.27 484.57,245.25 484.97,250.64 485.37,255.52 485.76,259.96 486.16,263.99 486.56,267.67 486.95,271.02 487.35,274.08 487.75,276.87 488.14,279.43 488.54,281.76 488.93,283.90 489.33,285.85 489.73,287.64 490.12,289.28 490.52,290.79 490.92,292.16 491.31,293.43 491.71,294.58 492.11,295.65 492.50,296.62 492.90,297.52 493.30,298.34 493.69,299.10 494.09,299.79 494.49,300.42 494.88,301.01 495.28,301.54 495.67,302.03 496.07,302.49 496.47,302.90 496.86,303.29 497.26,303.63 497.66,303.96 498.05,304.25 498.45,304.53 498.85,304.77 499.24,305.01 499.64,305.21 500.04,305.41 500.43,305.59 500.83,305.75 501.23,305.90 501.62,306.04 502.02,306.16 502.42,306.28 502.81,306.38 503.21,306.48 503.60,306.57 504.00,306.65 504.40,306.72 504.79,306.79 505.19,306.85 505.59,306.91 505.98,306.96 506.38,307.00 506.78,307.04 507.17,307.08 507.57,307.11 507.97,307.14 508.36,307.17 508.76,307.19 509.16,307.21 509.55,307.23 509.95,307.25 510.34,307.26 510.74,307.27 511.14,307.29 511.53,307.29 511.93,307.30 512.33,307.31 512.72,307.32 513.12,307.32 513.52,307.32 513.91,307.32 514.31,307.33 514.71,307.33 515.10,307.33 515.50,307.33 515.90,307.33 516.29,307.33 516.69,307.33 517.09,307.33 517.48,307.33 517.88,307.32 518.27,307.33 518.67,307.32 519.07,307.32 519.46,307.32 519.86,307.32 520.26,307.31 520.65,307.32 521.05,307.31 521.45,307.31 521.84,307.31 522.24,307.31 522.64,307.30 523.03,307.30 523.43,307.30 523.83,307.30 524.22,307.29 524.62,307.29 525.01,307.29 525.41,307.29 525.81,307.29 526.20,307.29 526.60,307.28 527.00,307.28 527.39,307.28 527.79,307.28 528.19,307.27 528.58,307.27 528.98,307.27 529.38,307.27 529.77,307.26 530.17,307.26 530.57,307.26 530.96,307.26 531.36,307.25 531.76,307.25 532.15,307.25 532.55,307.25 532.94,307.24 533.34,307.24 533.74,307.24 534.13,307.24 534.53,307.23 534.93,307.23 535.32,307.23 535.72,307.23 536.12,307.22 536.51,307.22 536.91,307.22 537.31,307.22 537.70,307.22 538.10,307.22 538.50,307.21 538.89,307.21 539.29,307.21 539.68,307.21 540.08,307.20 540.48,307.20 540.87,307.20 541.27,307.20 541.67,307.19 542.06,307.19 542.46,307.19 542.86,307.19 543.25,307.18 543.65,307.18 544.05,307.18 544.44,307.18 544.84,307.17 545.24,307.17 545.63,307.17 546.03,307.17 546.42,307.16 546.82,307.16 547.22,307.16 547.61,307.16 548.01,307.15 548.41,307.15 548.80,307.15 549.20,307.15 549.60,307.14 549.99,307.14 550.39,307.14 550.79,307.14 551.18,307.14 551.58,307.14 551.98,307.13 552.37,307.13 552.77,307.13 553.17,307.13 553.56,307.12 553.96,307.12 554.35,307.12 554.75,307.12 555.15,307.11 555.54,307.11 555.94,307.11 556.34,307.11 556.73,307.10 557.13,307.10 557.53,307.10 557.92,307.10 558.32,307.09 558.72,307.09 559.11,307.09 559.51,307.09 559.91,307.08 560.30,307.08 560.70,307.08 561.09,307.08 561.49,307.07 561.89,307.07 562.28,307.07 562.68,307.07 563.08,307.06 563.47,307.06 563.87,307.06 564.27,307.06 564.66,307.05 565.06,307.06 565.46,307.05 565.85,307.05 566.25,307.05 566.65,307.05 567.04,307.04 567.44,307.04 567.84,307.04 568.23,307.04 568.63,307.03 569.02,307.03 569.42,307.03 569.82,307.03 570.21,307.02 570.61,307.02 571.01,307.02 571.40,307.02 571.80,307.01 572.20,307.01 572.59,307.01 572.99,307.01 573.39,307.00 573.78,307.00 574.18,307.00 574.58,307.00 574.97,306.99 575.37,306.99 575.76,306.99 576.16,306.99 576.56,306.98 576.95,306.98 577.35,306.98 577.75,306.98 578.14,306.98 578.54,306.98 578.94,306.97 579.33,306.97 579.73,306.97 580.13,306.97 580.52,306.96 580.92,306.96 581.32,306.96 581.71,306.96 582.11,306.95 582.51,306.95 582.90,306.95 583.30,306.95 583.50,306.94 583.70,306.94 583.72,306.77 583.76,306.37 583.83,305.43 583.91,304.32 583.92,304.15 583.95,303.82 584.01,303.16 584.12,301.88 584.35,299.43 584.74,295.52 585.14,292.09 585.54,288.89 585.93,285.93 586.33,283.18 586.73,280.62 587.12,278.24 587.52,276.02 587.91,273.95 588.31,272.02 588.71,270.21 589.10,268.51 589.50,266.92 589.90,265.42 590.29,264.02 590.69,262.69 591.09,261.44 591.48,260.24 591.88,258.86 592.28,257.47 592.67,255.86 593.07,231.53 593.47,186.05 593.76,178.64 594.07,178.43 594.40,166.44 594.80,167.36 595.19,179.41 595.59,176.61 595.95,180.73 596.29,176.10 596.69,180.67 597.09,175.98 597.48,180.65 597.88,175.98 598.28,180.65 598.67,175.98 599.07,180.65 599.47,176.00 599.86,180.66 600.26,176.26 600.66,180.72 601.05,176.30 601.45,180.73 601.84,176.12 602.24,180.69 602.64,176.13 603.03,180.70 603.43,176.37 603.83,180.75 604.22,176.39 604.62,180.76 605.02,176.45 605.41,180.77 605.81,176.46 606.21,180.77 606.60,176.48 607.00,180.78 607.40,176.49 607.79,180.79 608.19,176.51 608.59,180.79 608.98,176.52 609.38,180.80 609.77,176.54 610.17,180.80 610.57,176.55 610.96,180.81 611.36,176.57 611.76,180.81 612.15,176.58 612.55,180.82 612.95,176.59 613.34,180.82 613.74,176.61 614.14,180.83 614.53,176.62 614.93,180.83 615.33,176.63 615.72,180.84 616.12,176.65 616.51,180.84 616.91,176.66 617.31,180.85 617.70,176.68 618.10,180.85 618.50,176.69 618.89,180.86 619.29,176.70 619.69,180.86 620.08,176.72 620.48,180.87 620.88,176.73 621.27,180.87 621.67,176.74 622.07,180.88 622.46,176.76 622.86,180.88 623.25,176.77 623.65,180.89 624.05,176.78 624.44,180.89 624.84,176.80 625.24,180.90 625.63,176.81 626.03,180.90 626.43,176.82 626.82,180.91 627.22,176.84 627.62,180.91 628.01,176.85 628.41,180.92 628.81,176.86 629.20,180.92 629.60,176.88 630.00,180.93 630.39,176.89 630.79,180.93 631.18,176.90 631.58,180.94 631.98,176.91 632.37,180.94 632.77,176.93 633.17,180.95 633.56,176.94 633.96,180.95 634.36,176.95 634.75,180.96 635.15,176.97 635.55,180.96 635.94,176.98 636.34,180.97 636.74,176.99 637.13,180.97 637.53,177.00 637.92,180.98 638.32,177.02 638.72,180.98 639.11,177.03 639.51,180.99 639.91,177.04 640.30,180.99 640.70,177.06 641.10,181.00 641.49,177.07 641.89,181.00 642.29,177.08 642.68,181.01 643.08,177.09 643.48,181.01 643.87,177.11 644.27,181.02 644.67,177.12 645.06,181.02 645.46,177.13 645.85,181.03 646.25,177.14 646.65,181.03 647.04,177.16 647.44,181.04 647.84,177.17 648.23,181.04 648.63,177.18 649.03,181.05 649.42,177.20 649.82,181.05 650.22,177.21 650.61,181.05 651.01,177.22 651.41,181.06 651.80,177.23 652.20,181.06 652.59,177.25 652.99,181.07 653.39,177.26 653.78,181.07 654.18,177.27 654.58,181.08 654.97,177.28 655.37,181.08 655.77,177.30 656.16,181.09 656.56,177.31 656.96,181.09 657.35,177.32 657.75,181.10 658.15,177.33 658.54,181.10 658.94,177.35 659.34,181.11 659.73,177.36 660.13,181.11 660.52,177.37 660.92,181.12 661.32,177.38 661.71,181.12 662.11,177.40 662.51,181.13 662.90,177.41 663.30,181.13 663.70,177.42 664.09,181.14 664.49,177.43 664.89,181.14 665.28,177.45 665.68,181.15 666.08,177.46 666.47,181.15 666.87,177.47 667.26,181.16 667.66,177.48 668.06,181.16 668.45,177.50 668.85,181.17 669.25,177.51 669.64,181.17 670.04,177.52 670.44,181.17 670.83,177.54 671.23,181.18 671.63,177.55 672.02,181.18 672.42,177.56 672.82,181.19 673.21,177.57 673.61,181.19 674.00,177.59 674.40,181.20 674.80,177.60 675.19,181.20 675.59,177.61 675.99,181.21 676.38,177.63 676.78,181.21 677.18,177.64 677.57,181.22 677.97,177.65 678.37,181.22 678.76,177.67 679.16,181.23 679.56,177.68 679.95,181.23 680.35,177.69 680.75,181.23 681.14,177.71 681.54,181.24 681.93,177.72 682.33,181.24 682.73,177.75 683.12,181.25 683.52,177.75 683.92,181.25 684.31,177.90 684.66,181.22 685.00,177.85 685.02,179.60 685.06,179.77 685.11,182.56 685.14,183.64 685.17,184.51 685.19,185.28 685.20,185.81 685.21,185.96 685.21,186.15 685.22,186.45 685.23,186.78 685.26,187.42 685.30,188.69 685.38,191.27 685.55,196.58 685.89,207.32 686.28,220.27 686.68,230.11 687.08,237.39 687.47,243.58 687.87,249.13 688.27,254.14 688.66,258.70 689.06,262.84 689.46,266.62 689.85,270.05 690.25,273.19 690.65,276.06 691.04,278.68 691.44,281.07 691.84,283.26 692.23,285.27 692.63,287.11 693.02,288.78 693.42,290.33 693.82,291.74 694.21,293.04 694.61,294.22 695.01,295.31 695.40,296.31 695.80,297.23 696.20,298.07 696.59,298.85 696.99,299.55 697.39,300.21 697.78,300.80 698.18,301.35 698.58,301.85 698.97,302.32 699.37,302.74 699.76,303.14 700.16,303.49 700.56,303.83 700.95,304.13 701.35,304.41 701.75,304.66 702.14,304.90 702.54,305.11 702.94,305.31 703.33,305.49 703.73,305.66 704.13,305.81 704.52,305.96 704.92,306.08 705.32,306.20 705.71,306.31 706.11,306.41 706.51,306.50 706.90,306.58 707.30,306.66 707.69,306.73 708.09,306.79 708.49,306.85 708.88,306.90 709.28,306.95 709.68,306.98 710.07,307.03 710.47,307.06 710.87,307.09 711.26,307.11 711.66,307.14 712.06,307.16 712.45,307.18 712.85,307.20 713.25,307.22 713.64,307.22 714.04,307.24 714.43,307.24 714.83,307.26 715.23,307.26 715.62,307.27 716.02,307.27 716.42,307.28 716.81,307.28 717.21,307.28 717.61,307.28 718.00,307.28 718.40,307.28 718.80,307.29 719.19,307.28 719.59,307.28 719.99,307.28 720.38,307.28 720.78,307.28 721.18,307.28 721.57,307.28 721.97,307.28 722.36,307.27 722.76,307.27 723.16,307.27 723.55,307.27 723.95,307.27 724.35,307.27 724.74,307.26 725.14,307.26 725.54,307.26 725.93,307.26 726.33,307.25 726.73,307.25 727.12,307.25 727.52,307.25 727.92,307.24 728.31,307.25 728.71,307.24 729.10,307.24 729.50,307.24 729.90,307.24 730.29,307.23 730.69,307.23 731.09,307.23 731.48,307.23 731.88,307.22 732.28,307.22 732.67,307.22 733.07,307.22 733.47,307.21 733.86,307.21 734.26,307.21 734.66,307.21 735.05,307.20 735.45,307.20 735.84,307.20 736.24,307.20 736.64,307.19 737.03,307.19 737.43,307.19 737.83,307.19 738.22,307.18 738.62,307.19 739.02,307.18 739.41,307.18 739.81,307.17 740.21,307.18 740.60,307.17 741.00,307.17 741.40,307.17 741.79,307.17 742.19,307.16 742.59,307.16 742.98,307.16 743.38,307.16 743.77,307.15 744.17,307.15 744.57,307.15 744.96,307.15 745.36,307.14 745.76,307.14 746.15,307.14 746.55,307.14 746.95,307.13 747.34,307.13 747.74,307.13 748.14,307.13 748.53,307.12 748.93,307.12 749.33,307.12 749.72,307.12 750.12,307.11 750.51,307.11 750.91,307.11 751.31,307.11 751.70,307.10 752.10,307.11 752.50,307.10 752.89,307.10 753.29,307.10 753.69,307.10 754.08,307.09 754.48,307.09 754.88,307.09 755.27,307.09 755.67,307.08 756.07,307.08 756.46,307.08 756.86,307.08 757.26,307.07 757.65,307.07 758.05,307.07 758.44,307.07 758.84,307.06 759.24,307.06 759.63,307.06 760.03,307.06 760.43,307.05 760.82,307.05 761.22,307.05 761.62,307.05 762.01,307.04 762.41,307.04 762.81,307.04 763.20,307.04 763.60,307.03 764.00,307.03 764.39,307.03 764.79,307.03 765.18,307.02 765.58,307.03 765.98,307.02 766.37,307.02 766.77,307.02 767.17,307.02 767.56,307.01 767.96,307.01 768.36,307.01 768.75,307.01 769.15,307.00 769.55,307.00 769.94,307.00 770.34,307.00 770.74,306.99 771.13,306.99 771.53,306.99 771.93,306.99 772.32,306.98 772.72,306.98 773.11,306.98 773.51,306.98 773.91,306.97 774.30,306.97 774.70,306.97 775.10,306.97 775.49,306.96 775.89,306.96 776.29,306.96 776.68,306.96 777.08,306.95 777.48,306.96 777.87,306.95 778.27,306.95 778.67,306.95 779.06,306.95 779.46,306.94 779.85,306.94 780.25,306.94 780.65,306.94 781.04,306.93 781.44,306.93 781.84,306.93 782.23,306.93 782.63,306.92 783.03,306.92 783.42,306.92 783.82,306.92 784.22,306.91 784.61,306.91 785.01,306.91 785.41,306.91 785.80,306.90 786.20,306.90 786.45,306.90 786.70,306.90 786.72,306.73 786.76,306.33 786.83,305.39 786.91,304.28 786.92,304.11 786.95,303.77 787.01,303.12 787.12,301.84 787.35,299.40 787.74,295.49 788.14,292.06 788.54,288.87 788.93,285.91 789.33,283.16 789.73,280.61 790.12,278.23 790.52,276.01 790.91,273.94 791.31,272.01 791.71,270.20 792.10,268.50 792.50,266.91 792.90,265.42 793.29,264.01 793.69,262.69 794.09,261.44 794.48,260.24 794.88,258.86 795.28,257.47 795.67,255.85 796.07,230.98 796.47,186.04 796.75,179.06 797.06,178.82 797.38,166.69 797.77,167.04 798.17,179.11 798.57,177.22 798.93,180.87 799.28,176.71 799.64,180.84 800.04,176.85 800.43,180.88 800.83,176.91 801.23,180.89 801.62,176.93 802.02,180.89 802.42,176.93 802.81,180.90 803.21,176.95 803.61,180.90 804.00,176.96 804.40,180.91 804.80,176.97 805.19,180.91 805.59,176.99 805.98,180.92 806.38,177.00 806.78,180.92 807.17,177.01 807.57,180.93 807.97,177.03 808.36,180.93 808.76,177.04 809.16,180.94 809.55,177.05 809.95,180.94 810.35,177.07 810.74,180.95 811.14,177.08 811.54,180.95 811.93,177.09 812.33,180.96 812.72,177.10 813.12,180.96 813.52,177.12 813.91,180.97 814.31,177.13 814.71,180.98 815.10,177.14 815.50,180.98 815.90,177.16 816.29,180.99 816.69,177.17 817.09,180.99 817.48,177.18 817.88,181.00 818.28,177.19 818.67,181.00 819.07,177.21 819.46,181.01 819.86,177.22 820.26,181.01 820.65,177.23 821.05,181.02 821.45,177.48 821.84,181.02 822.24,177.35 822.64,181.03 823.03,177.48 823.43,181.03 823.83,177.26 824.22,181.03 824.62,177.22 825.02,181.03 825.41,177.32 825.81,181.05 826.21,177.57 826.60,181.04 827.00,177.35 827.39,181.06 827.79,177.57 828.19,181.05 828.58,177.39 828.98,181.07 829.38,177.58 829.77,181.06 830.17,177.38 830.57,181.07 830.96,177.37 831.36,181.08 831.76,177.61 832.15,181.08 832.55,177.50 832.95,181.09 833.34,177.63 833.74,181.08 834.13,177.36 834.53,181.09 834.93,177.48 835.32,181.11 835.72,177.68 836.12,181.09 836.51,177.43 836.91,181.11 837.31,177.71 837.70,181.10 838.10,177.53 838.50,181.13 838.89,177.72 839.29,181.11 839.69,177.47 840.08,181.13 840.48,177.75 840.88,181.12 841.27,177.58 841.67,181.15 842.06,177.76 842.46,181.13 842.86,177.51 843.25,181.15 843.65,177.80 844.05,181.13 844.44,177.54 844.84,181.16 845.24,177.82 845.63,181.14 846.03,177.57 846.43,181.17 846.82,177.84 847.22,181.15 847.62,177.59 848.01,181.18 848.41,177.86 848.80,181.16 849.20,177.62 849.60,181.20 849.99,177.88 850.39,181.17 850.79,177.65 851.18,181.21 851.58,177.90 851.98,181.18 852.37,177.67 852.77,181.22 853.17,177.93 853.56,181.19 853.96,177.70 854.36,181.23 854.75,177.95 855.15,181.20 855.55,177.73 855.94,181.24 856.34,177.97 856.73,181.20 857.13,177.76 857.53,181.25 857.92,177.99 858.32,181.21 858.72,177.85 859.11,181.25 859.51,177.99 859.91,181.23 860.30,177.96 860.70,181.25 861.10,177.99 861.49,181.25 861.89,177.99 862.29,181.25 862.68,178.00 863.08,181.26 863.47,178.01 863.87,181.26 864.27,178.02 864.66,181.27 865.06,178.03 865.46,181.27 865.85,178.05 866.25,181.28 866.65,178.06 867.04,181.28 867.44,178.07 867.84,181.29 868.23,178.08 868.63,181.29 869.03,178.09 869.42,181.29 869.82,178.10 870.21,181.30 870.61,178.11 871.01,181.30 871.40,178.12 871.80,181.31 872.20,178.13 872.59,181.31 872.99,178.14 873.39,181.32 873.78,178.15 874.18,181.32 874.58,178.16 874.97,181.33 875.37,178.17 875.77,181.33 876.16,178.18 876.56,181.34 876.96,178.19 877.35,181.34 877.75,178.20 878.14,181.35 878.54,178.21 878.94,181.35 879.33,178.22 879.73,181.35 880.13,178.23 880.52,181.36 880.92,178.25 881.32,181.36 881.71,178.26 882.11,181.37 882.51,178.27 882.90,181.37 883.30,178.28 883.70,181.38 884.09,178.29 884.49,181.38 884.88,178.30 885.28,181.39 885.68,178.31 886.07,181.39 886.47,178.32 886.87,181.40 887.26,178.33 887.63,181.40" fill="none" stroke="#1665d8" stroke-width="3" stroke-linejoin="round"/>
<polyline points="76.00,357.00 76.02,337.20 76.06,297.60 76.11,248.25 76.13,230.85 76.14,217.19 76.16,203.74 76.18,181.37 76.20,159.00 76.21,159.00 76.21,159.00 76.22,159.00 76.24,159.00 76.27,159.00 76.33,159.00 76.44,159.00 76.68,159.00 77.07,159.00 77.47,159.00 77.87,159.00 78.26,159.00 78.66,159.00 79.06,159.00 79.45,159.00 79.85,159.00 80.25,159.00 80.64,159.00 81.04,159.00 81.43,159.00 81.83,159.00 82.23,159.00 82.62,159.00 83.02,159.00 83.42,159.00 83.81,159.00 84.21,159.00 84.61,159.00 85.00,159.00 85.40,159.00 85.80,159.00 86.19,159.00 86.59,159.00 86.99,159.00 87.38,159.00 87.78,159.00 88.17,159.00 88.57,159.00 88.97,159.00 89.36,159.00 89.76,159.00 90.16,159.00 90.55,159.00 90.95,159.00 91.35,159.00 91.74,159.00 92.14,159.00 92.54,159.00 92.93,159.00 93.33,159.00 93.73,159.00 94.12,159.00 94.52,159.00 94.91,159.00 95.31,159.00 95.71,159.00 96.10,159.00 96.50,159.00 96.90,159.00 97.29,159.00 97.69,159.00 98.09,159.00 98.48,159.00 98.88,159.00 99.28,159.00 99.67,159.00 100.07,159.00 100.47,159.00 100.86,159.00 101.26,159.00 101.66,159.00 102.05,159.00 102.45,159.00 102.84,159.00 103.24,159.00 103.64,159.00 104.03,159.00 104.43,159.00 104.83,159.00 105.22,159.00 105.62,159.00 106.02,159.00 106.41,159.00 106.81,159.00 107.21,159.00 107.60,159.00 108.00,159.00 108.40,159.00 108.79,159.00 109.19,159.00 109.58,159.00 109.98,159.00 110.38,159.00 110.77,159.00 111.17,159.00 111.57,159.00 111.96,159.00 112.36,159.00 112.76,159.00 113.15,159.00 113.55,159.00 113.95,159.00 114.34,159.00 114.74,159.00 115.14,159.00 115.53,159.00 115.93,159.00 116.33,159.00 116.72,159.00 117.12,159.00 117.51,159.00 117.91,159.00 118.31,159.00 118.70,159.00 119.10,159.00 119.50,159.00 119.89,159.00 120.29,159.00 120.69,159.00 121.08,159.00 121.48,159.00 121.88,159.00 122.27,159.00 122.67,159.00 123.07,159.00 123.46,159.00 123.86,159.00 124.25,159.00 124.65,159.00 125.05,159.00 125.44,159.00 125.84,159.00 126.24,159.00 126.63,159.00 127.03,159.00 127.43,159.00 127.82,159.00 128.22,159.00 128.62,159.00 129.01,159.00 129.41,159.00 129.81,159.00 130.20,159.00 130.60,159.00 131.00,159.00 131.39,159.00 131.79,159.00 132.18,159.00 132.58,159.00 132.98,159.00 133.37,159.00 133.77,159.00 134.17,159.00 134.56,159.00 134.96,159.00 135.36,159.00 135.75,159.00 136.15,159.00 136.55,159.00 136.94,159.00 137.34,159.00 137.74,159.00 138.13,159.00 138.53,159.00 138.92,159.00 139.32,159.00 139.72,159.00 140.11,159.00 140.51,159.00 140.91,159.00 141.30,159.00 141.70,159.00 142.10,159.00 142.49,159.00 142.89,159.00 143.29,159.00 143.68,159.00 144.08,159.00 144.48,159.00 144.87,159.00 145.27,159.00 145.66,159.00 146.06,159.00 146.46,159.00 146.85,159.00 147.25,159.00 147.65,159.00 148.04,159.00 148.44,159.00 148.84,159.00 149.23,159.00 149.63,159.00 150.03,159.00 150.42,159.00 150.82,159.00 151.22,159.00 151.61,159.00 152.01,159.00 152.41,159.00 152.80,159.00 153.20,159.00 153.59,159.00 153.99,159.00 154.39,159.00 154.78,159.00 155.18,159.00 155.58,159.00 155.97,159.00 156.37,159.00 156.77,159.00 157.16,159.00 157.56,159.00 157.96,159.00 158.35,159.00 158.75,159.00 159.15,159.00 159.54,159.00 159.94,159.00 160.33,159.00 160.73,159.00 161.13,159.00 161.52,159.00 161.92,159.00 162.32,159.00 162.71,159.00 163.11,159.00 163.51,159.00 163.90,159.00 164.30,159.00 164.70,159.00 165.09,159.00 165.49,159.00 165.89,159.00 166.28,159.00 166.68,159.00 167.08,159.00 167.47,159.00 167.87,159.00 168.26,159.00 168.66,159.00 169.06,159.00 169.45,159.00 169.85,159.00 170.25,159.00 170.64,159.00 171.04,159.00 171.44,159.00 171.83,159.00 172.23,159.00 172.63,159.00 173.02,159.00 173.42,159.00 173.82,159.00 174.21,159.00 174.61,159.00 175.00,159.00 175.40,159.00 175.80,159.00 176.19,159.00 176.59,159.00 176.99,159.00 177.35,159.00 177.70,159.00 177.72,178.80 177.76,218.40 177.83,287.70 177.91,357.00 177.92,357.00 177.95,357.00 178.01,357.00 178.12,357.00 178.35,357.00 178.74,357.00 179.14,357.00 179.54,357.00 179.93,357.00 180.33,357.00 180.73,357.00 181.12,357.00 181.52,357.00 181.91,357.00 182.31,357.00 182.71,357.00 183.10,357.00 183.50,357.00 183.90,357.00 184.29,357.00 184.69,357.00 185.09,357.00 185.48,357.00 185.88,357.00 186.28,357.00 186.67,357.00 187.07,357.00 187.47,357.00 187.78,357.00 188.09,357.00 188.47,357.00 188.86,357.00 189.26,357.00 189.66,357.00 190.05,357.00 190.42,357.00 190.81,357.00 191.21,357.00 191.61,357.00 192.00,357.00 192.40,357.00 192.80,357.00 193.19,357.00 193.59,357.00 193.99,357.00 194.38,357.00 194.78,357.00 195.17,357.00 195.57,357.00 195.97,357.00 196.36,357.00 196.76,357.00 197.16,357.00 197.55,357.00 197.95,357.00 198.35,357.00 198.74,357.00 199.14,357.00 199.54,357.00 199.93,357.00 200.33,357.00 200.73,357.00 201.12,357.00 201.52,357.00 201.92,357.00 202.31,357.00 202.71,357.00 203.10,357.00 203.50,357.00 203.90,357.00 204.29,357.00 204.69,357.00 205.09,357.00 205.48,357.00 205.88,357.00 206.28,357.00 206.67,357.00 207.07,357.00 207.47,357.00 207.86,357.00 208.26,357.00 208.66,357.00 209.05,357.00 209.45,357.00 209.84,357.00 210.24,357.00 210.64,357.00 211.03,357.00 211.43,357.00 211.83,357.00 212.22,357.00 212.62,357.00 213.02,357.00 213.41,357.00 213.81,357.00 214.21,357.00 214.60,357.00 215.00,357.00 215.40,357.00 215.79,357.00 216.19,357.00 216.59,357.00 216.98,357.00 217.38,357.00 217.77,357.00 218.17,357.00 218.57,357.00 218.96,357.00 219.36,357.00 219.76,357.00 220.15,357.00 220.55,357.00 220.95,357.00 221.34,357.00 221.74,357.00 222.14,357.00 222.53,357.00 222.93,357.00 223.33,357.00 223.72,357.00 224.12,357.00 224.51,357.00 224.91,357.00 225.31,357.00 225.70,357.00 226.10,357.00 226.50,357.00 226.89,357.00 227.29,357.00 227.69,357.00 228.08,357.00 228.48,357.00 228.88,357.00 229.27,357.00 229.67,357.00 230.07,357.00 230.46,357.00 230.86,357.00 231.26,357.00 231.65,357.00 232.05,357.00 232.44,357.00 232.84,357.00 233.24,357.00 233.63,357.00 234.03,357.00 234.43,357.00 234.82,357.00 235.22,357.00 235.62,357.00 236.01,357.00 236.41,357.00 236.81,357.00 237.20,357.00 237.60,357.00 238.00,357.00 238.39,357.00 238.79,357.00 239.18,357.00 239.58,357.00 239.98,357.00 240.37,357.00 240.77,357.00 241.17,357.00 241.56,357.00 241.96,357.00 242.36,357.00 242.75,357.00 243.15,357.00 243.55,357.00 243.94,357.00 244.34,357.00 244.74,357.00 245.13,357.00 245.53,357.00 245.92,357.00 246.32,357.00 246.72,357.00 247.11,357.00 247.51,357.00 247.91,357.00 248.30,357.00 248.70,357.00 249.10,357.00 249.49,357.00 249.89,357.00 250.29,357.00 250.68,357.00 251.08,357.00 251.48,357.00 251.87,357.00 252.27,357.00 252.67,357.00 253.06,357.00 253.46,357.00 253.85,357.00 254.25,357.00 254.65,357.00 255.04,357.00 255.44,357.00 255.84,357.00 256.23,357.00 256.63,357.00 257.03,357.00 257.42,357.00 257.82,357.00 258.22,357.00 258.61,357.00 259.01,357.00 259.41,357.00 259.80,357.00 260.20,357.00 260.59,357.00 260.99,357.00 261.39,357.00 261.78,357.00 262.18,357.00 262.58,357.00 262.97,357.00 263.37,357.00 263.77,357.00 264.16,357.00 264.56,357.00 264.96,357.00 265.35,357.00 265.75,357.00 266.15,357.00 266.54,357.00 266.94,357.00 267.34,357.00 267.73,357.00 268.13,357.00 268.52,357.00 268.92,357.00 269.32,357.00 269.71,357.00 270.11,357.00 270.51,357.00 270.90,357.00 271.30,357.00 271.70,357.00 272.09,357.00 272.49,357.00 272.89,357.00 273.28,357.00 273.68,357.00 274.08,357.00 274.47,357.00 274.87,357.00 275.26,357.00 275.66,357.00 276.06,357.00 276.45,357.00 276.85,357.00 277.25,357.00 277.64,357.00 278.04,357.00 278.44,357.00 278.72,357.00 279.00,357.00 279.02,337.20 279.06,297.60 279.11,246.70 279.14,220.03 279.17,194.39 279.18,176.69 279.20,159.00 279.21,159.00 279.21,159.00 279.23,159.00 279.24,159.00 279.26,159.00 279.31,159.00 279.40,159.00 279.59,159.00 279.97,159.00 280.36,159.00 280.76,159.00 281.16,159.00 281.55,159.00 281.95,159.00 282.35,159.00 282.74,159.00 283.14,159.00 283.53,159.00 283.93,159.00 284.33,159.00 284.72,159.00 285.12,159.00 285.52,159.00 285.91,159.00 286.31,159.00 286.71,159.00 287.10,159.00 287.50,159.00 287.90,159.00 288.29,159.00 288.69,159.00 289.09,159.00 289.48,159.00 289.88,159.00 290.28,159.00 290.67,159.00 291.07,159.00 291.46,159.00 291.86,159.00 292.26,159.00 292.65,159.00 293.05,159.00 293.45,159.00 293.84,159.00 294.24,159.00 294.64,159.00 295.03,159.00 295.43,159.00 295.83,159.00 296.22,159.00 296.62,159.00 297.02,159.00 297.41,159.00 297.81,159.00 298.20,159.00 298.60,159.00 299.00,159.00 299.39,159.00 299.79,159.00 300.19,159.00 300.58,159.00 300.98,159.00 301.38,159.00 301.77,159.00 302.17,159.00 302.57,159.00 302.96,159.00 303.36,159.00 303.76,159.00 304.15,159.00 304.55,159.00 304.95,159.00 305.34,159.00 305.74,159.00 306.13,159.00 306.53,159.00 306.93,159.00 307.32,159.00 307.72,159.00 308.12,159.00 308.51,159.00 308.91,159.00 309.31,159.00 309.70,159.00 310.10,159.00 310.50,159.00 310.89,159.00 311.29,159.00 311.69,159.00 312.08,159.00 312.48,159.00 312.87,159.00 313.27,159.00 313.67,159.00 314.06,159.00 314.46,159.00 314.86,159.00 315.25,159.00 315.65,159.00 316.05,159.00 316.44,159.00 316.84,159.00 317.24,159.00 317.63,159.00 318.03,159.00 318.43,159.00 318.82,159.00 319.22,159.00 319.61,159.00 320.01,159.00 320.41,159.00 320.80,159.00 321.20,159.00 321.60,159.00 321.99,159.00 322.39,159.00 322.79,159.00 323.18,159.00 323.58,159.00 323.98,159.00 324.37,159.00 324.77,159.00 325.17,159.00 325.56,159.00 325.96,159.00 326.36,159.00 326.75,159.00 327.15,159.00 327.54,159.00 327.94,159.00 328.34,159.00 328.73,159.00 329.13,159.00 329.53,159.00 329.92,159.00 330.32,159.00 330.72,159.00 331.11,159.00 331.51,159.00 331.91,159.00 332.30,159.00 332.70,159.00 333.10,159.00 333.49,159.00 333.89,159.00 334.28,159.00 334.68,159.00 335.08,159.00 335.47,159.00 335.87,159.00 336.27,159.00 336.66,159.00 337.06,159.00 337.46,159.00 337.85,159.00 338.25,159.00 338.65,159.00 339.04,159.00 339.44,159.00 339.84,159.00 340.23,159.00 340.63,159.00 341.03,159.00 341.42,159.00 341.82,159.00 342.21,159.00 342.61,159.00 343.01,159.00 343.40,159.00 343.80,159.00 344.20,159.00 344.59,159.00 344.99,159.00 345.39,159.00 345.78,159.00 346.18,159.00 346.58,159.00 346.97,159.00 347.37,159.00 347.77,159.00 348.16,159.00 348.56,159.00 348.95,159.00 349.35,159.00 349.75,159.00 350.14,159.00 350.54,159.00 350.94,159.00 351.33,159.00 351.73,159.00 352.13,159.00 352.52,159.00 352.92,159.00 353.32,159.00 353.71,159.00 354.11,159.00 354.51,159.00 354.90,159.00 355.30,159.00 355.70,159.00 356.09,159.00 356.49,159.00 356.88,159.00 357.28,159.00 357.68,159.00 358.07,159.00 358.47,159.00 358.87,159.00 359.26,159.00 359.66,159.00 360.06,159.00 360.45,159.00 360.85,159.00 361.25,159.00 361.64,159.00 362.04,159.00 362.44,159.00 362.83,159.00 363.23,159.00 363.62,159.00 364.02,159.00 364.42,159.00 364.81,159.00 365.21,159.00 365.61,159.00 366.00,159.00 366.40,159.00 366.80,159.00 367.19,159.00 367.59,159.00 367.99,159.00 368.38,159.00 368.78,159.00 369.18,159.00 369.57,159.00 369.97,159.00 370.36,159.00 370.76,159.00 371.16,159.00 371.55,159.00 371.95,159.00 372.35,159.00 372.74,159.00 373.14,159.00 373.54,159.00 373.93,159.00 374.33,159.00 374.73,159.00 375.12,159.00 375.52,159.00 375.92,159.00 376.31,159.00 376.71,159.00 377.11,159.00 377.50,159.00 377.90,159.00 378.29,159.00 378.69,159.00 379.09,159.00 379.48,159.00 379.88,159.00 380.28,159.00 380.49,159.00 380.70,159.00 380.72,178.80 380.76,218.40 380.83,287.70 380.91,357.00 380.92,357.00 380.95,357.00 381.01,357.00 381.12,357.00 381.35,357.00 381.74,357.00 382.14,357.00 382.54,357.00 382.93,357.00 383.33,357.00 383.73,357.00 384.12,357.00 384.52,357.00 384.91,357.00 385.31,357.00 385.71,357.00 386.10,357.00 386.50,357.00 386.90,357.00 387.29,357.00 387.69,357.00 388.09,357.00 388.48,357.00 388.88,357.00 389.28,357.00 389.67,357.00 390.07,357.00 390.47,357.00 390.77,357.00 391.08,357.00 391.42,357.00 391.82,357.00 392.21,357.00 392.61,357.00 393.01,357.00 393.35,357.00 393.70,357.00 394.09,357.00 394.49,357.00 394.89,357.00 395.28,357.00 395.68,357.00 396.07,357.00 396.47,357.00 396.87,357.00 397.26,357.00 397.66,357.00 398.06,357.00 398.45,357.00 398.85,357.00 399.25,357.00 399.64,357.00 400.04,357.00 400.44,357.00 400.83,357.00 401.23,357.00 401.63,357.00 402.02,357.00 402.42,357.00 402.81,357.00 403.21,357.00 403.61,357.00 404.00,357.00 404.40,357.00 404.80,357.00 405.19,357.00 405.59,357.00 405.99,357.00 406.38,357.00 406.78,357.00 407.18,357.00 407.57,357.00 407.97,357.00 408.37,357.00 408.76,357.00 409.16,357.00 409.56,357.00 409.95,357.00 410.35,357.00 410.74,357.00 411.14,357.00 411.54,357.00 411.93,357.00 412.33,357.00 412.73,357.00 413.12,357.00 413.52,357.00 413.92,357.00 414.31,357.00 414.71,357.00 415.11,357.00 415.50,357.00 415.90,357.00 416.30,357.00 416.69,357.00 417.09,357.00 417.48,357.00 417.88,357.00 418.28,357.00 418.67,357.00 419.07,357.00 419.47,357.00 419.86,357.00 420.26,357.00 420.66,357.00 421.05,357.00 421.45,357.00 421.85,357.00 422.24,357.00 422.64,357.00 423.04,357.00 423.43,357.00 423.83,357.00 424.23,357.00 424.62,357.00 425.02,357.00 425.41,357.00 425.81,357.00 426.21,357.00 426.60,357.00 427.00,357.00 427.40,357.00 427.79,357.00 428.19,357.00 428.59,357.00 428.98,357.00 429.38,357.00 429.78,357.00 430.17,357.00 430.57,357.00 430.97,357.00 431.36,357.00 431.76,357.00 432.15,357.00 432.55,357.00 432.95,357.00 433.34,357.00 433.74,357.00 434.14,357.00 434.53,357.00 434.93,357.00 435.33,357.00 435.72,357.00 436.12,357.00 436.52,357.00 436.91,357.00 437.31,357.00 437.71,357.00 438.10,357.00 438.50,357.00 438.89,357.00 439.29,357.00 439.69,357.00 440.08,357.00 440.48,357.00 440.88,357.00 441.27,357.00 441.67,357.00 442.07,357.00 442.46,357.00 442.86,357.00 443.26,357.00 443.65,357.00 444.05,357.00 444.45,357.00 444.84,357.00 445.24,357.00 445.64,357.00 446.03,357.00 446.43,357.00 446.82,357.00 447.22,357.00 447.62,357.00 448.01,357.00 448.41,357.00 448.81,357.00 449.20,357.00 449.60,357.00 450.00,357.00 450.39,357.00 450.79,357.00 451.19,357.00 451.58,357.00 451.98,357.00 452.38,357.00 452.77,357.00 453.17,357.00 453.56,357.00 453.96,357.00 454.36,357.00 454.75,357.00 455.15,357.00 455.55,357.00 455.94,357.00 456.34,357.00 456.74,357.00 457.13,357.00 457.53,357.00 457.93,357.00 458.32,357.00 458.72,357.00 459.12,357.00 459.51,357.00 459.91,357.00 460.31,357.00 460.70,357.00 461.10,357.00 461.49,357.00 461.89,357.00 462.29,357.00 462.68,357.00 463.08,357.00 463.48,357.00 463.87,357.00 464.27,357.00 464.67,357.00 465.06,357.00 465.46,357.00 465.86,357.00 466.25,357.00 466.65,357.00 467.05,357.00 467.44,357.00 467.84,357.00 468.23,357.00 468.63,357.00 469.03,357.00 469.42,357.00 469.82,357.00 470.22,357.00 470.61,357.00 471.01,357.00 471.41,357.00 471.80,357.00 472.20,357.00 472.60,357.00 472.99,357.00 473.39,357.00 473.79,357.00 474.18,357.00 474.58,357.00 474.98,357.00 475.37,357.00 475.77,357.00 476.16,357.00 476.56,357.00 476.96,357.00 477.35,357.00 477.75,357.00 478.15,357.00 478.54,357.00 478.94,357.00 479.34,357.00 479.73,357.00 480.13,357.00 480.53,357.00 480.92,357.00 481.32,357.00 481.66,357.00 482.00,357.00 482.02,337.20 482.06,297.60 482.11,245.19 482.14,218.73 482.17,193.24 482.19,176.12 482.20,159.00 482.21,159.00 482.21,159.00 482.23,159.00 482.24,159.00 482.26,159.00 482.31,159.00 482.41,159.00 482.60,159.00 482.99,159.00 483.38,159.00 483.78,159.00 484.18,159.00 484.57,159.00 484.97,159.00 485.37,159.00 485.76,159.00 486.16,159.00 486.56,159.00 486.95,159.00 487.35,159.00 487.75,159.00 488.14,159.00 488.54,159.00 488.93,159.00 489.33,159.00 489.73,159.00 490.12,159.00 490.52,159.00 490.92,159.00 491.31,159.00 491.71,159.00 492.11,159.00 492.50,159.00 492.90,159.00 493.30,159.00 493.69,159.00 494.09,159.00 494.49,159.00 494.88,159.00 495.28,159.00 495.67,159.00 496.07,159.00 496.47,159.00 496.86,159.00 497.26,159.00 497.66,159.00 498.05,159.00 498.45,159.00 498.85,159.00 499.24,159.00 499.64,159.00 500.04,159.00 500.43,159.00 500.83,159.00 501.23,159.00 501.62,159.00 502.02,159.00 502.42,159.00 502.81,159.00 503.21,159.00 503.60,159.00 504.00,159.00 504.40,159.00 504.79,159.00 505.19,159.00 505.59,159.00 505.98,159.00 506.38,159.00 506.78,159.00 507.17,159.00 507.57,159.00 507.97,159.00 508.36,159.00 508.76,159.00 509.16,159.00 509.55,159.00 509.95,159.00 510.34,159.00 510.74,159.00 511.14,159.00 511.53,159.00 511.93,159.00 512.33,159.00 512.72,159.00 513.12,159.00 513.52,159.00 513.91,159.00 514.31,159.00 514.71,159.00 515.10,159.00 515.50,159.00 515.90,159.00 516.29,159.00 516.69,159.00 517.09,159.00 517.48,159.00 517.88,159.00 518.27,159.00 518.67,159.00 519.07,159.00 519.46,159.00 519.86,159.00 520.26,159.00 520.65,159.00 521.05,159.00 521.45,159.00 521.84,159.00 522.24,159.00 522.64,159.00 523.03,159.00 523.43,159.00 523.83,159.00 524.22,159.00 524.62,159.00 525.01,159.00 525.41,159.00 525.81,159.00 526.20,159.00 526.60,159.00 527.00,159.00 527.39,159.00 527.79,159.00 528.19,159.00 528.58,159.00 528.98,159.00 529.38,159.00 529.77,159.00 530.17,159.00 530.57,159.00 530.96,159.00 531.36,159.00 531.76,159.00 532.15,159.00 532.55,159.00 532.94,159.00 533.34,159.00 533.74,159.00 534.13,159.00 534.53,159.00 534.93,159.00 535.32,159.00 535.72,159.00 536.12,159.00 536.51,159.00 536.91,159.00 537.31,159.00 537.70,159.00 538.10,159.00 538.50,159.00 538.89,159.00 539.29,159.00 539.68,159.00 540.08,159.00 540.48,159.00 540.87,159.00 541.27,159.00 541.67,159.00 542.06,159.00 542.46,159.00 542.86,159.00 543.25,159.00 543.65,159.00 544.05,159.00 544.44,159.00 544.84,159.00 545.24,159.00 545.63,159.00 546.03,159.00 546.42,159.00 546.82,159.00 547.22,159.00 547.61,159.00 548.01,159.00 548.41,159.00 548.80,159.00 549.20,159.00 549.60,159.00 549.99,159.00 550.39,159.00 550.79,159.00 551.18,159.00 551.58,159.00 551.98,159.00 552.37,159.00 552.77,159.00 553.17,159.00 553.56,159.00 553.96,159.00 554.35,159.00 554.75,159.00 555.15,159.00 555.54,159.00 555.94,159.00 556.34,159.00 556.73,159.00 557.13,159.00 557.53,159.00 557.92,159.00 558.32,159.00 558.72,159.00 559.11,159.00 559.51,159.00 559.91,159.00 560.30,159.00 560.70,159.00 561.09,159.00 561.49,159.00 561.89,159.00 562.28,159.00 562.68,159.00 563.08,159.00 563.47,159.00 563.87,159.00 564.27,159.00 564.66,159.00 565.06,159.00 565.46,159.00 565.85,159.00 566.25,159.00 566.65,159.00 567.04,159.00 567.44,159.00 567.84,159.00 568.23,159.00 568.63,159.00 569.02,159.00 569.42,159.00 569.82,159.00 570.21,159.00 570.61,159.00 571.01,159.00 571.40,159.00 571.80,159.00 572.20,159.00 572.59,159.00 572.99,159.00 573.39,159.00 573.78,159.00 574.18,159.00 574.58,159.00 574.97,159.00 575.37,159.00 575.76,159.00 576.16,159.00 576.56,159.00 576.95,159.00 577.35,159.00 577.75,159.00 578.14,159.00 578.54,159.00 578.94,159.00 579.33,159.00 579.73,159.00 580.13,159.00 580.52,159.00 580.92,159.00 581.32,159.00 581.71,159.00 582.11,159.00 582.51,159.00 582.90,159.00 583.30,159.00 583.50,159.00 583.70,159.00 583.72,178.80 583.76,218.40 583.83,287.70 583.91,357.00 583.92,357.00 583.95,357.00 584.01,357.00 584.12,357.00 584.35,357.00 584.74,357.00 585.14,357.00 585.54,357.00 585.93,357.00 586.33,357.00 586.73,357.00 587.12,357.00 587.52,357.00 587.91,357.00 588.31,357.00 588.71,357.00 589.10,357.00 589.50,357.00 589.90,357.00 590.29,357.00 590.69,357.00 591.09,357.00 591.48,357.00 591.88,357.00 592.28,357.00 592.67,357.00 593.07,357.00 593.47,357.00 593.76,357.00 594.07,357.00 594.40,357.00 594.80,357.00 595.19,357.00 595.59,357.00 595.95,357.00 596.29,357.00 596.69,357.00 597.09,357.00 597.48,357.00 597.88,357.00 598.28,357.00 598.67,357.00 599.07,357.00 599.47,357.00 599.86,357.00 600.26,357.00 600.66,357.00 601.05,357.00 601.45,357.00 601.84,357.00 602.24,357.00 602.64,357.00 603.03,357.00 603.43,357.00 603.83,357.00 604.22,357.00 604.62,357.00 605.02,357.00 605.41,357.00 605.81,357.00 606.21,357.00 606.60,357.00 607.00,357.00 607.40,357.00 607.79,357.00 608.19,357.00 608.59,357.00 608.98,357.00 609.38,357.00 609.77,357.00 610.17,357.00 610.57,357.00 610.96,357.00 611.36,357.00 611.76,357.00 612.15,357.00 612.55,357.00 612.95,357.00 613.34,357.00 613.74,357.00 614.14,357.00 614.53,357.00 614.93,357.00 615.33,357.00 615.72,357.00 616.12,357.00 616.51,357.00 616.91,357.00 617.31,357.00 617.70,357.00 618.10,357.00 618.50,357.00 618.89,357.00 619.29,357.00 619.69,357.00 620.08,357.00 620.48,357.00 620.88,357.00 621.27,357.00 621.67,357.00 622.07,357.00 622.46,357.00 622.86,357.00 623.25,357.00 623.65,357.00 624.05,357.00 624.44,357.00 624.84,357.00 625.24,357.00 625.63,357.00 626.03,357.00 626.43,357.00 626.82,357.00 627.22,357.00 627.62,357.00 628.01,357.00 628.41,357.00 628.81,357.00 629.20,357.00 629.60,357.00 630.00,357.00 630.39,357.00 630.79,357.00 631.18,357.00 631.58,357.00 631.98,357.00 632.37,357.00 632.77,357.00 633.17,357.00 633.56,357.00 633.96,357.00 634.36,357.00 634.75,357.00 635.15,357.00 635.55,357.00 635.94,357.00 636.34,357.00 636.74,357.00 637.13,357.00 637.53,357.00 637.92,357.00 638.32,357.00 638.72,357.00 639.11,357.00 639.51,357.00 639.91,357.00 640.30,357.00 640.70,357.00 641.10,357.00 641.49,357.00 641.89,357.00 642.29,357.00 642.68,357.00 643.08,357.00 643.48,357.00 643.87,357.00 644.27,357.00 644.67,357.00 645.06,357.00 645.46,357.00 645.85,357.00 646.25,357.00 646.65,357.00 647.04,357.00 647.44,357.00 647.84,357.00 648.23,357.00 648.63,357.00 649.03,357.00 649.42,357.00 649.82,357.00 650.22,357.00 650.61,357.00 651.01,357.00 651.41,357.00 651.80,357.00 652.20,357.00 652.59,357.00 652.99,357.00 653.39,357.00 653.78,357.00 654.18,357.00 654.58,357.00 654.97,357.00 655.37,357.00 655.77,357.00 656.16,357.00 656.56,357.00 656.96,357.00 657.35,357.00 657.75,357.00 658.15,357.00 658.54,357.00 658.94,357.00 659.34,357.00 659.73,357.00 660.13,357.00 660.52,357.00 660.92,357.00 661.32,357.00 661.71,357.00 662.11,357.00 662.51,357.00 662.90,357.00 663.30,357.00 663.70,357.00 664.09,357.00 664.49,357.00 664.89,357.00 665.28,357.00 665.68,357.00 666.08,357.00 666.47,357.00 666.87,357.00 667.26,357.00 667.66,357.00 668.06,357.00 668.45,357.00 668.85,357.00 669.25,357.00 669.64,357.00 670.04,357.00 670.44,357.00 670.83,357.00 671.23,357.00 671.63,357.00 672.02,357.00 672.42,357.00 672.82,357.00 673.21,357.00 673.61,357.00 674.00,357.00 674.40,357.00 674.80,357.00 675.19,357.00 675.59,357.00 675.99,357.00 676.38,357.00 676.78,357.00 677.18,357.00 677.57,357.00 677.97,357.00 678.37,357.00 678.76,357.00 679.16,357.00 679.56,357.00 679.95,357.00 680.35,357.00 680.75,357.00 681.14,357.00 681.54,357.00 681.93,357.00 682.33,357.00 682.73,357.00 683.12,357.00 683.52,357.00 683.92,357.00 684.31,357.00 684.66,357.00 685.00,357.00 685.02,337.20 685.06,297.60 685.11,245.38 685.14,216.84 685.17,189.24 685.19,174.12 685.20,159.00 685.21,159.00 685.21,159.00 685.22,159.00 685.23,159.00 685.26,159.00 685.30,159.00 685.38,159.00 685.55,159.00 685.89,159.00 686.28,159.00 686.68,159.00 687.08,159.00 687.47,159.00 687.87,159.00 688.27,159.00 688.66,159.00 689.06,159.00 689.46,159.00 689.85,159.00 690.25,159.00 690.65,159.00 691.04,159.00 691.44,159.00 691.84,159.00 692.23,159.00 692.63,159.00 693.02,159.00 693.42,159.00 693.82,159.00 694.21,159.00 694.61,159.00 695.01,159.00 695.40,159.00 695.80,159.00 696.20,159.00 696.59,159.00 696.99,159.00 697.39,159.00 697.78,159.00 698.18,159.00 698.58,159.00 698.97,159.00 699.37,159.00 699.76,159.00 700.16,159.00 700.56,159.00 700.95,159.00 701.35,159.00 701.75,159.00 702.14,159.00 702.54,159.00 702.94,159.00 703.33,159.00 703.73,159.00 704.13,159.00 704.52,159.00 704.92,159.00 705.32,159.00 705.71,159.00 706.11,159.00 706.51,159.00 706.90,159.00 707.30,159.00 707.69,159.00 708.09,159.00 708.49,159.00 708.88,159.00 709.28,159.00 709.68,159.00 710.07,159.00 710.47,159.00 710.87,159.00 711.26,159.00 711.66,159.00 712.06,159.00 712.45,159.00 712.85,159.00 713.25,159.00 713.64,159.00 714.04,159.00 714.43,159.00 714.83,159.00 715.23,159.00 715.62,159.00 716.02,159.00 716.42,159.00 716.81,159.00 717.21,159.00 717.61,159.00 718.00,159.00 718.40,159.00 718.80,159.00 719.19,159.00 719.59,159.00 719.99,159.00 720.38,159.00 720.78,159.00 721.18,159.00 721.57,159.00 721.97,159.00 722.36,159.00 722.76,159.00 723.16,159.00 723.55,159.00 723.95,159.00 724.35,159.00 724.74,159.00 725.14,159.00 725.54,159.00 725.93,159.00 726.33,159.00 726.73,159.00 727.12,159.00 727.52,159.00 727.92,159.00 728.31,159.00 728.71,159.00 729.10,159.00 729.50,159.00 729.90,159.00 730.29,159.00 730.69,159.00 731.09,159.00 731.48,159.00 731.88,159.00 732.28,159.00 732.67,159.00 733.07,159.00 733.47,159.00 733.86,159.00 734.26,159.00 734.66,159.00 735.05,159.00 735.45,159.00 735.84,159.00 736.24,159.00 736.64,159.00 737.03,159.00 737.43,159.00 737.83,159.00 738.22,159.00 738.62,159.00 739.02,159.00 739.41,159.00 739.81,159.00 740.21,159.00 740.60,159.00 741.00,159.00 741.40,159.00 741.79,159.00 742.19,159.00 742.59,159.00 742.98,159.00 743.38,159.00 743.77,159.00 744.17,159.00 744.57,159.00 744.96,159.00 745.36,159.00 745.76,159.00 746.15,159.00 746.55,159.00 746.95,159.00 747.34,159.00 747.74,159.00 748.14,159.00 748.53,159.00 748.93,159.00 749.33,159.00 749.72,159.00 750.12,159.00 750.51,159.00 750.91,159.00 751.31,159.00 751.70,159.00 752.10,159.00 752.50,159.00 752.89,159.00 753.29,159.00 753.69,159.00 754.08,159.00 754.48,159.00 754.88,159.00 755.27,159.00 755.67,159.00 756.07,159.00 756.46,159.00 756.86,159.00 757.26,159.00 757.65,159.00 758.05,159.00 758.44,159.00 758.84,159.00 759.24,159.00 759.63,159.00 760.03,159.00 760.43,159.00 760.82,159.00 761.22,159.00 761.62,159.00 762.01,159.00 762.41,159.00 762.81,159.00 763.20,159.00 763.60,159.00 764.00,159.00 764.39,159.00 764.79,159.00 765.18,159.00 765.58,159.00 765.98,159.00 766.37,159.00 766.77,159.00 767.17,159.00 767.56,159.00 767.96,159.00 768.36,159.00 768.75,159.00 769.15,159.00 769.55,159.00 769.94,159.00 770.34,159.00 770.74,159.00 771.13,159.00 771.53,159.00 771.93,159.00 772.32,159.00 772.72,159.00 773.11,159.00 773.51,159.00 773.91,159.00 774.30,159.00 774.70,159.00 775.10,159.00 775.49,159.00 775.89,159.00 776.29,159.00 776.68,159.00 777.08,159.00 777.48,159.00 777.87,159.00 778.27,159.00 778.67,159.00 779.06,159.00 779.46,159.00 779.85,159.00 780.25,159.00 780.65,159.00 781.04,159.00 781.44,159.00 781.84,159.00 782.23,159.00 782.63,159.00 783.03,159.00 783.42,159.00 783.82,159.00 784.22,159.00 784.61,159.00 785.01,159.00 785.41,159.00 785.80,159.00 786.20,159.00 786.45,159.00 786.70,159.00 786.72,178.80 786.76,218.40 786.83,287.70 786.91,357.00 786.92,357.00 786.95,357.00 787.01,357.00 787.12,357.00 787.35,357.00 787.74,357.00 788.14,357.00 788.54,357.00 788.93,357.00 789.33,357.00 789.73,357.00 790.12,357.00 790.52,357.00 790.91,357.00 791.31,357.00 791.71,357.00 792.10,357.00 792.50,357.00 792.90,357.00 793.29,357.00 793.69,357.00 794.09,357.00 794.48,357.00 794.88,357.00 795.28,357.00 795.67,357.00 796.07,357.00 796.47,357.00 796.75,357.00 797.06,357.00 797.38,357.00 797.77,357.00 798.17,357.00 798.57,357.00 798.93,357.00 799.28,357.00 799.64,357.00 800.04,357.00 800.43,357.00 800.83,357.00 801.23,357.00 801.62,357.00 802.02,357.00 802.42,357.00 802.81,357.00 803.21,357.00 803.61,357.00 804.00,357.00 804.40,357.00 804.80,357.00 805.19,357.00 805.59,357.00 805.98,357.00 806.38,357.00 806.78,357.00 807.17,357.00 807.57,357.00 807.97,357.00 808.36,357.00 808.76,357.00 809.16,357.00 809.55,357.00 809.95,357.00 810.35,357.00 810.74,357.00 811.14,357.00 811.54,357.00 811.93,357.00 812.33,357.00 812.72,357.00 813.12,357.00 813.52,357.00 813.91,357.00 814.31,357.00 814.71,357.00 815.10,357.00 815.50,357.00 815.90,357.00 816.29,357.00 816.69,357.00 817.09,357.00 817.48,357.00 817.88,357.00 818.28,357.00 818.67,357.00 819.07,357.00 819.46,357.00 819.86,357.00 820.26,357.00 820.65,357.00 821.05,357.00 821.45,357.00 821.84,357.00 822.24,357.00 822.64,357.00 823.03,357.00 823.43,357.00 823.83,357.00 824.22,357.00 824.62,357.00 825.02,357.00 825.41,357.00 825.81,357.00 826.21,357.00 826.60,357.00 827.00,357.00 827.39,357.00 827.79,357.00 828.19,357.00 828.58,357.00 828.98,357.00 829.38,357.00 829.77,357.00 830.17,357.00 830.57,357.00 830.96,357.00 831.36,357.00 831.76,357.00 832.15,357.00 832.55,357.00 832.95,357.00 833.34,357.00 833.74,357.00 834.13,357.00 834.53,357.00 834.93,357.00 835.32,357.00 835.72,357.00 836.12,357.00 836.51,357.00 836.91,357.00 837.31,357.00 837.70,357.00 838.10,357.00 838.50,357.00 838.89,357.00 839.29,357.00 839.69,357.00 840.08,357.00 840.48,357.00 840.88,357.00 841.27,357.00 841.67,357.00 842.06,357.00 842.46,357.00 842.86,357.00 843.25,357.00 843.65,357.00 844.05,357.00 844.44,357.00 844.84,357.00 845.24,357.00 845.63,357.00 846.03,357.00 846.43,357.00 846.82,357.00 847.22,357.00 847.62,357.00 848.01,357.00 848.41,357.00 848.80,357.00 849.20,357.00 849.60,357.00 849.99,357.00 850.39,357.00 850.79,357.00 851.18,357.00 851.58,357.00 851.98,357.00 852.37,357.00 852.77,357.00 853.17,357.00 853.56,357.00 853.96,357.00 854.36,357.00 854.75,357.00 855.15,357.00 855.55,357.00 855.94,357.00 856.34,357.00 856.73,357.00 857.13,357.00 857.53,357.00 857.92,357.00 858.32,357.00 858.72,357.00 859.11,357.00 859.51,357.00 859.91,357.00 860.30,357.00 860.70,357.00 861.10,357.00 861.49,357.00 861.89,357.00 862.29,357.00 862.68,357.00 863.08,357.00 863.47,357.00 863.87,357.00 864.27,357.00 864.66,357.00 865.06,357.00 865.46,357.00 865.85,357.00 866.25,357.00 866.65,357.00 867.04,357.00 867.44,357.00 867.84,357.00 868.23,357.00 868.63,357.00 869.03,357.00 869.42,357.00 869.82,357.00 870.21,357.00 870.61,357.00 871.01,357.00 871.40,357.00 871.80,357.00 872.20,357.00 872.59,357.00 872.99,357.00 873.39,357.00 873.78,357.00 874.18,357.00 874.58,357.00 874.97,357.00 875.37,357.00 875.77,357.00 876.16,357.00 876.56,357.00 876.96,357.00 877.35,357.00 877.75,357.00 878.14,357.00 878.54,357.00 878.94,357.00 879.33,357.00 879.73,357.00 880.13,357.00 880.52,357.00 880.92,357.00 881.32,357.00 881.71,357.00 882.11,357.00 882.51,357.00 882.90,357.00 883.30,357.00 883.70,357.00 884.09,357.00 884.49,357.00 884.88,357.00 885.28,357.00 885.68,357.00 886.07,357.00 886.47,357.00 886.87,357.00 887.26,357.00 887.63,357.00" fill="none" stroke="#b54708" stroke-width="3" stroke-linejoin="round"/>
<rect x="670" y="62" width="190" height="70" rx="4" ry="4" fill="#fff" fill-opacity="0.82" stroke="#111" stroke-width="1"/>
<line x1="682" y1="78" x2="718" y2="78" stroke="#1665d8" stroke-width="3"/>
<text x="728" y="83" font-family="Arial, Helvetica, sans-serif" font-size="13" font-weight="400" text-anchor="start" fill="#111">load output</text>
<line x1="682" y1="104" x2="718" y2="104" stroke="#b54708" stroke-width="3"/>
<text x="728" y="109" font-family="Arial, Helvetica, sans-serif" font-size="13" font-weight="400" text-anchor="start" fill="#111">input x10</text>
<text x="460" y="502" font-family="Arial, Helvetica, sans-serif" font-size="14" font-weight="400" text-anchor="middle" fill="#111">Time after 60 ms settling, ms</text>
<text x="22" y="260" font-family="Arial, Helvetica, sans-serif" font-size="14" text-anchor="middle" fill="#111" transform="rotate(-90 22 260)">Voltage, V</text>
</svg>
