<svg xmlns="http://www.w3.org/2000/svg" width="920" height="520" viewBox="0 0 920 520">
<defs>
<style>
.wire{stroke:#111;stroke-width:2.6;fill:none;stroke-linecap:round;stroke-linejoin:round}
.thin{stroke:#a7b0bd;stroke-width:1.2;fill:none;stroke-linecap:round;stroke-linejoin:round}
.axis{stroke:#111;stroke-width:1.4;fill:none}
.blue{stroke:#1665d8;stroke-width:3;fill:none;stroke-linecap:round;stroke-linejoin:round}
.green{stroke:#13795b;stroke-width:3;fill:none;stroke-linecap:round;stroke-linejoin:round}
.orange{stroke:#b54708;stroke-width:3;fill:none;stroke-linecap:round;stroke-linejoin:round}
.node{fill:#111;stroke:none}
</style>
</defs>
<rect width="100%" height="100%" fill="#fff"/>
<text x="76" y="36" font-family="Arial, Helvetica, sans-serif" font-size="22" font-weight="700" text-anchor="start" fill="#111">Darlington THD vs output power</text>
<rect x="76" y="60" width="812" height="396" fill="#fff" stroke="#111" stroke-width="1.4"/>
<line x1="83.3015" y1="60" x2="83.3015" y2="456" class="thin"/>
<text x="83.3015" y="479" font-family="Arial, Helvetica, sans-serif" font-size="12" font-weight="400" text-anchor="middle" fill="#111">0.1</text>
<line x1="139.903" y1="60" x2="139.903" y2="456" class="thin"/>
<text x="139.903" y="479" font-family="Arial, Helvetica, sans-serif" font-size="12" font-weight="400" text-anchor="middle" fill="#111">0.2</text>
<line x1="214.725" y1="60" x2="214.725" y2="456" class="thin"/>
<text x="214.725" y="479" font-family="Arial, Helvetica, sans-serif" font-size="12" font-weight="400" text-anchor="middle" fill="#111">0.5</text>
<line x1="271.326" y1="60" x2="271.326" y2="456" class="thin"/>
<text x="271.326" y="479" font-family="Arial, Helvetica, sans-serif" font-size="12" font-weight="400" text-anchor="middle" fill="#111">1</text>
<line x1="327.927" y1="60" x2="327.927" y2="456" class="thin"/>
<text x="327.927" y="479" font-family="Arial, Helvetica, sans-serif" font-size="12" font-weight="400" text-anchor="middle" fill="#111">2</text>
<line x1="402.75" y1="60" x2="402.75" y2="456" class="thin"/>
<text x="402.75" y="479" font-family="Arial, Helvetica, sans-serif" font-size="12" font-weight="400" text-anchor="middle" fill="#111">5</text>
<line x1="459.351" y1="60" x2="459.351" y2="456" class="thin"/>
<text x="459.351" y="479" font-family="Arial, Helvetica, sans-serif" font-size="12" font-weight="400" text-anchor="middle" fill="#111">10</text>
<line x1="515.952" y1="60" x2="515.952" y2="456" class="thin"/>
<text x="515.952" y="479" font-family="Arial, Helvetica, sans-serif" font-size="12" font-weight="400" text-anchor="middle" fill="#111">20</text>
<line x1="590.775" y1="60" x2="590.775" y2="456" class="thin"/>
<text x="590.775" y="479" font-family="Arial, Helvetica, sans-serif" font-size="12" font-weight="400" text-anchor="middle" fill="#111">50</text>
<line x1="647.376" y1="60" x2="647.376" y2="456" class="thin"/>
<text x="647.376" y="479" font-family="Arial, Helvetica, sans-serif" font-size="12" font-weight="400" text-anchor="middle" fill="#111">100</text>
<line x1="703.977" y1="60" x2="703.977" y2="456" class="thin"/>
<text x="703.977" y="479" font-family="Arial, Helvetica, sans-serif" font-size="12" font-weight="400" text-anchor="middle" fill="#111">200</text>
<line x1="778.8" y1="60" x2="778.8" y2="456" class="thin"/>
<text x="778.8" y="479" font-family="Arial, Helvetica, sans-serif" font-size="12" font-weight="400" text-anchor="middle" fill="#111">500</text>
<line x1="835.401" y1="60" x2="835.401" y2="456" class="thin"/>
<text x="835.401" y="479" font-family="Arial, Helvetica, sans-serif" font-size="12" font-weight="400" text-anchor="middle" fill="#111">1k</text>
<line x1="76" y1="456" x2="888" y2="456" class="thin"/>
<text x="66" y="460" font-family="Arial, Helvetica, sans-serif" font-size="12" font-weight="400" text-anchor="end" fill="#111">0</text>
<line x1="76" y1="357" x2="888" y2="357" class="thin"/>
<text x="66" y="361" font-family="Arial, Helvetica, sans-serif" font-size="12" font-weight="400" text-anchor="end" fill="#111">50</text>
<line x1="76" y1="258" x2="888" y2="258" class="thin"/>
<text x="66" y="262" font-family="Arial, Helvetica, sans-serif" font-size="12" font-weight="400" text-anchor="end" fill="#111">100</text>
<line x1="76" y1="159" x2="888" y2="159" class="thin"/>
<text x="66" y="163" font-family="Arial, Helvetica, sans-serif" font-size="12" font-weight="400" text-anchor="end" fill="#111">150</text>
<line x1="76" y1="60" x2="888" y2="60" class="thin"/>
<text x="66" y="64" font-family="Arial, Helvetica, sans-serif" font-size="12" font-weight="400" text-anchor="end" fill="#111">200</text>
<polyline points="212.80,432.35 432.62,349.06 587.84,308.92 714.51,301.02 792.64,394.29 826.08,413.77 864.61,388.22 877.85,334.30" fill="none" stroke="#7c3aed" stroke-width="3" stroke-linejoin="round"/>
<polyline points="218.66,428.80 457.35,334.66 613.45,300.82 764.59,324.04 818.09,403.08 848.50,404.86 880.88,326.26 882.40,387.67" fill="none" stroke="#13795b" stroke-width="3" stroke-linejoin="round"/>
<polyline points="218.81,427.80 512.26,311.69 681.72,294.58 791.75,352.78 827.29,404.26 856.75,405.66 884.52,336.35 888.00,393.50" fill="none" stroke="#1665d8" stroke-width="3" stroke-linejoin="round"/>
<polyline points="161.53,440.33 554.03,322.36 759.02,328.36 794.55,370.80 817.09,397.16 836.90,403.72 865.32,399.43 875.85,391.53" fill="none" stroke="#b54708" stroke-width="3" stroke-linejoin="round"/>
<polyline points="76.00,448.82 277.38,410.31 658.81,334.76 709.52,407.94 729.39,397.85 756.56,328.69 763.46,346.85 775.97,353.14" fill="none" stroke="#93370d" stroke-width="3" stroke-linejoin="round"/>
<rect x="670" y="62" width="190" height="148" rx="4" ry="4" fill="#fff" fill-opacity="0.82" stroke="#111" stroke-width="1"/>
<line x1="682" y1="78" x2="718" y2="78" stroke="#7c3aed" stroke-width="3"/>
<text x="728" y="83" font-family="Arial, Helvetica, sans-serif" font-size="13" font-weight="400" text-anchor="start" fill="#111">100 Hz</text>
<line x1="682" y1="104" x2="718" y2="104" stroke="#13795b" stroke-width="3"/>
<text x="728" y="109" font-family="Arial, Helvetica, sans-serif" font-size="13" font-weight="400" text-anchor="start" fill="#111">500 Hz</text>
<line x1="682" y1="130" x2="718" y2="130" stroke="#1665d8" stroke-width="3"/>
<text x="728" y="135" font-family="Arial, Helvetica, sans-serif" font-size="13" font-weight="400" text-anchor="start" fill="#111">1 kHz</text>
<line x1="682" y1="156" x2="718" y2="156" stroke="#b54708" stroke-width="3"/>
<text x="728" y="161" font-family="Arial, Helvetica, sans-serif" font-size="13" font-weight="400" text-anchor="start" fill="#111">5 kHz</text>
<line x1="682" y1="182" x2="718" y2="182" stroke="#93370d" stroke-width="3"/>
<text x="728" y="187" font-family="Arial, Helvetica, sans-serif" font-size="13" font-weight="400" text-anchor="start" fill="#111">10 kHz</text>
<text x="460" y="502" font-family="Arial, Helvetica, sans-serif" font-size="14" font-weight="400" text-anchor="middle" fill="#111">Output power, mW into 8 ohm</text>
<text x="22" y="260" font-family="Arial, Helvetica, sans-serif" font-size="14" text-anchor="middle" fill="#111" transform="rotate(-90 22 260)">THD, %</text>
</svg>
