<svg xmlns="http://www.w3.org/2000/svg" width="920" height="520" viewBox="0 0 920 520">
<defs>
<style>
.wire{stroke:#111;stroke-width:2.6;fill:none;stroke-linecap:round;stroke-linejoin:round}
.thin{stroke:#a7b0bd;stroke-width:1.2;fill:none;stroke-linecap:round;stroke-linejoin:round}
.axis{stroke:#111;stroke-width:1.4;fill:none}
.blue{stroke:#1665d8;stroke-width:3;fill:none;stroke-linecap:round;stroke-linejoin:round}
.green{stroke:#13795b;stroke-width:3;fill:none;stroke-linecap:round;stroke-linejoin:round}
.orange{stroke:#b54708;stroke-width:3;fill:none;stroke-linecap:round;stroke-linejoin:round}
.node{fill:#111;stroke:none}
</style>
</defs>
<rect width="100%" height="100%" fill="#fff"/>
<text x="76" y="36" font-family="Arial, Helvetica, sans-serif" font-size="22" font-weight="700" text-anchor="start" fill="#111">Darlington square response, 10 kHz, Vin = 1000 mVpp</text>
<rect x="76" y="60" width="812" height="396" fill="#fff" stroke="#111" stroke-width="1.4"/>
<line x1="76" y1="60" x2="76" y2="456" class="thin"/>
<text x="76" y="479" font-family="Arial, Helvetica, sans-serif" font-size="12" font-weight="400" text-anchor="middle" fill="#111">0</text>
<line x1="279" y1="60" x2="279" y2="456" class="thin"/>
<text x="279" y="479" font-family="Arial, Helvetica, sans-serif" font-size="12" font-weight="400" text-anchor="middle" fill="#111">0.1</text>
<line x1="482" y1="60" x2="482" y2="456" class="thin"/>
<text x="482" y="479" font-family="Arial, Helvetica, sans-serif" font-size="12" font-weight="400" text-anchor="middle" fill="#111">0.2</text>
<line x1="685" y1="60" x2="685" y2="456" class="thin"/>
<text x="685" y="479" font-family="Arial, Helvetica, sans-serif" font-size="12" font-weight="400" text-anchor="middle" fill="#111">0.3</text>
<line x1="888" y1="60" x2="888" y2="456" class="thin"/>
<text x="888" y="479" font-family="Arial, Helvetica, sans-serif" font-size="12" font-weight="400" text-anchor="middle" fill="#111">0.4</text>
<line x1="76" y1="456" x2="888" y2="456" class="thin"/>
<text x="66" y="460" font-family="Arial, Helvetica, sans-serif" font-size="12" font-weight="400" text-anchor="end" fill="#111">-10</text>
<line x1="76" y1="357" x2="888" y2="357" class="thin"/>
<text x="66" y="361" font-family="Arial, Helvetica, sans-serif" font-size="12" font-weight="400" text-anchor="end" fill="#111">-5</text>
<line x1="76" y1="258" x2="888" y2="258" class="thin"/>
<text x="66" y="262" font-family="Arial, Helvetica, sans-serif" font-size="12" font-weight="400" text-anchor="end" fill="#111">0</text>
<line x1="76" y1="159" x2="888" y2="159" class="thin"/>
<text x="66" y="163" font-family="Arial, Helvetica, sans-serif" font-size="12" font-weight="400" text-anchor="end" fill="#111">5</text>
<line x1="76" y1="60" x2="888" y2="60" class="thin"/>
<text x="66" y="64" font-family="Arial, Helvetica, sans-serif" font-size="12" font-weight="400" text-anchor="end" fill="#111">10</text>
<polyline points="76.00,129.87 76.04,129.85 76.12,129.83 76.28,129.78 76.59,129.70 76.99,129.63 77.39,129.71 77.71,133.50 78.03,136.11 78.05,136.08 78.09,136.22 78.13,136.42 78.17,136.58 78.21,136.77 78.29,137.12 78.40,137.61 78.61,138.58 79.01,140.37 79.40,142.23 79.80,144.04 80.20,145.74 80.59,147.41 80.99,149.03 81.39,150.64 81.78,152.20 82.18,153.76 82.58,155.28 82.97,156.79 83.37,158.26 83.76,159.73 84.16,161.16 84.56,162.59 84.95,163.99 85.35,165.38 85.75,166.74 86.14,168.10 86.54,169.42 86.94,170.74 87.33,172.04 87.73,173.33 88.13,174.59 88.52,175.84 88.92,177.07 89.32,178.30 89.71,179.50 90.11,180.70 90.50,181.87 90.90,183.04 91.30,184.18 91.69,185.33 92.09,186.44 92.49,187.56 92.88,188.65 93.28,189.74 93.68,190.81 94.07,191.87 94.47,192.92 94.87,193.96 95.26,194.98 95.66,195.99 96.06,196.99 96.45,197.98 96.85,198.96 97.25,199.93 97.64,200.88 98.04,201.83 98.43,202.77 98.83,203.70 99.23,204.61 99.62,205.52 100.02,206.41 100.42,207.30 100.81,208.18 101.21,209.05 101.61,209.90 102.00,210.75 102.40,211.59 102.80,212.42 103.19,213.24 103.59,214.06 103.99,214.86 104.38,215.66 104.78,216.45 105.17,217.23 105.57,218.00 105.97,218.77 106.36,219.52 106.76,220.27 107.16,221.01 107.55,221.74 107.95,222.47 108.35,223.19 108.74,223.89 109.14,224.60 109.54,225.29 109.93,225.98 110.33,226.66 110.73,227.34 111.12,228.01 111.52,228.67 111.92,229.32 112.31,229.97 112.71,230.61 113.10,231.25 113.50,231.88 113.90,232.50 114.29,233.11 114.69,233.73 115.09,234.33 115.48,234.93 115.88,235.52 116.28,236.11 116.67,236.69 117.07,237.26 117.47,237.83 117.86,238.39 118.26,238.95 118.66,239.51 119.05,240.05 119.45,240.59 119.84,241.13 120.24,241.66 120.64,242.19 121.03,242.71 121.43,243.22 121.83,243.74 122.22,244.24 122.62,244.74 123.02,245.24 123.41,245.73 123.81,246.22 124.21,246.70 124.60,247.18 125.00,247.65 125.40,248.12 125.79,248.58 126.19,249.04 126.59,249.50 126.98,249.95 127.38,250.39 127.77,250.84 128.17,251.27 128.57,251.71 128.96,252.14 129.36,252.56 129.76,252.99 130.15,253.40 130.55,253.82 130.95,254.23 131.34,254.63 131.74,255.03 132.14,255.43 132.53,255.83 132.93,256.22 133.33,256.60 133.72,256.99 134.12,257.37 134.51,257.75 134.91,258.12 135.31,258.49 135.70,258.85 136.10,259.22 136.50,259.58 136.89,259.93 137.29,260.28 137.69,260.63 138.08,260.98 138.48,261.32 138.88,261.66 139.27,262.00 139.67,262.33 140.07,262.66 140.46,262.99 140.86,263.31 141.25,263.63 141.65,263.95 142.05,264.27 142.44,264.58 142.84,264.89 143.24,265.20 143.63,265.50 144.03,265.80 144.43,266.10 144.82,266.40 145.22,266.69 145.62,266.98 146.01,267.27 146.41,267.55 146.81,267.83 147.20,268.11 147.60,268.39 148.00,268.67 148.39,268.94 148.79,269.21 149.18,269.48 149.58,269.74 149.98,270.00 150.37,270.26 150.77,270.52 151.17,270.78 151.56,271.03 151.96,271.28 152.36,271.53 152.75,271.77 153.15,272.02 153.55,272.26 153.94,272.50 154.34,272.74 154.74,272.97 155.13,273.20 155.53,273.44 155.92,273.66 156.32,273.89 156.72,274.12 157.11,274.34 157.51,274.56 157.91,274.78 158.30,275.00 158.70,275.21 159.10,275.42 159.49,275.63 159.89,275.84 160.29,276.05 160.68,276.26 161.08,276.46 161.48,276.66 161.87,276.86 162.27,277.06 162.67,277.26 163.06,277.45 163.46,277.64 163.85,277.83 164.25,278.02 164.65,278.21 165.04,278.40 165.44,278.58 165.84,278.76 166.23,278.95 166.63,279.12 167.03,279.30 167.42,279.48 167.82,279.65 168.22,279.83 168.61,280.00 169.01,280.17 169.41,280.34 169.80,280.50 170.20,280.67 170.59,280.83 170.99,281.00 171.39,281.16 171.78,281.32 172.18,281.48 172.58,281.63 172.97,281.79 173.37,281.94 173.77,282.10 174.16,282.25 174.56,282.40 174.96,282.55 175.35,282.69 175.75,282.84 176.15,282.98 176.54,283.13 176.94,283.27 177.34,283.41 177.73,283.55 178.13,283.69 178.52,283.83 178.92,283.96 179.23,284.07 179.53,284.17 179.57,284.13 179.65,284.04 179.81,283.85 180.12,283.39 180.52,282.84 180.92,282.56 181.24,282.35 181.56,282.14 181.60,282.11 181.68,282.06 181.84,281.96 182.15,281.75 182.55,281.49 182.95,281.24 183.34,280.99 183.74,280.75 184.14,280.50 184.53,280.26 184.93,280.02 185.33,279.78 185.72,279.54 186.12,279.30 186.52,279.07 186.91,278.84 187.31,278.61 187.71,278.38 188.10,278.16 188.50,277.93 188.89,277.71 189.29,277.49 189.69,277.27 190.08,277.06 190.48,276.84 190.88,276.63 191.27,276.42 191.67,276.21 192.07,276.00 192.46,275.80 192.86,275.59 193.26,275.39 193.65,275.19 194.05,274.99 194.45,274.79 194.84,274.60 195.24,274.40 195.64,274.21 196.03,274.02 196.43,273.83 196.82,273.64 197.22,273.45 197.62,273.27 198.01,273.08 198.41,272.90 198.81,272.72 199.20,272.54 199.60,272.36 200.00,272.19 200.39,272.01 200.79,271.84 201.19,271.67 201.58,271.49 201.98,271.32 202.38,271.16 202.77,270.99 203.17,270.82 203.56,270.66 203.96,270.50 204.36,270.33 204.75,270.17 205.15,270.01 205.55,269.85 205.94,269.70 206.34,269.54 206.74,269.39 207.13,269.23 207.53,269.08 207.93,268.93 208.32,268.78 208.72,268.63 209.12,268.48 209.51,268.33 209.91,268.19 210.31,268.04 210.70,267.90 211.10,267.76 211.49,267.62 211.89,267.48 212.29,267.34 212.68,267.20 213.08,267.06 213.48,266.93 213.87,266.79 214.27,266.66 214.67,266.52 215.06,266.39 215.46,266.26 215.86,266.13 216.25,266.00 216.65,265.87 217.05,265.74 217.44,265.62 217.84,265.49 218.23,265.37 218.63,265.24 219.03,265.12 219.42,265.00 219.82,264.88 220.22,264.76 220.61,264.64 221.01,264.52 221.41,264.40 221.80,264.28 222.20,264.17 222.60,264.05 222.99,263.94 223.39,263.82 223.79,263.71 224.18,263.60 224.58,263.49 224.98,263.38 225.37,263.27 225.77,263.16 226.16,263.05 226.56,262.94 226.96,262.84 227.35,262.73 227.75,262.63 228.15,262.52 228.54,262.42 228.94,262.32 229.34,262.21 229.73,262.11 230.13,262.01 230.53,261.91 230.92,261.81 231.32,261.71 231.72,261.61 232.11,261.52 232.51,261.42 232.90,261.32 233.30,261.23 233.70,261.13 234.09,261.04 234.49,260.95 234.89,260.85 235.28,260.76 235.68,260.67 236.08,260.58 236.47,260.49 236.87,260.40 237.27,260.31 237.66,260.22 238.06,260.13 238.46,260.05 238.85,259.96 239.25,259.87 239.64,259.79 240.04,259.70 240.44,259.62 240.83,259.53 241.23,259.45 241.63,259.37 242.02,259.29 242.42,259.20 242.82,259.12 243.21,259.04 243.61,258.96 244.01,258.88 244.40,258.80 244.80,258.72 245.20,258.65 245.59,258.57 245.99,258.49 246.39,258.41 246.78,258.34 247.18,258.26 247.57,258.19 247.97,258.11 248.37,258.04 248.76,257.96 249.16,257.89 249.56,257.82 249.95,257.74 250.35,257.67 250.75,257.60 251.14,257.53 251.54,257.46 251.94,257.38 252.33,257.31 252.73,257.24 253.13,257.17 253.52,257.10 253.92,257.03 254.31,256.97 254.71,256.90 255.11,256.83 255.50,256.76 255.90,256.69 256.30,256.62 256.69,256.56 257.09,256.49 257.49,256.42 257.88,256.35 258.28,256.28 258.68,256.22 259.07,256.15 259.47,256.08 259.87,256.01 260.26,255.94 260.66,255.87 261.06,255.80 261.45,255.73 261.85,255.66 262.24,255.58 262.64,255.51 263.04,255.42 263.43,255.34 263.83,255.24 264.23,255.14 264.62,255.00 265.02,254.76 265.42,253.82 265.81,245.08 266.21,238.07 266.61,234.01 267.00,227.52 267.40,219.67 267.80,218.11 268.19,211.57 268.59,208.42 268.98,202.61 269.38,198.39 269.78,193.39 270.17,189.02 270.57,184.54 270.97,180.19 271.36,176.03 271.76,171.77 272.16,167.84 272.55,163.70 272.95,159.96 273.35,155.95 273.74,152.36 274.14,148.49 274.54,145.04 274.93,141.31 275.33,138.00 275.73,134.73 276.12,133.16 276.52,132.10 276.91,131.54 277.31,130.99 277.71,130.66 278.10,130.31 278.50,130.15 278.75,129.97 279.00,129.94 279.04,129.90 279.12,129.87 279.28,129.83 279.57,129.75 279.96,129.67 280.36,129.73 280.70,133.23 281.03,136.14 281.05,136.07 281.09,136.20 281.13,136.40 281.16,136.56 281.20,136.75 281.28,137.08 281.38,137.55 281.58,138.43 281.94,140.05 282.33,141.90 282.73,143.72 283.13,145.43 283.52,147.11 283.92,148.74 284.31,150.35 284.71,151.92 285.11,153.48 285.50,155.00 285.90,156.51 286.30,157.99 286.69,159.46 287.09,160.90 287.49,162.33 287.88,163.73 288.28,165.13 288.68,166.49 289.07,167.85 289.47,169.18 289.87,170.50 290.26,171.80 290.66,173.09 291.06,174.35 291.45,175.61 291.85,176.84 292.24,178.07 292.64,179.28 293.04,180.48 293.43,181.65 293.83,182.82 294.23,183.97 294.62,185.11 295.02,186.23 295.42,187.35 295.81,188.44 296.21,189.54 296.61,190.61 297.00,191.67 297.40,192.72 297.80,193.76 298.19,194.78 298.59,195.80 298.98,196.80 299.38,197.80 299.78,198.77 300.17,199.75 300.57,200.70 300.97,201.65 301.36,202.59 301.76,203.52 302.16,204.43 302.55,205.34 302.95,206.24 303.35,207.13 303.74,208.01 304.14,208.88 304.54,209.73 304.93,210.59 305.33,211.43 305.73,212.26 306.12,213.08 306.52,213.90 306.91,214.70 307.31,215.51 307.71,216.29 308.10,217.08 308.50,217.85 308.90,218.61 309.29,219.37 309.69,220.12 310.09,220.86 310.48,221.60 310.88,222.32 311.28,223.04 311.67,223.75 312.07,224.46 312.47,225.15 312.86,225.84 313.26,226.52 313.65,227.20 314.05,227.87 314.45,228.53 314.84,229.19 315.24,229.84 315.64,230.48 316.03,231.12 316.43,231.75 316.83,232.37 317.22,232.99 317.62,233.60 318.02,234.20 318.41,234.80 318.81,235.40 319.21,235.98 319.60,236.56 320.00,237.14 320.40,237.71 320.79,238.28 321.19,238.83 321.58,239.39 321.98,239.93 322.38,240.48 322.77,241.01 323.17,241.55 323.57,242.07 323.96,242.60 324.36,243.11 324.76,243.63 325.15,244.13 325.55,244.63 325.95,245.13 326.34,245.62 326.74,246.11 327.14,246.59 327.53,247.07 327.93,247.55 328.32,248.01 328.72,248.48 329.12,248.94 329.51,249.40 329.91,249.85 330.31,250.29 330.70,250.74 331.10,251.18 331.50,251.61 331.89,252.04 332.29,252.47 332.69,252.89 333.08,253.31 333.48,253.72 333.88,254.13 334.27,254.54 334.67,254.94 335.06,255.34 335.46,255.74 335.86,256.13 336.25,256.51 336.65,256.90 337.05,257.28 337.44,257.66 337.84,258.03 338.24,258.40 338.63,258.77 339.03,259.13 339.43,259.49 339.82,259.85 340.22,260.20 340.62,260.55 341.01,260.90 341.41,261.24 341.81,261.58 342.20,261.92 342.60,262.25 342.99,262.58 343.39,262.91 343.79,263.23 344.18,263.56 344.58,263.88 344.98,264.19 345.37,264.50 345.77,264.81 346.17,265.12 346.56,265.43 346.96,265.73 347.36,266.03 347.75,266.32 348.15,266.61 348.55,266.91 348.94,267.19 349.34,267.48 349.73,267.76 350.13,268.04 350.53,268.32 350.92,268.60 351.32,268.87 351.72,269.14 352.11,269.41 352.51,269.67 352.91,269.93 353.30,270.19 353.70,270.45 354.10,270.71 354.49,270.96 354.89,271.21 355.29,271.46 355.68,271.71 356.08,271.95 356.48,272.19 356.87,272.43 357.27,272.67 357.66,272.91 358.06,273.14 358.46,273.37 358.85,273.60 359.25,273.83 359.65,274.05 360.04,274.28 360.44,274.50 360.84,274.72 361.23,274.93 361.63,275.15 362.03,275.36 362.42,275.57 362.82,275.78 363.22,275.99 363.61,276.20 364.01,276.40 364.40,276.60 364.80,276.80 365.20,277.00 365.59,277.20 365.99,277.39 366.39,277.59 366.78,277.78 367.18,277.97 367.58,278.15 367.97,278.34 368.37,278.53 368.77,278.71 369.16,278.89 369.56,279.07 369.96,279.25 370.35,279.42 370.75,279.60 371.15,279.77 371.54,279.94 371.94,280.12 372.33,280.28 372.73,280.45 373.13,280.62 373.52,280.78 373.92,280.94 374.32,281.11 374.71,281.27 375.11,281.42 375.51,281.58 375.90,281.74 376.30,281.89 376.70,282.04 377.09,282.20 377.49,282.35 377.89,282.50 378.28,282.64 378.68,282.79 379.07,282.93 379.47,283.08 379.87,283.22 380.26,283.36 380.66,283.50 381.06,283.64 381.45,283.78 381.85,283.92 382.19,284.03 382.53,284.15 382.57,284.11 382.65,284.02 382.81,283.82 383.12,283.37 383.52,282.82 383.92,282.54 384.24,282.33 384.56,282.12 384.60,282.09 384.68,282.04 384.84,281.93 385.15,281.73 385.55,281.47 385.95,281.22 386.34,280.97 386.74,280.72 387.14,280.48 387.53,280.24 387.93,279.99 388.33,279.76 388.72,279.52 389.12,279.28 389.52,279.05 389.91,278.82 390.31,278.59 390.71,278.36 391.10,278.14 391.50,277.91 391.89,277.69 392.29,277.47 392.69,277.26 393.08,277.04 393.48,276.83 393.88,276.61 394.27,276.40 394.67,276.19 395.07,275.99 395.46,275.78 395.86,275.58 396.26,275.37 396.65,275.17 397.05,274.97 397.45,274.78 397.84,274.58 398.24,274.39 398.64,274.19 399.03,274.00 399.43,273.81 399.82,273.63 400.22,273.44 400.62,273.25 401.01,273.07 401.41,272.89 401.81,272.71 402.20,272.53 402.60,272.35 403.00,272.17 403.39,272.00 403.79,271.82 404.19,271.65 404.58,271.48 404.98,271.31 405.38,271.14 405.77,270.98 406.17,270.81 406.56,270.65 406.96,270.48 407.36,270.32 407.75,270.16 408.15,270.00 408.55,269.84 408.94,269.68 409.34,269.53 409.74,269.37 410.13,269.22 410.53,269.07 410.93,268.92 411.32,268.77 411.72,268.62 412.12,268.47 412.51,268.32 412.91,268.18 413.31,268.03 413.70,267.89 414.10,267.75 414.49,267.61 414.89,267.46 415.29,267.33 415.68,267.19 416.08,267.05 416.48,266.91 416.87,266.78 417.27,266.64 417.67,266.51 418.06,266.38 418.46,266.25 418.86,266.12 419.25,265.99 419.65,265.86 420.05,265.73 420.44,265.61 420.84,265.48 421.23,265.36 421.63,265.23 422.03,265.11 422.42,264.99 422.82,264.87 423.22,264.75 423.61,264.63 424.01,264.51 424.41,264.39 424.80,264.27 425.20,264.16 425.60,264.04 425.99,263.93 426.39,263.81 426.79,263.70 427.18,263.59 427.58,263.48 427.98,263.37 428.37,263.26 428.77,263.15 429.16,263.04 429.56,262.94 429.96,262.83 430.35,262.72 430.75,262.62 431.15,262.51 431.54,262.41 431.94,262.31 432.34,262.21 432.73,262.10 433.13,262.00 433.53,261.90 433.92,261.80 434.32,261.71 434.72,261.61 435.11,261.51 435.51,261.41 435.90,261.32 436.30,261.22 436.70,261.13 437.09,261.03 437.49,260.94 437.89,260.85 438.28,260.76 438.68,260.66 439.08,260.57 439.47,260.48 439.87,260.39 440.27,260.30 440.66,260.22 441.06,260.13 441.46,260.04 441.85,259.95 442.25,259.87 442.64,259.78 443.04,259.70 443.44,259.61 443.83,259.53 444.23,259.45 444.63,259.36 445.02,259.28 445.42,259.20 445.82,259.12 446.21,259.04 446.61,258.96 447.01,258.88 447.40,258.80 447.80,258.72 448.20,258.64 448.59,258.56 448.99,258.49 449.39,258.41 449.78,258.33 450.18,258.26 450.57,258.18 450.97,258.11 451.37,258.03 451.76,257.96 452.16,257.88 452.56,257.81 452.95,257.74 453.35,257.66 453.75,257.59 454.14,257.52 454.54,257.45 454.94,257.38 455.33,257.31 455.73,257.24 456.13,257.17 456.52,257.10 456.92,257.03 457.31,256.96 457.71,256.89 458.11,256.82 458.50,256.75 458.90,256.69 459.30,256.62 459.69,256.55 460.09,256.48 460.49,256.41 460.88,256.35 461.28,256.28 461.68,256.21 462.07,256.14 462.47,256.08 462.87,256.01 463.26,255.94 463.66,255.87 464.06,255.80 464.45,255.73 464.85,255.65 465.24,255.58 465.64,255.50 466.04,255.42 466.43,255.33 466.83,255.24 467.23,255.13 467.62,254.99 468.02,254.74 468.42,253.63 468.81,244.68 469.21,237.80 469.61,233.79 470.00,228.27 470.40,224.15 470.80,218.09 471.19,212.79 471.59,207.34 471.98,202.52 472.38,197.60 472.78,193.06 473.17,188.45 473.57,184.11 473.97,179.73 474.36,175.56 474.76,171.37 475.16,167.36 475.55,163.33 475.95,159.48 476.35,155.61 476.74,151.89 477.14,148.17 477.54,144.59 477.93,141.00 478.33,137.57 478.73,134.47 479.12,133.05 479.52,132.11 479.91,131.50 480.31,131.00 480.71,130.64 481.10,130.34 481.50,130.13 481.75,130.01 482.00,129.94 482.04,129.92 482.12,129.89 482.28,129.85 482.59,129.77 482.99,129.70 483.39,129.78 483.71,133.53 484.03,136.16 484.05,136.13 484.09,136.27 484.13,136.47 484.17,136.63 484.21,136.82 484.28,137.15 484.39,137.64 484.60,138.57 484.98,140.32 485.38,142.17 485.78,143.98 486.17,145.68 486.57,147.36 486.97,148.98 487.36,150.58 487.76,152.15 488.16,153.70 488.55,155.22 488.95,156.73 489.34,158.21 489.74,159.67 490.14,161.11 490.53,162.54 490.93,163.93 491.33,165.33 491.72,166.69 492.12,168.04 492.52,169.37 492.91,170.69 493.31,171.98 493.71,173.27 494.10,174.53 494.50,175.79 494.90,177.02 495.29,178.25 495.69,179.45 496.09,180.65 496.48,181.82 496.88,182.99 497.27,184.13 497.67,185.27 498.07,186.39 498.46,187.51 498.86,188.60 499.26,189.69 499.65,190.76 500.05,191.82 500.45,192.87 500.84,193.90 501.24,194.93 501.64,195.94 502.03,196.94 502.43,197.93 502.83,198.91 503.22,199.88 503.62,200.83 504.01,201.78 504.41,202.72 504.81,203.65 505.20,204.56 505.60,205.47 506.00,206.36 506.39,207.25 506.79,208.13 507.19,209.00 507.58,209.85 507.98,210.70 508.38,211.54 508.77,212.37 509.17,213.19 509.57,214.01 509.96,214.81 510.36,215.61 510.76,216.40 511.15,217.18 511.55,217.95 511.94,218.72 512.34,219.47 512.74,220.22 513.13,220.96 513.53,221.69 513.93,222.42 514.32,223.14 514.72,223.84 515.12,224.55 515.51,225.24 515.91,225.93 516.31,226.61 516.70,227.29 517.10,227.96 517.50,228.62 517.89,229.27 518.29,229.92 518.68,230.56 519.08,231.20 519.48,231.83 519.87,232.45 520.27,233.06 520.67,233.68 521.06,234.28 521.46,234.88 521.86,235.47 522.25,236.06 522.65,236.64 523.05,237.21 523.44,237.78 523.84,238.34 524.24,238.90 524.63,239.46 525.03,240.00 525.42,240.54 525.82,241.08 526.22,241.61 526.61,242.14 527.01,242.66 527.41,243.17 527.80,243.69 528.20,244.19 528.60,244.69 528.99,245.19 529.39,245.68 529.79,246.17 530.18,246.65 530.58,247.13 530.98,247.60 531.37,248.07 531.77,248.53 532.17,248.99 532.56,249.45 532.96,249.90 533.35,250.34 533.75,250.79 534.15,251.22 534.54,251.66 534.94,252.09 535.34,252.51 535.73,252.94 536.13,253.35 536.53,253.77 536.92,254.18 537.32,254.58 537.72,254.98 538.11,255.38 538.51,255.78 538.91,256.17 539.30,256.55 539.70,256.94 540.09,257.32 540.49,257.70 540.89,258.07 541.28,258.44 541.68,258.80 542.08,259.17 542.47,259.53 542.87,259.88 543.27,260.23 543.66,260.58 544.06,260.93 544.46,261.27 544.85,261.61 545.25,261.95 545.65,262.28 546.04,262.61 546.44,262.94 546.84,263.26 547.23,263.58 547.63,263.90 548.02,264.22 548.42,264.53 548.82,264.84 549.21,265.15 549.61,265.45 550.01,265.75 550.40,266.05 550.80,266.35 551.20,266.64 551.59,266.93 551.99,267.22 552.39,267.50 552.78,267.78 553.18,268.06 553.58,268.34 553.97,268.62 554.37,268.89 554.76,269.16 555.16,269.43 555.56,269.69 555.95,269.95 556.35,270.21 556.75,270.47 557.14,270.73 557.54,270.98 557.94,271.23 558.33,271.48 558.73,271.72 559.13,271.97 559.52,272.21 559.92,272.45 560.32,272.69 560.71,272.92 561.11,273.15 561.51,273.39 561.90,273.61 562.30,273.84 562.69,274.07 563.09,274.29 563.49,274.51 563.88,274.73 564.28,274.95 564.68,275.16 565.07,275.37 565.47,275.58 565.87,275.79 566.26,276.00 566.66,276.21 567.06,276.41 567.45,276.61 567.85,276.81 568.25,277.01 568.64,277.21 569.04,277.40 569.43,277.59 569.83,277.78 570.23,277.97 570.62,278.16 571.02,278.35 571.42,278.53 571.81,278.71 572.21,278.90 572.61,279.08 573.00,279.25 573.40,279.43 573.80,279.60 574.19,279.78 574.59,279.95 574.99,280.12 575.38,280.29 575.78,280.45 576.17,280.62 576.57,280.78 576.97,280.95 577.36,281.11 577.76,281.27 578.16,281.43 578.55,281.58 578.95,281.74 579.35,281.89 579.74,282.05 580.14,282.20 580.54,282.35 580.93,282.50 581.33,282.64 581.73,282.79 582.12,282.93 582.52,283.08 582.92,283.22 583.31,283.36 583.71,283.50 584.10,283.64 584.50,283.78 584.90,283.91 585.21,284.02 585.53,284.13 585.57,284.09 585.65,284.00 585.81,283.81 586.12,283.35 586.52,282.80 586.92,282.52 587.24,282.31 587.56,282.10 587.60,282.07 587.68,282.02 587.84,281.92 588.15,281.71 588.55,281.46 588.95,281.20 589.34,280.96 589.74,280.71 590.14,280.46 590.53,280.22 590.93,279.98 591.33,279.74 591.72,279.50 592.12,279.27 592.52,279.04 592.91,278.80 593.31,278.58 593.71,278.35 594.10,278.12 594.50,277.90 594.89,277.68 595.29,277.46 595.69,277.24 596.08,277.03 596.48,276.81 596.88,276.60 597.27,276.39 597.67,276.18 598.07,275.97 598.46,275.77 598.86,275.56 599.26,275.36 599.65,275.16 600.05,274.96 600.45,274.76 600.84,274.57 601.24,274.37 601.64,274.18 602.03,273.99 602.43,273.80 602.82,273.61 603.22,273.43 603.62,273.24 604.01,273.06 604.41,272.88 604.81,272.70 605.20,272.52 605.60,272.34 606.00,272.16 606.39,271.99 606.79,271.81 607.19,271.64 607.58,271.47 607.98,271.30 608.38,271.13 608.77,270.96 609.17,270.80 609.56,270.63 609.96,270.47 610.36,270.31 610.75,270.15 611.15,269.99 611.55,269.83 611.94,269.67 612.34,269.52 612.74,269.36 613.13,269.21 613.53,269.06 613.93,268.91 614.32,268.76 614.72,268.61 615.12,268.46 615.51,268.31 615.91,268.17 616.31,268.02 616.70,267.88 617.10,267.74 617.49,267.60 617.89,267.46 618.29,267.32 618.68,267.18 619.08,267.04 619.48,266.91 619.87,266.77 620.27,266.64 620.67,266.50 621.06,266.37 621.46,266.24 621.86,266.11 622.25,265.98 622.65,265.85 623.05,265.73 623.44,265.60 623.84,265.47 624.23,265.35 624.63,265.22 625.03,265.10 625.42,264.98 625.82,264.86 626.22,264.74 626.61,264.62 627.01,264.50 627.41,264.38 627.80,264.27 628.20,264.15 628.60,264.04 628.99,263.92 629.39,263.81 629.79,263.70 630.18,263.58 630.58,263.47 630.98,263.36 631.37,263.25 631.77,263.14 632.16,263.04 632.56,262.93 632.96,262.82 633.35,262.72 633.75,262.61 634.15,262.51 634.54,262.40 634.94,262.30 635.34,262.20 635.73,262.10 636.13,262.00 636.53,261.90 636.92,261.80 637.32,261.70 637.72,261.60 638.11,261.50 638.51,261.41 638.90,261.31 639.30,261.22 639.70,261.12 640.09,261.03 640.49,260.93 640.89,260.84 641.28,260.75 641.68,260.66 642.08,260.57 642.47,260.48 642.87,260.39 643.27,260.30 643.66,260.21 644.06,260.12 644.46,260.04 644.85,259.95 645.25,259.86 645.64,259.78 646.04,259.69 646.44,259.61 646.83,259.52 647.23,259.44 647.63,259.36 648.02,259.28 648.42,259.19 648.82,259.11 649.21,259.03 649.61,258.95 650.01,258.87 650.40,258.79 650.80,258.71 651.20,258.64 651.59,258.56 651.99,258.48 652.39,258.40 652.78,258.33 653.18,258.25 653.57,258.18 653.97,258.10 654.37,258.03 654.76,257.95 655.16,257.88 655.56,257.81 655.95,257.73 656.35,257.66 656.75,257.59 657.14,257.52 657.54,257.45 657.94,257.37 658.33,257.30 658.73,257.23 659.13,257.16 659.52,257.09 659.92,257.03 660.31,256.96 660.71,256.89 661.11,256.82 661.50,256.75 661.90,256.68 662.30,256.61 662.69,256.55 663.09,256.48 663.49,256.41 663.88,256.34 664.28,256.28 664.68,256.21 665.07,256.14 665.47,256.07 665.87,256.00 666.26,255.93 666.66,255.86 667.06,255.79 667.45,255.72 667.85,255.65 668.24,255.57 668.64,255.50 669.04,255.41 669.43,255.33 669.83,255.23 670.23,255.12 670.62,254.98 671.02,254.73 671.42,253.43 671.81,244.35 672.21,237.59 672.61,233.57 673.00,228.04 673.40,223.97 673.80,217.89 674.19,212.63 674.59,207.17 674.98,202.37 675.38,197.45 675.78,192.92 676.17,188.31 676.57,183.97 676.97,179.59 677.36,175.43 677.76,171.24 678.16,167.24 678.55,163.21 678.95,159.36 679.35,155.49 679.74,151.78 680.14,148.05 680.54,144.48 680.93,140.90 681.33,137.46 681.73,134.38 682.12,133.03 682.52,132.13 682.91,131.52 683.31,131.02 683.71,130.66 684.10,130.36 684.50,130.16 684.75,130.04 685.00,129.96 685.04,129.95 685.12,129.92 685.28,129.88 685.59,129.80 685.99,129.73 686.39,129.81 686.71,133.54 687.03,136.18 687.05,136.15 687.09,136.29 687.13,136.49 687.17,136.65 687.20,136.83 687.28,137.17 687.39,137.64 687.59,138.57 687.97,140.28 688.37,142.13 688.76,143.94 689.16,145.65 689.56,147.32 689.95,148.94 690.35,150.55 690.75,152.11 691.14,153.67 691.54,155.19 691.94,156.70 692.33,158.17 692.73,159.64 693.13,161.08 693.52,162.50 693.92,163.90 694.31,165.29 694.71,166.65 695.11,168.01 695.50,169.34 695.90,170.66 696.30,171.95 696.69,173.24 697.09,174.50 697.49,175.76 697.88,176.99 698.28,178.22 698.68,179.42 699.07,180.62 699.47,181.79 699.87,182.96 700.26,184.10 700.66,185.24 701.05,186.36 701.45,187.48 701.85,188.57 702.24,189.66 702.64,190.73 703.04,191.79 703.43,192.84 703.83,193.87 704.23,194.90 704.62,195.91 705.02,196.91 705.42,197.90 705.81,198.88 706.21,199.85 706.61,200.80 707.00,201.75 707.40,202.69 707.80,203.62 708.19,204.53 708.59,205.44 708.98,206.33 709.38,207.22 709.78,208.10 710.17,208.97 710.57,209.82 710.97,210.67 711.36,211.51 711.76,212.35 712.16,213.17 712.55,213.98 712.95,214.78 713.35,215.58 713.74,216.37 714.14,217.15 714.54,217.92 714.93,218.69 715.33,219.44 715.72,220.19 716.12,220.93 716.52,221.66 716.91,222.39 717.31,223.11 717.71,223.82 718.10,224.52 718.50,225.22 718.90,225.91 719.29,226.59 719.69,227.26 720.09,227.93 720.48,228.59 720.88,229.25 721.28,229.89 721.67,230.53 722.07,231.17 722.46,231.80 722.86,232.42 723.26,233.04 723.65,233.65 724.05,234.25 724.45,234.85 724.84,235.44 725.24,236.03 725.64,236.61 726.03,237.19 726.43,237.75 726.83,238.32 727.22,238.87 727.62,239.43 728.02,239.97 728.41,240.52 728.81,241.05 729.21,241.59 729.60,242.11 730.00,242.63 730.39,243.15 730.79,243.66 731.19,244.16 731.58,244.67 731.98,245.16 732.38,245.65 732.77,246.14 733.17,246.62 733.57,247.10 733.96,247.57 734.36,248.04 734.76,248.51 735.15,248.96 735.55,249.42 735.95,249.87 736.34,250.32 736.74,250.76 737.13,251.20 737.53,251.63 737.93,252.06 738.32,252.49 738.72,252.91 739.12,253.33 739.51,253.74 739.91,254.15 740.31,254.56 740.70,254.96 741.10,255.36 741.50,255.75 741.89,256.14 742.29,256.53 742.69,256.91 743.08,257.29 743.48,257.67 743.88,258.04 744.27,258.41 744.67,258.78 745.06,259.14 745.46,259.50 745.86,259.86 746.25,260.21 746.65,260.56 747.05,260.90 747.44,261.25 747.84,261.59 748.24,261.92 748.63,262.26 749.03,262.59 749.43,262.91 749.82,263.24 750.22,263.56 750.62,263.88 751.01,264.19 751.41,264.51 751.80,264.81 752.20,265.12 752.60,265.43 752.99,265.73 753.39,266.02 753.79,266.32 754.18,266.61 754.58,266.90 754.98,267.19 755.37,267.48 755.77,267.76 756.17,268.04 756.56,268.32 756.96,268.59 757.36,268.86 757.75,269.13 758.15,269.40 758.55,269.66 758.94,269.93 759.34,270.19 759.73,270.44 760.13,270.70 760.53,270.95 760.92,271.20 761.32,271.45 761.72,271.70 762.11,271.94 762.51,272.18 762.91,272.42 763.30,272.66 763.70,272.90 764.10,273.13 764.49,273.36 764.89,273.59 765.29,273.82 765.68,274.04 766.08,274.26 766.47,274.48 766.87,274.70 767.27,274.92 767.66,275.13 768.06,275.35 768.46,275.56 768.85,275.77 769.25,275.98 769.65,276.18 770.04,276.38 770.44,276.59 770.84,276.79 771.23,276.98 771.63,277.18 772.03,277.38 772.42,277.57 772.82,277.76 773.21,277.95 773.61,278.14 774.01,278.32 774.40,278.51 774.80,278.69 775.20,278.87 775.59,279.05 775.99,279.23 776.39,279.40 776.78,279.58 777.18,279.75 777.58,279.92 777.97,280.09 778.37,280.26 778.77,280.43 779.16,280.59 779.56,280.76 779.96,280.92 780.35,281.08 780.75,281.24 781.14,281.40 781.54,281.56 781.94,281.71 782.33,281.87 782.73,282.02 783.13,282.17 783.52,282.32 783.92,282.47 784.32,282.62 784.71,282.76 785.11,282.91 785.51,283.05 785.90,283.20 786.30,283.34 786.70,283.48 787.09,283.61 787.49,283.75 787.88,283.89 788.21,284.00 788.53,284.11 788.57,284.07 788.65,283.98 788.81,283.78 789.12,283.33 789.52,282.78 789.92,282.50 790.24,282.29 790.56,282.08 790.60,282.05 790.68,282.00 790.84,281.90 791.15,281.69 791.55,281.44 791.95,281.19 792.34,280.94 792.74,280.69 793.14,280.44 793.53,280.20 793.93,279.96 794.33,279.72 794.72,279.49 795.12,279.25 795.52,279.02 795.91,278.79 796.31,278.56 796.71,278.33 797.10,278.11 797.50,277.88 797.89,277.66 798.29,277.44 798.69,277.23 799.08,277.01 799.48,276.80 799.88,276.58 800.27,276.37 800.67,276.16 801.07,275.96 801.46,275.75 801.86,275.55 802.26,275.35 802.65,275.15 803.05,274.95 803.45,274.75 803.84,274.55 804.24,274.36 804.64,274.17 805.03,273.98 805.43,273.79 805.82,273.60 806.22,273.41 806.62,273.23 807.01,273.04 807.41,272.86 807.81,272.68 808.20,272.50 808.60,272.33 809.00,272.15 809.39,271.97 809.79,271.80 810.19,271.63 810.58,271.46 810.98,271.29 811.38,271.12 811.77,270.95 812.17,270.79 812.56,270.62 812.96,270.46 813.36,270.30 813.75,270.14 814.15,269.98 814.55,269.82 814.94,269.66 815.34,269.51 815.74,269.35 816.13,269.20 816.53,269.05 816.93,268.90 817.32,268.75 817.72,268.60 818.12,268.45 818.51,268.30 818.91,268.16 819.31,268.01 819.70,267.87 820.10,267.73 820.49,267.59 820.89,267.45 821.29,267.31 821.68,267.17 822.08,267.03 822.48,266.90 822.87,266.76 823.27,266.63 823.67,266.49 824.06,266.36 824.46,266.23 824.86,266.10 825.25,265.97 825.65,265.84 826.05,265.72 826.44,265.59 826.84,265.46 827.23,265.34 827.63,265.22 828.03,265.09 828.42,264.97 828.82,264.85 829.22,264.73 829.61,264.61 830.01,264.49 830.41,264.38 830.80,264.26 831.20,264.14 831.60,264.03 831.99,263.91 832.39,263.80 832.79,263.69 833.18,263.58 833.58,263.46 833.98,263.35 834.37,263.25 834.77,263.14 835.16,263.03 835.56,262.92 835.96,262.82 836.35,262.71 836.75,262.60 837.15,262.50 837.54,262.40 837.94,262.29 838.34,262.19 838.73,262.09 839.13,261.99 839.53,261.89 839.92,261.79 840.32,261.69 840.72,261.59 841.11,261.50 841.51,261.40 841.90,261.31 842.30,261.21 842.70,261.12 843.09,261.02 843.49,260.93 843.89,260.84 844.28,260.74 844.68,260.65 845.08,260.56 845.47,260.47 845.87,260.38 846.27,260.29 846.66,260.20 847.06,260.12 847.46,260.03 847.85,259.94 848.25,259.86 848.64,259.77 849.04,259.69 849.44,259.60 849.83,259.52 850.23,259.43 850.63,259.35 851.02,259.27 851.42,259.19 851.82,259.11 852.21,259.03 852.61,258.95 853.01,258.87 853.40,258.79 853.80,258.71 854.20,258.63 854.59,258.55 854.99,258.48 855.39,258.40 855.78,258.32 856.18,258.25 856.57,258.17 856.97,258.10 857.37,258.02 857.76,257.95 858.16,257.87 858.56,257.80 858.95,257.73 859.35,257.66 859.75,257.58 860.14,257.51 860.54,257.44 860.94,257.37 861.33,257.30 861.73,257.23 862.13,257.16 862.52,257.09 862.92,257.02 863.31,256.95 863.71,256.88 864.11,256.81 864.50,256.75 864.90,256.68 865.30,256.61 865.69,256.54 866.09,256.47 866.49,256.41 866.88,256.34 867.28,256.27 867.68,256.20 868.07,256.14 868.47,256.07 868.87,256.00 869.26,255.93 869.66,255.86 870.06,255.79 870.45,255.72 870.85,255.64 871.24,255.57 871.64,255.49 872.04,255.41 872.43,255.32 872.83,255.23 873.23,255.12 873.62,254.97 874.02,254.71 874.42,253.16 874.81,244.00 875.21,237.37 875.61,233.40 876.00,228.02 876.40,223.88 876.80,217.87 877.19,212.56 877.59,207.14 877.98,202.32 878.38,197.41 878.78,192.87 879.17,188.27 879.57,183.93 879.97,179.55 880.36,175.39 880.76,171.20 881.16,167.20 881.55,163.17 881.95,159.32 882.35,155.45 882.74,151.74 883.14,148.02 883.54,144.45 883.93,140.86 884.33,137.43 884.73,134.36 885.12,133.04 885.52,132.15 885.91,131.55 886.31,131.04 886.71,130.68 887.10,130.39 887.50,130.19 887.75,130.07" fill="none" stroke="#1665d8" stroke-width="3" stroke-linejoin="round"/>
<polyline points="76.00,357.00 76.04,353.13 76.12,345.40 76.28,329.93 76.59,298.99 76.99,260.32 77.39,221.65 77.71,190.32 78.03,159.00 78.05,159.00 78.09,159.00 78.13,159.00 78.17,159.00 78.21,159.00 78.29,159.00 78.40,159.00 78.61,159.00 79.01,159.00 79.40,159.00 79.80,159.00 80.20,159.00 80.59,159.00 80.99,159.00 81.39,159.00 81.78,159.00 82.18,159.00 82.58,159.00 82.97,159.00 83.37,159.00 83.76,159.00 84.16,159.00 84.56,159.00 84.95,159.00 85.35,159.00 85.75,159.00 86.14,159.00 86.54,159.00 86.94,159.00 87.33,159.00 87.73,159.00 88.13,159.00 88.52,159.00 88.92,159.00 89.32,159.00 89.71,159.00 90.11,159.00 90.50,159.00 90.90,159.00 91.30,159.00 91.69,159.00 92.09,159.00 92.49,159.00 92.88,159.00 93.28,159.00 93.68,159.00 94.07,159.00 94.47,159.00 94.87,159.00 95.26,159.00 95.66,159.00 96.06,159.00 96.45,159.00 96.85,159.00 97.25,159.00 97.64,159.00 98.04,159.00 98.43,159.00 98.83,159.00 99.23,159.00 99.62,159.00 100.02,159.00 100.42,159.00 100.81,159.00 101.21,159.00 101.61,159.00 102.00,159.00 102.40,159.00 102.80,159.00 103.19,159.00 103.59,159.00 103.99,159.00 104.38,159.00 104.78,159.00 105.17,159.00 105.57,159.00 105.97,159.00 106.36,159.00 106.76,159.00 107.16,159.00 107.55,159.00 107.95,159.00 108.35,159.00 108.74,159.00 109.14,159.00 109.54,159.00 109.93,159.00 110.33,159.00 110.73,159.00 111.12,159.00 111.52,159.00 111.92,159.00 112.31,159.00 112.71,159.00 113.10,159.00 113.50,159.00 113.90,159.00 114.29,159.00 114.69,159.00 115.09,159.00 115.48,159.00 115.88,159.00 116.28,159.00 116.67,159.00 117.07,159.00 117.47,159.00 117.86,159.00 118.26,159.00 118.66,159.00 119.05,159.00 119.45,159.00 119.84,159.00 120.24,159.00 120.64,159.00 121.03,159.00 121.43,159.00 121.83,159.00 122.22,159.00 122.62,159.00 123.02,159.00 123.41,159.00 123.81,159.00 124.21,159.00 124.60,159.00 125.00,159.00 125.40,159.00 125.79,159.00 126.19,159.00 126.59,159.00 126.98,159.00 127.38,159.00 127.77,159.00 128.17,159.00 128.57,159.00 128.96,159.00 129.36,159.00 129.76,159.00 130.15,159.00 130.55,159.00 130.95,159.00 131.34,159.00 131.74,159.00 132.14,159.00 132.53,159.00 132.93,159.00 133.33,159.00 133.72,159.00 134.12,159.00 134.51,159.00 134.91,159.00 135.31,159.00 135.70,159.00 136.10,159.00 136.50,159.00 136.89,159.00 137.29,159.00 137.69,159.00 138.08,159.00 138.48,159.00 138.88,159.00 139.27,159.00 139.67,159.00 140.07,159.00 140.46,159.00 140.86,159.00 141.25,159.00 141.65,159.00 142.05,159.00 142.44,159.00 142.84,159.00 143.24,159.00 143.63,159.00 144.03,159.00 144.43,159.00 144.82,159.00 145.22,159.00 145.62,159.00 146.01,159.00 146.41,159.00 146.81,159.00 147.20,159.00 147.60,159.00 148.00,159.00 148.39,159.00 148.79,159.00 149.18,159.00 149.58,159.00 149.98,159.00 150.37,159.00 150.77,159.00 151.17,159.00 151.56,159.00 151.96,159.00 152.36,159.00 152.75,159.00 153.15,159.00 153.55,159.00 153.94,159.00 154.34,159.00 154.74,159.00 155.13,159.00 155.53,159.00 155.92,159.00 156.32,159.00 156.72,159.00 157.11,159.00 157.51,159.00 157.91,159.00 158.30,159.00 158.70,159.00 159.10,159.00 159.49,159.00 159.89,159.00 160.29,159.00 160.68,159.00 161.08,159.00 161.48,159.00 161.87,159.00 162.27,159.00 162.67,159.00 163.06,159.00 163.46,159.00 163.85,159.00 164.25,159.00 164.65,159.00 165.04,159.00 165.44,159.00 165.84,159.00 166.23,159.00 166.63,159.00 167.03,159.00 167.42,159.00 167.82,159.00 168.22,159.00 168.61,159.00 169.01,159.00 169.41,159.00 169.80,159.00 170.20,159.00 170.59,159.00 170.99,159.00 171.39,159.00 171.78,159.00 172.18,159.00 172.58,159.00 172.97,159.00 173.37,159.00 173.77,159.00 174.16,159.00 174.56,159.00 174.96,159.00 175.35,159.00 175.75,159.00 176.15,159.00 176.54,159.00 176.94,159.00 177.34,159.00 177.73,159.00 178.13,159.00 178.52,159.00 178.92,159.00 179.23,159.00 179.53,159.00 179.57,162.87 179.65,170.60 179.81,186.07 180.12,217.01 180.52,255.68 180.92,294.35 181.24,325.68 181.56,357.00 181.60,357.00 181.68,357.00 181.84,357.00 182.15,357.00 182.55,357.00 182.95,357.00 183.34,357.00 183.74,357.00 184.14,357.00 184.53,357.00 184.93,357.00 185.33,357.00 185.72,357.00 186.12,357.00 186.52,357.00 186.91,357.00 187.31,357.00 187.71,357.00 188.10,357.00 188.50,357.00 188.89,357.00 189.29,357.00 189.69,357.00 190.08,357.00 190.48,357.00 190.88,357.00 191.27,357.00 191.67,357.00 192.07,357.00 192.46,357.00 192.86,357.00 193.26,357.00 193.65,357.00 194.05,357.00 194.45,357.00 194.84,357.00 195.24,357.00 195.64,357.00 196.03,357.00 196.43,357.00 196.82,357.00 197.22,357.00 197.62,357.00 198.01,357.00 198.41,357.00 198.81,357.00 199.20,357.00 199.60,357.00 200.00,357.00 200.39,357.00 200.79,357.00 201.19,357.00 201.58,357.00 201.98,357.00 202.38,357.00 202.77,357.00 203.17,357.00 203.56,357.00 203.96,357.00 204.36,357.00 204.75,357.00 205.15,357.00 205.55,357.00 205.94,357.00 206.34,357.00 206.74,357.00 207.13,357.00 207.53,357.00 207.93,357.00 208.32,357.00 208.72,357.00 209.12,357.00 209.51,357.00 209.91,357.00 210.31,357.00 210.70,357.00 211.10,357.00 211.49,357.00 211.89,357.00 212.29,357.00 212.68,357.00 213.08,357.00 213.48,357.00 213.87,357.00 214.27,357.00 214.67,357.00 215.06,357.00 215.46,357.00 215.86,357.00 216.25,357.00 216.65,357.00 217.05,357.00 217.44,357.00 217.84,357.00 218.23,357.00 218.63,357.00 219.03,357.00 219.42,357.00 219.82,357.00 220.22,357.00 220.61,357.00 221.01,357.00 221.41,357.00 221.80,357.00 222.20,357.00 222.60,357.00 222.99,357.00 223.39,357.00 223.79,357.00 224.18,357.00 224.58,357.00 224.98,357.00 225.37,357.00 225.77,357.00 226.16,357.00 226.56,357.00 226.96,357.00 227.35,357.00 227.75,357.00 228.15,357.00 228.54,357.00 228.94,357.00 229.34,357.00 229.73,357.00 230.13,357.00 230.53,357.00 230.92,357.00 231.32,357.00 231.72,357.00 232.11,357.00 232.51,357.00 232.90,357.00 233.30,357.00 233.70,357.00 234.09,357.00 234.49,357.00 234.89,357.00 235.28,357.00 235.68,357.00 236.08,357.00 236.47,357.00 236.87,357.00 237.27,357.00 237.66,357.00 238.06,357.00 238.46,357.00 238.85,357.00 239.25,357.00 239.64,357.00 240.04,357.00 240.44,357.00 240.83,357.00 241.23,357.00 241.63,357.00 242.02,357.00 242.42,357.00 242.82,357.00 243.21,357.00 243.61,357.00 244.01,357.00 244.40,357.00 244.80,357.00 245.20,357.00 245.59,357.00 245.99,357.00 246.39,357.00 246.78,357.00 247.18,357.00 247.57,357.00 247.97,357.00 248.37,357.00 248.76,357.00 249.16,357.00 249.56,357.00 249.95,357.00 250.35,357.00 250.75,357.00 251.14,357.00 251.54,357.00 251.94,357.00 252.33,357.00 252.73,357.00 253.13,357.00 253.52,357.00 253.92,357.00 254.31,357.00 254.71,357.00 255.11,357.00 255.50,357.00 255.90,357.00 256.30,357.00 256.69,357.00 257.09,357.00 257.49,357.00 257.88,357.00 258.28,357.00 258.68,357.00 259.07,357.00 259.47,357.00 259.87,357.00 260.26,357.00 260.66,357.00 261.06,357.00 261.45,357.00 261.85,357.00 262.24,357.00 262.64,357.00 263.04,357.00 263.43,357.00 263.83,357.00 264.23,357.00 264.62,357.00 265.02,357.00 265.42,357.00 265.81,357.00 266.21,357.00 266.61,357.00 267.00,357.00 267.40,357.00 267.80,357.00 268.19,357.00 268.59,357.00 268.98,357.00 269.38,357.00 269.78,357.00 270.17,357.00 270.57,357.00 270.97,357.00 271.36,357.00 271.76,357.00 272.16,357.00 272.55,357.00 272.95,357.00 273.35,357.00 273.74,357.00 274.14,357.00 274.54,357.00 274.93,357.00 275.33,357.00 275.73,357.00 276.12,357.00 276.52,357.00 276.91,357.00 277.31,357.00 277.71,357.00 278.10,357.00 278.50,357.00 278.75,357.00 279.00,357.00 279.04,353.13 279.12,345.40 279.28,329.93 279.57,301.57 279.96,262.90 280.36,224.23 280.70,191.61 281.03,159.00 281.05,159.00 281.09,159.00 281.13,159.00 281.16,159.00 281.20,159.00 281.28,159.00 281.38,159.00 281.58,159.00 281.94,159.00 282.33,159.00 282.73,159.00 283.13,159.00 283.52,159.00 283.92,159.00 284.31,159.00 284.71,159.00 285.11,159.00 285.50,159.00 285.90,159.00 286.30,159.00 286.69,159.00 287.09,159.00 287.49,159.00 287.88,159.00 288.28,159.00 288.68,159.00 289.07,159.00 289.47,159.00 289.87,159.00 290.26,159.00 290.66,159.00 291.06,159.00 291.45,159.00 291.85,159.00 292.24,159.00 292.64,159.00 293.04,159.00 293.43,159.00 293.83,159.00 294.23,159.00 294.62,159.00 295.02,159.00 295.42,159.00 295.81,159.00 296.21,159.00 296.61,159.00 297.00,159.00 297.40,159.00 297.80,159.00 298.19,159.00 298.59,159.00 298.98,159.00 299.38,159.00 299.78,159.00 300.17,159.00 300.57,159.00 300.97,159.00 301.36,159.00 301.76,159.00 302.16,159.00 302.55,159.00 302.95,159.00 303.35,159.00 303.74,159.00 304.14,159.00 304.54,159.00 304.93,159.00 305.33,159.00 305.73,159.00 306.12,159.00 306.52,159.00 306.91,159.00 307.31,159.00 307.71,159.00 308.10,159.00 308.50,159.00 308.90,159.00 309.29,159.00 309.69,159.00 310.09,159.00 310.48,159.00 310.88,159.00 311.28,159.00 311.67,159.00 312.07,159.00 312.47,159.00 312.86,159.00 313.26,159.00 313.65,159.00 314.05,159.00 314.45,159.00 314.84,159.00 315.24,159.00 315.64,159.00 316.03,159.00 316.43,159.00 316.83,159.00 317.22,159.00 317.62,159.00 318.02,159.00 318.41,159.00 318.81,159.00 319.21,159.00 319.60,159.00 320.00,159.00 320.40,159.00 320.79,159.00 321.19,159.00 321.58,159.00 321.98,159.00 322.38,159.00 322.77,159.00 323.17,159.00 323.57,159.00 323.96,159.00 324.36,159.00 324.76,159.00 325.15,159.00 325.55,159.00 325.95,159.00 326.34,159.00 326.74,159.00 327.14,159.00 327.53,159.00 327.93,159.00 328.32,159.00 328.72,159.00 329.12,159.00 329.51,159.00 329.91,159.00 330.31,159.00 330.70,159.00 331.10,159.00 331.50,159.00 331.89,159.00 332.29,159.00 332.69,159.00 333.08,159.00 333.48,159.00 333.88,159.00 334.27,159.00 334.67,159.00 335.06,159.00 335.46,159.00 335.86,159.00 336.25,159.00 336.65,159.00 337.05,159.00 337.44,159.00 337.84,159.00 338.24,159.00 338.63,159.00 339.03,159.00 339.43,159.00 339.82,159.00 340.22,159.00 340.62,159.00 341.01,159.00 341.41,159.00 341.81,159.00 342.20,159.00 342.60,159.00 342.99,159.00 343.39,159.00 343.79,159.00 344.18,159.00 344.58,159.00 344.98,159.00 345.37,159.00 345.77,159.00 346.17,159.00 346.56,159.00 346.96,159.00 347.36,159.00 347.75,159.00 348.15,159.00 348.55,159.00 348.94,159.00 349.34,159.00 349.73,159.00 350.13,159.00 350.53,159.00 350.92,159.00 351.32,159.00 351.72,159.00 352.11,159.00 352.51,159.00 352.91,159.00 353.30,159.00 353.70,159.00 354.10,159.00 354.49,159.00 354.89,159.00 355.29,159.00 355.68,159.00 356.08,159.00 356.48,159.00 356.87,159.00 357.27,159.00 357.66,159.00 358.06,159.00 358.46,159.00 358.85,159.00 359.25,159.00 359.65,159.00 360.04,159.00 360.44,159.00 360.84,159.00 361.23,159.00 361.63,159.00 362.03,159.00 362.42,159.00 362.82,159.00 363.22,159.00 363.61,159.00 364.01,159.00 364.40,159.00 364.80,159.00 365.20,159.00 365.59,159.00 365.99,159.00 366.39,159.00 366.78,159.00 367.18,159.00 367.58,159.00 367.97,159.00 368.37,159.00 368.77,159.00 369.16,159.00 369.56,159.00 369.96,159.00 370.35,159.00 370.75,159.00 371.15,159.00 371.54,159.00 371.94,159.00 372.33,159.00 372.73,159.00 373.13,159.00 373.52,159.00 373.92,159.00 374.32,159.00 374.71,159.00 375.11,159.00 375.51,159.00 375.90,159.00 376.30,159.00 376.70,159.00 377.09,159.00 377.49,159.00 377.89,159.00 378.28,159.00 378.68,159.00 379.07,159.00 379.47,159.00 379.87,159.00 380.26,159.00 380.66,159.00 381.06,159.00 381.45,159.00 381.85,159.00 382.19,159.00 382.53,159.00 382.57,162.87 382.65,170.60 382.81,186.07 383.12,217.01 383.52,255.68 383.92,294.35 384.24,325.68 384.56,357.00 384.60,357.00 384.68,357.00 384.84,357.00 385.15,357.00 385.55,357.00 385.95,357.00 386.34,357.00 386.74,357.00 387.14,357.00 387.53,357.00 387.93,357.00 388.33,357.00 388.72,357.00 389.12,357.00 389.52,357.00 389.91,357.00 390.31,357.00 390.71,357.00 391.10,357.00 391.50,357.00 391.89,357.00 392.29,357.00 392.69,357.00 393.08,357.00 393.48,357.00 393.88,357.00 394.27,357.00 394.67,357.00 395.07,357.00 395.46,357.00 395.86,357.00 396.26,357.00 396.65,357.00 397.05,357.00 397.45,357.00 397.84,357.00 398.24,357.00 398.64,357.00 399.03,357.00 399.43,357.00 399.82,357.00 400.22,357.00 400.62,357.00 401.01,357.00 401.41,357.00 401.81,357.00 402.20,357.00 402.60,357.00 403.00,357.00 403.39,357.00 403.79,357.00 404.19,357.00 404.58,357.00 404.98,357.00 405.38,357.00 405.77,357.00 406.17,357.00 406.56,357.00 406.96,357.00 407.36,357.00 407.75,357.00 408.15,357.00 408.55,357.00 408.94,357.00 409.34,357.00 409.74,357.00 410.13,357.00 410.53,357.00 410.93,357.00 411.32,357.00 411.72,357.00 412.12,357.00 412.51,357.00 412.91,357.00 413.31,357.00 413.70,357.00 414.10,357.00 414.49,357.00 414.89,357.00 415.29,357.00 415.68,357.00 416.08,357.00 416.48,357.00 416.87,357.00 417.27,357.00 417.67,357.00 418.06,357.00 418.46,357.00 418.86,357.00 419.25,357.00 419.65,357.00 420.05,357.00 420.44,357.00 420.84,357.00 421.23,357.00 421.63,357.00 422.03,357.00 422.42,357.00 422.82,357.00 423.22,357.00 423.61,357.00 424.01,357.00 424.41,357.00 424.80,357.00 425.20,357.00 425.60,357.00 425.99,357.00 426.39,357.00 426.79,357.00 427.18,357.00 427.58,357.00 427.98,357.00 428.37,357.00 428.77,357.00 429.16,357.00 429.56,357.00 429.96,357.00 430.35,357.00 430.75,357.00 431.15,357.00 431.54,357.00 431.94,357.00 432.34,357.00 432.73,357.00 433.13,357.00 433.53,357.00 433.92,357.00 434.32,357.00 434.72,357.00 435.11,357.00 435.51,357.00 435.90,357.00 436.30,357.00 436.70,357.00 437.09,357.00 437.49,357.00 437.89,357.00 438.28,357.00 438.68,357.00 439.08,357.00 439.47,357.00 439.87,357.00 440.27,357.00 440.66,357.00 441.06,357.00 441.46,357.00 441.85,357.00 442.25,357.00 442.64,357.00 443.04,357.00 443.44,357.00 443.83,357.00 444.23,357.00 444.63,357.00 445.02,357.00 445.42,357.00 445.82,357.00 446.21,357.00 446.61,357.00 447.01,357.00 447.40,357.00 447.80,357.00 448.20,357.00 448.59,357.00 448.99,357.00 449.39,357.00 449.78,357.00 450.18,357.00 450.57,357.00 450.97,357.00 451.37,357.00 451.76,357.00 452.16,357.00 452.56,357.00 452.95,357.00 453.35,357.00 453.75,357.00 454.14,357.00 454.54,357.00 454.94,357.00 455.33,357.00 455.73,357.00 456.13,357.00 456.52,357.00 456.92,357.00 457.31,357.00 457.71,357.00 458.11,357.00 458.50,357.00 458.90,357.00 459.30,357.00 459.69,357.00 460.09,357.00 460.49,357.00 460.88,357.00 461.28,357.00 461.68,357.00 462.07,357.00 462.47,357.00 462.87,357.00 463.26,357.00 463.66,357.00 464.06,357.00 464.45,357.00 464.85,357.00 465.24,357.00 465.64,357.00 466.04,357.00 466.43,357.00 466.83,357.00 467.23,357.00 467.62,357.00 468.02,357.00 468.42,357.00 468.81,357.00 469.21,357.00 469.61,357.00 470.00,357.00 470.40,357.00 470.80,357.00 471.19,357.00 471.59,357.00 471.98,357.00 472.38,357.00 472.78,357.00 473.17,357.00 473.57,357.00 473.97,357.00 474.36,357.00 474.76,357.00 475.16,357.00 475.55,357.00 475.95,357.00 476.35,357.00 476.74,357.00 477.14,357.00 477.54,357.00 477.93,357.00 478.33,357.00 478.73,357.00 479.12,357.00 479.52,357.00 479.91,357.00 480.31,357.00 480.71,357.00 481.10,357.00 481.50,357.00 481.75,357.00 482.00,357.00 482.04,353.13 482.12,345.40 482.28,329.93 482.59,298.99 482.99,260.32 483.39,221.65 483.71,190.32 484.03,159.00 484.05,159.00 484.09,159.00 484.13,159.00 484.17,159.00 484.21,159.00 484.28,159.00 484.39,159.00 484.60,159.00 484.98,159.00 485.38,159.00 485.78,159.00 486.17,159.00 486.57,159.00 486.97,159.00 487.36,159.00 487.76,159.00 488.16,159.00 488.55,159.00 488.95,159.00 489.34,159.00 489.74,159.00 490.14,159.00 490.53,159.00 490.93,159.00 491.33,159.00 491.72,159.00 492.12,159.00 492.52,159.00 492.91,159.00 493.31,159.00 493.71,159.00 494.10,159.00 494.50,159.00 494.90,159.00 495.29,159.00 495.69,159.00 496.09,159.00 496.48,159.00 496.88,159.00 497.27,159.00 497.67,159.00 498.07,159.00 498.46,159.00 498.86,159.00 499.26,159.00 499.65,159.00 500.05,159.00 500.45,159.00 500.84,159.00 501.24,159.00 501.64,159.00 502.03,159.00 502.43,159.00 502.83,159.00 503.22,159.00 503.62,159.00 504.01,159.00 504.41,159.00 504.81,159.00 505.20,159.00 505.60,159.00 506.00,159.00 506.39,159.00 506.79,159.00 507.19,159.00 507.58,159.00 507.98,159.00 508.38,159.00 508.77,159.00 509.17,159.00 509.57,159.00 509.96,159.00 510.36,159.00 510.76,159.00 511.15,159.00 511.55,159.00 511.94,159.00 512.34,159.00 512.74,159.00 513.13,159.00 513.53,159.00 513.93,159.00 514.32,159.00 514.72,159.00 515.12,159.00 515.51,159.00 515.91,159.00 516.31,159.00 516.70,159.00 517.10,159.00 517.50,159.00 517.89,159.00 518.29,159.00 518.68,159.00 519.08,159.00 519.48,159.00 519.87,159.00 520.27,159.00 520.67,159.00 521.06,159.00 521.46,159.00 521.86,159.00 522.25,159.00 522.65,159.00 523.05,159.00 523.44,159.00 523.84,159.00 524.24,159.00 524.63,159.00 525.03,159.00 525.42,159.00 525.82,159.00 526.22,159.00 526.61,159.00 527.01,159.00 527.41,159.00 527.80,159.00 528.20,159.00 528.60,159.00 528.99,159.00 529.39,159.00 529.79,159.00 530.18,159.00 530.58,159.00 530.98,159.00 531.37,159.00 531.77,159.00 532.17,159.00 532.56,159.00 532.96,159.00 533.35,159.00 533.75,159.00 534.15,159.00 534.54,159.00 534.94,159.00 535.34,159.00 535.73,159.00 536.13,159.00 536.53,159.00 536.92,159.00 537.32,159.00 537.72,159.00 538.11,159.00 538.51,159.00 538.91,159.00 539.30,159.00 539.70,159.00 540.09,159.00 540.49,159.00 540.89,159.00 541.28,159.00 541.68,159.00 542.08,159.00 542.47,159.00 542.87,159.00 543.27,159.00 543.66,159.00 544.06,159.00 544.46,159.00 544.85,159.00 545.25,159.00 545.65,159.00 546.04,159.00 546.44,159.00 546.84,159.00 547.23,159.00 547.63,159.00 548.02,159.00 548.42,159.00 548.82,159.00 549.21,159.00 549.61,159.00 550.01,159.00 550.40,159.00 550.80,159.00 551.20,159.00 551.59,159.00 551.99,159.00 552.39,159.00 552.78,159.00 553.18,159.00 553.58,159.00 553.97,159.00 554.37,159.00 554.76,159.00 555.16,159.00 555.56,159.00 555.95,159.00 556.35,159.00 556.75,159.00 557.14,159.00 557.54,159.00 557.94,159.00 558.33,159.00 558.73,159.00 559.13,159.00 559.52,159.00 559.92,159.00 560.32,159.00 560.71,159.00 561.11,159.00 561.51,159.00 561.90,159.00 562.30,159.00 562.69,159.00 563.09,159.00 563.49,159.00 563.88,159.00 564.28,159.00 564.68,159.00 565.07,159.00 565.47,159.00 565.87,159.00 566.26,159.00 566.66,159.00 567.06,159.00 567.45,159.00 567.85,159.00 568.25,159.00 568.64,159.00 569.04,159.00 569.43,159.00 569.83,159.00 570.23,159.00 570.62,159.00 571.02,159.00 571.42,159.00 571.81,159.00 572.21,159.00 572.61,159.00 573.00,159.00 573.40,159.00 573.80,159.00 574.19,159.00 574.59,159.00 574.99,159.00 575.38,159.00 575.78,159.00 576.17,159.00 576.57,159.00 576.97,159.00 577.36,159.00 577.76,159.00 578.16,159.00 578.55,159.00 578.95,159.00 579.35,159.00 579.74,159.00 580.14,159.00 580.54,159.00 580.93,159.00 581.33,159.00 581.73,159.00 582.12,159.00 582.52,159.00 582.92,159.00 583.31,159.00 583.71,159.00 584.10,159.00 584.50,159.00 584.90,159.00 585.21,159.00 585.53,159.00 585.57,162.87 585.65,170.60 585.81,186.07 586.12,217.01 586.52,255.68 586.92,294.35 587.24,325.68 587.56,357.00 587.60,357.00 587.68,357.00 587.84,357.00 588.15,357.00 588.55,357.00 588.95,357.00 589.34,357.00 589.74,357.00 590.14,357.00 590.53,357.00 590.93,357.00 591.33,357.00 591.72,357.00 592.12,357.00 592.52,357.00 592.91,357.00 593.31,357.00 593.71,357.00 594.10,357.00 594.50,357.00 594.89,357.00 595.29,357.00 595.69,357.00 596.08,357.00 596.48,357.00 596.88,357.00 597.27,357.00 597.67,357.00 598.07,357.00 598.46,357.00 598.86,357.00 599.26,357.00 599.65,357.00 600.05,357.00 600.45,357.00 600.84,357.00 601.24,357.00 601.64,357.00 602.03,357.00 602.43,357.00 602.82,357.00 603.22,357.00 603.62,357.00 604.01,357.00 604.41,357.00 604.81,357.00 605.20,357.00 605.60,357.00 606.00,357.00 606.39,357.00 606.79,357.00 607.19,357.00 607.58,357.00 607.98,357.00 608.38,357.00 608.77,357.00 609.17,357.00 609.56,357.00 609.96,357.00 610.36,357.00 610.75,357.00 611.15,357.00 611.55,357.00 611.94,357.00 612.34,357.00 612.74,357.00 613.13,357.00 613.53,357.00 613.93,357.00 614.32,357.00 614.72,357.00 615.12,357.00 615.51,357.00 615.91,357.00 616.31,357.00 616.70,357.00 617.10,357.00 617.49,357.00 617.89,357.00 618.29,357.00 618.68,357.00 619.08,357.00 619.48,357.00 619.87,357.00 620.27,357.00 620.67,357.00 621.06,357.00 621.46,357.00 621.86,357.00 622.25,357.00 622.65,357.00 623.05,357.00 623.44,357.00 623.84,357.00 624.23,357.00 624.63,357.00 625.03,357.00 625.42,357.00 625.82,357.00 626.22,357.00 626.61,357.00 627.01,357.00 627.41,357.00 627.80,357.00 628.20,357.00 628.60,357.00 628.99,357.00 629.39,357.00 629.79,357.00 630.18,357.00 630.58,357.00 630.98,357.00 631.37,357.00 631.77,357.00 632.16,357.00 632.56,357.00 632.96,357.00 633.35,357.00 633.75,357.00 634.15,357.00 634.54,357.00 634.94,357.00 635.34,357.00 635.73,357.00 636.13,357.00 636.53,357.00 636.92,357.00 637.32,357.00 637.72,357.00 638.11,357.00 638.51,357.00 638.90,357.00 639.30,357.00 639.70,357.00 640.09,357.00 640.49,357.00 640.89,357.00 641.28,357.00 641.68,357.00 642.08,357.00 642.47,357.00 642.87,357.00 643.27,357.00 643.66,357.00 644.06,357.00 644.46,357.00 644.85,357.00 645.25,357.00 645.64,357.00 646.04,357.00 646.44,357.00 646.83,357.00 647.23,357.00 647.63,357.00 648.02,357.00 648.42,357.00 648.82,357.00 649.21,357.00 649.61,357.00 650.01,357.00 650.40,357.00 650.80,357.00 651.20,357.00 651.59,357.00 651.99,357.00 652.39,357.00 652.78,357.00 653.18,357.00 653.57,357.00 653.97,357.00 654.37,357.00 654.76,357.00 655.16,357.00 655.56,357.00 655.95,357.00 656.35,357.00 656.75,357.00 657.14,357.00 657.54,357.00 657.94,357.00 658.33,357.00 658.73,357.00 659.13,357.00 659.52,357.00 659.92,357.00 660.31,357.00 660.71,357.00 661.11,357.00 661.50,357.00 661.90,357.00 662.30,357.00 662.69,357.00 663.09,357.00 663.49,357.00 663.88,357.00 664.28,357.00 664.68,357.00 665.07,357.00 665.47,357.00 665.87,357.00 666.26,357.00 666.66,357.00 667.06,357.00 667.45,357.00 667.85,357.00 668.24,357.00 668.64,357.00 669.04,357.00 669.43,357.00 669.83,357.00 670.23,357.00 670.62,357.00 671.02,357.00 671.42,357.00 671.81,357.00 672.21,357.00 672.61,357.00 673.00,357.00 673.40,357.00 673.80,357.00 674.19,357.00 674.59,357.00 674.98,357.00 675.38,357.00 675.78,357.00 676.17,357.00 676.57,357.00 676.97,357.00 677.36,357.00 677.76,357.00 678.16,357.00 678.55,357.00 678.95,357.00 679.35,357.00 679.74,357.00 680.14,357.00 680.54,357.00 680.93,357.00 681.33,357.00 681.73,357.00 682.12,357.00 682.52,357.00 682.91,357.00 683.31,357.00 683.71,357.00 684.10,357.00 684.50,357.00 684.75,357.00 685.00,357.00 685.04,353.13 685.12,345.40 685.28,329.93 685.59,298.99 685.99,260.32 686.39,221.65 686.71,190.32 687.03,159.00 687.05,159.00 687.09,159.00 687.13,159.00 687.17,159.00 687.20,159.00 687.28,159.00 687.39,159.00 687.59,159.00 687.97,159.00 688.37,159.00 688.76,159.00 689.16,159.00 689.56,159.00 689.95,159.00 690.35,159.00 690.75,159.00 691.14,159.00 691.54,159.00 691.94,159.00 692.33,159.00 692.73,159.00 693.13,159.00 693.52,159.00 693.92,159.00 694.31,159.00 694.71,159.00 695.11,159.00 695.50,159.00 695.90,159.00 696.30,159.00 696.69,159.00 697.09,159.00 697.49,159.00 697.88,159.00 698.28,159.00 698.68,159.00 699.07,159.00 699.47,159.00 699.87,159.00 700.26,159.00 700.66,159.00 701.05,159.00 701.45,159.00 701.85,159.00 702.24,159.00 702.64,159.00 703.04,159.00 703.43,159.00 703.83,159.00 704.23,159.00 704.62,159.00 705.02,159.00 705.42,159.00 705.81,159.00 706.21,159.00 706.61,159.00 707.00,159.00 707.40,159.00 707.80,159.00 708.19,159.00 708.59,159.00 708.98,159.00 709.38,159.00 709.78,159.00 710.17,159.00 710.57,159.00 710.97,159.00 711.36,159.00 711.76,159.00 712.16,159.00 712.55,159.00 712.95,159.00 713.35,159.00 713.74,159.00 714.14,159.00 714.54,159.00 714.93,159.00 715.33,159.00 715.72,159.00 716.12,159.00 716.52,159.00 716.91,159.00 717.31,159.00 717.71,159.00 718.10,159.00 718.50,159.00 718.90,159.00 719.29,159.00 719.69,159.00 720.09,159.00 720.48,159.00 720.88,159.00 721.28,159.00 721.67,159.00 722.07,159.00 722.46,159.00 722.86,159.00 723.26,159.00 723.65,159.00 724.05,159.00 724.45,159.00 724.84,159.00 725.24,159.00 725.64,159.00 726.03,159.00 726.43,159.00 726.83,159.00 727.22,159.00 727.62,159.00 728.02,159.00 728.41,159.00 728.81,159.00 729.21,159.00 729.60,159.00 730.00,159.00 730.39,159.00 730.79,159.00 731.19,159.00 731.58,159.00 731.98,159.00 732.38,159.00 732.77,159.00 733.17,159.00 733.57,159.00 733.96,159.00 734.36,159.00 734.76,159.00 735.15,159.00 735.55,159.00 735.95,159.00 736.34,159.00 736.74,159.00 737.13,159.00 737.53,159.00 737.93,159.00 738.32,159.00 738.72,159.00 739.12,159.00 739.51,159.00 739.91,159.00 740.31,159.00 740.70,159.00 741.10,159.00 741.50,159.00 741.89,159.00 742.29,159.00 742.69,159.00 743.08,159.00 743.48,159.00 743.88,159.00 744.27,159.00 744.67,159.00 745.06,159.00 745.46,159.00 745.86,159.00 746.25,159.00 746.65,159.00 747.05,159.00 747.44,159.00 747.84,159.00 748.24,159.00 748.63,159.00 749.03,159.00 749.43,159.00 749.82,159.00 750.22,159.00 750.62,159.00 751.01,159.00 751.41,159.00 751.80,159.00 752.20,159.00 752.60,159.00 752.99,159.00 753.39,159.00 753.79,159.00 754.18,159.00 754.58,159.00 754.98,159.00 755.37,159.00 755.77,159.00 756.17,159.00 756.56,159.00 756.96,159.00 757.36,159.00 757.75,159.00 758.15,159.00 758.55,159.00 758.94,159.00 759.34,159.00 759.73,159.00 760.13,159.00 760.53,159.00 760.92,159.00 761.32,159.00 761.72,159.00 762.11,159.00 762.51,159.00 762.91,159.00 763.30,159.00 763.70,159.00 764.10,159.00 764.49,159.00 764.89,159.00 765.29,159.00 765.68,159.00 766.08,159.00 766.47,159.00 766.87,159.00 767.27,159.00 767.66,159.00 768.06,159.00 768.46,159.00 768.85,159.00 769.25,159.00 769.65,159.00 770.04,159.00 770.44,159.00 770.84,159.00 771.23,159.00 771.63,159.00 772.03,159.00 772.42,159.00 772.82,159.00 773.21,159.00 773.61,159.00 774.01,159.00 774.40,159.00 774.80,159.00 775.20,159.00 775.59,159.00 775.99,159.00 776.39,159.00 776.78,159.00 777.18,159.00 777.58,159.00 777.97,159.00 778.37,159.00 778.77,159.00 779.16,159.00 779.56,159.00 779.96,159.00 780.35,159.00 780.75,159.00 781.14,159.00 781.54,159.00 781.94,159.00 782.33,159.00 782.73,159.00 783.13,159.00 783.52,159.00 783.92,159.00 784.32,159.00 784.71,159.00 785.11,159.00 785.51,159.00 785.90,159.00 786.30,159.00 786.70,159.00 787.09,159.00 787.49,159.00 787.88,159.00 788.21,159.00 788.53,159.00 788.57,162.87 788.65,170.60 788.81,186.07 789.12,217.01 789.52,255.68 789.92,294.35 790.24,325.68 790.56,357.00 790.60,357.00 790.68,357.00 790.84,357.00 791.15,357.00 791.55,357.00 791.95,357.00 792.34,357.00 792.74,357.00 793.14,357.00 793.53,357.00 793.93,357.00 794.33,357.00 794.72,357.00 795.12,357.00 795.52,357.00 795.91,357.00 796.31,357.00 796.71,357.00 797.10,357.00 797.50,357.00 797.89,357.00 798.29,357.00 798.69,357.00 799.08,357.00 799.48,357.00 799.88,357.00 800.27,357.00 800.67,357.00 801.07,357.00 801.46,357.00 801.86,357.00 802.26,357.00 802.65,357.00 803.05,357.00 803.45,357.00 803.84,357.00 804.24,357.00 804.64,357.00 805.03,357.00 805.43,357.00 805.82,357.00 806.22,357.00 806.62,357.00 807.01,357.00 807.41,357.00 807.81,357.00 808.20,357.00 808.60,357.00 809.00,357.00 809.39,357.00 809.79,357.00 810.19,357.00 810.58,357.00 810.98,357.00 811.38,357.00 811.77,357.00 812.17,357.00 812.56,357.00 812.96,357.00 813.36,357.00 813.75,357.00 814.15,357.00 814.55,357.00 814.94,357.00 815.34,357.00 815.74,357.00 816.13,357.00 816.53,357.00 816.93,357.00 817.32,357.00 817.72,357.00 818.12,357.00 818.51,357.00 818.91,357.00 819.31,357.00 819.70,357.00 820.10,357.00 820.49,357.00 820.89,357.00 821.29,357.00 821.68,357.00 822.08,357.00 822.48,357.00 822.87,357.00 823.27,357.00 823.67,357.00 824.06,357.00 824.46,357.00 824.86,357.00 825.25,357.00 825.65,357.00 826.05,357.00 826.44,357.00 826.84,357.00 827.23,357.00 827.63,357.00 828.03,357.00 828.42,357.00 828.82,357.00 829.22,357.00 829.61,357.00 830.01,357.00 830.41,357.00 830.80,357.00 831.20,357.00 831.60,357.00 831.99,357.00 832.39,357.00 832.79,357.00 833.18,357.00 833.58,357.00 833.98,357.00 834.37,357.00 834.77,357.00 835.16,357.00 835.56,357.00 835.96,357.00 836.35,357.00 836.75,357.00 837.15,357.00 837.54,357.00 837.94,357.00 838.34,357.00 838.73,357.00 839.13,357.00 839.53,357.00 839.92,357.00 840.32,357.00 840.72,357.00 841.11,357.00 841.51,357.00 841.90,357.00 842.30,357.00 842.70,357.00 843.09,357.00 843.49,357.00 843.89,357.00 844.28,357.00 844.68,357.00 845.08,357.00 845.47,357.00 845.87,357.00 846.27,357.00 846.66,357.00 847.06,357.00 847.46,357.00 847.85,357.00 848.25,357.00 848.64,357.00 849.04,357.00 849.44,357.00 849.83,357.00 850.23,357.00 850.63,357.00 851.02,357.00 851.42,357.00 851.82,357.00 852.21,357.00 852.61,357.00 853.01,357.00 853.40,357.00 853.80,357.00 854.20,357.00 854.59,357.00 854.99,357.00 855.39,357.00 855.78,357.00 856.18,357.00 856.57,357.00 856.97,357.00 857.37,357.00 857.76,357.00 858.16,357.00 858.56,357.00 858.95,357.00 859.35,357.00 859.75,357.00 860.14,357.00 860.54,357.00 860.94,357.00 861.33,357.00 861.73,357.00 862.13,357.00 862.52,357.00 862.92,357.00 863.31,357.00 863.71,357.00 864.11,357.00 864.50,357.00 864.90,357.00 865.30,357.00 865.69,357.00 866.09,357.00 866.49,357.00 866.88,357.00 867.28,357.00 867.68,357.00 868.07,357.00 868.47,357.00 868.87,357.00 869.26,357.00 869.66,357.00 870.06,357.00 870.45,357.00 870.85,357.00 871.24,357.00 871.64,357.00 872.04,357.00 872.43,357.00 872.83,357.00 873.23,357.00 873.62,357.00 874.02,357.00 874.42,357.00 874.81,357.00 875.21,357.00 875.61,357.00 876.00,357.00 876.40,357.00 876.80,357.00 877.19,357.00 877.59,357.00 877.98,357.00 878.38,357.00 878.78,357.00 879.17,357.00 879.57,357.00 879.97,357.00 880.36,357.00 880.76,357.00 881.16,357.00 881.55,357.00 881.95,357.00 882.35,357.00 882.74,357.00 883.14,357.00 883.54,357.00 883.93,357.00 884.33,357.00 884.73,357.00 885.12,357.00 885.52,357.00 885.91,357.00 886.31,357.00 886.71,357.00 887.10,357.00 887.50,357.00 887.75,357.00" fill="none" stroke="#b54708" stroke-width="3" stroke-linejoin="round"/>
<rect x="670" y="62" width="190" height="70" rx="4" ry="4" fill="#fff" fill-opacity="0.82" stroke="#111" stroke-width="1"/>
<line x1="682" y1="78" x2="718" y2="78" stroke="#1665d8" stroke-width="3"/>
<text x="728" y="83" font-family="Arial, Helvetica, sans-serif" font-size="13" font-weight="400" text-anchor="start" fill="#111">load output</text>
<line x1="682" y1="104" x2="718" y2="104" stroke="#b54708" stroke-width="3"/>
<text x="728" y="109" font-family="Arial, Helvetica, sans-serif" font-size="13" font-weight="400" text-anchor="start" fill="#111">input x10</text>
<text x="460" y="502" font-family="Arial, Helvetica, sans-serif" font-size="14" font-weight="400" text-anchor="middle" fill="#111">Time after 60 ms settling, ms</text>
<text x="22" y="260" font-family="Arial, Helvetica, sans-serif" font-size="14" text-anchor="middle" fill="#111" transform="rotate(-90 22 260)">Voltage, V</text>
</svg>
