<svg xmlns="http://www.w3.org/2000/svg" width="920" height="520" viewBox="0 0 920 520">
<defs>
<style>
.wire{stroke:#111;stroke-width:2.6;fill:none;stroke-linecap:round;stroke-linejoin:round}
.thin{stroke:#a7b0bd;stroke-width:1.2;fill:none;stroke-linecap:round;stroke-linejoin:round}
.axis{stroke:#111;stroke-width:1.4;fill:none}
.blue{stroke:#1665d8;stroke-width:3;fill:none;stroke-linecap:round;stroke-linejoin:round}
.green{stroke:#13795b;stroke-width:3;fill:none;stroke-linecap:round;stroke-linejoin:round}
.orange{stroke:#b54708;stroke-width:3;fill:none;stroke-linecap:round;stroke-linejoin:round}
.node{fill:#111;stroke:none}
</style>
</defs>
<rect width="100%" height="100%" fill="#fff"/>
<text x="76" y="36" font-family="Arial, Helvetica, sans-serif" font-size="22" font-weight="700" text-anchor="start" fill="#111">Darlington AC gain and phase, load = 8 ohm</text>
<rect x="76" y="60" width="812" height="396" fill="#fff" stroke="#111" stroke-width="1.4"/>
<line x1="129.115" y1="60" x2="129.115" y2="456" class="thin"/>
<text x="129.115" y="479" font-family="Arial, Helvetica, sans-serif" font-size="12" font-weight="400" text-anchor="middle" fill="#111">10</text>
<line x1="305.557" y1="60" x2="305.557" y2="456" class="thin"/>
<text x="305.557" y="479" font-family="Arial, Helvetica, sans-serif" font-size="12" font-weight="400" text-anchor="middle" fill="#111">100</text>
<line x1="482" y1="60" x2="482" y2="456" class="thin"/>
<text x="482" y="479" font-family="Arial, Helvetica, sans-serif" font-size="12" font-weight="400" text-anchor="middle" fill="#111">1k</text>
<line x1="658.443" y1="60" x2="658.443" y2="456" class="thin"/>
<text x="658.443" y="479" font-family="Arial, Helvetica, sans-serif" font-size="12" font-weight="400" text-anchor="middle" fill="#111">10k</text>
<line x1="834.885" y1="60" x2="834.885" y2="456" class="thin"/>
<text x="834.885" y="479" font-family="Arial, Helvetica, sans-serif" font-size="12" font-weight="400" text-anchor="middle" fill="#111">100k</text>
<line x1="76" y1="456" x2="888" y2="456" class="thin"/>
<text x="66" y="460" font-family="Arial, Helvetica, sans-serif" font-size="12" font-weight="400" text-anchor="end" fill="#111">-20</text>
<line x1="76" y1="334.154" x2="888" y2="334.154" class="thin"/>
<text x="66" y="338.154" font-family="Arial, Helvetica, sans-serif" font-size="12" font-weight="400" text-anchor="end" fill="#111">0</text>
<line x1="76" y1="212.308" x2="888" y2="212.308" class="thin"/>
<text x="66" y="216.308" font-family="Arial, Helvetica, sans-serif" font-size="12" font-weight="400" text-anchor="end" fill="#111">20</text>
<line x1="76" y1="90.4615" x2="888" y2="90.4615" class="thin"/>
<text x="66" y="94.4615" font-family="Arial, Helvetica, sans-serif" font-size="12" font-weight="400" text-anchor="end" fill="#111">40</text>
<polyline points="76.00,258.52 78.21,257.89 80.41,257.30 82.62,256.74 84.83,256.21 87.03,255.71 89.24,255.23 91.45,254.78 93.65,254.35 95.86,253.95 98.07,253.57 100.27,253.20 102.48,252.86 104.68,252.54 106.89,252.23 109.10,251.95 111.30,251.67 113.51,251.41 115.72,251.17 117.92,250.94 120.13,250.72 122.34,250.52 124.54,250.32 126.75,250.14 128.96,249.97 131.16,249.81 133.37,249.65 135.58,249.51 137.78,249.37 139.99,249.24 142.20,249.11 144.40,249.00 146.61,248.89 148.82,248.79 151.02,248.69 153.23,248.60 155.43,248.51 157.64,248.43 159.85,248.35 162.05,248.28 164.26,248.21 166.47,248.14 168.67,248.08 170.88,248.02 173.09,247.97 175.29,247.92 177.50,247.87 179.71,247.82 181.91,247.78 184.12,247.74 186.33,247.70 188.53,247.66 190.74,247.63 192.95,247.60 195.15,247.56 197.36,247.54 199.57,247.51 201.77,247.48 203.98,247.46 206.18,247.43 208.39,247.41 210.60,247.39 212.80,247.37 215.01,247.35 217.22,247.34 219.42,247.32 221.63,247.31 223.84,247.29 226.04,247.28 228.25,247.26 230.46,247.25 232.66,247.24 234.87,247.23 237.08,247.22 239.28,247.21 241.49,247.20 243.70,247.19 245.90,247.18 248.11,247.18 250.32,247.17 252.52,247.16 254.73,247.16 256.93,247.15 259.14,247.14 261.35,247.14 263.55,247.13 265.76,247.13 267.97,247.12 270.17,247.12 272.38,247.12 274.59,247.11 276.79,247.11 279.00,247.11 281.21,247.10 283.41,247.10 285.62,247.10 287.83,247.10 290.03,247.09 292.24,247.09 294.45,247.09 296.65,247.09 298.86,247.09 301.07,247.08 303.27,247.08 305.48,247.08 307.68,247.08 309.89,247.08 312.10,247.08 314.30,247.08 316.51,247.08 318.72,247.08 320.92,247.08 323.13,247.08 325.34,247.08 327.54,247.08 329.75,247.08 331.96,247.08 334.16,247.08 336.37,247.08 338.58,247.08 340.78,247.08 342.99,247.08 345.20,247.08 347.40,247.08 349.61,247.08 351.82,247.08 354.02,247.08 356.23,247.08 358.43,247.08 360.64,247.09 362.85,247.09 365.05,247.09 367.26,247.09 369.47,247.09 371.67,247.10 373.88,247.10 376.09,247.10 378.29,247.10 380.50,247.11 382.71,247.11 384.91,247.11 387.12,247.12 389.33,247.12 391.53,247.13 393.74,247.13 395.95,247.14 398.15,247.14 400.36,247.15 402.57,247.15 404.77,247.16 406.98,247.16 409.18,247.17 411.39,247.18 413.60,247.19 415.80,247.19 418.01,247.20 420.22,247.21 422.42,247.22 424.63,247.23 426.84,247.24 429.04,247.25 431.25,247.27 433.46,247.28 435.66,247.29 437.87,247.31 440.08,247.32 442.28,247.34 444.49,247.36 446.70,247.38 448.90,247.40 451.11,247.42 453.32,247.44 455.52,247.46 457.73,247.49 459.93,247.51 462.14,247.54 464.35,247.57 466.55,247.60 468.76,247.63 470.97,247.67 473.17,247.70 475.38,247.74 477.59,247.78 479.79,247.82 482.00,247.87 484.21,247.92 486.41,247.97 488.62,248.02 490.83,248.08 493.03,248.14 495.24,248.20 497.45,248.27 499.65,248.34 501.86,248.42 504.07,248.50 506.27,248.58 508.48,248.67 510.68,248.77 512.89,248.86 515.10,248.97 517.30,249.08 519.51,249.20 521.72,249.32 523.92,249.45 526.13,249.59 528.34,249.73 530.54,249.88 532.75,250.04 534.96,250.21 537.16,250.39 539.37,250.58 541.58,250.77 543.78,250.98 545.99,251.20 548.20,251.43 550.40,251.67 552.61,251.93 554.82,252.19 557.02,252.47 559.23,252.77 561.43,253.07 563.64,253.40 565.85,253.74 568.05,254.09 570.26,254.46 572.47,254.85 574.67,255.26 576.88,255.69 579.09,256.13 581.29,256.59 583.50,257.08 585.71,257.58 587.91,258.11 590.12,258.66 592.33,259.23 594.53,259.82 596.74,260.44 598.95,261.08 601.15,261.75 603.36,262.44 605.57,263.15 607.77,263.89 609.98,264.66 612.18,265.45 614.39,266.27 616.60,267.11 618.80,267.98 621.01,268.88 623.22,269.81 625.42,270.76 627.63,271.74 629.84,272.74 632.04,273.78 634.25,274.84 636.46,275.92 638.66,277.04 640.87,278.18 643.08,279.34 645.28,280.53 647.49,281.75 649.70,282.99 651.90,284.25 654.11,285.54 656.32,286.85 658.52,288.19 660.73,289.55 662.93,290.93 665.14,292.33 667.35,293.75 669.55,295.19 671.76,296.64 673.97,298.12 676.17,299.62 678.38,301.13 680.59,302.65 682.79,304.19 685.00,305.75 687.21,307.32 689.41,308.90 691.62,310.49 693.83,312.09 696.03,313.70 698.24,315.32 700.45,316.95 702.65,318.59 704.86,320.23 707.07,321.88 709.27,323.53 711.48,325.19 713.68,326.85 715.89,328.51 718.10,330.18 720.30,331.85 722.51,333.51 724.72,335.18 726.92,336.85 729.13,338.51 731.34,340.18 733.54,341.84 735.75,343.50 737.96,345.16 740.16,346.81 742.37,348.46 744.58,350.11 746.78,351.75 748.99,353.39 751.20,355.03 753.40,356.66 755.61,358.28 757.82,359.91 760.02,361.52 762.23,363.13 764.43,364.74 766.64,366.34 768.85,367.94 771.05,369.53 773.26,371.11 775.47,372.69 777.67,374.26 779.88,375.83 782.09,377.39 784.29,378.95 786.50,380.50 788.71,382.04 790.91,383.58 793.12,385.12 795.33,386.64 797.53,388.16 799.74,389.68 801.95,391.19 804.15,392.69 806.36,394.18 808.57,395.67 810.77,397.16 812.98,398.63 815.18,400.10 817.39,401.56 819.60,403.02 821.80,404.46 824.01,405.90 826.22,407.33 828.42,408.75 830.63,410.17 832.84,411.57 835.04,412.97 837.25,414.35 839.46,415.73 841.66,417.10 843.87,418.46 846.08,419.80 848.28,421.14 850.49,422.46 852.70,423.77 854.90,425.07 857.11,426.36 859.32,427.63 861.52,428.89 863.73,430.14 865.93,431.37 868.14,432.59 870.35,433.79 872.55,434.97 874.76,436.14 876.97,437.30 879.17,438.43 881.38,439.55 883.59,440.65 885.79,441.73 888.00,442.79" fill="none" stroke="#1665d8" stroke-width="3" stroke-linejoin="round"/>
<polyline points="76.00,346.91 78.21,347.07 80.41,347.23 82.62,347.39 84.83,347.55 87.03,347.70 89.24,347.85 91.45,348.00 93.65,348.14 95.86,348.28 98.07,348.41 100.27,348.55 102.48,348.68 104.68,348.80 106.89,348.93 109.10,349.05 111.30,349.16 113.51,349.28 115.72,349.39 117.92,349.50 120.13,349.60 122.34,349.70 124.54,349.80 126.75,349.90 128.96,350.00 131.16,350.09 133.37,350.18 135.58,350.27 137.78,350.35 139.99,350.43 142.20,350.52 144.40,350.59 146.61,350.67 148.82,350.75 151.02,350.82 153.23,350.89 155.43,350.96 157.64,351.02 159.85,351.09 162.05,351.15 164.26,351.21 166.47,351.27 168.67,351.33 170.88,351.39 173.09,351.44 175.29,351.49 177.50,351.55 179.71,351.60 181.91,351.65 184.12,351.69 186.33,351.74 188.53,351.79 190.74,351.83 192.95,351.87 195.15,351.91 197.36,351.96 199.57,351.99 201.77,352.03 203.98,352.07 206.18,352.11 208.39,352.14 210.60,352.18 212.80,352.21 215.01,352.24 217.22,352.27 219.42,352.31 221.63,352.34 223.84,352.37 226.04,352.39 228.25,352.42 230.46,352.45 232.66,352.48 234.87,352.50 237.08,352.53 239.28,352.55 241.49,352.57 243.70,352.60 245.90,352.62 248.11,352.64 250.32,352.66 252.52,352.69 254.73,352.71 256.93,352.73 259.14,352.75 261.35,352.76 263.55,352.78 265.76,352.80 267.97,352.82 270.17,352.84 272.38,352.85 274.59,352.87 276.79,352.89 279.00,352.90 281.21,352.92 283.41,352.93 285.62,352.95 287.83,352.96 290.03,352.98 292.24,352.99 294.45,353.01 296.65,353.02 298.86,353.04 301.07,353.05 303.27,353.06 305.48,353.07 307.68,353.09 309.89,353.10 312.10,353.11 314.30,353.12 316.51,353.14 318.72,353.15 320.92,353.16 323.13,353.17 325.34,353.18 327.54,353.20 329.75,353.21 331.96,353.22 334.16,353.23 336.37,353.24 338.58,353.25 340.78,353.26 342.99,353.28 345.20,353.29 347.40,315.02 349.61,315.03 351.82,315.04 354.02,315.05 356.23,315.06 358.43,315.08 360.64,315.09 362.85,315.10 365.05,315.11 367.26,315.12 369.47,315.13 371.67,315.15 373.88,315.16 376.09,315.17 378.29,315.18 380.50,315.19 382.71,315.21 384.91,315.22 387.12,315.23 389.33,315.25 391.53,315.26 393.74,315.27 395.95,315.29 398.15,315.30 400.36,315.31 402.57,315.33 404.77,315.34 406.98,315.36 409.18,315.37 411.39,315.39 413.60,315.40 415.80,315.42 418.01,315.44 420.22,315.45 422.42,315.47 424.63,315.49 426.84,315.50 429.04,315.52 431.25,315.54 433.46,315.56 435.66,315.58 437.87,315.60 440.08,315.62 442.28,315.64 444.49,315.66 446.70,315.68 448.90,315.71 451.11,315.73 453.32,315.75 455.52,315.78 457.73,315.80 459.93,315.83 462.14,315.85 464.35,315.88 466.55,315.91 468.76,315.94 470.97,315.96 473.17,315.99 475.38,316.02 477.59,316.06 479.79,316.09 482.00,316.12 484.21,316.15 486.41,316.19 488.62,316.22 490.83,316.26 493.03,316.30 495.24,316.34 497.45,316.38 499.65,316.42 501.86,316.46 504.07,316.50 506.27,316.54 508.48,316.59 510.68,316.63 512.89,316.68 515.10,316.73 517.30,316.78 519.51,316.83 521.72,316.88 523.92,316.93 526.13,316.98 528.34,317.04 530.54,317.10 532.75,317.15 534.96,317.21 537.16,317.28 539.37,317.34 541.58,317.40 543.78,317.47 545.99,317.53 548.20,317.60 550.40,317.67 552.61,317.74 554.82,317.81 557.02,317.89 559.23,317.96 561.43,318.04 563.64,318.11 565.85,318.19 568.05,318.27 570.26,318.36 572.47,318.44 574.67,318.52 576.88,318.61 579.09,318.70 581.29,318.78 583.50,318.87 585.71,318.96 587.91,319.06 590.12,319.15 592.33,319.24 594.53,319.34 596.74,319.43 598.95,319.53 601.15,319.63 603.36,319.72 605.57,319.82 607.77,319.92 609.98,320.02 612.18,320.12 614.39,320.22 616.60,320.32 618.80,320.42 621.01,320.52 623.22,320.62 625.42,320.72 627.63,320.82 629.84,320.91 632.04,321.01 634.25,321.11 636.46,321.21 638.66,321.30 640.87,321.40 643.08,321.49 645.28,321.58 647.49,321.68 649.70,321.77 651.90,321.86 654.11,321.94 656.32,322.03 658.52,322.11 660.73,322.20 662.93,322.28 665.14,322.36 667.35,322.43 669.55,322.51 671.76,322.58 673.97,322.65 676.17,322.72 678.38,322.79 680.59,322.85 682.79,322.91 685.00,322.97 687.21,323.03 689.41,323.09 691.62,323.14 693.83,323.19 696.03,323.24 698.24,323.28 700.45,323.33 702.65,323.37 704.86,323.41 707.07,323.44 709.27,323.48 711.48,323.51 713.68,323.54 715.89,323.56 718.10,323.59 720.30,323.61 722.51,323.63 724.72,323.65 726.92,323.66 729.13,323.68 731.34,323.69 733.54,323.70 735.75,323.71 737.96,323.71 740.16,323.72 742.37,323.72 744.58,323.72 746.78,323.72 748.99,323.72 751.20,323.72 753.40,323.71 755.61,323.70 757.82,323.69 760.02,323.68 762.23,323.67 764.43,323.66 766.64,323.65 768.85,323.63 771.05,323.61 773.26,323.60 775.47,323.58 777.67,323.56 779.88,323.53 782.09,323.51 784.29,323.49 786.50,323.46 788.71,323.44 790.91,323.41 793.12,323.38 795.33,323.35 797.53,323.32 799.74,323.29 801.95,323.25 804.15,323.22 806.36,323.18 808.57,323.14 810.77,323.11 812.98,323.07 815.18,323.03 817.39,322.98 819.60,322.94 821.80,322.90 824.01,322.85 826.22,322.80 828.42,322.76 830.63,322.71 832.84,322.66 835.04,322.60 837.25,322.55 839.46,322.50 841.66,322.44 843.87,322.38 846.08,322.33 848.28,322.27 850.49,322.21 852.70,322.14 854.90,322.08 857.11,322.02 859.32,321.95 861.52,321.88 863.73,321.81 865.93,321.75 868.14,321.67 870.35,321.60 872.55,321.53 874.76,321.45 876.97,321.38 879.17,321.30 881.38,321.23 883.59,321.15 885.79,321.07 888.00,320.99" fill="none" stroke="#b54708" stroke-width="3" stroke-linejoin="round"/>
<rect x="670" y="62" width="190" height="70" rx="4" ry="4" fill="#fff" fill-opacity="0.82" stroke="#111" stroke-width="1"/>
<line x1="682" y1="78" x2="718" y2="78" stroke="#1665d8" stroke-width="3"/>
<text x="728" y="83" font-family="Arial, Helvetica, sans-serif" font-size="13" font-weight="400" text-anchor="start" fill="#111">gain, dB</text>
<line x1="682" y1="104" x2="718" y2="104" stroke="#b54708" stroke-width="3"/>
<text x="728" y="109" font-family="Arial, Helvetica, sans-serif" font-size="13" font-weight="400" text-anchor="start" fill="#111">phase, deg</text>
<text x="460" y="502" font-family="Arial, Helvetica, sans-serif" font-size="14" font-weight="400" text-anchor="middle" fill="#111">Frequency, Hz</text>
<text x="22" y="260" font-family="Arial, Helvetica, sans-serif" font-size="14" text-anchor="middle" fill="#111" transform="rotate(-90 22 260)">Gain dB / phase deg</text>
</svg>
