<svg xmlns="http://www.w3.org/2000/svg" width="920" height="520" viewBox="0 0 920 520">
<defs>
<style>
.wire{stroke:#111;stroke-width:2.6;fill:none;stroke-linecap:round;stroke-linejoin:round}
.thin{stroke:#a7b0bd;stroke-width:1.2;fill:none;stroke-linecap:round;stroke-linejoin:round}
.axis{stroke:#111;stroke-width:1.4;fill:none}
.blue{stroke:#1665d8;stroke-width:3;fill:none;stroke-linecap:round;stroke-linejoin:round}
.green{stroke:#13795b;stroke-width:3;fill:none;stroke-linecap:round;stroke-linejoin:round}
.orange{stroke:#b54708;stroke-width:3;fill:none;stroke-linecap:round;stroke-linejoin:round}
.node{fill:#111;stroke:none}
</style>
</defs>
<rect width="100%" height="100%" fill="#fff"/>
<text x="76" y="36" font-family="Arial, Helvetica, sans-serif" font-size="22" font-weight="700" text-anchor="start" fill="#111">Darlington square response, 10 kHz, Vin = 1000 mVpp</text>
<rect x="76" y="60" width="812" height="396" fill="#fff" stroke="#111" stroke-width="1.4"/>
<line x1="76" y1="60" x2="76" y2="456" class="thin"/>
<text x="76" y="479" font-family="Arial, Helvetica, sans-serif" font-size="12" font-weight="400" text-anchor="middle" fill="#111">0</text>
<line x1="279" y1="60" x2="279" y2="456" class="thin"/>
<text x="279" y="479" font-family="Arial, Helvetica, sans-serif" font-size="12" font-weight="400" text-anchor="middle" fill="#111">0.1</text>
<line x1="482" y1="60" x2="482" y2="456" class="thin"/>
<text x="482" y="479" font-family="Arial, Helvetica, sans-serif" font-size="12" font-weight="400" text-anchor="middle" fill="#111">0.2</text>
<line x1="685" y1="60" x2="685" y2="456" class="thin"/>
<text x="685" y="479" font-family="Arial, Helvetica, sans-serif" font-size="12" font-weight="400" text-anchor="middle" fill="#111">0.3</text>
<line x1="888" y1="60" x2="888" y2="456" class="thin"/>
<text x="888" y="479" font-family="Arial, Helvetica, sans-serif" font-size="12" font-weight="400" text-anchor="middle" fill="#111">0.4</text>
<line x1="76" y1="456" x2="888" y2="456" class="thin"/>
<text x="66" y="460" font-family="Arial, Helvetica, sans-serif" font-size="12" font-weight="400" text-anchor="end" fill="#111">-10</text>
<line x1="76" y1="357" x2="888" y2="357" class="thin"/>
<text x="66" y="361" font-family="Arial, Helvetica, sans-serif" font-size="12" font-weight="400" text-anchor="end" fill="#111">-5</text>
<line x1="76" y1="258" x2="888" y2="258" class="thin"/>
<text x="66" y="262" font-family="Arial, Helvetica, sans-serif" font-size="12" font-weight="400" text-anchor="end" fill="#111">0</text>
<line x1="76" y1="159" x2="888" y2="159" class="thin"/>
<text x="66" y="163" font-family="Arial, Helvetica, sans-serif" font-size="12" font-weight="400" text-anchor="end" fill="#111">5</text>
<line x1="76" y1="60" x2="888" y2="60" class="thin"/>
<text x="66" y="64" font-family="Arial, Helvetica, sans-serif" font-size="12" font-weight="400" text-anchor="end" fill="#111">10</text>
<polyline points="76.00,160.91 76.04,160.90 76.12,160.90 76.28,160.91 76.59,160.96 76.99,161.22 77.39,164.58 77.71,165.65 78.03,167.11 78.07,167.19 78.15,167.45 78.24,167.79 78.33,168.09 78.48,168.60 78.71,169.39 79.11,170.76 79.51,172.15 79.90,173.52 80.30,174.83 80.70,176.12 81.09,177.37 81.49,178.61 81.88,179.83 82.28,181.03 82.68,182.21 83.07,183.39 83.47,184.54 83.87,185.68 84.26,186.80 84.66,187.92 85.06,189.01 85.45,190.10 85.85,191.17 86.25,192.23 86.64,193.27 87.04,194.31 87.44,195.33 87.83,196.35 88.23,197.34 88.62,198.33 89.02,199.31 89.42,200.28 89.81,201.23 90.21,202.18 90.61,203.11 91.00,204.04 91.40,204.95 91.80,205.86 92.19,206.75 92.59,207.64 92.99,208.51 93.38,209.38 93.78,210.24 94.18,211.09 94.57,211.92 94.97,212.76 95.37,213.58 95.76,214.39 96.16,215.19 96.55,215.99 96.95,216.78 97.35,217.56 97.74,218.33 98.14,219.10 98.54,219.85 98.93,220.60 99.33,221.34 99.73,222.07 100.12,222.80 100.52,223.52 100.92,224.23 101.31,224.93 101.71,225.63 102.11,226.32 102.50,227.00 102.90,227.68 103.29,228.34 103.69,229.01 104.09,229.66 104.48,230.31 104.88,230.95 105.28,231.59 105.67,232.22 106.07,232.85 106.47,233.46 106.86,234.08 107.26,234.68 107.66,235.28 108.05,235.87 108.45,236.46 108.85,237.04 109.24,237.62 109.64,238.19 110.03,238.76 110.43,239.32 110.83,239.87 111.22,240.42 111.62,240.97 112.02,241.51 112.41,242.04 112.81,242.57 113.21,243.09 113.60,243.61 114.00,244.12 114.40,244.63 114.79,245.14 115.19,245.64 115.59,246.13 115.98,246.62 116.38,247.11 116.78,247.58 117.17,248.06 117.57,248.53 117.96,249.00 118.36,249.46 118.76,249.92 119.15,250.37 119.55,250.82 119.95,251.27 120.34,251.71 120.74,252.15 121.14,252.58 121.53,253.01 121.93,253.43 122.33,253.85 122.72,254.27 123.12,254.68 123.52,255.09 123.91,255.50 124.31,255.90 124.70,256.30 125.10,256.69 125.50,257.08 125.89,257.47 126.29,257.85 126.69,258.23 127.08,258.61 127.48,258.98 127.88,259.35 128.27,259.72 128.67,260.08 129.07,260.44 129.46,260.79 129.86,261.15 130.26,261.50 130.65,261.84 131.05,262.19 131.45,262.53 131.84,262.86 132.24,263.20 132.63,263.53 133.03,263.86 133.43,264.18 133.82,264.50 134.22,264.82 134.62,265.14 135.01,265.45 135.41,265.76 135.81,266.07 136.20,266.37 136.60,266.67 137.00,266.97 137.39,267.27 137.79,267.56 138.19,267.85 138.58,268.14 138.98,268.43 139.37,268.71 139.77,268.99 140.17,269.27 140.56,269.54 140.96,269.82 141.36,270.09 141.75,270.35 142.15,270.62 142.55,270.88 142.94,271.14 143.34,271.40 143.74,271.66 144.13,271.91 144.53,272.16 144.93,272.41 145.32,272.66 145.72,272.91 146.12,273.15 146.51,273.39 146.91,273.63 147.30,273.86 147.70,274.10 148.10,274.33 148.49,274.56 148.89,274.79 149.29,275.01 149.68,275.24 150.08,275.46 150.48,275.68 150.87,275.90 151.27,276.11 151.67,276.33 152.06,276.54 152.46,276.75 152.86,276.96 153.25,277.16 153.65,277.37 154.04,277.57 154.44,277.77 154.84,277.97 155.23,278.17 155.63,278.36 156.03,278.56 156.42,278.75 156.82,278.94 157.22,279.13 157.61,279.32 158.01,279.50 158.41,279.68 158.80,279.87 159.20,280.05 159.60,280.23 159.99,280.40 160.39,280.58 160.78,280.75 161.18,280.93 161.58,281.10 161.97,281.27 162.37,281.43 162.77,281.60 163.16,281.77 163.56,281.93 163.96,282.09 164.35,282.25 164.75,282.41 165.15,282.57 165.54,282.73 165.94,282.88 166.34,283.03 166.73,283.19 167.13,283.34 167.53,283.49 167.92,283.64 168.32,283.78 168.71,283.93 169.11,284.07 169.51,284.22 169.90,284.36 170.30,284.50 170.70,284.64 171.09,284.78 171.49,284.91 171.89,285.05 172.28,285.18 172.68,285.32 173.08,285.45 173.47,285.58 173.87,285.71 174.27,285.84 174.66,285.97 175.06,286.09 175.45,286.22 175.85,286.34 176.25,286.47 176.64,286.59 177.04,286.71 177.44,286.83 177.83,286.95 178.23,287.07 178.63,287.18 179.02,287.30 179.28,287.37 179.53,287.45 179.57,287.43 179.65,287.39 179.81,287.30 180.12,287.08 180.52,286.71 180.92,286.26 181.24,285.86 181.56,285.55 181.60,285.52 181.68,285.45 181.84,285.33 182.15,285.08 182.55,284.77 182.95,284.47 183.34,284.17 183.74,283.87 184.14,283.57 184.53,283.28 184.93,282.98 185.33,282.70 185.72,282.41 186.12,282.12 186.52,281.84 186.91,281.56 187.31,281.28 187.71,281.01 188.10,280.73 188.50,280.46 188.89,280.19 189.29,279.93 189.69,279.66 190.08,279.40 190.48,279.14 190.88,278.88 191.27,278.62 191.67,278.37 192.07,278.12 192.46,277.87 192.86,277.62 193.26,277.37 193.65,277.13 194.05,276.89 194.45,276.64 194.84,276.41 195.24,276.17 195.64,275.93 196.03,275.70 196.43,275.47 196.82,275.24 197.22,275.01 197.62,274.78 198.01,274.56 198.41,274.33 198.81,274.11 199.20,273.89 199.60,273.67 200.00,273.46 200.39,273.24 200.79,273.03 201.19,272.82 201.58,272.61 201.98,272.40 202.38,272.19 202.77,271.99 203.17,271.78 203.56,271.58 203.96,271.38 204.36,271.18 204.75,270.98 205.15,270.78 205.55,270.59 205.94,270.39 206.34,270.20 206.74,270.01 207.13,269.82 207.53,269.63 207.93,269.44 208.32,269.26 208.72,269.07 209.12,268.89 209.51,268.71 209.91,268.52 210.31,268.34 210.70,268.17 211.10,267.99 211.49,267.81 211.89,267.64 212.29,267.46 212.68,267.29 213.08,267.12 213.48,266.95 213.87,266.78 214.27,266.61 214.67,266.44 215.06,266.28 215.46,266.11 215.86,265.95 216.25,265.79 216.65,265.63 217.05,265.47 217.44,265.31 217.84,265.15 218.23,264.99 218.63,264.83 219.03,264.68 219.42,264.52 219.82,264.37 220.22,264.22 220.61,264.06 221.01,263.91 221.41,263.76 221.80,263.61 222.20,263.46 222.60,263.32 222.99,263.17 223.39,263.02 223.79,262.88 224.18,262.74 224.58,262.59 224.98,262.45 225.37,262.31 225.77,262.17 226.16,262.03 226.56,261.89 226.96,261.75 227.35,261.61 227.75,261.47 228.15,261.33 228.54,261.20 228.94,261.06 229.34,260.93 229.73,260.79 230.13,260.66 230.53,260.52 230.92,260.39 231.32,260.26 231.72,260.13 232.11,260.00 232.51,259.87 232.90,259.74 233.30,259.61 233.70,259.48 234.09,259.35 234.49,259.22 234.89,259.09 235.28,258.96 235.68,258.83 236.08,258.71 236.47,258.58 236.87,258.45 237.27,258.33 237.66,258.20 238.06,258.07 238.46,257.95 238.85,257.82 239.25,257.69 239.64,257.56 240.04,257.44 240.44,257.31 240.83,257.18 241.23,257.05 241.63,256.93 242.02,256.80 242.42,256.67 242.82,256.54 243.21,256.41 243.61,256.27 244.01,256.14 244.40,256.01 244.80,255.87 245.20,255.73 245.59,255.59 245.99,255.44 246.39,255.30 246.78,255.15 247.18,254.99 247.57,254.83 247.97,254.66 248.37,254.49 248.76,254.30 249.16,254.10 249.56,253.87 249.95,253.61 250.35,253.24 250.75,252.68 251.14,249.66 251.54,237.10 251.94,229.42 252.33,224.15 252.73,217.52 253.13,210.88 253.52,203.23 253.92,197.01 254.31,190.46 254.71,184.77 255.11,178.81 255.50,173.41 255.90,168.17 256.30,166.08 256.69,164.67 257.09,163.79 257.49,163.07 257.88,162.57 258.28,162.14 258.68,161.87 259.07,161.61 259.47,161.47 259.87,161.31 260.26,161.24 260.66,161.14 261.06,161.11 261.45,161.04 261.85,161.03 262.24,160.98 262.64,160.99 263.04,160.95 263.43,160.96 263.83,160.93 264.23,160.95 264.62,160.92 265.02,160.94 265.42,160.91 265.81,160.94 266.21,160.91 266.61,160.94 267.00,160.91 267.40,160.94 267.80,160.91 268.19,160.94 268.59,160.91 268.98,160.94 269.38,160.91 269.78,160.94 270.17,160.91 270.57,160.94 270.97,160.91 271.36,160.94 271.76,160.91 272.16,160.94 272.55,160.91 272.95,160.94 273.35,160.92 273.74,160.94 274.14,160.92 274.54,160.94 274.93,160.92 275.33,160.94 275.73,160.92 276.12,160.94 276.52,160.92 276.91,160.94 277.31,160.92 277.71,160.94 278.10,160.92 278.50,160.94 278.75,160.92 279.00,160.94 279.04,160.93 279.12,160.94 279.28,160.95 279.58,161.00 279.98,161.23 280.37,164.58 280.70,165.72 281.03,167.26 281.07,167.39 281.15,167.66 281.25,168.00 281.34,168.32 281.51,168.90 281.79,169.85 282.19,171.21 282.58,172.59 282.98,173.93 283.38,175.23 283.77,176.50 284.17,177.75 284.56,178.99 284.96,180.20 285.36,181.40 285.75,182.58 286.15,183.74 286.55,184.89 286.94,186.03 287.34,187.15 287.74,188.25 288.13,189.35 288.53,190.43 288.93,191.50 289.32,192.55 289.72,193.59 290.12,194.63 290.51,195.64 290.91,196.65 291.30,197.65 291.70,198.63 292.10,199.61 292.49,200.57 292.89,201.52 293.29,202.47 293.68,203.40 294.08,204.32 294.48,205.23 294.87,206.13 295.27,207.03 295.67,207.91 296.06,208.78 296.46,209.64 296.86,210.50 297.25,211.34 297.65,212.18 298.05,213.01 298.44,213.83 298.84,214.64 299.23,215.44 299.63,216.23 300.03,217.02 300.42,217.80 300.82,218.57 301.22,219.33 301.61,220.08 302.01,220.83 302.41,221.56 302.80,222.30 303.20,223.02 303.60,223.73 303.99,224.44 304.39,225.14 304.79,225.84 305.18,226.53 305.58,227.21 305.97,227.88 306.37,228.55 306.77,229.21 307.16,229.86 307.56,230.51 307.96,231.15 308.35,231.78 308.75,232.41 309.15,233.04 309.54,233.65 309.94,234.26 310.34,234.87 310.73,235.46 311.13,236.06 311.53,236.64 311.92,237.22 312.32,237.80 312.72,238.37 313.11,238.93 313.51,239.49 313.90,240.04 314.30,240.59 314.70,241.13 315.09,241.67 315.49,242.20 315.89,242.73 316.28,243.25 316.68,243.77 317.08,244.28 317.47,244.79 317.87,245.29 318.27,245.79 318.66,246.28 319.06,246.77 319.46,247.25 319.85,247.73 320.25,248.20 320.64,248.67 321.04,249.14 321.44,249.60 321.83,250.06 322.23,250.51 322.63,250.96 323.02,251.40 323.42,251.84 323.82,252.28 324.21,252.71 324.61,253.14 325.01,253.56 325.40,253.98 325.80,254.40 326.20,254.81 326.59,255.22 326.99,255.62 327.39,256.02 327.78,256.42 328.18,256.81 328.57,257.20 328.97,257.59 329.37,257.97 329.76,258.35 330.16,258.72 330.56,259.09 330.95,259.46 331.35,259.83 331.75,260.19 332.14,260.55 332.54,260.90 332.94,261.25 333.33,261.60 333.73,261.95 334.13,262.29 334.52,262.63 334.92,262.96 335.31,263.30 335.71,263.63 336.11,263.95 336.50,264.28 336.90,264.60 337.30,264.91 337.69,265.23 338.09,265.54 338.49,265.85 338.88,266.16 339.28,266.46 339.68,266.76 340.07,267.06 340.47,267.35 340.87,267.65 341.26,267.94 341.66,268.22 342.05,268.51 342.45,268.79 342.85,269.07 343.24,269.35 343.64,269.62 344.04,269.90 344.43,270.17 344.83,270.43 345.23,270.70 345.62,270.96 346.02,271.22 346.42,271.48 346.81,271.73 347.21,271.99 347.61,272.24 348.00,272.49 348.40,272.73 348.80,272.98 349.19,273.22 349.59,273.46 349.98,273.70 350.38,273.93 350.78,274.16 351.17,274.40 351.57,274.63 351.97,274.85 352.36,275.08 352.76,275.30 353.16,275.52 353.55,275.74 353.95,275.96 354.35,276.17 354.74,276.39 355.14,276.60 355.54,276.81 355.93,277.02 356.33,277.22 356.72,277.42 357.12,277.63 357.52,277.83 357.91,278.03 358.31,278.22 358.71,278.42 359.10,278.61 359.50,278.80 359.90,278.99 360.29,279.18 360.69,279.37 361.09,279.55 361.48,279.74 361.88,279.92 362.28,280.10 362.67,280.28 363.07,280.45 363.47,280.63 363.86,280.80 364.26,280.97 364.65,281.14 365.05,281.31 365.45,281.48 365.84,281.65 366.24,281.81 366.64,281.97 367.03,282.14 367.43,282.30 367.83,282.45 368.22,282.61 368.62,282.77 369.02,282.92 369.41,283.08 369.81,283.23 370.21,283.38 370.60,283.53 371.00,283.68 371.39,283.82 371.79,283.97 372.19,284.11 372.58,284.25 372.98,284.40 373.38,284.54 373.77,284.68 374.17,284.81 374.57,284.95 374.96,285.09 375.36,285.22 375.76,285.35 376.15,285.48 376.55,285.62 376.95,285.74 377.34,285.87 377.74,286.00 378.14,286.13 378.53,286.25 378.93,286.38 379.32,286.50 379.72,286.62 380.12,286.74 380.51,286.86 380.91,286.98 381.31,287.10 381.70,287.21 382.10,287.33 382.31,287.39 382.53,287.45 382.57,287.44 382.65,287.40 382.81,287.31 383.12,287.08 383.52,286.72 383.92,286.26 384.24,285.87 384.56,285.56 384.60,285.52 384.68,285.46 384.84,285.34 385.15,285.09 385.55,284.78 385.95,284.47 386.34,284.17 386.74,283.87 387.14,283.58 387.53,283.28 387.93,282.99 388.33,282.70 388.72,282.41 389.12,282.13 389.52,281.85 389.91,281.57 390.31,281.29 390.71,281.01 391.10,280.74 391.50,280.47 391.89,280.20 392.29,279.93 392.69,279.67 393.08,279.41 393.48,279.15 393.88,278.89 394.27,278.63 394.67,278.38 395.07,278.12 395.46,277.87 395.86,277.62 396.26,277.38 396.65,277.13 397.05,276.89 397.45,276.65 397.84,276.41 398.24,276.17 398.64,275.94 399.03,275.70 399.43,275.47 399.82,275.24 400.22,275.01 400.62,274.79 401.01,274.56 401.41,274.34 401.81,274.12 402.20,273.90 402.60,273.68 403.00,273.46 403.39,273.25 403.79,273.03 404.19,272.82 404.58,272.61 404.98,272.40 405.38,272.20 405.77,271.99 406.17,271.79 406.56,271.58 406.96,271.38 407.36,271.18 407.75,270.98 408.15,270.79 408.55,270.59 408.94,270.40 409.34,270.20 409.74,270.01 410.13,269.82 410.53,269.63 410.93,269.45 411.32,269.26 411.72,269.08 412.12,268.89 412.51,268.71 412.91,268.53 413.31,268.35 413.70,268.17 414.10,267.99 414.49,267.82 414.89,267.64 415.29,267.47 415.68,267.30 416.08,267.12 416.48,266.95 416.87,266.78 417.27,266.62 417.67,266.45 418.06,266.28 418.46,266.12 418.86,265.95 419.25,265.79 419.65,265.63 420.05,265.47 420.44,265.31 420.84,265.15 421.23,264.99 421.63,264.84 422.03,264.68 422.42,264.53 422.82,264.37 423.22,264.22 423.61,264.07 424.01,263.92 424.41,263.77 424.80,263.62 425.20,263.47 425.60,263.32 425.99,263.17 426.39,263.03 426.79,262.88 427.18,262.74 427.58,262.60 427.98,262.45 428.37,262.31 428.77,262.17 429.16,262.03 429.56,261.89 429.96,261.75 430.35,261.61 430.75,261.47 431.15,261.34 431.54,261.20 431.94,261.07 432.34,260.93 432.73,260.80 433.13,260.66 433.53,260.53 433.92,260.40 434.32,260.26 434.72,260.13 435.11,260.00 435.51,259.87 435.90,259.74 436.30,259.61 436.70,259.48 437.09,259.35 437.49,259.22 437.89,259.09 438.28,258.97 438.68,258.84 439.08,258.71 439.47,258.58 439.87,258.46 440.27,258.33 440.66,258.20 441.06,258.07 441.46,257.95 441.85,257.82 442.25,257.69 442.64,257.57 443.04,257.44 443.44,257.31 443.83,257.19 444.23,257.06 444.63,256.93 445.02,256.80 445.42,256.67 445.82,256.54 446.21,256.41 446.61,256.28 447.01,256.14 447.40,256.01 447.80,255.87 448.20,255.73 448.59,255.59 448.99,255.45 449.39,255.30 449.78,255.15 450.18,254.99 450.57,254.83 450.97,254.67 451.37,254.49 451.76,254.30 452.16,254.10 452.56,253.88 452.95,253.61 453.35,253.25 453.75,252.69 454.14,249.75 454.54,237.16 454.94,229.45 455.33,224.19 455.73,217.56 456.13,210.91 456.52,203.26 456.92,197.04 457.31,190.49 457.71,184.80 458.11,178.84 458.50,173.44 458.90,168.20 459.30,166.12 459.69,164.70 460.09,163.83 460.49,163.11 460.88,162.61 461.28,162.17 461.68,161.90 462.07,161.65 462.47,161.50 462.87,161.34 463.26,161.28 463.66,161.17 464.06,161.14 464.45,161.07 464.85,161.07 465.24,161.01 465.64,161.03 466.04,160.98 466.43,161.00 466.83,160.96 467.23,160.99 467.62,160.95 468.02,160.98 468.42,160.95 468.81,160.97 469.21,160.95 469.61,160.97 470.00,160.94 470.40,160.97 470.80,160.94 471.19,160.97 471.59,160.94 471.98,160.97 472.38,160.95 472.78,160.97 473.17,160.95 473.57,160.97 473.97,160.95 474.36,160.97 474.76,160.95 475.16,160.97 475.55,160.95 475.95,160.97 476.35,160.95 476.74,160.98 477.14,160.95 477.54,160.98 477.93,160.95 478.33,160.98 478.73,160.95 479.12,160.98 479.52,160.96 479.91,160.98 480.31,160.96 480.71,160.98 481.10,160.96 481.50,160.98 481.75,160.96 482.00,160.98 482.04,160.97 482.12,160.97 482.28,160.98 482.58,161.03 482.97,161.26 483.37,164.60 483.70,165.77 484.03,167.29 484.07,167.44 484.15,167.70 484.25,168.06 484.35,168.38 484.52,168.97 484.81,169.96 485.21,171.32 485.60,172.70 486.00,174.03 486.40,175.33 486.79,176.61 487.19,177.86 487.58,179.09 487.98,180.30 488.38,181.49 488.77,182.67 489.17,183.83 489.57,184.98 489.96,186.12 490.36,187.24 490.76,188.34 491.15,189.43 491.55,190.51 491.95,191.58 492.34,192.64 492.74,193.68 493.14,194.71 493.53,195.73 493.93,196.73 494.33,197.73 494.72,198.71 495.12,199.69 495.51,200.65 495.91,201.60 496.31,202.54 496.70,203.47 497.10,204.39 497.50,205.30 497.89,206.20 498.29,207.10 498.69,207.98 499.08,208.85 499.48,209.71 499.88,210.57 500.27,211.41 500.67,212.25 501.07,213.07 501.46,213.89 501.86,214.70 502.25,215.50 502.65,216.30 503.05,217.08 503.44,217.86 503.84,218.63 504.24,219.39 504.63,220.14 505.03,220.88 505.43,221.62 505.82,222.35 506.22,223.07 506.62,223.79 507.01,224.50 507.41,225.20 507.81,225.89 508.20,226.58 508.60,227.26 509.00,227.93 509.39,228.60 509.79,229.26 510.18,229.91 510.58,230.56 510.98,231.20 511.37,231.83 511.77,232.46 512.17,233.08 512.56,233.70 512.96,234.31 513.36,234.91 513.75,235.51 514.15,236.10 514.55,236.68 514.94,237.27 515.34,237.84 515.74,238.41 516.13,238.97 516.53,239.53 516.92,240.08 517.32,240.63 517.72,241.17 518.11,241.71 518.51,242.24 518.91,242.77 519.30,243.29 519.70,243.81 520.10,244.32 520.49,244.82 520.89,245.33 521.29,245.82 521.68,246.31 522.08,246.80 522.48,247.29 522.87,247.76 523.27,248.24 523.66,248.71 524.06,249.17 524.46,249.63 524.85,250.09 525.25,250.54 525.65,250.99 526.04,251.43 526.44,251.87 526.84,252.31 527.23,252.74 527.63,253.17 528.03,253.59 528.42,254.01 528.82,254.42 529.22,254.84 529.61,255.24 530.01,255.65 530.41,256.05 530.80,256.44 531.20,256.84 531.59,257.23 531.99,257.61 532.39,257.99 532.78,258.37 533.18,258.75 533.58,259.12 533.97,259.49 534.37,259.85 534.77,260.21 535.16,260.57 535.56,260.92 535.96,261.27 536.35,261.62 536.75,261.97 537.15,262.31 537.54,262.65 537.94,262.98 538.33,263.32 538.73,263.65 539.13,263.97 539.52,264.30 539.92,264.62 540.32,264.93 540.71,265.25 541.11,265.56 541.51,265.87 541.90,266.18 542.30,266.48 542.70,266.78 543.09,267.08 543.49,267.37 543.89,267.66 544.28,267.95 544.68,268.24 545.08,268.53 545.47,268.81 545.87,269.09 546.26,269.36 546.66,269.64 547.06,269.91 547.45,270.18 547.85,270.45 548.25,270.71 548.64,270.97 549.04,271.23 549.44,271.49 549.83,271.75 550.23,272.00 550.63,272.25 551.02,272.50 551.42,272.75 551.82,272.99 552.21,273.23 552.61,273.47 553.00,273.71 553.40,273.94 553.80,274.18 554.19,274.41 554.59,274.64 554.99,274.86 555.38,275.09 555.78,275.31 556.18,275.53 556.57,275.75 556.97,275.97 557.37,276.18 557.76,276.40 558.16,276.61 558.56,276.82 558.95,277.02 559.35,277.23 559.75,277.43 560.14,277.64 560.54,277.84 560.93,278.04 561.33,278.23 561.73,278.43 562.12,278.62 562.52,278.81 562.92,279.00 563.31,279.19 563.71,279.37 564.11,279.56 564.50,279.74 564.90,279.92 565.30,280.10 565.69,280.28 566.09,280.46 566.49,280.63 566.88,280.81 567.28,280.98 567.67,281.15 568.07,281.32 568.47,281.49 568.86,281.65 569.26,281.82 569.66,281.98 570.05,282.14 570.45,282.30 570.85,282.46 571.24,282.62 571.64,282.77 572.04,282.93 572.43,283.08 572.83,283.23 573.23,283.38 573.62,283.53 574.02,283.68 574.41,283.83 574.81,283.97 575.21,284.12 575.60,284.26 576.00,284.40 576.40,284.54 576.79,284.68 577.19,284.82 577.59,284.95 577.98,285.09 578.38,285.22 578.78,285.36 579.17,285.49 579.57,285.62 579.97,285.75 580.36,285.88 580.76,286.00 581.16,286.13 581.55,286.25 581.95,286.38 582.34,286.50 582.74,286.62 583.14,286.74 583.53,286.86 583.93,286.98 584.33,287.10 584.72,287.21 585.12,287.33 585.32,287.39 585.53,287.45 585.57,287.43 585.65,287.39 585.81,287.31 586.12,287.08 586.52,286.71 586.92,286.26 587.24,285.86 587.56,285.55 587.60,285.52 587.68,285.46 587.84,285.33 588.15,285.08 588.55,284.78 588.95,284.47 589.34,284.17 589.74,283.87 590.14,283.57 590.53,283.28 590.93,282.99 591.33,282.70 591.72,282.41 592.12,282.13 592.52,281.84 592.91,281.56 593.31,281.29 593.71,281.01 594.10,280.74 594.50,280.47 594.89,280.20 595.29,279.93 595.69,279.67 596.08,279.40 596.48,279.14 596.88,278.88 597.27,278.63 597.67,278.37 598.07,278.12 598.46,277.87 598.86,277.62 599.26,277.38 599.65,277.13 600.05,276.89 600.45,276.65 600.84,276.41 601.24,276.17 601.64,275.94 602.03,275.70 602.43,275.47 602.82,275.24 603.22,275.01 603.62,274.79 604.01,274.56 604.41,274.34 604.81,274.12 605.20,273.90 605.60,273.68 606.00,273.46 606.39,273.25 606.79,273.03 607.19,272.82 607.58,272.61 607.98,272.40 608.38,272.19 608.77,271.99 609.17,271.78 609.56,271.58 609.96,271.38 610.36,271.18 610.75,270.98 611.15,270.79 611.55,270.59 611.94,270.40 612.34,270.20 612.74,270.01 613.13,269.82 613.53,269.63 613.93,269.45 614.32,269.26 614.72,269.07 615.12,268.89 615.51,268.71 615.91,268.53 616.31,268.35 616.70,268.17 617.10,267.99 617.49,267.82 617.89,267.64 618.29,267.47 618.68,267.29 619.08,267.12 619.48,266.95 619.87,266.78 620.27,266.61 620.67,266.45 621.06,266.28 621.46,266.12 621.86,265.95 622.25,265.79 622.65,265.63 623.05,265.47 623.44,265.31 623.84,265.15 624.23,264.99 624.63,264.84 625.03,264.68 625.42,264.53 625.82,264.37 626.22,264.22 626.61,264.07 627.01,263.92 627.41,263.77 627.80,263.62 628.20,263.47 628.60,263.32 628.99,263.17 629.39,263.03 629.79,262.88 630.18,262.74 630.58,262.59 630.98,262.45 631.37,262.31 631.77,262.17 632.16,262.03 632.56,261.89 632.96,261.75 633.35,261.61 633.75,261.47 634.15,261.34 634.54,261.20 634.94,261.06 635.34,260.93 635.73,260.79 636.13,260.66 636.53,260.53 636.92,260.39 637.32,260.26 637.72,260.13 638.11,260.00 638.51,259.87 638.90,259.74 639.30,259.61 639.70,259.48 640.09,259.35 640.49,259.22 640.89,259.09 641.28,258.96 641.68,258.84 642.08,258.71 642.47,258.58 642.87,258.46 643.27,258.33 643.66,258.20 644.06,258.07 644.46,257.95 644.85,257.82 645.25,257.69 645.64,257.57 646.04,257.44 646.44,257.31 646.83,257.19 647.23,257.06 647.63,256.93 648.02,256.80 648.42,256.67 648.82,256.54 649.21,256.41 649.61,256.28 650.01,256.14 650.40,256.01 650.80,255.87 651.20,255.73 651.59,255.59 651.99,255.45 652.39,255.30 652.78,255.15 653.18,254.99 653.57,254.83 653.97,254.66 654.37,254.49 654.76,254.30 655.16,254.10 655.56,253.88 655.95,253.61 656.35,253.25 656.75,252.68 657.14,249.63 657.54,237.08 657.94,229.41 658.33,224.14 658.73,217.52 659.13,210.87 659.52,203.23 659.92,197.01 660.31,190.47 660.71,184.77 661.11,178.81 661.50,173.42 661.90,168.18 662.30,166.15 662.69,164.74 663.09,163.86 663.49,163.14 663.88,162.64 664.28,162.21 664.68,161.94 665.07,161.68 665.47,161.54 665.87,161.38 666.26,161.31 666.66,161.21 667.06,161.18 667.45,161.11 667.85,161.10 668.24,161.05 668.64,161.06 669.04,161.02 669.43,161.04 669.83,161.00 670.23,161.02 670.62,160.99 671.02,161.01 671.42,160.98 671.81,161.01 672.21,160.98 672.61,161.01 673.00,160.98 673.40,161.01 673.80,160.98 674.19,161.01 674.59,160.98 674.98,161.01 675.38,160.98 675.78,161.01 676.17,160.98 676.57,161.01 676.97,160.98 677.36,161.01 677.76,160.98 678.16,161.01 678.55,160.99 678.95,161.01 679.35,160.99 679.74,161.01 680.14,160.99 680.54,161.01 680.93,160.99 681.33,161.01 681.73,160.99 682.12,161.01 682.52,160.99 682.91,161.01 683.31,160.99 683.71,161.01 684.10,160.99 684.50,161.02 684.75,160.99 685.00,161.02 685.04,161.01 685.12,161.01 685.28,161.02 685.58,161.07 685.98,161.31 686.38,164.65 686.70,165.78 687.03,167.33 687.07,167.45 687.15,167.71 687.25,168.05 687.34,168.37 687.51,168.94 687.78,169.88 688.18,171.24 688.58,172.62 688.97,173.96 689.37,175.26 689.77,176.54 690.16,177.78 690.56,179.02 690.96,180.23 691.35,181.43 691.75,182.60 692.14,183.77 692.54,184.92 692.94,186.05 693.33,187.17 693.73,188.28 694.13,189.37 694.52,190.45 694.92,191.52 695.32,192.58 695.71,193.62 696.11,194.65 696.51,195.67 696.90,196.68 697.30,197.67 697.70,198.66 698.09,199.63 698.49,200.59 698.88,201.54 699.28,202.49 699.68,203.42 700.07,204.34 700.47,205.25 700.87,206.15 701.26,207.04 701.66,207.93 702.06,208.80 702.45,209.66 702.85,210.52 703.25,211.36 703.64,212.20 704.04,213.02 704.44,213.84 704.83,214.65 705.23,215.45 705.63,216.25 706.02,217.03 706.42,217.81 706.81,218.58 707.21,219.34 707.61,220.09 708.00,220.84 708.40,221.58 708.80,222.31 709.19,223.03 709.59,223.75 709.99,224.45 710.38,225.15 710.78,225.85 711.18,226.54 711.57,227.22 711.97,227.89 712.37,228.56 712.76,229.22 713.16,229.87 713.55,230.52 713.95,231.16 714.35,231.79 714.74,232.42 715.14,233.04 715.54,233.66 715.93,234.27 716.33,234.87 716.73,235.47 717.12,236.06 717.52,236.65 717.92,237.23 718.31,237.80 718.71,238.37 719.11,238.94 719.50,239.49 719.90,240.05 720.30,240.59 720.69,241.14 721.09,241.67 721.48,242.21 721.88,242.73 722.28,243.25 722.67,243.77 723.07,244.28 723.47,244.79 723.86,245.29 724.26,245.79 724.66,246.28 725.05,246.77 725.45,247.25 725.85,247.73 726.24,248.21 726.64,248.68 727.04,249.14 727.43,249.60 727.83,250.06 728.22,250.51 728.62,250.96 729.02,251.40 729.41,251.84 729.81,252.28 730.21,252.71 730.60,253.14 731.00,253.56 731.40,253.98 731.79,254.39 732.19,254.81 732.59,255.21 732.98,255.62 733.38,256.02 733.78,256.42 734.17,256.81 734.57,257.20 734.96,257.58 735.36,257.96 735.76,258.34 736.15,258.72 736.55,259.09 736.95,259.46 737.34,259.82 737.74,260.18 738.14,260.54 738.53,260.90 738.93,261.25 739.33,261.60 739.72,261.94 740.12,262.28 740.52,262.62 740.91,262.96 741.31,263.29 741.71,263.62 742.10,263.95 742.50,264.27 742.89,264.59 743.29,264.91 743.69,265.22 744.08,265.54 744.48,265.84 744.88,266.15 745.27,266.45 745.67,266.76 746.07,267.05 746.46,267.35 746.86,267.64 747.26,267.93 747.65,268.22 748.05,268.50 748.45,268.79 748.84,269.07 749.24,269.34 749.63,269.62 750.03,269.89 750.43,270.16 750.82,270.43 751.22,270.69 751.62,270.95 752.01,271.21 752.41,271.47 752.81,271.73 753.20,271.98 753.60,272.23 754.00,272.48 754.39,272.72 754.79,272.97 755.19,273.21 755.58,273.45 755.98,273.69 756.38,273.92 756.77,274.16 757.17,274.39 757.56,274.62 757.96,274.84 758.36,275.07 758.75,275.29 759.15,275.51 759.55,275.73 759.94,275.95 760.34,276.16 760.74,276.38 761.13,276.59 761.53,276.80 761.93,277.01 762.32,277.21 762.72,277.42 763.12,277.62 763.51,277.82 763.91,278.02 764.30,278.21 764.70,278.41 765.10,278.60 765.49,278.79 765.89,278.98 766.29,279.17 766.68,279.36 767.08,279.54 767.48,279.73 767.87,279.91 768.27,280.09 768.67,280.26 769.06,280.44 769.46,280.62 769.86,280.79 770.25,280.96 770.65,281.13 771.05,281.30 771.44,281.47 771.84,281.64 772.23,281.80 772.63,281.96 773.03,282.12 773.42,282.28 773.82,282.44 774.22,282.60 774.61,282.76 775.01,282.91 775.41,283.06 775.80,283.22 776.20,283.37 776.60,283.52 776.99,283.66 777.39,283.81 777.79,283.96 778.18,284.10 778.58,284.24 778.97,284.38 779.37,284.52 779.77,284.66 780.16,284.80 780.56,284.94 780.96,285.07 781.35,285.21 781.75,285.34 782.15,285.47 782.54,285.60 782.94,285.73 783.34,285.86 783.73,285.99 784.13,286.11 784.53,286.24 784.92,286.36 785.32,286.49 785.71,286.61 786.11,286.73 786.51,286.85 786.90,286.97 787.30,287.08 787.70,287.20 788.09,287.32 788.31,287.38 788.53,287.44 788.57,287.43 788.65,287.39 788.81,287.30 789.12,287.07 789.52,286.71 789.92,286.25 790.24,285.86 790.56,285.55 790.60,285.51 790.68,285.45 790.84,285.33 791.15,285.08 791.55,284.77 791.95,284.46 792.34,284.16 792.74,283.86 793.14,283.57 793.53,283.27 793.93,282.98 794.33,282.69 794.72,282.41 795.12,282.12 795.52,281.84 795.91,281.56 796.31,281.28 796.71,281.01 797.10,280.73 797.50,280.46 797.89,280.19 798.29,279.93 798.69,279.66 799.08,279.40 799.48,279.14 799.88,278.88 800.27,278.62 800.67,278.37 801.07,278.12 801.46,277.87 801.86,277.62 802.26,277.37 802.65,277.13 803.05,276.88 803.45,276.64 803.84,276.40 804.24,276.17 804.64,275.93 805.03,275.70 805.43,275.47 805.82,275.24 806.22,275.01 806.62,274.78 807.01,274.56 807.41,274.33 807.81,274.11 808.20,273.89 808.60,273.67 809.00,273.46 809.39,273.24 809.79,273.03 810.19,272.82 810.58,272.61 810.98,272.40 811.38,272.19 811.77,271.99 812.17,271.78 812.56,271.58 812.96,271.38 813.36,271.18 813.75,270.98 814.15,270.78 814.55,270.59 814.94,270.39 815.34,270.20 815.74,270.01 816.13,269.82 816.53,269.63 816.93,269.44 817.32,269.26 817.72,269.07 818.12,268.89 818.51,268.71 818.91,268.52 819.31,268.34 819.70,268.17 820.10,267.99 820.49,267.81 820.89,267.64 821.29,267.46 821.68,267.29 822.08,267.12 822.48,266.95 822.87,266.78 823.27,266.61 823.67,266.45 824.06,266.28 824.46,266.11 824.86,265.95 825.25,265.79 825.65,265.63 826.05,265.47 826.44,265.31 826.84,265.15 827.23,264.99 827.63,264.83 828.03,264.68 828.42,264.52 828.82,264.37 829.22,264.22 829.61,264.06 830.01,263.91 830.41,263.76 830.80,263.61 831.20,263.47 831.60,263.32 831.99,263.17 832.39,263.03 832.79,262.88 833.18,262.74 833.58,262.59 833.98,262.45 834.37,262.31 834.77,262.17 835.16,262.03 835.56,261.89 835.96,261.75 836.35,261.61 836.75,261.47 837.15,261.34 837.54,261.20 837.94,261.06 838.34,260.93 838.73,260.79 839.13,260.66 839.53,260.53 839.92,260.39 840.32,260.26 840.72,260.13 841.11,260.00 841.51,259.87 841.90,259.74 842.30,259.61 842.70,259.48 843.09,259.35 843.49,259.22 843.89,259.09 844.28,258.96 844.68,258.84 845.08,258.71 845.47,258.58 845.87,258.45 846.27,258.33 846.66,258.20 847.06,258.07 847.46,257.95 847.85,257.82 848.25,257.69 848.64,257.57 849.04,257.44 849.44,257.31 849.83,257.18 850.23,257.06 850.63,256.93 851.02,256.80 851.42,256.67 851.82,256.54 852.21,256.41 852.61,256.28 853.01,256.14 853.40,256.01 853.80,255.87 854.20,255.73 854.59,255.59 854.99,255.45 855.39,255.30 855.78,255.15 856.18,254.99 856.57,254.83 856.97,254.66 857.37,254.49 857.76,254.30 858.16,254.10 858.56,253.87 858.95,253.61 859.35,253.24 859.75,252.67 860.14,249.49 860.54,236.98 860.94,229.37 861.33,224.08 861.73,217.47 862.13,210.82 862.52,203.19 862.92,196.97 863.31,190.44 863.71,184.74 864.11,178.78 864.50,173.39 864.90,168.16 865.30,166.17 865.69,164.78 866.09,163.89 866.49,163.17 866.88,162.67 867.28,162.24 867.68,161.97 868.07,161.71 868.47,161.57 868.87,161.41 869.26,161.34 869.66,161.24 870.06,161.21 870.45,161.14 870.85,161.14 871.24,161.09 871.64,161.09 872.04,161.05 872.43,161.07 872.83,161.03 873.23,161.06 873.62,161.02 874.02,161.05 874.42,161.02 874.81,161.04 875.21,161.02 875.61,161.04 876.00,161.02 876.40,161.04 876.80,161.02 877.19,161.04 877.59,161.02 877.98,161.04 878.38,161.02 878.78,161.04 879.17,161.02 879.57,161.04 879.97,161.02 880.36,161.04 880.76,161.02 881.16,161.04 881.55,161.02 881.95,161.04 882.35,161.02 882.74,161.05 883.14,161.02 883.54,161.05 883.93,161.02 884.33,161.05 884.73,161.03 885.12,161.05 885.52,161.03 885.91,161.05 886.31,161.03 886.71,161.05 887.10,161.03 887.50,161.05 887.75,161.03" fill="none" stroke="#1665d8" stroke-width="3" stroke-linejoin="round"/>
<polyline points="76.00,357.00 76.04,353.13 76.12,345.40 76.28,329.93 76.59,298.99 76.99,260.32 77.39,221.65 77.71,190.32 78.03,159.00 78.07,159.00 78.15,159.00 78.24,159.00 78.33,159.00 78.48,159.00 78.71,159.00 79.11,159.00 79.51,159.00 79.90,159.00 80.30,159.00 80.70,159.00 81.09,159.00 81.49,159.00 81.88,159.00 82.28,159.00 82.68,159.00 83.07,159.00 83.47,159.00 83.87,159.00 84.26,159.00 84.66,159.00 85.06,159.00 85.45,159.00 85.85,159.00 86.25,159.00 86.64,159.00 87.04,159.00 87.44,159.00 87.83,159.00 88.23,159.00 88.62,159.00 89.02,159.00 89.42,159.00 89.81,159.00 90.21,159.00 90.61,159.00 91.00,159.00 91.40,159.00 91.80,159.00 92.19,159.00 92.59,159.00 92.99,159.00 93.38,159.00 93.78,159.00 94.18,159.00 94.57,159.00 94.97,159.00 95.37,159.00 95.76,159.00 96.16,159.00 96.55,159.00 96.95,159.00 97.35,159.00 97.74,159.00 98.14,159.00 98.54,159.00 98.93,159.00 99.33,159.00 99.73,159.00 100.12,159.00 100.52,159.00 100.92,159.00 101.31,159.00 101.71,159.00 102.11,159.00 102.50,159.00 102.90,159.00 103.29,159.00 103.69,159.00 104.09,159.00 104.48,159.00 104.88,159.00 105.28,159.00 105.67,159.00 106.07,159.00 106.47,159.00 106.86,159.00 107.26,159.00 107.66,159.00 108.05,159.00 108.45,159.00 108.85,159.00 109.24,159.00 109.64,159.00 110.03,159.00 110.43,159.00 110.83,159.00 111.22,159.00 111.62,159.00 112.02,159.00 112.41,159.00 112.81,159.00 113.21,159.00 113.60,159.00 114.00,159.00 114.40,159.00 114.79,159.00 115.19,159.00 115.59,159.00 115.98,159.00 116.38,159.00 116.78,159.00 117.17,159.00 117.57,159.00 117.96,159.00 118.36,159.00 118.76,159.00 119.15,159.00 119.55,159.00 119.95,159.00 120.34,159.00 120.74,159.00 121.14,159.00 121.53,159.00 121.93,159.00 122.33,159.00 122.72,159.00 123.12,159.00 123.52,159.00 123.91,159.00 124.31,159.00 124.70,159.00 125.10,159.00 125.50,159.00 125.89,159.00 126.29,159.00 126.69,159.00 127.08,159.00 127.48,159.00 127.88,159.00 128.27,159.00 128.67,159.00 129.07,159.00 129.46,159.00 129.86,159.00 130.26,159.00 130.65,159.00 131.05,159.00 131.45,159.00 131.84,159.00 132.24,159.00 132.63,159.00 133.03,159.00 133.43,159.00 133.82,159.00 134.22,159.00 134.62,159.00 135.01,159.00 135.41,159.00 135.81,159.00 136.20,159.00 136.60,159.00 137.00,159.00 137.39,159.00 137.79,159.00 138.19,159.00 138.58,159.00 138.98,159.00 139.37,159.00 139.77,159.00 140.17,159.00 140.56,159.00 140.96,159.00 141.36,159.00 141.75,159.00 142.15,159.00 142.55,159.00 142.94,159.00 143.34,159.00 143.74,159.00 144.13,159.00 144.53,159.00 144.93,159.00 145.32,159.00 145.72,159.00 146.12,159.00 146.51,159.00 146.91,159.00 147.30,159.00 147.70,159.00 148.10,159.00 148.49,159.00 148.89,159.00 149.29,159.00 149.68,159.00 150.08,159.00 150.48,159.00 150.87,159.00 151.27,159.00 151.67,159.00 152.06,159.00 152.46,159.00 152.86,159.00 153.25,159.00 153.65,159.00 154.04,159.00 154.44,159.00 154.84,159.00 155.23,159.00 155.63,159.00 156.03,159.00 156.42,159.00 156.82,159.00 157.22,159.00 157.61,159.00 158.01,159.00 158.41,159.00 158.80,159.00 159.20,159.00 159.60,159.00 159.99,159.00 160.39,159.00 160.78,159.00 161.18,159.00 161.58,159.00 161.97,159.00 162.37,159.00 162.77,159.00 163.16,159.00 163.56,159.00 163.96,159.00 164.35,159.00 164.75,159.00 165.15,159.00 165.54,159.00 165.94,159.00 166.34,159.00 166.73,159.00 167.13,159.00 167.53,159.00 167.92,159.00 168.32,159.00 168.71,159.00 169.11,159.00 169.51,159.00 169.90,159.00 170.30,159.00 170.70,159.00 171.09,159.00 171.49,159.00 171.89,159.00 172.28,159.00 172.68,159.00 173.08,159.00 173.47,159.00 173.87,159.00 174.27,159.00 174.66,159.00 175.06,159.00 175.45,159.00 175.85,159.00 176.25,159.00 176.64,159.00 177.04,159.00 177.44,159.00 177.83,159.00 178.23,159.00 178.63,159.00 179.02,159.00 179.28,159.00 179.53,159.00 179.57,162.87 179.65,170.60 179.81,186.07 180.12,217.01 180.52,255.68 180.92,294.35 181.24,325.68 181.56,357.00 181.60,357.00 181.68,357.00 181.84,357.00 182.15,357.00 182.55,357.00 182.95,357.00 183.34,357.00 183.74,357.00 184.14,357.00 184.53,357.00 184.93,357.00 185.33,357.00 185.72,357.00 186.12,357.00 186.52,357.00 186.91,357.00 187.31,357.00 187.71,357.00 188.10,357.00 188.50,357.00 188.89,357.00 189.29,357.00 189.69,357.00 190.08,357.00 190.48,357.00 190.88,357.00 191.27,357.00 191.67,357.00 192.07,357.00 192.46,357.00 192.86,357.00 193.26,357.00 193.65,357.00 194.05,357.00 194.45,357.00 194.84,357.00 195.24,357.00 195.64,357.00 196.03,357.00 196.43,357.00 196.82,357.00 197.22,357.00 197.62,357.00 198.01,357.00 198.41,357.00 198.81,357.00 199.20,357.00 199.60,357.00 200.00,357.00 200.39,357.00 200.79,357.00 201.19,357.00 201.58,357.00 201.98,357.00 202.38,357.00 202.77,357.00 203.17,357.00 203.56,357.00 203.96,357.00 204.36,357.00 204.75,357.00 205.15,357.00 205.55,357.00 205.94,357.00 206.34,357.00 206.74,357.00 207.13,357.00 207.53,357.00 207.93,357.00 208.32,357.00 208.72,357.00 209.12,357.00 209.51,357.00 209.91,357.00 210.31,357.00 210.70,357.00 211.10,357.00 211.49,357.00 211.89,357.00 212.29,357.00 212.68,357.00 213.08,357.00 213.48,357.00 213.87,357.00 214.27,357.00 214.67,357.00 215.06,357.00 215.46,357.00 215.86,357.00 216.25,357.00 216.65,357.00 217.05,357.00 217.44,357.00 217.84,357.00 218.23,357.00 218.63,357.00 219.03,357.00 219.42,357.00 219.82,357.00 220.22,357.00 220.61,357.00 221.01,357.00 221.41,357.00 221.80,357.00 222.20,357.00 222.60,357.00 222.99,357.00 223.39,357.00 223.79,357.00 224.18,357.00 224.58,357.00 224.98,357.00 225.37,357.00 225.77,357.00 226.16,357.00 226.56,357.00 226.96,357.00 227.35,357.00 227.75,357.00 228.15,357.00 228.54,357.00 228.94,357.00 229.34,357.00 229.73,357.00 230.13,357.00 230.53,357.00 230.92,357.00 231.32,357.00 231.72,357.00 232.11,357.00 232.51,357.00 232.90,357.00 233.30,357.00 233.70,357.00 234.09,357.00 234.49,357.00 234.89,357.00 235.28,357.00 235.68,357.00 236.08,357.00 236.47,357.00 236.87,357.00 237.27,357.00 237.66,357.00 238.06,357.00 238.46,357.00 238.85,357.00 239.25,357.00 239.64,357.00 240.04,357.00 240.44,357.00 240.83,357.00 241.23,357.00 241.63,357.00 242.02,357.00 242.42,357.00 242.82,357.00 243.21,357.00 243.61,357.00 244.01,357.00 244.40,357.00 244.80,357.00 245.20,357.00 245.59,357.00 245.99,357.00 246.39,357.00 246.78,357.00 247.18,357.00 247.57,357.00 247.97,357.00 248.37,357.00 248.76,357.00 249.16,357.00 249.56,357.00 249.95,357.00 250.35,357.00 250.75,357.00 251.14,357.00 251.54,357.00 251.94,357.00 252.33,357.00 252.73,357.00 253.13,357.00 253.52,357.00 253.92,357.00 254.31,357.00 254.71,357.00 255.11,357.00 255.50,357.00 255.90,357.00 256.30,357.00 256.69,357.00 257.09,357.00 257.49,357.00 257.88,357.00 258.28,357.00 258.68,357.00 259.07,357.00 259.47,357.00 259.87,357.00 260.26,357.00 260.66,357.00 261.06,357.00 261.45,357.00 261.85,357.00 262.24,357.00 262.64,357.00 263.04,357.00 263.43,357.00 263.83,357.00 264.23,357.00 264.62,357.00 265.02,357.00 265.42,357.00 265.81,357.00 266.21,357.00 266.61,357.00 267.00,357.00 267.40,357.00 267.80,357.00 268.19,357.00 268.59,357.00 268.98,357.00 269.38,357.00 269.78,357.00 270.17,357.00 270.57,357.00 270.97,357.00 271.36,357.00 271.76,357.00 272.16,357.00 272.55,357.00 272.95,357.00 273.35,357.00 273.74,357.00 274.14,357.00 274.54,357.00 274.93,357.00 275.33,357.00 275.73,357.00 276.12,357.00 276.52,357.00 276.91,357.00 277.31,357.00 277.71,357.00 278.10,357.00 278.50,357.00 278.75,357.00 279.00,357.00 279.04,353.13 279.12,345.40 279.28,329.93 279.58,300.23 279.98,261.90 280.37,223.23 280.70,191.11 281.03,159.00 281.07,159.00 281.15,159.00 281.25,159.00 281.34,159.00 281.51,159.00 281.79,159.00 282.19,159.00 282.58,159.00 282.98,159.00 283.38,159.00 283.77,159.00 284.17,159.00 284.56,159.00 284.96,159.00 285.36,159.00 285.75,159.00 286.15,159.00 286.55,159.00 286.94,159.00 287.34,159.00 287.74,159.00 288.13,159.00 288.53,159.00 288.93,159.00 289.32,159.00 289.72,159.00 290.12,159.00 290.51,159.00 290.91,159.00 291.30,159.00 291.70,159.00 292.10,159.00 292.49,159.00 292.89,159.00 293.29,159.00 293.68,159.00 294.08,159.00 294.48,159.00 294.87,159.00 295.27,159.00 295.67,159.00 296.06,159.00 296.46,159.00 296.86,159.00 297.25,159.00 297.65,159.00 298.05,159.00 298.44,159.00 298.84,159.00 299.23,159.00 299.63,159.00 300.03,159.00 300.42,159.00 300.82,159.00 301.22,159.00 301.61,159.00 302.01,159.00 302.41,159.00 302.80,159.00 303.20,159.00 303.60,159.00 303.99,159.00 304.39,159.00 304.79,159.00 305.18,159.00 305.58,159.00 305.97,159.00 306.37,159.00 306.77,159.00 307.16,159.00 307.56,159.00 307.96,159.00 308.35,159.00 308.75,159.00 309.15,159.00 309.54,159.00 309.94,159.00 310.34,159.00 310.73,159.00 311.13,159.00 311.53,159.00 311.92,159.00 312.32,159.00 312.72,159.00 313.11,159.00 313.51,159.00 313.90,159.00 314.30,159.00 314.70,159.00 315.09,159.00 315.49,159.00 315.89,159.00 316.28,159.00 316.68,159.00 317.08,159.00 317.47,159.00 317.87,159.00 318.27,159.00 318.66,159.00 319.06,159.00 319.46,159.00 319.85,159.00 320.25,159.00 320.64,159.00 321.04,159.00 321.44,159.00 321.83,159.00 322.23,159.00 322.63,159.00 323.02,159.00 323.42,159.00 323.82,159.00 324.21,159.00 324.61,159.00 325.01,159.00 325.40,159.00 325.80,159.00 326.20,159.00 326.59,159.00 326.99,159.00 327.39,159.00 327.78,159.00 328.18,159.00 328.57,159.00 328.97,159.00 329.37,159.00 329.76,159.00 330.16,159.00 330.56,159.00 330.95,159.00 331.35,159.00 331.75,159.00 332.14,159.00 332.54,159.00 332.94,159.00 333.33,159.00 333.73,159.00 334.13,159.00 334.52,159.00 334.92,159.00 335.31,159.00 335.71,159.00 336.11,159.00 336.50,159.00 336.90,159.00 337.30,159.00 337.69,159.00 338.09,159.00 338.49,159.00 338.88,159.00 339.28,159.00 339.68,159.00 340.07,159.00 340.47,159.00 340.87,159.00 341.26,159.00 341.66,159.00 342.05,159.00 342.45,159.00 342.85,159.00 343.24,159.00 343.64,159.00 344.04,159.00 344.43,159.00 344.83,159.00 345.23,159.00 345.62,159.00 346.02,159.00 346.42,159.00 346.81,159.00 347.21,159.00 347.61,159.00 348.00,159.00 348.40,159.00 348.80,159.00 349.19,159.00 349.59,159.00 349.98,159.00 350.38,159.00 350.78,159.00 351.17,159.00 351.57,159.00 351.97,159.00 352.36,159.00 352.76,159.00 353.16,159.00 353.55,159.00 353.95,159.00 354.35,159.00 354.74,159.00 355.14,159.00 355.54,159.00 355.93,159.00 356.33,159.00 356.72,159.00 357.12,159.00 357.52,159.00 357.91,159.00 358.31,159.00 358.71,159.00 359.10,159.00 359.50,159.00 359.90,159.00 360.29,159.00 360.69,159.00 361.09,159.00 361.48,159.00 361.88,159.00 362.28,159.00 362.67,159.00 363.07,159.00 363.47,159.00 363.86,159.00 364.26,159.00 364.65,159.00 365.05,159.00 365.45,159.00 365.84,159.00 366.24,159.00 366.64,159.00 367.03,159.00 367.43,159.00 367.83,159.00 368.22,159.00 368.62,159.00 369.02,159.00 369.41,159.00 369.81,159.00 370.21,159.00 370.60,159.00 371.00,159.00 371.39,159.00 371.79,159.00 372.19,159.00 372.58,159.00 372.98,159.00 373.38,159.00 373.77,159.00 374.17,159.00 374.57,159.00 374.96,159.00 375.36,159.00 375.76,159.00 376.15,159.00 376.55,159.00 376.95,159.00 377.34,159.00 377.74,159.00 378.14,159.00 378.53,159.00 378.93,159.00 379.32,159.00 379.72,159.00 380.12,159.00 380.51,159.00 380.91,159.00 381.31,159.00 381.70,159.00 382.10,159.00 382.31,159.00 382.53,159.00 382.57,162.87 382.65,170.60 382.81,186.07 383.12,217.01 383.52,255.68 383.92,294.35 384.24,325.68 384.56,357.00 384.60,357.00 384.68,357.00 384.84,357.00 385.15,357.00 385.55,357.00 385.95,357.00 386.34,357.00 386.74,357.00 387.14,357.00 387.53,357.00 387.93,357.00 388.33,357.00 388.72,357.00 389.12,357.00 389.52,357.00 389.91,357.00 390.31,357.00 390.71,357.00 391.10,357.00 391.50,357.00 391.89,357.00 392.29,357.00 392.69,357.00 393.08,357.00 393.48,357.00 393.88,357.00 394.27,357.00 394.67,357.00 395.07,357.00 395.46,357.00 395.86,357.00 396.26,357.00 396.65,357.00 397.05,357.00 397.45,357.00 397.84,357.00 398.24,357.00 398.64,357.00 399.03,357.00 399.43,357.00 399.82,357.00 400.22,357.00 400.62,357.00 401.01,357.00 401.41,357.00 401.81,357.00 402.20,357.00 402.60,357.00 403.00,357.00 403.39,357.00 403.79,357.00 404.19,357.00 404.58,357.00 404.98,357.00 405.38,357.00 405.77,357.00 406.17,357.00 406.56,357.00 406.96,357.00 407.36,357.00 407.75,357.00 408.15,357.00 408.55,357.00 408.94,357.00 409.34,357.00 409.74,357.00 410.13,357.00 410.53,357.00 410.93,357.00 411.32,357.00 411.72,357.00 412.12,357.00 412.51,357.00 412.91,357.00 413.31,357.00 413.70,357.00 414.10,357.00 414.49,357.00 414.89,357.00 415.29,357.00 415.68,357.00 416.08,357.00 416.48,357.00 416.87,357.00 417.27,357.00 417.67,357.00 418.06,357.00 418.46,357.00 418.86,357.00 419.25,357.00 419.65,357.00 420.05,357.00 420.44,357.00 420.84,357.00 421.23,357.00 421.63,357.00 422.03,357.00 422.42,357.00 422.82,357.00 423.22,357.00 423.61,357.00 424.01,357.00 424.41,357.00 424.80,357.00 425.20,357.00 425.60,357.00 425.99,357.00 426.39,357.00 426.79,357.00 427.18,357.00 427.58,357.00 427.98,357.00 428.37,357.00 428.77,357.00 429.16,357.00 429.56,357.00 429.96,357.00 430.35,357.00 430.75,357.00 431.15,357.00 431.54,357.00 431.94,357.00 432.34,357.00 432.73,357.00 433.13,357.00 433.53,357.00 433.92,357.00 434.32,357.00 434.72,357.00 435.11,357.00 435.51,357.00 435.90,357.00 436.30,357.00 436.70,357.00 437.09,357.00 437.49,357.00 437.89,357.00 438.28,357.00 438.68,357.00 439.08,357.00 439.47,357.00 439.87,357.00 440.27,357.00 440.66,357.00 441.06,357.00 441.46,357.00 441.85,357.00 442.25,357.00 442.64,357.00 443.04,357.00 443.44,357.00 443.83,357.00 444.23,357.00 444.63,357.00 445.02,357.00 445.42,357.00 445.82,357.00 446.21,357.00 446.61,357.00 447.01,357.00 447.40,357.00 447.80,357.00 448.20,357.00 448.59,357.00 448.99,357.00 449.39,357.00 449.78,357.00 450.18,357.00 450.57,357.00 450.97,357.00 451.37,357.00 451.76,357.00 452.16,357.00 452.56,357.00 452.95,357.00 453.35,357.00 453.75,357.00 454.14,357.00 454.54,357.00 454.94,357.00 455.33,357.00 455.73,357.00 456.13,357.00 456.52,357.00 456.92,357.00 457.31,357.00 457.71,357.00 458.11,357.00 458.50,357.00 458.90,357.00 459.30,357.00 459.69,357.00 460.09,357.00 460.49,357.00 460.88,357.00 461.28,357.00 461.68,357.00 462.07,357.00 462.47,357.00 462.87,357.00 463.26,357.00 463.66,357.00 464.06,357.00 464.45,357.00 464.85,357.00 465.24,357.00 465.64,357.00 466.04,357.00 466.43,357.00 466.83,357.00 467.23,357.00 467.62,357.00 468.02,357.00 468.42,357.00 468.81,357.00 469.21,357.00 469.61,357.00 470.00,357.00 470.40,357.00 470.80,357.00 471.19,357.00 471.59,357.00 471.98,357.00 472.38,357.00 472.78,357.00 473.17,357.00 473.57,357.00 473.97,357.00 474.36,357.00 474.76,357.00 475.16,357.00 475.55,357.00 475.95,357.00 476.35,357.00 476.74,357.00 477.14,357.00 477.54,357.00 477.93,357.00 478.33,357.00 478.73,357.00 479.12,357.00 479.52,357.00 479.91,357.00 480.31,357.00 480.71,357.00 481.10,357.00 481.50,357.00 481.75,357.00 482.00,357.00 482.04,353.13 482.12,345.40 482.28,329.93 482.58,300.44 482.97,262.22 483.37,223.55 483.70,191.27 484.03,159.00 484.07,159.00 484.15,159.00 484.25,159.00 484.35,159.00 484.52,159.00 484.81,159.00 485.21,159.00 485.60,159.00 486.00,159.00 486.40,159.00 486.79,159.00 487.19,159.00 487.58,159.00 487.98,159.00 488.38,159.00 488.77,159.00 489.17,159.00 489.57,159.00 489.96,159.00 490.36,159.00 490.76,159.00 491.15,159.00 491.55,159.00 491.95,159.00 492.34,159.00 492.74,159.00 493.14,159.00 493.53,159.00 493.93,159.00 494.33,159.00 494.72,159.00 495.12,159.00 495.51,159.00 495.91,159.00 496.31,159.00 496.70,159.00 497.10,159.00 497.50,159.00 497.89,159.00 498.29,159.00 498.69,159.00 499.08,159.00 499.48,159.00 499.88,159.00 500.27,159.00 500.67,159.00 501.07,159.00 501.46,159.00 501.86,159.00 502.25,159.00 502.65,159.00 503.05,159.00 503.44,159.00 503.84,159.00 504.24,159.00 504.63,159.00 505.03,159.00 505.43,159.00 505.82,159.00 506.22,159.00 506.62,159.00 507.01,159.00 507.41,159.00 507.81,159.00 508.20,159.00 508.60,159.00 509.00,159.00 509.39,159.00 509.79,159.00 510.18,159.00 510.58,159.00 510.98,159.00 511.37,159.00 511.77,159.00 512.17,159.00 512.56,159.00 512.96,159.00 513.36,159.00 513.75,159.00 514.15,159.00 514.55,159.00 514.94,159.00 515.34,159.00 515.74,159.00 516.13,159.00 516.53,159.00 516.92,159.00 517.32,159.00 517.72,159.00 518.11,159.00 518.51,159.00 518.91,159.00 519.30,159.00 519.70,159.00 520.10,159.00 520.49,159.00 520.89,159.00 521.29,159.00 521.68,159.00 522.08,159.00 522.48,159.00 522.87,159.00 523.27,159.00 523.66,159.00 524.06,159.00 524.46,159.00 524.85,159.00 525.25,159.00 525.65,159.00 526.04,159.00 526.44,159.00 526.84,159.00 527.23,159.00 527.63,159.00 528.03,159.00 528.42,159.00 528.82,159.00 529.22,159.00 529.61,159.00 530.01,159.00 530.41,159.00 530.80,159.00 531.20,159.00 531.59,159.00 531.99,159.00 532.39,159.00 532.78,159.00 533.18,159.00 533.58,159.00 533.97,159.00 534.37,159.00 534.77,159.00 535.16,159.00 535.56,159.00 535.96,159.00 536.35,159.00 536.75,159.00 537.15,159.00 537.54,159.00 537.94,159.00 538.33,159.00 538.73,159.00 539.13,159.00 539.52,159.00 539.92,159.00 540.32,159.00 540.71,159.00 541.11,159.00 541.51,159.00 541.90,159.00 542.30,159.00 542.70,159.00 543.09,159.00 543.49,159.00 543.89,159.00 544.28,159.00 544.68,159.00 545.08,159.00 545.47,159.00 545.87,159.00 546.26,159.00 546.66,159.00 547.06,159.00 547.45,159.00 547.85,159.00 548.25,159.00 548.64,159.00 549.04,159.00 549.44,159.00 549.83,159.00 550.23,159.00 550.63,159.00 551.02,159.00 551.42,159.00 551.82,159.00 552.21,159.00 552.61,159.00 553.00,159.00 553.40,159.00 553.80,159.00 554.19,159.00 554.59,159.00 554.99,159.00 555.38,159.00 555.78,159.00 556.18,159.00 556.57,159.00 556.97,159.00 557.37,159.00 557.76,159.00 558.16,159.00 558.56,159.00 558.95,159.00 559.35,159.00 559.75,159.00 560.14,159.00 560.54,159.00 560.93,159.00 561.33,159.00 561.73,159.00 562.12,159.00 562.52,159.00 562.92,159.00 563.31,159.00 563.71,159.00 564.11,159.00 564.50,159.00 564.90,159.00 565.30,159.00 565.69,159.00 566.09,159.00 566.49,159.00 566.88,159.00 567.28,159.00 567.67,159.00 568.07,159.00 568.47,159.00 568.86,159.00 569.26,159.00 569.66,159.00 570.05,159.00 570.45,159.00 570.85,159.00 571.24,159.00 571.64,159.00 572.04,159.00 572.43,159.00 572.83,159.00 573.23,159.00 573.62,159.00 574.02,159.00 574.41,159.00 574.81,159.00 575.21,159.00 575.60,159.00 576.00,159.00 576.40,159.00 576.79,159.00 577.19,159.00 577.59,159.00 577.98,159.00 578.38,159.00 578.78,159.00 579.17,159.00 579.57,159.00 579.97,159.00 580.36,159.00 580.76,159.00 581.16,159.00 581.55,159.00 581.95,159.00 582.34,159.00 582.74,159.00 583.14,159.00 583.53,159.00 583.93,159.00 584.33,159.00 584.72,159.00 585.12,159.00 585.32,159.00 585.53,159.00 585.57,162.87 585.65,170.60 585.81,186.07 586.12,217.01 586.52,255.68 586.92,294.35 587.24,325.68 587.56,357.00 587.60,357.00 587.68,357.00 587.84,357.00 588.15,357.00 588.55,357.00 588.95,357.00 589.34,357.00 589.74,357.00 590.14,357.00 590.53,357.00 590.93,357.00 591.33,357.00 591.72,357.00 592.12,357.00 592.52,357.00 592.91,357.00 593.31,357.00 593.71,357.00 594.10,357.00 594.50,357.00 594.89,357.00 595.29,357.00 595.69,357.00 596.08,357.00 596.48,357.00 596.88,357.00 597.27,357.00 597.67,357.00 598.07,357.00 598.46,357.00 598.86,357.00 599.26,357.00 599.65,357.00 600.05,357.00 600.45,357.00 600.84,357.00 601.24,357.00 601.64,357.00 602.03,357.00 602.43,357.00 602.82,357.00 603.22,357.00 603.62,357.00 604.01,357.00 604.41,357.00 604.81,357.00 605.20,357.00 605.60,357.00 606.00,357.00 606.39,357.00 606.79,357.00 607.19,357.00 607.58,357.00 607.98,357.00 608.38,357.00 608.77,357.00 609.17,357.00 609.56,357.00 609.96,357.00 610.36,357.00 610.75,357.00 611.15,357.00 611.55,357.00 611.94,357.00 612.34,357.00 612.74,357.00 613.13,357.00 613.53,357.00 613.93,357.00 614.32,357.00 614.72,357.00 615.12,357.00 615.51,357.00 615.91,357.00 616.31,357.00 616.70,357.00 617.10,357.00 617.49,357.00 617.89,357.00 618.29,357.00 618.68,357.00 619.08,357.00 619.48,357.00 619.87,357.00 620.27,357.00 620.67,357.00 621.06,357.00 621.46,357.00 621.86,357.00 622.25,357.00 622.65,357.00 623.05,357.00 623.44,357.00 623.84,357.00 624.23,357.00 624.63,357.00 625.03,357.00 625.42,357.00 625.82,357.00 626.22,357.00 626.61,357.00 627.01,357.00 627.41,357.00 627.80,357.00 628.20,357.00 628.60,357.00 628.99,357.00 629.39,357.00 629.79,357.00 630.18,357.00 630.58,357.00 630.98,357.00 631.37,357.00 631.77,357.00 632.16,357.00 632.56,357.00 632.96,357.00 633.35,357.00 633.75,357.00 634.15,357.00 634.54,357.00 634.94,357.00 635.34,357.00 635.73,357.00 636.13,357.00 636.53,357.00 636.92,357.00 637.32,357.00 637.72,357.00 638.11,357.00 638.51,357.00 638.90,357.00 639.30,357.00 639.70,357.00 640.09,357.00 640.49,357.00 640.89,357.00 641.28,357.00 641.68,357.00 642.08,357.00 642.47,357.00 642.87,357.00 643.27,357.00 643.66,357.00 644.06,357.00 644.46,357.00 644.85,357.00 645.25,357.00 645.64,357.00 646.04,357.00 646.44,357.00 646.83,357.00 647.23,357.00 647.63,357.00 648.02,357.00 648.42,357.00 648.82,357.00 649.21,357.00 649.61,357.00 650.01,357.00 650.40,357.00 650.80,357.00 651.20,357.00 651.59,357.00 651.99,357.00 652.39,357.00 652.78,357.00 653.18,357.00 653.57,357.00 653.97,357.00 654.37,357.00 654.76,357.00 655.16,357.00 655.56,357.00 655.95,357.00 656.35,357.00 656.75,357.00 657.14,357.00 657.54,357.00 657.94,357.00 658.33,357.00 658.73,357.00 659.13,357.00 659.52,357.00 659.92,357.00 660.31,357.00 660.71,357.00 661.11,357.00 661.50,357.00 661.90,357.00 662.30,357.00 662.69,357.00 663.09,357.00 663.49,357.00 663.88,357.00 664.28,357.00 664.68,357.00 665.07,357.00 665.47,357.00 665.87,357.00 666.26,357.00 666.66,357.00 667.06,357.00 667.45,357.00 667.85,357.00 668.24,357.00 668.64,357.00 669.04,357.00 669.43,357.00 669.83,357.00 670.23,357.00 670.62,357.00 671.02,357.00 671.42,357.00 671.81,357.00 672.21,357.00 672.61,357.00 673.00,357.00 673.40,357.00 673.80,357.00 674.19,357.00 674.59,357.00 674.98,357.00 675.38,357.00 675.78,357.00 676.17,357.00 676.57,357.00 676.97,357.00 677.36,357.00 677.76,357.00 678.16,357.00 678.55,357.00 678.95,357.00 679.35,357.00 679.74,357.00 680.14,357.00 680.54,357.00 680.93,357.00 681.33,357.00 681.73,357.00 682.12,357.00 682.52,357.00 682.91,357.00 683.31,357.00 683.71,357.00 684.10,357.00 684.50,357.00 684.75,357.00 685.00,357.00 685.04,353.13 685.12,345.40 685.28,329.93 685.58,300.01 685.98,261.53 686.38,222.86 686.70,190.93 687.03,159.00 687.07,159.00 687.15,159.00 687.25,159.00 687.34,159.00 687.51,159.00 687.78,159.00 688.18,159.00 688.58,159.00 688.97,159.00 689.37,159.00 689.77,159.00 690.16,159.00 690.56,159.00 690.96,159.00 691.35,159.00 691.75,159.00 692.14,159.00 692.54,159.00 692.94,159.00 693.33,159.00 693.73,159.00 694.13,159.00 694.52,159.00 694.92,159.00 695.32,159.00 695.71,159.00 696.11,159.00 696.51,159.00 696.90,159.00 697.30,159.00 697.70,159.00 698.09,159.00 698.49,159.00 698.88,159.00 699.28,159.00 699.68,159.00 700.07,159.00 700.47,159.00 700.87,159.00 701.26,159.00 701.66,159.00 702.06,159.00 702.45,159.00 702.85,159.00 703.25,159.00 703.64,159.00 704.04,159.00 704.44,159.00 704.83,159.00 705.23,159.00 705.63,159.00 706.02,159.00 706.42,159.00 706.81,159.00 707.21,159.00 707.61,159.00 708.00,159.00 708.40,159.00 708.80,159.00 709.19,159.00 709.59,159.00 709.99,159.00 710.38,159.00 710.78,159.00 711.18,159.00 711.57,159.00 711.97,159.00 712.37,159.00 712.76,159.00 713.16,159.00 713.55,159.00 713.95,159.00 714.35,159.00 714.74,159.00 715.14,159.00 715.54,159.00 715.93,159.00 716.33,159.00 716.73,159.00 717.12,159.00 717.52,159.00 717.92,159.00 718.31,159.00 718.71,159.00 719.11,159.00 719.50,159.00 719.90,159.00 720.30,159.00 720.69,159.00 721.09,159.00 721.48,159.00 721.88,159.00 722.28,159.00 722.67,159.00 723.07,159.00 723.47,159.00 723.86,159.00 724.26,159.00 724.66,159.00 725.05,159.00 725.45,159.00 725.85,159.00 726.24,159.00 726.64,159.00 727.04,159.00 727.43,159.00 727.83,159.00 728.22,159.00 728.62,159.00 729.02,159.00 729.41,159.00 729.81,159.00 730.21,159.00 730.60,159.00 731.00,159.00 731.40,159.00 731.79,159.00 732.19,159.00 732.59,159.00 732.98,159.00 733.38,159.00 733.78,159.00 734.17,159.00 734.57,159.00 734.96,159.00 735.36,159.00 735.76,159.00 736.15,159.00 736.55,159.00 736.95,159.00 737.34,159.00 737.74,159.00 738.14,159.00 738.53,159.00 738.93,159.00 739.33,159.00 739.72,159.00 740.12,159.00 740.52,159.00 740.91,159.00 741.31,159.00 741.71,159.00 742.10,159.00 742.50,159.00 742.89,159.00 743.29,159.00 743.69,159.00 744.08,159.00 744.48,159.00 744.88,159.00 745.27,159.00 745.67,159.00 746.07,159.00 746.46,159.00 746.86,159.00 747.26,159.00 747.65,159.00 748.05,159.00 748.45,159.00 748.84,159.00 749.24,159.00 749.63,159.00 750.03,159.00 750.43,159.00 750.82,159.00 751.22,159.00 751.62,159.00 752.01,159.00 752.41,159.00 752.81,159.00 753.20,159.00 753.60,159.00 754.00,159.00 754.39,159.00 754.79,159.00 755.19,159.00 755.58,159.00 755.98,159.00 756.38,159.00 756.77,159.00 757.17,159.00 757.56,159.00 757.96,159.00 758.36,159.00 758.75,159.00 759.15,159.00 759.55,159.00 759.94,159.00 760.34,159.00 760.74,159.00 761.13,159.00 761.53,159.00 761.93,159.00 762.32,159.00 762.72,159.00 763.12,159.00 763.51,159.00 763.91,159.00 764.30,159.00 764.70,159.00 765.10,159.00 765.49,159.00 765.89,159.00 766.29,159.00 766.68,159.00 767.08,159.00 767.48,159.00 767.87,159.00 768.27,159.00 768.67,159.00 769.06,159.00 769.46,159.00 769.86,159.00 770.25,159.00 770.65,159.00 771.05,159.00 771.44,159.00 771.84,159.00 772.23,159.00 772.63,159.00 773.03,159.00 773.42,159.00 773.82,159.00 774.22,159.00 774.61,159.00 775.01,159.00 775.41,159.00 775.80,159.00 776.20,159.00 776.60,159.00 776.99,159.00 777.39,159.00 777.79,159.00 778.18,159.00 778.58,159.00 778.97,159.00 779.37,159.00 779.77,159.00 780.16,159.00 780.56,159.00 780.96,159.00 781.35,159.00 781.75,159.00 782.15,159.00 782.54,159.00 782.94,159.00 783.34,159.00 783.73,159.00 784.13,159.00 784.53,159.00 784.92,159.00 785.32,159.00 785.71,159.00 786.11,159.00 786.51,159.00 786.90,159.00 787.30,159.00 787.70,159.00 788.09,159.00 788.31,159.00 788.53,159.00 788.57,162.87 788.65,170.60 788.81,186.07 789.12,217.01 789.52,255.68 789.92,294.35 790.24,325.68 790.56,357.00 790.60,357.00 790.68,357.00 790.84,357.00 791.15,357.00 791.55,357.00 791.95,357.00 792.34,357.00 792.74,357.00 793.14,357.00 793.53,357.00 793.93,357.00 794.33,357.00 794.72,357.00 795.12,357.00 795.52,357.00 795.91,357.00 796.31,357.00 796.71,357.00 797.10,357.00 797.50,357.00 797.89,357.00 798.29,357.00 798.69,357.00 799.08,357.00 799.48,357.00 799.88,357.00 800.27,357.00 800.67,357.00 801.07,357.00 801.46,357.00 801.86,357.00 802.26,357.00 802.65,357.00 803.05,357.00 803.45,357.00 803.84,357.00 804.24,357.00 804.64,357.00 805.03,357.00 805.43,357.00 805.82,357.00 806.22,357.00 806.62,357.00 807.01,357.00 807.41,357.00 807.81,357.00 808.20,357.00 808.60,357.00 809.00,357.00 809.39,357.00 809.79,357.00 810.19,357.00 810.58,357.00 810.98,357.00 811.38,357.00 811.77,357.00 812.17,357.00 812.56,357.00 812.96,357.00 813.36,357.00 813.75,357.00 814.15,357.00 814.55,357.00 814.94,357.00 815.34,357.00 815.74,357.00 816.13,357.00 816.53,357.00 816.93,357.00 817.32,357.00 817.72,357.00 818.12,357.00 818.51,357.00 818.91,357.00 819.31,357.00 819.70,357.00 820.10,357.00 820.49,357.00 820.89,357.00 821.29,357.00 821.68,357.00 822.08,357.00 822.48,357.00 822.87,357.00 823.27,357.00 823.67,357.00 824.06,357.00 824.46,357.00 824.86,357.00 825.25,357.00 825.65,357.00 826.05,357.00 826.44,357.00 826.84,357.00 827.23,357.00 827.63,357.00 828.03,357.00 828.42,357.00 828.82,357.00 829.22,357.00 829.61,357.00 830.01,357.00 830.41,357.00 830.80,357.00 831.20,357.00 831.60,357.00 831.99,357.00 832.39,357.00 832.79,357.00 833.18,357.00 833.58,357.00 833.98,357.00 834.37,357.00 834.77,357.00 835.16,357.00 835.56,357.00 835.96,357.00 836.35,357.00 836.75,357.00 837.15,357.00 837.54,357.00 837.94,357.00 838.34,357.00 838.73,357.00 839.13,357.00 839.53,357.00 839.92,357.00 840.32,357.00 840.72,357.00 841.11,357.00 841.51,357.00 841.90,357.00 842.30,357.00 842.70,357.00 843.09,357.00 843.49,357.00 843.89,357.00 844.28,357.00 844.68,357.00 845.08,357.00 845.47,357.00 845.87,357.00 846.27,357.00 846.66,357.00 847.06,357.00 847.46,357.00 847.85,357.00 848.25,357.00 848.64,357.00 849.04,357.00 849.44,357.00 849.83,357.00 850.23,357.00 850.63,357.00 851.02,357.00 851.42,357.00 851.82,357.00 852.21,357.00 852.61,357.00 853.01,357.00 853.40,357.00 853.80,357.00 854.20,357.00 854.59,357.00 854.99,357.00 855.39,357.00 855.78,357.00 856.18,357.00 856.57,357.00 856.97,357.00 857.37,357.00 857.76,357.00 858.16,357.00 858.56,357.00 858.95,357.00 859.35,357.00 859.75,357.00 860.14,357.00 860.54,357.00 860.94,357.00 861.33,357.00 861.73,357.00 862.13,357.00 862.52,357.00 862.92,357.00 863.31,357.00 863.71,357.00 864.11,357.00 864.50,357.00 864.90,357.00 865.30,357.00 865.69,357.00 866.09,357.00 866.49,357.00 866.88,357.00 867.28,357.00 867.68,357.00 868.07,357.00 868.47,357.00 868.87,357.00 869.26,357.00 869.66,357.00 870.06,357.00 870.45,357.00 870.85,357.00 871.24,357.00 871.64,357.00 872.04,357.00 872.43,357.00 872.83,357.00 873.23,357.00 873.62,357.00 874.02,357.00 874.42,357.00 874.81,357.00 875.21,357.00 875.61,357.00 876.00,357.00 876.40,357.00 876.80,357.00 877.19,357.00 877.59,357.00 877.98,357.00 878.38,357.00 878.78,357.00 879.17,357.00 879.57,357.00 879.97,357.00 880.36,357.00 880.76,357.00 881.16,357.00 881.55,357.00 881.95,357.00 882.35,357.00 882.74,357.00 883.14,357.00 883.54,357.00 883.93,357.00 884.33,357.00 884.73,357.00 885.12,357.00 885.52,357.00 885.91,357.00 886.31,357.00 886.71,357.00 887.10,357.00 887.50,357.00 887.75,357.00" fill="none" stroke="#b54708" stroke-width="3" stroke-linejoin="round"/>
<rect x="670" y="62" width="190" height="70" rx="4" ry="4" fill="#fff" fill-opacity="0.82" stroke="#111" stroke-width="1"/>
<line x1="682" y1="78" x2="718" y2="78" stroke="#1665d8" stroke-width="3"/>
<text x="728" y="83" font-family="Arial, Helvetica, sans-serif" font-size="13" font-weight="400" text-anchor="start" fill="#111">load output</text>
<line x1="682" y1="104" x2="718" y2="104" stroke="#b54708" stroke-width="3"/>
<text x="728" y="109" font-family="Arial, Helvetica, sans-serif" font-size="13" font-weight="400" text-anchor="start" fill="#111">input x10</text>
<text x="460" y="502" font-family="Arial, Helvetica, sans-serif" font-size="14" font-weight="400" text-anchor="middle" fill="#111">Time after 60 ms settling, ms</text>
<text x="22" y="260" font-family="Arial, Helvetica, sans-serif" font-size="14" text-anchor="middle" fill="#111" transform="rotate(-90 22 260)">Voltage, V</text>
</svg>
