<svg xmlns="http://www.w3.org/2000/svg" width="1200" height="900" viewBox="0 0 1200 900">
<defs>
<style>
.wire{stroke:#111;stroke-width:2.6;fill:none;stroke-linecap:round;stroke-linejoin:round}
.thin{stroke:#111;stroke-width:1.7;fill:none;stroke-linecap:round;stroke-linejoin:round}
.node{fill:#111;stroke:none}
.label{font-family:Arial, Helvetica, sans-serif;font-size:16px;font-weight:700;fill:#111}
.note{font-family:Arial, Helvetica, sans-serif;font-size:13px;font-weight:400;fill:#333}
.title{font-family:Arial, Helvetica, sans-serif;font-size:24px;font-weight:700;fill:#111}
.small{font-family:Arial, Helvetica, sans-serif;font-size:12px;font-weight:400;fill:#444}
</style>
</defs>
<rect width="100%" height="100%" fill="#fff"/>
<text x="40" y="42" class="title">Project-local schematic symbol library</text>
<text x="40" y="66" class="note">Redrawn symbols for radio/audio schematics; preserve symbol proportions before optimizing wire length.</text>

<g transform="translate(50 110)">
<text x="0" y="-18" class="label">Resistor, R</text>
<line x1="0" y1="30" x2="42" y2="30" class="wire"/>
<rect x="42" y="10" width="84" height="40" class="wire"/>
<line x1="126" y1="30" x2="170" y2="30" class="wire"/>
<text x="0" y="78" class="note">GOST/IEC rectangle; do not squash.</text>
</g>

<g transform="translate(330 110)">
<text x="0" y="-18" class="label">Variable resistor, RP</text>
<line x1="0" y1="30" x2="42" y2="30" class="wire"/>
<rect x="42" y="10" width="84" height="40" class="wire"/>
<line x1="126" y1="30" x2="170" y2="30" class="wire"/>
<line x1="66" y1="62" x2="114" y2="-4" class="wire"/>
<polyline points="105,0 114,-4 113,7" class="wire"/>
<text x="0" y="78" class="note">Arrow shows adjustable element.</text>
</g>

<g transform="translate(620 110)">
<text x="0" y="-18" class="label">Capacitor, C</text>
<line x1="0" y1="30" x2="70" y2="30" class="wire"/>
<line x1="70" y1="2" x2="70" y2="58" class="wire"/>
<line x1="100" y1="2" x2="100" y2="58" class="wire"/>
<line x1="100" y1="30" x2="170" y2="30" class="wire"/>
<text x="0" y="78" class="note">Non-polarized capacitor.</text>
</g>

<g transform="translate(900 110)">
<text x="0" y="-18" class="label">Electrolytic capacitor, C</text>
<line x1="0" y1="30" x2="70" y2="30" class="wire"/>
<line x1="70" y1="2" x2="70" y2="58" class="wire"/>
<line x1="100" y1="2" x2="100" y2="58" class="wire"/>
<line x1="100" y1="30" x2="170" y2="30" class="wire"/>
<text x="54" y="-8" class="label">+</text>
<text x="0" y="78" class="note">Use separate polarity mark.</text>
</g>

<g transform="translate(50 255)">
<text x="0" y="-18" class="label">Inductor, L</text>
<line x1="0" y1="30" x2="35" y2="30" class="wire"/>
<path d="M35 30 C35 4 65 4 65 30 C65 4 95 4 95 30 C95 4 125 4 125 30 C125 4 155 4 155 30" class="wire"/>
<line x1="155" y1="30" x2="190" y2="30" class="wire"/>
<text x="0" y="78" class="note">Coil; add core lines only when needed.</text>
</g>

<g transform="translate(330 255)">
<text x="0" y="-18" class="label">Transformer, T</text>
<line x1="0" y1="30" x2="34" y2="30" class="wire"/>
<path d="M34 30 C34 8 60 8 60 30 C60 8 86 8 86 30 C86 8 112 8 112 30" class="wire"/>
<line x1="112" y1="30" x2="132" y2="30" class="wire"/>
<line x1="148" y1="-2" x2="148" y2="62" class="thin"/>
<line x1="158" y1="-2" x2="158" y2="62" class="thin"/>
<line x1="174" y1="30" x2="194" y2="30" class="wire"/>
<path d="M194 30 C194 8 220 8 220 30 C220 8 246 8 246 30 C246 8 272 8 272 30" class="wire"/>
<line x1="272" y1="30" x2="306" y2="30" class="wire"/>
<text x="0" y="78" class="note">Windings plus magnetic core.</text>
</g>

<g transform="translate(690 255)">
<text x="0" y="-18" class="label">Diode / Zener / LED, VD</text>
<line x1="0" y1="30" x2="40" y2="30" class="wire"/>
<polygon points="40,4 40,56 86,30" class="wire"/>
<line x1="90" y1="4" x2="90" y2="56" class="wire"/>
<line x1="90" y1="30" x2="130" y2="30" class="wire"/>
<g transform="translate(160 0)">
<line x1="0" y1="30" x2="40" y2="30" class="wire"/>
<polygon points="40,4 40,56 86,30" class="wire"/>
<polyline points="90,4 90,22 102,22" class="wire"/>
<polyline points="90,56 90,38 78,38" class="wire"/>
<line x1="90" y1="30" x2="130" y2="30" class="wire"/>
</g>
<g transform="translate(325 0)">
<line x1="0" y1="30" x2="40" y2="30" class="wire"/>
<polygon points="40,4 40,56 86,30" class="wire"/>
<line x1="90" y1="4" x2="90" y2="56" class="wire"/>
<line x1="90" y1="30" x2="130" y2="30" class="wire"/>
<line x1="116" y1="-2" x2="132" y2="-18" class="thin"/>
<polyline points="126,-18 132,-18 132,-12" class="thin"/>
<line x1="104" y1="-18" x2="120" y2="-34" class="thin"/>
<polyline points="114,-34 120,-34 120,-28" class="thin"/>
</g>
<text x="0" y="78" class="note">Use VD designators for Russian-style semiconductor diodes.</text>
</g>

<g transform="translate(50 420)">
<text x="0" y="-18" class="label">BJT NPN / PNP, VT</text>
<g transform="translate(55 54)">
<circle cx="0" cy="0" r="48" class="wire"/>
<line x1="-48" y1="0" x2="-14" y2="0" class="wire"/>
<line x1="-14" y1="-30" x2="-14" y2="30" class="wire"/>
<line x1="-14" y1="-20" x2="30" y2="-42" class="wire"/>
<line x1="-14" y1="20" x2="30" y2="42" class="wire"/>
<polygon points="20,37 5,35 11,24" fill="#111"/>
<text x="-34" y="74" class="small">NPN</text>
</g>
<g transform="translate(190 54)">
<circle cx="0" cy="0" r="48" class="wire"/>
<line x1="-48" y1="0" x2="-14" y2="0" class="wire"/>
<line x1="-14" y1="-30" x2="-14" y2="30" class="wire"/>
<line x1="-14" y1="-20" x2="30" y2="-42" class="wire"/>
<line x1="-14" y1="20" x2="30" y2="42" class="wire"/>
<polygon points="-3,-25 12,-24 6,-13" fill="#111"/>
<text x="-34" y="74" class="small">PNP</text>
</g>
<text x="0" y="150" class="note">Arrow stays inside the circle.</text>
</g>

<g transform="translate(390 420)">
<text x="0" y="-18" class="label">Operational amplifier, DA</text>
<polygon points="40,10 40,110 150,60" class="wire"/>
<line x1="0" y1="35" x2="40" y2="35" class="wire"/>
<line x1="0" y1="85" x2="40" y2="85" class="wire"/>
<line x1="150" y1="60" x2="200" y2="60" class="wire"/>
<text x="22" y="39" class="label">+</text>
<text x="24" y="89" class="label">-</text>
<text x="0" y="150" class="note">Triangle form is common in practical schematics.</text>
</g>

<g transform="translate(690 420)">
<text x="0" y="-18" class="label">Switch and fuse, SA / FU</text>
<line x1="0" y1="55" x2="45" y2="55" class="wire"/>
<circle cx="45" cy="55" r="4" class="node"/>
<line x1="45" y1="55" x2="102" y2="22" class="wire"/>
<circle cx="128" cy="55" r="4" class="node"/>
<line x1="128" y1="55" x2="170" y2="55" class="wire"/>
<g transform="translate(210 0)">
<line x1="0" y1="55" x2="40" y2="55" class="wire"/>
<rect x="40" y="35" width="86" height="40" class="wire"/>
<line x1="126" y1="55" x2="170" y2="55" class="wire"/>
</g>
<text x="0" y="130" class="note">Keep contacts readable; avoid tiny gaps.</text>
</g>

<g transform="translate(50 640)">
<text x="0" y="-18" class="label">Ground and junction</text>
<line x1="45" y1="0" x2="45" y2="34" class="wire"/>
<line x1="15" y1="34" x2="75" y2="34" class="wire"/>
<line x1="25" y1="50" x2="65" y2="50" class="wire"/>
<line x1="35" y1="66" x2="55" y2="66" class="wire"/>
<g transform="translate(135 12)">
<line x1="0" y1="40" x2="120" y2="40" class="wire"/>
<line x1="60" y1="0" x2="60" y2="80" class="wire"/>
<circle cx="60" cy="40" r="5" class="node"/>
</g>
<text x="0" y="120" class="note">Dot only for real junctions.</text>
</g>

<g transform="translate(390 640)">
<text x="0" y="-18" class="label">Battery / DC source, G / GB</text>
<line x1="0" y1="40" x2="58" y2="40" class="wire"/>
<line x1="58" y1="4" x2="58" y2="76" class="wire"/>
<line x1="86" y1="18" x2="86" y2="62" class="wire"/>
<line x1="86" y1="40" x2="145" y2="40" class="wire"/>
<text x="46" y="-4" class="label">+</text>
<text x="0" y="120" class="note">Electrochemical source symbol family.</text>
</g>

<g transform="translate(690 640)">
<text x="0" y="-18" class="label">Loudspeaker, B</text>
<line x1="0" y1="40" x2="55" y2="40" class="wire"/>
<rect x="55" y="8" width="36" height="64" class="wire"/>
<polygon points="91,18 150,-10 150,90 91,62" class="wire"/>
<line x1="150" y1="40" x2="195" y2="40" class="wire"/>
<text x="0" y="120" class="note">Use for a real acoustic load, not just Rload.</text>
</g>

<g transform="translate(960 640)">
<text x="0" y="-18" class="label">Net label</text>
<line x1="0" y1="40" x2="90" y2="40" class="wire"/>
<text x="100" y="45" class="label">OUT</text>
<text x="0" y="120" class="note">Use for long feedback or supply links.</text>
</g>
</svg>
