<svg xmlns="http://www.w3.org/2000/svg" width="920" height="500" viewBox="0 0 920 500">
<rect width="100%" height="100%" fill="#fff"/>
<text x="78" y="33" font-family="Arial, Helvetica, sans-serif" font-size="22" font-weight="700" fill="#111">Коэффициент усиления от частоты</text>
<rect x="78" y="58" width="814" height="376" fill="#fff" stroke="#111" stroke-width="1.4"/>
<line x1="78.00" y1="58" x2="78.00" y2="434" stroke="#e6e9ee" stroke-width="1"/>
<text x="78.00" y="456" font-family="Arial, Helvetica, sans-serif" font-size="12" text-anchor="middle" fill="#555">10Hz</text>
<line x1="240.80" y1="58" x2="240.80" y2="434" stroke="#e6e9ee" stroke-width="1"/>
<text x="240.80" y="456" font-family="Arial, Helvetica, sans-serif" font-size="12" text-anchor="middle" fill="#555">100Hz</text>
<line x1="403.60" y1="58" x2="403.60" y2="434" stroke="#e6e9ee" stroke-width="1"/>
<text x="403.60" y="456" font-family="Arial, Helvetica, sans-serif" font-size="12" text-anchor="middle" fill="#555">1kHz</text>
<line x1="566.40" y1="58" x2="566.40" y2="434" stroke="#e6e9ee" stroke-width="1"/>
<text x="566.40" y="456" font-family="Arial, Helvetica, sans-serif" font-size="12" text-anchor="middle" fill="#555">10kHz</text>
<line x1="729.20" y1="58" x2="729.20" y2="434" stroke="#e6e9ee" stroke-width="1"/>
<text x="729.20" y="456" font-family="Arial, Helvetica, sans-serif" font-size="12" text-anchor="middle" fill="#555">100kHz</text>
<line x1="892.00" y1="58" x2="892.00" y2="434" stroke="#e6e9ee" stroke-width="1"/>
<text x="892.00" y="456" font-family="Arial, Helvetica, sans-serif" font-size="12" text-anchor="middle" fill="#555">1MHz</text>
<line x1="78" y1="401.30" x2="892" y2="401.30" stroke="#e6e9ee" stroke-width="1"/>
<text x="68" y="405.30" font-family="Arial, Helvetica, sans-serif" font-size="12" text-anchor="end" fill="#555">0</text>
<line x1="78" y1="303.22" x2="892" y2="303.22" stroke="#e6e9ee" stroke-width="1"/>
<text x="68" y="307.22" font-family="Arial, Helvetica, sans-serif" font-size="12" text-anchor="end" fill="#555">6</text>
<line x1="78" y1="205.13" x2="892" y2="205.13" stroke="#e6e9ee" stroke-width="1"/>
<text x="68" y="209.13" font-family="Arial, Helvetica, sans-serif" font-size="12" text-anchor="end" fill="#555">12</text>
<line x1="78" y1="107.04" x2="892" y2="107.04" stroke="#e6e9ee" stroke-width="1"/>
<text x="68" y="111.04" font-family="Arial, Helvetica, sans-serif" font-size="12" text-anchor="end" fill="#555">18</text>
<line x1="78" y1="74.35" x2="892" y2="74.35" stroke="#e6e9ee" stroke-width="1"/>
<text x="68" y="78.35" font-family="Arial, Helvetica, sans-serif" font-size="12" text-anchor="end" fill="#555">20</text>
<polyline points="78.00,80.47 127.01,75.93 191.79,74.60 240.80,74.41 289.81,74.36 354.59,74.35 403.60,74.35 452.61,74.36 517.39,74.45 566.40,74.77 615.41,76.01 680.19,84.14 729.20,107.35 778.21,160.54 842.99,270.27 892.00,365.24" fill="none" stroke="#1665d8" stroke-width="3" stroke-linecap="round" stroke-linejoin="round"/>
<circle cx="78.00" cy="80.47" r="3.2" fill="#1665d8"/>
<circle cx="127.01" cy="75.93" r="3.2" fill="#1665d8"/>
<circle cx="191.79" cy="74.60" r="3.2" fill="#1665d8"/>
<circle cx="240.80" cy="74.41" r="3.2" fill="#1665d8"/>
<circle cx="289.81" cy="74.36" r="3.2" fill="#1665d8"/>
<circle cx="354.59" cy="74.35" r="3.2" fill="#1665d8"/>
<circle cx="403.60" cy="74.35" r="3.2" fill="#1665d8"/>
<circle cx="452.61" cy="74.36" r="3.2" fill="#1665d8"/>
<circle cx="517.39" cy="74.45" r="3.2" fill="#1665d8"/>
<circle cx="566.40" cy="74.77" r="3.2" fill="#1665d8"/>
<circle cx="615.41" cy="76.01" r="3.2" fill="#1665d8"/>
<circle cx="680.19" cy="84.14" r="3.2" fill="#1665d8"/>
<circle cx="729.20" cy="107.35" r="3.2" fill="#1665d8"/>
<circle cx="778.21" cy="160.54" r="3.2" fill="#1665d8"/>
<circle cx="842.99" cy="270.27" r="3.2" fill="#1665d8"/>
<circle cx="892.00" cy="365.24" r="3.2" fill="#1665d8"/>
<text x="460.0" y="480" font-family="Arial, Helvetica, sans-serif" font-size="14" text-anchor="middle" fill="#111">Частота, Hz</text>
<text x="22" y="250.0" font-family="Arial, Helvetica, sans-serif" font-size="14" text-anchor="middle" fill="#111" transform="rotate(-90 22 250.0)">Усиление, dB</text>
<text x="78" y="458" font-family="Arial, Helvetica, sans-serif" font-size="12" fill="#666">Av номинально 10 V/V; модель: входной НЧ-полюс 3 Hz, ВЧ-полюс 130 kHz.</text>
</svg>
