<svg xmlns="http://www.w3.org/2000/svg" width="360" height="120" viewBox="0 0 360 120">
<defs>
<style>
.wire{stroke:#111;stroke-width:2.6;fill:none;stroke-linecap:round;stroke-linejoin:round}
.thin{stroke:#111;stroke-width:1.7;fill:none;stroke-linecap:round;stroke-linejoin:round}
.node{fill:#111;stroke:none}
.label{font-family:Arial, Helvetica, sans-serif;font-size:16px;font-weight:700;fill:#111}
.note{font-family:Arial, Helvetica, sans-serif;font-size:13px;font-weight:400;fill:#333}
.title{font-family:Arial, Helvetica, sans-serif;font-size:24px;font-weight:700;fill:#111}
.small{font-family:Arial, Helvetica, sans-serif;font-size:12px;font-weight:400;fill:#444}
</style>
</defs>
<rect width="100%" height="100%" fill="none"/>
<line x1="10" y1="60" x2="44" y2="60" class="wire"/>
<path d="M44 60 C44 38 70 38 70 60 C70 38 96 38 96 60 C96 38 122 38 122 60" class="wire"/>
<line x1="122" y1="60" x2="142" y2="60" class="wire"/>
<line x1="160" y1="28" x2="160" y2="92" class="thin"/>
<line x1="170" y1="28" x2="170" y2="92" class="thin"/>
<line x1="190" y1="60" x2="210" y2="60" class="wire"/>
<path d="M210 60 C210 38 236 38 236 60 C236 38 262 38 262 60 C262 38 288 38 288 60" class="wire"/>
<line x1="288" y1="60" x2="350" y2="60" class="wire"/>
</svg>
