<svg xmlns="http://www.w3.org/2000/svg" width="1600" height="980" viewBox="0 0 1600 980">

<defs>
  <style>
    .wire { stroke:#111; stroke-width:2.1; fill:none; stroke-linecap:round; stroke-linejoin:round; }
    .thin { stroke:#111; stroke-width:1.35; fill:none; stroke-linecap:round; stroke-linejoin:round; }
    .rail { stroke:#111; stroke-width:3; fill:none; stroke-linecap:round; }
    .dash { stroke:#111; stroke-width:1.9; fill:none; stroke-linecap:round; stroke-linejoin:round; stroke-dasharray:8 7; }
    .sym { stroke:#111; stroke-width:2.1; fill:none; stroke-linecap:round; stroke-linejoin:round; }
    .dot { fill:#111; }
    .panel { fill:#fff; stroke:#111; stroke-width:1.4; }
  </style>
  <marker id="arrow" markerWidth="8" markerHeight="8" refX="7" refY="4" orient="auto">
    <path d="M0,0 L8,4 L0,8 z" fill="#111"/>
  </marker>
  <g id="npn">
    <circle cx="38" cy="45" r="34" class="sym"/>
    <line x1="0" y1="45" x2="22" y2="45" class="sym"/>
    <line x1="22" y1="22" x2="22" y2="68" class="sym"/>
    <line x1="22" y1="35" x2="70" y2="10" class="sym"/>
    <line x1="22" y1="55" x2="70" y2="80" class="sym" marker-end="url(#arrow)"/>
  </g>
  <g id="pnp">
    <circle cx="38" cy="45" r="34" class="sym"/>
    <line x1="0" y1="45" x2="22" y2="45" class="sym"/>
    <line x1="22" y1="22" x2="22" y2="68" class="sym"/>
    <line x1="22" y1="55" x2="70" y2="80" class="sym"/>
    <line x1="70" y1="10" x2="22" y2="35" class="sym" marker-end="url(#arrow)"/>
  </g>
  <g id="ground">
    <line x1="0" y1="0" x2="44" y2="0" class="wire"/>
    <line x1="8" y1="12" x2="36" y2="12" class="wire"/>
    <line x1="16" y1="24" x2="28" y2="24" class="wire"/>
  </g>
</defs>

<rect width="100%" height="100%" fill="#fff"/>
<text x="55" y="48" font-family="Arial, Helvetica, sans-serif" font-size="28" font-weight="700" fill="#111">Variant 05: Discrete current-feedback BJT power amplifier</text>
<text x="55" y="78" font-family="Arial, Helvetica, sans-serif" font-size="14" font-weight="400" fill="#111">Petrov 2018 current-feedback UMZCH article, implemented as a pure BJT loop. +/-15 V, 8 ohm load, Av target 10.</text>
<line x1="55" y1="110" x2="1525" y2="110" class="rail"/>
<line x1="55" y1="815" x2="1525" y2="815" class="rail"/>
<text x="60" y="100" font-family="Arial, Helvetica, sans-serif" font-size="15" font-weight="700" fill="#111">+15 V</text>
<text x="60" y="844" font-family="Arial, Helvetica, sans-serif" font-size="15" font-weight="700" fill="#111">-15 V</text>
<text x="60" y="145" font-family="Arial, Helvetica, sans-serif" font-size="17" font-weight="700" fill="#111">Input and BJT differential pair</text>
<text x="58" y="365" font-family="Arial, Helvetica, sans-serif" font-size="14" font-weight="700" fill="#111">IN</text>
<line x1="85" y1="360" x2="128" y2="360" class="wire"/>
<line x1="128" y1="332" x2="128" y2="388" class="wire"/>
<line x1="146" y1="332" x2="146" y2="388" class="wire"/>
<text x="125" y="322" font-family="Arial, Helvetica, sans-serif" font-size="12" font-weight="400" fill="#111">C1</text>
<line x1="146" y1="360" x2="198" y2="360" class="wire"/>
<polyline points="198,360 208,360 216,351 228,369 240,351 252,369 260,360 272,360" class="wire"/>
<text x="216" y="346" font-family="Arial, Helvetica, sans-serif" font-size="12" font-weight="400" fill="#111">Rin</text>
<line x1="272" y1="360" x2="306" y2="360" class="wire"/>
<use href="#npn" transform="translate(306,304)"/>
<use href="#npn" transform="translate(446,304)"/>
<text x="332" y="300" font-family="Arial, Helvetica, sans-serif" font-size="13" font-weight="700" fill="#111">Q1</text>
<text x="472" y="300" font-family="Arial, Helvetica, sans-serif" font-size="13" font-weight="700" fill="#111">Q2</text>
<text x="327" y="398" font-family="Arial, Helvetica, sans-serif" font-size="12" font-weight="400" fill="#111">matched</text>
<text x="467" y="398" font-family="Arial, Helvetica, sans-serif" font-size="12" font-weight="400" fill="#111">matched</text>
<line x1="376" y1="384" x2="446" y2="384" class="wire"/>
<line x1="376" y1="384" x2="376" y2="575" class="wire"/>
<line x1="516" y1="384" x2="516" y2="575" class="wire"/>
<line x1="376" y1="575" x2="516" y2="575" class="wire"/>
<use href="#npn" transform="translate(408,612)"/>
<text x="434" y="608" font-family="Arial, Helvetica, sans-serif" font-size="12" font-weight="700" fill="#111">Q3 tail CCS</text>
<line x1="446" y1="575" x2="446" y2="612" class="wire"/>
<line x1="478" y1="692" x2="478" y2="815" class="wire"/>
<use href="#pnp" transform="translate(310,178)"/>
<use href="#pnp" transform="translate(450,178)"/>
<text x="337" y="174" font-family="Arial, Helvetica, sans-serif" font-size="13" font-weight="700" fill="#111">Q4</text>
<text x="477" y="174" font-family="Arial, Helvetica, sans-serif" font-size="13" font-weight="700" fill="#111">Q5 mirror</text>
<line x1="380" y1="188" x2="380" y2="110" class="wire"/>
<line x1="520" y1="188" x2="520" y2="110" class="wire"/>
<line x1="380" y1="258" x2="380" y2="304" class="wire"/>
<line x1="520" y1="258" x2="520" y2="304" class="wire"/>
<line x1="520" y1="349" x2="592" y2="349" class="wire"/>
<polyline points="258,392 258,402 249,410 267,422 249,434 267,446 258,454 258,462" class="wire"/>
<text x="272" y="432" font-family="Arial, Helvetica, sans-serif" font-size="12" font-weight="400" fill="#111">RE1</text>
<line x1="258" y1="462" x2="258" y2="510" class="wire"/>
<use href="#ground" transform="translate(236,510)"/>
<text x="84" y="625" font-family="Arial, Helvetica, sans-serif" font-size="12" font-weight="700" fill="#111">low-Z summing node</text>
<line x1="190" y1="625" x2="332" y2="625" class="dash"/>
<line x1="332" y1="625" x2="332" y2="384" class="dash"/>
<text x="610" y="145" font-family="Arial, Helvetica, sans-serif" font-size="17" font-weight="700" fill="#111">Voltage gain stage</text>
<use href="#npn" transform="translate(626,292)"/>
<use href="#pnp" transform="translate(744,460)"/>
<use href="#npn" transform="translate(850,292)"/>
<text x="654" y="288" font-family="Arial, Helvetica, sans-serif" font-size="13" font-weight="700" fill="#111">Q6 TIA</text>
<text x="772" y="456" font-family="Arial, Helvetica, sans-serif" font-size="13" font-weight="700" fill="#111">Q7 gain</text>
<text x="878" y="288" font-family="Arial, Helvetica, sans-serif" font-size="13" font-weight="700" fill="#111">Q8 buffer</text>
<line x1="592" y1="349" x2="626" y2="349" class="wire"/>
<line x1="696" y1="302" x2="696" y2="110" class="wire"/>
<line x1="814" y1="495" x2="814" y2="815" class="wire"/>
<line x1="696" y1="349" x2="850" y2="349" class="wire"/>
<line x1="920" y1="302" x2="920" y2="392" class="wire"/>
<line x1="920" y1="392" x2="976" y2="392" class="wire"/>
<text x="626" y="615" font-family="Arial, Helvetica, sans-serif" font-size="12" font-weight="700" fill="#111">current feedback summing is drawn dashed</text>
<text x="970" y="145" font-family="Arial, Helvetica, sans-serif" font-size="17" font-weight="700" fill="#111">Bias and output stage</text>
<use href="#npn" transform="translate(944,396)"/>
<text x="972" y="392" font-family="Arial, Helvetica, sans-serif" font-size="13" font-weight="700" fill="#111">Qbias</text>
<text x="960" y="494" font-family="Arial, Helvetica, sans-serif" font-size="12" font-weight="400" fill="#111">Vbe multiplier on heatsink</text>
<polyline points="1018,286 1018,296 1009,304 1027,316 1009,328 1027,340 1018,348 1018,356" class="wire"/>
<text x="1032" y="326" font-family="Arial, Helvetica, sans-serif" font-size="12" font-weight="400" fill="#111">Rb1</text>
<polyline points="1018,500 1018,510 1009,518 1027,530 1009,542 1027,554 1018,562 1018,570" class="wire"/>
<text x="1032" y="540" font-family="Arial, Helvetica, sans-serif" font-size="12" font-weight="400" fill="#111">Rb2</text>
<line x1="1018" y1="286" x2="1018" y2="110" class="wire"/>
<line x1="1018" y1="570" x2="1018" y2="815" class="wire"/>
<use href="#npn" transform="translate(1092,250)"/>
<use href="#pnp" transform="translate(1092,522)"/>
<use href="#npn" transform="translate(1248,228)"/>
<use href="#pnp" transform="translate(1248,546)"/>
<text x="1120" y="246" font-family="Arial, Helvetica, sans-serif" font-size="13" font-weight="700" fill="#111">Q10 driver</text>
<text x="1120" y="518" font-family="Arial, Helvetica, sans-serif" font-size="13" font-weight="700" fill="#111">Q11 driver</text>
<text x="1276" y="224" font-family="Arial, Helvetica, sans-serif" font-size="13" font-weight="700" fill="#111">Q12 power</text>
<text x="1276" y="542" font-family="Arial, Helvetica, sans-serif" font-size="13" font-weight="700" fill="#111">Q13 power</text>
<line x1="1014" y1="441" x2="1092" y2="295" class="wire"/>
<line x1="1014" y1="441" x2="1092" y2="567" class="wire"/>
<line x1="1162" y1="260" x2="1248" y2="273" class="wire"/>
<line x1="1162" y1="602" x2="1248" y2="591" class="wire"/>
<polyline points="1318,325 1318,335 1309,343 1327,355 1309,367 1327,379 1318,387 1318,401" class="wire"/>
<text x="1332" y="368" font-family="Arial, Helvetica, sans-serif" font-size="12" font-weight="400" fill="#111">0R22</text>
<polyline points="1318,515 1318,525 1309,533 1327,545 1309,557 1327,569 1318,577 1318,591" class="wire"/>
<text x="1332" y="558" font-family="Arial, Helvetica, sans-serif" font-size="12" font-weight="400" fill="#111">0R22</text>
<line x1="1318" y1="401" x2="1318" y2="456" class="wire"/>
<line x1="1318" y1="456" x2="1420" y2="456" class="wire"/>
<polyline points="1225,705 1235,705 1243,696 1255,714 1267,696 1279,714 1287,705 1319,705" class="wire"/>
<text x="1243" y="691" font-family="Arial, Helvetica, sans-serif" font-size="12" font-weight="400" fill="#111">Rsense</text>
<line x1="1318" y1="705" x2="1420" y2="456" class="dash"/>
<line x1="1225" y1="705" x2="190" y2="625" class="dash"/>
<text x="1010" y="705" font-family="Arial, Helvetica, sans-serif" font-size="13" font-weight="700" fill="#111">global current feedback</text>
<text x="1430" y="461" font-family="Arial, Helvetica, sans-serif" font-size="15" font-weight="700" fill="#111">OUT</text>
<line x1="1420" y1="456" x2="1420" y2="612" class="wire"/>
<polyline points="1420,612 1420,622 1411,630 1429,642 1411,654 1429,666 1420,674 1420,702" class="wire"/>
<text x="1434" y="662" font-family="Arial, Helvetica, sans-serif" font-size="12" font-weight="400" fill="#111">8R load</text>
<line x1="1420" y1="702" x2="1420" y2="742" class="wire"/>
<use href="#ground" transform="translate(1398,742)"/>
<line x1="1342" y1="456" x2="1342" y2="610" class="wire"/>
<polyline points="1342,610 1342,620 1333,628 1351,640 1333,652 1351,664 1342,672 1342,682" class="wire"/>
<text x="1356" y="651" font-family="Arial, Helvetica, sans-serif" font-size="12" font-weight="400" fill="#111">10R</text>
<line x1="1342" y1="682" x2="1342" y2="712" class="wire"/>
<line x1="1333" y1="702" x2="1333" y2="758" class="wire"/>
<line x1="1351" y1="702" x2="1351" y2="758" class="wire"/>
<text x="1330" y="692" font-family="Arial, Helvetica, sans-serif" font-size="12" font-weight="400" fill="#111">100n</text>
<line x1="1342" y1="758" x2="1342" y2="790" class="wire"/>
<text x="1290" y="602" font-family="Arial, Helvetica, sans-serif" font-size="13" font-weight="700" fill="#111">Zobel</text>
<line x1="1248" y1="238" x2="1248" y2="110" class="wire"/>
<line x1="1248" y1="626" x2="1248" y2="815" class="wire"/>
<rect x="60" y="865" width="1480" height="80" class="panel"/>
<text x="82" y="892" font-family="Arial, Helvetica, sans-serif" font-size="14" font-weight="700" fill="#111">Feedback: Global current feedback from output/sense resistor to input summing node</text>
<text x="82" y="919" font-family="Arial, Helvetica, sans-serif" font-size="14" font-weight="400" fill="#111">Behavioral sim: THD 1 W 0.0861%, THD 5 W 0.0418%, clean power 8.0 W @ 1% THD, damping 228.6, project score 84.67/100.</text>
<text x="82" y="939" font-family="Arial, Helvetica, sans-serif" font-size="12" font-weight="400" fill="#111">Conceptual topology schematic: transistor choices, compensation values, SOA protection, and PCB layout still need hardware design.</text>
</svg>
