<svg xmlns="http://www.w3.org/2000/svg" width="1600" height="1200" viewBox="0 0 1600 1200">

<defs>
  <style>
    .wire { stroke:#111; stroke-width:2.1; fill:none; stroke-linecap:round; stroke-linejoin:round; }
    .thin { stroke:#111; stroke-width:1.35; fill:none; stroke-linecap:round; stroke-linejoin:round; }
    .rail { stroke:#111; stroke-width:3; fill:none; stroke-linecap:round; }
    .dash { stroke:#111; stroke-width:1.9; fill:none; stroke-linecap:round; stroke-linejoin:round; stroke-dasharray:8 7; }
    .sym { stroke:#111; stroke-width:2.1; fill:none; stroke-linecap:round; stroke-linejoin:round; }
    .dot { fill:#111; }
    .panel { fill:#fff; stroke:#111; stroke-width:1.4; }
  </style>
  <marker id="arrow" markerWidth="8" markerHeight="8" refX="7" refY="4" orient="auto">
    <path d="M0,0 L8,4 L0,8 z" fill="#111"/>
  </marker>
  <g id="npn">
    <circle cx="38" cy="45" r="34" class="sym"/>
    <line x1="0" y1="45" x2="22" y2="45" class="sym"/>
    <line x1="22" y1="22" x2="22" y2="68" class="sym"/>
    <line x1="22" y1="35" x2="70" y2="10" class="sym"/>
    <line x1="22" y1="55" x2="70" y2="80" class="sym" marker-end="url(#arrow)"/>
  </g>
  <g id="pnp">
    <circle cx="38" cy="45" r="34" class="sym"/>
    <line x1="0" y1="45" x2="22" y2="45" class="sym"/>
    <line x1="22" y1="22" x2="22" y2="68" class="sym"/>
    <line x1="22" y1="55" x2="70" y2="80" class="sym"/>
    <line x1="70" y1="10" x2="22" y2="35" class="sym" marker-end="url(#arrow)"/>
  </g>
  <g id="ground">
    <line x1="0" y1="0" x2="44" y2="0" class="wire"/>
    <line x1="8" y1="12" x2="36" y2="12" class="wire"/>
    <line x1="16" y1="24" x2="28" y2="24" class="wire"/>
  </g>
</defs>

<rect width="100%" height="100%" fill="#fff"/>
<text x="55" y="48" font-family="Arial, Helvetica, sans-serif" font-size="28" font-weight="700" fill="#111">Radio.ru-Inspired BJT Amplifier Study: Five Schematics</text>
<text x="55" y="78" font-family="Arial, Helvetica, sans-serif" font-size="14" font-weight="400" fill="#111">Transistor-symbol overview. Ranking uses the current low-voltage/no-overall-feedback target.</text>
<rect x="65" y="120" width="690" height="285" fill="#fff" stroke="#111" stroke-width="1.5"/>
<text x="83" y="150" font-family="Arial, Helvetica, sans-serif" font-size="16" font-weight="700" fill="#111">Rank 1 - Variant 04: Complementary folded cascode with CFP/Sziklai output</text>
<text x="83" y="175" font-family="Arial, Helvetica, sans-serif" font-size="13" font-weight="400" fill="#111">Score 88.98 | THD 5 W 0.0554% | Clean 9.0 W</text>
<line x1="93" y1="200" x2="707" y2="200" class="wire"/>
<text x="87" y="252" font-family="Arial, Helvetica, sans-serif" font-size="12" font-weight="700" fill="#111">IN</text>
<line x1="109" y1="248" x2="143" y2="248" class="wire"/>
<use href="#npn" transform="translate(147,203) scale(0.72)"/>
<use href="#npn" transform="translate(231,203) scale(0.72)"/>
<text x="150" y="287" font-family="Arial, Helvetica, sans-serif" font-size="11" font-weight="400" fill="#111">diff pair</text>
<line x1="283" y1="248" x2="347" y2="248" class="wire"/>
<use href="#npn" transform="translate(351,203) scale(0.72)"/>
<use href="#pnp" transform="translate(435,203) scale(0.72)"/>
<text x="361" y="287" font-family="Arial, Helvetica, sans-serif" font-size="11" font-weight="400" fill="#111">VAS</text>
<line x1="485" y1="248" x2="545" y2="248" class="wire"/>
<use href="#npn" transform="translate(551,192) scale(0.7)"/>
<use href="#pnp" transform="translate(551,266) scale(0.7)"/>
<use href="#npn" transform="translate(655,192) scale(0.7)"/>
<use href="#pnp" transform="translate(655,266) scale(0.7)"/>
<line x1="705" y1="248" x2="731" y2="248" class="wire"/>
<text x="593" y="350" font-family="Arial, Helvetica, sans-serif" font-size="11" font-weight="400" fill="#111">cfp</text>
<text x="83" y="372" font-family="Arial, Helvetica, sans-serif" font-size="12" font-weight="700" fill="#111">No overall feedback; CFP is local output-stage feedback</text>
<rect x="815" y="120" width="690" height="285" fill="#fff" stroke="#111" stroke-width="1.5"/>
<text x="833" y="150" font-family="Arial, Helvetica, sans-serif" font-size="16" font-weight="700" fill="#111">Rank 2 - Variant 05: Discrete current-feedback BJT power amplifier</text>
<text x="833" y="175" font-family="Arial, Helvetica, sans-serif" font-size="13" font-weight="400" fill="#111">Score 84.67 | THD 5 W 0.0418% | Clean 8.0 W</text>
<line x1="843" y1="200" x2="1457" y2="200" class="wire"/>
<text x="837" y="252" font-family="Arial, Helvetica, sans-serif" font-size="12" font-weight="700" fill="#111">IN</text>
<line x1="859" y1="248" x2="893" y2="248" class="wire"/>
<use href="#npn" transform="translate(897,203) scale(0.72)"/>
<use href="#npn" transform="translate(981,203) scale(0.72)"/>
<text x="900" y="287" font-family="Arial, Helvetica, sans-serif" font-size="11" font-weight="400" fill="#111">diff pair</text>
<line x1="1033" y1="248" x2="1097" y2="248" class="wire"/>
<use href="#npn" transform="translate(1101,203) scale(0.72)"/>
<use href="#npn" transform="translate(1185,203) scale(0.72)"/>
<text x="1111" y="287" font-family="Arial, Helvetica, sans-serif" font-size="11" font-weight="400" fill="#111">VAS</text>
<line x1="1235" y1="248" x2="1295" y2="248" class="wire"/>
<use href="#npn" transform="translate(1301,192) scale(0.7)"/>
<use href="#pnp" transform="translate(1301,266) scale(0.7)"/>
<use href="#npn" transform="translate(1405,192) scale(0.7)"/>
<use href="#pnp" transform="translate(1405,266) scale(0.7)"/>
<line x1="1455" y1="248" x2="1481" y2="248" class="wire"/>
<text x="1343" y="350" font-family="Arial, Helvetica, sans-serif" font-size="11" font-weight="400" fill="#111">current feedback</text>
<text x="833" y="372" font-family="Arial, Helvetica, sans-serif" font-size="12" font-weight="700" fill="#111">Global current feedback from output/sense resistor to input summing node</text>
<rect x="65" y="450" width="690" height="285" fill="#fff" stroke="#111" stroke-width="1.5"/>
<text x="83" y="480" font-family="Arial, Helvetica, sans-serif" font-size="16" font-weight="700" fill="#111">Rank 3 - Variant 02: Rogov-style triple emitter follower output</text>
<text x="83" y="505" font-family="Arial, Helvetica, sans-serif" font-size="13" font-weight="400" fill="#111">Score 78.29 | THD 5 W 0.089% | Clean 6.0 W</text>
<line x1="93" y1="530" x2="707" y2="530" class="wire"/>
<text x="87" y="582" font-family="Arial, Helvetica, sans-serif" font-size="12" font-weight="700" fill="#111">IN</text>
<line x1="109" y1="578" x2="143" y2="578" class="wire"/>
<use href="#npn" transform="translate(147,533) scale(0.72)"/>
<use href="#npn" transform="translate(231,533) scale(0.72)"/>
<text x="150" y="617" font-family="Arial, Helvetica, sans-serif" font-size="11" font-weight="400" fill="#111">diff pair</text>
<line x1="283" y1="578" x2="347" y2="578" class="wire"/>
<use href="#npn" transform="translate(351,533) scale(0.72)"/>
<use href="#npn" transform="translate(435,533) scale(0.72)"/>
<text x="361" y="617" font-family="Arial, Helvetica, sans-serif" font-size="11" font-weight="400" fill="#111">VAS</text>
<line x1="485" y1="578" x2="545" y2="578" class="wire"/>
<use href="#npn" transform="translate(551,522) scale(0.7)"/>
<use href="#pnp" transform="translate(551,596) scale(0.7)"/>
<use href="#npn" transform="translate(655,522) scale(0.7)"/>
<use href="#pnp" transform="translate(655,596) scale(0.7)"/>
<line x1="705" y1="578" x2="731" y2="578" class="wire"/>
<text x="593" y="680" font-family="Arial, Helvetica, sans-serif" font-size="11" font-weight="400" fill="#111">triple ef</text>
<text x="83" y="702" font-family="Arial, Helvetica, sans-serif" font-size="12" font-weight="700" fill="#111">No overall feedback; local emitter degeneration and ballast resistors</text>
<rect x="815" y="450" width="690" height="285" fill="#fff" stroke="#111" stroke-width="1.5"/>
<text x="833" y="480" font-family="Arial, Helvetica, sans-serif" font-size="16" font-weight="700" fill="#111">Rank 4 - Variant 03: Low-voltage folded cascode VAS, double emitter follower</text>
<text x="833" y="505" font-family="Arial, Helvetica, sans-serif" font-size="13" font-weight="400" fill="#111">Score 76.12 | THD 5 W 0.1034% | Clean 8.0 W</text>
<line x1="843" y1="530" x2="1457" y2="530" class="wire"/>
<text x="837" y="582" font-family="Arial, Helvetica, sans-serif" font-size="12" font-weight="700" fill="#111">IN</text>
<line x1="859" y1="578" x2="893" y2="578" class="wire"/>
<use href="#npn" transform="translate(897,533) scale(0.72)"/>
<use href="#npn" transform="translate(981,533) scale(0.72)"/>
<text x="900" y="617" font-family="Arial, Helvetica, sans-serif" font-size="11" font-weight="400" fill="#111">diff pair</text>
<line x1="1033" y1="578" x2="1097" y2="578" class="wire"/>
<use href="#npn" transform="translate(1101,533) scale(0.72)"/>
<use href="#pnp" transform="translate(1185,533) scale(0.72)"/>
<text x="1111" y="617" font-family="Arial, Helvetica, sans-serif" font-size="11" font-weight="400" fill="#111">VAS</text>
<line x1="1235" y1="578" x2="1295" y2="578" class="wire"/>
<use href="#npn" transform="translate(1301,522) scale(0.7)"/>
<use href="#pnp" transform="translate(1301,596) scale(0.7)"/>
<use href="#npn" transform="translate(1405,522) scale(0.7)"/>
<use href="#pnp" transform="translate(1405,596) scale(0.7)"/>
<line x1="1455" y1="578" x2="1481" y2="578" class="wire"/>
<text x="1343" y="680" font-family="Arial, Helvetica, sans-serif" font-size="11" font-weight="400" fill="#111">double ef</text>
<text x="833" y="702" font-family="Arial, Helvetica, sans-serif" font-size="12" font-weight="700" fill="#111">No overall feedback; local VAS/output degeneration only</text>
<rect x="65" y="780" width="690" height="285" fill="#fff" stroke="#111" stroke-width="1.5"/>
<text x="83" y="810" font-family="Arial, Helvetica, sans-serif" font-size="16" font-weight="700" fill="#111">Rank 5 - Variant 01: Classic BJT differential amp, double emitter follower</text>
<text x="83" y="835" font-family="Arial, Helvetica, sans-serif" font-size="13" font-weight="400" fill="#111">Score 71.63 | THD 5 W 0.1491% | Clean 7.0 W</text>
<line x1="93" y1="860" x2="707" y2="860" class="wire"/>
<text x="87" y="912" font-family="Arial, Helvetica, sans-serif" font-size="12" font-weight="700" fill="#111">IN</text>
<line x1="109" y1="908" x2="143" y2="908" class="wire"/>
<use href="#npn" transform="translate(147,863) scale(0.72)"/>
<use href="#npn" transform="translate(231,863) scale(0.72)"/>
<text x="150" y="947" font-family="Arial, Helvetica, sans-serif" font-size="11" font-weight="400" fill="#111">diff pair</text>
<line x1="283" y1="908" x2="347" y2="908" class="wire"/>
<use href="#npn" transform="translate(351,863) scale(0.72)"/>
<use href="#npn" transform="translate(435,863) scale(0.72)"/>
<text x="361" y="947" font-family="Arial, Helvetica, sans-serif" font-size="11" font-weight="400" fill="#111">VAS</text>
<line x1="485" y1="908" x2="545" y2="908" class="wire"/>
<use href="#npn" transform="translate(551,852) scale(0.7)"/>
<use href="#pnp" transform="translate(551,926) scale(0.7)"/>
<use href="#npn" transform="translate(655,852) scale(0.7)"/>
<use href="#pnp" transform="translate(655,926) scale(0.7)"/>
<line x1="705" y1="908" x2="731" y2="908" class="wire"/>
<text x="593" y="1010" font-family="Arial, Helvetica, sans-serif" font-size="11" font-weight="400" fill="#111">double ef</text>
<text x="83" y="1032" font-family="Arial, Helvetica, sans-serif" font-size="12" font-weight="700" fill="#111">No overall feedback; local emitter degeneration only</text>
</svg>
