<svg xmlns="http://www.w3.org/2000/svg" width="1260" height="760" viewBox="0 0 1260 760">
<defs>
<style>
.wire{stroke:#111;stroke-width:2.6;fill:none;stroke-linecap:round;stroke-linejoin:round}
.thin{stroke:#a7b0bd;stroke-width:1.2;fill:none;stroke-linecap:round;stroke-linejoin:round}
.axis{stroke:#111;stroke-width:1.4;fill:none}
.blue{stroke:#1665d8;stroke-width:3;fill:none;stroke-linecap:round;stroke-linejoin:round}
.green{stroke:#13795b;stroke-width:3;fill:none;stroke-linecap:round;stroke-linejoin:round}
.orange{stroke:#b54708;stroke-width:3;fill:none;stroke-linecap:round;stroke-linejoin:round}
.node{fill:#111;stroke:none}
</style>
</defs>
<rect width="100%" height="100%" fill="#fff"/>
<text x="42" y="42" font-family="Arial, Helvetica, sans-serif" font-size="22" font-weight="700" text-anchor="start" fill="#111">004 shema-1804-6 BJT audio amplifier, upper Darlington variant</text>
<text x="42" y="68" font-family="Arial, Helvetica, sans-serif" font-size="13" font-weight="400" text-anchor="start" fill="#111">Based on 003 bootstrap circuit; VT2A + VT2B form the upper Darlington emitter follower</text>
<line x1="300" y1="98" x2="1010" y2="98" class="wire"/>
<polyline points="1010,90 1027,98 1010,106" class="wire" fill="none"/>
<text x="1045" y="104" font-family="Arial, Helvetica, sans-serif" font-size="18" font-weight="700" text-anchor="start" fill="#111">+12 V</text>
<circle cx="460" cy="98" r="5" class="node"/>
<circle cx="710" cy="98" r="5" class="node"/>
<circle cx="860" cy="98" r="5" class="node"/>
<line x1="300" y1="98" x2="300" y2="145" class="wire"/>
<line x1="276" y1="145" x2="324" y2="145" class="wire"/>
<line x1="276" y1="173" x2="324" y2="173" class="wire"/>
<line x1="300" y1="173" x2="300" y2="220" class="wire"/>
<text x="272" y="164" font-family="Arial, Helvetica, sans-serif" font-size="14" font-weight="700" text-anchor="end" fill="#111">C1 1000u</text>
<text x="266" y="129" font-family="Arial, Helvetica, sans-serif" font-size="18" font-weight="700" text-anchor="middle" fill="#111">+</text>
<line x1="300" y1="220" x2="300" y2="234" class="wire"/>
<line x1="274" y1="234" x2="326" y2="234" class="wire"/>
<line x1="283" y1="247" x2="317" y2="247" class="wire"/>
<line x1="292" y1="260" x2="308" y2="260" class="wire"/>
<line x1="460" y1="98" x2="460" y2="106" class="wire"/>
<rect x="446" y="106" width="28" height="76" class="wire"/>
<line x1="460" y1="182" x2="460" y2="190" class="wire"/>
<text x="436" y="149" font-family="Arial, Helvetica, sans-serif" font-size="14" font-weight="700" text-anchor="end" fill="#111">R1A 560</text>
<circle cx="460" cy="190" r="5" class="node"/>
<line x1="460" y1="190" x2="460" y2="198" class="wire"/>
<rect x="446" y="198" width="28" height="76" class="wire"/>
<line x1="460" y1="274" x2="460" y2="282" class="wire"/>
<text x="436" y="241" font-family="Arial, Helvetica, sans-serif" font-size="14" font-weight="700" text-anchor="end" fill="#111">R1B 1.8k</text>
<circle cx="460" cy="282" r="5" class="node"/>
<line x1="460" y1="282" x2="460" y2="286" class="wire"/>
<polyline points="438,286 482,286 460,318 438,286" class="wire" fill="none"/>
<line x1="438" y1="324" x2="482" y2="324" class="wire"/>
<line x1="460" y1="324" x2="460" y2="338" class="wire"/>
<text x="426" y="314" font-family="Arial, Helvetica, sans-serif" font-size="14" font-weight="700" text-anchor="end" fill="#111">VD1 KD521A</text>
<line x1="460" y1="338" x2="460" y2="342" class="wire"/>
<polyline points="438,342 482,342 460,374 438,342" class="wire" fill="none"/>
<line x1="438" y1="380" x2="482" y2="380" class="wire"/>
<line x1="460" y1="380" x2="460" y2="394" class="wire"/>
<text x="426" y="370" font-family="Arial, Helvetica, sans-serif" font-size="14" font-weight="700" text-anchor="end" fill="#111">VD2 KD521A</text>
<line x1="460" y1="394" x2="460" y2="398" class="wire"/>
<polyline points="438,398 482,398 460,430 438,398" class="wire" fill="none"/>
<line x1="438" y1="436" x2="482" y2="436" class="wire"/>
<line x1="460" y1="436" x2="460" y2="450" class="wire"/>
<text x="426" y="426" font-family="Arial, Helvetica, sans-serif" font-size="14" font-weight="700" text-anchor="end" fill="#111">VD3 KD521A</text>
<line x1="460" y1="190" x2="560" y2="190" class="wire"/>
<line x1="560" y1="190" x2="560" y2="276" class="wire"/>
<line x1="536" y1="276" x2="584" y2="276" class="wire"/>
<line x1="536" y1="304" x2="584" y2="304" class="wire"/>
<line x1="560" y1="304" x2="560" y2="390" class="wire"/>
<text x="560" y="176" font-family="Arial, Helvetica, sans-serif" font-size="14" font-weight="700" text-anchor="middle" fill="#111">C4 470u</text>
<text x="532" y="268" font-family="Arial, Helvetica, sans-serif" font-size="18" font-weight="700" text-anchor="middle" fill="#111">+</text>
<line x1="560" y1="390" x2="950" y2="390" class="wire"/>
<circle cx="680" cy="282" r="54" class="wire"/>
<line x1="626" y1="282" x2="664" y2="282" class="wire"/>
<line x1="664" y1="248" x2="664" y2="316" class="wire"/>
<line x1="664" y1="258" x2="710" y2="237" class="wire"/>
<line x1="664" y1="306" x2="710" y2="327" class="wire"/>
<polygon points="696.20,320.70 680.27,319.47 684.84,309.47" fill="#111" stroke="none"/>
<text x="636" y="364" font-family="Arial, Helvetica, sans-serif" font-size="14" font-weight="700" text-anchor="middle" fill="#111"></text>
<text x="610" y="238" font-family="Arial, Helvetica, sans-serif" font-size="14" font-weight="700" text-anchor="end" fill="#111">VT2A KT3102A</text>
<line x1="710" y1="237" x2="710" y2="98" class="wire"/>
<line x1="460" y1="282" x2="626" y2="282" class="wire"/>
<circle cx="830" cy="327" r="54" class="wire"/>
<line x1="776" y1="327" x2="814" y2="327" class="wire"/>
<line x1="814" y1="293" x2="814" y2="361" class="wire"/>
<line x1="814" y1="303" x2="860" y2="282" class="wire"/>
<line x1="814" y1="351" x2="860" y2="372" class="wire"/>
<polygon points="846.20,365.70 830.27,364.47 834.84,354.47" fill="#111" stroke="none"/>
<text x="786" y="409" font-family="Arial, Helvetica, sans-serif" font-size="14" font-weight="700" text-anchor="middle" fill="#111"></text>
<text x="900" y="316" font-family="Arial, Helvetica, sans-serif" font-size="14" font-weight="700" text-anchor="start" fill="#111">VT2B KT817A</text>
<line x1="860" y1="282" x2="860" y2="98" class="wire"/>
<line x1="710" y1="327" x2="776" y2="327" class="wire"/>
<line x1="860" y1="372" x2="860" y2="405" class="wire"/>
<circle cx="860" cy="390" r="5" class="node"/>
<circle cx="830" cy="450" r="54" class="wire"/>
<line x1="776" y1="450" x2="814" y2="450" class="wire"/>
<line x1="814" y1="416" x2="814" y2="484" class="wire"/>
<line x1="814" y1="426" x2="860" y2="405" class="wire"/>
<line x1="814" y1="474" x2="860" y2="495" class="wire"/>
<polygon points="833.32,417.18 849.25,415.95 844.68,405.95" fill="#111" stroke="none"/>
<text x="786" y="532" font-family="Arial, Helvetica, sans-serif" font-size="14" font-weight="700" text-anchor="middle" fill="#111">VT3 KT816A</text>
<line x1="860" y1="495" x2="860" y2="610" class="wire"/>
<line x1="860" y1="610" x2="860" y2="624" class="wire"/>
<line x1="834" y1="624" x2="886" y2="624" class="wire"/>
<line x1="843" y1="637" x2="877" y2="637" class="wire"/>
<line x1="852" y1="650" x2="868" y2="650" class="wire"/>
<text x="888" y="420" font-family="Arial, Helvetica, sans-serif" font-size="13" font-weight="700" text-anchor="start" fill="#111">OUT</text>
<line x1="950" y1="390" x2="1008.5" y2="390" class="wire"/>
<line x1="1008.5" y1="366" x2="1008.5" y2="414" class="wire"/>
<line x1="1036.5" y1="366" x2="1036.5" y2="414" class="wire"/>
<line x1="1036.5" y1="390" x2="1095" y2="390" class="wire"/>
<text x="1022.5" y="356" font-family="Arial, Helvetica, sans-serif" font-size="14" font-weight="700" text-anchor="middle" fill="#111">C2 4700u</text>
<text x="992.5" y="373" font-family="Arial, Helvetica, sans-serif" font-size="18" font-weight="700" text-anchor="middle" fill="#111">+</text>
<line x1="1095" y1="390" x2="1148" y2="390" class="wire"/>
<line x1="1148" y1="390" x2="1148" y2="424" class="wire"/>
<rect x="1130" y="424" width="36" height="76" class="wire"/>
<polyline points="1166,432 1224,408 1224,516 1166,492" class="wire" fill="none"/>
<line x1="1148" y1="500" x2="1148" y2="570" class="wire"/>
<text x="1188" y="546" font-family="Arial, Helvetica, sans-serif" font-size="14" font-weight="700" text-anchor="middle" fill="#111">B1 8 ohm</text>
<line x1="1148" y1="570" x2="1148" y2="584" class="wire"/>
<line x1="1122" y1="584" x2="1174" y2="584" class="wire"/>
<line x1="1131" y1="597" x2="1165" y2="597" class="wire"/>
<line x1="1140" y1="610" x2="1156" y2="610" class="wire"/>
<text x="1102" y="364" font-family="Arial, Helvetica, sans-serif" font-size="14" font-weight="700" text-anchor="start" fill="#111">speaker</text>
<text x="42" y="532" font-family="Arial, Helvetica, sans-serif" font-size="16" font-weight="700" text-anchor="start" fill="#111">Input</text>
<line x1="42" y1="540" x2="96" y2="540" class="wire"/>
<line x1="96" y1="540" x2="160" y2="540" class="wire"/>
<line x1="160" y1="516" x2="160" y2="564" class="wire"/>
<line x1="188" y1="516" x2="188" y2="564" class="wire"/>
<line x1="188" y1="540" x2="252" y2="540" class="wire"/>
<text x="174" y="506" font-family="Arial, Helvetica, sans-serif" font-size="14" font-weight="700" text-anchor="middle" fill="#111">C3 10u</text>
<text x="204" y="523" font-family="Arial, Helvetica, sans-serif" font-size="18" font-weight="700" text-anchor="middle" fill="#111">+</text>
<line x1="252" y1="540" x2="306" y2="540" class="wire"/>
<circle cx="306" cy="540" r="5" class="node"/>
<line x1="306" y1="540" x2="306" y2="567" class="wire"/>
<rect x="292" y="567" width="28" height="76" class="wire"/>
<line x1="306" y1="643" x2="306" y2="670" class="wire"/>
<text x="282" y="610" font-family="Arial, Helvetica, sans-serif" font-size="14" font-weight="700" text-anchor="end" fill="#111">R3 10k</text>
<line x1="306" y1="670" x2="306" y2="684" class="wire"/>
<line x1="280" y1="684" x2="332" y2="684" class="wire"/>
<line x1="289" y1="697" x2="323" y2="697" class="wire"/>
<line x1="298" y1="710" x2="314" y2="710" class="wire"/>
<circle cx="430" cy="540" r="54" class="wire"/>
<line x1="376" y1="540" x2="414" y2="540" class="wire"/>
<line x1="414" y1="506" x2="414" y2="574" class="wire"/>
<line x1="414" y1="516" x2="460" y2="495" class="wire"/>
<line x1="414" y1="564" x2="460" y2="585" class="wire"/>
<polygon points="446.20,578.70 430.27,577.47 434.84,567.47" fill="#111" stroke="none"/>
<text x="386" y="622" font-family="Arial, Helvetica, sans-serif" font-size="14" font-weight="700" text-anchor="middle" fill="#111">VT1 KT3102A</text>
<line x1="306" y1="540" x2="376" y2="540" class="wire"/>
<line x1="460" y1="450" x2="460" y2="495" class="wire"/>
<circle cx="460" cy="450" r="5" class="node"/>
<line x1="460" y1="450" x2="776" y2="450" class="wire"/>
<line x1="460" y1="585" x2="460" y2="610" class="wire"/>
<line x1="460" y1="610" x2="460" y2="617" class="wire"/>
<rect x="446" y="617" width="28" height="76" class="wire"/>
<line x1="460" y1="693" x2="460" y2="700" class="wire"/>
<text x="484" y="660" font-family="Arial, Helvetica, sans-serif" font-size="14" font-weight="700" text-anchor="start" fill="#111">R4 100</text>
<line x1="460" y1="700" x2="460" y2="714" class="wire"/>
<line x1="434" y1="714" x2="486" y2="714" class="wire"/>
<line x1="443" y1="727" x2="477" y2="727" class="wire"/>
<line x1="452" y1="740" x2="468" y2="740" class="wire"/>
<line x1="180" y1="430" x2="205" y2="430" class="wire"/>
<rect x="205" y="416" width="76" height="28" class="wire"/>
<line x1="281" y1="430" x2="306" y2="430" class="wire"/>
<text x="243" y="404" font-family="Arial, Helvetica, sans-serif" font-size="14" font-weight="700" text-anchor="middle" fill="#111">R2 47k</text>
<line x1="156" y1="430" x2="180" y2="430" class="wire"/>
<text x="130" y="435" font-family="Arial, Helvetica, sans-serif" font-size="12" font-weight="700" text-anchor="start" fill="#111">OUT</text>
<line x1="306" y1="430" x2="306" y2="540" class="wire"/>
</svg>
