<svg xmlns="http://www.w3.org/2000/svg" width="1320" height="840" viewBox="0 0 1320 840">
<defs>
<style>
.wire{stroke:#111;stroke-width:2.6;fill:none;stroke-linecap:round;stroke-linejoin:round}
.thin{stroke:#a7b0bd;stroke-width:1.2;fill:none;stroke-linecap:round;stroke-linejoin:round}
.axis{stroke:#111;stroke-width:1.4;fill:none}
.blue{stroke:#1665d8;stroke-width:3;fill:none;stroke-linecap:round;stroke-linejoin:round}
.green{stroke:#13795b;stroke-width:3;fill:none;stroke-linecap:round;stroke-linejoin:round}
.orange{stroke:#b54708;stroke-width:3;fill:none;stroke-linecap:round;stroke-linejoin:round}
.node{fill:#111;stroke:none}
</style>
</defs>
<rect width="100%" height="100%" fill="#fff"/>
<text x="42" y="42" font-family="Arial, Helvetica, sans-serif" font-size="22" font-weight="700" text-anchor="start" fill="#111">004 shema-1804-6 BJT audio amplifier, upper Darlington variant</text>
<text x="42" y="68" font-family="Arial, Helvetica, sans-serif" font-size="13" font-weight="400" text-anchor="start" fill="#111">Based on 003 bootstrap circuit; VT2A + VT2B form the upper Darlington emitter follower</text>
<line x1="300" y1="98" x2="1080" y2="98" class="wire"/>
<polyline points="1080,90 1097,98 1080,106" class="wire" fill="none"/>
<text x="1115" y="104" font-family="Arial, Helvetica, sans-serif" font-size="18" font-weight="700" text-anchor="start" fill="#111">+12 V</text>
<circle cx="460" cy="98" r="5" class="node"/>
<circle cx="720" cy="98" r="5" class="node"/>
<circle cx="870" cy="98" r="5" class="node"/>
<line x1="300" y1="98" x2="300" y2="145" class="wire"/>
<line x1="276" y1="145" x2="324" y2="145" class="wire"/>
<line x1="276" y1="173" x2="324" y2="173" class="wire"/>
<line x1="300" y1="173" x2="300" y2="220" class="wire"/>
<text x="272" y="164" font-family="Arial, Helvetica, sans-serif" font-size="14" font-weight="700" text-anchor="end" fill="#111">C1 1000u</text>
<text x="266" y="129" font-family="Arial, Helvetica, sans-serif" font-size="18" font-weight="700" text-anchor="middle" fill="#111">+</text>
<line x1="300" y1="220" x2="300" y2="234" class="wire"/>
<line x1="274" y1="234" x2="326" y2="234" class="wire"/>
<line x1="283" y1="247" x2="317" y2="247" class="wire"/>
<line x1="292" y1="260" x2="308" y2="260" class="wire"/>
<line x1="460" y1="98" x2="460" y2="108.5" class="wire"/>
<rect x="446" y="108.5" width="28" height="76" class="wire"/>
<line x1="460" y1="184.5" x2="460" y2="195" class="wire"/>
<text x="436" y="151.5" font-family="Arial, Helvetica, sans-serif" font-size="14" font-weight="700" text-anchor="end" fill="#111">R1A 620</text>
<circle cx="460" cy="195" r="5" class="node"/>
<line x1="460" y1="195" x2="460" y2="207" class="wire"/>
<rect x="446" y="207" width="28" height="76" class="wire"/>
<line x1="460" y1="283" x2="460" y2="295" class="wire"/>
<text x="436" y="250" font-family="Arial, Helvetica, sans-serif" font-size="14" font-weight="700" text-anchor="end" fill="#111">R1B 3.3k</text>
<circle cx="460" cy="295" r="5" class="node"/>
<line x1="460" y1="295" x2="460" y2="301" class="wire"/>
<polyline points="438,301 482,301 460,333 438,301" class="wire" fill="none"/>
<line x1="438" y1="339" x2="482" y2="339" class="wire"/>
<line x1="460" y1="339" x2="460" y2="355" class="wire"/>
<text x="426" y="329" font-family="Arial, Helvetica, sans-serif" font-size="14" font-weight="700" text-anchor="end" fill="#111">VD1 KD521A</text>
<line x1="460" y1="355" x2="460" y2="361" class="wire"/>
<polyline points="438,361 482,361 460,393 438,361" class="wire" fill="none"/>
<line x1="438" y1="399" x2="482" y2="399" class="wire"/>
<line x1="460" y1="399" x2="460" y2="415" class="wire"/>
<text x="426" y="389" font-family="Arial, Helvetica, sans-serif" font-size="14" font-weight="700" text-anchor="end" fill="#111">VD2 KD521A</text>
<line x1="460" y1="415" x2="460" y2="421" class="wire"/>
<polyline points="438,421 482,421 460,453 438,421" class="wire" fill="none"/>
<line x1="438" y1="459" x2="482" y2="459" class="wire"/>
<line x1="460" y1="459" x2="460" y2="475" class="wire"/>
<text x="426" y="449" font-family="Arial, Helvetica, sans-serif" font-size="14" font-weight="700" text-anchor="end" fill="#111">VD3 KD521A</text>
<line x1="460" y1="475" x2="460" y2="510" class="wire"/>
<line x1="460" y1="195" x2="500" y2="195" class="wire"/>
<line x1="500" y1="195" x2="500" y2="225" class="wire"/>
<line x1="500" y1="225" x2="520" y2="225" class="wire"/>
<line x1="520" y1="225" x2="556" y2="225" class="wire"/>
<line x1="556" y1="201" x2="556" y2="249" class="wire"/>
<line x1="584" y1="201" x2="584" y2="249" class="wire"/>
<line x1="584" y1="225" x2="620" y2="225" class="wire"/>
<text x="570" y="191" font-family="Arial, Helvetica, sans-serif" font-size="14" font-weight="700" text-anchor="middle" fill="#111">C4 470u</text>
<text x="540" y="208" font-family="Arial, Helvetica, sans-serif" font-size="18" font-weight="700" text-anchor="middle" fill="#111">+</text>
<line x1="620" y1="225" x2="660" y2="225" class="wire"/>
<text x="676" y="230" font-family="Arial, Helvetica, sans-serif" font-size="12" font-weight="700" text-anchor="start" fill="#111">OUT</text>
<line x1="950" y1="385" x2="950" y2="770" class="wire"/>
<circle cx="690" cy="295" r="54" class="wire"/>
<line x1="636" y1="295" x2="674" y2="295" class="wire"/>
<line x1="674" y1="261" x2="674" y2="329" class="wire"/>
<line x1="674" y1="271" x2="720" y2="250" class="wire"/>
<line x1="674" y1="319" x2="720" y2="340" class="wire"/>
<polygon points="706.20,333.70 690.27,332.47 694.84,322.47" fill="#111" stroke="none"/>
<text x="646" y="377" font-family="Arial, Helvetica, sans-serif" font-size="14" font-weight="700" text-anchor="middle" fill="#111"></text>
<text x="628" y="372" font-family="Arial, Helvetica, sans-serif" font-size="14" font-weight="700" text-anchor="middle" fill="#111">VT2A KT3102A</text>
<line x1="720" y1="250" x2="720" y2="98" class="wire"/>
<line x1="460" y1="295" x2="636" y2="295" class="wire"/>
<circle cx="840" cy="340" r="54" class="wire"/>
<line x1="786" y1="340" x2="824" y2="340" class="wire"/>
<line x1="824" y1="306" x2="824" y2="374" class="wire"/>
<line x1="824" y1="316" x2="870" y2="295" class="wire"/>
<line x1="824" y1="364" x2="870" y2="385" class="wire"/>
<polygon points="856.20,378.70 840.27,377.47 844.84,367.47" fill="#111" stroke="none"/>
<text x="796" y="422" font-family="Arial, Helvetica, sans-serif" font-size="14" font-weight="700" text-anchor="middle" fill="#111"></text>
<text x="912" y="334" font-family="Arial, Helvetica, sans-serif" font-size="14" font-weight="700" text-anchor="start" fill="#111">VT2B KT817A</text>
<line x1="870" y1="295" x2="870" y2="98" class="wire"/>
<line x1="720" y1="340" x2="786" y2="340" class="wire"/>
<line x1="870" y1="385" x2="950" y2="385" class="wire"/>
<circle cx="950" cy="385" r="5" class="node"/>
<circle cx="840" cy="510" r="54" class="wire"/>
<line x1="786" y1="510" x2="824" y2="510" class="wire"/>
<line x1="824" y1="476" x2="824" y2="544" class="wire"/>
<line x1="824" y1="486" x2="870" y2="465" class="wire"/>
<line x1="824" y1="534" x2="870" y2="555" class="wire"/>
<polygon points="843.32,477.18 859.25,475.95 854.68,465.95" fill="#111" stroke="none"/>
<text x="796" y="592" font-family="Arial, Helvetica, sans-serif" font-size="14" font-weight="700" text-anchor="middle" fill="#111">VT3 KT816A</text>
<line x1="870" y1="465" x2="950" y2="465" class="wire"/>
<circle cx="950" cy="465" r="5" class="node"/>
<line x1="870" y1="555" x2="870" y2="670" class="wire"/>
<line x1="870" y1="670" x2="870" y2="684" class="wire"/>
<line x1="844" y1="684" x2="896" y2="684" class="wire"/>
<line x1="853" y1="697" x2="887" y2="697" class="wire"/>
<line x1="862" y1="710" x2="878" y2="710" class="wire"/>
<circle cx="950" cy="425" r="5" class="node"/>
<text x="970" y="450" font-family="Arial, Helvetica, sans-serif" font-size="13" font-weight="700" text-anchor="start" fill="#111">OUT</text>
<line x1="950" y1="425" x2="990" y2="425" class="wire"/>
<line x1="990" y1="425" x2="1048.5" y2="425" class="wire"/>
<line x1="1048.5" y1="401" x2="1048.5" y2="449" class="wire"/>
<line x1="1076.5" y1="401" x2="1076.5" y2="449" class="wire"/>
<line x1="1076.5" y1="425" x2="1135" y2="425" class="wire"/>
<text x="1062.5" y="391" font-family="Arial, Helvetica, sans-serif" font-size="14" font-weight="700" text-anchor="middle" fill="#111">C2 4700u</text>
<text x="1032.5" y="408" font-family="Arial, Helvetica, sans-serif" font-size="18" font-weight="700" text-anchor="middle" fill="#111">+</text>
<line x1="1135" y1="425" x2="1190" y2="425" class="wire"/>
<line x1="1190" y1="425" x2="1190" y2="459" class="wire"/>
<rect x="1172" y="459" width="36" height="76" class="wire"/>
<polyline points="1208,467 1266,443 1266,551 1208,527" class="wire" fill="none"/>
<line x1="1190" y1="535" x2="1190" y2="603" class="wire"/>
<text x="1230" y="581" font-family="Arial, Helvetica, sans-serif" font-size="14" font-weight="700" text-anchor="middle" fill="#111">B1 8 ohm</text>
<line x1="1190" y1="603" x2="1190" y2="617" class="wire"/>
<line x1="1164" y1="617" x2="1216" y2="617" class="wire"/>
<line x1="1173" y1="630" x2="1207" y2="630" class="wire"/>
<line x1="1182" y1="643" x2="1198" y2="643" class="wire"/>
<text x="1144" y="399" font-family="Arial, Helvetica, sans-serif" font-size="14" font-weight="700" text-anchor="start" fill="#111">speaker</text>
<text x="42" y="547" font-family="Arial, Helvetica, sans-serif" font-size="16" font-weight="700" text-anchor="start" fill="#111">Input</text>
<line x1="42" y1="555" x2="96" y2="555" class="wire"/>
<line x1="96" y1="555" x2="160" y2="555" class="wire"/>
<line x1="160" y1="531" x2="160" y2="579" class="wire"/>
<line x1="188" y1="531" x2="188" y2="579" class="wire"/>
<line x1="188" y1="555" x2="252" y2="555" class="wire"/>
<text x="174" y="521" font-family="Arial, Helvetica, sans-serif" font-size="14" font-weight="700" text-anchor="middle" fill="#111">C3 10u</text>
<text x="204" y="538" font-family="Arial, Helvetica, sans-serif" font-size="18" font-weight="700" text-anchor="middle" fill="#111">+</text>
<line x1="252" y1="555" x2="306" y2="555" class="wire"/>
<circle cx="306" cy="555" r="5" class="node"/>
<line x1="306" y1="555" x2="306" y2="587" class="wire"/>
<rect x="292" y="587" width="28" height="76" class="wire"/>
<line x1="306" y1="663" x2="306" y2="695" class="wire"/>
<text x="282" y="630" font-family="Arial, Helvetica, sans-serif" font-size="14" font-weight="700" text-anchor="end" fill="#111">R3 10k</text>
<line x1="306" y1="695" x2="306" y2="709" class="wire"/>
<line x1="280" y1="709" x2="332" y2="709" class="wire"/>
<line x1="289" y1="722" x2="323" y2="722" class="wire"/>
<line x1="298" y1="735" x2="314" y2="735" class="wire"/>
<circle cx="430" cy="555" r="54" class="wire"/>
<line x1="376" y1="555" x2="414" y2="555" class="wire"/>
<line x1="414" y1="521" x2="414" y2="589" class="wire"/>
<line x1="414" y1="531" x2="460" y2="510" class="wire"/>
<line x1="414" y1="579" x2="460" y2="600" class="wire"/>
<polygon points="446.20,593.70 430.27,592.47 434.84,582.47" fill="#111" stroke="none"/>
<text x="386" y="637" font-family="Arial, Helvetica, sans-serif" font-size="14" font-weight="700" text-anchor="middle" fill="#111">VT1 KT3102A</text>
<line x1="306" y1="555" x2="376" y2="555" class="wire"/>
<circle cx="460" cy="510" r="5" class="node"/>
<line x1="460" y1="510" x2="786" y2="510" class="wire"/>
<line x1="460" y1="600" x2="460" y2="620" class="wire"/>
<line x1="460" y1="620" x2="460" y2="639.5" class="wire"/>
<rect x="446" y="639.5" width="28" height="76" class="wire"/>
<line x1="460" y1="715.5" x2="460" y2="735" class="wire"/>
<text x="484" y="682.5" font-family="Arial, Helvetica, sans-serif" font-size="14" font-weight="700" text-anchor="start" fill="#111">R4 51</text>
<line x1="460" y1="735" x2="460" y2="749" class="wire"/>
<line x1="434" y1="749" x2="486" y2="749" class="wire"/>
<line x1="443" y1="762" x2="477" y2="762" class="wire"/>
<line x1="452" y1="775" x2="468" y2="775" class="wire"/>
<line x1="180" y1="450" x2="205" y2="450" class="wire"/>
<rect x="205" y="436" width="76" height="28" class="wire"/>
<line x1="281" y1="450" x2="306" y2="450" class="wire"/>
<text x="243" y="424" font-family="Arial, Helvetica, sans-serif" font-size="14" font-weight="700" text-anchor="middle" fill="#111">R2 62k</text>
<line x1="24" y1="770" x2="950" y2="770" class="wire"/>
<line x1="24" y1="450" x2="24" y2="770" class="wire"/>
<line x1="24" y1="450" x2="180" y2="450" class="wire"/>
<line x1="306" y1="450" x2="306" y2="555" class="wire"/>
</svg>
