<svg xmlns="http://www.w3.org/2000/svg" width="920" height="520" viewBox="0 0 920 520">
<defs>
<style>
.wire{stroke:#111;stroke-width:2.6;fill:none;stroke-linecap:round;stroke-linejoin:round}
.thin{stroke:#a7b0bd;stroke-width:1.2;fill:none;stroke-linecap:round;stroke-linejoin:round}
.axis{stroke:#111;stroke-width:1.4;fill:none}
.blue{stroke:#1665d8;stroke-width:3;fill:none;stroke-linecap:round;stroke-linejoin:round}
.green{stroke:#13795b;stroke-width:3;fill:none;stroke-linecap:round;stroke-linejoin:round}
.orange{stroke:#b54708;stroke-width:3;fill:none;stroke-linecap:round;stroke-linejoin:round}
.node{fill:#111;stroke:none}
</style>
</defs>
<rect width="100%" height="100%" fill="#fff"/>
<text x="76" y="36" font-family="Arial, Helvetica, sans-serif" font-size="22" font-weight="700" text-anchor="start" fill="#111">Common-emitter AC voltage gain</text>
<rect x="76" y="60" width="812" height="396" fill="#fff" stroke="#111" stroke-width="1.4"/>
<line x1="124.887" y1="60" x2="124.887" y2="456" class="thin"/>
<text x="124.887" y="479" font-family="Arial, Helvetica, sans-serif" font-size="12" font-weight="400" text-anchor="middle" fill="#111">10</text>
<line x1="287.287" y1="60" x2="287.287" y2="456" class="thin"/>
<text x="287.287" y="479" font-family="Arial, Helvetica, sans-serif" font-size="12" font-weight="400" text-anchor="middle" fill="#111">100</text>
<line x1="449.687" y1="60" x2="449.687" y2="456" class="thin"/>
<text x="449.687" y="479" font-family="Arial, Helvetica, sans-serif" font-size="12" font-weight="400" text-anchor="middle" fill="#111">1k</text>
<line x1="612.087" y1="60" x2="612.087" y2="456" class="thin"/>
<text x="612.087" y="479" font-family="Arial, Helvetica, sans-serif" font-size="12" font-weight="400" text-anchor="middle" fill="#111">10k</text>
<line x1="774.487" y1="60" x2="774.487" y2="456" class="thin"/>
<text x="774.487" y="479" font-family="Arial, Helvetica, sans-serif" font-size="12" font-weight="400" text-anchor="middle" fill="#111">100k</text>
<line x1="76" y1="456" x2="888" y2="456" class="thin"/>
<text x="66" y="460" font-family="Arial, Helvetica, sans-serif" font-size="12" font-weight="400" text-anchor="end" fill="#111">5</text>
<line x1="76" y1="406.5" x2="888" y2="406.5" class="thin"/>
<text x="66" y="410.5" font-family="Arial, Helvetica, sans-serif" font-size="12" font-weight="400" text-anchor="end" fill="#111">10</text>
<line x1="76" y1="357" x2="888" y2="357" class="thin"/>
<text x="66" y="361" font-family="Arial, Helvetica, sans-serif" font-size="12" font-weight="400" text-anchor="end" fill="#111">15</text>
<line x1="76" y1="307.5" x2="888" y2="307.5" class="thin"/>
<text x="66" y="311.5" font-family="Arial, Helvetica, sans-serif" font-size="12" font-weight="400" text-anchor="end" fill="#111">20</text>
<line x1="76" y1="258" x2="888" y2="258" class="thin"/>
<text x="66" y="262" font-family="Arial, Helvetica, sans-serif" font-size="12" font-weight="400" text-anchor="end" fill="#111">25</text>
<line x1="76" y1="208.5" x2="888" y2="208.5" class="thin"/>
<text x="66" y="212.5" font-family="Arial, Helvetica, sans-serif" font-size="12" font-weight="400" text-anchor="end" fill="#111">30</text>
<line x1="76" y1="159" x2="888" y2="159" class="thin"/>
<text x="66" y="163" font-family="Arial, Helvetica, sans-serif" font-size="12" font-weight="400" text-anchor="end" fill="#111">35</text>
<line x1="76" y1="109.5" x2="888" y2="109.5" class="thin"/>
<text x="66" y="113.5" font-family="Arial, Helvetica, sans-serif" font-size="12" font-weight="400" text-anchor="end" fill="#111">40</text>
<line x1="76" y1="60" x2="888" y2="60" class="thin"/>
<text x="66" y="64" font-family="Arial, Helvetica, sans-serif" font-size="12" font-weight="400" text-anchor="end" fill="#111">45</text>
<polyline points="76.00,388.27 78.03,384.77 80.06,381.31 82.09,377.87 84.12,374.47 86.15,371.10 88.18,367.77 90.21,364.46 92.24,361.19 94.27,357.94 96.30,354.73 98.33,351.54 100.36,348.38 102.39,345.26 104.42,342.16 106.45,339.08 108.48,336.03 110.51,333.01 112.54,330.02 114.57,327.05 116.60,324.10 118.63,321.18 120.66,318.27 122.69,315.40 124.72,312.54 126.75,309.70 128.78,306.88 130.81,304.09 132.84,301.31 134.87,298.55 136.90,295.81 138.93,293.08 140.96,290.37 142.99,287.68 145.02,285.01 147.05,282.35 149.08,279.70 151.11,277.07 153.14,274.46 155.17,271.86 157.20,269.27 159.23,266.69 161.26,264.13 163.29,261.59 165.32,259.05 167.35,256.53 169.38,254.02 171.41,251.53 173.44,249.04 175.47,246.57 177.50,244.11 179.53,241.67 181.56,239.23 183.59,236.81 185.62,234.41 187.65,232.01 189.68,229.63 191.71,227.27 193.74,224.91 195.77,222.57 197.80,220.25 199.83,217.94 201.86,215.65 203.89,213.37 205.92,211.10 207.95,208.86 209.98,206.63 212.01,204.42 214.04,202.22 216.07,200.05 218.10,197.89 220.13,195.75 222.16,193.64 224.19,191.54 226.22,189.47 228.25,187.42 230.28,185.39 232.31,183.38 234.34,181.40 236.37,179.45 238.40,177.52 240.43,175.62 242.46,173.74 244.49,171.89 246.52,170.08 248.55,168.29 250.58,166.53 252.61,164.80 254.64,163.10 256.67,161.44 258.70,159.81 260.73,158.21 262.76,156.64 264.79,155.11 266.82,153.61 268.85,152.15 270.88,150.72 272.91,149.33 274.94,147.98 276.97,146.66 279.00,145.37 281.03,144.12 283.06,142.91 285.09,141.73 287.12,140.59 289.15,139.49 291.18,138.42 293.21,137.38 295.24,136.38 297.27,135.42 299.30,134.49 301.33,133.59 303.36,132.72 305.39,131.89 307.42,131.09 309.45,130.32 311.48,129.57 313.51,128.86 315.54,128.18 317.57,127.53 319.60,126.90 321.63,126.30 323.66,125.73 325.69,125.18 327.72,124.65 329.75,124.15 331.78,123.67 333.81,123.22 335.84,122.78 337.87,122.36 339.90,121.97 341.93,121.59 343.96,121.23 345.99,120.89 348.02,120.56 350.05,120.25 352.08,119.96 354.11,119.68 356.14,119.42 358.17,119.16 360.20,118.92 362.23,118.70 364.26,118.48 366.29,118.28 368.32,118.08 370.35,117.90 372.38,117.72 374.41,117.56 376.44,117.40 378.47,117.25 380.50,117.11 382.53,116.98 384.56,116.85 386.59,116.74 388.62,116.62 390.65,116.52 392.68,116.41 394.71,116.32 396.74,116.23 398.77,116.14 400.80,116.06 402.83,115.99 404.86,115.91 406.89,115.84 408.92,115.78 410.95,115.72 412.98,115.66 415.01,115.61 417.04,115.55 419.07,115.50 421.10,115.46 423.13,115.41 425.16,115.37 427.19,115.33 429.22,115.30 431.25,115.26 433.28,115.23 435.31,115.20 437.34,115.17 439.37,115.14 441.40,115.12 443.43,115.09 445.46,115.07 447.49,115.05 449.52,115.02 451.55,115.00 453.58,114.99 455.61,114.97 457.64,114.95 459.67,114.94 461.70,114.92 463.73,114.91 465.76,114.89 467.79,114.88 469.82,114.87 471.85,114.86 473.88,114.85 475.91,114.84 477.94,114.83 479.97,114.82 482.00,114.81 484.03,114.80 486.06,114.80 488.09,114.79 490.12,114.78 492.15,114.78 494.18,114.77 496.21,114.77 498.24,114.76 500.27,114.76 502.30,114.75 504.33,114.75 506.36,114.74 508.39,114.74 510.42,114.73 512.45,114.73 514.48,114.73 516.51,114.72 518.54,114.72 520.57,114.72 522.60,114.72 524.63,114.71 526.66,114.71 528.69,114.71 530.72,114.71 532.75,114.71 534.78,114.70 536.81,114.70 538.84,114.70 540.87,114.70 542.90,114.70 544.93,114.70 546.96,114.69 548.99,114.69 551.02,114.69 553.05,114.69 555.08,114.69 557.11,114.69 559.14,114.69 561.17,114.69 563.20,114.69 565.23,114.69 567.26,114.69 569.29,114.69 571.32,114.69 573.35,114.68 575.38,114.68 577.41,114.68 579.44,114.68 581.47,114.68 583.50,114.68 585.53,114.68 587.56,114.68 589.59,114.68 591.62,114.68 593.65,114.68 595.68,114.68 597.71,114.68 599.74,114.68 601.77,114.68 603.80,114.68 605.83,114.68 607.86,114.68 609.89,114.68 611.92,114.68 613.95,114.68 615.98,114.69 618.01,114.69 620.04,114.69 622.07,114.69 624.10,114.69 626.13,114.69 628.16,114.69 630.19,114.69 632.22,114.69 634.25,114.69 636.28,114.69 638.31,114.69 640.34,114.70 642.37,114.70 644.40,114.70 646.43,114.70 648.46,114.70 650.49,114.70 652.52,114.70 654.55,114.71 656.58,114.71 658.61,114.71 660.64,114.71 662.67,114.71 664.70,114.72 666.73,114.72 668.76,114.72 670.79,114.73 672.82,114.73 674.85,114.73 676.88,114.74 678.91,114.74 680.94,114.74 682.97,114.75 685.00,114.75 687.03,114.76 689.06,114.76 691.09,114.77 693.12,114.77 695.15,114.78 697.18,114.79 699.21,114.79 701.24,114.80 703.27,114.81 705.30,114.82 707.33,114.82 709.36,114.83 711.39,114.84 713.42,114.85 715.45,114.86 717.48,114.87 719.51,114.89 721.54,114.90 723.57,114.91 725.60,114.93 727.63,114.94 729.66,114.96 731.69,114.98 733.72,114.99 735.75,115.01 737.78,115.03 739.81,115.05 741.84,115.08 743.87,115.10 745.90,115.13 747.93,115.15 749.96,115.18 751.99,115.21 754.02,115.24 756.05,115.28 758.08,115.31 760.11,115.35 762.14,115.39 764.17,115.43 766.20,115.48 768.23,115.52 770.26,115.57 772.29,115.63 774.32,115.68 776.35,115.74 778.38,115.81 780.41,115.87 782.44,115.94 784.47,116.02 786.50,116.09 788.53,116.18 790.56,116.26 792.59,116.36 794.62,116.45 796.65,116.56 798.68,116.67 800.71,116.78 802.74,116.91 804.77,117.03 806.80,117.17 808.83,117.31 810.86,117.47 812.89,117.63 814.92,117.79 816.95,117.97 818.98,118.16 821.01,118.36 823.04,118.57 825.07,118.79 827.10,119.02 829.13,119.26 831.16,119.52 833.19,119.79 835.22,120.08 837.25,120.38 839.28,120.69 841.31,121.02 843.34,121.37 845.37,121.74 847.40,122.12 849.43,122.53 851.46,122.95 853.49,123.39 855.52,123.86 857.55,124.35 859.58,124.86 861.61,125.39 863.64,125.95 865.67,126.53 867.70,127.14 869.73,127.78 871.76,128.45 873.79,129.14 875.82,129.86 877.85,130.61 879.88,131.39 881.91,132.21 883.94,133.05 885.97,133.93 888.00,134.84" fill="none" stroke="#1665d8" stroke-width="3" stroke-linejoin="round"/>
<rect x="670" y="62" width="190" height="44" rx="4" ry="4" fill="#fff" fill-opacity="0.82" stroke="#111" stroke-width="1"/>
<line x1="682" y1="78" x2="718" y2="78" stroke="#1665d8" stroke-width="3"/>
<text x="728" y="83" font-family="Arial, Helvetica, sans-serif" font-size="13" font-weight="400" text-anchor="start" fill="#111">gain</text>
<text x="460" y="502" font-family="Arial, Helvetica, sans-serif" font-size="14" font-weight="400" text-anchor="middle" fill="#111">Frequency, Hz</text>
<text x="22" y="260" font-family="Arial, Helvetica, sans-serif" font-size="14" text-anchor="middle" fill="#111" transform="rotate(-90 22 260)">Gain, dB</text>
</svg>
