<svg xmlns="http://www.w3.org/2000/svg" width="920" height="520" viewBox="0 0 920 520">
<defs>
<style>
.wire{stroke:#111;stroke-width:2.6;fill:none;stroke-linecap:round;stroke-linejoin:round}
.thin{stroke:#a7b0bd;stroke-width:1.2;fill:none;stroke-linecap:round;stroke-linejoin:round}
.axis{stroke:#111;stroke-width:1.4;fill:none}
.blue{stroke:#1665d8;stroke-width:3;fill:none;stroke-linecap:round;stroke-linejoin:round}
.green{stroke:#13795b;stroke-width:3;fill:none;stroke-linecap:round;stroke-linejoin:round}
.orange{stroke:#b54708;stroke-width:3;fill:none;stroke-linecap:round;stroke-linejoin:round}
.node{fill:#111;stroke:none}
</style>
</defs>
<rect width="100%" height="100%" fill="#fff"/>
<text x="76" y="36" font-family="Arial, Helvetica, sans-serif" font-size="22" font-weight="700" text-anchor="start" fill="#111">Common-emitter sine response, 1 kHz, Vin = 20 mVpp</text>
<rect x="76" y="60" width="812" height="396" fill="#fff" stroke="#111" stroke-width="1.4"/>
<line x1="76" y1="60" x2="76" y2="456" class="thin"/>
<text x="76" y="479" font-family="Arial, Helvetica, sans-serif" font-size="12" font-weight="400" text-anchor="middle" fill="#111">0</text>
<line x1="279" y1="60" x2="279" y2="456" class="thin"/>
<text x="279" y="479" font-family="Arial, Helvetica, sans-serif" font-size="12" font-weight="400" text-anchor="middle" fill="#111">1</text>
<line x1="482" y1="60" x2="482" y2="456" class="thin"/>
<text x="482" y="479" font-family="Arial, Helvetica, sans-serif" font-size="12" font-weight="400" text-anchor="middle" fill="#111">2</text>
<line x1="685" y1="60" x2="685" y2="456" class="thin"/>
<text x="685" y="479" font-family="Arial, Helvetica, sans-serif" font-size="12" font-weight="400" text-anchor="middle" fill="#111">3</text>
<line x1="888" y1="60" x2="888" y2="456" class="thin"/>
<text x="888" y="479" font-family="Arial, Helvetica, sans-serif" font-size="12" font-weight="400" text-anchor="middle" fill="#111">4</text>
<line x1="76" y1="456" x2="888" y2="456" class="thin"/>
<text x="66" y="460" font-family="Arial, Helvetica, sans-serif" font-size="12" font-weight="400" text-anchor="end" fill="#111">-2000</text>
<line x1="76" y1="357" x2="888" y2="357" class="thin"/>
<text x="66" y="361" font-family="Arial, Helvetica, sans-serif" font-size="12" font-weight="400" text-anchor="end" fill="#111">-1000</text>
<line x1="76" y1="258" x2="888" y2="258" class="thin"/>
<text x="66" y="262" font-family="Arial, Helvetica, sans-serif" font-size="12" font-weight="400" text-anchor="end" fill="#111">0</text>
<line x1="76" y1="159" x2="888" y2="159" class="thin"/>
<text x="66" y="163" font-family="Arial, Helvetica, sans-serif" font-size="12" font-weight="400" text-anchor="end" fill="#111">1000</text>
<line x1="76" y1="60" x2="888" y2="60" class="thin"/>
<text x="66" y="64" font-family="Arial, Helvetica, sans-serif" font-size="12" font-weight="400" text-anchor="end" fill="#111">2000</text>
<polyline points="76.00,263.82 77.01,266.76 78.03,269.70 79.04,272.64 80.06,275.58 81.07,278.50 82.09,281.42 83.10,284.32 84.12,287.20 85.13,290.06 86.15,292.90 87.16,295.71 88.18,298.49 89.19,301.23 90.21,303.94 91.22,306.61 92.24,309.23 93.25,311.80 94.27,314.32 95.28,316.79 96.30,319.20 97.31,321.56 98.33,323.85 99.34,326.07 100.36,328.22 101.38,330.31 102.39,332.32 103.40,334.25 104.42,336.10 105.43,337.87 106.45,339.56 107.46,341.16 108.48,342.68 109.49,344.10 110.51,345.43 111.52,346.67 112.54,347.81 113.55,348.85 114.57,349.80 115.58,350.64 116.60,351.39 117.61,352.03 118.63,352.57 119.64,353.01 120.66,353.34 121.67,353.57 122.69,353.69 123.70,353.71 124.72,353.62 125.73,353.43 126.75,353.14 127.76,352.74 128.78,352.24 129.79,351.63 130.81,350.93 131.82,350.12 132.84,349.21 133.85,348.21 134.87,347.10 135.88,345.91 136.90,344.61 137.91,343.23 138.93,341.76 139.94,340.19 140.96,338.54 141.97,336.81 142.99,335.00 144.00,333.10 145.02,331.13 146.03,329.08 147.05,326.97 148.06,324.78 149.08,322.53 150.09,320.21 151.11,317.84 152.12,315.40 153.14,312.92 154.15,310.38 155.17,307.79 156.18,305.16 157.20,302.48 158.21,299.77 159.23,297.02 160.24,294.25 161.26,291.44 162.27,288.60 163.29,285.75 164.30,282.87 165.32,279.98 166.33,277.08 167.35,274.16 168.36,271.24 169.38,268.32 170.39,265.40 171.41,262.48 172.42,259.57 173.44,256.67 174.45,253.77 175.47,250.89 176.48,248.03 177.50,245.19 178.51,242.37 179.53,239.58 180.54,236.82 181.56,234.09 182.57,231.39 183.59,228.72 184.60,226.10 185.62,223.51 186.63,220.97 187.65,218.47 188.66,216.01 189.68,213.60 190.69,211.25 191.71,208.94 192.72,206.69 193.74,204.49 194.75,202.35 195.77,200.27 196.78,198.24 197.80,196.28 198.81,194.38 199.83,192.54 200.84,190.77 201.86,189.06 202.87,187.41 203.89,185.84 204.90,184.33 205.92,182.89 206.93,181.52 207.95,180.22 208.96,179.00 209.98,177.84 210.99,176.76 212.01,175.75 213.02,174.81 214.04,173.95 215.05,173.16 216.07,172.45 217.08,171.81 218.10,171.25 219.11,170.76 220.13,170.35 221.14,170.01 222.16,169.76 223.17,169.57 224.19,169.47 225.20,169.44 226.22,169.49 227.23,169.61 228.25,169.81 229.26,170.09 230.28,170.44 231.29,170.87 232.31,171.38 233.32,171.96 234.34,172.62 235.35,173.35 236.37,174.16 237.38,175.04 238.40,176.00 239.41,177.03 240.43,178.14 241.44,179.32 242.46,180.57 243.47,181.89 244.49,183.28 245.50,184.74 246.52,186.28 247.53,187.88 248.55,189.55 249.56,191.28 250.58,193.08 251.59,194.95 252.61,196.88 253.62,198.87 254.64,200.92 255.65,203.04 256.67,205.21 257.69,207.43 258.70,209.72 259.71,212.05 260.73,214.44 261.74,216.88 262.76,219.36 263.77,221.89 264.79,224.47 265.80,227.09 266.82,229.74 267.83,232.44 268.85,235.17 269.86,237.93 270.88,240.72 271.89,243.54 272.91,246.39 273.92,249.25 274.94,252.14 275.95,255.04 276.97,257.97 277.98,260.89 279.00,263.82 280.01,266.76 281.03,269.70 282.04,272.64 283.06,275.58 284.07,278.50 285.09,281.42 286.10,284.32 287.12,287.20 288.13,290.06 289.15,292.90 290.16,295.71 291.18,298.49 292.19,301.23 293.21,303.94 294.22,306.61 295.24,309.23 296.25,311.80 297.27,314.32 298.28,316.79 299.30,319.20 300.31,321.56 301.33,323.85 302.34,326.07 303.36,328.23 304.37,330.31 305.39,332.32 306.40,334.25 307.42,336.10 308.43,337.88 309.45,339.56 310.46,341.16 311.48,342.68 312.49,344.10 313.51,345.43 314.52,346.67 315.54,347.81 316.55,348.85 317.57,349.80 318.58,350.64 319.60,351.39 320.61,352.03 321.63,352.57 322.64,353.01 323.66,353.34 324.67,353.57 325.69,353.69 326.70,353.71 327.72,353.62 328.73,353.43 329.75,353.14 330.76,352.74 331.78,352.24 332.79,351.63 333.81,350.93 334.82,350.12 335.84,349.21 336.85,348.21 337.87,347.10 338.88,345.91 339.90,344.61 340.91,343.23 341.93,341.76 342.94,340.19 343.96,338.54 344.97,336.81 345.99,335.00 347.00,333.10 348.02,331.13 349.03,329.08 350.05,326.97 351.06,324.78 352.08,322.53 353.09,320.21 354.11,317.84 355.12,315.40 356.14,312.92 357.15,310.38 358.17,307.79 359.18,305.16 360.20,302.49 361.21,299.77 362.23,297.03 363.24,294.25 364.26,291.44 365.27,288.60 366.29,285.75 367.30,282.87 368.32,279.98 369.33,277.08 370.35,274.16 371.36,271.25 372.38,268.32 373.39,265.40 374.41,262.48 375.42,259.57 376.44,256.67 377.45,253.77 378.47,250.89 379.48,248.03 380.50,245.19 381.51,242.38 382.53,239.58 383.54,236.82 384.56,234.09 385.57,231.39 386.59,228.72 387.60,226.10 388.62,223.51 389.63,220.97 390.65,218.47 391.66,216.01 392.68,213.60 393.69,211.25 394.71,208.94 395.72,206.69 396.74,204.49 397.75,202.35 398.77,200.27 399.78,198.24 400.80,196.28 401.81,194.38 402.83,192.54 403.84,190.77 404.86,189.06 405.87,187.41 406.89,185.84 407.90,184.33 408.92,182.89 409.93,181.52 410.95,180.23 411.96,179.00 412.98,177.84 413.99,176.76 415.01,175.75 416.02,174.81 417.04,173.95 418.05,173.16 419.07,172.45 420.08,171.81 421.10,171.25 422.11,170.76 423.13,170.35 424.14,170.02 425.16,169.76 426.17,169.57 427.19,169.47 428.20,169.44 429.22,169.49 430.23,169.61 431.25,169.81 432.26,170.09 433.28,170.44 434.29,170.87 435.31,171.38 436.32,171.96 437.34,172.62 438.35,173.35 439.37,174.16 440.38,175.04 441.40,176.00 442.41,177.03 443.43,178.14 444.44,179.32 445.46,180.57 446.47,181.89 447.49,183.28 448.50,184.74 449.52,186.28 450.53,187.88 451.55,189.55 452.56,191.28 453.58,193.08 454.59,194.95 455.61,196.88 456.62,198.87 457.64,200.92 458.65,203.04 459.67,205.21 460.68,207.43 461.70,209.72 462.71,212.05 463.73,214.44 464.75,216.88 465.76,219.36 466.77,221.90 467.79,224.47 468.80,227.09 469.82,229.75 470.83,232.44 471.85,235.17 472.86,237.93 473.88,240.72 474.89,243.54 475.91,246.39 476.92,249.26 477.94,252.14 478.95,255.04 479.97,257.97 480.98,260.89 482.00,263.82 483.01,266.76 484.03,269.70 485.04,272.64 486.06,275.58 487.07,278.50 488.09,281.42 489.10,284.32 490.12,287.20 491.13,290.07 492.15,292.90 493.16,295.71 494.18,298.49 495.19,301.23 496.21,303.94 497.22,306.61 498.24,309.23 499.25,311.80 500.27,314.32 501.28,316.79 502.30,319.21 503.31,321.56 504.33,323.85 505.34,326.07 506.36,328.23 507.37,330.31 508.39,332.32 509.40,334.25 510.42,336.10 511.43,337.88 512.45,339.56 513.46,341.16 514.48,342.68 515.49,344.10 516.51,345.43 517.52,346.67 518.54,347.81 519.55,348.85 520.57,349.80 521.58,350.64 522.60,351.39 523.61,352.03 524.63,352.57 525.64,353.01 526.66,353.34 527.67,353.57 528.69,353.69 529.70,353.71 530.72,353.63 531.73,353.43 532.75,353.14 533.76,352.74 534.78,352.24 535.79,351.63 536.81,350.93 537.82,350.12 538.84,349.21 539.85,348.21 540.87,347.11 541.88,345.91 542.90,344.62 543.91,343.23 544.93,341.76 545.94,340.19 546.96,338.54 547.97,336.81 548.99,335.00 550.00,333.10 551.02,331.13 552.03,329.08 553.05,326.97 554.06,324.78 555.08,322.53 556.09,320.21 557.11,317.84 558.12,315.40 559.14,312.92 560.15,310.38 561.17,307.79 562.18,305.16 563.20,302.49 564.21,299.77 565.23,297.03 566.24,294.25 567.26,291.44 568.27,288.60 569.29,285.75 570.30,282.87 571.32,279.98 572.33,277.08 573.35,274.17 574.36,271.25 575.38,268.32 576.39,265.40 577.41,262.48 578.42,259.57 579.44,256.67 580.45,253.77 581.47,250.89 582.48,248.03 583.50,245.19 584.52,242.38 585.53,239.58 586.54,236.82 587.56,234.09 588.57,231.39 589.59,228.72 590.61,226.10 591.62,223.51 592.63,220.97 593.65,218.47 594.66,216.01 595.68,213.61 596.69,211.25 597.71,208.94 598.73,206.69 599.74,204.49 600.75,202.35 601.77,200.27 602.78,198.25 603.80,196.28 604.82,194.38 605.83,192.54 606.84,190.77 607.86,189.06 608.87,187.41 609.89,185.84 610.90,184.33 611.92,182.89 612.94,181.52 613.95,180.23 614.96,179.00 615.98,177.84 616.99,176.76 618.01,175.75 619.02,174.81 620.04,173.95 621.06,173.16 622.07,172.45 623.08,171.81 624.10,171.25 625.11,170.76 626.13,170.35 627.15,170.02 628.16,169.76 629.17,169.57 630.19,169.47 631.20,169.44 632.22,169.49 633.23,169.61 634.25,169.81 635.27,170.09 636.28,170.44 637.29,170.87 638.31,171.38 639.32,171.96 640.34,172.62 641.36,173.35 642.37,174.16 643.38,175.04 644.40,176.00 645.41,177.03 646.43,178.14 647.44,179.32 648.46,180.57 649.48,181.89 650.49,183.28 651.50,184.74 652.52,186.28 653.53,187.88 654.55,189.55 655.57,191.28 656.58,193.08 657.59,194.95 658.61,196.88 659.62,198.87 660.64,200.92 661.65,203.04 662.67,205.21 663.69,207.44 664.70,209.72 665.71,212.05 666.73,214.44 667.74,216.88 668.76,219.36 669.77,221.90 670.79,224.47 671.81,227.09 672.82,229.75 673.83,232.44 674.85,235.17 675.86,237.93 676.88,240.72 677.90,243.54 678.91,246.39 679.92,249.26 680.94,252.14 681.95,255.04 682.97,257.97 683.98,260.89 685.00,263.82 686.02,266.76 687.03,269.70 688.04,272.64 689.06,275.58 690.07,278.51 691.09,281.42 692.11,284.32 693.12,287.20 694.13,290.07 695.15,292.90 696.16,295.71 697.18,298.49 698.19,301.24 699.21,303.94 700.23,306.61 701.24,309.23 702.25,311.80 703.27,314.32 704.28,316.79 705.30,319.21 706.32,321.56 707.33,323.85 708.34,326.07 709.36,328.23 710.37,330.31 711.39,332.32 712.40,334.25 713.42,336.10 714.44,337.88 715.45,339.56 716.46,341.17 717.48,342.68 718.49,344.10 719.51,345.43 720.52,346.67 721.54,347.81 722.56,348.85 723.57,349.80 724.58,350.64 725.60,351.39 726.61,352.03 727.63,352.57 728.65,353.01 729.66,353.34 730.67,353.57 731.69,353.69 732.70,353.71 733.72,353.63 734.73,353.44 735.75,353.14 736.77,352.74 737.78,352.24 738.79,351.63 739.81,350.93 740.82,350.12 741.84,349.21 742.86,348.21 743.87,347.11 744.88,345.91 745.90,344.62 746.91,343.23 747.93,341.76 748.94,340.19 749.96,338.54 750.98,336.81 751.99,335.00 753.00,333.10 754.02,331.13 755.03,329.09 756.05,326.97 757.06,324.78 758.08,322.53 759.09,320.21 760.11,317.84 761.12,315.40 762.14,312.92 763.15,310.38 764.17,307.79 765.19,305.16 766.20,302.49 767.21,299.77 768.23,297.03 769.24,294.25 770.26,291.44 771.27,288.60 772.29,285.75 773.31,282.87 774.32,279.98 775.33,277.08 776.35,274.17 777.36,271.25 778.38,268.32 779.40,265.40 780.41,262.48 781.42,259.57 782.44,256.67 783.45,253.77 784.47,250.89 785.48,248.03 786.50,245.19 787.52,242.38 788.53,239.58 789.54,236.82 790.56,234.09 791.57,231.39 792.59,228.73 793.61,226.10 794.62,223.51 795.63,220.97 796.65,218.47 797.66,216.01 798.68,213.61 799.69,211.25 800.71,208.94 801.73,206.69 802.74,204.49 803.75,202.35 804.77,200.27 805.78,198.25 806.80,196.28 807.81,194.38 808.83,192.54 809.85,190.77 810.86,189.06 811.87,187.42 812.89,185.84 813.90,184.33 814.92,182.89 815.94,181.52 816.95,180.23 817.96,179.00 818.98,177.84 819.99,176.76 821.01,175.75 822.02,174.81 823.04,173.95 824.06,173.16 825.07,172.45 826.08,171.81 827.10,171.25 828.11,170.76 829.13,170.35 830.15,170.02 831.16,169.76 832.17,169.58 833.19,169.47 834.20,169.44 835.22,169.49 836.23,169.61 837.25,169.81 838.27,170.09 839.28,170.44 840.29,170.87 841.31,171.38 842.32,171.96 843.34,172.62 844.35,173.35 845.37,174.16 846.38,175.05 847.40,176.00 848.41,177.03 849.43,178.14 850.44,179.32 851.46,180.57 852.48,181.89 853.49,183.28 854.50,184.74 855.52,186.28 856.53,187.88 857.55,189.55 858.56,191.28 859.58,193.08 860.60,194.95 861.61,196.88 862.62,198.87 863.64,200.92 864.65,203.04 865.67,205.21 866.69,207.44 867.70,209.72 868.71,212.05 869.73,214.44 870.74,216.88 871.76,219.36 872.77,221.90 873.79,224.47 874.81,227.09 875.82,229.75 876.83,232.44 877.85,235.17 878.86,237.93 879.88,240.72 880.90,243.54 881.91,246.39 882.92,249.26 883.94,252.14 884.95,255.05 885.97,257.97 886.98,260.89 888.00,263.82" fill="none" stroke="#1665d8" stroke-width="3" stroke-linejoin="round"/>
<polyline points="76.00,263.68 77.01,266.62 78.03,269.56 79.04,272.50 80.06,275.43 81.07,278.36 82.09,281.28 83.10,284.18 84.12,287.06 85.13,289.93 86.15,292.77 87.16,295.58 88.18,298.36 89.19,301.10 90.21,303.81 91.22,306.48 92.24,309.10 93.25,311.68 94.27,314.21 95.28,316.68 96.30,319.09 97.31,321.45 98.33,323.74 99.34,325.97 100.36,328.13 101.38,330.21 102.39,332.23 103.40,334.16 104.42,336.02 105.43,337.80 106.45,339.49 107.46,341.09 108.48,342.61 109.49,344.04 110.51,345.37 111.52,346.61 112.54,347.76 113.55,348.81 114.57,349.76 115.58,350.61 116.60,351.36 117.61,352.00 118.63,352.55 119.64,352.99 120.66,353.33 121.67,353.56 122.69,353.69 123.70,353.71 124.72,353.63 125.73,353.45 126.75,353.16 127.76,352.76 128.78,352.26 129.79,351.66 130.81,350.96 131.82,350.16 132.84,349.26 133.85,348.26 134.87,347.16 135.88,345.96 136.90,344.68 137.91,343.30 138.93,341.83 139.94,340.27 140.96,338.62 141.97,336.89 142.99,335.08 144.00,333.19 145.02,331.22 146.03,329.18 147.05,327.07 148.06,324.89 149.08,322.64 150.09,320.32 151.11,317.95 152.12,315.52 153.14,313.04 154.15,310.50 155.17,307.92 156.18,305.29 157.20,302.62 158.21,299.91 159.23,297.16 160.24,294.38 161.26,291.58 162.27,288.74 163.29,285.89 164.30,283.01 165.32,280.12 166.33,277.22 167.35,274.31 168.36,271.39 169.38,268.47 170.39,265.55 171.41,262.63 172.42,259.72 173.44,256.82 174.45,253.92 175.47,251.04 176.48,248.18 177.50,245.34 178.51,242.52 179.53,239.73 180.54,236.96 181.56,234.23 182.57,231.53 183.59,228.86 184.60,226.24 185.62,223.65 186.63,221.10 187.65,218.60 188.66,216.14 189.68,213.73 190.69,211.37 191.71,209.07 192.72,206.81 193.74,204.61 194.75,202.47 195.77,200.38 196.78,198.36 197.80,196.39 198.81,194.48 199.83,192.64 200.84,190.86 201.86,189.15 202.87,187.51 203.89,185.93 204.90,184.41 205.92,182.97 206.93,181.60 207.95,180.30 208.96,179.07 209.98,177.91 210.99,176.82 212.01,175.81 213.02,174.87 214.04,174.00 215.05,173.21 216.07,172.49 217.08,171.85 218.10,171.28 219.11,170.79 220.13,170.37 221.14,170.03 222.16,169.77 223.17,169.58 224.19,169.47 225.20,169.44 226.22,169.48 227.23,169.60 228.25,169.80 229.26,170.07 230.28,170.42 231.29,170.85 232.31,171.35 233.32,171.93 234.34,172.58 235.35,173.31 236.37,174.11 237.38,174.99 238.40,175.95 239.41,176.97 240.43,178.07 241.44,179.25 242.46,180.49 243.47,181.81 244.49,183.20 245.50,184.66 246.52,186.19 247.53,187.79 248.55,189.45 249.56,191.18 250.58,192.98 251.59,194.85 252.61,196.77 253.62,198.76 254.64,200.81 255.65,202.92 256.67,205.09 257.69,207.31 258.70,209.59 259.71,211.93 260.73,214.31 261.74,216.75 262.76,219.23 263.77,221.76 264.79,224.34 265.80,226.95 266.82,229.61 267.83,232.30 268.85,235.03 269.86,237.79 270.88,240.58 271.89,243.40 272.91,246.24 273.92,249.11 274.94,252.00 275.95,254.90 276.97,257.82 277.98,260.74 279.00,263.68 280.01,266.62 281.03,269.56 282.04,272.50 283.06,275.43 284.07,278.36 285.09,281.28 286.10,284.18 287.12,287.06 288.13,289.93 289.15,292.77 290.16,295.58 291.18,298.36 292.19,301.11 293.21,303.81 294.22,306.48 295.24,309.10 296.25,311.68 297.27,314.21 298.28,316.68 299.30,319.09 300.31,321.45 301.33,323.74 302.34,325.97 303.36,328.13 304.37,330.21 305.39,332.23 306.40,334.16 307.42,336.02 308.43,337.80 309.45,339.49 310.46,341.09 311.48,342.61 312.49,344.04 313.51,345.37 314.52,346.61 315.54,347.76 316.55,348.81 317.57,349.76 318.58,350.61 319.60,351.36 320.61,352.00 321.63,352.55 322.64,352.99 323.66,353.33 324.67,353.56 325.69,353.69 326.70,353.71 327.72,353.63 328.73,353.45 329.75,353.16 330.76,352.76 331.78,352.26 332.79,351.66 333.81,350.96 334.82,350.16 335.84,349.26 336.85,348.26 337.87,347.16 338.88,345.97 339.90,344.68 340.91,343.30 341.93,341.83 342.94,340.27 343.96,338.62 344.97,336.89 345.99,335.08 347.00,333.19 348.02,331.22 349.03,329.18 350.05,327.07 351.06,324.89 352.08,322.64 353.09,320.32 354.11,317.95 355.12,315.52 356.14,313.04 357.15,310.50 358.17,307.92 359.18,305.29 360.20,302.62 361.21,299.91 362.23,297.16 363.24,294.38 364.26,291.58 365.27,288.74 366.29,285.89 367.30,283.02 368.32,280.13 369.33,277.22 370.35,274.31 371.36,271.39 372.38,268.47 373.39,265.55 374.41,262.63 375.42,259.72 376.44,256.82 377.45,253.92 378.47,251.04 379.48,248.18 380.50,245.34 381.51,242.52 382.53,239.73 383.54,236.96 384.56,234.23 385.57,231.53 386.59,228.86 387.60,226.24 388.62,223.65 389.63,221.10 390.65,218.60 391.66,216.14 392.68,213.73 393.69,211.37 394.71,209.07 395.72,206.81 396.74,204.61 397.75,202.47 398.77,200.38 399.78,198.36 400.80,196.39 401.81,194.48 402.83,192.64 403.84,190.86 404.86,189.15 405.87,187.51 406.89,185.93 407.90,184.42 408.92,182.97 409.93,181.60 410.95,180.30 411.96,179.07 412.98,177.91 413.99,176.82 415.01,175.81 416.02,174.87 417.04,174.00 418.05,173.21 419.07,172.49 420.08,171.85 421.10,171.28 422.11,170.79 423.13,170.37 424.14,170.03 425.16,169.77 426.17,169.58 427.19,169.47 428.20,169.44 429.22,169.48 430.23,169.60 431.25,169.80 432.26,170.07 433.28,170.42 434.29,170.85 435.31,171.35 436.32,171.93 437.34,172.58 438.35,173.31 439.37,174.11 440.38,174.99 441.40,175.95 442.41,176.97 443.43,178.07 444.44,179.25 445.46,180.49 446.47,181.81 447.49,183.20 448.50,184.66 449.52,186.19 450.53,187.79 451.55,189.45 452.56,191.19 453.58,192.98 454.59,194.85 455.61,196.77 456.62,198.76 457.64,200.81 458.65,202.92 459.67,205.09 460.68,207.31 461.70,209.59 462.71,211.93 463.73,214.31 464.75,216.75 465.76,219.23 466.77,221.76 467.79,224.34 468.80,226.95 469.82,229.61 470.83,232.30 471.85,235.03 472.86,237.79 473.88,240.58 474.89,243.40 475.91,246.24 476.92,249.11 477.94,252.00 478.95,254.90 479.97,257.82 480.98,260.74 482.00,263.68 483.01,266.62 484.03,269.56 485.04,272.50 486.06,275.43 487.07,278.36 488.09,281.28 489.10,284.18 490.12,287.06 491.13,289.93 492.15,292.77 493.16,295.58 494.18,298.36 495.19,301.11 496.21,303.81 497.22,306.48 498.24,309.11 499.25,311.68 500.27,314.21 501.28,316.68 502.30,319.09 503.31,321.45 504.33,323.74 505.34,325.97 506.36,328.13 507.37,330.21 508.39,332.23 509.40,334.16 510.42,336.02 511.43,337.80 512.45,339.49 513.46,341.09 514.48,342.61 515.49,344.04 516.51,345.37 517.52,346.61 518.54,347.76 519.55,348.81 520.57,349.76 521.58,350.61 522.60,351.36 523.61,352.00 524.63,352.55 525.64,352.99 526.66,353.33 527.67,353.56 528.69,353.69 529.70,353.71 530.72,353.63 531.73,353.45 532.75,353.16 533.76,352.76 534.78,352.27 535.79,351.67 536.81,350.96 537.82,350.16 538.84,349.26 539.85,348.26 540.87,347.16 541.88,345.97 542.90,344.68 543.91,343.30 544.93,341.83 545.94,340.27 546.96,338.62 547.97,336.89 548.99,335.08 550.00,333.19 551.02,331.23 552.03,329.18 553.05,327.07 554.06,324.89 555.08,322.64 556.09,320.33 557.11,317.95 558.12,315.52 559.14,313.04 560.15,310.50 561.17,307.92 562.18,305.29 563.20,302.62 564.21,299.91 565.23,297.16 566.24,294.38 567.26,291.58 568.27,288.74 569.29,285.89 570.30,283.02 571.32,280.13 572.33,277.22 573.35,274.31 574.36,271.39 575.38,268.47 576.39,265.55 577.41,262.63 578.42,259.72 579.44,256.82 580.45,253.92 581.47,251.04 582.48,248.18 583.50,245.34 584.52,242.52 585.53,239.73 586.54,236.96 587.56,234.23 588.57,231.53 589.59,228.86 590.61,226.24 591.62,223.65 592.63,221.10 593.65,218.60 594.66,216.14 595.68,213.73 596.69,211.38 597.71,209.07 598.73,206.81 599.74,204.61 600.75,202.47 601.77,200.38 602.78,198.36 603.80,196.39 604.82,194.48 605.83,192.64 606.84,190.86 607.86,189.15 608.87,187.51 609.89,185.93 610.90,184.42 611.92,182.97 612.94,181.60 613.95,180.30 614.96,179.07 615.98,177.91 616.99,176.82 618.01,175.81 619.02,174.87 620.04,174.00 621.06,173.21 622.07,172.49 623.08,171.85 624.10,171.28 625.11,170.79 626.13,170.37 627.15,170.03 628.16,169.77 629.17,169.58 630.19,169.47 631.20,169.44 632.22,169.48 633.23,169.60 634.25,169.80 635.27,170.07 636.28,170.42 637.29,170.85 638.31,171.35 639.32,171.93 640.34,172.58 641.36,173.31 642.37,174.11 643.38,174.99 644.40,175.95 645.41,176.97 646.43,178.07 647.44,179.25 648.46,180.49 649.48,181.81 650.49,183.20 651.50,184.66 652.52,186.19 653.53,187.79 654.55,189.45 655.57,191.19 656.58,192.98 657.59,194.85 658.61,196.77 659.62,198.76 660.64,200.81 661.65,202.92 662.67,205.09 663.69,207.31 664.70,209.59 665.71,211.93 666.73,214.31 667.74,216.75 668.76,219.23 669.77,221.76 670.79,224.34 671.81,226.95 672.82,229.61 673.83,232.30 674.85,235.03 675.86,237.79 676.88,240.58 677.90,243.40 678.91,246.24 679.92,249.11 680.94,252.00 681.95,254.90 682.97,257.82 683.98,260.74 685.00,263.68 686.02,266.62 687.03,269.56 688.04,272.50 689.06,275.43 690.07,278.36 691.09,281.28 692.11,284.18 693.12,287.07 694.13,289.93 695.15,292.77 696.16,295.58 697.18,298.36 698.19,301.11 699.21,303.81 700.23,306.48 701.24,309.11 702.25,311.68 703.27,314.21 704.28,316.68 705.30,319.09 706.32,321.45 707.33,323.74 708.34,325.97 709.36,328.13 710.37,330.22 711.39,332.23 712.40,334.16 713.42,336.02 714.44,337.80 715.45,339.49 716.46,341.09 717.48,342.61 718.49,344.04 719.51,345.37 720.52,346.61 721.54,347.76 722.56,348.81 723.57,349.76 724.58,350.61 725.60,351.36 726.61,352.00 727.63,352.55 728.65,352.99 729.66,353.33 730.67,353.56 731.69,353.69 732.70,353.71 733.72,353.63 734.73,353.45 735.75,353.16 736.77,352.76 737.78,352.27 738.79,351.67 739.81,350.96 740.82,350.16 741.84,349.26 742.86,348.26 743.87,347.16 744.88,345.97 745.90,344.68 746.91,343.30 747.93,341.83 748.94,340.27 749.96,338.62 750.98,336.89 751.99,335.08 753.00,333.19 754.02,331.23 755.03,329.18 756.05,327.07 757.06,324.89 758.08,322.64 759.09,320.33 760.11,317.95 761.12,315.52 762.14,313.04 763.15,310.50 764.17,307.92 765.19,305.29 766.20,302.62 767.21,299.91 768.23,297.16 769.24,294.38 770.26,291.58 771.27,288.74 772.29,285.89 773.31,283.02 774.32,280.13 775.33,277.22 776.35,274.31 777.36,271.39 778.38,268.47 779.40,265.55 780.41,262.63 781.42,259.72 782.44,256.82 783.45,253.92 784.47,251.04 785.48,248.18 786.50,245.34 787.52,242.52 788.53,239.73 789.54,236.97 790.56,234.23 791.57,231.53 792.59,228.86 793.61,226.24 794.62,223.65 795.63,221.10 796.65,218.60 797.66,216.14 798.68,213.73 799.69,211.38 800.71,209.07 801.73,206.81 802.74,204.61 803.75,202.47 804.77,200.38 805.78,198.36 806.80,196.39 807.81,194.48 808.83,192.64 809.85,190.87 810.86,189.15 811.87,187.51 812.89,185.93 813.90,184.42 814.92,182.97 815.94,181.60 816.95,180.30 817.96,179.07 818.98,177.91 819.99,176.82 821.01,175.81 822.02,174.87 823.04,174.00 824.06,173.21 825.07,172.49 826.08,171.85 827.10,171.28 828.11,170.79 829.13,170.37 830.15,170.03 831.16,169.77 832.17,169.58 833.19,169.47 834.20,169.44 835.22,169.48 836.23,169.60 837.25,169.80 838.27,170.07 839.28,170.42 840.29,170.85 841.31,171.35 842.32,171.93 843.34,172.58 844.35,173.31 845.37,174.11 846.38,174.99 847.40,175.95 848.41,176.97 849.43,178.07 850.44,179.25 851.46,180.49 852.48,181.81 853.49,183.20 854.50,184.66 855.52,186.19 856.53,187.79 857.55,189.45 858.56,191.19 859.58,192.98 860.60,194.85 861.61,196.77 862.62,198.76 863.64,200.81 864.65,202.92 865.67,205.09 866.69,207.31 867.70,209.59 868.71,211.93 869.73,214.31 870.74,216.75 871.76,219.23 872.77,221.76 873.79,224.34 874.81,226.95 875.82,229.61 876.83,232.30 877.85,235.03 878.86,237.79 879.88,240.58 880.90,243.40 881.91,246.24 882.92,249.11 883.94,252.00 884.95,254.90 885.97,257.82 886.98,260.74 888.00,263.68" fill="none" stroke="#13795b" stroke-width="3" stroke-linejoin="round"/>
<polyline points="76.00,257.13 77.01,254.02 78.03,250.91 79.04,247.82 80.06,244.73 81.07,241.65 82.09,238.59 83.10,235.55 84.12,232.54 85.13,229.54 86.15,226.58 87.16,223.65 88.18,220.75 89.19,217.88 90.21,215.06 91.22,212.28 92.24,209.55 93.25,206.86 94.27,204.22 95.28,201.64 96.30,199.11 97.31,196.64 98.33,194.23 99.34,191.88 100.36,189.60 101.38,187.38 102.39,185.24 103.40,183.17 104.42,181.17 105.43,179.24 106.45,177.40 107.46,175.63 108.48,173.95 109.49,172.35 110.51,170.83 111.52,169.40 112.54,168.05 113.55,166.80 114.57,165.64 115.58,164.56 116.60,163.58 117.61,162.69 118.63,161.90 119.64,161.20 120.66,160.59 121.67,160.09 122.69,159.68 123.70,159.36 124.72,159.14 125.73,159.03 126.75,159.00 127.76,159.08 128.78,159.25 129.79,159.53 130.81,159.89 131.82,160.36 132.84,160.92 133.85,161.58 134.87,162.33 135.88,163.18 136.90,164.12 137.91,165.15 138.93,166.28 139.94,167.49 140.96,168.80 141.97,170.19 142.99,171.67 144.00,173.23 145.02,174.88 146.03,176.61 147.05,178.42 148.06,180.31 149.08,182.28 150.09,184.32 151.11,186.43 152.12,188.61 153.14,190.87 154.15,193.19 155.17,195.57 156.18,198.01 157.20,200.52 158.21,203.08 159.23,205.69 160.24,208.36 161.26,211.07 162.27,213.83 163.29,216.64 164.30,219.48 165.32,222.37 166.33,225.29 167.35,228.24 168.36,231.22 169.38,234.22 170.39,237.25 171.41,240.31 172.42,243.37 173.44,246.46 174.45,249.55 175.47,252.65 176.48,255.76 177.50,258.87 178.51,261.98 179.53,265.09 180.54,268.18 181.56,271.27 182.57,274.35 183.59,277.41 184.60,280.45 185.62,283.46 186.63,286.46 187.65,289.42 188.66,292.35 189.68,295.25 190.69,298.12 191.71,300.94 192.72,303.72 193.74,306.45 194.75,309.14 195.77,311.78 196.78,314.36 197.80,316.89 198.81,319.36 199.83,321.77 200.84,324.12 201.86,326.40 202.87,328.62 203.89,330.76 204.90,332.83 205.92,334.83 206.93,336.76 207.95,338.60 208.96,340.37 209.98,342.05 210.99,343.65 212.01,345.17 213.02,346.60 214.04,347.95 215.05,349.20 216.07,350.36 217.08,351.44 218.10,352.42 219.11,353.31 220.13,354.10 221.14,354.80 222.16,355.41 223.17,355.91 224.19,356.32 225.20,356.64 226.22,356.86 227.23,356.97 228.25,357.00 229.26,356.92 230.28,356.75 231.29,356.47 232.31,356.11 233.32,355.64 234.34,355.08 235.35,354.42 236.37,353.67 237.38,352.82 238.40,351.88 239.41,350.85 240.43,349.72 241.44,348.51 242.46,347.20 243.47,345.81 244.49,344.33 245.50,342.77 246.52,341.12 247.53,339.39 248.55,337.58 249.56,335.69 250.58,333.72 251.59,331.68 252.61,329.57 253.62,327.39 254.64,325.13 255.65,322.81 256.67,320.43 257.69,317.99 258.70,315.48 259.71,312.92 260.73,310.31 261.74,307.64 262.76,304.93 263.77,302.17 264.79,299.36 265.80,296.52 266.82,293.63 267.83,290.71 268.85,287.76 269.86,284.78 270.88,281.78 271.89,278.75 272.91,275.69 273.92,272.63 274.94,269.54 275.95,266.45 276.97,263.35 277.98,260.24 279.00,257.13 280.01,254.02 281.03,250.91 282.04,247.82 283.06,244.73 284.07,241.65 285.09,238.59 286.10,235.55 287.12,232.54 288.13,229.54 289.15,226.58 290.16,223.65 291.18,220.75 292.19,217.88 293.21,215.06 294.22,212.28 295.24,209.55 296.25,206.86 297.27,204.22 298.28,201.64 299.30,199.11 300.31,196.64 301.33,194.23 302.34,191.88 303.36,189.60 304.37,187.38 305.39,185.24 306.40,183.17 307.42,181.17 308.43,179.24 309.45,177.40 310.46,175.63 311.48,173.95 312.49,172.35 313.51,170.83 314.52,169.40 315.54,168.05 316.55,166.80 317.57,165.64 318.58,164.56 319.60,163.58 320.61,162.69 321.63,161.90 322.64,161.20 323.66,160.59 324.67,160.09 325.69,159.68 326.70,159.36 327.72,159.14 328.73,159.03 329.75,159.00 330.76,159.08 331.78,159.25 332.79,159.53 333.81,159.89 334.82,160.36 335.84,160.92 336.85,161.58 337.87,162.33 338.88,163.18 339.90,164.12 340.91,165.15 341.93,166.28 342.94,167.49 343.96,168.80 344.97,170.19 345.99,171.67 347.00,173.23 348.02,174.88 349.03,176.61 350.05,178.42 351.06,180.31 352.08,182.28 353.09,184.32 354.11,186.43 355.12,188.61 356.14,190.87 357.15,193.19 358.17,195.57 359.18,198.01 360.20,200.52 361.21,203.08 362.23,205.69 363.24,208.36 364.26,211.07 365.27,213.83 366.29,216.64 367.30,219.48 368.32,222.37 369.33,225.29 370.35,228.24 371.36,231.22 372.38,234.22 373.39,237.25 374.41,240.31 375.42,243.37 376.44,246.46 377.45,249.55 378.47,252.65 379.48,255.76 380.50,258.87 381.51,261.98 382.53,265.09 383.54,268.18 384.56,271.27 385.57,274.35 386.59,277.41 387.60,280.45 388.62,283.46 389.63,286.46 390.65,289.42 391.66,292.35 392.68,295.25 393.69,298.12 394.71,300.94 395.72,303.72 396.74,306.45 397.75,309.14 398.77,311.78 399.78,314.36 400.80,316.89 401.81,319.36 402.83,321.77 403.84,324.12 404.86,326.40 405.87,328.62 406.89,330.76 407.90,332.83 408.92,334.83 409.93,336.76 410.95,338.60 411.96,340.37 412.98,342.05 413.99,343.65 415.01,345.17 416.02,346.60 417.04,347.95 418.05,349.20 419.07,350.36 420.08,351.44 421.10,352.42 422.11,353.31 423.13,354.10 424.14,354.80 425.16,355.41 426.17,355.91 427.19,356.32 428.20,356.64 429.22,356.86 430.23,356.97 431.25,357.00 432.26,356.92 433.28,356.75 434.29,356.47 435.31,356.11 436.32,355.64 437.34,355.08 438.35,354.42 439.37,353.67 440.38,352.82 441.40,351.88 442.41,350.85 443.43,349.72 444.44,348.51 445.46,347.20 446.47,345.81 447.49,344.33 448.50,342.77 449.52,341.12 450.53,339.39 451.55,337.58 452.56,335.69 453.58,333.72 454.59,331.68 455.61,329.57 456.62,327.39 457.64,325.13 458.65,322.81 459.67,320.43 460.68,317.99 461.70,315.48 462.71,312.92 463.73,310.31 464.75,307.64 465.76,304.93 466.77,302.17 467.79,299.36 468.80,296.52 469.82,293.63 470.83,290.71 471.85,287.76 472.86,284.78 473.88,281.78 474.89,278.75 475.91,275.69 476.92,272.63 477.94,269.54 478.95,266.45 479.97,263.35 480.98,260.24 482.00,257.13 483.01,254.02 484.03,250.91 485.04,247.82 486.06,244.73 487.07,241.65 488.09,238.59 489.10,235.55 490.12,232.54 491.13,229.54 492.15,226.58 493.16,223.65 494.18,220.75 495.19,217.88 496.21,215.06 497.22,212.28 498.24,209.55 499.25,206.86 500.27,204.22 501.28,201.64 502.30,199.11 503.31,196.64 504.33,194.23 505.34,191.88 506.36,189.60 507.37,187.38 508.39,185.24 509.40,183.17 510.42,181.17 511.43,179.24 512.45,177.40 513.46,175.63 514.48,173.95 515.49,172.35 516.51,170.83 517.52,169.40 518.54,168.05 519.55,166.80 520.57,165.64 521.58,164.56 522.60,163.58 523.61,162.69 524.63,161.90 525.64,161.20 526.66,160.59 527.67,160.09 528.69,159.68 529.70,159.36 530.72,159.14 531.73,159.03 532.75,159.00 533.76,159.08 534.78,159.25 535.79,159.53 536.81,159.89 537.82,160.36 538.84,160.92 539.85,161.58 540.87,162.33 541.88,163.18 542.90,164.12 543.91,165.15 544.93,166.28 545.94,167.49 546.96,168.80 547.97,170.19 548.99,171.67 550.00,173.23 551.02,174.88 552.03,176.61 553.05,178.42 554.06,180.31 555.08,182.28 556.09,184.32 557.11,186.43 558.12,188.61 559.14,190.87 560.15,193.19 561.17,195.57 562.18,198.01 563.20,200.52 564.21,203.08 565.23,205.69 566.24,208.36 567.26,211.07 568.27,213.83 569.29,216.64 570.30,219.48 571.32,222.37 572.33,225.29 573.35,228.24 574.36,231.22 575.38,234.22 576.39,237.25 577.41,240.31 578.42,243.37 579.44,246.46 580.45,249.55 581.47,252.65 582.48,255.76 583.50,258.87 584.52,261.98 585.53,265.09 586.54,268.18 587.56,271.27 588.57,274.35 589.59,277.41 590.61,280.45 591.62,283.46 592.63,286.46 593.65,289.42 594.66,292.35 595.68,295.25 596.69,298.12 597.71,300.94 598.73,303.72 599.74,306.45 600.75,309.14 601.77,311.78 602.78,314.36 603.80,316.89 604.82,319.36 605.83,321.77 606.84,324.12 607.86,326.40 608.87,328.62 609.89,330.76 610.90,332.83 611.92,334.83 612.94,336.76 613.95,338.60 614.96,340.37 615.98,342.05 616.99,343.65 618.01,345.17 619.02,346.60 620.04,347.95 621.06,349.20 622.07,350.36 623.08,351.44 624.10,352.42 625.11,353.31 626.13,354.10 627.15,354.80 628.16,355.41 629.17,355.91 630.19,356.32 631.20,356.64 632.22,356.86 633.23,356.97 634.25,357.00 635.27,356.92 636.28,356.75 637.29,356.47 638.31,356.11 639.32,355.64 640.34,355.08 641.36,354.42 642.37,353.67 643.38,352.82 644.40,351.88 645.41,350.85 646.43,349.72 647.44,348.51 648.46,347.20 649.48,345.81 650.49,344.33 651.50,342.77 652.52,341.12 653.53,339.39 654.55,337.58 655.57,335.69 656.58,333.72 657.59,331.68 658.61,329.57 659.62,327.39 660.64,325.13 661.65,322.81 662.67,320.43 663.69,317.99 664.70,315.48 665.71,312.92 666.73,310.31 667.74,307.64 668.76,304.93 669.77,302.17 670.79,299.36 671.81,296.52 672.82,293.63 673.83,290.71 674.85,287.76 675.86,284.78 676.88,281.78 677.90,278.75 678.91,275.69 679.92,272.63 680.94,269.54 681.95,266.45 682.97,263.35 683.98,260.24 685.00,257.13 686.02,254.02 687.03,250.91 688.04,247.82 689.06,244.73 690.07,241.65 691.09,238.59 692.11,235.55 693.12,232.54 694.13,229.54 695.15,226.58 696.16,223.65 697.18,220.75 698.19,217.88 699.21,215.06 700.23,212.28 701.24,209.55 702.25,206.86 703.27,204.22 704.28,201.64 705.30,199.11 706.32,196.64 707.33,194.23 708.34,191.88 709.36,189.60 710.37,187.38 711.39,185.24 712.40,183.17 713.42,181.17 714.44,179.24 715.45,177.40 716.46,175.63 717.48,173.95 718.49,172.35 719.51,170.83 720.52,169.40 721.54,168.05 722.56,166.80 723.57,165.64 724.58,164.56 725.60,163.58 726.61,162.69 727.63,161.90 728.65,161.20 729.66,160.59 730.67,160.09 731.69,159.68 732.70,159.36 733.72,159.14 734.73,159.03 735.75,159.00 736.77,159.08 737.78,159.25 738.79,159.53 739.81,159.89 740.82,160.36 741.84,160.92 742.86,161.58 743.87,162.33 744.88,163.18 745.90,164.12 746.91,165.15 747.93,166.28 748.94,167.49 749.96,168.80 750.98,170.19 751.99,171.67 753.00,173.23 754.02,174.88 755.03,176.61 756.05,178.42 757.06,180.31 758.08,182.28 759.09,184.32 760.11,186.43 761.12,188.61 762.14,190.87 763.15,193.19 764.17,195.57 765.19,198.01 766.20,200.52 767.21,203.08 768.23,205.69 769.24,208.36 770.26,211.07 771.27,213.83 772.29,216.64 773.31,219.48 774.32,222.37 775.33,225.29 776.35,228.24 777.36,231.22 778.38,234.22 779.40,237.25 780.41,240.31 781.42,243.37 782.44,246.46 783.45,249.55 784.47,252.65 785.48,255.76 786.50,258.87 787.52,261.98 788.53,265.09 789.54,268.18 790.56,271.27 791.57,274.35 792.59,277.41 793.61,280.45 794.62,283.46 795.63,286.46 796.65,289.42 797.66,292.35 798.68,295.25 799.69,298.12 800.71,300.94 801.73,303.72 802.74,306.45 803.75,309.14 804.77,311.78 805.78,314.36 806.80,316.89 807.81,319.36 808.83,321.77 809.85,324.12 810.86,326.40 811.87,328.62 812.89,330.76 813.90,332.83 814.92,334.83 815.94,336.76 816.95,338.60 817.96,340.37 818.98,342.05 819.99,343.65 821.01,345.17 822.02,346.60 823.04,347.95 824.06,349.20 825.07,350.36 826.08,351.44 827.10,352.42 828.11,353.31 829.13,354.10 830.15,354.80 831.16,355.41 832.17,355.91 833.19,356.32 834.20,356.64 835.22,356.86 836.23,356.97 837.25,357.00 838.27,356.92 839.28,356.75 840.29,356.47 841.31,356.11 842.32,355.64 843.34,355.08 844.35,354.42 845.37,353.67 846.38,352.82 847.40,351.88 848.41,350.85 849.43,349.72 850.44,348.51 851.46,347.20 852.48,345.81 853.49,344.33 854.50,342.77 855.52,341.12 856.53,339.39 857.55,337.58 858.56,335.69 859.58,333.72 860.60,331.68 861.61,329.57 862.62,327.39 863.64,325.13 864.65,322.81 865.67,320.43 866.69,317.99 867.70,315.48 868.71,312.92 869.73,310.31 870.74,307.64 871.76,304.93 872.77,302.17 873.79,299.36 874.81,296.52 875.82,293.63 876.83,290.71 877.85,287.76 878.86,284.78 879.88,281.78 880.90,278.75 881.91,275.69 882.92,272.63 883.94,269.54 884.95,266.45 885.97,263.35 886.98,260.24 888.00,257.13" fill="none" stroke="#b54708" stroke-width="3" stroke-linejoin="round"/>
<polyline points="76.00,257.96 77.01,257.94 78.03,257.92 79.04,257.90 80.06,257.88 81.07,257.86 82.09,257.84 83.10,257.81 84.12,257.79 85.13,257.77 86.15,257.75 87.16,257.74 88.18,257.72 89.19,257.70 90.21,257.68 91.22,257.66 92.24,257.64 93.25,257.63 94.27,257.61 95.28,257.59 96.30,257.57 97.31,257.56 98.33,257.54 99.34,257.53 100.36,257.51 101.38,257.50 102.39,257.49 103.40,257.47 104.42,257.46 105.43,257.45 106.45,257.44 107.46,257.43 108.48,257.42 109.49,257.41 110.51,257.40 111.52,257.39 112.54,257.38 113.55,257.37 114.57,257.36 115.58,257.36 116.60,257.35 117.61,257.35 118.63,257.34 119.64,257.34 120.66,257.34 121.67,257.33 122.69,257.33 123.70,257.33 124.72,257.33 125.73,257.33 126.75,257.33 127.76,257.33 128.78,257.33 129.79,257.33 130.81,257.34 131.82,257.34 132.84,257.34 133.85,257.35 134.87,257.35 135.88,257.36 136.90,257.37 137.91,257.37 138.93,257.38 139.94,257.39 140.96,257.40 141.97,257.41 142.99,257.42 144.00,257.43 145.02,257.44 146.03,257.45 147.05,257.46 148.06,257.48 149.08,257.49 150.09,257.50 151.11,257.52 152.12,257.53 153.14,257.55 154.15,257.57 155.17,257.58 156.18,257.60 157.20,257.61 158.21,257.63 159.23,257.65 160.24,257.67 161.26,257.69 162.27,257.71 163.29,257.72 164.30,257.74 165.32,257.76 166.33,257.78 167.35,257.80 168.36,257.82 169.38,257.85 170.39,257.87 171.41,257.89 172.42,257.91 173.44,257.93 174.45,257.95 175.47,257.97 176.48,257.99 177.50,258.02 178.51,258.04 179.53,258.06 180.54,258.08 181.56,258.10 182.57,258.12 183.59,258.14 184.60,258.17 185.62,258.19 186.63,258.21 187.65,258.23 188.66,258.25 189.68,258.27 190.69,258.29 191.71,258.31 192.72,258.33 193.74,258.35 194.75,258.37 195.77,258.39 196.78,258.40 197.80,258.42 198.81,258.44 199.83,258.46 200.84,258.47 201.86,258.49 202.87,258.50 203.89,258.52 204.90,258.53 205.92,258.55 206.93,258.56 207.95,258.57 208.96,258.59 209.98,258.60 210.99,258.61 212.01,258.62 213.02,258.63 214.04,258.64 215.05,258.65 216.07,258.65 217.08,258.66 218.10,258.67 219.11,258.67 220.13,258.68 221.14,258.68 222.16,258.69 223.17,258.69 224.19,258.69 225.20,258.69 226.22,258.69 227.23,258.69 228.25,258.69 229.26,258.69 230.28,258.69 231.29,258.69 232.31,258.68 233.32,258.68 234.34,258.67 235.35,258.67 236.37,258.66 237.38,258.66 238.40,258.65 239.41,258.64 240.43,258.63 241.44,258.62 242.46,258.61 243.47,258.60 244.49,258.59 245.50,258.58 246.52,258.56 247.53,258.55 248.55,258.54 249.56,258.52 250.58,258.51 251.59,258.49 252.61,258.48 253.62,258.46 254.64,258.44 255.65,258.43 256.67,258.41 257.69,258.39 258.70,258.37 259.71,258.35 260.73,258.34 261.74,258.32 262.76,258.30 263.77,258.28 264.79,258.26 265.80,258.24 266.82,258.22 267.83,258.20 268.85,258.17 269.86,258.15 270.88,258.13 271.89,258.11 272.91,258.09 273.92,258.07 274.94,258.05 275.95,258.03 276.97,258.00 277.98,257.98 279.00,257.96 280.01,257.94 281.03,257.92 282.04,257.90 283.06,257.88 284.07,257.86 285.09,257.84 286.10,257.81 287.12,257.79 288.13,257.77 289.15,257.75 290.16,257.74 291.18,257.72 292.19,257.70 293.21,257.68 294.22,257.66 295.24,257.64 296.25,257.63 297.27,257.61 298.28,257.59 299.30,257.57 300.31,257.56 301.33,257.54 302.34,257.53 303.36,257.51 304.37,257.50 305.39,257.49 306.40,257.47 307.42,257.46 308.43,257.45 309.45,257.44 310.46,257.43 311.48,257.42 312.49,257.41 313.51,257.40 314.52,257.39 315.54,257.38 316.55,257.37 317.57,257.36 318.58,257.36 319.60,257.35 320.61,257.35 321.63,257.34 322.64,257.34 323.66,257.34 324.67,257.33 325.69,257.33 326.70,257.33 327.72,257.33 328.73,257.33 329.75,257.33 330.76,257.33 331.78,257.33 332.79,257.33 333.81,257.34 334.82,257.34 335.84,257.34 336.85,257.35 337.87,257.35 338.88,257.36 339.90,257.37 340.91,257.37 341.93,257.38 342.94,257.39 343.96,257.40 344.97,257.41 345.99,257.42 347.00,257.43 348.02,257.44 349.03,257.45 350.05,257.46 351.06,257.48 352.08,257.49 353.09,257.50 354.11,257.52 355.12,257.53 356.14,257.55 357.15,257.57 358.17,257.58 359.18,257.60 360.20,257.61 361.21,257.63 362.23,257.65 363.24,257.67 364.26,257.69 365.27,257.71 366.29,257.72 367.30,257.74 368.32,257.76 369.33,257.78 370.35,257.80 371.36,257.82 372.38,257.85 373.39,257.87 374.41,257.89 375.42,257.91 376.44,257.93 377.45,257.95 378.47,257.97 379.48,257.99 380.50,258.02 381.51,258.04 382.53,258.06 383.54,258.08 384.56,258.10 385.57,258.12 386.59,258.14 387.60,258.17 388.62,258.19 389.63,258.21 390.65,258.23 391.66,258.25 392.68,258.27 393.69,258.29 394.71,258.31 395.72,258.33 396.74,258.35 397.75,258.37 398.77,258.39 399.78,258.40 400.80,258.42 401.81,258.44 402.83,258.46 403.84,258.47 404.86,258.49 405.87,258.50 406.89,258.52 407.90,258.53 408.92,258.55 409.93,258.56 410.95,258.57 411.96,258.59 412.98,258.60 413.99,258.61 415.01,258.62 416.02,258.63 417.04,258.64 418.05,258.65 419.07,258.65 420.08,258.66 421.10,258.67 422.11,258.67 423.13,258.68 424.14,258.68 425.16,258.69 426.17,258.69 427.19,258.69 428.20,258.69 429.22,258.69 430.23,258.69 431.25,258.69 432.26,258.69 433.28,258.69 434.29,258.69 435.31,258.68 436.32,258.68 437.34,258.67 438.35,258.67 439.37,258.66 440.38,258.66 441.40,258.65 442.41,258.64 443.43,258.63 444.44,258.62 445.46,258.61 446.47,258.60 447.49,258.59 448.50,258.58 449.52,258.56 450.53,258.55 451.55,258.54 452.56,258.52 453.58,258.51 454.59,258.49 455.61,258.48 456.62,258.46 457.64,258.44 458.65,258.43 459.67,258.41 460.68,258.39 461.70,258.37 462.71,258.35 463.73,258.34 464.75,258.32 465.76,258.30 466.77,258.28 467.79,258.26 468.80,258.24 469.82,258.22 470.83,258.20 471.85,258.17 472.86,258.15 473.88,258.13 474.89,258.11 475.91,258.09 476.92,258.07 477.94,258.05 478.95,258.03 479.97,258.00 480.98,257.98 482.00,257.96 483.01,257.94 484.03,257.92 485.04,257.90 486.06,257.88 487.07,257.86 488.09,257.84 489.10,257.81 490.12,257.79 491.13,257.77 492.15,257.75 493.16,257.74 494.18,257.72 495.19,257.70 496.21,257.68 497.22,257.66 498.24,257.64 499.25,257.63 500.27,257.61 501.28,257.59 502.30,257.57 503.31,257.56 504.33,257.54 505.34,257.53 506.36,257.51 507.37,257.50 508.39,257.49 509.40,257.47 510.42,257.46 511.43,257.45 512.45,257.44 513.46,257.43 514.48,257.42 515.49,257.41 516.51,257.40 517.52,257.39 518.54,257.38 519.55,257.37 520.57,257.36 521.58,257.36 522.60,257.35 523.61,257.35 524.63,257.34 525.64,257.34 526.66,257.34 527.67,257.33 528.69,257.33 529.70,257.33 530.72,257.33 531.73,257.33 532.75,257.33 533.76,257.33 534.78,257.33 535.79,257.33 536.81,257.34 537.82,257.34 538.84,257.34 539.85,257.35 540.87,257.35 541.88,257.36 542.90,257.37 543.91,257.37 544.93,257.38 545.94,257.39 546.96,257.40 547.97,257.41 548.99,257.42 550.00,257.43 551.02,257.44 552.03,257.45 553.05,257.47 554.06,257.48 555.08,257.49 556.09,257.51 557.11,257.52 558.12,257.53 559.14,257.55 560.15,257.57 561.17,257.58 562.18,257.60 563.20,257.62 564.21,257.63 565.23,257.65 566.24,257.67 567.26,257.69 568.27,257.71 569.29,257.72 570.30,257.74 571.32,257.76 572.33,257.78 573.35,257.80 574.36,257.82 575.38,257.85 576.39,257.87 577.41,257.89 578.42,257.91 579.44,257.93 580.45,257.95 581.47,257.97 582.48,257.99 583.50,258.02 584.52,258.04 585.53,258.06 586.54,258.08 587.56,258.10 588.57,258.12 589.59,258.14 590.61,258.17 591.62,258.19 592.63,258.21 593.65,258.23 594.66,258.25 595.68,258.27 596.69,258.29 597.71,258.31 598.73,258.33 599.74,258.35 600.75,258.37 601.77,258.39 602.78,258.40 603.80,258.42 604.82,258.44 605.83,258.46 606.84,258.47 607.86,258.49 608.87,258.50 609.89,258.52 610.90,258.53 611.92,258.55 612.94,258.56 613.95,258.57 614.96,258.59 615.98,258.60 616.99,258.61 618.01,258.62 619.02,258.63 620.04,258.64 621.06,258.65 622.07,258.65 623.08,258.66 624.10,258.67 625.11,258.67 626.13,258.68 627.15,258.68 628.16,258.69 629.17,258.69 630.19,258.69 631.20,258.69 632.22,258.69 633.23,258.69 634.25,258.69 635.27,258.69 636.28,258.69 637.29,258.69 638.31,258.68 639.32,258.68 640.34,258.67 641.36,258.67 642.37,258.66 643.38,258.66 644.40,258.65 645.41,258.64 646.43,258.63 647.44,258.62 648.46,258.61 649.48,258.60 650.49,258.59 651.50,258.58 652.52,258.56 653.53,258.55 654.55,258.54 655.57,258.52 656.58,258.51 657.59,258.49 658.61,258.48 659.62,258.46 660.64,258.44 661.65,258.43 662.67,258.41 663.69,258.39 664.70,258.37 665.71,258.36 666.73,258.34 667.74,258.32 668.76,258.30 669.77,258.28 670.79,258.26 671.81,258.24 672.82,258.22 673.83,258.20 674.85,258.17 675.86,258.15 676.88,258.13 677.90,258.11 678.91,258.09 679.92,258.07 680.94,258.05 681.95,258.03 682.97,258.00 683.98,257.98 685.00,257.96 686.02,257.94 687.03,257.92 688.04,257.90 689.06,257.88 690.07,257.86 691.09,257.84 692.11,257.81 693.12,257.79 694.13,257.77 695.15,257.75 696.16,257.74 697.18,257.72 698.19,257.70 699.21,257.68 700.23,257.66 701.24,257.64 702.25,257.63 703.27,257.61 704.28,257.59 705.30,257.57 706.32,257.56 707.33,257.54 708.34,257.53 709.36,257.51 710.37,257.50 711.39,257.49 712.40,257.47 713.42,257.46 714.44,257.45 715.45,257.44 716.46,257.43 717.48,257.42 718.49,257.41 719.51,257.40 720.52,257.39 721.54,257.38 722.56,257.37 723.57,257.36 724.58,257.36 725.60,257.35 726.61,257.35 727.63,257.34 728.65,257.34 729.66,257.34 730.67,257.33 731.69,257.33 732.70,257.33 733.72,257.33 734.73,257.33 735.75,257.33 736.77,257.33 737.78,257.33 738.79,257.33 739.81,257.34 740.82,257.34 741.84,257.34 742.86,257.35 743.87,257.35 744.88,257.36 745.90,257.37 746.91,257.37 747.93,257.38 748.94,257.39 749.96,257.40 750.98,257.41 751.99,257.42 753.00,257.43 754.02,257.44 755.03,257.45 756.05,257.47 757.06,257.48 758.08,257.49 759.09,257.51 760.11,257.52 761.12,257.53 762.14,257.55 763.15,257.57 764.17,257.58 765.19,257.60 766.20,257.62 767.21,257.63 768.23,257.65 769.24,257.67 770.26,257.69 771.27,257.71 772.29,257.72 773.31,257.74 774.32,257.76 775.33,257.78 776.35,257.80 777.36,257.82 778.38,257.85 779.40,257.87 780.41,257.89 781.42,257.91 782.44,257.93 783.45,257.95 784.47,257.97 785.48,257.99 786.50,258.02 787.52,258.04 788.53,258.06 789.54,258.08 790.56,258.10 791.57,258.12 792.59,258.14 793.61,258.17 794.62,258.19 795.63,258.21 796.65,258.23 797.66,258.25 798.68,258.27 799.69,258.29 800.71,258.31 801.73,258.33 802.74,258.35 803.75,258.37 804.77,258.39 805.78,258.40 806.80,258.42 807.81,258.44 808.83,258.46 809.85,258.47 810.86,258.49 811.87,258.50 812.89,258.52 813.90,258.53 814.92,258.55 815.94,258.56 816.95,258.57 817.96,258.59 818.98,258.60 819.99,258.61 821.01,258.62 822.02,258.63 823.04,258.64 824.06,258.65 825.07,258.65 826.08,258.66 827.10,258.67 828.11,258.67 829.13,258.68 830.15,258.68 831.16,258.69 832.17,258.69 833.19,258.69 834.20,258.69 835.22,258.69 836.23,258.69 837.25,258.69 838.27,258.69 839.28,258.69 840.29,258.69 841.31,258.68 842.32,258.68 843.34,258.68 844.35,258.67 845.37,258.66 846.38,258.66 847.40,258.65 848.41,258.64 849.43,258.63 850.44,258.62 851.46,258.61 852.48,258.60 853.49,258.59 854.50,258.58 855.52,258.56 856.53,258.55 857.55,258.54 858.56,258.52 859.58,258.51 860.60,258.49 861.61,258.48 862.62,258.46 863.64,258.44 864.65,258.43 865.67,258.41 866.69,258.39 867.70,258.37 868.71,258.36 869.73,258.34 870.74,258.32 871.76,258.30 872.77,258.28 873.79,258.26 874.81,258.24 875.82,258.22 876.83,258.20 877.85,258.17 878.86,258.15 879.88,258.13 880.90,258.11 881.91,258.09 882.92,258.07 883.94,258.05 884.95,258.03 885.97,258.00 886.98,257.98 888.00,257.96" fill="none" stroke="#7c3aed" stroke-width="3" stroke-linejoin="round"/>
<rect x="670" y="62" width="190" height="122" rx="4" ry="4" fill="#fff" fill-opacity="0.82" stroke="#111" stroke-width="1"/>
<line x1="682" y1="78" x2="718" y2="78" stroke="#1665d8" stroke-width="3"/>
<text x="728" y="83" font-family="Arial, Helvetica, sans-serif" font-size="13" font-weight="400" text-anchor="start" fill="#111">load output</text>
<line x1="682" y1="104" x2="718" y2="104" stroke="#13795b" stroke-width="3"/>
<text x="728" y="109" font-family="Arial, Helvetica, sans-serif" font-size="13" font-weight="400" text-anchor="start" fill="#111">collector AC</text>
<line x1="682" y1="130" x2="718" y2="130" stroke="#b54708" stroke-width="3"/>
<text x="728" y="135" font-family="Arial, Helvetica, sans-serif" font-size="13" font-weight="400" text-anchor="start" fill="#111">input x100</text>
<line x1="682" y1="156" x2="718" y2="156" stroke="#7c3aed" stroke-width="3"/>
<text x="728" y="161" font-family="Arial, Helvetica, sans-serif" font-size="13" font-weight="400" text-anchor="start" fill="#111">base AC</text>
<text x="460" y="502" font-family="Arial, Helvetica, sans-serif" font-size="14" font-weight="400" text-anchor="middle" fill="#111">Time after 60 ms settling, ms</text>
<text x="22" y="260" font-family="Arial, Helvetica, sans-serif" font-size="14" text-anchor="middle" fill="#111" transform="rotate(-90 22 260)">AC voltage, mV</text>
</svg>
