<svg xmlns="http://www.w3.org/2000/svg" width="920" height="500" viewBox="0 0 920 500">
<defs>
<style>
.wire{stroke:#111;stroke-width:2.4;fill:none;stroke-linecap:round;stroke-linejoin:round}
.thin{stroke:#9aa4b2;stroke-width:1.2;fill:none}
.axis{stroke:#111;stroke-width:1.4;fill:none}
.blue{stroke:#1665d8;stroke-width:3;fill:none;stroke-linecap:round;stroke-linejoin:round}
.green{stroke:#13795b;stroke-width:3;fill:none;stroke-linecap:round;stroke-linejoin:round}
</style>
</defs>
<rect width="100%" height="100%" fill="#fff"/>
<text x="72" y="34" font-family="Arial, Helvetica, sans-serif" font-size="22" font-weight="700" text-anchor="start" fill="#111">ngspice AC analysis: RC low-pass</text>
<rect x="72" y="58" width="820" height="382" fill="#fff" stroke="#111" stroke-width="1.4"/>
<line x1="72" y1="58" x2="72" y2="440" class="thin"/>
<text x="72" y="462" font-family="Arial, Helvetica, sans-serif" font-size="12" font-weight="400" text-anchor="middle" fill="#111">10</text>
<line x1="236" y1="58" x2="236" y2="440" class="thin"/>
<text x="236" y="462" font-family="Arial, Helvetica, sans-serif" font-size="12" font-weight="400" text-anchor="middle" fill="#111">100</text>
<line x1="400" y1="58" x2="400" y2="440" class="thin"/>
<text x="400" y="462" font-family="Arial, Helvetica, sans-serif" font-size="12" font-weight="400" text-anchor="middle" fill="#111">1000</text>
<line x1="564" y1="58" x2="564" y2="440" class="thin"/>
<text x="564" y="462" font-family="Arial, Helvetica, sans-serif" font-size="12" font-weight="400" text-anchor="middle" fill="#111">10000</text>
<line x1="728" y1="58" x2="728" y2="440" class="thin"/>
<text x="728" y="462" font-family="Arial, Helvetica, sans-serif" font-size="12" font-weight="400" text-anchor="middle" fill="#111">100000</text>
<line x1="892" y1="58" x2="892" y2="440" class="thin"/>
<text x="892" y="462" font-family="Arial, Helvetica, sans-serif" font-size="12" font-weight="400" text-anchor="middle" fill="#111">1e+06</text>
<line x1="72" y1="412.714" x2="892" y2="412.714" class="thin"/>
<text x="62" y="416.714" font-family="Arial, Helvetica, sans-serif" font-size="12" font-weight="400" text-anchor="end" fill="#111">-60</text>
<line x1="72" y1="303.571" x2="892" y2="303.571" class="thin"/>
<text x="62" y="307.571" font-family="Arial, Helvetica, sans-serif" font-size="12" font-weight="400" text-anchor="end" fill="#111">-40</text>
<line x1="72" y1="194.429" x2="892" y2="194.429" class="thin"/>
<text x="62" y="198.429" font-family="Arial, Helvetica, sans-serif" font-size="12" font-weight="400" text-anchor="end" fill="#111">-20</text>
<line x1="72" y1="85.2857" x2="892" y2="85.2857" class="thin"/>
<text x="62" y="89.2857" font-family="Arial, Helvetica, sans-serif" font-size="12" font-weight="400" text-anchor="end" fill="#111">0</text>
<polyline points="72.00,85.76 76.10,85.76 80.20,85.76 84.30,85.76 88.40,85.76 92.50,85.76 96.60,85.76 100.70,85.76 104.80,85.76 108.90,85.76 113.00,85.76 117.10,85.76 121.20,85.76 125.30,85.76 129.40,85.76 133.50,85.76 137.60,85.76 141.70,85.76 145.80,85.76 149.90,85.77 154.00,85.77 158.10,85.77 162.20,85.77 166.30,85.77 170.40,85.77 174.50,85.77 178.60,85.78 182.70,85.78 186.80,85.78 190.90,85.78 195.00,85.79 199.10,85.79 203.20,85.79 207.30,85.80 211.40,85.80 215.50,85.81 219.60,85.82 223.70,85.82 227.80,85.83 231.90,85.84 236.00,85.85 240.10,85.86 244.20,85.87 248.30,85.89 252.40,85.90 256.50,85.92 260.60,85.94 264.70,85.96 268.80,85.99 272.90,86.01 277.00,86.05 281.10,86.08 285.20,86.12 289.30,86.16 293.40,86.21 297.50,86.27 301.60,86.33 305.70,86.40 309.80,86.47 313.90,86.56 318.00,86.66 322.10,86.76 326.20,86.88 330.30,87.02 334.40,87.17 338.50,87.33 342.60,87.52 346.70,87.73 350.80,87.96 354.90,88.21 359.00,88.49 363.10,88.81 367.20,89.15 371.30,89.54 375.40,89.96 379.50,90.42 383.60,90.94 387.70,91.50 391.80,92.11 395.90,92.78 400.00,93.51 404.10,94.30 408.20,95.16 412.30,96.09 416.40,97.09 420.50,98.17 424.60,99.32 428.70,100.55 432.80,101.85 436.90,103.24 441.00,104.70 445.10,106.24 449.20,107.86 453.30,109.55 457.40,111.31 461.50,113.15 465.60,115.05 469.70,117.02 473.80,119.05 477.90,121.13 482.00,123.28 486.10,125.47 490.20,127.71 494.30,130.00 498.40,132.32 502.50,134.69 506.60,137.09 510.70,139.52 514.80,141.98 518.90,144.47 523.00,146.98 527.10,149.51 531.20,152.06 535.30,154.63 539.40,157.22 543.50,159.82 547.60,162.44 551.70,165.07 555.80,167.70 559.90,170.35 564.00,173.01 568.10,175.67 572.20,178.34 576.30,181.02 580.40,183.70 584.50,186.39 588.60,189.08 592.70,191.77 596.80,194.47 600.90,197.17 605.00,199.88 609.10,202.59 613.20,205.30 617.30,208.01 621.40,210.72 625.50,213.44 629.60,216.16 633.70,218.87 637.80,221.59 641.90,224.31 646.00,227.03 650.10,229.76 654.20,232.48 658.30,235.20 662.40,237.93 666.50,240.65 670.60,243.37 674.70,246.10 678.80,248.83 682.90,251.55 687.00,254.28 691.10,257.00 695.20,259.73 699.30,262.46 703.40,265.18 707.50,267.91 711.60,270.64 715.70,273.37 719.80,276.09 723.90,278.82 728.00,281.55 732.10,284.28 736.20,287.01 740.30,289.73 744.40,292.46 748.50,295.19 752.60,297.92 756.70,300.65 760.80,303.38 764.90,306.10 769.00,308.83 773.10,311.56 777.20,314.29 781.30,317.02 785.40,319.75 789.50,322.47 793.60,325.20 797.70,327.93 801.80,330.66 805.90,333.39 810.00,336.12 814.10,338.84 818.20,341.57 822.30,344.30 826.40,347.03 830.50,349.76 834.60,352.49 838.70,355.22 842.80,357.94 846.90,360.67 851.00,363.40 855.10,366.13 859.20,368.86 863.30,371.59 867.40,374.32 871.50,377.04 875.60,379.77 879.70,382.50 883.80,385.23 887.90,387.96 892.00,390.69" fill="none" stroke="#1665d8" stroke-width="3" stroke-linejoin="round"/>
<line x1="700" y1="82" x2="734" y2="82" stroke="#1665d8" stroke-width="3"/>
<text x="744" y="86" font-family="Arial, Helvetica, sans-serif" font-size="13" font-weight="400" text-anchor="start" fill="#111">gain, dB</text>
<polyline points="72.00,85.32 76.10,85.32 80.20,85.32 84.30,85.33 88.40,85.33 92.50,85.33 96.60,85.33 100.70,85.34 104.80,85.34 108.90,85.34 113.00,85.35 117.10,85.35 121.20,85.35 125.30,85.36 129.40,85.36 133.50,85.37 137.60,85.37 141.70,85.38 145.80,85.38 149.90,85.39 154.00,85.39 158.10,85.40 162.20,85.41 166.30,85.41 170.40,85.42 174.50,85.43 178.60,85.44 182.70,85.45 186.80,85.46 190.90,85.47 195.00,85.48 199.10,85.49 203.20,85.50 207.30,85.51 211.40,85.53 215.50,85.54 219.60,85.56 223.70,85.57 227.80,85.59 231.90,85.61 236.00,85.62 240.10,85.64 244.20,85.67 248.30,85.69 252.40,85.71 256.50,85.74 260.60,85.76 264.70,85.79 268.80,85.82 272.90,85.85 277.00,85.89 281.10,85.92 285.20,85.96 289.30,86.00 293.40,86.04 297.50,86.09 301.60,86.13 305.70,86.18 309.80,86.23 313.90,86.29 318.00,86.35 322.10,86.41 326.20,86.47 330.30,86.54 334.40,86.61 338.50,86.69 342.60,86.76 346.70,86.85 350.80,86.94 354.90,87.03 359.00,87.12 363.10,87.22 367.20,87.33 371.30,87.44 375.40,87.55 379.50,87.67 383.60,87.79 387.70,87.92 391.80,88.05 395.90,88.18 400.00,88.32 404.10,88.47 408.20,88.61 412.30,88.76 416.40,88.91 420.50,89.06 424.60,89.22 428.70,89.38 432.80,89.53 436.90,89.69 441.00,89.85 445.10,90.00 449.20,90.16 453.30,90.31 457.40,90.46 461.50,90.61 465.60,90.75 469.70,90.89 473.80,91.03 477.90,91.16 482.00,91.29 486.10,91.42 490.20,91.54 494.30,91.65 498.40,91.76 502.50,91.87 506.60,91.97 510.70,92.07 514.80,92.16 518.90,92.25 523.00,92.34 527.10,92.42 531.20,92.50 535.30,92.57 539.40,92.64 543.50,92.71 547.60,92.77 551.70,92.83 555.80,92.88 559.90,92.94 564.00,92.99 568.10,93.04 572.20,93.08 576.30,93.12 580.40,93.16 584.50,93.20 588.60,93.24 592.70,93.27 596.80,93.31 600.90,93.34 605.00,93.37 609.10,93.39 613.20,93.42 617.30,93.44 621.40,93.47 625.50,93.49 629.60,93.51 633.70,93.53 637.80,93.55 641.90,93.56 646.00,93.58 650.10,93.60 654.20,93.61 658.30,93.62 662.40,93.64 666.50,93.65 670.60,93.66 674.70,93.67 678.80,93.68 682.90,93.69 687.00,93.70 691.10,93.71 695.20,93.72 699.30,93.73 703.40,93.73 707.50,93.74 711.60,93.75 715.70,93.75 719.80,93.76 723.90,93.76 728.00,93.77 732.10,93.77 736.20,93.78 740.30,93.78 744.40,93.79 748.50,93.79 752.60,93.80 756.70,93.80 760.80,93.80 764.90,93.81 769.00,93.81 773.10,93.81 777.20,93.81 781.30,93.82 785.40,93.82 789.50,93.82 793.60,93.82 797.70,93.82 801.80,93.83 805.90,93.83 810.00,93.83 814.10,93.83 818.20,93.83 822.30,93.83 826.40,93.84 830.50,93.84 834.60,93.84 838.70,93.84 842.80,93.84 846.90,93.84 851.00,93.84 855.10,93.84 859.20,93.84 863.30,93.84 867.40,93.85 871.50,93.85 875.60,93.85 879.70,93.85 883.80,93.85 887.90,93.85 892.00,93.85" fill="none" stroke="#b54708" stroke-width="3" stroke-linejoin="round"/>
<line x1="700" y1="106" x2="734" y2="106" stroke="#b54708" stroke-width="3"/>
<text x="744" y="110" font-family="Arial, Helvetica, sans-serif" font-size="13" font-weight="400" text-anchor="start" fill="#111">phase, deg</text>
<text x="460" y="482" font-family="Arial, Helvetica, sans-serif" font-size="14" font-weight="400" text-anchor="middle" fill="#111">Frequency, Hz</text>
<text x="22" y="250" font-family="Arial, Helvetica, sans-serif" font-size="14" text-anchor="middle" fill="#111" transform="rotate(-90 22 250)">Gain dB / phase deg</text>
</svg>
