<svg xmlns="http://www.w3.org/2000/svg" width="920" height="500" viewBox="0 0 920 500">
<defs>
<style>
.wire{stroke:#111;stroke-width:2.4;fill:none;stroke-linecap:round;stroke-linejoin:round}
.thin{stroke:#9aa4b2;stroke-width:1.2;fill:none}
.axis{stroke:#111;stroke-width:1.4;fill:none}
.blue{stroke:#1665d8;stroke-width:3;fill:none;stroke-linecap:round;stroke-linejoin:round}
.green{stroke:#13795b;stroke-width:3;fill:none;stroke-linecap:round;stroke-linejoin:round}
</style>
</defs>
<rect width="100%" height="100%" fill="#fff"/>
<text x="72" y="34" font-family="Arial, Helvetica, sans-serif" font-size="22" font-weight="700" text-anchor="start" fill="#111">ngspice transient analysis: 1 kHz sine</text>
<rect x="72" y="58" width="820" height="382" fill="#fff" stroke="#111" stroke-width="1.4"/>
<line x1="72" y1="58" x2="72" y2="440" class="thin"/>
<text x="72" y="462" font-family="Arial, Helvetica, sans-serif" font-size="12" font-weight="400" text-anchor="middle" fill="#111">0</text>
<line x1="236" y1="58" x2="236" y2="440" class="thin"/>
<text x="236" y="462" font-family="Arial, Helvetica, sans-serif" font-size="12" font-weight="400" text-anchor="middle" fill="#111">1</text>
<line x1="400" y1="58" x2="400" y2="440" class="thin"/>
<text x="400" y="462" font-family="Arial, Helvetica, sans-serif" font-size="12" font-weight="400" text-anchor="middle" fill="#111">2</text>
<line x1="564" y1="58" x2="564" y2="440" class="thin"/>
<text x="564" y="462" font-family="Arial, Helvetica, sans-serif" font-size="12" font-weight="400" text-anchor="middle" fill="#111">3</text>
<line x1="728" y1="58" x2="728" y2="440" class="thin"/>
<text x="728" y="462" font-family="Arial, Helvetica, sans-serif" font-size="12" font-weight="400" text-anchor="middle" fill="#111">4</text>
<line x1="892" y1="58" x2="892" y2="440" class="thin"/>
<text x="892" y="462" font-family="Arial, Helvetica, sans-serif" font-size="12" font-weight="400" text-anchor="middle" fill="#111">5</text>
<line x1="72" y1="408.167" x2="892" y2="408.167" class="thin"/>
<text x="62" y="412.167" font-family="Arial, Helvetica, sans-serif" font-size="12" font-weight="400" text-anchor="end" fill="#111">-1</text>
<line x1="72" y1="328.583" x2="892" y2="328.583" class="thin"/>
<text x="62" y="332.583" font-family="Arial, Helvetica, sans-serif" font-size="12" font-weight="400" text-anchor="end" fill="#111">-0.5</text>
<line x1="72" y1="249" x2="892" y2="249" class="thin"/>
<text x="62" y="253" font-family="Arial, Helvetica, sans-serif" font-size="12" font-weight="400" text-anchor="end" fill="#111">0</text>
<line x1="72" y1="169.417" x2="892" y2="169.417" class="thin"/>
<text x="62" y="173.417" font-family="Arial, Helvetica, sans-serif" font-size="12" font-weight="400" text-anchor="end" fill="#111">0.5</text>
<line x1="72" y1="89.8333" x2="892" y2="89.8333" class="thin"/>
<text x="62" y="93.8333" font-family="Arial, Helvetica, sans-serif" font-size="12" font-weight="400" text-anchor="end" fill="#111">1</text>
<polyline points="72.00,249.00 72.02,248.90 72.02,248.89 72.02,248.87 72.03,248.84 72.04,248.77 72.06,248.64 72.10,248.37 72.19,247.83 72.37,246.76 72.72,244.60 73.43,240.30 74.84,231.73 76.48,221.83 78.12,212.03 79.76,202.38 81.40,192.92 83.04,183.68 84.68,174.69 86.32,166.00 87.96,157.64 89.60,149.63 91.24,142.02 92.88,134.83 94.52,128.09 96.16,121.83 97.80,116.07 99.44,110.84 101.08,106.15 102.72,102.02 104.36,98.48 106.00,95.53 107.64,93.18 109.28,91.45 110.92,90.34 112.56,89.86 114.20,90.00 115.84,90.77 117.48,92.17 119.12,94.19 120.76,96.81 122.40,100.04 124.04,103.86 125.68,108.24 127.32,113.19 128.96,118.67 130.60,124.66 132.24,131.15 133.88,138.09 135.52,145.48 137.16,153.28 138.80,161.45 140.44,169.97 142.08,178.80 143.72,187.91 145.36,197.26 147.00,206.81 148.64,216.53 150.28,226.38 151.92,236.32 153.56,246.31 155.20,256.30 156.84,266.27 158.48,276.17 160.12,285.97 161.76,295.62 163.40,305.08 165.04,314.32 166.68,323.31 168.32,332.00 169.96,340.36 171.60,348.37 173.24,355.98 174.88,363.17 176.52,369.91 178.16,376.17 179.80,381.93 181.44,387.16 183.08,391.85 184.72,395.98 186.36,399.52 188.00,402.47 189.64,404.82 191.28,406.55 192.92,407.66 194.56,408.14 196.20,408.00 197.84,407.23 199.48,405.83 201.12,403.81 202.76,401.19 204.40,397.96 206.04,394.14 207.68,389.76 209.32,384.81 210.96,379.33 212.60,373.34 214.24,366.85 215.88,359.91 217.52,352.52 219.16,344.72 220.80,336.55 222.44,328.03 224.08,319.20 225.72,310.09 227.36,300.74 229.00,291.19 230.64,281.47 232.28,271.62 233.92,261.68 235.56,251.69 237.20,241.70 238.84,231.73 240.48,221.83 242.12,212.03 243.76,202.38 245.40,192.92 247.04,183.68 248.68,174.69 250.32,166.00 251.96,157.64 253.60,149.63 255.24,142.02 256.88,134.83 258.52,128.09 260.16,121.83 261.80,116.07 263.44,110.84 265.08,106.15 266.72,102.02 268.36,98.48 270.00,95.53 271.64,93.18 273.28,91.45 274.92,90.34 276.56,89.86 278.20,90.00 279.84,90.77 281.48,92.17 283.12,94.19 284.76,96.81 286.40,100.04 288.04,103.86 289.68,108.24 291.32,113.19 292.96,118.67 294.60,124.66 296.24,131.15 297.88,138.09 299.52,145.48 301.16,153.28 302.80,161.45 304.44,169.97 306.08,178.80 307.72,187.91 309.36,197.26 311.00,206.81 312.64,216.53 314.28,226.38 315.92,236.32 317.56,246.31 319.20,256.30 320.84,266.27 322.48,276.17 324.12,285.97 325.76,295.62 327.40,305.08 329.04,314.32 330.68,323.31 332.32,332.00 333.96,340.36 335.60,348.37 337.24,355.98 338.88,363.17 340.52,369.91 342.16,376.17 343.80,381.93 345.44,387.16 347.08,391.85 348.72,395.98 350.36,399.52 352.00,402.47 353.64,404.82 355.28,406.55 356.92,407.66 358.56,408.14 360.20,408.00 361.84,407.23 363.48,405.83 365.12,403.81 366.76,401.19 368.40,397.96 370.04,394.14 371.68,389.76 373.32,384.81 374.96,379.33 376.60,373.34 378.24,366.85 379.88,359.91 381.52,352.52 383.16,344.72 384.80,336.55 386.44,328.03 388.08,319.20 389.72,310.09 391.36,300.74 393.00,291.19 394.64,281.47 396.28,271.62 397.92,261.68 399.56,251.69 401.20,241.70 402.84,231.73 404.48,221.83 406.12,212.03 407.76,202.38 409.40,192.92 411.04,183.68 412.68,174.69 414.32,166.00 415.96,157.64 417.60,149.63 419.24,142.02 420.88,134.83 422.52,128.09 424.16,121.83 425.80,116.07 427.44,110.84 429.08,106.15 430.72,102.02 432.36,98.48 434.00,95.53 435.64,93.18 437.28,91.45 438.92,90.34 440.56,89.86 442.20,90.00 443.84,90.77 445.48,92.17 447.12,94.19 448.76,96.81 450.40,100.04 452.04,103.86 453.68,108.24 455.32,113.19 456.96,118.67 458.60,124.66 460.24,131.15 461.88,138.09 463.52,145.48 465.16,153.28 466.80,161.45 468.44,169.97 470.08,178.80 471.72,187.91 473.36,197.26 475.00,206.81 476.64,216.53 478.28,226.38 479.92,236.32 481.56,246.31 483.20,256.30 484.84,266.27 486.48,276.17 488.12,285.97 489.76,295.62 491.40,305.08 493.04,314.32 494.68,323.31 496.32,332.00 497.96,340.36 499.60,348.37 501.24,355.98 502.88,363.17 504.52,369.91 506.16,376.17 507.80,381.93 509.44,387.16 511.08,391.85 512.72,395.98 514.36,399.52 516.00,402.47 517.64,404.82 519.28,406.55 520.92,407.66 522.56,408.14 524.20,408.00 525.84,407.23 527.48,405.83 529.12,403.81 530.76,401.19 532.40,397.96 534.04,394.14 535.68,389.76 537.32,384.81 538.96,379.33 540.60,373.34 542.24,366.85 543.88,359.91 545.52,352.52 547.16,344.72 548.80,336.55 550.44,328.03 552.08,319.20 553.72,310.09 555.36,300.74 557.00,291.19 558.64,281.47 560.28,271.62 561.92,261.68 563.56,251.69 565.20,241.70 566.84,231.73 568.48,221.83 570.12,212.03 571.76,202.38 573.40,192.92 575.04,183.68 576.68,174.69 578.32,166.00 579.96,157.64 581.60,149.63 583.24,142.02 584.88,134.83 586.52,128.09 588.16,121.83 589.80,116.07 591.44,110.84 593.08,106.15 594.72,102.02 596.36,98.48 598.00,95.53 599.64,93.18 601.28,91.45 602.92,90.34 604.56,89.86 606.20,90.00 607.84,90.77 609.48,92.17 611.12,94.19 612.76,96.81 614.40,100.04 616.04,103.86 617.68,108.24 619.32,113.19 620.96,118.67 622.60,124.66 624.24,131.15 625.88,138.09 627.52,145.48 629.16,153.28 630.80,161.45 632.44,169.97 634.08,178.80 635.72,187.91 637.36,197.26 639.00,206.81 640.64,216.53 642.28,226.38 643.92,236.32 645.56,246.31 647.20,256.30 648.84,266.27 650.48,276.17 652.12,285.97 653.76,295.62 655.40,305.08 657.04,314.32 658.68,323.31 660.32,332.00 661.96,340.36 663.60,348.37 665.24,355.98 666.88,363.17 668.52,369.91 670.16,376.17 671.80,381.93 673.44,387.16 675.08,391.85 676.72,395.98 678.36,399.52 680.00,402.47 681.64,404.82 683.28,406.55 684.92,407.66 686.56,408.14 688.20,408.00 689.84,407.23 691.48,405.83 693.12,403.81 694.76,401.19 696.40,397.96 698.04,394.14 699.68,389.76 701.32,384.81 702.96,379.33 704.60,373.34 706.24,366.85 707.88,359.91 709.52,352.52 711.16,344.72 712.80,336.55 714.44,328.03 716.08,319.20 717.72,310.09 719.36,300.74 721.00,291.19 722.64,281.47 724.28,271.62 725.92,261.68 727.56,251.69 729.20,241.70 730.84,231.73 732.48,221.83 734.12,212.03 735.76,202.38 737.40,192.92 739.04,183.68 740.68,174.69 742.32,166.00 743.96,157.64 745.60,149.63 747.24,142.02 748.88,134.83 750.52,128.09 752.16,121.83 753.80,116.07 755.44,110.84 757.08,106.15 758.72,102.02 760.36,98.48 762.00,95.53 763.64,93.18 765.28,91.45 766.92,90.34 768.56,89.86 770.20,90.00 771.84,90.77 773.48,92.17 775.12,94.19 776.76,96.81 778.40,100.04 780.04,103.86 781.68,108.24 783.32,113.19 784.96,118.67 786.60,124.66 788.24,131.15 789.88,138.09 791.52,145.48 793.16,153.28 794.80,161.45 796.44,169.97 798.08,178.80 799.72,187.91 801.36,197.26 803.00,206.81 804.64,216.53 806.28,226.38 807.92,236.32 809.56,246.31 811.20,256.30 812.84,266.27 814.48,276.17 816.12,285.97 817.76,295.62 819.40,305.08 821.04,314.32 822.68,323.31 824.32,332.00 825.96,340.36 827.60,348.37 829.24,355.98 830.88,363.17 832.52,369.91 834.16,376.17 835.80,381.93 837.44,387.16 839.08,391.85 840.72,395.98 842.36,399.52 844.00,402.47 845.64,404.82 847.28,406.55 848.92,407.66 850.56,408.14 852.20,408.00 853.84,407.23 855.48,405.83 857.12,403.81 858.76,401.19 860.40,397.96 862.04,394.14 863.68,389.76 865.32,384.81 866.96,379.33 868.60,373.34 870.24,366.85 871.88,359.91 873.52,352.52 875.16,344.72 876.80,336.55 878.44,328.03 880.08,319.20 881.72,310.09 883.36,300.74 885.00,291.19 886.64,281.47 888.28,271.62 889.92,261.68 890.96,255.35 892.00,249.00" fill="none" stroke="#1665d8" stroke-width="3" stroke-linejoin="round"/>
<line x1="700" y1="82" x2="734" y2="82" stroke="#1665d8" stroke-width="3"/>
<text x="744" y="86" font-family="Arial, Helvetica, sans-serif" font-size="13" font-weight="400" text-anchor="start" fill="#111">vin</text>
<polyline points="72.00,249.00 72.02,249.00 72.02,249.00 72.02,249.00 72.03,249.00 72.04,249.00 72.06,249.00 72.10,249.00 72.19,248.99 72.37,248.97 72.72,248.90 73.43,248.63 74.84,247.59 76.48,245.61 78.12,242.89 79.76,239.49 81.40,235.52 83.04,231.04 84.68,226.12 86.32,220.83 87.96,215.24 89.60,209.41 91.24,203.39 92.88,197.25 94.52,191.04 96.16,184.80 97.80,178.60 99.44,172.46 101.08,166.45 102.72,160.59 104.36,154.93 106.00,149.50 107.64,144.35 109.28,139.50 110.92,134.97 112.56,130.81 114.20,127.03 115.84,123.66 117.48,120.71 119.12,118.22 120.76,116.18 122.40,114.61 124.04,113.54 125.68,112.95 127.32,112.87 128.96,113.29 130.60,114.22 132.24,115.65 133.88,117.58 135.52,120.01 137.16,122.93 138.80,126.33 140.44,130.19 142.08,134.51 143.72,139.27 145.36,144.45 147.00,150.03 148.64,155.99 150.28,162.31 151.92,168.97 153.56,175.93 155.20,183.18 156.84,190.67 158.48,198.40 160.12,206.32 161.76,214.40 163.40,222.61 165.04,230.93 166.68,239.31 168.32,247.73 169.96,256.15 171.60,264.54 173.24,272.87 174.88,281.10 176.52,289.20 178.16,297.14 179.80,304.89 181.44,312.42 183.08,319.70 184.72,326.70 186.36,333.39 188.00,339.74 189.64,345.74 191.28,351.35 192.92,356.56 194.56,361.35 196.20,365.69 197.84,369.57 199.48,372.97 201.12,375.89 202.76,378.30 204.40,380.20 206.04,381.59 207.68,382.45 209.32,382.78 210.96,382.58 212.60,381.86 214.24,380.62 215.88,378.85 217.52,376.57 219.16,373.79 220.80,370.51 222.44,366.76 224.08,362.54 225.72,357.87 227.36,352.78 229.00,347.27 230.64,341.37 232.28,335.11 233.92,328.52 235.56,321.60 237.20,314.40 238.84,306.94 240.48,299.26 242.12,291.37 243.76,283.32 245.40,275.13 247.04,266.84 248.68,258.48 250.32,250.08 251.96,241.68 253.60,233.30 255.24,224.99 256.88,216.77 258.52,208.68 260.16,200.75 261.80,193.01 263.44,185.49 265.08,178.22 266.72,171.23 268.36,164.55 270.00,158.20 271.64,152.21 273.28,146.60 274.92,141.39 276.56,136.61 278.20,132.28 279.84,128.40 281.48,125.00 283.12,122.09 284.76,119.68 286.40,117.78 288.04,116.40 289.68,115.54 291.32,115.21 292.96,115.40 294.60,116.12 296.24,117.37 297.88,119.14 299.52,121.42 301.16,124.20 302.80,127.48 304.44,131.23 306.08,135.45 307.72,140.12 309.36,145.22 311.00,150.73 312.64,156.62 314.28,162.88 315.92,169.48 317.56,176.39 319.20,183.59 320.84,191.05 322.48,198.74 324.12,206.63 325.76,214.68 327.40,222.87 329.04,231.16 330.68,239.52 332.32,247.92 333.96,256.32 335.60,264.69 337.24,273.01 338.88,281.22 340.52,289.31 342.16,297.25 343.80,304.99 345.44,312.51 347.08,319.78 348.72,326.77 350.36,333.45 352.00,339.80 353.64,345.79 355.28,351.40 356.92,356.61 358.56,361.39 360.20,365.72 361.84,369.60 363.48,373.00 365.12,375.91 366.76,378.32 368.40,380.22 370.04,381.60 371.68,382.46 373.32,382.79 374.96,382.60 376.60,381.88 378.24,380.63 379.88,378.86 381.52,376.58 383.16,373.80 384.80,370.52 386.44,366.77 388.08,362.55 389.72,357.88 391.36,352.78 393.00,347.27 394.64,341.38 396.28,335.12 397.92,328.52 399.56,321.61 401.20,314.40 402.84,306.95 404.48,299.26 406.12,291.37 407.76,283.32 409.40,275.13 411.04,266.84 412.68,258.48 414.32,250.08 415.96,241.68 417.60,233.31 419.24,224.99 420.88,216.78 422.52,208.69 424.16,200.75 425.80,193.01 427.44,185.49 429.08,178.22 430.72,171.23 432.36,164.55 434.00,158.20 435.64,152.21 437.28,146.60 438.92,141.39 440.56,136.61 442.20,132.28 443.84,128.40 445.48,125.00 447.12,122.09 448.76,119.68 450.40,117.78 452.04,116.40 453.68,115.54 455.32,115.21 456.96,115.40 458.60,116.12 460.24,117.37 461.88,119.14 463.52,121.42 465.16,124.20 466.80,127.48 468.44,131.23 470.08,135.45 471.72,140.12 473.36,145.22 475.00,150.73 476.64,156.62 478.28,162.88 479.92,169.48 481.56,176.39 483.20,183.60 484.84,191.05 486.48,198.74 488.12,206.63 489.76,214.68 491.40,222.87 493.04,231.16 494.68,239.52 496.32,247.92 497.96,256.32 499.60,264.69 501.24,273.01 502.88,281.22 504.52,289.31 506.16,297.25 507.80,304.99 509.44,312.51 511.08,319.78 512.72,326.77 514.36,333.45 516.00,339.80 517.64,345.79 519.28,351.40 520.92,356.61 522.56,361.39 524.20,365.72 525.84,369.60 527.48,373.00 529.12,375.91 530.76,378.32 532.40,380.22 534.04,381.60 535.68,382.46 537.32,382.79 538.96,382.60 540.60,381.88 542.24,380.63 543.88,378.86 545.52,376.58 547.16,373.80 548.80,370.52 550.44,366.77 552.08,362.55 553.72,357.88 555.36,352.78 557.00,347.27 558.64,341.38 560.28,335.12 561.92,328.52 563.56,321.61 565.20,314.40 566.84,306.95 568.48,299.26 570.12,291.37 571.76,283.32 573.40,275.13 575.04,266.84 576.68,258.48 578.32,250.08 579.96,241.68 581.60,233.31 583.24,224.99 584.88,216.78 586.52,208.69 588.16,200.75 589.80,193.01 591.44,185.49 593.08,178.22 594.72,171.23 596.36,164.55 598.00,158.20 599.64,152.21 601.28,146.60 602.92,141.39 604.56,136.61 606.20,132.28 607.84,128.40 609.48,125.00 611.12,122.09 612.76,119.68 614.40,117.78 616.04,116.40 617.68,115.54 619.32,115.21 620.96,115.40 622.60,116.12 624.24,117.37 625.88,119.14 627.52,121.42 629.16,124.20 630.80,127.48 632.44,131.23 634.08,135.45 635.72,140.12 637.36,145.22 639.00,150.73 640.64,156.62 642.28,162.88 643.92,169.48 645.56,176.39 647.20,183.60 648.84,191.05 650.48,198.74 652.12,206.63 653.76,214.68 655.40,222.87 657.04,231.16 658.68,239.52 660.32,247.92 661.96,256.32 663.60,264.69 665.24,273.01 666.88,281.22 668.52,289.31 670.16,297.25 671.80,304.99 673.44,312.51 675.08,319.78 676.72,326.77 678.36,333.45 680.00,339.80 681.64,345.79 683.28,351.40 684.92,356.61 686.56,361.39 688.20,365.72 689.84,369.60 691.48,373.00 693.12,375.91 694.76,378.32 696.40,380.22 698.04,381.60 699.68,382.46 701.32,382.79 702.96,382.60 704.60,381.88 706.24,380.63 707.88,378.86 709.52,376.58 711.16,373.80 712.80,370.52 714.44,366.77 716.08,362.55 717.72,357.88 719.36,352.78 721.00,347.27 722.64,341.38 724.28,335.12 725.92,328.52 727.56,321.61 729.20,314.40 730.84,306.95 732.48,299.26 734.12,291.37 735.76,283.32 737.40,275.13 739.04,266.84 740.68,258.48 742.32,250.08 743.96,241.68 745.60,233.31 747.24,224.99 748.88,216.78 750.52,208.69 752.16,200.75 753.80,193.01 755.44,185.49 757.08,178.22 758.72,171.23 760.36,164.55 762.00,158.20 763.64,152.21 765.28,146.60 766.92,141.39 768.56,136.61 770.20,132.28 771.84,128.40 773.48,125.00 775.12,122.09 776.76,119.68 778.40,117.78 780.04,116.40 781.68,115.54 783.32,115.21 784.96,115.40 786.60,116.12 788.24,117.37 789.88,119.14 791.52,121.42 793.16,124.20 794.80,127.48 796.44,131.23 798.08,135.45 799.72,140.12 801.36,145.22 803.00,150.73 804.64,156.62 806.28,162.88 807.92,169.48 809.56,176.39 811.20,183.60 812.84,191.05 814.48,198.74 816.12,206.63 817.76,214.68 819.40,222.87 821.04,231.16 822.68,239.52 824.32,247.92 825.96,256.32 827.60,264.69 829.24,273.01 830.88,281.22 832.52,289.31 834.16,297.25 835.80,304.99 837.44,312.51 839.08,319.78 840.72,326.77 842.36,333.45 844.00,339.80 845.64,345.79 847.28,351.40 848.92,356.61 850.56,361.39 852.20,365.72 853.84,369.60 855.48,373.00 857.12,375.91 858.76,378.32 860.40,380.22 862.04,381.60 863.68,382.46 865.32,382.79 866.96,382.60 868.60,381.88 870.24,380.63 871.88,378.86 873.52,376.58 875.16,373.80 876.80,370.52 878.44,366.77 880.08,362.55 881.72,357.88 883.36,352.78 885.00,347.27 886.64,341.38 888.28,335.12 889.92,328.52 890.96,324.16 892.00,319.69" fill="none" stroke="#13795b" stroke-width="3" stroke-linejoin="round"/>
<line x1="700" y1="106" x2="734" y2="106" stroke="#13795b" stroke-width="3"/>
<text x="744" y="110" font-family="Arial, Helvetica, sans-serif" font-size="13" font-weight="400" text-anchor="start" fill="#111">vout</text>
<text x="460" y="482" font-family="Arial, Helvetica, sans-serif" font-size="14" font-weight="400" text-anchor="middle" fill="#111">Time, ms</text>
<text x="22" y="250" font-family="Arial, Helvetica, sans-serif" font-size="14" text-anchor="middle" fill="#111" transform="rotate(-90 22 250)">Voltage, V</text>
</svg>
