<svg xmlns="http://www.w3.org/2000/svg" width="900" height="500" viewBox="0 0 900 500">
<defs>
<style>
.wire{stroke:#111;stroke-width:2.4;fill:none;stroke-linecap:round;stroke-linejoin:round}
.thin{stroke:#9aa4b2;stroke-width:1.2;fill:none}
.axis{stroke:#111;stroke-width:1.4;fill:none}
.blue{stroke:#1665d8;stroke-width:3;fill:none;stroke-linecap:round;stroke-linejoin:round}
.green{stroke:#13795b;stroke-width:3;fill:none;stroke-linecap:round;stroke-linejoin:round}
</style>
</defs>
<rect width="100%" height="100%" fill="#fff"/>
<text x="42" y="42" font-family="Arial, Helvetica, sans-serif" font-size="24" font-weight="700" text-anchor="start" fill="#111">RC Low-Pass Filter - ngspice Smoke Test</text>
<text x="42" y="70" font-family="Arial, Helvetica, sans-serif" font-size="14" font-weight="400" text-anchor="start" fill="#111">R1 = 1k, C1 = 100n, Rload = 100k, Vin = 1 V sine / AC 1</text>
<circle cx="150" cy="250" r="42" class="wire"/>
<line x1="150" y1="160" x2="150" y2="208" class="wire"/>
<line x1="150" y1="292" x2="150" y2="360" class="wire"/>
<text x="104" y="252" font-family="Arial, Helvetica, sans-serif" font-size="15" font-weight="700" text-anchor="start" fill="#111">Vin</text>
<text x="139" y="237" font-family="Arial, Helvetica, sans-serif" font-size="18" font-weight="700" text-anchor="start" fill="#111">+</text>
<text x="142" y="274" font-family="Arial, Helvetica, sans-serif" font-size="18" font-weight="700" text-anchor="start" fill="#111">-</text>
<line x1="150" y1="160" x2="288" y2="160" class="wire"/>
<polyline points="288,160 300,160 308,147 320,173 332,147 344,173 356,147 368,173 376,160 402,160" class="wire"/>
<text x="320" y="133" font-family="Arial, Helvetica, sans-serif" font-size="14" font-weight="700" text-anchor="middle" fill="#111">R1 1k</text>
<line x1="402" y1="160" x2="548" y2="160" class="wire"/>
<circle cx="548" cy="160" r="4" fill="#111"/>
<text x="560" y="154" font-family="Arial, Helvetica, sans-serif" font-size="15" font-weight="700" text-anchor="start" fill="#111">OUT</text>
<line x1="548" y1="160" x2="548" y2="224" class="wire"/>
<line x1="526" y1="224" x2="570" y2="224" class="wire"/>
<line x1="526" y1="248" x2="570" y2="248" class="wire"/>
<line x1="548" y1="248" x2="548" y2="360" class="wire"/>
<text x="578" y="242" font-family="Arial, Helvetica, sans-serif" font-size="14" font-weight="400" text-anchor="start" fill="#111">C1 100n</text>
<line x1="660" y1="160" x2="660" y2="220" class="wire"/>
<polyline points="660,220 660,232 647,240 673,252 647,264 673,276 660,284 660,320" class="wire"/>
<line x1="660" y1="320" x2="660" y2="360" class="wire"/>
<text x="678" y="266" font-family="Arial, Helvetica, sans-serif" font-size="14" font-weight="400" text-anchor="start" fill="#111">Rload 100k</text>
<line x1="548" y1="160" x2="660" y2="160" class="wire"/>
<line x1="150" y1="360" x2="660" y2="360" class="wire"/>
<line x1="400" y1="360" x2="400" y2="392" class="wire"/>
<line x1="372" y1="392" x2="428" y2="392" class="wire"/>
<line x1="382" y1="406" x2="418" y2="406" class="wire"/>
<line x1="392" y1="420" x2="408" y2="420" class="wire"/>
<text x="686" y="362" font-family="Arial, Helvetica, sans-serif" font-size="14" font-weight="700" text-anchor="start" fill="#111">0</text>
</svg>
