<svg xmlns="http://www.w3.org/2000/svg" width="1160" height="760" viewBox="0 0 1160 760">
<defs>
<style>
.wire{stroke:#111;stroke-width:2.6;fill:none;stroke-linecap:round;stroke-linejoin:round}
.thin{stroke:#a7b0bd;stroke-width:1.2;fill:none;stroke-linecap:round;stroke-linejoin:round}
.axis{stroke:#111;stroke-width:1.4;fill:none}
.blue{stroke:#1665d8;stroke-width:3;fill:none;stroke-linecap:round;stroke-linejoin:round}
.green{stroke:#13795b;stroke-width:3;fill:none;stroke-linecap:round;stroke-linejoin:round}
.orange{stroke:#b54708;stroke-width:3;fill:none;stroke-linecap:round;stroke-linejoin:round}
.node{fill:#111;stroke:none}
</style>
</defs>
<rect width="100%" height="100%" fill="#fff"/>
<text x="42" y="42" font-family="Arial, Helvetica, sans-serif" font-size="22" font-weight="700" text-anchor="start" fill="#111">Reconstructed shema-1804-6 BJT audio amplifier, bootstrap variant</text>
<text x="42" y="68" font-family="Arial, Helvetica, sans-serif" font-size="13" font-weight="400" text-anchor="start" fill="#111">Upper bias feed split; C4 adds output swing to the upper transistor bias node</text>
<line x1="300" y1="98" x2="965" y2="98" class="wire"/>
<polyline points="965,90 982,98 965,106" class="wire" fill="none"/>
<text x="1000" y="104" font-family="Arial, Helvetica, sans-serif" font-size="18" font-weight="700" text-anchor="start" fill="#111">+12 V</text>
<circle cx="460" cy="98" r="5" class="node"/>
<circle cx="730" cy="98" r="5" class="node"/>
<line x1="300" y1="98" x2="300" y2="145" class="wire"/>
<line x1="276" y1="145" x2="324" y2="145" class="wire"/>
<line x1="276" y1="173" x2="324" y2="173" class="wire"/>
<line x1="300" y1="173" x2="300" y2="220" class="wire"/>
<text x="272" y="164" font-family="Arial, Helvetica, sans-serif" font-size="14" font-weight="700" text-anchor="end" fill="#111">C1 1000u</text>
<text x="266" y="129" font-family="Arial, Helvetica, sans-serif" font-size="18" font-weight="700" text-anchor="middle" fill="#111">+</text>
<line x1="300" y1="220" x2="300" y2="234" class="wire"/>
<line x1="274" y1="234" x2="326" y2="234" class="wire"/>
<line x1="283" y1="247" x2="317" y2="247" class="wire"/>
<line x1="292" y1="260" x2="308" y2="260" class="wire"/>
<line x1="460" y1="98" x2="460" y2="106" class="wire"/>
<rect x="446" y="106" width="28" height="76" class="wire"/>
<line x1="460" y1="182" x2="460" y2="190" class="wire"/>
<text x="436" y="149" font-family="Arial, Helvetica, sans-serif" font-size="14" font-weight="700" text-anchor="end" fill="#111">R1A 560</text>
<circle cx="460" cy="190" r="5" class="node"/>
<line x1="460" y1="190" x2="460" y2="198" class="wire"/>
<rect x="446" y="198" width="28" height="76" class="wire"/>
<line x1="460" y1="274" x2="460" y2="282" class="wire"/>
<text x="436" y="241" font-family="Arial, Helvetica, sans-serif" font-size="14" font-weight="700" text-anchor="end" fill="#111">R1B 1.8k</text>
<circle cx="460" cy="282" r="5" class="node"/>
<line x1="460" y1="282" x2="460" y2="300" class="wire"/>
<polyline points="438,300 482,300 460,332 438,300" class="wire" fill="none"/>
<line x1="438" y1="338" x2="482" y2="338" class="wire"/>
<line x1="460" y1="338" x2="460" y2="366" class="wire"/>
<text x="494" y="328" font-family="Arial, Helvetica, sans-serif" font-size="14" font-weight="700" text-anchor="start" fill="#111">VD1 KD521A</text>
<line x1="460" y1="366" x2="460" y2="384" class="wire"/>
<polyline points="438,384 482,384 460,416 438,384" class="wire" fill="none"/>
<line x1="438" y1="422" x2="482" y2="422" class="wire"/>
<line x1="460" y1="422" x2="460" y2="450" class="wire"/>
<text x="494" y="412" font-family="Arial, Helvetica, sans-serif" font-size="14" font-weight="700" text-anchor="start" fill="#111">VD2 KD521A</text>
<line x1="460" y1="190" x2="521" y2="190" class="wire"/>
<line x1="521" y1="166" x2="521" y2="214" class="wire"/>
<line x1="549" y1="166" x2="549" y2="214" class="wire"/>
<line x1="549" y1="190" x2="610" y2="190" class="wire"/>
<text x="535" y="156" font-family="Arial, Helvetica, sans-serif" font-size="14" font-weight="700" text-anchor="middle" fill="#111">C4 470u</text>
<text x="505" y="173" font-family="Arial, Helvetica, sans-serif" font-size="18" font-weight="700" text-anchor="middle" fill="#111">+</text>
<line x1="610" y1="190" x2="790" y2="190" class="wire"/>
<line x1="790" y1="190" x2="790" y2="390" class="wire"/>
<circle cx="700" cy="282" r="54" class="wire"/>
<line x1="646" y1="282" x2="684" y2="282" class="wire"/>
<line x1="684" y1="248" x2="684" y2="316" class="wire"/>
<line x1="684" y1="258" x2="730" y2="237" class="wire"/>
<line x1="684" y1="306" x2="730" y2="327" class="wire"/>
<polygon points="716.20,320.70 700.27,319.47 704.84,309.47" fill="#111" stroke="none"/>
<text x="656" y="364" font-family="Arial, Helvetica, sans-serif" font-size="14" font-weight="700" text-anchor="middle" fill="#111">VT2 KT817A</text>
<line x1="730" y1="237" x2="730" y2="98" class="wire"/>
<line x1="460" y1="282" x2="646" y2="282" class="wire"/>
<line x1="730" y1="327" x2="730" y2="405" class="wire"/>
<circle cx="730" cy="390" r="5" class="node"/>
<circle cx="790" cy="390" r="5" class="node"/>
<line x1="730" y1="390" x2="820" y2="390" class="wire"/>
<circle cx="700" cy="450" r="54" class="wire"/>
<line x1="646" y1="450" x2="684" y2="450" class="wire"/>
<line x1="684" y1="416" x2="684" y2="484" class="wire"/>
<line x1="684" y1="426" x2="730" y2="405" class="wire"/>
<line x1="684" y1="474" x2="730" y2="495" class="wire"/>
<polygon points="703.32,417.18 719.25,415.95 714.68,405.95" fill="#111" stroke="none"/>
<text x="656" y="532" font-family="Arial, Helvetica, sans-serif" font-size="14" font-weight="700" text-anchor="middle" fill="#111">VT3 KT816A</text>
<line x1="730" y1="495" x2="730" y2="610" class="wire"/>
<line x1="730" y1="610" x2="730" y2="624" class="wire"/>
<line x1="704" y1="624" x2="756" y2="624" class="wire"/>
<line x1="713" y1="637" x2="747" y2="637" class="wire"/>
<line x1="722" y1="650" x2="738" y2="650" class="wire"/>
<text x="838" y="420" font-family="Arial, Helvetica, sans-serif" font-size="13" font-weight="700" text-anchor="start" fill="#111">OUT</text>
<line x1="820" y1="390" x2="878.5" y2="390" class="wire"/>
<line x1="878.5" y1="366" x2="878.5" y2="414" class="wire"/>
<line x1="906.5" y1="366" x2="906.5" y2="414" class="wire"/>
<line x1="906.5" y1="390" x2="965" y2="390" class="wire"/>
<text x="892.5" y="356" font-family="Arial, Helvetica, sans-serif" font-size="14" font-weight="700" text-anchor="middle" fill="#111">C2 4700u</text>
<text x="862.5" y="373" font-family="Arial, Helvetica, sans-serif" font-size="18" font-weight="700" text-anchor="middle" fill="#111">+</text>
<line x1="965" y1="390" x2="1018" y2="390" class="wire"/>
<line x1="1018" y1="390" x2="1018" y2="424" class="wire"/>
<rect x="1000" y="424" width="36" height="76" class="wire"/>
<polyline points="1036,432 1094,408 1094,516 1036,492" class="wire" fill="none"/>
<line x1="1018" y1="500" x2="1018" y2="570" class="wire"/>
<text x="1058" y="546" font-family="Arial, Helvetica, sans-serif" font-size="14" font-weight="700" text-anchor="middle" fill="#111">B1 8 ohm</text>
<line x1="1018" y1="570" x2="1018" y2="584" class="wire"/>
<line x1="992" y1="584" x2="1044" y2="584" class="wire"/>
<line x1="1001" y1="597" x2="1035" y2="597" class="wire"/>
<line x1="1010" y1="610" x2="1026" y2="610" class="wire"/>
<text x="972" y="364" font-family="Arial, Helvetica, sans-serif" font-size="14" font-weight="700" text-anchor="start" fill="#111">speaker</text>
<text x="42" y="532" font-family="Arial, Helvetica, sans-serif" font-size="16" font-weight="700" text-anchor="start" fill="#111">Input</text>
<line x1="42" y1="540" x2="96" y2="540" class="wire"/>
<line x1="96" y1="540" x2="160" y2="540" class="wire"/>
<line x1="160" y1="516" x2="160" y2="564" class="wire"/>
<line x1="188" y1="516" x2="188" y2="564" class="wire"/>
<line x1="188" y1="540" x2="252" y2="540" class="wire"/>
<text x="174" y="506" font-family="Arial, Helvetica, sans-serif" font-size="14" font-weight="700" text-anchor="middle" fill="#111">C3 10u</text>
<text x="204" y="523" font-family="Arial, Helvetica, sans-serif" font-size="18" font-weight="700" text-anchor="middle" fill="#111">+</text>
<line x1="252" y1="540" x2="306" y2="540" class="wire"/>
<circle cx="306" cy="540" r="5" class="node"/>
<line x1="306" y1="540" x2="306" y2="567" class="wire"/>
<rect x="292" y="567" width="28" height="76" class="wire"/>
<line x1="306" y1="643" x2="306" y2="670" class="wire"/>
<text x="282" y="610" font-family="Arial, Helvetica, sans-serif" font-size="14" font-weight="700" text-anchor="end" fill="#111">R3 10k</text>
<line x1="306" y1="670" x2="306" y2="684" class="wire"/>
<line x1="280" y1="684" x2="332" y2="684" class="wire"/>
<line x1="289" y1="697" x2="323" y2="697" class="wire"/>
<line x1="298" y1="710" x2="314" y2="710" class="wire"/>
<circle cx="430" cy="540" r="54" class="wire"/>
<line x1="376" y1="540" x2="414" y2="540" class="wire"/>
<line x1="414" y1="506" x2="414" y2="574" class="wire"/>
<line x1="414" y1="516" x2="460" y2="495" class="wire"/>
<line x1="414" y1="564" x2="460" y2="585" class="wire"/>
<polygon points="446.20,578.70 430.27,577.47 434.84,567.47" fill="#111" stroke="none"/>
<text x="386" y="622" font-family="Arial, Helvetica, sans-serif" font-size="14" font-weight="700" text-anchor="middle" fill="#111">VT1 KT3102A</text>
<line x1="306" y1="540" x2="376" y2="540" class="wire"/>
<line x1="460" y1="450" x2="460" y2="495" class="wire"/>
<circle cx="460" cy="450" r="5" class="node"/>
<line x1="460" y1="450" x2="646" y2="450" class="wire"/>
<line x1="460" y1="585" x2="460" y2="610" class="wire"/>
<line x1="460" y1="610" x2="460" y2="617" class="wire"/>
<rect x="446" y="617" width="28" height="76" class="wire"/>
<line x1="460" y1="693" x2="460" y2="700" class="wire"/>
<text x="484" y="660" font-family="Arial, Helvetica, sans-serif" font-size="14" font-weight="700" text-anchor="start" fill="#111">R4 100</text>
<line x1="460" y1="700" x2="460" y2="714" class="wire"/>
<line x1="434" y1="714" x2="486" y2="714" class="wire"/>
<line x1="443" y1="727" x2="477" y2="727" class="wire"/>
<line x1="452" y1="740" x2="468" y2="740" class="wire"/>
<line x1="180" y1="430" x2="205" y2="430" class="wire"/>
<rect x="205" y="416" width="76" height="28" class="wire"/>
<line x1="281" y1="430" x2="306" y2="430" class="wire"/>
<text x="243" y="404" font-family="Arial, Helvetica, sans-serif" font-size="14" font-weight="700" text-anchor="middle" fill="#111">R2 47k</text>
<line x1="156" y1="430" x2="180" y2="430" class="wire"/>
<text x="130" y="435" font-family="Arial, Helvetica, sans-serif" font-size="12" font-weight="700" text-anchor="start" fill="#111">OUT</text>
<line x1="306" y1="430" x2="306" y2="540" class="wire"/>
</svg>
