<svg xmlns="http://www.w3.org/2000/svg" width="1100" height="680" viewBox="0 0 1100 680">
<defs>
<style>
.wire{stroke:#111;stroke-width:2.6;fill:none;stroke-linecap:round;stroke-linejoin:round}
.thin{stroke:#a7b0bd;stroke-width:1.2;fill:none;stroke-linecap:round;stroke-linejoin:round}
.axis{stroke:#111;stroke-width:1.4;fill:none}
.blue{stroke:#1665d8;stroke-width:3;fill:none;stroke-linecap:round;stroke-linejoin:round}
.green{stroke:#13795b;stroke-width:3;fill:none;stroke-linecap:round;stroke-linejoin:round}
.orange{stroke:#b54708;stroke-width:3;fill:none;stroke-linecap:round;stroke-linejoin:round}
.node{fill:#111;stroke:none}
</style>
</defs>
<rect width="100%" height="100%" fill="#fff"/>
<text x="42" y="42" font-family="Arial, Helvetica, sans-serif" font-size="22" font-weight="700" text-anchor="start" fill="#111">Reconstructed shema-1804-6 BJT audio amplifier</text>
<text x="42" y="68" font-family="Arial, Helvetica, sans-serif" font-size="13" font-weight="400" text-anchor="start" fill="#111">Layout redrawn close to the original; standard passive values; load = 8 ohm</text>
<line x1="300" y1="98" x2="965" y2="98" class="wire"/>
<polyline points="965,90 982,98 965,106" class="wire" fill="none"/>
<text x="1000" y="104" font-family="Arial, Helvetica, sans-serif" font-size="18" font-weight="700" text-anchor="start" fill="#111">+12 V</text>
<circle cx="300" cy="98" r="5" class="node"/>
<circle cx="460" cy="98" r="5" class="node"/>
<circle cx="730" cy="98" r="5" class="node"/>
<line x1="300" y1="98" x2="300" y2="145" class="wire"/>
<line x1="276" y1="145" x2="324" y2="145" class="wire"/>
<line x1="276" y1="173" x2="324" y2="173" class="wire"/>
<line x1="300" y1="173" x2="300" y2="220" class="wire"/>
<text x="272" y="164" font-family="Arial, Helvetica, sans-serif" font-size="14" font-weight="700" text-anchor="end" fill="#111">C1 1000u</text>
<text x="272" y="130" font-family="Arial, Helvetica, sans-serif" font-size="18" font-weight="700" text-anchor="end" fill="#111">+</text>
<line x1="300" y1="220" x2="300" y2="234" class="wire"/>
<line x1="274" y1="234" x2="326" y2="234" class="wire"/>
<line x1="283" y1="247" x2="317" y2="247" class="wire"/>
<line x1="292" y1="260" x2="308" y2="260" class="wire"/>
<polyline points="460,98 460,109.04 446,116.4 474,127.44 446,138.48 474,149.52 446,160.56 474,171.6 460,178.96 460,190" class="wire" fill="none"/>
<text x="484" y="149" font-family="Arial, Helvetica, sans-serif" font-size="14" font-weight="700" text-anchor="start" fill="#111">R1 2.37k</text>
<line x1="460" y1="190" x2="460" y2="218" class="wire"/>
<line x1="460" y1="218" x2="460" y2="240" class="wire"/>
<polyline points="438,240 482,240 460,272 438,240" class="wire" fill="none"/>
<line x1="438" y1="278" x2="482" y2="278" class="wire"/>
<line x1="460" y1="278" x2="460" y2="310" class="wire"/>
<text x="494" y="268" font-family="Arial, Helvetica, sans-serif" font-size="14" font-weight="700" text-anchor="start" fill="#111">VD1 KD521A</text>
<line x1="460" y1="310" x2="460" y2="332" class="wire"/>
<polyline points="438,332 482,332 460,364 438,332" class="wire" fill="none"/>
<line x1="438" y1="370" x2="482" y2="370" class="wire"/>
<line x1="460" y1="370" x2="460" y2="402" class="wire"/>
<text x="494" y="360" font-family="Arial, Helvetica, sans-serif" font-size="14" font-weight="700" text-anchor="start" fill="#111">VD2 KD521A</text>
<circle cx="460" cy="190" r="5" class="node"/>
<circle cx="460" cy="402" r="5" class="node"/>
<circle cx="700" cy="240" r="54" class="wire"/>
<line x1="646" y1="240" x2="684" y2="240" class="wire"/>
<line x1="684" y1="206" x2="684" y2="274" class="wire"/>
<line x1="684" y1="216" x2="730" y2="195" class="wire"/>
<line x1="684" y1="264" x2="730" y2="285" class="wire"/>
<polygon points="716.20,278.70 700.27,277.47 704.84,267.47" fill="#111" stroke="none"/>
<text x="700" y="322" font-family="Arial, Helvetica, sans-serif" font-size="14" font-weight="700" text-anchor="middle" fill="#111">VT2 KT817A</text>
<line x1="730" y1="195" x2="730" y2="98" class="wire"/>
<line x1="460" y1="190" x2="646" y2="240" class="wire"/>
<line x1="730" y1="285" x2="820" y2="360" class="wire"/>
<circle cx="700" cy="500" r="54" class="wire"/>
<line x1="646" y1="500" x2="684" y2="500" class="wire"/>
<line x1="684" y1="466" x2="684" y2="534" class="wire"/>
<line x1="684" y1="476" x2="730" y2="455" class="wire"/>
<line x1="684" y1="524" x2="730" y2="545" class="wire"/>
<polygon points="703.32,467.18 719.25,465.95 714.68,455.95" fill="#111" stroke="none"/>
<text x="700" y="582" font-family="Arial, Helvetica, sans-serif" font-size="14" font-weight="700" text-anchor="middle" fill="#111">VT3 KT816A</text>
<line x1="460" y1="402" x2="610" y2="402" class="wire"/>
<line x1="610" y1="402" x2="646" y2="500" class="wire"/>
<line x1="730" y1="455" x2="820" y2="360" class="wire"/>
<line x1="730" y1="545" x2="730" y2="610" class="wire"/>
<line x1="730" y1="610" x2="730" y2="624" class="wire"/>
<line x1="704" y1="624" x2="756" y2="624" class="wire"/>
<line x1="713" y1="637" x2="747" y2="637" class="wire"/>
<line x1="722" y1="650" x2="738" y2="650" class="wire"/>
<circle cx="820" cy="360" r="5" class="node"/>
<line x1="820" y1="360" x2="878.5" y2="360" class="wire"/>
<line x1="878.5" y1="336" x2="878.5" y2="384" class="wire"/>
<line x1="906.5" y1="336" x2="906.5" y2="384" class="wire"/>
<line x1="906.5" y1="360" x2="965" y2="360" class="wire"/>
<text x="892.5" y="326" font-family="Arial, Helvetica, sans-serif" font-size="14" font-weight="700" text-anchor="middle" fill="#111">C2 4700u +</text>
<line x1="965" y1="360" x2="1018" y2="360" class="wire"/>
<polyline points="1018,360 1018,381.6 1004,396 1032,417.6 1004,439.2 1032,460.8 1004,482.4 1032,504 1018,518.4 1018,540" class="wire" fill="none"/>
<text x="1042" y="455" font-family="Arial, Helvetica, sans-serif" font-size="14" font-weight="700" text-anchor="start" fill="#111">B1 8 ohm</text>
<line x1="1018" y1="540" x2="1018" y2="554" class="wire"/>
<line x1="992" y1="554" x2="1044" y2="554" class="wire"/>
<line x1="1001" y1="567" x2="1035" y2="567" class="wire"/>
<line x1="1010" y1="580" x2="1026" y2="580" class="wire"/>
<text x="972" y="334" font-family="Arial, Helvetica, sans-serif" font-size="14" font-weight="700" text-anchor="start" fill="#111">speaker</text>
<text x="42" y="482" font-family="Arial, Helvetica, sans-serif" font-size="16" font-weight="700" text-anchor="start" fill="#111">Input</text>
<line x1="42" y1="490" x2="96" y2="490" class="wire"/>
<circle cx="96" cy="490" r="5" class="node"/>
<polyline points="96,490 96,502.6 82,511 110,523.6 82,536.2 110,548.8 82,561.4 110,574 96,582.4 96,595" class="wire" fill="none"/>
<text x="120" y="547.5" font-family="Arial, Helvetica, sans-serif" font-size="14" font-weight="700" text-anchor="start" fill="#111">R4 470k</text>
<line x1="96" y1="595" x2="96" y2="609" class="wire"/>
<line x1="70" y1="609" x2="122" y2="609" class="wire"/>
<line x1="79" y1="622" x2="113" y2="622" class="wire"/>
<line x1="88" y1="635" x2="104" y2="635" class="wire"/>
<line x1="96" y1="490" x2="160" y2="490" class="wire"/>
<line x1="160" y1="466" x2="160" y2="514" class="wire"/>
<line x1="188" y1="466" x2="188" y2="514" class="wire"/>
<line x1="188" y1="490" x2="252" y2="490" class="wire"/>
<text x="174" y="456" font-family="Arial, Helvetica, sans-serif" font-size="14" font-weight="700" text-anchor="middle" fill="#111">C3 10u +</text>
<line x1="252" y1="490" x2="306" y2="490" class="wire"/>
<circle cx="306" cy="490" r="5" class="node"/>
<polyline points="306,490 306,504.4 292,514 320,528.4 292,542.8 320,557.2 292,571.6 320,586 306,595.6 306,610" class="wire" fill="none"/>
<text x="282" y="555" font-family="Arial, Helvetica, sans-serif" font-size="14" font-weight="700" text-anchor="end" fill="#111">R3 1k</text>
<line x1="306" y1="610" x2="306" y2="624" class="wire"/>
<line x1="280" y1="624" x2="332" y2="624" class="wire"/>
<line x1="289" y1="637" x2="323" y2="637" class="wire"/>
<line x1="298" y1="650" x2="314" y2="650" class="wire"/>
<circle cx="486" cy="490" r="54" class="wire"/>
<line x1="432" y1="490" x2="470" y2="490" class="wire"/>
<line x1="470" y1="456" x2="470" y2="524" class="wire"/>
<line x1="470" y1="466" x2="516" y2="445" class="wire"/>
<line x1="470" y1="514" x2="516" y2="535" class="wire"/>
<polygon points="502.20,528.70 486.27,527.47 490.84,517.47" fill="#111" stroke="none"/>
<text x="486" y="572" font-family="Arial, Helvetica, sans-serif" font-size="14" font-weight="700" text-anchor="middle" fill="#111">VT1 KT3102A</text>
<line x1="306" y1="490" x2="432" y2="490" class="wire"/>
<line x1="516" y1="445" x2="516" y2="402" class="wire"/>
<line x1="516" y1="402" x2="460" y2="402" class="wire"/>
<line x1="516" y1="535" x2="516" y2="620" class="wire"/>
<line x1="516" y1="620" x2="516" y2="634" class="wire"/>
<line x1="490" y1="634" x2="542" y2="634" class="wire"/>
<line x1="499" y1="647" x2="533" y2="647" class="wire"/>
<line x1="508" y1="660" x2="524" y2="660" class="wire"/>
<polyline points="306,360 324.48,360 336.8,346 355.28,374 373.76,346 392.24,374 410.72,346 429.2,374 441.52,360 460,360" class="wire" fill="none"/>
<text x="383" y="334" font-family="Arial, Helvetica, sans-serif" font-size="14" font-weight="700" text-anchor="middle" fill="#111">R2 6.98k</text>
<line x1="306" y1="360" x2="306" y2="490" class="wire"/>
<line x1="460" y1="360" x2="460" y2="402" class="wire"/>
</svg>
